<?xml version="1.0" encoding="UTF-8" standalone="no"?>
<!DOCTYPE svg PUBLIC "-//W3C//DTD SVG 1.1//EN" "http://www.w3.org/Graphics/SVG/1.1/DTD/svg11.dtd">
<svg xmlns="http://www.w3.org/2000/svg" version="1.1" viewBox="0.00 0.00 1200.00 1200.00">
<path fill="#000000" d="
  M 484.18 1038.57
  L 484.38 1039.28
  A 1.13 1.13 0.0 0 1 484.35 1040.01
  L 477.71 1057.16
  A 0.10 0.08 -38.0 0 1 477.70 1057.20
  L 475.66 1068.22
  A 2.48 2.37 -26.7 0 1 475.39 1068.98
  Q 473.21 1072.95 470.39 1076.22
  C 464.90 1082.58 462.17 1086.01 454.27 1087.36
  A 3.62 3.57 -43.4 0 1 452.84 1087.33
  C 448.23 1086.29 445.05 1085.02 442.07 1086.33
  A 0.83 0.82 52.9 0 1 441.22 1086.21
  Q 437.63 1083.25 435.85 1083.01
  Q 429.72 1082.19 424.06 1078.92
  A 2.66 2.59 64.2 0 0 423.21 1078.61
  C 417.26 1077.53 411.25 1077.07 407.30 1071.73
  Q 406.63 1070.83 407.44 1069.19
  A 1.03 1.03 0.0 0 0 407.44 1068.27
  C 405.74 1064.96 406.98 1054.89 407.97 1052.04
  A 0.64 0.60 50.4 0 0 407.99 1051.73
  L 406.07 1041.11
  A 1.28 1.28 0.0 0 0 405.50 1040.26
  Q 400.12 1036.82 393.99 1035.11
  A 0.82 0.81 22.2 0 0 393.07 1035.49
  C 392.91 1035.77 392.91 1036.47 392.68 1037.15
  C 390.13 1044.37 382.98 1055.34 374.28 1055.94
  Q 370.07 1056.23 361.86 1052.40
  Q 351.21 1047.45 343.26 1042.73
  A 1.96 1.76 66.4 0 0 342.82 1042.53
  L 338.14 1041.18
  A 7.40 7.14 -20.5 0 1 336.46 1040.45
  Q 325.97 1034.23 310.44 1027.60
  Q 305.75 1025.59 295.94 1019.25
  A 3.86 3.80 70.2 0 0 295.00 1018.80
  C 291.50 1017.68 288.52 1016.08 284.11 1014.77
  Q 281.24 1013.91 277.03 1011.27
  Q 274.10 1009.44 274.27 1005.39
  A 0.97 0.96 -87.9 0 0 273.35 1004.39
  C 270.84 1004.29 269.13 1003.16 266.17 1003.41
  Q 263.34 1003.64 260.81 1001.92
  Q 253.90 997.21 247.03 991.59
  A 3.62 3.54 -11.9 0 0 246.29 991.12
  Q 234.71 985.65 226.08 981.42
  Q 221.36 979.10 218.37 977.04
  Q 213.90 973.95 210.99 972.37
  Q 201.84 967.39 195.15 962.64
  A 1.08 1.07 57.1 0 0 194.34 962.46
  L 192.21 962.85
  A 1.73 1.68 50.3 0 1 191.29 962.75
  C 186.09 960.57 181.20 959.59 180.59 954.96
  Q 179.46 946.36 180.18 943.43
  C 181.93 936.28 187.87 933.28 194.76 932.23
  Q 197.76 931.78 213.43 930.73
  A 1.21 1.19 -31.3 0 1 214.10 930.89
  Q 214.18 930.93 214.35 931.04
  A 0.71 0.64 -26.3 0 0 214.71 931.14
  C 218.07 931.12 223.63 931.51 227.76 930.46
  Q 231.08 929.62 234.23 932.17
  A 1.58 1.56 -30.2 0 0 235.51 932.50
  Q 240.95 931.54 247.25 932.81
  A 7.17 6.46 48.0 0 0 248.41 932.93
  Q 257.35 932.99 274.26 931.45
  Q 275.87 931.30 276.89 931.01
  A 1.59 1.45 -44.0 0 1 277.58 930.99
  L 295.87 934.77
  A 2.67 2.67 0.0 0 0 296.99 934.77
  Q 302.04 933.68 304.45 934.35
  Q 316.88 937.81 331.24 940.92
  A 1.48 1.32 -38.9 0 0 331.65 940.94
  L 335.82 940.46
  A 2.49 2.48 -41.7 0 1 336.73 940.51
  L 353.53 944.68
  A 1.23 1.22 39.4 0 0 354.36 944.60
  Q 355.59 944.03 356.67 944.13
  A 2.63 2.57 62.4 0 1 357.65 944.45
  C 359.42 945.45 362.24 948.71 365.75 946.97
  Q 370.93 944.40 375.48 947.18
  A 0.67 0.66 -48.4 0 0 376.25 947.13
  Q 378.12 945.60 378.23 944.18
  C 378.65 938.56 381.43 933.94 383.74 929.33
  Q 384.49 927.82 384.89 926.37
  C 385.31 924.82 386.13 923.89 386.70 922.55
  Q 391.50 911.28 393.22 907.09
  A 1.18 1.16 -42.6 0 0 393.26 906.28
  Q 392.85 904.86 393.11 903.77
  C 393.88 900.56 395.76 895.77 396.63 891.63
  Q 397.40 887.98 398.03 886.82
  A 0.52 0.52 0.0 0 0 397.68 886.06
  L 396.79 885.88
  A 1.93 1.91 -18.7 0 1 395.97 885.48
  L 388.43 879.24
  A 2.26 1.76 -7.0 0 0 387.93 878.94
  L 377.87 874.74
  A 1.18 1.17 84.6 0 1 377.33 874.29
  C 375.03 870.78 370.03 867.82 366.49 866.04
  Q 360.22 862.90 354.26 856.56
  C 345.99 847.75 348.18 834.51 350.80 824.02
  Q 353.26 814.16 354.73 809.72
  Q 355.92 806.16 356.94 801.19
  C 358.00 796.04 361.19 790.00 362.52 785.16
  Q 362.60 784.86 365.06 777.24
  A 2.50 2.45 -38.7 0 0 365.18 776.26
  Q 365.13 775.51 365.28 775.25
  Q 370.29 766.27 372.68 756.44
  C 373.76 752.01 375.06 748.43 377.16 744.99
  C 379.54 741.08 377.39 739.17 377.02 735.72
  A 2.73 2.66 -39.6 0 1 377.14 734.60
  Q 380.40 724.60 385.44 714.72
  A 0.98 0.95 66.0 0 0 385.55 714.42
  L 387.67 702.06
  A 0.76 0.70 -28.4 0 1 387.75 701.83
  L 389.17 699.26
  A 4.47 4.33 68.1 0 0 389.52 698.40
  Q 390.85 693.55 391.96 690.55
  Q 392.97 687.83 393.38 685.71
  Q 395.17 676.28 401.27 668.90
  A 2.43 2.41 67.9 0 0 401.83 667.56
  L 402.82 657.97
  A 1.44 0.98 -74.0 0 1 402.85 657.77
  Q 405.03 650.55 407.34 646.88
  A 2.54 2.53 -29.1 0 0 407.73 645.53
  Q 407.69 641.97 409.49 636.69
  A 5.13 4.86 60.2 0 0 409.73 635.70
  Q 410.64 629.28 412.49 623.61
  Q 413.22 621.36 415.33 617.41
  Q 417.25 613.79 418.24 611.23
  Q 423.40 597.81 425.43 582.93
  A 3.45 3.36 -29.3 0 1 425.72 581.95
  Q 431.93 568.35 433.19 553.69
  A 2.65 2.52 63.5 0 1 433.51 552.65
  Q 435.23 549.54 437.62 546.91
  C 438.34 546.12 439.56 545.97 440.30 545.29
  A 0.59 0.57 47.9 0 0 440.33 544.48
  C 435.54 539.11 439.57 534.42 443.02 529.12
  A 0.91 0.76 70.9 0 0 443.13 528.83
  L 445.29 517.21
  A 1.37 1.22 68.2 0 1 445.43 516.82
  L 451.73 504.51
  A 1.21 1.05 67.5 0 0 451.83 504.21
  Q 451.95 503.42 455.64 492.39
  Q 456.17 490.81 456.22 489.12
  A 0.85 0.80 30.0 0 0 456.07 488.62
  L 451.65 482.16
  A 4.46 4.42 -7.5 0 0 449.46 480.49
  Q 447.15 479.69 443.22 479.35
  C 440.15 479.09 437.83 474.17 436.57 473.18
  C 432.82 470.22 430.35 467.76 426.13 465.05
  C 419.24 460.61 411.92 455.50 406.07 449.60
  Q 404.17 447.69 401.06 446.20
  Q 396.81 444.15 393.05 441.67
  Q 386.88 437.59 385.14 430.19
  A 2.26 2.22 -42.7 0 1 385.20 428.98
  Q 387.60 421.73 387.67 420.45
  Q 388.05 413.49 388.86 404.76
  C 389.10 402.17 389.96 400.21 389.52 397.53
  A 3.53 3.53 0.0 0 1 389.52 396.41
  Q 390.89 388.70 392.32 378.18
  C 393.44 370.02 394.71 363.89 396.75 353.64
  C 397.23 351.26 398.27 349.53 397.54 346.87
  C 396.40 342.68 397.44 339.76 398.45 333.75
  Q 399.07 330.08 400.56 325.89
  Q 401.87 322.21 403.70 315.74
  A 2.53 2.51 -42.7 0 0 403.75 314.59
  L 403.25 311.81
  A 1.71 1.70 -38.8 0 1 403.36 310.84
  Q 404.81 307.46 405.36 305.12
  Q 408.19 293.00 411.75 282.23
  Q 412.19 280.89 415.28 273.30
  Q 416.56 270.15 418.04 260.04
  Q 418.18 259.03 417.45 256.08
  A 1.87 1.84 -42.7 0 1 417.50 255.03
  Q 418.26 252.78 420.03 244.60
  Q 421.51 237.72 423.07 234.52
  C 424.78 230.99 428.20 225.24 431.84 223.95
  A 1.85 1.85 0.0 0 1 433.01 223.92
  Q 440.29 226.05 442.01 226.74
  C 448.15 229.20 446.94 235.30 445.89 241.32
  A 8.91 8.85 -41.8 0 0 445.78 243.15
  C 445.92 245.67 444.85 247.24 445.43 249.74
  A 2.91 2.82 -46.3 0 1 445.44 250.97
  Q 443.65 259.06 441.82 269.26
  Q 440.63 275.93 436.12 288.35
  A 3.93 3.78 59.1 0 0 435.91 289.26
  C 435.60 292.36 433.86 294.99 433.14 297.88
  Q 432.22 301.62 431.53 303.87
  Q 428.83 312.74 428.77 321.07
  A 13.76 13.40 -39.0 0 1 428.42 324.04
  L 425.66 336.10
  A 3.20 3.07 -24.2 0 1 425.30 336.99
  Q 421.80 342.88 421.41 345.04
  Q 418.33 362.32 417.23 367.66
  Q 416.51 371.16 416.42 374.95
  Q 416.35 377.87 415.57 382.25
  A 2.82 2.67 67.1 0 1 415.23 383.16
  Q 413.83 385.50 413.44 387.19
  Q 409.18 405.44 410.92 424.23
  A 0.40 0.39 66.5 0 0 411.57 424.49
  Q 413.37 422.93 414.65 425.11
  Q 418.26 431.30 422.77 434.47
  C 429.45 439.18 437.86 445.79 446.67 450.05
  A 2.63 2.57 83.7 0 1 447.61 450.82
  Q 453.43 458.42 462.50 463.71
  A 1.00 0.99 27.6 0 0 463.91 463.27
  Q 466.93 456.82 468.79 450.03
  Q 472.05 438.05 473.19 432.31
  A 1.76 1.63 52.3 0 0 473.23 431.86
  L 473.23 430.16
  A 2.28 2.20 57.2 0 1 473.40 429.30
  L 479.50 414.57
  A 1.17 0.97 66.3 0 0 479.56 414.36
  C 480.43 409.59 482.06 404.99 483.00 401.12
  Q 487.04 384.59 491.86 370.50
  C 492.44 368.79 493.24 367.48 493.66 366.30
  A 4.06 4.05 57.0 0 0 493.88 365.25
  Q 494.34 359.43 497.45 354.45
  Q 499.65 350.92 501.42 347.14
  A 4.67 4.40 63.5 0 0 501.81 345.85
  Q 503.71 332.59 507.97 321.21
  C 508.41 320.01 509.31 319.02 509.45 318.09
  Q 509.66 316.67 517.97 289.45
  Q 519.65 283.96 522.89 277.02
  A 0.72 0.72 0.0 0 0 522.89 276.38
  Q 522.85 276.28 522.77 276.15
  A 0.51 0.49 -58.0 0 1 522.69 275.77
  L 525.20 261.26
  A 2.29 1.72 -40.2 0 1 525.28 260.98
  Q 527.61 254.40 531.58 250.58
  Q 534.36 247.90 535.01 247.08
  A 3.14 3.08 2.9 0 1 535.79 246.39
  Q 540.87 243.26 545.61 242.36
  C 548.46 241.82 551.10 243.54 553.24 245.24
  C 557.65 248.75 556.76 254.36 556.36 259.33
  Q 556.20 261.26 556.51 265.64
  Q 557.03 273.18 555.10 280.03
  Q 554.65 281.65 549.86 291.10
  A 2.33 2.33 0.0 0 0 549.64 292.49
  C 550.04 295.01 548.30 296.71 547.32 299.07
  Q 542.83 309.84 540.95 314.80
  C 539.01 319.93 538.27 324.69 537.04 329.51
  Q 536.95 329.83 537.32 332.12
  A 2.82 2.82 0.0 0 1 537.09 333.77
  L 531.76 345.21
  Q 531.76 345.22 531.76 345.23
  Q 530.39 355.14 526.47 361.72
  A 1.46 1.45 -36.6 0 0 526.31 362.78
  Q 527.08 366.01 525.64 370.40
  Q 523.27 377.60 521.61 384.00
  A 3.27 3.16 68.8 0 1 521.24 384.88
  Q 518.42 389.53 518.07 390.35
  Q 514.64 398.30 512.88 407.26
  A 0.86 0.86 0.0 0 0 513.02 407.92
  L 513.27 408.28
  A 1.27 1.27 0.0 0 1 513.30 409.66
  L 507.78 418.67
  A 0.50 0.31 -31.7 0 0 507.71 418.81
  Q 505.92 424.59 502.50 436.22
  C 501.04 441.16 500.67 446.42 500.48 450.77
  Q 500.45 451.44 500.96 452.45
  A 0.81 0.79 -38.5 0 1 500.85 453.33
  Q 497.28 457.58 494.10 464.86
  Q 487.82 479.23 485.81 484.59
  A 5.12 5.01 -30.4 0 0 485.57 485.47
  Q 483.31 497.12 481.98 500.71
  Q 478.41 510.40 475.50 519.05
  C 475.04 520.43 474.01 521.24 473.54 522.15
  A 1.24 1.24 0.0 0 0 473.56 523.30
  Q 475.04 525.94 475.41 528.41
  A 1.29 1.28 59.7 0 1 475.16 529.38
  Q 473.32 531.82 472.44 533.71
  Q 469.23 540.67 466.91 551.20
  Q 465.71 556.62 464.37 560.47
  Q 462.95 564.58 461.89 569.73
  A 2.60 2.53 68.2 0 1 461.51 570.65
  Q 457.78 576.36 456.11 580.87
  Q 453.05 589.09 451.02 598.09
  Q 449.08 606.67 447.35 610.81
  C 444.95 616.51 442.19 621.60 440.58 627.13
  Q 436.80 640.03 435.49 645.75
  Q 434.58 649.73 433.59 656.19
  A 0.45 0.38 66.8 0 1 433.55 656.32
  L 430.17 663.60
  A 2.07 2.02 52.6 0 0 430.02 664.86
  Q 430.26 666.06 429.92 667.16
  Q 427.79 674.07 426.00 678.51
  Q 425.98 678.56 425.73 679.81
  A 2.48 2.41 -23.7 0 1 425.39 680.65
  Q 422.73 684.69 421.96 686.44
  C 417.98 695.53 414.17 705.59 411.58 716.50
  Q 407.38 734.19 405.90 739.71
  Q 404.05 746.65 398.03 762.27
  Q 397.32 764.13 396.44 767.59
  C 395.27 772.20 392.67 777.43 391.44 780.90
  Q 382.87 805.24 377.92 829.94
  A 2.63 2.54 -23.4 0 1 377.56 830.80
  L 370.47 841.76
  A 0.69 0.69 0.0 0 0 370.52 842.58
  Q 371.77 844.12 372.88 844.71
  C 377.74 847.28 381.96 849.45 386.98 853.03
  Q 391.95 856.57 396.30 858.73
  Q 404.43 862.79 431.40 874.59
  C 431.95 874.83 432.88 874.68 433.54 874.94
  Q 444.72 879.36 453.94 882.54
  Q 462.84 885.62 471.88 886.39
  A 5.91 5.82 63.4 0 1 474.58 887.31
  L 478.75 890.01
  A 3.18 3.04 68.9 0 0 479.56 890.39
  Q 488.99 893.20 495.52 894.33
  C 497.92 894.74 500.64 896.02 502.75 896.59
  Q 514.56 899.81 529.14 902.58
  A 3.65 3.52 65.8 0 1 530.41 903.09
  L 534.98 906.05
  A 3.57 3.42 66.0 0 0 536.23 906.56
  Q 548.37 908.99 557.53 910.46
  Q 559.48 910.78 562.90 912.42
  A 2.02 1.99 -35.0 0 0 564.02 912.61
  L 573.47 911.52
  A 1.13 1.12 86.1 0 0 574.46 910.38
  Q 574.29 903.79 575.80 898.28
  A 1.30 1.27 48.7 0 0 575.83 897.71
  L 575.18 894.14
  A 1.59 1.56 -38.7 0 1 575.29 893.21
  Q 576.07 891.38 579.30 883.80
  Q 581.31 879.08 582.67 874.07
  Q 585.37 864.08 588.64 854.36
  Q 588.97 853.38 589.09 853.24
  Q 589.63 852.63 589.07 852.17
  A 0.93 0.93 0.0 0 1 588.73 851.45
  C 588.80 845.64 590.84 842.09 593.54 836.20
  A 0.73 0.50 -34.4 0 0 593.61 836.02
  L 597.52 822.32
  A 0.86 0.67 -38.0 0 0 597.55 822.20
  Q 598.62 814.07 598.78 811.87
  Q 599.18 806.45 600.54 801.87
  Q 604.01 790.23 605.30 787.51
  Q 607.43 782.99 608.41 780.73
  C 610.89 774.98 612.05 767.89 613.41 762.92
  Q 613.92 761.03 615.46 749.25
  A 3.57 3.35 61.7 0 1 615.70 748.35
  Q 616.98 745.22 618.45 740.69
  Q 619.44 737.61 623.57 730.34
  A 1.11 1.08 55.1 0 0 623.69 729.61
  L 623.35 727.74
  A 0.90 0.83 48.9 0 1 623.36 727.35
  Q 626.41 715.20 627.21 703.29
  Q 627.29 702.10 628.61 699.83
  Q 632.20 693.68 633.15 691.18
  Q 635.91 683.97 639.60 670.11
  Q 639.92 668.90 643.40 660.70
  A 3.46 3.41 60.5 0 0 643.66 659.74
  Q 643.84 658.32 644.32 651.50
  Q 644.94 642.85 647.60 633.87
  Q 647.82 633.12 649.01 630.95
  A 2.52 2.51 63.2 0 0 649.31 630.03
  L 651.41 613.54
  A 1.75 1.19 68.0 0 1 651.48 613.22
  Q 655.25 602.11 655.85 600.67
  Q 657.38 597.05 658.74 590.89
  Q 659.73 586.40 661.49 580.89
  A 0.29 0.06 -55.9 0 1 661.52 580.82
  L 664.93 575.16
  A 3.96 3.91 69.1 0 0 665.32 574.27
  Q 667.76 566.18 668.22 564.80
  C 670.62 557.56 671.69 548.13 673.83 541.93
  A 0.86 0.77 52.2 0 0 673.86 541.51
  L 673.16 537.68
  A 1.12 1.07 52.7 0 1 673.23 537.05
  L 679.68 521.78
  A 1.44 1.40 45.3 0 0 679.67 520.65
  L 678.79 518.68
  A 1.25 1.22 -51.6 0 1 678.71 517.93
  L 681.49 504.48
  A 1.70 1.65 70.7 0 1 681.79 503.83
  C 684.87 499.76 691.11 492.47 687.44 487.15
  A 0.67 0.66 -41.1 0 1 687.50 486.33
  Q 689.00 484.70 689.38 483.18
  Q 691.63 474.02 693.05 462.29
  A 7.03 6.87 -33.0 0 1 693.31 461.13
  Q 696.05 452.75 699.81 444.32
  Q 700.80 442.09 701.28 438.26
  A 2.97 2.95 60.1 0 1 701.49 437.47
  L 703.43 432.74
  A 1.71 1.34 -38.0 0 0 703.49 432.50
  C 704.09 429.18 705.59 425.09 705.90 421.11
  Q 706.00 419.83 706.57 418.36
  Q 709.67 410.29 711.47 402.93
  A 0.09 0.03 -73.2 0 1 711.49 402.90
  L 715.37 393.66
  A 6.30 6.25 59.8 0 0 715.83 391.89
  Q 716.35 387.02 718.04 376.41
  C 719.21 369.05 722.78 362.12 724.96 355.23
  Q 726.59 350.08 727.35 341.45
  A 2.19 2.05 -28.6 0 1 727.66 340.51
  Q 731.36 334.57 733.58 325.81
  Q 734.66 321.52 733.33 318.50
  A 3.18 3.14 -48.7 0 1 733.20 316.26
  L 738.98 297.90
  A 4.23 3.92 74.6 0 1 739.63 296.65
  Q 745.27 289.35 753.22 286.18
  C 756.44 284.90 765.03 289.77 766.86 291.13
  Q 770.44 293.78 772.33 298.84
  A 2.51 2.51 0.0 0 1 772.33 300.60
  L 766.04 316.97
  A 8.28 7.39 82.4 0 0 765.69 318.06
  L 763.52 326.67
  A 3.96 3.80 53.3 0 0 763.40 327.63
  Q 763.39 328.30 763.29 329.10
  Q 762.92 331.90 757.79 346.78
  A 5.50 5.29 59.8 0 0 757.58 347.64
  C 756.96 351.52 756.10 357.71 754.31 362.37
  Q 750.96 371.12 747.23 378.11
  Q 745.86 380.68 748.46 382.36
  Q 754.46 386.24 762.76 390.26
  Q 763.18 390.46 764.84 391.93
  A 5.85 5.26 -6.4 0 0 765.78 392.60
  C 771.65 395.90 777.57 399.18 783.45 403.64
  Q 797.26 414.12 812.38 422.91
  Q 813.10 423.34 816.68 424.40
  A 3.99 3.87 -16.8 0 1 818.05 425.11
  Q 823.05 429.02 825.17 430.33
  Q 827.36 431.67 840.02 438.74
  A 4.12 4.06 81.4 0 1 840.86 439.37
  Q 841.88 440.37 842.71 440.78
  Q 849.12 443.99 853.49 447.91
  A 11.29 11.11 80.7 0 0 855.23 449.18
  Q 863.52 454.02 870.66 459.78
  A 5.43 5.29 -15.4 0 0 872.31 460.69
  L 883.07 464.42
  A 1.46 1.42 -6.5 0 1 883.77 464.96
  L 888.46 471.79
  A 3.54 3.52 75.3 0 0 891.05 473.31
  C 894.17 473.58 898.46 473.08 901.84 476.21
  C 905.97 480.05 909.64 483.31 914.93 486.34
  Q 923.42 491.19 930.08 495.27
  Q 931.61 496.20 934.05 498.19
  Q 935.83 499.64 938.63 500.45
  A 1.65 1.56 -9.3 0 1 939.44 501.00
  Q 940.33 502.14 941.67 503.06
  Q 942.24 503.46 955.67 512.69
  A 6.30 5.92 -1.8 0 1 956.70 513.60
  Q 962.03 519.59 968.58 524.85
  Q 969.33 525.45 970.80 528.50
  A 2.95 2.83 30.5 0 1 971.07 529.46
  L 971.60 534.49
  A 1.09 1.06 -30.1 0 1 971.38 535.27
  C 970.82 535.99 969.95 537.04 969.37 538.09
  Q 964.98 546.24 960.12 557.86
  Q 958.04 562.83 957.70 565.78
  A 1.65 1.61 -22.7 0 1 957.32 566.67
  C 955.49 568.79 954.95 570.47 953.17 573.91
  Q 951.79 576.57 950.98 579.03
  Q 949.16 584.63 947.45 590.82
  C 946.42 594.57 945.95 596.45 944.31 599.13
  Q 943.71 600.10 942.13 604.01
  Q 940.43 608.20 943.53 610.95
  C 951.78 618.28 962.45 622.49 973.78 627.24
  Q 977.71 628.88 979.18 625.22
  C 980.28 622.46 982.94 615.97 986.24 616.15
  Q 989.35 616.31 994.92 618.19
  A 1.61 1.59 -7.8 0 1 995.72 618.79
  L 999.61 624.47
  A 0.73 0.71 79.8 0 0 999.97 624.73
  C 1006.77 626.75 1010.58 628.35 1016.64 629.84
  Q 1020.76 630.86 1023.88 632.62
  C 1032.38 637.43 1035.51 639.38 1043.59 643.48
  C 1046.18 644.79 1060.92 652.02 1059.92 656.25
  A 1.22 1.19 35.4 0 0 1060.09 657.17
  Q 1063.15 661.85 1062.79 666.28
  Q 1061.98 676.09 1056.06 686.15
  A 5.80 5.49 -20.3 0 0 1055.65 686.98
  Q 1052.13 695.93 1051.33 697.82
  C 1048.70 704.12 1042.64 706.06 1036.82 708.56
  A 3.71 3.68 41.3 0 1 1034.36 708.71
  Q 1024.96 706.05 1018.54 704.01
  Q 1016.38 703.33 1013.68 704.67
  A 1.07 1.07 0.0 0 0 1013.09 705.48
  Q 1012.20 711.23 1009.02 716.54
  A 0.58 0.58 0.0 0 0 1009.31 717.37
  Q 1009.43 717.42 1009.99 717.32
  Q 1010.34 717.26 1010.73 717.52
  C 1014.44 719.96 1017.70 723.31 1020.58 726.67
  C 1023.62 730.20 1025.46 734.53 1025.30 739.24
  Q 1025.23 741.39 1023.74 744.81
  Q 1020.55 752.16 1015.45 762.89
  Q 1014.06 765.81 1010.60 771.30
  Q 1008.47 774.69 1005.94 779.84
  A 2.68 2.63 55.8 0 0 1005.68 781.26
  Q 1005.86 783.32 1004.23 785.41
  A 3.91 3.84 -19.4 0 0 1003.51 786.88
  L 1001.63 794.48
  A 0.95 0.83 -27.1 0 1 1001.53 794.73
  Q 999.64 798.40 996.60 800.52
  A 2.12 2.09 84.2 0 0 995.83 801.48
  Q 992.38 810.27 986.07 818.59
  Q 984.91 820.12 983.69 825.92
  A 1.38 1.37 -5.6 0 1 982.89 826.89
  L 982.67 826.99
  A 1.95 1.92 -85.2 0 0 981.76 827.77
  Q 970.67 845.62 967.69 852.14
  Q 963.13 862.13 960.85 865.03
  C 959.12 867.24 958.61 869.40 957.03 871.81
  Q 945.46 889.50 937.52 903.00
  C 935.56 906.33 927.98 909.37 924.60 910.28
  C 917.51 912.19 908.21 903.78 905.05 898.52
  Q 904.00 896.77 904.75 892.77
  Q 905.91 886.60 906.05 884.02
  A 1.67 1.61 -53.4 0 0 905.97 883.40
  L 905.69 882.54
  A 5.93 5.85 -51.3 0 1 905.44 880.12
  Q 906.31 872.42 906.50 868.01
  Q 906.55 866.76 905.79 865.21
  A 0.90 0.90 0.0 0 1 905.86 864.29
  Q 906.17 863.84 907.56 859.61
  Q 908.93 855.46 911.59 853.01
  A 0.30 0.30 0.0 0 0 911.50 852.51
  Q 909.80 851.78 910.11 849.51
  C 910.62 845.76 910.82 841.07 911.94 837.24
  Q 912.84 834.17 915.16 825.02
  A 1.55 1.48 43.7 0 0 915.12 824.12
  C 914.31 821.77 915.67 819.66 915.93 817.50
  Q 916.69 811.16 918.13 804.39
  Q 919.59 797.53 919.91 791.27
  Q 920.49 779.81 921.15 770.73
  Q 921.46 766.29 925.34 761.96
  C 927.12 759.97 925.27 757.89 925.81 755.69
  Q 926.09 754.53 925.32 753.34
  A 0.69 0.67 -43.3 0 1 925.35 752.57
  L 929.32 747.12
  A 0.72 0.64 71.6 0 0 929.45 746.82
  Q 930.98 738.56 931.39 737.09
  Q 935.15 723.73 936.52 716.44
  C 937.57 710.83 939.32 707.45 943.26 703.56
  Q 944.95 701.90 944.71 699.34
  A 1.24 1.24 0.0 0 0 944.09 698.38
  C 940.46 696.29 937.55 695.80 932.80 695.17
  A 2.95 2.88 62.4 0 1 931.76 694.83
  Q 929.12 693.36 927.72 691.08
  A 1.09 1.07 -8.9 0 0 927.01 690.57
  Q 919.18 688.84 914.39 684.59
  A 1.59 1.58 31.3 0 0 911.86 685.20
  L 905.51 701.62
  A 0.94 0.89 77.1 0 1 905.38 701.84
  L 901.85 706.54
  A 2.18 2.09 -23.3 0 0 901.45 707.49
  Q 901.33 708.34 901.77 710.00
  A 1.78 1.73 -44.2 0 1 901.74 711.02
  Q 900.70 714.22 898.90 717.66
  Q 894.61 725.85 890.55 735.74
  Q 889.93 737.23 888.19 738.84
  A 1.61 1.58 19.9 0 1 887.29 739.25
  Q 880.50 740.07 874.01 742.48
  A 1.63 1.61 43.7 0 1 872.96 742.50
  Q 871.38 742.00 870.55 742.11
  A 4.14 3.73 -57.5 0 0 869.61 742.37
  Q 865.92 743.89 864.14 743.12
  Q 861.82 742.12 853.99 736.78
  A 3.47 3.44 87.8 0 1 853.22 736.06
  Q 849.29 731.12 847.49 730.26
  Q 838.66 726.03 835.39 724.11
  Q 834.03 723.31 830.01 719.43
  A 4.48 4.17 79.5 0 0 829.16 718.80
  Q 825.18 716.52 821.18 714.61
  Q 820.84 714.45 819.77 713.03
  A 1.36 1.35 -9.8 0 0 819.06 712.53
  L 814.06 710.95
  A 0.93 0.92 71.9 0 1 813.75 710.79
  Q 802.66 701.64 789.44 692.56
  C 788.71 692.06 788.17 691.28 787.32 690.70
  Q 785.73 689.61 772.40 680.39
  Q 769.90 678.65 766.09 675.69
  C 763.79 673.89 760.54 671.80 758.07 669.19
  A 3.87 3.22 1.1 0 0 757.56 668.75
  Q 749.92 663.47 742.35 659.07
  C 740.05 657.74 736.58 655.02 735.57 653.27
  Q 735.22 652.65 734.51 652.46
  Q 732.09 651.80 730.27 651.02
  A 4.99 4.90 76.5 0 1 728.99 650.22
  C 723.80 645.79 718.34 641.45 712.25 638.88
  A 3.76 3.56 -12.9 0 1 711.37 638.36
  Q 702.82 631.67 691.42 623.76
  C 689.52 622.44 687.15 621.53 685.76 620.70
  A 1.80 1.75 -89.2 0 1 685.07 619.97
  Q 683.75 617.39 681.19 615.71
  A 0.33 0.33 0.0 0 0 680.68 616.01
  Q 680.88 619.48 680.17 622.97
  Q 678.44 631.50 675.40 639.38
  Q 674.75 641.04 674.00 642.13
  A 2.20 2.11 68.1 0 0 673.64 643.02
  Q 672.23 652.54 671.87 657.24
  Q 671.73 659.11 669.49 670.37
  A 1.27 0.89 -50.7 0 1 669.44 670.53
  L 667.35 675.04
  A 1.07 0.66 76.7 0 0 667.30 675.19
  L 663.63 690.05
  A 4.55 4.43 66.0 0 1 663.29 690.97
  Q 662.20 693.13 658.96 700.45
  Q 653.41 712.97 651.48 726.26
  Q 650.70 731.58 649.75 741.73
  A 2.93 2.78 61.9 0 1 649.50 742.64
  L 643.86 754.49
  A 2.21 2.14 57.6 0 0 643.65 755.51
  Q 643.65 755.53 642.38 761.17
  Q 641.67 764.31 640.82 766.74
  Q 638.23 774.09 637.17 778.52
  C 634.64 789.15 632.89 793.72 629.03 806.21
  C 628.05 809.39 627.58 812.68 626.04 815.70
  A 4.04 3.81 67.3 0 0 625.73 816.52
  Q 621.83 832.38 620.12 841.52
  Q 619.40 845.38 618.39 847.42
  C 617.53 849.17 616.06 852.47 615.29 855.03
  Q 612.03 865.78 608.01 875.25
  Q 607.04 877.54 606.92 879.85
  A 2.37 2.19 42.8 0 0 606.96 880.37
  L 607.88 884.51
  A 5.21 5.18 55.0 0 1 607.21 888.37
  C 604.18 893.24 601.69 897.17 600.46 902.03
  Q 598.35 910.40 597.59 919.83
  A 1.03 1.02 72.7 0 1 597.21 920.56
  Q 596.11 921.50 595.66 922.88
  Q 593.32 930.01 590.34 935.84
  C 588.05 940.30 584.77 942.67 579.26 943.19
  Q 576.08 943.49 569.50 944.77
  A 2.10 2.01 -41.4 0 1 568.52 944.73
  C 563.48 943.23 559.13 940.81 553.84 942.43
  A 1.24 1.22 -36.3 0 1 552.80 942.28
  Q 550.50 940.71 549.50 940.56
  Q 538.61 939.02 533.05 937.16
  Q 530.91 936.44 530.13 936.84
  A 0.03 0.02 -58.3 0 1 530.11 936.85
  L 523.58 934.65
  A 0.81 0.61 66.9 0 1 523.37 934.53
  C 521.22 932.92 517.48 930.90 515.03 929.39
  Q 509.49 925.95 503.05 925.37
  Q 499.43 925.04 498.34 924.60
  C 495.80 923.58 493.33 921.49 490.04 921.63
  A 0.98 0.98 0.0 0 0 489.19 922.22
  C 487.55 926.00 487.71 927.93 487.98 933.22
  A 2.38 2.35 -34.8 0 1 487.79 934.24
  Q 484.29 942.30 480.15 953.64
  Q 475.36 966.73 470.96 976.72
  Q 467.94 983.55 468.39 990.54
  Q 468.54 992.82 471.04 993.21
  Q 476.53 994.06 476.62 994.08
  A 12.98 12.95 62.3 0 1 479.83 995.08
  L 486.77 998.27
  A 1.53 1.46 -33.1 0 0 487.47 998.40
  Q 490.99 998.26 493.40 1000.40
  Q 498.71 1005.13 496.66 1012.31
  Q 492.04 1028.48 491.71 1030.07
  A 2.79 2.74 71.1 0 1 491.13 1031.28
  L 485.48 1038.07
  A 1.03 1.01 20.6 0 1 484.65 1038.44
  Q 484.62 1038.44 484.38 1038.37
  A 0.16 0.16 0.0 0 0 484.18 1038.57
  Z
  M 852.20 704.40
  Q 862.47 709.18 866.05 712.48
  Q 869.88 716.02 873.61 719.53
  A 0.63 0.63 0.0 0 0 874.66 718.94
  Q 873.94 715.48 874.87 713.12
  A 2.33 2.22 -15.0 0 1 875.26 712.48
  Q 878.21 709.12 879.63 704.88
  Q 883.39 693.67 887.86 683.84
  Q 891.05 676.82 893.48 670.92
  A 2.07 1.92 -16.3 0 1 893.82 670.35
  Q 894.30 669.75 894.52 669.28
  Q 895.79 666.69 898.90 659.73
  C 900.17 656.89 901.07 653.07 902.61 650.25
  C 903.36 648.88 902.98 647.00 904.09 646.28
  A 1.48 1.44 -5.8 0 0 904.62 645.65
  Q 907.06 640.32 908.00 637.50
  Q 912.30 624.57 915.23 609.51
  Q 915.47 608.31 917.30 604.89
  A 0.95 0.79 -31.7 0 0 917.41 604.56
  L 919.59 589.03
  A 0.16 0.16 0.0 0 0 919.59 588.95
  L 919.06 586.01
  A 0.92 0.91 -34.3 0 1 919.19 585.34
  L 923.66 578.44
  A 0.96 0.92 -25.3 0 0 923.81 578.05
  L 925.01 571.25
  A 2.56 2.49 -24.0 0 1 925.38 570.32
  L 928.04 566.21
  A 1.68 1.65 -26.1 0 0 928.30 565.47
  Q 928.77 560.14 929.15 559.42
  Q 932.71 552.81 935.78 545.91
  C 936.23 544.90 937.23 543.56 937.91 542.51
  A 1.42 1.41 43.4 0 0 937.86 540.88
  Q 937.28 540.12 937.20 539.32
  A 1.05 1.05 0.0 0 1 937.42 538.57
  C 938.67 536.96 939.81 535.73 940.17 534.51
  Q 941.43 530.20 936.69 528.54
  C 931.89 526.86 928.17 525.73 926.68 523.55
  A 3.26 3.19 89.0 0 0 925.79 522.67
  Q 916.99 516.77 911.14 512.49
  Q 910.16 511.78 906.25 510.86
  A 1.26 1.25 80.4 0 1 905.50 510.32
  Q 903.54 507.24 900.38 505.10
  Q 894.67 501.24 887.88 497.55
  Q 883.82 495.35 881.66 494.01
  Q 877.75 491.58 875.21 490.76
  A 1.94 1.92 81.4 0 1 874.23 490.03
  Q 873.58 489.11 867.89 485.56
  Q 864.00 483.13 838.01 465.53
  Q 835.44 463.79 829.97 460.84
  Q 824.94 458.13 822.00 456.07
  Q 814.85 451.06 809.40 446.92
  A 1.01 0.86 -12.9 0 0 809.13 446.78
  L 803.00 444.71
  A 1.89 1.80 -11.9 0 1 802.29 444.27
  Q 796.30 438.22 792.12 435.68
  Q 780.40 428.56 771.76 422.70
  A 3.97 3.94 88.2 0 1 770.84 421.83
  Q 770.43 421.30 770.29 421.21
  Q 761.59 415.33 758.97 413.80
  Q 755.91 412.01 753.51 410.20
  Q 751.94 409.02 747.25 406.62
  A 1.97 1.60 69.4 0 1 746.96 406.45
  L 743.74 404.17
  A 1.65 1.65 0.0 0 0 741.19 405.09
  Q 738.34 415.82 733.55 429.75
  Q 731.90 434.53 730.13 447.17
  C 729.54 451.37 728.44 455.00 727.62 458.26
  A 6.24 5.98 65.6 0 1 727.24 459.34
  L 724.39 465.43
  A 2.03 2.00 -39.9 0 0 724.26 466.79
  Q 724.50 467.79 724.32 468.61
  Q 722.15 478.38 717.99 486.23
  A 3.59 3.43 -25.2 0 0 717.75 486.85
  L 715.73 494.60
  A 1.52 1.48 -44.1 0 0 715.71 495.24
  L 716.02 497.00
  A 1.78 1.69 -43.6 0 1 715.98 497.82
  Q 713.79 505.43 712.04 509.98
  Q 710.68 513.51 708.09 526.74
  Q 708.02 527.08 708.32 527.94
  Q 708.58 528.67 708.53 529.12
  Q 708.04 534.10 707.73 538.11
  A 1.40 1.34 69.5 0 1 707.38 538.92
  L 703.78 542.84
  A 1.31 1.26 -15.1 0 0 703.49 543.32
  Q 699.85 554.21 698.36 563.81
  Q 697.76 567.68 696.72 570.27
  C 695.19 574.05 694.01 577.80 692.02 583.12
  Q 691.60 584.24 691.00 586.78
  C 690.08 590.63 689.96 593.44 692.51 596.75
  Q 698.07 603.96 706.05 606.50
  Q 708.50 607.27 710.31 608.98
  Q 721.54 619.55 736.64 627.10
  Q 740.99 629.27 753.07 638.18
  Q 755.32 639.84 765.76 646.02
  Q 770.42 648.77 777.22 654.85
  C 783.12 660.13 791.02 663.58 797.05 668.13
  A 4.16 3.91 71.8 0 0 798.06 668.68
  L 803.18 670.57
  A 2.65 2.58 72.4 0 1 803.85 670.93
  Q 808.16 674.28 813.89 679.14
  Q 815.92 680.86 824.01 686.60
  Q 824.65 687.05 825.26 687.79
  A 2.97 2.90 -3.1 0 0 825.99 688.43
  Q 836.43 694.98 846.78 699.93
  Q 848.36 700.69 851.66 704.02
  A 1.79 1.68 -8.1 0 0 852.20 704.40
  Z
  M 933.13 633.63
  Q 929.63 641.29 928.79 648.18
  Q 928.28 652.44 927.29 654.27
  Q 925.12 658.31 923.75 659.51
  Q 922.78 660.36 920.76 662.80
  A 1.50 1.48 -55.5 0 0 921.17 665.05
  Q 925.04 667.25 928.59 666.60
  A 2.94 2.93 -39.7 0 1 930.13 666.74
  Q 934.45 668.34 935.24 668.77
  C 940.99 671.84 944.79 673.86 949.29 674.09
  Q 952.26 674.24 953.05 674.92
  A 0.81 0.80 -39.7 0 0 954.00 675.00
  Q 956.56 673.44 958.28 671.02
  Q 963.61 663.51 967.48 652.43
  Q 967.61 652.08 968.15 651.22
  A 1.38 1.37 -59.7 0 0 967.64 649.26
  Q 959.66 645.00 957.20 643.49
  Q 952.32 640.49 947.09 638.56
  Q 941.69 636.57 934.90 633.02
  A 1.29 1.29 0.0 0 0 933.13 633.63
  Z
  M 445.66 981.42
  A 0.57 0.57 0.0 0 0 446.62 981.03
  L 446.90 976.15
  A 3.64 3.52 55.4 0 1 447.04 975.31
  Q 449.00 968.16 453.22 961.47
  A 5.93 5.68 72.4 0 0 453.75 960.39
  Q 459.31 945.58 461.89 937.71
  Q 462.57 935.61 463.27 931.53
  A 3.00 2.87 66.1 0 1 463.62 930.56
  Q 466.51 925.57 468.44 918.70
  Q 469.00 916.68 468.69 914.58
  A 0.88 0.87 -7.7 0 0 467.71 913.84
  C 464.09 914.28 460.32 912.78 457.79 911.45
  C 455.01 910.00 451.03 909.35 448.39 907.98
  Q 445.52 906.50 443.70 906.14
  C 441.43 905.70 436.68 903.14 432.28 902.79
  C 429.33 902.56 425.54 899.85 421.92 897.77
  A 2.09 2.09 0.0 0 0 418.84 899.11
  Q 416.30 910.05 411.80 920.42
  A 1.80 1.69 56.5 0 0 411.67 921.18
  L 411.69 921.75
  A 3.61 3.55 -36.9 0 1 411.47 923.19
  Q 410.00 927.13 408.44 931.02
  Q 407.27 933.94 406.75 936.03
  Q 405.49 941.11 405.48 941.14
  Q 405.08 942.05 404.68 942.96
  Q 404.52 943.34 400.21 950.63
  C 399.40 952.00 398.88 953.74 398.44 955.20
  A 2.57 2.42 -38.1 0 0 398.33 955.93
  C 398.28 960.36 401.89 961.27 405.16 962.41
  A 13.29 12.99 68.5 0 1 407.28 963.36
  Q 415.98 968.25 424.06 970.90
  Q 425.43 971.36 429.16 974.61
  A 0.76 0.76 0.0 0 0 430.11 974.65
  Q 430.18 974.60 430.29 974.49
  A 1.14 1.13 29.5 0 1 431.39 974.19
  Q 440.35 976.52 445.66 981.42
  Z"
/>
</svg>
