<svg width="1200" height="1200" viewBox="0 0 1200 1200" fill="none" xmlns="http://www.w3.org/2000/svg">
<path d="M647.48 153.47C651.74 154.397 656.217 155.003 660.91 155.29C661.257 155.317 661.544 155.337 661.77 155.35C665.564 155.597 670.257 156.233 675.85 157.26C691.15 160.073 704.33 166.663 715.39 177.03C719.41 180.8 720.95 183.86 718.13 188.9C716.297 192.18 713.744 194.46 710.47 195.74C710.157 195.864 709.813 195.895 709.48 195.83C702.314 194.497 696.347 191.26 691.58 186.12C691.345 185.865 691.045 185.675 690.71 185.57L684.74 183.69C684.647 183.657 684.557 183.613 684.47 183.56C678.38 179.53 670.39 177.45 663.27 176.46C659.164 175.893 654.544 175.317 649.41 174.73C644.904 174.217 640.25 174.27 635.45 174.89C630.95 175.47 626.3 179.48 622.98 181.4C621.18 182.44 618.877 182.593 616.07 181.86C615.709 181.768 615.373 181.59 615.09 181.34C612.957 179.5 611.197 177.253 609.81 174.6C609.398 173.808 609.288 172.891 609.5 172.02L611.47 163.94C611.631 163.286 612.04 162.722 612.61 162.37C618.884 158.423 623.43 156.05 626.25 155.25C629.164 154.423 634.997 153.98 643.75 153.92C644.197 153.913 645.12 153.76 646.52 153.46C646.836 153.394 647.164 153.398 647.48 153.47Z" fill="black"/>
<path d="M489.75 165.34C492.63 163.807 496.563 162.213 501.55 160.56C504.763 159.5 508.957 158.853 514.13 158.62C519.323 158.387 526.857 157.79 536.73 156.83C546.86 155.86 557.82 159.18 567.39 163.13C570.24 164.31 571.19 168.23 571.49 171.08C572.19 177.9 566 180.81 559.95 181.66C559.745 181.686 559.532 181.68 559.32 181.64L538.58 177.66C538.311 177.608 538.032 177.625 537.77 177.71C532.6 179.31 527.37 180.84 522.12 179.03C521.76 178.906 521.369 178.885 520.99 178.97C516.59 179.983 511.08 181.313 504.46 182.96C500.61 183.91 497.27 185.71 494.24 187.35C494.194 187.376 494.143 187.397 494.09 187.41L475.93 193.86C475.797 193.906 475.659 193.933 475.52 193.94C472.693 194.027 470.727 193.313 469.62 191.8C465.64 186.4 466.057 181.42 470.87 176.86C476.137 171.867 479.66 168.803 481.44 167.67C482.4 167.05 484.84 166.387 488.76 165.68C489.104 165.62 489.439 165.506 489.75 165.34Z" fill="black"/>
<path d="M678.35 731.89L679.12 732.84C679.193 732.929 679.243 733.036 679.264 733.149C679.285 733.263 679.277 733.38 679.24 733.49C678.02 737.38 679.68 744.78 680.51 749.23C683.396 764.81 685.136 777.98 685.73 788.74C686.283 798.733 687.216 806.587 688.53 812.3C688.69 813 689.346 814.987 690.5 818.26C690.766 819.02 690.74 820.91 690.42 823.93C690.406 824.03 690.406 824.13 690.42 824.23L692.88 849.27C692.926 849.741 692.899 850.216 692.8 850.68L691.91 854.93C691.903 854.97 691.903 855.014 691.91 855.06L694.07 869.11C694.103 869.341 694.093 869.575 694.04 869.8C693.853 870.553 693.746 871.453 693.72 872.5C693.573 878.6 694.476 890.607 696.43 908.52C697.21 915.653 697.896 919.9 698.49 921.26C698.602 921.518 698.761 921.752 698.96 921.95C699.97 922.94 700.11 922.98 700.56 924.32C701.506 927.16 702.99 929.31 705.01 930.77C706.67 931.97 710.736 934.4 717.21 938.06C721.056 940.24 724.536 943.007 727.65 946.36C731.943 950.993 736.173 955.593 740.34 960.16C741.07 960.96 742.48 961.36 742.63 962.67C742.669 963.012 742.789 963.341 742.98 963.63C745.62 967.483 747.696 970.62 749.21 973.04C751.21 976.24 753.303 979.343 755.49 982.35C759.85 988.337 763.09 992.907 765.21 996.06C766.503 997.987 767.5 999.673 768.2 1001.12C769.233 1003.25 769.513 1004.67 769.04 1005.4C768.963 1005.52 768.917 1005.66 768.907 1005.8C768.896 1005.94 768.921 1006.08 768.98 1006.21C770.27 1009.02 774.06 1008.62 772.56 1012.69C772.458 1012.96 772.412 1013.25 772.424 1013.54C772.436 1013.83 772.506 1014.12 772.63 1014.38C773.53 1016.31 774.49 1018.42 775.51 1020.73C777.91 1026.16 777.38 1030.18 775.22 1035.88C774.05 1038.94 770.84 1042.35 768.93 1044.14C766.19 1046.7 762.84 1047.3 758.88 1045.94C756.88 1045.26 755.18 1043.62 753.51 1042.84C753.36 1042.77 753.195 1042.74 753.031 1042.75C752.866 1042.76 752.707 1042.82 752.57 1042.91C751.19 1043.84 750.03 1044.15 749.09 1043.84C748.176 1043.53 745.356 1042.11 740.63 1039.57C740.504 1039.5 740.365 1039.46 740.22 1039.45L738.34 1039.3C738.052 1039.28 737.775 1039.18 737.54 1039.02C734.4 1036.9 730.02 1034.73 725.54 1031.85C721.886 1029.5 718.133 1027.38 714.28 1025.48C712.533 1024.62 710.843 1024.01 709.21 1023.64C708.886 1023.57 708.577 1023.43 708.3 1023.23C705.5 1021.22 702.44 1019.28 699.12 1017.43C698.913 1017.32 698.606 1016.95 698.2 1016.32C697.995 1016 697.671 1015.77 697.3 1015.69C692.106 1014.55 687.856 1013.13 684.55 1011.43C681.17 1009.69 677.16 1006.4 673.15 1004.3C668.383 1001.79 663.906 999.13 659.72 996.31C656.08 993.857 653.333 992.12 651.48 991.1C643.24 986.55 636.91 982.35 631.25 974.7C628.803 971.4 627.243 967.79 626.57 963.87C624.98 954.59 626.17 945.68 627.89 936.33C628.163 934.843 628.546 933.697 629.04 932.89C630.04 931.24 629.21 930.06 629.68 928.06C630.753 923.48 631.163 918.053 630.91 911.78C630.723 907.207 630.273 902.42 629.56 897.42C628.64 890.993 628.056 886.21 627.81 883.07C627.196 875.383 626.82 868.93 626.68 863.71C626.633 861.93 626.52 860.603 626.34 859.73C626.28 859.44 626.284 859.143 626.35 858.86C626.983 856.133 626.95 853.14 626.25 849.88C626.177 849.537 626.038 849.214 625.84 848.93C624.953 847.65 623.85 846.09 622.53 844.25C620.45 841.35 622.9 838.16 622.9 835.38C622.89 831.05 621.06 825.11 622.22 819.44C622.292 819.083 622.296 818.717 622.23 818.36C621.243 812.46 620.57 806.793 620.21 801.36C619.843 795.773 619.506 791.873 619.2 789.66C618.96 787.973 618.493 784.087 617.8 778C617.753 777.58 617.823 776.16 618.01 773.74C618.03 773.461 618.02 773.183 617.98 772.91L615.77 758.85C615.737 758.66 615.754 758.464 615.82 758.28C617.3 754.067 617.33 749.81 615.91 745.51C615.31 743.69 615.69 742.89 616.73 741.5C616.781 741.432 616.814 741.352 616.825 741.268C616.835 741.183 616.824 741.098 616.792 741.019C616.76 740.94 616.707 740.871 616.64 740.819C616.573 740.766 616.494 740.732 616.41 740.72C613.476 740.3 610.94 740.573 608.8 741.54C607.526 742.113 606.21 742.18 604.85 741.74C601.14 740.55 598.17 741.01 594.46 741.25C593.26 741.323 591.846 741.487 590.22 741.74C588.08 742.067 585.656 742.1 582.95 741.84C582.691 741.814 582.439 741.753 582.2 741.66C579.44 740.56 576.95 740.443 574.73 741.31C574.558 741.379 574.375 741.408 574.193 741.396C574.011 741.384 573.835 741.33 573.68 741.24L570.99 739.68C570.731 739.534 570.452 739.426 570.16 739.36L560.04 737.19C559.775 737.132 559.498 737.171 559.26 737.3C558.166 737.86 557.533 739.12 557.36 741.08C556.873 746.44 556.626 750.373 556.62 752.88C556.62 753.391 556.485 753.891 556.23 754.33C555.476 755.643 555.423 756.973 556.07 758.32C556.264 758.721 556.313 759.18 556.21 759.62C555.376 763.107 554.716 765.82 554.23 767.76C553.523 770.567 553.67 773.33 554.67 776.05C555.38 777.99 553.34 782.47 552.09 785.72C552.043 785.839 552.013 785.967 552 786.1L550.46 804.16C550.454 804.303 550.492 804.443 550.57 804.56L552.53 807.39C552.61 807.507 552.66 807.643 552.675 807.784C552.691 807.925 552.672 808.068 552.62 808.2C551.153 811.827 550.343 814.147 550.19 815.16C550.136 815.473 549.586 819.317 548.54 826.69C548.246 828.757 547.823 830.683 547.27 832.47C545.85 837.05 545.52 839.5 546.69 844.14C546.789 844.544 546.826 844.959 546.8 845.37C546.7 847.07 546.63 848.063 546.59 848.35C544.316 863.477 542.813 873.61 542.08 878.75C541.726 881.223 541.53 885.957 541.49 892.95C541.49 893.94 542.06 894.52 542.15 895.41C542.169 895.621 542.146 895.836 542.08 896.04L540.34 901.36C540.287 901.499 540.256 901.648 540.25 901.8C539.89 906.713 539.323 912.467 538.55 919.06C538.11 922.813 537.136 926.473 535.63 930.04C535.326 930.761 535.209 931.546 535.289 932.324C535.37 933.102 535.645 933.847 536.09 934.49L538.35 937.76C538.397 937.827 538.457 937.883 538.526 937.926C538.595 937.969 538.671 937.998 538.75 938.01C542.81 938.803 546.21 940.553 548.95 943.26C550.776 945.067 552.48 948.53 554.06 953.65C555.206 957.363 556.146 961.173 556.88 965.08C557.14 966.453 557.093 968.197 556.74 970.31C556.68 970.648 556.572 970.978 556.42 971.29C555.426 973.29 554.156 975.97 552.61 979.33C551.976 980.703 550.186 983.25 547.24 986.97C545.926 988.63 542.676 990.797 537.49 993.47C528.996 997.857 520.65 1002.48 512.45 1007.35C512.19 1007.5 511.923 1007.62 511.65 1007.73C510.196 1008.26 509.046 1008.75 508.2 1009.21C505.27 1010.81 501.07 1012.08 499.48 1012.84C498.813 1013.16 496.983 1013.72 493.99 1014.51C488.336 1016.02 484.686 1017.2 483.04 1018.05C476.313 1021.52 471.92 1023.73 469.86 1024.68C469.469 1024.86 469.057 1024.98 468.64 1025.03C466.133 1025.34 462.746 1026.26 458.48 1027.79C458.161 1027.9 457.862 1028.05 457.59 1028.24L450.07 1033.44C450.043 1033.46 450.013 1033.48 449.98 1033.49C449.373 1033.66 447.12 1034.63 443.22 1036.4C441.346 1037.25 439.28 1038.46 437.02 1040.02C433.226 1042.63 429.396 1045.22 425.53 1047.78C423.83 1048.91 420.643 1050.64 415.97 1052.98C412.73 1054.6 409.92 1056.8 406.8 1057.99C401.506 1060.02 395.73 1061.5 389.47 1062.42C389.12 1062.47 388.763 1062.45 388.42 1062.36C388.078 1062.27 387.757 1062.1 387.48 1061.88L379.96 1055.81C379.63 1055.54 379.401 1055.16 379.31 1054.75C378.236 1049.61 378.983 1044.88 381.55 1040.56C383.52 1037.24 386.8 1033.6 389.37 1029.73C394.256 1022.38 399.093 1015.52 403.88 1009.13C407.286 1004.58 412.183 998.31 418.57 990.31C420.25 988.21 423.79 985.99 426.04 983.45C428.186 981.023 432.493 976.13 438.96 968.77C440.033 967.55 441.213 966.347 442.5 965.16C446.71 961.3 449.73 957.16 454.52 951.01C456.28 948.76 460.11 947.24 462.1 944.22C462.272 943.955 462.4 943.661 462.48 943.35C463.5 939.35 464.52 936.13 464.81 932.8C465.036 930.227 465.466 925.743 466.1 919.35C466.126 919.051 466.109 918.748 466.05 918.45C465.156 914.15 465.85 910.547 468.13 907.64C468.233 907.506 468.29 907.341 468.292 907.172C468.294 907.002 468.24 906.836 468.14 906.7C467.593 905.967 467.403 905.323 467.57 904.77C468.556 901.543 468.683 898.55 467.95 895.79C467.838 895.377 467.831 894.943 467.93 894.53C468.97 890.017 469.556 886.917 469.69 885.23C469.903 882.437 470.466 880.083 471.38 878.17C471.512 877.891 471.603 877.595 471.65 877.29C472.723 870.23 473.41 862.82 473.71 855.06C473.836 851.773 474.046 848.583 474.34 845.49C474.68 841.81 474.546 838.243 473.94 834.79C473.749 833.698 473.814 832.579 474.13 831.52C475.94 825.44 477.83 818.88 475.98 813.02C475.87 812.685 475.881 812.324 476.01 812C478.296 806.213 479.076 799.967 478.35 793.26C477.816 788.353 477.686 784.847 477.96 782.74C478.34 779.74 478.58 777.637 478.68 776.43C479.21 769.82 480.81 763.12 482.31 757.06C482.95 754.473 482.766 751.84 481.76 749.16C481.473 748.4 481.44 746.957 481.66 744.83C482.13 740.43 488.35 732.81 483.13 729.32C480.763 727.747 478.896 726.94 477.53 726.9C474.503 726.82 471.77 726.537 469.33 726.05C469.005 725.99 468.688 725.876 468.39 725.71C466.73 724.8 465.16 723.68 463.82 723.65C463.653 723.65 457.37 722.373 444.97 719.82C444.67 719.76 444.376 719.67 444.09 719.55C440.75 718.21 438.136 717.35 436.25 716.97C435.503 716.817 434.083 717.09 431.99 717.79C431.467 717.964 430.902 717.942 430.4 717.73C426.833 716.203 423.463 714.123 420.29 711.49C420.185 711.405 420.057 711.346 419.92 711.32L410.69 709.77C410.564 709.75 410.442 709.706 410.33 709.64C409.003 708.813 407.126 707.54 404.7 705.82C404 705.32 401.463 704.667 397.09 703.86C396.794 703.807 396.516 703.687 396.28 703.51C390.79 699.44 387.34 696.91 381.72 695C373.646 692.273 366.733 689.343 360.98 686.21C358.66 684.95 353.286 681.417 344.86 675.61C344.566 675.41 343.316 674.84 341.11 673.9C340.751 673.747 340.412 673.553 340.1 673.32C337.906 671.687 336.053 670.49 334.54 669.73C334.434 669.677 334.336 669.606 334.25 669.52L330.61 665.94C330.273 665.61 329.872 665.348 329.43 665.17C325.856 663.73 322.783 661.477 320.21 658.41C319.609 657.687 319.283 656.777 319.29 655.84C319.34 651.98 320.59 648.1 320.52 644.64C320.4 638.827 320.32 635.82 320.28 635.62C319.48 631.77 320.27 627.89 319.77 624.03C319.73 623.697 319.896 623.01 320.27 621.97C320.328 621.812 320.35 621.643 320.333 621.476C320.315 621.309 320.26 621.15 320.17 621.01C319.476 619.883 319.463 618.8 320.13 617.76C320.232 617.599 320.297 617.416 320.317 617.225C320.338 617.034 320.315 616.841 320.25 616.66C319.236 613.907 319.243 611.467 320.27 609.34C320.456 608.948 320.488 608.498 320.36 608.08C319.193 604.333 318.38 600.143 317.92 595.51C317.813 594.417 317.893 592.66 318.16 590.24C318.513 587.02 318.466 582.047 318.02 575.32C317.593 568.873 317.456 560.39 317.61 549.87C317.776 537.85 316.876 526.8 314.91 516.72C314.843 516.393 314.75 516.137 314.63 515.95C314.547 515.819 314.499 515.669 314.49 515.515C314.482 515.361 314.512 515.208 314.58 515.07C314.84 514.523 314.956 513.747 314.93 512.74C314.87 510.973 314.823 505.58 314.79 496.56C314.783 495.32 314.61 494.303 314.27 493.51C313.79 492.38 314.82 491.03 314.88 489.5C315.153 483.24 315.276 479.49 315.25 478.25C315.036 468.457 313.966 458.443 312.04 448.21C311.92 447.57 311.926 446.887 312.06 446.16C312.119 445.856 312.116 445.54 312.05 445.23C309.996 436.023 309.266 426.717 309.86 417.31C309.873 417.178 309.859 417.042 309.82 416.91C309.56 415.877 309.666 414.223 310.14 411.95C310.5 410.243 310.413 407.23 309.88 402.91C309.827 402.474 309.861 402.032 309.98 401.61C310.813 398.703 310.9 396.067 310.24 393.7C310.149 393.375 310.159 393.033 310.27 392.72C310.543 391.967 310.676 391.457 310.67 391.19C310.63 386.25 310.71 377.54 310 370.7C309.76 368.4 309.79 366.01 310.09 363.53C310.263 362.137 310.503 359.797 310.81 356.51C311.496 349.097 312.6 342.8 314.12 337.62C315.75 332.04 320.21 328.68 322.88 323.75C324.28 321.183 326.31 317.48 328.97 312.64C329.068 312.466 329.131 312.274 329.155 312.075C329.179 311.876 329.164 311.674 329.11 311.48C328.97 310.973 328.673 310.55 328.22 310.21C328.127 310.139 328.05 310.048 327.995 309.944C327.941 309.841 327.91 309.727 327.904 309.61C327.898 309.494 327.918 309.378 327.962 309.271C328.006 309.164 328.074 309.068 328.16 308.99L335.11 302.7C335.262 302.561 335.39 302.399 335.49 302.22L340.31 293.26C340.33 293.22 340.357 293.18 340.39 293.14C342.503 290.673 345.6 286.94 349.68 281.94C350.64 280.773 351.376 279.543 351.89 278.25C352.006 277.946 352.228 277.688 352.52 277.52C356.38 275.32 359.98 272.33 363.32 268.55C365.41 266.19 367.1 264.41 369.84 262.45C377.253 257.13 384.57 251.75 391.79 246.31C398.063 241.583 403.896 237.757 409.29 234.83C416 231.2 423.57 230.3 431.03 227.93C433.716 227.077 437.12 226.273 441.24 225.52C442.266 225.333 445.383 223.97 450.59 221.43C450.868 221.297 451.161 221.206 451.46 221.16C452.006 221.067 452.5 220.963 452.94 220.85C460.56 218.857 466.203 217.397 469.87 216.47C473.59 215.53 478.9 214.87 481.56 214.28C482.566 214.053 483.74 214.413 485.08 215.36C485.213 215.453 485.336 215.523 485.45 215.57C485.532 215.601 485.621 215.613 485.709 215.605C485.796 215.597 485.881 215.569 485.957 215.524C486.033 215.479 486.098 215.418 486.147 215.344C486.195 215.271 486.227 215.187 486.24 215.1L486.33 214.21C486.348 214.017 486.406 213.83 486.499 213.66C486.592 213.49 486.718 213.34 486.87 213.22L502.27 200.65C503.188 199.903 503.958 198.987 504.54 197.95C505.886 195.537 507.01 194.1 507.91 193.64C511.943 191.573 514.553 190.35 515.74 189.97C519.873 188.643 522.15 187.82 522.57 187.5C522.7 187.4 522.852 187.331 523.013 187.298C523.174 187.266 523.34 187.269 523.5 187.31C529.17 188.78 534.8 186.98 540.16 186.95C543.146 186.93 546.316 187.41 549.67 188.39C554.183 189.697 558.806 191.373 563.54 193.42C563.891 193.572 564.215 193.778 564.5 194.03C570.84 199.637 574.89 203.183 576.65 204.67C578.003 205.81 579.373 206.193 580.76 205.82C582.266 205.413 584.116 205.3 586.31 205.48C586.534 205.5 586.759 205.473 586.97 205.4L591.25 204.06C592.15 203.777 593.106 203.709 594.04 203.86C596.89 204.33 603.82 203.8 608.04 205.01C609.646 205.47 611.373 205.963 613.22 206.49C613.402 206.544 613.593 206.556 613.781 206.527C613.968 206.497 614.147 206.427 614.305 206.32C614.463 206.213 614.595 206.072 614.692 205.908C614.79 205.744 614.851 205.56 614.87 205.37C615.343 200.377 618.136 196.897 623.25 194.93C630.37 192.19 637.896 189.237 645.83 186.07C646.141 185.947 646.483 185.933 646.8 186.03C648.81 186.64 651.26 186.54 653.1 187.14C654.51 187.6 655.84 186.99 657.63 187.22C664.136 188.073 671.676 189.92 680.25 192.76C684.25 194.08 687.406 195.98 689.72 198.46C689.979 198.733 690.207 199.031 690.4 199.35C693.206 203.95 695.906 208.237 698.5 212.21C700.66 215.503 703.25 221.21 706.27 229.33C706.367 229.59 706.549 229.814 706.79 229.97C711.563 233.083 715.913 234.873 719.84 235.34C728.68 236.38 733.753 237.083 735.06 237.45C741.14 239.157 746.976 240.977 752.57 242.91C755.73 243.997 758.81 245.487 761.81 247.38C761.836 247.4 761.863 247.42 761.89 247.44L770.14 255.13C770.357 255.334 770.621 255.485 770.91 255.57C773.59 256.357 775.576 257.177 776.87 258.03C783.88 262.64 791.27 269.05 796.28 274.55C799.86 278.483 802.666 283.137 804.7 288.51C804.853 288.917 805.673 290.157 807.16 292.23C807.505 292.721 807.919 293.165 808.39 293.55C810.923 295.643 812.573 297.27 813.34 298.43C820.88 309.85 825.05 316.263 825.85 317.67C826.543 318.883 827.58 321.84 828.96 326.54C828.993 326.665 828.999 326.791 828.98 326.91L828.38 330.04C828.341 330.228 828.362 330.421 828.44 330.59C829.006 331.817 828.716 333.39 827.57 335.31C827.479 335.463 827.436 335.64 827.445 335.818C827.455 335.996 827.518 336.167 827.625 336.31C827.732 336.452 827.879 336.56 828.047 336.618C828.215 336.677 828.397 336.685 828.57 336.64L829.72 336.34C830.254 336.204 830.756 335.962 831.196 335.629C831.636 335.296 832.004 334.878 832.28 334.4L834.5 330.55C834.69 330.22 834.943 329.932 835.245 329.702C835.547 329.472 835.892 329.305 836.26 329.21L857.36 323.76C857.578 323.707 857.804 323.69 858.03 323.71C862.776 324.117 866.94 324.09 870.52 323.63C876.393 322.877 881.136 322.753 884.75 323.26C886.95 323.567 889.746 324.09 893.14 324.83C898.38 325.98 902.22 326.2 909.01 327.14C909.581 327.219 910.124 327.439 910.59 327.78C917.83 333.08 927.43 338.58 934.86 345.28C937.97 348.08 940.55 349.54 943.37 352.4C951.86 361 959.26 368.1 963.98 378.54C967.393 386.093 970.346 394.09 972.84 402.53C974.013 406.523 974.996 410.857 975.79 415.53C976.803 421.543 977.733 425.823 978.58 428.37C978.716 428.792 978.712 429.241 978.57 429.65C977.81 431.87 978.99 433.31 978.45 435.27C977.803 437.63 977.81 440.31 978.47 443.31C978.589 443.848 978.65 444.398 978.65 444.95C978.643 449.23 978.636 453.383 978.63 457.41C978.63 458.723 978.59 459.613 978.51 460.08C978.303 461.287 978.313 462.12 978.54 462.58C978.67 462.834 978.722 463.12 978.69 463.4L976.43 486.18C976.397 486.485 976.319 486.781 976.2 487.06L974.49 490.95C974.404 491.148 974.356 491.359 974.35 491.57C974.21 496.16 973.09 501.07 972.31 506.79C972.176 507.783 971.883 508.77 971.43 509.75C971.25 510.143 971.286 510.59 971.54 511.09C971.611 511.232 971.648 511.389 971.648 511.547C971.648 511.705 971.611 511.86 971.54 512C969.073 516.773 967.173 521.893 965.84 527.36C963.526 536.86 959.92 545.893 955.02 554.46C953.68 556.793 951.85 559.557 949.53 562.75C947 566.22 943.62 571.73 940.22 575.72C935.57 581.16 930.89 585.83 924.62 592.47C917.71 599.79 908.47 607.3 902.18 611.38C900.76 612.3 897.92 613.437 893.66 614.79C891.266 615.543 888.243 616.04 884.59 616.28C878.59 616.667 871.793 616.677 864.2 616.31C862.013 616.203 859.896 615.89 857.85 615.37C856.95 615.137 854.823 614.823 851.47 614.43C848.776 614.117 846.863 614.9 845.73 616.78C845.571 617.037 845.469 617.327 845.43 617.63C844.41 625.83 843.79 633.77 843.57 641.45C843.536 642.67 843.853 644.113 844.52 645.78C844.99 646.97 843.79 648.22 843.37 649.42C840.723 657.013 837.913 663.523 834.94 668.95C833.16 672.2 830.36 676.13 826.77 679.17C825.283 680.423 822.193 682.943 817.5 686.73C807.613 694.697 796.88 701.05 785.3 705.79C780.75 707.64 774.56 709.31 771.05 710.54C763.423 713.2 756.083 715.243 749.03 716.67C742.5 718 734.24 720.38 728.32 721.97C725.646 722.69 722.49 723.33 718.85 723.89C712.696 724.837 709.513 725.327 709.3 725.36C706.36 725.79 702.6 727.27 698.76 727.9C693.826 728.713 688.93 729.743 684.07 730.99C682.88 731.29 681.27 732.06 680.33 732.53C680.154 732.617 679.951 732.633 679.763 732.576C679.575 732.518 679.417 732.391 679.32 732.22C679.133 731.893 678.906 731.66 678.64 731.52C678.59 731.495 678.534 731.489 678.48 731.501C678.426 731.513 678.378 731.543 678.344 731.587C678.31 731.63 678.292 731.684 678.293 731.739C678.294 731.795 678.314 731.848 678.35 731.89ZM654.49 322.03C656.99 319.44 660.3 320.68 662.96 322.34C663.111 322.437 663.282 322.499 663.461 322.521C663.639 322.544 663.82 322.527 663.991 322.472C664.162 322.416 664.319 322.324 664.45 322.201C664.581 322.078 664.684 321.927 664.75 321.76C665.43 320.073 666.526 318.177 668.04 316.07C668.126 315.95 668.2 315.82 668.26 315.68L669.94 311.75C669.993 311.63 670.06 311.513 670.14 311.4C675.08 304.54 677.95 296.493 678.75 287.26C678.828 286.364 678.617 285.47 678.15 284.71C676.28 281.66 674.51 277.77 675.53 274.21C675.73 273.497 676.896 271.93 679.03 269.51C680.043 268.35 681.04 266.727 682.02 264.64C682.219 264.215 682.363 263.771 682.45 263.32C684.17 254.087 683.556 244.85 680.61 235.61C680.487 235.228 680.497 234.815 680.64 234.44C681.313 232.653 680.89 231.287 679.37 230.34C676.16 228.34 674.32 226.11 672.23 222.68C671.32 221.18 671.12 218.89 670.49 217.18C670.353 216.81 670.104 216.497 669.78 216.29C663.56 212.22 658.08 212.29 649.78 211.93C649.713 211.93 649.649 211.92 649.59 211.9L645.51 210.88C645.038 210.764 644.538 210.821 644.1 211.04L633.92 216.08C633.431 216.321 633.002 216.666 632.661 217.091C632.321 217.516 632.078 218.011 631.95 218.54L627.63 236.17C627.623 236.197 627.62 236.223 627.62 236.25C627.47 239.76 630.02 242.62 628.17 246.42C626.916 248.987 626.106 250.547 625.74 251.1C625.648 251.234 625.593 251.389 625.581 251.551C625.569 251.712 625.599 251.874 625.67 252.02C626.296 253.327 627.136 253.85 628.19 253.59C633.41 252.317 637.846 252.15 641.5 253.09C641.822 253.176 642.16 253.189 642.49 253.13C646.77 252.363 649.643 254.027 651.11 258.12C653.53 264.887 655.406 270.9 656.74 276.16C656.805 276.429 656.805 276.711 656.74 276.98L654.72 285.23C654.673 285.421 654.581 285.599 654.45 285.75L646.15 295.31C645.893 295.613 645.568 295.852 645.2 296.01C641.45 297.66 637.43 299.82 634.67 298.31C632.143 296.923 629.75 296.327 627.49 296.52C627.385 296.529 627.285 296.567 627.201 296.631C627.118 296.695 627.054 296.782 627.018 296.881C626.983 296.98 626.976 297.087 626.999 297.19C627.022 297.292 627.075 297.386 627.15 297.46L632.66 302.96C632.922 303.222 633.113 303.549 633.213 303.908C633.312 304.267 633.318 304.646 633.23 305.01L632.32 308.72C632.284 308.865 632.281 309.016 632.31 309.162C632.339 309.308 632.399 309.447 632.486 309.567C632.574 309.688 632.687 309.788 632.817 309.861C632.947 309.934 633.091 309.978 633.24 309.99C636.82 310.25 640.193 311.633 643.36 314.14C643.55 314.284 643.701 314.473 643.8 314.69C643.86 314.817 643.89 314.883 643.89 314.89C643.972 315.054 644.087 315.199 644.228 315.316C644.369 315.433 644.533 315.52 644.71 315.57C648.51 316.623 651.496 318.753 653.67 321.96C653.714 322.025 653.772 322.08 653.84 322.12C653.908 322.159 653.984 322.184 654.063 322.19C654.142 322.197 654.221 322.186 654.294 322.158C654.368 322.131 654.435 322.087 654.49 322.03ZM571.01 253.65C569.13 251.757 568.803 249.623 570.03 247.25C571.643 244.13 571.46 241.12 569.48 238.22C566.846 234.353 564.7 230.777 563.04 227.49C561.64 224.72 560.29 223.16 557.61 221.93C552.516 219.583 548.803 218.13 546.47 217.57C546.14 217.484 545.833 217.327 545.57 217.11L540.61 212.85C540.479 212.739 540.316 212.666 540.14 212.64C537.253 212.18 533.693 211.987 529.46 212.06C529.433 212.06 529.403 212.057 529.37 212.05L526.38 211.53C526.04 211.466 525.689 211.538 525.4 211.73C521.613 214.203 517.263 217.64 512.35 222.04C509.716 224.393 507.486 227.293 505.66 230.74C502.293 237.08 499.896 242.567 498.47 247.2C497.276 251.06 496.406 255.5 495.86 260.52C495.626 262.607 495.763 264.44 496.27 266.02C496.374 266.333 496.384 266.67 496.3 266.99C495.7 269.27 495.546 271.52 495.84 273.74C496.913 281.873 498.293 289.427 499.98 296.4C500.113 296.952 500.3 297.485 500.54 297.99C501.54 300.11 502.63 302.677 503.81 305.69C505.16 309.13 508.66 315.95 512.97 316.49C515.816 316.85 519.37 316.967 523.63 316.84C524.96 316.8 526.02 317.72 527.07 317.17C527.443 316.97 528.143 316.82 529.17 316.72C538.683 315.793 547.916 314.02 556.87 311.4C557.162 311.314 557.444 311.2 557.71 311.06C560.296 309.733 562.816 307.553 565.27 304.52C565.375 304.389 565.444 304.232 565.47 304.066C565.496 303.899 565.478 303.729 565.417 303.572C565.356 303.415 565.255 303.277 565.124 303.171C564.993 303.065 564.836 302.996 564.67 302.97L561.63 302.49C561.371 302.45 561.122 302.373 560.89 302.26C552.596 298.293 546.87 292.057 543.71 283.55C543.31 282.47 543.29 281.347 543.65 280.18C543.742 279.877 543.766 279.559 543.72 279.25C542.73 273.01 544.46 265.09 546.07 258.81C546.45 257.337 547.09 256.137 547.99 255.21C548.263 254.931 548.616 254.745 549 254.68C551.92 254.187 553.993 253.767 555.22 253.42C557.98 252.65 562.45 252.54 564.45 253.31C566.73 254.19 568.83 254.54 570.75 254.36C570.828 254.352 570.903 254.322 570.965 254.274C571.028 254.226 571.075 254.161 571.102 254.086C571.129 254.012 571.135 253.932 571.119 253.855C571.102 253.778 571.065 253.707 571.01 253.65ZM606.22 225.49C604.086 226.57 602.276 226.747 600.79 226.02C597.843 224.573 595.603 224.143 594.07 224.73C593.935 224.78 593.813 224.86 593.713 224.964C593.613 225.068 593.536 225.193 593.49 225.33C592.13 229.37 594.04 236.23 595.75 239.71C596.95 242.17 598.863 243.283 601.49 243.05C604.256 242.81 605.573 241.37 605.44 238.73C605.22 234.323 605.213 230.67 605.42 227.77C605.452 227.353 605.609 226.959 605.87 226.64L606.51 225.85C606.54 225.807 606.556 225.756 606.554 225.704C606.553 225.651 606.534 225.601 606.501 225.56C606.468 225.519 606.423 225.49 606.372 225.478C606.321 225.465 606.268 225.469 606.22 225.49ZM339.84 344.33C338 346.683 337.093 349.233 337.12 351.98C337.16 357.28 336.03 364.25 336.08 366.85C336.12 368.603 335.873 370.507 335.34 372.56C334.96 374.027 334.57 375.93 334.17 378.27C333.73 380.797 333.59 382.247 333.75 382.62C333.976 383.16 334.016 384.673 333.87 387.16C333.57 392.407 333.566 397.817 333.86 403.39C333.99 405.77 334.68 407.75 334.51 409.82C334.403 411.193 334.413 412.813 334.54 414.68C335.36 426.64 335.28 436.15 335.98 446.43C336.386 452.47 336.763 459.737 337.11 468.23C337.303 472.997 337.593 475.97 337.98 477.15C338.084 477.464 338.102 477.8 338.03 478.12C337.703 479.52 337.74 481.823 338.14 485.03C338.38 486.95 339.166 490.86 340.5 496.76C341.25 500.1 338.8 502.49 340.2 506.55C340.382 507.069 340.392 507.633 340.23 508.16C339.783 509.6 339.78 511.407 340.22 513.58C340.5 514.98 340.696 516.803 340.81 519.05C341.323 529.217 341.44 537.783 341.16 544.75C340.86 552.19 340.373 561.107 339.7 571.5C339.633 572.487 340.37 574.137 341.91 576.45C342.194 576.88 342.397 577.354 342.51 577.85C343.05 580.183 343.023 582.567 342.43 585C342.377 585.217 342.374 585.446 342.42 585.67C342.94 588.423 343.396 591.187 343.79 593.96C343.883 594.627 344.07 595.163 344.35 595.57C344.425 595.68 344.477 595.805 344.501 595.938C344.525 596.07 344.521 596.207 344.49 596.34L343.21 601.57C343.117 601.962 343.073 602.365 343.08 602.77C343.193 607.95 343.5 611.507 344 613.44C344.706 616.16 344.866 618.36 344.48 620.04C343.406 624.767 343.413 628.297 344.5 630.63C344.583 630.808 344.621 631.004 344.611 631.201C344.6 631.398 344.541 631.59 344.44 631.76C341.92 635.94 346.06 638.65 344.48 641.72C343.593 643.447 343.086 645.517 342.96 647.93C342.933 648.496 343.123 649.051 343.491 649.481C343.859 649.912 344.377 650.187 344.94 650.25C346.6 650.443 347.97 650.937 349.05 651.73C350.29 652.65 352.73 654.193 356.37 656.36C359.99 658.52 362.02 660.27 365.93 663.21C366.369 663.538 366.885 663.748 367.43 663.82L377.24 665.13C377.359 665.15 377.474 665.187 377.58 665.24C380.86 666.927 385.586 669.163 391.76 671.95C399.52 675.46 409.81 680.76 416.29 684.08C419.963 685.96 423.506 687.427 426.92 688.48C430.54 689.593 434.236 690.653 438.01 691.66C440.796 692.413 444.49 692.967 449.09 693.32C449.435 693.347 449.777 693.41 450.11 693.51C454.283 694.77 456.743 695.433 457.49 695.5C466.363 696.313 475.23 696.497 484.09 696.05C484.433 696.037 484.764 695.91 485.03 695.69L485.58 695.24C485.73 695.119 485.918 695.056 486.11 695.063C486.301 695.07 486.483 695.148 486.62 695.28C487.966 696.607 488.796 697.32 489.11 697.42C495.816 699.673 502.5 701.24 509.16 702.12C510.193 702.253 512.07 702.107 514.79 701.68C520.15 700.84 522.61 703.57 527.57 707.13C528.403 707.723 530.773 708.64 534.68 709.88C535.177 710.039 535.693 710.12 536.21 710.12C540.376 710.147 544.726 710.34 549.26 710.7C552.52 710.96 555.03 712.44 558.7 711.56C561.82 710.8 563.58 710.67 567.03 711.67C572.256 713.177 578.59 714.51 586.03 715.67C586.395 715.73 586.768 715.74 587.14 715.7C597.32 714.7 603.783 713.983 606.53 713.55C607.463 713.397 609.816 712.7 613.59 711.46C613.902 711.36 614.227 711.293 614.56 711.26L632.56 709.63C632.996 709.592 633.43 709.725 633.77 710L635.21 711.16C635.357 711.281 635.536 711.358 635.727 711.382C635.918 711.407 636.112 711.378 636.29 711.3C640.67 709.347 646.236 707.947 652.99 707.1C657.723 706.507 663.223 705.417 669.49 703.83C669.814 703.751 670.149 703.734 670.48 703.78C672.82 704.08 674.54 702.71 676.75 703.08C676.896 703.1 677.81 703.317 679.49 703.73C680.203 703.902 680.946 703.936 681.68 703.83L698.53 701.43C698.616 701.423 698.7 701.4 698.78 701.36C702.933 699.36 706.353 698.207 709.04 697.9C710.18 697.767 711.126 697.557 711.88 697.27C712.986 696.843 714.25 696.877 715.67 697.37C716.3 697.584 716.98 697.591 717.61 697.39L742.77 689.27C742.87 689.243 742.973 689.223 743.08 689.21C752.113 688.45 760.566 686.28 768.44 682.7C768.7 682.58 769.283 682.22 770.19 681.62C770.474 681.435 770.789 681.306 771.12 681.24C773.78 680.707 776.586 679.583 779.54 677.87C779.691 677.784 779.858 677.73 780.03 677.71L781.83 677.53C782.068 677.51 782.298 677.449 782.51 677.35C789.136 674.303 794.816 670.123 799.55 664.81C799.783 664.55 799.946 664.263 800.04 663.95C800.111 663.717 800.263 663.515 800.47 663.38C804.943 660.413 807.483 658.687 808.09 658.2C808.478 657.89 808.74 657.454 808.827 656.975C808.914 656.496 808.819 656.01 808.56 655.61C808.2 655.05 807.97 654.67 807.87 654.47C807.787 654.303 807.754 654.115 807.775 653.929C807.796 653.743 807.871 653.566 807.99 653.42L814.6 645.23C814.633 645.19 814.657 645.143 814.67 645.09C816.396 639.75 817.36 636.313 817.56 634.78C818.013 631.28 818.386 629.267 818.68 628.74C818.772 628.574 818.822 628.388 818.826 628.197C818.829 628.007 818.786 627.819 818.7 627.65C817.6 625.49 818.58 624.04 818.84 621.77C819.4 616.96 819.76 613.71 819.74 609.07C819.733 606.637 819.83 604.74 820.03 603.38C820.61 599.4 820.5 597.14 820.74 592.27C820.753 591.893 820.695 591.52 820.57 591.17L820.06 589.73C820 589.553 819.976 589.366 819.989 589.18C820.003 588.995 820.054 588.814 820.14 588.65C821.146 586.697 821.113 584.557 820.04 582.23C819.32 580.67 819.56 579.49 820.35 578.21C820.422 578.094 820.467 577.964 820.483 577.829C820.498 577.694 820.484 577.558 820.44 577.43L819.76 575.51C819.733 575.444 819.72 575.376 819.72 575.31L819.25 567.72C819.23 567.368 819.112 567.031 818.91 566.75L818.17 565.67C818.073 565.53 818.025 565.362 818.034 565.191C818.043 565.021 818.109 564.859 818.22 564.73C819.66 563.09 820.436 561.947 820.55 561.3C820.776 559.967 820.873 556.473 820.84 550.82C820.833 550.217 820.735 549.617 820.55 549.04L820.11 547.68C820.051 547.491 820.051 547.289 820.11 547.1L822.3 540.44C822.332 540.344 822.328 540.24 822.29 540.15C822.216 539.963 822.026 539.48 821.72 538.7C821.475 538.099 821.35 537.457 821.35 536.81V522.06C821.35 521.715 821.393 521.372 821.48 521.04C822.293 517.687 822.75 515.787 822.85 515.34C823.61 511.79 822.01 509.09 819.96 505.88C819.704 505.478 819.533 505.029 819.457 504.56C819.382 504.09 819.403 503.61 819.52 503.15C820.853 497.85 821.786 492.07 822.32 485.81C822.513 483.537 822.473 481.573 822.2 479.92C821.88 478.013 821.73 476.057 821.75 474.05C821.75 473.65 821.396 470.383 820.69 464.25C819.976 458.09 819.533 448.413 819.36 435.22C819.353 434.493 819.43 433.93 819.59 433.53C820.03 432.46 819.4 431.09 819.32 429.75C818.933 422.697 818.473 416.03 817.94 409.75C817.766 407.617 817.776 405.78 817.97 404.24C818.009 403.908 817.999 403.571 817.94 403.24C817.21 399.23 817.66 394.57 817.21 390.91C816.743 387.057 816.303 383.423 815.89 380.01C815.73 378.657 815.713 375.863 815.84 371.63C815.846 371.298 815.806 370.968 815.72 370.65C814.76 367.19 814.94 363.52 814.08 359.82C813.793 358.607 813.95 357.11 814.55 355.33C814.654 355.017 814.664 354.68 814.58 354.36L811.92 344.03C811.874 343.873 811.791 343.732 811.68 343.62L810.53 342.52C810.404 342.401 810.302 342.259 810.23 342.1C804.79 330.187 799.586 320.277 794.62 312.37C792.84 309.537 789.753 305.633 785.36 300.66C785.194 300.474 785.049 300.273 784.93 300.06C781.256 293.767 777.626 288.913 774.04 285.5C773.186 284.693 770.683 282.75 766.53 279.67C765.625 278.998 764.782 278.248 764.01 277.43C762.27 275.58 760.99 274.03 758.43 272.41C752.963 268.943 747.076 265.677 740.77 262.61C738.49 261.497 736.58 260.497 735.04 259.61C731.7 257.7 727.01 255.45 724.22 257C719.1 259.84 715.75 257.26 710.75 254.66C710.478 254.519 710.18 254.435 709.874 254.413C709.568 254.391 709.261 254.432 708.972 254.534C708.682 254.635 708.417 254.794 708.191 255.001C707.966 255.209 707.785 255.46 707.66 255.74C706.6 258.12 707.84 260.28 707.87 263.03C707.876 264.257 708.593 265.733 710.02 267.46C710.244 267.73 710.567 267.902 710.92 267.94C713.08 268.153 715.196 268.757 717.27 269.75C722.956 272.477 725.963 273.943 726.29 274.15C727.776 275.057 729.756 275.857 732.23 276.55C732.67 276.677 734.676 277.413 738.25 278.76C742.37 280.32 745.52 283.3 749.52 285.12C750.012 285.353 750.481 285.634 750.92 285.96C757.613 290.993 761.546 294.017 762.72 295.03C764.553 296.617 769.453 301.23 777.42 308.87C777.863 309.294 778.37 309.642 778.92 309.9C781.96 311.34 783.49 311.99 784.97 315.46C788.083 322.773 791.856 329.423 796.29 335.41C796.493 335.678 796.62 335.996 796.66 336.33C796.78 337.29 796.736 338.12 796.53 338.82C796.414 339.199 796.446 339.61 796.62 339.97C800.29 347.64 801.9 356.74 800.16 365.23C799.833 366.83 799.596 368.417 799.45 369.99C798.936 375.297 797.05 379.813 793.79 383.54C792.996 384.453 792.263 385.683 791.59 387.23C790.583 389.55 788.483 391.657 785.29 393.55C778.53 397.563 771.866 400.73 765.3 403.05C760.733 404.663 755.7 406.373 750.2 408.18C746.386 409.433 742.73 410.267 739.23 410.68C722.376 412.647 710.383 414.02 703.25 414.8C702.736 414.853 701.666 414.683 700.04 414.29C699.804 414.231 699.589 414.106 699.42 413.93C699.26 413.77 699.03 413.593 698.73 413.4C698.603 413.316 698.451 413.276 698.298 413.285C698.145 413.294 697.999 413.352 697.88 413.45L690.94 419.11C690.694 419.311 690.387 419.424 690.07 419.43L686.3 419.49C686.175 419.497 686.049 419.476 685.93 419.43C684.05 418.777 681.67 418.66 678.79 419.08C673.763 419.82 666.396 420.647 656.69 421.56C652.323 421.973 647.423 421.92 641.99 421.4C639.796 421.187 632.87 421.073 621.21 421.06C620.416 421.053 618.433 421.18 615.26 421.44C613.153 421.613 610.653 421.553 607.76 421.26C605.846 421.073 600.746 420.673 592.46 420.06C584.47 419.47 577.44 418.11 570.03 419.76C566.11 420.63 562.01 418.85 558.01 417.41C556.756 416.958 555.384 416.958 554.13 417.41C549.08 419.22 541.76 418.35 536.3 417.81C531.173 417.31 527.633 416.993 525.68 416.86C518.58 416.387 514.983 416.143 514.89 416.13C514.524 416.063 514.159 415.977 513.8 415.87C512.246 415.397 511.306 415.17 510.98 415.19C510.582 415.21 510.194 415.291 509.83 415.43L504.37 417.47C504.256 417.514 504.135 417.533 504.014 417.526C503.894 417.519 503.776 417.486 503.67 417.43C503.07 417.11 501.84 416.917 499.98 416.85C497.8 416.77 493.65 416.53 487.53 416.13C484.23 415.91 480.613 415.487 476.68 414.86C471.353 414.013 467.756 413.437 465.89 413.13C464.683 412.937 463.113 413.023 461.18 413.39C460.882 413.443 460.581 413.446 460.29 413.4L448.91 411.67C448.599 411.624 448.301 411.522 448.03 411.37C446.583 410.577 445.47 410.063 444.69 409.83C440.316 408.517 433.63 406.41 424.63 403.51C424.351 403.424 424.082 403.303 423.83 403.15C416.97 399.05 411.01 396.39 400.65 391.78C400.298 391.621 399.965 391.419 399.66 391.18C394.41 387.06 391.37 384.27 386.34 380.93C383.02 378.72 379.91 376.65 378.06 374.06C377.823 373.738 377.511 373.477 377.15 373.3C374.696 372.147 373.08 370.947 372.3 369.7C370.63 367.06 368.22 364.37 367.07 361.43C365.483 357.37 364.523 353.907 364.19 351.04C364.177 350.902 364.128 350.772 364.05 350.66L362.31 348.14C362.222 348.015 362.163 347.871 362.138 347.719C362.112 347.567 362.119 347.411 362.16 347.26C362.37 346.48 362.81 345.94 362.8 345C362.76 342.02 362.923 338.4 363.29 334.14C363.33 333.627 363.333 333.113 363.3 332.6C363.12 329.993 363.176 327.587 363.47 325.38C363.569 324.614 363.82 323.877 364.21 323.21C367.68 317.23 371.49 312.5 376.22 307.21C380.773 302.123 385.326 296.983 389.88 291.79C392.053 289.317 394.096 287.253 396.01 285.6C397.443 284.36 399.566 282.383 402.38 279.67C402.539 279.511 402.714 279.373 402.9 279.26C407.42 276.527 411.64 274.6 415.56 273.48C416.038 273.34 416.494 273.149 416.92 272.91C426.953 267.297 433.13 263.897 435.45 262.71C437.603 261.61 439.23 260.9 440.33 260.58C445.956 258.947 451.573 256.973 457.18 254.66C459.886 253.547 462.346 252.85 464.56 252.57C466.6 252.317 469.156 252.297 472.23 252.51C474.263 252.657 475.296 251.743 475.33 249.77C475.37 247.777 475.46 246.207 475.6 245.06C475.606 245.007 475.616 244.953 475.63 244.9L477.8 237.99C477.856 237.812 477.869 237.624 477.84 237.44C477.81 237.256 477.739 237.081 477.63 236.93C477.521 236.779 477.379 236.655 477.214 236.568C477.049 236.481 476.866 236.434 476.68 236.43C474.326 236.383 472.036 236.933 469.81 238.08C468.69 238.653 465.593 239.96 460.52 242C458.72 242.727 456.826 243.217 454.84 243.47C453.286 243.67 451.38 244.26 449.12 245.24C448.694 245.426 448.249 245.574 447.79 245.68C442.956 246.773 440.2 247.467 439.52 247.76C432.026 250.96 423.943 254.463 415.27 258.27C411.023 260.137 407.556 262.177 404.87 264.39C398.023 270.037 392.21 274.247 387.43 277.02C387.138 277.192 386.878 277.415 386.66 277.68L375.62 291.36C375.461 291.558 375.264 291.725 375.04 291.85C372.806 293.063 371.35 294.173 370.67 295.18C367.63 299.67 364.6 303.43 358.43 311C358.184 311.299 357.972 311.624 357.8 311.97C356.873 313.823 355.836 315.417 354.69 316.75C354.544 316.924 354.442 317.129 354.392 317.35C354.341 317.571 354.344 317.8 354.4 318.02L354.5 318.4C354.55 318.593 354.562 318.794 354.535 318.992C354.507 319.189 354.441 319.379 354.34 319.55C350.66 325.857 345.776 332.577 339.69 339.71C339.216 340.27 339.32 341.45 340 343.25C340.067 343.428 340.088 343.621 340.06 343.809C340.032 343.998 339.956 344.178 339.84 344.33ZM596.92 243.62C596.92 243.418 596.84 243.225 596.697 243.083C596.555 242.94 596.361 242.86 596.16 242.86C595.958 242.86 595.765 242.94 595.622 243.083C595.48 243.225 595.4 243.418 595.4 243.62C595.4 243.822 595.48 244.015 595.622 244.157C595.765 244.3 595.958 244.38 596.16 244.38C596.361 244.38 596.555 244.3 596.697 244.157C596.84 244.015 596.92 243.822 596.92 243.62ZM599.69 265.12C598.856 269.267 598.593 273.33 598.9 277.31C598.9 277.35 598.9 277.39 598.9 277.43L596.58 293.86C596.56 293.993 596.519 294.124 596.46 294.25L595.65 295.94C595.486 296.277 595.451 296.661 595.55 297.022C595.65 297.382 595.877 297.695 596.19 297.9C598.73 299.57 602.66 301.43 605.6 300.53C606.037 300.397 606.426 300.139 606.719 299.787C607.012 299.435 607.196 299.005 607.25 298.55C607.496 296.41 607.543 294.64 607.39 293.24C606.336 283.393 605.553 275.233 605.04 268.76C605.006 268.353 604.874 267.961 604.654 267.616C604.435 267.271 604.135 266.984 603.78 266.78L600.38 264.81C600.315 264.773 600.242 264.752 600.167 264.749C600.093 264.745 600.019 264.759 599.951 264.789C599.884 264.82 599.825 264.865 599.779 264.923C599.734 264.98 599.703 265.048 599.69 265.12ZM474.4 307.63L474.3 307.37C474.278 307.301 474.271 307.228 474.28 307.158C474.288 307.087 474.312 307.019 474.35 306.96C475.51 305.26 477.153 304.423 479.28 304.45C479.401 304.451 479.521 304.425 479.631 304.374C479.741 304.322 479.838 304.246 479.915 304.152C479.992 304.058 480.047 303.948 480.075 303.83C480.104 303.712 480.105 303.589 480.08 303.47C479.313 299.85 478.17 296.437 476.65 293.23C475.3 290.38 475.06 288.59 476.09 285.17C476.162 284.924 476.184 284.665 476.153 284.41C476.122 284.156 476.039 283.911 475.91 283.69C474.37 281.03 473.43 278.383 473.09 275.75C473.063 275.531 472.978 275.323 472.844 275.148C472.711 274.972 472.533 274.835 472.33 274.75C471.09 274.25 469.7 274.133 468.16 274.4C466.266 274.727 462.343 275.68 456.39 277.26C456.337 277.273 456.286 277.297 456.24 277.33L450.1 281.57C449.929 281.688 449.733 281.764 449.53 281.79C447.75 282.03 442.1 282.11 439.85 283.85C433.85 288.51 430.65 291.03 430.25 291.41C430.06 291.586 429.828 291.704 429.58 291.75C429.16 291.83 428.776 291.97 428.43 292.17C422.016 295.983 418.003 298.363 416.39 299.31C416.057 299.503 415.705 299.66 415.34 299.78L411.16 301.12C410.914 301.2 410.679 301.307 410.46 301.44C407.666 303.107 405.643 305.463 404.39 308.51C404.271 308.806 404.086 309.07 403.85 309.28C398.116 314.373 394.883 317.423 394.15 318.43C391.15 322.577 388.936 325.583 387.51 327.45C387.467 327.505 387.439 327.57 387.429 327.638C387.418 327.707 387.426 327.776 387.45 327.84L389.83 334.54C389.84 334.567 389.856 334.59 389.878 334.609C389.899 334.628 389.925 334.641 389.953 334.647C389.981 334.653 390.01 334.651 390.037 334.643C390.065 334.635 390.09 334.62 390.11 334.6C393.59 330.62 399.07 328.4 403.85 326.36C407.23 324.92 411.03 322.32 414.66 320.93C419.066 319.243 424.096 317.603 429.75 316.01C431.216 315.59 432.44 315.373 433.42 315.36C433.688 315.36 433.954 315.288 434.19 315.15L440.52 311.41C440.659 311.331 440.808 311.276 440.96 311.25C444.72 310.577 449.086 309.943 454.06 309.35C456.76 309.03 461.106 308.5 467.1 307.76C469.31 307.49 472.38 305.69 474.34 307.67C474.346 307.674 474.354 307.676 474.361 307.676C474.369 307.675 474.376 307.673 474.382 307.669C474.389 307.665 474.393 307.659 474.397 307.652C474.4 307.645 474.401 307.637 474.4 307.63ZM775.28 361.88C777.61 355.05 773.22 345.25 769.12 340.09C764.986 334.877 762.63 331.483 762.05 329.91C762.023 329.831 761.975 329.756 761.91 329.69L753.39 321.17C753.198 320.984 752.978 320.829 752.74 320.71L750.35 319.5C750.278 319.462 750.216 319.408 750.167 319.343C750.119 319.277 750.085 319.201 750.07 319.12C750.016 318.8 749.813 318.44 749.46 318.04C745.52 313.593 741.173 310.077 736.42 307.49C736.114 307.324 735.822 307.123 735.55 306.89C730.49 302.63 724.976 299.44 719.01 297.32C713.936 295.52 709.896 294.117 706.89 293.11C706.419 292.951 705.905 292.973 705.449 293.17C704.993 293.368 704.626 293.728 704.42 294.18C703.44 296.32 702.203 299.82 700.71 304.68C699.92 307.25 697.64 309.22 701.38 311.39C704.333 313.103 707.306 314.537 710.3 315.69C720.873 319.757 727.623 322.507 730.55 323.94C732.396 324.853 735.023 326.467 738.43 328.78C739.636 329.6 743.743 332.03 750.75 336.07C752.656 337.17 755.56 339.613 759.46 343.4C764.68 348.46 768.31 351.68 770.07 356.59C770.215 356.993 770.436 357.363 770.72 357.68L774.59 362.02C774.637 362.072 774.698 362.112 774.765 362.134C774.833 362.156 774.905 362.16 774.974 362.146C775.044 362.132 775.109 362.1 775.162 362.053C775.216 362.007 775.256 361.947 775.28 361.88ZM916.05 561.89C916.026 561.801 916.021 561.708 916.036 561.618C916.05 561.527 916.084 561.44 916.133 561.363C916.183 561.286 916.249 561.22 916.326 561.169C916.402 561.119 916.489 561.085 916.58 561.07C917.573 560.903 918.373 560.303 918.98 559.27C920.393 556.877 922.016 554.953 923.85 553.5C924.096 553.305 924.272 553.035 924.35 552.73C925.19 549.48 929.34 545.03 931.96 542.01C932.059 541.891 932.134 541.755 932.18 541.61L933.94 535.9C933.966 535.82 934.003 535.743 934.05 535.67C935.93 532.84 937.51 530.68 938.75 527.45C942.01 518.91 944.83 510.043 947.21 500.85C947.289 500.531 947.336 500.206 947.35 499.88C947.443 496.487 947.63 494.14 947.91 492.84C949.33 486.213 950.116 481.93 950.27 479.99C950.563 476.403 950.973 472.507 951.5 468.3C951.96 464.59 951.66 461.26 952.13 458.09C952.383 456.377 952.563 453.82 952.67 450.42C952.843 445.047 952.946 440.5 952.98 436.78C953.04 430.887 952.12 422.203 950.22 410.73C950.094 409.981 949.858 409.256 949.52 408.58C948.07 405.63 947.49 402.45 946.28 399.51C943.77 393.4 942.19 390.17 941.46 387.26C941.173 386.107 940.486 385.167 939.4 384.44C939.025 384.19 938.713 383.858 938.49 383.47C933.43 374.75 926.56 366.917 917.88 359.97C913.666 356.597 909.596 354.173 905.67 352.7C902.183 351.393 897.646 349.907 892.06 348.24C888.21 347.09 884.49 345.21 881.17 344.84C873.496 343.987 865.876 343.887 858.31 344.54C858.137 344.556 857.97 344.61 857.821 344.697C857.671 344.784 857.542 344.902 857.442 345.043C857.342 345.185 857.274 345.346 857.243 345.517C857.211 345.687 857.217 345.862 857.26 346.03L859.04 352.92C859.164 353.401 859.181 353.902 859.087 354.386C858.994 354.871 858.793 355.327 858.5 355.72C855.2 360.16 850.71 364.67 845.22 366.27C844.819 366.388 844.394 366.409 843.98 366.33L840.04 365.57C839.773 365.52 839.499 365.537 839.241 365.621C838.983 365.704 838.751 365.851 838.565 366.047C838.38 366.244 838.247 366.484 838.18 366.745C838.112 367.005 838.112 367.279 838.18 367.54C838.366 368.3 838.51 369.033 838.61 369.74C839.063 373.02 839.41 378.713 839.65 386.82C839.716 388.947 839.98 391.38 840.44 394.12C840.68 395.587 840.823 398.027 840.87 401.44C840.883 402.267 840.67 403.463 840.23 405.03C839.77 406.697 840.313 408.347 841.86 409.98C842.098 410.237 842.427 410.394 842.78 410.42C844.346 410.533 846.08 410.157 847.98 409.29C848.31 409.147 848.675 409.116 849.02 409.2L851.53 409.82C851.642 409.846 851.761 409.85 851.88 409.83C857.36 408.91 861.246 408.51 863.54 408.63C869.53 408.93 873.39 408.85 878.11 409.86C882.2 410.73 883.98 411.28 888 411.91C896.226 413.19 904.156 415.857 911.79 419.91C912.121 420.089 912.418 420.318 912.67 420.59C914.123 422.103 915.006 423.18 915.32 423.82C917.346 427.92 919.586 431.677 922.04 435.09C922.423 435.619 922.704 436.209 922.87 436.83L928.21 456.58C928.395 457.268 928.452 457.983 928.38 458.69C928.22 459.257 927.863 464.17 927.31 473.43C926.71 483.457 924.18 492.74 919.72 501.28C918.48 503.667 917.636 505.543 917.19 506.91C916.23 509.88 914.52 514.83 912.18 515.66C909.013 516.78 907.23 517.497 906.83 517.81C901.483 521.957 896.206 525.197 891 527.53C890.009 527.979 889.113 528.61 888.36 529.39C886.24 531.583 884.476 532.98 883.07 533.58C875.016 537.027 867.926 540.38 861.8 543.64C861.502 543.799 861.18 543.9 860.85 543.94C857.963 544.3 855.556 544.517 853.63 544.59C849.25 544.75 846.54 546 847.44 550.83C847.653 551.97 847.91 552.717 848.21 553.07C848.306 553.181 848.365 553.319 848.38 553.465C848.394 553.612 848.362 553.761 848.29 553.89L847.75 554.83C847.658 554.995 847.603 555.176 847.59 555.36C847.06 566.81 846.44 576.31 848 585.67C848.026 585.824 848.102 585.966 848.218 586.072C848.334 586.179 848.482 586.245 848.64 586.26L853.66 586.66C854.042 586.686 854.401 586.837 854.68 587.09C856.44 588.67 858.83 591.66 860.83 591.98C865.456 592.733 870.163 593.013 874.95 592.82C883.29 592.5 891.64 588.23 898.21 582.32C904.056 577.06 910.02 570.807 916.1 563.56C916.189 563.454 916.253 563.329 916.284 563.193C916.315 563.057 916.314 562.916 916.28 562.78L916.05 561.89ZM850.29 520.36C851.563 520.853 852.676 520.403 853.63 519.01C854.663 517.503 855.356 516.49 855.71 515.97C856.161 515.319 856.828 514.854 857.59 514.66L870.02 511.45C870.178 511.41 870.331 511.339 870.47 511.24C873.48 509.16 875.28 507.89 878.31 506.53C882.796 504.523 885.903 502.973 887.63 501.88C893.48 498.19 900.95 491.15 902.77 484.01C905.78 472.27 906.53 460.66 903.34 449.4C902.17 445.25 900.35 440.76 896.49 437.96C891.623 434.427 886.12 432.203 879.98 431.29C879.492 431.212 878.992 431.285 878.55 431.5L878.31 431.61C877.794 431.861 877.204 431.915 876.65 431.76C874.316 431.127 871.696 430.643 868.79 430.31C866.18 430.01 863.63 428.58 861.57 429.47C860.776 429.817 859.396 430.05 857.43 430.17C854.43 430.357 851.016 430.787 847.19 431.46C845.196 431.813 843.45 432.67 841.95 434.03C841.758 434.203 841.615 434.424 841.534 434.672C841.453 434.919 841.438 435.184 841.49 435.44C842.63 441.3 843.586 446.543 844.36 451.17C844.65 452.92 844.53 455.21 844.65 456.57C845.83 469.81 846 482.88 847.12 496.02C847.18 496.727 847.146 497.403 847.02 498.05C846.886 498.71 846.84 499.38 846.88 500.06C847.253 506.893 848.173 513.413 849.64 519.62C849.68 519.787 849.76 519.941 849.874 520.07C849.987 520.199 850.13 520.298 850.29 520.36ZM845.737 612.961C845.662 613.047 845.669 613.199 845.757 613.383C845.845 613.567 846.007 613.769 846.206 613.943C846.406 614.118 846.627 614.252 846.821 614.314C847.016 614.377 847.167 614.364 847.242 614.279C847.317 614.193 847.31 614.041 847.222 613.857C847.134 613.673 846.972 613.471 846.773 613.296C846.573 613.122 846.352 612.988 846.158 612.926C845.964 612.863 845.812 612.876 845.737 612.961ZM507.63 733.16C504.54 735 504.57 739.48 503.88 741.74C503.833 741.9 503.803 742.064 503.79 742.23L500.8 779.95C500.793 780.016 500.776 780.08 500.75 780.14L500 781.81C499.866 782.111 499.855 782.453 499.97 782.76C500.996 785.507 501.016 788.413 500.03 791.48C499.884 791.943 499.816 792.427 499.83 792.91C500.02 798.15 500.2 800.89 499.96 805.27C499.646 811.03 499.096 819.717 498.31 831.33C498.276 831.777 497.85 832.897 497.03 834.69C496.967 834.825 496.935 834.971 496.935 835.12C496.935 835.269 496.967 835.415 497.03 835.55C497.07 835.637 497.11 835.72 497.15 835.8C497.319 836.126 497.389 836.498 497.35 836.87C496.33 845.65 495.763 853.327 495.65 859.9C495.596 862.773 495.363 866.177 494.95 870.11C494.67 872.737 494.533 876.197 494.54 880.49C494.54 880.702 494.506 880.911 494.44 881.11L492.12 888.19C491.988 888.598 491.95 889.032 492.01 889.46L492.8 894.85C492.826 895.023 492.84 895.2 492.84 895.38C492.833 904.893 492.05 914.263 490.49 923.49C490.336 924.417 489.636 925.537 488.39 926.85C488.328 926.918 488.284 927 488.261 927.089C488.238 927.178 488.238 927.271 488.26 927.36L490.27 935.14C490.302 935.271 490.299 935.406 490.26 935.53L488.45 941.51C488.344 941.854 488.182 942.179 487.97 942.47C485.69 945.617 484.846 948.937 485.44 952.43C485.77 954.36 485 955.75 485.06 957.62C485.064 957.82 485.143 958.011 485.282 958.157C485.42 958.303 485.608 958.393 485.81 958.41C489.316 958.71 492.123 958.477 494.23 957.71C494.412 957.644 494.606 957.617 494.799 957.631C494.992 957.644 495.18 957.699 495.35 957.79C496.696 958.497 498.06 958.567 499.44 958C499.882 957.82 500.376 957.817 500.82 957.99C501.58 958.283 502.54 958.44 503.7 958.46C503.902 958.46 504.102 958.503 504.288 958.585C504.474 958.668 504.641 958.789 504.78 958.94L507.6 961.99C507.79 962.2 508.027 962.358 508.29 962.45C509.37 962.843 510.23 962.733 510.87 962.12C511.075 961.921 511.196 961.649 511.21 961.36C511.33 957.3 511.366 954.097 511.32 951.75C511.293 950.73 511.596 949.297 512.23 947.45C512.409 946.926 512.506 946.38 512.52 945.83C512.71 937.21 513.32 931.35 512.27 928.42C512.224 928.283 512.217 928.138 512.25 928L514.18 919.42C514.226 919.22 514.29 919.026 514.37 918.84L516.01 915.27C516.03 915.217 516.043 915.16 516.05 915.1L518.69 893.03C518.71 892.865 518.699 892.695 518.66 892.53L517.7 888.82C517.628 888.527 517.649 888.219 517.76 887.94C518.766 885.493 518.926 883.223 518.24 881.13C517.02 877.38 518.33 873.89 519.62 870.23C519.731 869.928 519.766 869.605 519.72 869.29C519.366 866.917 519.42 865.153 519.88 864C522.126 858.373 523.71 852.36 524.63 845.96C524.636 845.873 524.636 845.79 524.63 845.71L523.78 835.8C523.727 835.201 523.809 834.599 524.02 834.04C525.06 831.227 526.19 827.713 527.41 823.5C527.896 821.827 528.156 820.453 528.19 819.38C528.28 816.09 529.01 812.84 529.27 808.84C530.083 796.313 531.12 784.61 532.38 773.73C532.48 772.83 532.45 771.863 532.29 770.83C532.163 770.017 532.186 769.037 532.36 767.89C533.5 760.12 533.64 757.04 536.36 751.54C536.597 751.059 536.723 750.533 536.73 750C536.78 746.65 533.98 743.77 536.14 740.25C536.291 740.005 536.384 739.729 536.411 739.443C536.438 739.157 536.399 738.868 536.297 738.598C536.194 738.329 536.031 738.086 535.82 737.889C535.609 737.691 535.356 737.545 535.08 737.46C531.306 736.313 527.853 736.373 524.72 737.64C523.595 738.095 522.357 738.186 521.18 737.9L512.14 735.69C511.27 735.474 510.474 735.025 509.84 734.39L508.75 733.3C508.604 733.155 508.415 733.062 508.212 733.036C508.009 733.011 507.804 733.055 507.63 733.16ZM676.46 931.53C675.346 929.13 674.526 926.447 674 923.48C673.133 918.553 672.54 915.23 672.22 913.51C671.726 910.863 671.01 908.743 670.07 907.15C669.989 907.013 669.94 906.859 669.928 906.701C669.916 906.543 669.941 906.385 670 906.24C670.66 904.607 670.97 903.297 670.93 902.31C670.61 894.397 670.456 888.337 670.47 884.13C670.47 883.237 670.286 880.54 669.92 876.04C669.646 872.66 669.863 869.327 670.57 866.04C670.763 865.147 670.46 863.72 669.66 861.76C669.461 861.264 669.353 860.736 669.34 860.2C669.126 849.793 668.306 838.633 666.88 826.72C666 819.36 665.91 812.58 664.91 805.11C664.67 803.323 664.31 798.21 663.83 789.77C663.416 782.51 662.096 772.597 659.87 760.03C659.69 759.023 659.883 757.36 660.45 755.04C660.503 754.809 660.509 754.571 660.47 754.34L657.36 736.28C657.307 735.987 657.184 735.711 657.001 735.476C656.818 735.24 656.581 735.053 656.31 734.93C652.33 733.12 649.68 735.61 646.77 737.51C646.004 738.001 645.116 738.277 644.2 738.31L636.02 738.58C635.921 738.583 635.825 738.609 635.738 738.656C635.651 738.702 635.576 738.769 635.519 738.849C635.462 738.929 635.424 739.022 635.409 739.119C635.393 739.216 635.4 739.316 635.43 739.41L638.65 749.4C638.774 749.792 638.788 750.211 638.69 750.61C637.616 754.857 637.256 758.327 637.61 761.02C639.083 772.22 639.99 779.083 640.33 781.61C640.66 784.04 640.49 786.64 640.94 789.21C641.326 791.43 641.55 793.317 641.61 794.87C642.123 807.883 643.25 821.193 644.99 834.8C645.516 838.907 646 841.867 646.44 843.68C646.473 843.813 646.52 843.944 646.58 844.07L648.2 847.34C648.266 847.473 648.313 847.614 648.34 847.76L650.82 861.66C650.926 862.244 650.949 862.843 650.89 863.44C650.57 866.54 650.19 869.643 649.75 872.75C649.21 876.55 650.31 878 652.01 880.86C652.345 881.432 652.537 882.073 652.57 882.73L652.96 890.5C652.986 890.95 652.939 891.403 652.82 891.84L652.36 893.57C652.301 893.787 652.297 894.017 652.35 894.24C654.256 902.487 655.083 911.077 654.83 920.01C654.81 920.71 654.55 921.973 654.05 923.8C652.49 929.55 655.94 932.84 658.55 937.22C658.904 937.765 659.121 938.386 659.18 939.03L659.42 941.54C659.442 941.774 659.526 941.998 659.663 942.189C659.8 942.38 659.984 942.532 660.198 942.629C660.411 942.725 660.646 942.763 660.878 942.739C661.11 942.714 661.332 942.629 661.52 942.49C663.046 941.363 665.83 939.33 669.87 936.39C672.46 934.5 671.06 932.2 675.9 932.38C676.001 932.385 676.102 932.364 676.193 932.318C676.283 932.271 676.36 932.202 676.417 932.117C676.473 932.031 676.506 931.932 676.514 931.83C676.522 931.727 676.503 931.624 676.46 931.53Z" fill="black"/>
<path d="M246.88 226.82C247.14 227.08 247.144 227.33 246.89 227.57C245.037 229.35 244.004 230.13 243.79 229.91C243.57 229.69 244.35 228.653 246.13 226.8C246.37 226.553 246.62 226.56 246.88 226.82Z" fill="black"/>
<path d="M346.28 262.85C346.317 262.827 346.362 262.82 346.405 262.829C346.448 262.838 346.486 262.864 346.51 262.9L346.56 262.97C346.742 263.259 346.702 263.673 346.447 264.123C346.192 264.573 345.743 265.021 345.2 265.37L344.93 265.54C344.387 265.889 343.793 266.111 343.277 266.156C342.762 266.201 342.367 266.066 342.18 265.78L342.14 265.71C342.127 265.691 342.118 265.67 342.114 265.647C342.109 265.625 342.109 265.602 342.114 265.579C342.119 265.557 342.128 265.536 342.141 265.517C342.154 265.498 342.171 265.482 342.19 265.47L346.28 262.85Z" fill="black"/>
<path d="M459.48 429.19C461.007 429.817 462.52 430.327 464.02 430.72C471.033 432.553 478.063 434.017 485.11 435.11C485.439 435.163 485.751 435.293 486.02 435.49C488.75 437.51 491.42 442.37 492.77 445.25C492.966 445.661 493.035 446.12 492.97 446.57C492.12 452.46 482.76 457.05 477.75 456.02C470.143 454.453 462.967 452.973 456.22 451.58C449.227 450.147 443.657 449.547 439.51 449.78C439.193 449.793 438.88 449.742 438.59 449.63C434.283 447.977 429.247 446.727 423.48 445.88C423.156 445.834 422.841 445.729 422.55 445.57L411.93 439.66C411.784 439.58 411.626 439.517 411.46 439.47C410.533 439.203 408.55 438.693 405.51 437.94C399.32 436.41 396.31 432.66 392.96 427.62C390.69 424.2 390.51 421.38 391.15 417.68C391.437 415.967 392.263 414.713 393.63 413.92C397.45 411.68 399.83 412.19 404.02 414.05C414.213 418.577 421.727 421.773 426.56 423.64C430.8 425.28 437.457 427.257 446.53 429.57C447.017 429.689 447.523 429.695 448.01 429.59C450.17 429.11 451.52 428.63 453.69 428.9C456.223 429.22 457.83 429.297 458.51 429.13C458.835 429.045 459.175 429.066 459.48 429.19Z" fill="black"/>
<path d="M516.92 450.6C516.493 450.107 516.017 449.053 515.49 447.44C514.31 443.82 516.37 438.71 518.5 436.24C519 435.663 519.627 435.21 520.332 434.916C521.037 434.623 521.799 434.498 522.56 434.55C524.307 434.677 528.613 435.237 535.48 436.23C540.35 436.94 542.29 436.24 545.81 433.31C549.67 430.09 555.76 437.68 557.15 440.32C557.603 441.187 557.56 442.627 557.02 444.64C556.433 446.807 555.753 448.947 554.98 451.06C554.407 452.62 553.07 454.177 550.97 455.73C550.461 456.109 549.85 456.331 549.21 456.37C542.31 456.757 536.247 456.653 531.02 456.06C526.92 455.59 519.94 454.06 516.92 450.6Z" fill="black"/>
<path d="M666.537 1064.22C667.113 1064.16 667.547 1063.78 667.505 1063.38C667.463 1062.98 666.961 1062.7 666.384 1062.76C665.807 1062.82 665.374 1063.2 665.416 1063.6C665.458 1064 665.96 1064.28 666.537 1064.22Z" fill="black"/>
</svg>
