<?xml version="1.0" encoding="UTF-8" standalone="no"?>
<!DOCTYPE svg PUBLIC "-//W3C//DTD SVG 1.1//EN" "http://www.w3.org/Graphics/SVG/1.1/DTD/svg11.dtd">
<svg xmlns="http://www.w3.org/2000/svg" version="1.1" viewBox="0.00 0.00 1200.00 1200.00">
<path fill="#000000" d="
  M 334.31 370.56
  C 338.91 367.71 347.01 363.52 358.74 357.26
  C 361.79 355.63 365.62 354.52 367.81 353.23
  A 3.06 3.01 23.7 0 1 368.73 352.88
  Q 372.26 352.17 376.53 350.55
  Q 379.85 349.28 384.25 348.02
  Q 392.85 345.54 398.88 342.77
  Q 399.69 342.40 400.43 342.99
  Q 401.66 343.96 403.56 343.32
  Q 407.95 341.84 411.24 341.28
  A 4.07 3.99 27.1 0 0 412.20 340.98
  Q 415.39 339.49 416.51 339.24
  Q 418.89 338.71 430.34 337.23
  A 4.67 4.37 -57.5 0 0 431.51 336.93
  L 436.05 335.08
  A 2.84 2.81 41.6 0 1 437.87 334.98
  Q 437.98 335.01 438.17 335.04
  A 8.61 8.24 44.7 0 0 440.62 335.08
  Q 455.59 333.08 472.54 328.99
  A 3.48 3.30 36.2 0 1 473.40 328.88
  Q 477.56 328.87 482.19 327.63
  Q 482.21 327.63 482.23 327.63
  L 490.97 326.82
  A 5.96 5.93 -38.9 0 1 493.28 327.06
  L 494.37 327.40
  A 1.17 1.17 0.0 0 0 495.07 327.40
  Q 500.40 325.67 504.05 325.12
  Q 504.87 324.99 512.66 324.27
  Q 517.00 323.86 521.34 323.99
  C 531.21 324.28 537.55 324.36 545.03 325.04
  Q 549.24 325.43 552.13 325.02
  Q 554.93 324.63 558.72 324.69
  Q 561.43 324.74 565.25 325.62
  Q 576.98 328.31 591.58 327.67
  Q 594.02 327.56 594.20 327.46
  C 595.76 326.60 596.73 327.67 598.46 327.69
  Q 601.20 327.73 610.73 328.85
  Q 615.19 329.37 618.79 330.27
  Q 622.75 331.26 626.80 331.90
  Q 632.41 332.78 635.63 333.63
  Q 642.11 335.34 644.35 335.81
  C 652.35 337.48 658.31 338.76 664.79 341.47
  A 1.45 1.43 43.2 0 0 665.99 341.44
  Q 668.45 340.27 671.17 340.83
  A 3.18 3.11 -25.1 0 1 671.86 341.07
  Q 681.80 346.00 687.86 347.10
  Q 697.60 348.87 699.23 349.00
  A 2.73 2.63 -27.7 0 1 700.19 349.28
  Q 702.09 350.28 710.96 354.28
  C 716.93 356.97 723.43 361.46 729.51 364.61
  C 734.21 367.04 740.13 370.41 744.20 374.40
  A 4.34 3.99 81.1 0 0 744.94 374.99
  C 753.95 380.61 762.32 388.11 769.22 395.41
  Q 770.24 396.49 771.39 396.98
  Q 772.45 397.43 772.56 398.72
  A 1.75 1.61 -63.7 0 0 772.75 399.37
  Q 779.01 411.16 786.74 419.45
  A 6.70 6.66 -71.6 0 1 788.45 422.89
  L 790.07 432.38
  A 2.14 2.00 -61.4 0 0 790.16 432.73
  Q 794.48 444.15 794.56 446.84
  C 794.69 451.12 796.76 453.69 798.24 457.29
  A 8.80 8.73 32.0 0 1 798.88 460.01
  L 799.22 465.04
  A 0.57 0.57 0.0 0 0 800.17 465.42
  L 804.63 461.31
  A 1.19 1.16 -72.4 0 1 805.19 461.01
  Q 810.31 459.91 813.21 459.86
  C 818.95 459.76 824.89 458.22 829.35 457.15
  Q 830.54 456.86 832.29 457.42
  A 1.88 1.84 48.2 0 0 833.18 457.48
  Q 845.30 455.51 854.48 456.96
  Q 863.95 458.47 877.61 463.20
  A 4.43 4.31 -17.5 0 1 878.62 463.71
  C 884.69 467.82 894.15 474.05 902.13 478.20
  Q 910.92 482.78 912.26 483.61
  A 7.67 7.60 -7.7 0 1 913.52 484.56
  Q 920.92 491.45 929.43 498.81
  Q 932.44 501.42 935.40 502.89
  A 1.99 1.98 10.0 0 1 936.50 504.45
  C 936.87 507.74 937.72 509.26 940.29 512.00
  Q 946.59 518.70 949.19 523.07
  Q 955.81 534.18 957.43 536.36
  A 5.66 5.63 21.1 0 1 958.43 538.60
  C 958.74 540.06 959.74 542.69 960.62 544.44
  Q 963.37 549.91 965.94 554.87
  C 969.63 562.00 971.28 567.56 971.60 574.65
  C 971.77 578.20 971.42 582.59 972.41 587.00
  Q 973.80 593.20 974.40 596.27
  Q 975.10 599.88 973.98 602.55
  C 973.01 604.84 974.29 605.36 974.37 607.23
  Q 974.49 609.84 974.31 613.74
  A 2.67 2.61 55.7 0 1 974.22 614.25
  L 971.84 621.88
  A 1.57 0.87 74.0 0 0 971.78 622.14
  Q 970.44 633.36 969.93 635.39
  Q 968.78 640.00 964.84 643.98
  A 1.76 1.72 -17.8 0 0 964.38 644.85
  Q 962.70 653.15 961.95 654.99
  Q 961.04 657.24 956.57 664.94
  A 4.63 4.25 71.6 0 0 956.18 665.81
  Q 951.65 678.96 943.45 689.94
  Q 942.22 691.58 937.40 695.35
  A 1.90 1.86 -5.1 0 0 936.93 695.90
  Q 933.32 702.27 929.05 706.40
  A 5.67 5.33 -80.5 0 1 928.05 707.16
  C 924.60 709.17 921.60 710.63 918.30 712.96
  Q 913.44 716.39 907.94 719.91
  C 905.76 721.31 903.60 722.16 901.27 723.42
  A 5.11 4.57 7.6 0 0 900.49 723.95
  Q 893.62 729.68 891.31 731.07
  Q 890.29 731.68 888.52 731.06
  A 1.50 1.49 41.7 0 0 887.37 731.12
  C 886.00 731.76 884.90 732.11 883.18 731.25
  Q 881.14 730.22 878.15 731.82
  Q 873.81 734.15 870.09 737.16
  A 1.60 1.60 0.0 0 1 868.32 737.32
  Q 865.78 735.95 862.78 736.87
  Q 857.07 738.60 850.40 740.56
  C 845.62 741.96 841.98 742.13 837.49 740.73
  Q 834.17 739.69 833.30 739.51
  A 3.07 3.03 -41.6 0 0 832.35 739.46
  Q 824.16 740.22 812.84 739.76
  C 811.65 739.71 810.97 739.38 810.21 738.53
  A 0.50 0.50 0.0 0 0 809.35 738.73
  Q 808.72 741.07 807.67 742.40
  A 1.21 1.19 50.6 0 0 807.55 743.71
  L 810.59 749.45
  A 1.83 1.78 36.7 0 1 810.77 750.58
  Q 810.69 751.04 810.14 751.86
  C 807.79 755.41 810.23 757.23 810.60 760.16
  A 3.65 3.55 50.2 0 1 810.49 761.59
  Q 809.38 765.56 809.55 766.25
  C 811.04 772.24 811.91 777.55 808.88 783.39
  Q 806.48 788.01 802.79 791.77
  A 2.11 2.10 -15.7 0 0 802.26 792.71
  Q 800.92 798.17 799.71 800.23
  Q 799.15 801.19 794.85 806.32
  C 792.28 809.39 789.32 811.08 785.46 813.94
  Q 784.47 814.68 779.51 820.34
  A 1.81 1.78 12.9 0 1 778.65 820.87
  Q 763.14 825.24 751.47 837.26
  Q 749.86 838.91 748.42 839.89
  Q 746.75 841.02 744.76 841.57
  Q 740.66 842.71 737.79 843.47
  A 2.32 2.11 -66.1 0 0 737.11 843.77
  L 732.20 846.94
  A 2.21 2.21 0.0 0 1 731.28 847.29
  C 727.27 847.89 721.84 849.62 713.52 852.08
  Q 712.87 852.27 712.19 852.04
  A 0.47 0.46 -45.8 0 0 711.83 852.05
  L 688.47 861.60
  A 0.94 0.93 83.4 0 0 687.90 862.33
  Q 687.83 862.75 687.83 862.78
  A 0.77 0.77 0.0 0 1 687.08 863.29
  C 682.90 863.11 677.89 864.38 673.01 864.92
  Q 657.71 866.64 641.30 872.32
  Q 633.73 874.94 623.63 875.71
  A 3.06 3.05 -37.6 0 1 622.46 875.56
  C 617.34 873.81 608.56 875.27 604.01 877.24
  A 1.67 1.67 0.0 0 1 602.96 877.33
  L 600.56 876.77
  A 0.73 0.65 38.8 0 0 600.16 876.79
  L 594.64 878.78
  A 1.54 1.50 -42.8 0 1 593.56 878.75
  Q 592.17 878.17 591.74 878.17
  Q 589.95 878.19 576.37 879.08
  A 4.09 3.95 31.9 0 0 575.25 879.32
  C 570.77 880.98 568.99 882.23 564.58 881.10
  Q 564.57 881.09 558.35 879.25
  Q 552.17 877.41 547.18 880.45
  A 1.71 1.68 -58.5 0 1 546.21 880.69
  C 545.23 880.62 544.24 880.16 542.91 880.23
  Q 537.79 880.50 534.47 880.99
  Q 530.01 881.65 528.00 881.63
  Q 522.49 881.56 521.53 881.23
  C 516.41 879.41 514.90 878.32 510.24 879.27
  A 2.54 2.49 45.6 0 1 509.20 879.25
  Q 503.66 877.94 498.79 878.91
  A 2.74 2.66 43.0 0 1 497.76 878.93
  Q 490.45 877.79 481.76 876.74
  Q 477.59 876.24 475.26 877.43
  A 1.07 1.06 -45.3 0 1 474.28 877.44
  C 470.69 875.67 469.09 874.05 464.25 874.80
  C 462.27 875.11 458.91 875.87 455.90 875.64
  Q 448.41 875.08 446.24 874.71
  Q 439.73 873.59 436.93 873.31
  A 0.77 0.62 -24.7 0 1 436.69 873.25
  L 423.78 867.39
  A 3.60 3.57 -29.7 0 0 422.67 867.09
  L 403.35 865.15
  A 1.28 1.20 -28.4 0 1 402.97 865.05
  Q 392.89 860.91 382.20 859.28
  A 1.08 1.04 -21.2 0 1 381.70 859.07
  L 377.25 855.74
  A 1.14 1.14 0.0 0 0 376.85 855.54
  Q 371.32 854.08 368.99 853.57
  Q 364.78 852.64 361.34 851.20
  Q 353.04 847.73 346.40 843.77
  A 4.24 4.09 65.3 0 0 345.17 843.29
  Q 338.04 841.74 334.67 839.58
  Q 320.55 830.56 310.78 820.50
  Q 309.98 819.67 309.92 819.61
  Q 303.67 813.93 296.77 807.88
  A 3.60 3.54 -10.5 0 0 296.00 807.36
  L 288.76 803.79
  A 2.59 2.53 -5.3 0 1 287.87 803.07
  Q 285.61 800.14 284.81 795.64
  Q 282.97 785.27 283.07 777.23
  Q 283.36 751.95 279.84 726.39
  A 2.14 2.05 50.2 0 1 279.90 725.53
  C 280.65 722.67 280.06 719.11 280.13 717.38
  Q 280.21 715.63 279.87 711.76
  Q 279.38 706.04 279.83 700.51
  Q 280.02 698.25 279.74 697.16
  A 1.53 1.46 43.7 0 1 279.71 696.50
  Q 281.67 684.21 277.36 672.95
  A 2.41 2.41 0.0 0 1 277.77 670.53
  Q 280.62 667.10 280.77 664.73
  A 2.83 2.71 40.1 0 0 280.67 663.80
  C 280.14 661.84 278.64 659.55 278.09 657.49
  Q 275.41 647.49 278.37 637.49
  A 1.02 1.00 -44.5 0 0 278.38 636.95
  L 275.73 627.73
  A 1.24 1.22 47.0 0 1 275.75 626.98
  Q 276.33 625.30 275.64 620.83
  Q 275.29 618.52 276.16 615.61
  A 4.88 4.76 54.3 0 0 276.35 614.34
  Q 276.40 609.17 276.43 603.97
  Q 276.43 602.74 274.06 599.81
  A 1.02 1.02 0.0 0 1 274.05 598.54
  Q 274.57 597.87 274.63 597.58
  A 1.63 1.60 36.4 0 0 274.45 596.46
  L 273.63 595.00
  A 1.28 1.27 36.0 0 1 273.49 594.13
  L 275.33 584.82
  A 1.44 1.40 74.6 0 1 275.73 584.09
  L 276.21 583.60
  A 0.56 0.56 0.0 0 0 276.17 582.77
  Q 275.14 581.95 275.09 580.45
  Q 274.86 573.46 274.31 571.29
  A 1.76 1.72 48.1 0 1 274.35 570.29
  C 275.13 568.06 274.73 564.11 276.05 560.93
  C 277.00 558.64 274.47 555.16 273.88 553.78
  A 6.05 5.86 -58.4 0 1 273.41 551.66
  Q 273.03 540.19 273.54 527.76
  Q 273.56 527.11 273.92 525.44
  A 4.10 3.72 -42.2 0 0 274.01 524.52
  Q 273.94 513.57 271.80 502.40
  A 3.85 3.75 -48.6 0 1 271.75 501.41
  Q 274.62 467.10 276.52 447.76
  Q 277.05 442.31 278.77 433.04
  Q 279.24 430.56 280.83 426.73
  Q 282.95 421.62 283.27 420.51
  Q 285.08 414.27 288.83 406.12
  C 290.44 402.61 292.81 400.07 296.54 397.45
  Q 307.32 389.87 319.20 379.46
  C 322.67 376.41 327.59 373.49 330.00 371.29
  Q 331.48 369.94 333.67 370.64
  A 0.76 0.76 0.0 0 0 334.31 370.56
  Z
  M 781.92 736.96
  C 779.99 731.34 780.60 726.95 780.69 717.49
  Q 780.70 715.38 779.71 710.02
  Q 779.31 707.92 779.82 702.04
  Q 780.27 696.86 780.23 694.03
  Q 780.06 679.90 778.10 669.58
  Q 777.60 666.95 777.93 665.11
  Q 778.20 663.60 778.22 662.25
  Q 778.32 655.50 778.25 648.35
  A 3.96 3.95 37.8 0 0 778.15 647.56
  C 777.47 644.70 777.78 642.17 777.64 639.10
  Q 776.91 622.84 776.19 607.96
  C 776.11 606.32 775.43 604.72 775.69 603.57
  C 776.13 601.64 775.13 599.24 775.91 597.55
  A 0.82 0.78 -36.6 0 0 775.97 597.20
  L 774.37 573.93
  A 4.19 4.07 -59.8 0 0 774.02 572.52
  L 771.77 567.49
  A 5.56 5.54 44.3 0 1 771.71 563.11
  L 774.45 556.52
  A 2.10 2.04 -35.6 0 0 774.61 555.63
  L 773.84 538.72
  A 0.14 0.09 -58.3 0 1 773.84 538.65
  C 774.33 537.06 773.68 535.68 773.52 534.03
  Q 772.62 524.59 772.13 517.90
  A 4.20 3.93 -43.1 0 1 772.21 516.70
  Q 772.98 512.98 772.05 509.68
  A 1.76 1.69 -46.1 0 1 772.05 508.75
  Q 772.48 507.27 772.51 506.75
  Q 772.89 498.21 771.93 490.03
  Q 771.79 488.83 770.90 486.28
  A 3.17 3.15 -53.4 0 1 770.74 485.17
  C 770.89 481.89 768.32 479.50 769.79 475.34
  A 1.36 1.36 0.0 0 0 769.79 474.46
  C 769.22 472.73 767.86 470.53 767.21 468.55
  Q 763.82 458.25 761.50 447.67
  C 760.53 443.28 759.16 438.64 758.08 434.98
  A 4.05 3.91 -71.6 0 0 757.49 433.75
  C 755.09 430.41 753.01 425.63 750.22 421.57
  Q 746.16 415.69 744.51 413.43
  Q 736.71 402.72 723.04 397.59
  A 3.47 3.31 -15.4 0 1 722.26 397.17
  Q 718.39 394.34 712.93 393.45
  A 2.19 2.15 -22.3 0 1 712.02 393.08
  Q 709.22 391.08 705.45 387.49
  Q 703.72 385.85 702.33 385.30
  Q 694.13 382.08 687.61 377.81
  A 3.91 3.67 -18.2 0 0 686.73 377.40
  C 680.98 375.64 677.74 374.34 674.88 374.43
  A 2.40 2.20 -34.4 0 1 674.11 374.32
  L 646.91 365.83
  A 3.05 3.03 -36.4 0 0 646.03 365.70
  Q 644.93 365.72 643.59 365.35
  Q 630.42 361.77 627.21 360.86
  Q 624.68 360.14 619.58 361.46
  A 1.67 1.62 -40.8 0 1 618.55 361.40
  Q 607.82 357.24 595.65 358.65
  A 1.13 1.12 50.5 0 1 595.16 358.60
  L 589.70 356.90
  A 4.00 3.94 47.8 0 0 587.76 356.79
  C 584.64 357.42 582.67 357.98 579.77 357.22
  Q 577.30 356.58 570.66 355.69
  Q 569.54 355.55 568.91 355.26
  C 567.21 354.50 565.98 355.54 564.35 355.16
  Q 560.41 354.24 550.04 355.50
  Q 542.60 356.40 532.55 353.47
  A 2.14 2.13 48.1 0 0 531.66 353.42
  L 521.92 354.98
  A 1.36 1.05 -52.5 0 0 521.66 355.05
  L 516.81 357.17
  A 2.48 2.47 -52.0 0 1 515.42 357.34
  Q 513.82 357.06 512.24 357.67
  A 2.79 2.78 52.8 0 1 509.56 357.30
  L 506.53 355.02
  A 3.65 3.45 71.6 0 0 505.58 354.51
  Q 504.71 354.18 501.77 354.59
  Q 495.27 355.50 484.75 356.83
  Q 478.50 357.63 473.08 358.85
  Q 470.14 359.52 461.39 360.91
  Q 457.80 361.47 455.46 360.94
  A 2.37 2.31 39.5 0 0 454.03 361.06
  L 448.15 363.46
  A 1.48 1.35 -52.4 0 1 447.58 363.56
  Q 445.16 363.48 439.51 364.82
  Q 423.71 368.56 414.49 371.80
  A 6.05 5.78 -56.3 0 1 413.10 372.11
  C 410.04 372.38 407.25 373.70 404.08 374.29
  Q 396.45 375.72 390.74 378.03
  C 387.93 379.17 385.56 379.88 383.31 380.92
  C 375.13 384.72 371.89 386.33 366.48 388.32
  C 361.64 390.10 357.63 391.17 353.28 393.43
  Q 344.02 398.24 336.22 403.51
  C 332.06 406.31 327.27 411.30 324.62 413.87
  C 320.47 417.89 318.03 422.06 313.78 428.49
  Q 313.77 428.50 308.64 435.54
  Q 302.66 443.75 301.13 452.83
  Q 299.99 459.57 299.73 460.66
  A 2.33 2.29 -48.9 0 0 299.81 461.99
  L 300.10 462.77
  A 1.12 1.11 -43.2 0 1 300.07 463.62
  Q 298.53 467.01 299.30 470.89
  C 299.52 472.03 300.57 472.73 301.07 473.82
  A 1.09 1.08 -39.5 0 1 300.96 474.92
  L 299.28 477.15
  A 0.81 0.81 0.0 0 0 300.07 478.43
  L 301.91 478.10
  A 0.76 0.76 0.0 0 1 302.65 479.30
  L 301.49 480.86
  A 1.36 1.34 -30.6 0 0 301.23 481.84
  Q 301.65 485.16 301.80 485.49
  Q 303.43 489.18 303.40 490.55
  Q 303.19 500.87 301.74 510.75
  Q 302.26 516.22 302.60 521.75
  Q 302.74 523.95 302.21 526.75
  A 1.85 1.85 0.0 0 0 302.28 527.73
  Q 303.03 529.87 302.74 530.57
  Q 300.79 535.28 301.81 540.89
  A 2.23 2.23 0.0 0 0 302.17 541.79
  Q 304.19 544.76 304.33 546.20
  C 304.79 550.78 304.77 556.21 303.92 561.44
  Q 303.33 565.12 304.19 568.50
  A 4.26 4.20 -52.8 0 1 304.33 569.58
  Q 304.37 580.70 304.15 582.44
  Q 303.26 589.42 303.95 594.69
  Q 304.68 600.27 304.69 603.89
  Q 304.70 617.40 304.39 622.09
  A 5.28 5.22 -48.5 0 0 304.46 623.34
  Q 306.42 634.79 306.56 645.78
  C 306.58 647.18 305.95 648.45 306.30 649.61
  Q 306.69 650.89 306.60 652.44
  Q 306.31 657.77 306.39 660.09
  A 5.75 5.55 51.1 0 1 306.27 661.43
  Q 305.40 665.49 305.81 668.53
  Q 306.17 671.16 305.81 673.54
  Q 305.55 675.29 306.32 679.01
  A 1.39 1.23 41.4 0 1 306.36 679.33
  L 306.70 699.18
  A 10.41 10.30 -41.3 0 1 306.57 701.05
  Q 306.08 703.97 306.12 704.76
  Q 307.38 728.77 307.86 741.71
  C 307.95 744.35 308.65 746.59 308.20 749.49
  C 307.61 753.35 307.15 755.89 308.30 759.19
  A 2.72 2.62 36.4 0 1 308.45 760.07
  L 308.45 766.27
  A 1.42 1.20 -40.3 0 1 308.38 766.69
  C 306.49 772.91 308.29 776.87 309.03 781.98
  Q 309.44 784.76 312.02 787.97
  Q 316.59 793.66 316.98 794.02
  Q 327.97 804.34 331.76 806.73
  Q 333.44 807.79 340.72 810.64
  C 341.74 811.05 343.53 810.45 344.23 811.86
  Q 345.05 813.51 346.22 814.19
  Q 355.37 819.45 360.26 823.04
  A 0.70 0.56 -6.5 0 0 360.42 823.14
  L 374.41 828.95
  A 4.12 3.90 58.7 0 0 375.44 829.23
  L 387.18 830.95
  A 2.11 1.69 -24.7 0 1 387.58 831.05
  C 393.07 833.20 395.13 833.84 398.74 836.44
  A 2.59 2.52 -19.2 0 0 399.60 836.84
  C 400.91 837.19 402.01 836.50 403.66 836.81
  Q 411.85 838.32 421.24 841.29
  Q 423.64 842.04 426.33 841.15
  C 431.43 839.46 432.42 841.61 436.17 843.31
  A 0.03 0.02 58.3 0 0 436.19 843.32
  L 444.49 845.16
  A 0.19 0.18 -54.7 0 0 444.64 845.13
  C 447.16 843.62 450.57 845.27 453.59 846.46
  Q 454.99 847.01 458.14 847.49
  Q 465.38 848.60 471.38 848.98
  Q 479.63 849.49 484.64 850.03
  Q 499.75 851.65 519.07 852.27
  A 1.94 1.86 55.7 0 1 519.73 852.41
  L 521.83 853.29
  A 2.97 2.94 -41.8 0 0 523.75 853.39
  L 532.78 850.80
  A 1.46 1.46 0.0 0 1 534.06 851.04
  L 534.40 851.29
  A 2.19 2.18 63.2 0 0 535.70 851.72
  Q 546.50 851.61 546.77 851.61
  C 548.63 851.64 550.71 850.53 552.55 850.59
  C 554.27 850.65 555.37 851.85 557.20 851.08
  A 1.88 1.87 -47.5 0 1 558.50 851.02
  L 559.82 851.43
  A 1.13 1.12 -53.4 0 0 560.81 851.28
  Q 562.19 850.29 563.02 850.55
  Q 568.43 852.22 574.96 851.63
  C 576.61 851.48 577.92 850.42 579.43 851.39
  A 1.02 1.01 -47.3 0 0 580.58 851.34
  Q 581.98 850.28 583.17 850.21
  A 1.53 1.51 -26.9 0 1 584.20 850.54
  C 588.16 853.76 590.38 850.70 593.77 849.12
  A 2.46 2.39 -57.1 0 1 594.73 848.90
  Q 604.89 848.62 616.97 847.16
  C 620.04 846.79 623.14 845.85 625.70 845.43
  A 2.01 1.84 -65.0 0 0 626.50 845.10
  L 629.29 843.15
  A 6.27 6.19 -68.6 0 1 631.45 842.19
  C 632.72 841.94 638.07 839.39 640.58 841.05
  Q 643.26 842.81 646.83 841.65
  Q 650.08 840.59 655.25 838.47
  Q 655.95 838.19 657.93 838.36
  A 1.66 1.62 -56.1 0 0 658.84 838.17
  L 663.47 835.59
  A 2.31 2.22 -64.5 0 1 664.08 835.36
  L 677.16 832.53
  A 0.89 0.86 49.4 0 1 677.69 832.58
  L 680.34 833.68
  A 1.56 1.55 -47.8 0 0 681.69 833.61
  Q 683.97 832.37 687.49 831.18
  A 3.86 3.64 20.1 0 0 688.14 830.90
  Q 703.26 822.81 707.04 821.78
  Q 710.39 820.87 712.26 819.44
  A 1.79 1.77 -68.9 0 1 712.97 819.12
  Q 726.93 816.44 730.32 815.04
  Q 737.26 812.18 743.67 807.66
  Q 747.99 804.62 754.58 800.58
  Q 758.48 798.19 762.49 794.11
  C 763.28 793.30 763.49 791.59 764.48 790.90
  A 1.80 1.75 24.0 0 1 765.38 790.57
  Q 768.41 790.33 769.91 789.40
  C 772.66 787.69 774.54 782.82 776.00 780.76
  Q 778.84 776.75 783.54 774.76
  A 1.96 1.96 0.0 0 0 784.49 772.02
  Q 783.54 770.29 783.50 770.20
  A 3.58 3.50 51.6 0 1 783.89 766.44
  C 785.94 763.85 783.75 762.76 784.53 760.40
  Q 785.13 758.55 783.73 754.82
  Q 780.19 745.45 779.56 744.49
  A 1.15 1.13 39.4 0 1 779.45 743.44
  L 781.90 737.42
  A 0.65 0.62 -43.8 0 0 781.92 736.96
  Z
  M 805.74 702.98
  A 0.40 0.40 0.0 0 0 805.82 703.64
  Q 807.40 704.47 809.31 706.55
  A 3.73 3.65 -11.9 0 0 810.91 707.57
  C 820.53 710.65 829.28 710.74 839.18 709.78
  Q 842.45 709.46 846.74 708.36
  Q 856.70 705.81 857.14 705.60
  Q 857.74 705.32 860.51 704.81
  C 872.18 702.66 882.69 699.32 892.60 692.46
  Q 902.26 685.78 909.72 678.04
  Q 914.70 672.88 922.00 669.22
  A 1.08 1.07 83.7 0 0 922.55 668.53
  Q 923.21 665.83 921.76 664.24
  A 0.98 0.97 34.0 0 1 921.57 663.27
  Q 923.49 657.76 925.92 649.89
  Q 926.59 647.73 931.03 643.63
  A 2.82 2.69 -10.7 0 0 931.64 642.78
  Q 934.43 636.49 937.31 627.01
  C 938.19 624.14 939.13 623.02 940.19 620.60
  Q 941.03 618.67 939.78 615.95
  A 2.34 2.22 32.9 0 1 939.58 615.12
  C 939.56 614.47 940.25 613.56 940.35 612.42
  Q 941.19 603.19 941.34 598.94
  C 941.52 593.80 940.93 591.15 940.19 585.22
  C 940.00 583.72 939.18 583.22 940.23 581.51
  Q 941.35 579.69 940.06 578.43
  C 939.13 577.52 939.09 576.42 940.01 575.74
  A 1.67 1.67 0.0 0 0 940.18 573.21
  Q 937.46 570.54 935.88 567.25
  A 3.38 3.16 30.1 0 1 935.61 566.36
  Q 934.57 559.70 933.39 557.10
  Q 930.76 551.27 930.32 550.02
  A 4.52 4.35 19.1 0 0 929.81 549.02
  Q 926.55 544.27 922.90 537.80
  Q 922.41 536.93 924.10 536.02
  A 1.03 1.03 0.0 0 0 924.35 534.41
  Q 923.29 533.28 920.96 532.66
  A 1.81 1.80 -15.4 0 1 920.16 532.21
  Q 916.34 528.47 914.46 524.04
  A 3.98 3.93 -75.6 0 0 913.87 523.03
  Q 910.88 519.27 906.90 513.88
  Q 905.82 512.42 900.97 507.57
  C 896.87 503.47 892.53 501.18 887.97 498.99
  Q 883.29 496.73 867.30 485.80
  A 3.54 3.45 -16.7 0 0 866.55 485.41
  Q 857.44 482.07 843.73 481.02
  Q 830.96 480.03 818.71 481.77
  Q 811.06 482.85 804.40 487.28
  C 800.48 489.89 800.58 490.80 802.23 495.26
  A 1.73 1.67 41.9 0 1 802.30 496.23
  Q 800.84 502.97 801.16 508.02
  C 801.81 518.33 801.63 522.63 802.89 530.13
  Q 803.55 534.02 803.05 538.39
  A 1.74 1.74 0.0 0 0 804.90 540.32
  L 815.66 539.58
  A 0.51 0.44 30.8 0 0 815.83 539.55
  Q 820.73 537.67 825.17 539.52
  Q 827.38 540.44 828.45 540.78
  Q 837.61 543.67 837.81 543.73
  Q 841.92 544.98 844.57 546.14
  Q 851.00 548.96 851.25 549.04
  A 7.54 7.40 -15.8 0 1 853.59 550.32
  C 857.82 553.75 861.10 557.43 863.83 560.12
  Q 866.37 562.64 868.15 565.36
  Q 876.00 577.33 878.51 584.41
  Q 882.46 595.58 880.17 610.12
  A 4.73 4.62 64.7 0 1 879.64 611.66
  Q 878.18 614.32 877.76 616.73
  C 877.25 619.59 876.50 621.38 876.16 623.60
  C 875.45 628.26 873.88 631.85 872.00 637.07
  A 3.42 3.38 82.4 0 1 870.79 638.67
  Q 865.02 642.83 860.47 648.96
  C 858.56 651.55 855.14 654.67 852.86 655.12
  Q 849.35 655.81 845.37 656.72
  Q 842.40 657.41 838.19 659.28
  Q 832.63 661.77 828.94 662.92
  C 824.42 664.35 818.96 664.55 813.91 662.94
  Q 809.66 661.58 806.07 665.65
  A 2.91 2.91 0.0 0 0 805.45 668.30
  Q 806.91 673.88 808.44 684.77
  C 808.70 686.63 808.60 689.61 808.16 691.72
  Q 807.10 696.76 806.48 701.75
  Q 806.40 702.41 805.74 702.98
  Z
  M 805.06 563.22
  L 806.15 569.21
  A 3.23 3.11 -47.8 0 1 806.18 570.18
  L 804.36 585.59
  A 1.10 1.09 65.7 0 1 804.17 586.10
  C 802.63 588.31 803.60 588.86 804.39 590.97
  A 0.91 0.91 0.0 0 1 804.25 591.87
  C 803.70 592.57 803.15 593.64 803.56 594.61
  Q 804.51 596.90 804.62 600.54
  C 804.76 605.06 805.71 609.02 806.67 615.26
  A 2.38 2.37 48.3 0 1 806.62 616.15
  L 805.43 620.48
  A 1.24 1.24 0.0 0 0 805.76 621.69
  Q 808.94 624.77 809.05 628.90
  A 1.14 1.14 0.0 0 0 809.93 629.97
  L 817.99 631.86
  A 3.39 3.39 0.0 0 0 820.02 631.70
  L 821.92 630.92
  A 4.03 3.91 -55.3 0 1 823.43 630.62
  Q 830.98 630.55 833.87 629.62
  Q 837.93 628.31 839.55 626.41
  Q 846.88 617.81 847.51 617.25
  A 0.77 0.57 -87.1 0 0 847.65 617.08
  L 851.79 609.87
  A 5.66 5.55 67.0 0 0 852.41 608.29
  C 853.24 604.67 855.80 599.80 854.26 595.49
  Q 853.71 593.94 850.28 585.38
  A 9.97 9.36 19.6 0 0 849.44 583.75
  Q 847.78 581.21 846.63 578.31
  A 10.70 10.68 17.4 0 0 845.54 576.23
  Q 845.18 575.70 836.80 567.05
  Q 834.85 565.03 832.99 564.76
  Q 823.36 563.32 813.94 562.09
  Q 810.05 561.58 805.48 562.57
  A 0.56 0.56 0.0 0 0 805.06 563.22
  Z"
/>
<path fill="#000000" d="
  M 703.49 520.94
  C 699.71 522.68 696.30 524.39 693.09 525.52
  Q 679.89 530.14 657.47 537.58
  C 653.31 538.96 649.01 539.43 644.89 541.18
  A 2.05 1.96 37.5 0 1 643.78 541.30
  Q 642.06 540.97 641.61 541.10
  Q 628.56 544.87 613.11 548.82
  Q 606.12 550.61 599.25 550.84
  Q 596.39 550.93 593.84 549.95
  A 2.86 2.81 58.1 0 0 593.14 549.78
  C 588.89 549.32 585.09 551.90 580.50 552.30
  C 576.91 552.62 571.76 552.27 567.49 553.55
  C 563.93 554.62 561.37 554.69 558.26 553.57
  Q 556.67 553.00 555.26 553.66
  C 549.81 556.20 545.45 555.00 539.84 554.17
  A 4.79 4.78 -46.3 0 0 537.79 554.22
  L 531.00 555.86
  A 0.61 0.51 -49.7 0 1 530.82 555.89
  L 520.75 555.92
  A 4.66 4.28 47.4 0 1 519.81 555.84
  L 512.17 554.40
  A 2.22 2.08 41.4 0 0 511.23 554.43
  Q 505.18 555.98 500.79 555.06
  Q 494.45 553.75 494.05 553.66
  C 489.46 552.64 484.23 552.82 479.45 552.33
  Q 474.69 551.84 471.69 551.73
  Q 458.44 551.26 451.25 549.73
  Q 432.12 545.67 413.99 543.01
  Q 411.69 542.68 403.05 538.15
  A 3.45 3.40 -27.0 0 0 401.97 537.81
  Q 400.62 537.62 396.02 537.26
  C 390.30 536.82 384.42 533.55 378.75 530.69
  Q 374.54 528.56 371.08 527.11
  Q 363.48 523.92 355.47 519.38
  C 352.06 517.46 347.53 516.83 344.73 513.66
  Q 339.90 508.19 336.12 505.28
  A 4.60 4.54 -0.4 0 1 335.35 504.53
  Q 325.13 491.86 319.87 475.79
  C 318.80 472.52 318.72 468.24 317.53 465.62
  A 1.80 1.77 -49.8 0 1 317.44 464.42
  C 318.60 460.43 320.82 457.37 322.89 454.04
  A 3.03 2.88 68.6 0 0 323.26 453.13
  Q 325.62 442.46 331.54 434.92
  A 7.81 7.31 -1.1 0 1 332.98 433.52
  L 339.34 428.77
  A 2.90 2.74 -87.8 0 0 339.89 428.23
  Q 344.33 422.39 347.62 420.85
  Q 356.62 416.65 368.70 408.73
  Q 378.28 402.44 387.43 399.44
  Q 390.74 398.35 397.40 396.78
  C 406.06 394.73 411.45 393.18 422.03 390.30
  Q 426.78 389.00 433.27 385.51
  C 434.78 384.70 438.24 384.61 440.44 385.24
  C 444.86 386.49 448.01 384.33 451.99 383.83
  Q 457.58 383.14 465.95 381.12
  Q 470.22 380.09 473.19 379.74
  C 476.18 379.39 479.43 378.71 482.95 378.54
  C 497.54 377.84 507.41 377.97 518.52 375.50
  A 3.71 3.64 43.7 0 1 519.99 375.48
  Q 524.25 376.29 533.50 376.27
  Q 548.00 376.24 554.23 376.09
  C 558.82 375.98 563.23 376.98 567.79 376.86
  C 570.01 376.80 571.53 377.49 573.76 377.54
  Q 580.82 377.69 586.74 379.95
  A 3.47 3.37 51.4 0 0 588.38 380.16
  C 592.70 379.65 597.21 375.28 602.09 378.10
  Q 604.48 379.48 606.07 379.89
  Q 620.40 383.65 626.07 384.37
  Q 639.39 386.05 641.32 387.06
  A 1.58 1.56 -41.5 0 0 642.62 387.13
  Q 644.45 386.41 647.78 387.77
  C 652.22 389.59 656.57 391.33 661.84 392.77
  C 674.23 396.13 681.39 399.19 697.15 405.37
  C 704.64 408.31 710.04 412.26 718.22 417.28
  Q 719.92 418.32 721.42 419.84
  Q 727.66 426.14 732.71 432.33
  A 4.52 4.45 -0.4 0 0 733.43 433.03
  C 735.71 434.78 738.76 436.49 740.82 438.74
  Q 744.46 442.71 746.05 447.95
  Q 747.73 453.48 749.17 457.85
  A 6.87 6.81 41.5 0 1 749.39 461.26
  Q 748.20 467.45 748.00 469.22
  Q 746.67 480.77 736.33 491.39
  Q 733.51 494.28 730.77 500.05
  C 728.02 505.84 725.50 507.21 720.20 509.35
  A 7.28 7.23 -74.7 0 0 718.51 510.32
  Q 712.36 515.00 704.80 519.81
  Q 704.54 519.98 704.23 520.37
  A 2.07 2.00 6.5 0 1 703.49 520.94
  Z
  M 564.99 438.06
  L 566.86 436.66
  A 1.65 1.59 24.2 0 1 567.72 436.35
  L 573.51 436.08
  A 2.29 2.27 60.5 0 1 574.92 436.48
  C 575.69 437.01 576.54 438.18 577.59 438.04
  Q 578.65 437.90 579.56 436.68
  A 0.80 0.80 0.0 0 1 580.42 436.39
  Q 585.00 437.72 587.30 439.83
  C 588.76 441.15 590.10 441.47 591.65 440.63
  C 595.94 438.28 600.09 438.85 604.91 438.67
  Q 607.23 438.58 612.53 439.32
  Q 623.13 440.79 643.75 443.50
  C 652.05 444.59 663.08 447.76 671.62 449.15
  C 681.59 450.78 691.22 452.68 700.51 456.76
  Q 706.69 459.47 709.91 460.30
  A 3.60 3.60 0.0 0 1 711.07 460.85
  C 713.25 462.44 715.12 463.87 717.49 463.67
  A 1.67 1.67 0.0 0 0 719.01 462.16
  Q 719.26 459.58 718.37 457.75
  C 714.22 449.17 706.61 441.99 698.11 435.62
  Q 690.15 429.65 680.19 425.89
  A 2.47 2.41 -40.2 0 0 678.79 425.79
  Q 676.24 426.37 673.79 425.20
  C 661.47 419.32 652.15 416.51 635.19 411.56
  Q 631.34 410.43 627.86 412.42
  A 1.64 1.62 -51.3 0 1 626.56 412.57
  L 617.54 409.88
  A 0.63 0.17 30.1 0 0 617.43 409.85
  Q 604.77 407.87 602.51 407.21
  Q 592.90 404.38 589.64 403.97
  A 14.93 14.21 46.4 0 0 587.42 403.86
  Q 579.38 404.05 574.75 403.47
  C 568.50 402.69 566.30 402.17 560.74 402.66
  Q 556.74 403.01 550.01 403.17
  A 2.57 2.54 60.3 0 1 548.62 402.78
  Q 545.52 400.80 541.89 402.02
  C 538.90 403.02 536.81 402.74 534.05 403.60
  A 2.49 2.49 0.0 0 1 532.57 403.60
  L 530.94 403.09
  A 3.51 3.50 -42.7 0 0 529.12 403.02
  C 525.89 403.77 523.59 402.45 520.51 402.92
  Q 518.96 403.15 517.90 403.76
  Q 515.24 405.31 512.13 404.42
  Q 510.91 404.07 509.55 404.63
  Q 506.23 406.02 503.19 404.35
  Q 501.61 403.48 499.90 404.48
  Q 495.72 406.92 491.62 405.25
  A 2.01 1.98 44.5 0 0 490.13 405.25
  L 487.86 406.18
  A 0.22 0.17 25.5 0 1 487.77 406.20
  L 476.11 407.00
  A 2.15 2.10 23.6 0 0 475.00 407.42
  L 472.65 409.17
  A 1.07 1.07 0.0 0 1 471.49 409.24
  C 470.45 408.66 469.47 407.46 468.18 407.38
  C 465.84 407.23 463.38 407.67 461.61 409.36
  Q 460.68 410.24 459.40 410.97
  A 0.86 0.76 -59.9 0 1 459.13 411.06
  L 443.54 413.91
  A 3.13 2.93 -46.9 0 1 442.94 413.95
  L 440.73 413.87
  A 5.35 5.19 -49.4 0 0 439.44 413.99
  Q 433.71 415.17 425.57 416.56
  Q 421.73 417.22 408.21 421.72
  Q 393.05 426.76 391.38 427.39
  Q 386.76 429.11 384.84 431.09
  Q 383.49 432.48 382.24 432.94
  Q 381.06 433.39 380.05 433.88
  Q 377.41 435.18 361.17 445.86
  Q 353.52 450.88 350.12 457.96
  C 349.20 459.87 346.88 461.84 346.74 463.56
  Q 346.74 463.62 346.74 463.67
  L 347.02 471.60
  A 1.51 1.39 35.4 0 0 347.12 472.07
  L 349.19 477.13
  A 0.66 0.66 0.0 0 0 350.29 477.32
  L 355.17 471.89
  A 1.25 1.20 -83.0 0 1 355.44 471.67
  Q 358.98 469.46 360.05 469.26
  Q 365.46 468.20 366.99 467.48
  C 371.64 465.31 377.39 462.60 382.00 460.93
  C 390.13 458.00 395.58 455.15 403.29 453.46
  Q 408.38 452.35 421.01 448.96
  C 428.28 447.00 435.09 447.06 442.35 446.42
  Q 445.13 446.17 452.24 443.12
  A 9.99 9.96 29.6 0 1 454.86 442.40
  Q 459.24 441.82 466.30 441.45
  C 468.60 441.33 469.99 442.73 472.05 441.80
  Q 472.61 441.54 475.45 441.26
  Q 487.53 440.07 488.56 439.76
  A 3.39 3.12 20.8 0 0 489.06 439.56
  L 494.72 436.74
  A 0.59 0.59 0.0 0 1 495.40 436.85
  L 497.77 439.23
  A 2.41 2.39 65.5 0 0 499.59 439.92
  Q 510.80 439.22 517.81 438.82
  Q 519.40 438.73 520.95 437.21
  A 1.60 1.60 0.0 0 1 522.66 436.86
  C 524.23 437.49 525.77 437.96 527.57 438.03
  Q 535.21 438.32 542.11 437.71
  C 544.25 437.51 544.80 437.77 546.28 439.03
  A 1.37 1.22 42.1 0 0 548.06 439.04
  Q 549.58 437.49 551.47 437.23
  C 553.57 436.94 554.47 436.18 556.35 434.96
  A 2.31 2.31 0.0 0 1 558.75 434.90
  L 564.29 438.10
  A 0.64 0.63 -47.9 0 0 564.99 438.06
  Z
  M 428.30 519.79
  C 430.51 519.47 432.10 520.81 434.01 520.96
  Q 436.93 521.18 437.08 521.18
  A 2.61 2.29 48.7 0 1 437.46 521.23
  L 462.52 527.09
  A 2.33 2.33 0.0 0 0 465.37 525.06
  L 465.75 521.22
  A 1.44 1.38 -27.8 0 1 465.95 520.62
  Q 466.70 519.41 468.24 517.72
  C 470.10 515.68 471.28 513.15 472.32 511.66
  A 5.69 5.43 88.7 0 1 473.35 510.53
  Q 476.31 508.09 476.73 507.50
  Q 479.18 504.08 483.74 495.57
  A 1.16 1.10 -89.3 0 1 484.19 495.11
  L 491.57 490.84
  A 0.64 0.63 69.1 0 0 491.88 490.14
  C 491.39 488.01 491.76 486.42 493.66 484.90
  C 498.91 480.68 502.68 478.27 503.39 471.36
  A 2.72 2.67 -27.8 0 1 503.71 470.36
  Q 505.14 467.74 507.98 467.41
  A 0.78 0.78 0.0 0 0 508.67 466.72
  L 508.73 466.12
  A 0.66 0.66 0.0 0 0 508.03 465.40
  Q 501.78 465.73 496.33 466.39
  C 495.30 466.51 494.18 467.59 493.03 467.64
  A 1.60 1.58 -31.2 0 1 492.12 467.42
  C 489.75 466.03 487.83 466.10 485.53 467.62
  C 482.24 469.80 479.04 471.18 475.84 473.56
  Q 461.25 484.41 448.35 495.86
  Q 448.23 495.97 446.04 497.34
  A 1.14 1.14 0.0 0 0 445.56 497.98
  Q 444.45 501.84 442.97 503.05
  C 441.01 504.67 439.00 505.87 436.99 508.02
  Q 433.45 511.83 427.55 518.40
  A 0.84 0.84 0.0 0 0 428.30 519.79
  Z"
/>
<path fill="#000000" d="
  M 751.57 541.39
  Q 749.71 542.20 746.85 545.10
  Q 737.21 554.87 731.86 560.91
  A 2.59 2.53 -80.9 0 1 731.04 561.52
  C 725.42 564.20 720.60 561.73 716.94 557.27
  C 714.17 553.90 713.73 549.50 716.33 546.28
  Q 720.41 541.20 724.29 537.28
  C 727.40 534.13 729.63 532.25 731.23 528.30
  Q 732.74 524.58 737.36 522.58
  C 742.07 520.53 744.48 522.37 747.89 525.83
  Q 752.39 530.39 753.35 536.97
  Q 753.52 538.08 752.24 540.74
  A 1.33 1.31 0.4 0 1 751.57 541.39
  Z"
/>
<path fill="#000000" d="
  M 374.61 565.11
  Q 377.62 563.75 379.89 564.86
  C 383.83 566.77 388.58 571.67 387.01 576.33
  Q 385.81 579.89 383.61 581.66
  C 380.80 583.94 375.21 586.72 371.16 585.86
  Q 367.81 585.15 362.84 583.61
  A 4.71 4.55 -19.4 0 1 361.75 583.11
  C 359.00 581.36 356.14 578.40 353.13 576.27
  Q 346.74 571.75 342.00 567.49
  C 335.46 561.62 339.37 552.91 347.50 551.96
  Q 348.91 551.79 353.73 553.56
  Q 360.98 556.22 363.05 556.79
  A 7.00 6.98 -11.6 0 1 366.63 559.14
  C 368.43 561.39 371.10 565.06 373.68 565.27
  A 1.94 1.86 -53.4 0 0 374.61 565.11
  Z"
/>
<path fill="#000000" d="
  M 609.85 585.04
  Q 617.70 582.92 623.89 581.20
  Q 628.56 579.90 633.27 579.36
  A 2.71 2.65 23.4 0 0 634.52 578.88
  C 638.19 576.31 642.09 573.08 646.45 574.46
  C 657.84 578.06 653.79 591.86 646.82 597.26
  Q 641.76 601.18 636.00 601.85
  A 3.59 3.56 31.2 0 0 635.09 602.07
  Q 630.36 603.82 624.00 604.71
  Q 613.71 606.15 601.14 606.12
  C 597.90 606.11 592.22 604.68 591.27 601.04
  Q 590.64 598.66 590.86 593.59
  C 591.07 588.78 594.68 586.37 599.33 585.56
  C 602.12 585.07 606.96 583.83 608.85 584.91
  A 1.34 1.32 -37.1 0 0 609.85 585.04
  Z"
/>
<path fill="#000000" d="
  M 512.60 604.77
  C 510.99 609.38 508.19 615.34 503.85 616.98
  C 501.80 617.75 499.24 617.64 497.10 617.78
  A 2.05 2.05 0.0 0 1 495.99 617.54
  C 494.27 616.63 493.53 616.20 491.39 617.05
  Q 488.32 618.27 485.23 617.57
  Q 479.19 616.21 476.05 615.19
  Q 472.67 614.10 469.95 615.35
  A 2.01 2.00 -47.0 0 1 468.39 615.41
  L 458.81 611.83
  A 1.94 1.94 0.0 0 0 458.23 611.70
  Q 454.23 611.46 450.93 609.33
  C 443.18 604.34 448.09 595.52 453.13 590.91
  C 454.54 589.62 456.14 590.55 457.78 590.81
  Q 470.33 592.82 484.27 595.23
  C 486.37 595.59 490.55 595.62 493.23 595.20
  Q 496.76 594.66 504.51 593.97
  C 509.61 593.52 510.61 598.52 512.58 603.47
  A 1.90 1.85 -46.6 0 1 512.60 604.77
  Z"
/>
</svg>
