<?xml version="1.0" encoding="UTF-8" standalone="no"?>
<!DOCTYPE svg PUBLIC "-//W3C//DTD SVG 1.1//EN" "http://www.w3.org/Graphics/SVG/1.1/DTD/svg11.dtd">
<svg xmlns="http://www.w3.org/2000/svg" version="1.1" viewBox="0.00 0.00 1200.00 1200.00">
<path fill="#000000" d="
  M 865.06 454.76
  A 1.20 1.20 0.0 0 0 865.60 456.14
  Q 868.06 457.63 869.54 458.26
  C 874.06 460.19 874.90 464.11 873.05 468.22
  C 871.46 471.74 872.54 475.02 870.95 478.40
  A 7.41 7.38 -30.3 0 0 870.25 481.05
  Q 869.66 489.05 869.53 494.75
  Q 869.49 496.66 868.39 500.24
  A 5.22 5.00 55.1 0 0 868.17 501.66
  L 867.98 519.55
  A 0.76 0.76 0.0 0 0 868.56 520.29
  L 878.52 522.59
  A 2.37 2.33 -37.4 0 0 879.09 522.66
  L 888.36 522.66
  A 7.69 7.52 -33.7 0 1 891.13 523.18
  C 893.95 524.28 895.11 524.70 898.59 524.15
  A 5.02 4.89 42.5 0 1 899.92 524.11
  L 910.79 525.17
  A 1.15 1.09 -28.0 0 1 911.15 525.27
  L 919.02 528.91
  A 15.35 13.89 19.6 0 0 921.05 529.68
  L 933.47 533.48
  A 6.03 5.82 70.2 0 1 935.20 534.33
  Q 941.12 538.57 947.91 539.20
  A 5.83 5.83 0.0 0 1 951.68 541.08
  C 954.68 544.39 957.57 547.17 961.42 548.85
  C 967.76 551.61 972.10 554.73 976.08 560.33
  A 6.06 6.02 -88.0 0 0 977.18 561.52
  C 981.89 565.36 986.41 571.27 993.05 572.78
  A 4.76 4.74 81.8 0 1 996.13 575.09
  L 1000.60 583.09
  A 2.36 2.32 -87.6 0 0 1001.25 583.81
  L 1005.07 586.51
  A 5.99 5.94 -81.4 0 1 1007.31 589.57
  Q 1009.66 597.04 1015.37 602.90
  C 1017.37 604.95 1019.06 606.34 1020.54 609.97
  Q 1022.16 613.93 1025.48 617.96
  Q 1027.89 620.88 1027.96 623.07
  Q 1028.09 626.95 1028.40 628.18
  Q 1028.88 630.06 1033.00 638.42
  C 1034.26 640.97 1034.13 645.83 1034.09 648.85
  Q 1034.07 650.49 1034.55 651.62
  C 1035.78 654.53 1037.55 655.21 1035.00 658.48
  Q 1032.53 661.63 1035.15 665.66
  C 1036.37 667.54 1039.68 672.24 1039.46 674.26
  A 2.99 2.84 -32.3 0 1 1039.23 675.17
  L 1038.00 678.01
  A 2.06 1.87 -36.3 0 0 1037.83 678.85
  L 1037.93 683.17
  A 2.59 2.51 57.7 0 1 1037.68 684.36
  C 1036.85 686.12 1036.00 688.07 1036.15 690.59
  C 1036.34 693.68 1033.52 695.76 1032.28 698.85
  C 1031.49 700.83 1032.16 703.09 1032.14 704.93
  A 5.76 5.71 54.9 0 1 1031.84 706.70
  C 1030.34 711.30 1026.75 713.92 1024.42 718.04
  Q 1022.38 721.65 1019.50 727.77
  Q 1018.59 729.72 1018.41 731.96
  Q 1018.01 736.76 1013.00 739.55
  C 1009.87 741.29 1010.45 743.85 1008.99 746.21
  Q 1005.47 751.89 1000.73 755.56
  A 1.27 1.19 88.2 0 0 1000.43 755.90
  L 997.12 761.64
  A 3.97 3.93 -89.0 0 1 995.58 763.14
  C 989.11 766.66 984.47 769.08 980.29 774.81
  Q 976.90 779.46 971.06 782.74
  A 7.21 7.01 9.0 0 0 969.87 783.58
  L 956.58 795.13
  A 2.27 2.15 9.7 0 1 956.19 795.39
  Q 953.66 796.64 951.84 798.46
  C 948.18 802.11 944.08 805.01 939.24 806.21
  Q 938.88 806.30 936.51 807.74
  A 6.94 6.64 7.0 0 0 935.40 808.57
  C 932.37 811.35 930.90 813.04 927.31 813.74
  Q 923.10 814.57 920.43 816.92
  C 917.00 819.95 913.27 820.86 909.21 820.08
  Q 907.29 819.70 905.60 820.57
  C 902.15 822.35 898.90 822.96 895.54 824.22
  Q 886.90 827.46 885.64 828.06
  A 1.90 1.86 40.1 0 1 884.29 828.16
  L 877.06 825.95
  A 4.50 4.48 -51.7 0 0 873.48 826.38
  C 870.81 827.96 867.02 830.14 868.15 834.02
  Q 869.03 837.06 867.71 839.21
  Q 866.20 841.66 866.09 842.51
  C 865.44 847.60 867.36 851.08 869.82 856.17
  C 871.62 859.90 867.40 860.30 866.70 862.99
  Q 865.02 869.50 863.91 870.93
  Q 861.71 873.74 858.44 876.83
  A 1.45 1.43 -35.4 0 0 858.14 878.54
  L 859.99 882.21
  A 4.56 4.55 43.7 0 1 860.08 886.17
  L 856.72 893.62
  A 2.61 2.54 84.9 0 1 855.85 894.69
  Q 852.19 897.34 848.55 900.65
  C 846.49 902.53 843.88 901.50 841.40 902.27
  A 1.27 1.25 3.0 0 0 840.62 902.96
  L 839.60 905.23
  A 3.14 3.14 0.0 0 1 838.56 906.49
  Q 834.40 909.41 829.49 910.68
  A 3.37 3.35 -82.5 0 0 827.42 912.28
  C 825.21 916.19 822.31 920.01 818.25 921.65
  C 813.55 923.54 812.25 924.68 807.63 927.15
  Q 806.72 927.63 803.25 928.03
  A 2.86 2.76 32.0 0 0 802.78 928.13
  L 788.62 932.71
  A 3.22 2.93 17.9 0 0 787.98 933.00
  Q 782.78 936.02 778.90 936.93
  A 5.88 5.81 17.7 0 0 776.37 938.22
  L 773.30 940.89
  A 2.59 2.52 17.7 0 1 772.14 941.47
  Q 766.28 942.74 761.67 945.92
  C 758.19 948.32 755.91 948.12 751.80 948.05
  Q 751.06 948.04 748.88 948.82
  A 3.26 3.17 -75.8 0 0 747.71 949.54
  L 743.70 953.34
  A 3.24 3.22 -62.8 0 1 741.06 954.20
  Q 733.17 953.17 725.75 956.23
  Q 717.84 959.49 712.71 960.74
  A 1.16 1.14 -74.8 0 0 712.16 961.06
  L 711.16 962.13
  A 2.57 2.56 -65.6 0 1 709.02 962.94
  Q 707.44 962.77 705.30 963.49
  A 3.75 3.72 49.0 0 1 702.44 963.28
  C 699.21 961.62 694.10 961.72 690.19 963.08
  C 687.45 964.03 685.02 963.89 682.30 963.62
  A 3.92 3.89 34.2 0 0 680.16 964.02
  L 678.26 964.99
  A 1.16 1.15 -43.2 0 1 677.18 964.96
  L 675.68 964.09
  A 2.02 2.01 -30.1 0 0 674.69 963.83
  L 662.61 963.83
  A 7.49 7.45 -55.0 0 0 660.03 964.29
  L 657.32 965.29
  A 6.39 6.18 34.1 0 1 655.16 965.67
  L 644.94 965.67
  A 5.82 5.81 -35.1 0 1 642.98 965.33
  L 639.78 964.17
  A 3.14 3.09 -34.2 0 0 638.68 963.97
  L 613.37 963.65
  A 1.00 1.00 0.0 0 0 612.36 964.64
  C 612.30 969.37 611.90 971.60 612.58 976.08
  Q 614.27 987.14 616.00 997.42
  A 2.50 2.50 0.0 0 1 615.58 999.25
  Q 609.59 1007.78 607.72 1010.88
  C 605.54 1014.48 603.21 1015.58 599.81 1017.28
  C 598.05 1018.16 596.45 1016.50 594.91 1018.13
  Q 590.16 1023.15 587.46 1029.40
  Q 587.24 1029.90 585.08 1032.14
  A 1.68 1.58 -82.2 0 1 584.67 1032.47
  L 581.60 1034.34
  A 6.08 6.03 -88.0 0 0 579.75 1036.08
  Q 579.28 1036.74 571.79 1045.73
  Q 567.97 1050.32 563.24 1054.29
  C 559.52 1057.42 555.28 1062.01 552.24 1066.16
  Q 548.38 1071.43 542.30 1076.36
  A 6.13 5.82 -73.0 0 1 540.57 1077.34
  C 538.55 1078.08 536.58 1078.81 534.87 1080.36
  Q 531.47 1083.45 527.93 1084.53
  A 1.81 1.77 5.9 0 0 526.89 1085.36
  L 525.73 1087.35
  A 2.66 2.65 88.5 0 1 524.87 1088.26
  L 515.49 1094.32
  A 7.18 7.00 -68.9 0 1 513.61 1095.18
  Q 509.22 1096.45 508.25 1097.48
  C 502.90 1103.14 498.17 1107.44 491.51 1108.03
  Q 488.87 1108.26 487.31 1108.65
  C 482.96 1109.74 478.89 1110.09 474.44 1111.76
  A 3.12 3.08 -55.3 0 1 473.43 1111.95
  L 458.94 1112.29
  A 3.44 3.38 -54.9 0 0 457.85 1112.49
  Q 451.62 1114.68 444.49 1114.10
  A 3.13 3.13 0.0 0 0 442.84 1114.42
  L 426.21 1122.86
  A 3.26 2.22 -55.8 0 1 425.83 1123.01
  Q 421.04 1124.36 417.45 1126.86
  A 4.77 4.76 -62.5 0 1 414.72 1127.72
  L 407.42 1127.72
  A 2.63 2.58 32.7 0 0 406.37 1127.94
  L 402.21 1129.77
  A 2.13 1.95 -55.1 0 1 401.45 1129.94
  Q 395.57 1130.06 383.54 1134.55
  Q 378.36 1136.48 376.37 1138.39
  Q 369.74 1144.75 359.79 1147.84
  Q 356.62 1148.82 354.26 1146.55
  Q 350.36 1142.78 346.59 1138.96
  A 4.51 4.47 -83.4 0 1 345.93 1138.12
  L 341.96 1131.73
  A 1.88 1.79 -65.5 0 1 341.71 1131.01
  Q 341.36 1128.20 342.10 1126.01
  Q 343.33 1122.41 343.29 1121.57
  C 343.19 1119.12 344.99 1117.40 344.88 1115.01
  Q 344.72 1111.65 346.95 1107.94
  C 349.20 1104.19 348.74 1096.83 348.68 1091.49
  Q 348.63 1086.85 350.37 1082.24
  Q 351.53 1079.17 351.26 1073.99
  A 6.41 5.78 49.1 0 1 351.28 1073.00
  C 351.92 1067.03 354.38 1060.41 351.78 1054.16
  A 2.05 2.05 0.0 0 1 352.22 1051.92
  L 356.03 1048.09
  A 0.93 0.88 -16.8 0 0 356.27 1047.67
  Q 357.25 1043.74 357.85 1042.37
  Q 359.01 1039.70 359.11 1037.84
  Q 359.13 1037.46 361.49 1028.13
  A 5.21 5.20 -20.7 0 1 362.26 1026.43
  C 364.06 1023.79 365.15 1022.13 364.80 1019.04
  C 364.49 1016.25 365.04 1015.12 366.72 1013.46
  Q 367.40 1012.80 372.20 1008.10
  A 5.79 5.74 81.3 0 0 373.35 1006.52
  Q 374.36 1004.48 376.03 1002.29
  C 378.67 998.81 380.93 998.11 385.18 996.44
  Q 387.26 995.63 388.16 993.67
  Q 390.02 989.63 390.67 987.13
  A 3.22 3.17 -10.2 0 1 391.97 985.29
  Q 393.78 984.06 396.11 980.65
  A 12.00 11.77 -6.3 0 1 397.41 979.06
  Q 400.99 975.36 401.68 973.90
  Q 404.33 968.30 408.19 964.21
  A 11.25 11.12 -9.4 0 0 409.97 961.75
  Q 412.20 957.59 415.83 951.07
  Q 416.35 950.13 416.70 947.99
  A 1.76 1.76 0.0 0 0 415.38 946.00
  C 411.70 945.08 408.70 946.22 405.42 947.84
  A 3.13 3.11 -43.7 0 1 402.52 947.78
  C 399.09 945.89 394.82 943.53 390.43 943.73
  Q 386.90 943.89 384.06 942.94
  C 380.89 941.87 377.95 942.23 374.54 941.74
  C 371.95 941.36 369.32 938.67 366.62 938.11
  C 363.07 937.38 360.03 938.97 357.15 937.25
  Q 351.94 934.13 345.93 933.62
  A 2.59 2.36 -27.1 0 1 345.05 933.38
  L 339.57 930.67
  A 2.46 2.42 63.9 0 0 339.20 930.54
  L 335.44 929.54
  A 3.44 3.38 -19.0 0 1 334.39 929.04
  C 330.97 926.56 329.07 926.31 324.63 925.52
  A 3.89 3.75 60.1 0 1 323.87 925.30
  L 314.28 921.19
  A 3.01 2.87 -12.6 0 1 313.60 920.78
  Q 309.59 917.46 307.45 916.98
  Q 300.54 915.45 294.62 912.04
  A 13.32 13.24 -21.0 0 0 291.97 910.87
  C 284.51 908.52 278.06 905.25 272.60 898.97
  C 270.43 896.47 268.94 893.18 266.41 891.10
  Q 264.88 889.84 263.41 888.54
  A 1.48 1.43 -73.1 0 1 262.93 887.60
  Q 262.79 886.27 261.69 884.07
  C 260.32 881.36 260.73 878.05 262.15 875.67
  Q 263.05 874.17 262.87 872.66
  Q 262.46 869.12 263.99 865.57
  A 5.45 5.36 56.0 0 0 264.43 863.20
  C 264.30 859.06 265.11 853.15 263.35 847.98
  A 8.52 8.49 34.3 0 1 262.91 845.68
  Q 262.58 839.24 262.92 832.76
  Q 263.30 825.64 261.97 820.12
  A 4.12 4.06 48.5 0 1 262.10 817.73
  Q 262.89 815.56 263.04 813.06
  C 263.15 811.29 264.80 808.70 263.73 806.52
  Q 261.84 802.70 263.06 799.51
  C 264.54 795.62 265.08 791.16 262.73 787.40
  Q 261.95 786.16 261.34 784.82
  A 4.23 4.20 -42.8 0 1 261.50 780.97
  Q 264.30 776.07 261.47 769.74
  Q 260.81 768.28 261.16 766.67
  Q 262.13 762.19 261.55 758.71
  A 4.44 4.42 -37.6 0 1 261.89 756.15
  L 262.58 754.62
  A 3.24 3.22 -37.1 0 0 262.83 752.85
  Q 262.49 750.43 261.48 748.00
  C 260.59 745.86 261.60 744.78 262.61 743.05
  A 2.78 2.74 56.6 0 0 262.96 741.28
  Q 262.61 738.81 262.77 736.05
  C 262.95 733.00 261.45 730.67 262.17 727.65
  Q 262.62 725.80 262.71 724.33
  Q 263.18 716.52 262.25 710.92
  Q 261.14 704.19 261.03 700.47
  Q 260.54 682.99 260.91 674.01
  Q 261.01 671.63 262.13 669.68
  A 1.86 1.78 59.2 0 0 262.36 668.68
  Q 262.33 668.18 261.66 666.89
  C 260.73 665.10 260.92 663.04 262.24 661.48
  A 3.12 3.11 61.5 0 0 262.95 659.06
  L 261.50 648.07
  A 1.44 1.36 51.0 0 1 261.55 647.43
  L 262.43 644.55
  A 6.35 6.30 -36.7 0 0 262.71 642.69
  Q 262.70 638.61 264.06 633.97
  A 8.63 8.50 -37.2 0 0 264.39 631.69
  L 264.62 604.94
  A 2.78 2.69 58.7 0 1 264.87 603.84
  Q 266.51 600.41 266.88 596.18
  Q 267.01 594.68 268.19 593.70
  A 1.45 1.34 51.0 0 0 268.32 591.74
  C 265.47 588.17 268.02 583.36 265.20 579.26
  A 2.45 2.42 38.2 0 1 264.92 577.03
  L 266.41 573.04
  A 1.46 1.35 58.8 0 0 266.50 572.60
  L 267.11 559.09
  A 5.74 5.66 57.3 0 1 267.50 557.24
  L 268.70 554.19
  A 0.75 0.72 -34.4 0 0 268.76 553.90
  Q 269.09 542.52 268.86 540.07
  C 268.57 536.95 270.79 534.32 268.37 531.10
  C 266.06 528.02 266.43 524.38 268.27 521.28
  C 269.74 518.80 268.34 516.22 267.35 513.53
  A 4.41 4.39 -43.2 0 1 267.46 510.17
  L 268.39 508.11
  A 5.44 5.37 57.5 0 0 268.87 505.88
  Q 268.88 494.13 268.85 485.50
  Q 268.84 483.78 268.05 482.63
  A 3.88 3.38 -51.4 0 1 267.89 478.97
  C 269.64 475.29 270.65 473.25 270.68 469.73
  Q 270.71 466.39 270.75 465.94
  A 9.15 9.03 -31.6 0 1 271.12 464.43
  L 273.32 457.84
  A 4.61 4.57 -10.2 0 1 274.82 455.70
  L 277.51 453.56
  A 1.10 1.06 82.2 0 0 277.87 453.07
  Q 279.38 449.17 280.26 448.25
  Q 282.70 445.71 284.21 443.32
  C 286.77 439.26 289.18 437.18 292.87 433.42
  A 6.00 5.90 74.2 0 0 294.42 430.59
  Q 295.97 423.84 302.86 420.53
  C 304.79 419.61 305.70 418.88 307.76 420.22
  Q 308.50 420.70 308.99 420.74
  A 1.10 1.09 -65.5 0 0 309.83 420.42
  Q 311.44 418.80 309.32 415.65
  A 2.28 2.28 0.0 0 1 309.24 413.24
  L 310.15 411.67
  A 3.18 3.14 61.1 0 0 310.55 410.25
  Q 310.69 405.08 310.65 396.26
  C 310.64 393.35 310.72 391.58 309.33 389.55
  C 307.67 387.14 309.62 385.10 309.16 382.33
  Q 308.52 378.49 308.46 372.23
  C 308.44 369.70 310.25 368.01 310.42 366.19
  Q 310.81 362.10 309.91 360.65
  Q 306.80 355.61 310.19 351.22
  A 2.49 2.14 49.7 0 0 310.21 348.57
  Q 309.62 347.58 309.28 346.63
  A 1.81 1.77 45.7 0 1 309.28 345.44
  L 310.36 342.41
  A 3.85 3.73 -35.6 0 0 310.58 341.20
  L 310.81 332.56
  A 2.71 2.68 -67.5 0 0 309.99 330.55
  Q 307.29 327.93 308.60 326.11
  Q 311.37 322.26 312.57 319.30
  C 313.26 317.57 312.74 315.61 311.82 313.48
  Q 310.15 309.60 311.48 306.03
  Q 313.07 301.75 312.97 301.28
  Q 312.76 300.35 314.08 297.36
  A 5.40 5.38 -36.9 0 0 314.49 294.51
  L 313.26 284.64
  A 3.32 3.28 50.3 0 1 313.38 283.25
  C 313.75 282.00 315.60 281.01 316.16 279.28
  C 318.13 273.28 319.71 269.51 318.29 264.63
  Q 317.70 262.64 318.61 260.66
  C 322.14 252.97 323.07 248.07 325.51 237.17
  A 1.76 1.62 -22.1 0 1 325.83 236.49
  L 327.38 234.53
  A 5.07 5.01 71.2 0 0 328.34 232.55
  L 329.36 228.12
  A 4.29 4.25 -22.1 0 1 329.94 226.76
  Q 332.32 223.08 332.40 221.96
  Q 332.87 215.46 337.67 210.19
  Q 338.46 209.32 338.75 206.78
  C 339.32 201.68 341.08 196.45 342.48 192.02
  A 1.98 1.59 -38.8 0 0 342.55 191.70
  L 343.36 186.45
  A 0.98 0.97 -5.1 0 1 344.01 185.68
  C 347.23 184.59 349.83 183.57 350.45 179.73
  Q 351.27 174.66 352.45 172.68
  Q 352.68 172.29 356.01 167.53
  Q 358.85 163.46 358.80 157.26
  C 358.78 154.46 362.66 151.96 364.85 150.14
  A 3.31 3.28 83.1 0 0 365.71 149.03
  C 367.66 145.02 369.86 141.32 371.58 137.18
  Q 372.97 133.83 377.05 131.30
  Q 380.51 129.17 379.97 125.31
  A 2.44 2.44 0.0 0 1 381.20 122.84
  Q 386.44 119.92 386.85 119.61
  C 388.48 118.38 388.74 117.51 388.20 115.32
  Q 387.36 111.90 389.96 108.78
  C 391.18 107.32 393.46 106.71 394.76 105.26
  Q 399.86 99.64 401.71 97.10
  A 14.75 14.66 -89.2 0 1 405.14 93.75
  Q 410.90 89.72 417.24 83.25
  C 419.62 80.82 423.85 77.69 426.58 77.09
  Q 429.59 76.42 433.25 75.90
  A 2.12 2.08 57.6 0 1 434.71 76.24
  C 438.17 78.55 441.25 79.99 443.67 83.74
  A 2.08 2.05 -61.0 0 1 443.99 84.88
  Q 443.96 86.98 443.93 87.82
  C 443.81 90.95 445.33 94.31 447.21 96.81
  A 1.87 1.86 42.8 0 1 447.30 98.92
  C 446.20 100.69 445.68 101.79 445.76 103.80
  Q 446.11 112.51 448.67 120.96
  A 7.84 7.46 23.0 0 0 449.31 122.44
  Q 451.55 126.36 451.60 127.23
  Q 451.89 132.67 452.70 134.80
  C 453.79 137.65 457.23 140.13 458.11 143.99
  Q 461.02 156.69 466.76 168.05
  Q 469.49 173.47 470.39 175.32
  A 1.81 1.80 68.4 0 0 472.56 176.26
  L 477.15 174.81
  A 2.16 2.15 38.0 0 1 477.97 174.71
  Q 483.21 175.01 484.71 174.76
  Q 490.53 173.78 503.51 169.06
  A 1.42 1.33 32.8 0 1 503.84 169.00
  L 510.07 168.76
  A 1.46 1.35 31.2 0 0 510.51 168.67
  L 514.33 167.32
  A 6.52 6.48 34.2 0 1 516.31 166.95
  Q 525.57 166.68 528.46 166.89
  Q 529.46 166.96 531.74 168.44
  A 2.10 2.09 64.3 0 0 532.68 168.77
  C 534.40 168.96 535.81 167.45 537.53 167.16
  Q 544.46 166.00 548.80 166.30
  A 2.73 2.68 33.2 0 0 550.25 166.01
  L 558.42 161.87
  A 2.16 2.15 44.6 0 1 560.37 161.86
  L 563.19 163.26
  A 2.52 2.42 -26.2 0 0 563.91 163.49
  C 570.74 164.43 573.22 165.41 578.48 162.94
  Q 579.22 162.60 582.31 162.80
  A 3.66 3.54 39.3 0 0 583.41 162.71
  L 595.27 159.86
  A 2.57 2.52 -36.7 0 1 597.10 160.11
  Q 599.53 161.47 599.86 161.62
  C 603.30 163.18 604.92 162.81 608.18 162.18
  A 7.97 7.87 45.4 0 1 611.38 162.22
  C 615.19 163.06 617.67 162.51 621.81 163.57
  Q 624.42 164.25 626.91 163.36
  A 3.35 3.31 43.9 0 1 629.11 163.33
  C 631.58 164.14 634.30 165.00 636.49 164.21
  Q 639.96 162.94 640.75 162.90
  C 643.88 162.71 647.90 164.41 650.99 164.52
  C 652.78 164.59 655.17 164.51 657.61 165.14
  Q 666.46 167.40 670.71 169.85
  A 0.76 0.75 67.4 0 0 670.97 169.96
  L 682.37 172.60
  A 2.12 2.11 -76.9 0 0 684.91 171.01
  L 685.37 169.00
  A 6.00 5.97 -23.5 0 1 686.00 167.41
  Q 690.50 159.62 691.23 157.49
  C 693.95 149.58 696.07 144.33 696.92 139.34
  Q 697.45 136.25 700.42 133.71
  C 703.51 131.07 702.65 127.09 702.95 123.17
  Q 703.04 121.95 704.90 119.43
  Q 706.26 117.58 706.80 115.31
  Q 709.03 105.98 708.88 98.12
  A 1.44 1.43 -58.8 0 0 708.72 97.46
  L 707.60 95.24
  A 2.43 2.41 -50.0 0 1 707.45 93.41
  Q 708.50 90.20 710.62 87.43
  Q 711.77 85.95 711.15 84.22
  C 709.02 78.25 715.76 74.92 720.93 71.79
  A 1.14 1.13 -53.4 0 1 721.78 71.66
  L 729.64 73.55
  A 1.68 1.62 67.9 0 1 730.18 73.79
  L 736.29 77.84
  A 1.69 1.60 83.4 0 1 736.60 78.10
  Q 742.99 84.91 748.96 89.13
  A 20.56 20.38 -1.9 0 1 752.91 92.79
  Q 759.17 100.35 761.66 102.27
  C 765.68 105.37 766.37 106.85 767.05 111.58
  Q 767.42 114.14 768.29 114.96
  C 770.80 117.30 774.23 119.03 775.07 122.29
  Q 775.83 125.22 777.66 126.85
  C 779.44 128.44 781.42 130.15 782.95 133.14
  Q 784.48 136.15 788.84 144.17
  C 790.30 146.88 791.33 147.52 793.86 149.45
  A 4.80 4.80 0.0 0 1 795.74 153.07
  C 795.96 158.50 797.01 161.06 800.18 165.67
  Q 802.28 168.71 802.90 170.19
  C 804.21 173.30 804.41 177.46 806.83 180.09
  A 0.67 0.51 74.3 0 0 807.03 180.24
  L 810.26 181.69
  A 1.73 1.63 -1.7 0 1 810.99 182.34
  Q 811.85 183.78 812.02 187.24
  A 1.73 1.68 -55.5 0 0 812.09 187.65
  L 817.26 205.50
  A 2.72 2.71 -68.1 0 0 817.51 206.09
  L 819.73 209.85
  A 12.08 11.94 21.2 0 1 820.87 212.40
  Q 822.72 218.21 824.43 222.23
  Q 826.03 225.99 826.51 227.73
  C 827.21 230.29 828.85 232.52 829.52 234.97
  Q 831.68 242.88 832.80 247.77
  Q 834.07 253.28 836.66 257.84
  Q 837.38 259.10 836.72 260.49
  Q 835.61 262.87 836.22 265.76
  Q 837.82 273.41 838.48 275.26
  Q 838.78 276.09 840.89 278.64
  A 1.93 1.89 31.2 0 1 841.30 280.24
  Q 840.79 282.78 841.31 284.45
  A 2.78 2.76 51.0 0 1 841.09 286.61
  Q 839.33 289.80 840.81 293.67
  Q 843.76 301.41 844.05 305.01
  C 844.27 307.78 841.63 310.88 842.30 313.75
  Q 843.33 318.08 845.25 320.70
  C 847.43 323.66 844.78 325.75 844.08 328.05
  A 5.54 5.52 -38.6 0 0 843.92 329.45
  L 844.02 337.85
  A 2.19 2.17 -58.8 0 0 844.24 338.76
  C 845.10 340.50 846.18 342.32 845.01 343.78
  C 842.76 346.57 845.56 348.01 845.88 350.45
  Q 846.47 354.87 844.77 357.12
  C 842.06 360.69 845.55 363.43 845.95 366.99
  Q 846.71 373.85 845.26 378.88
  A 2.07 2.07 0.0 0 0 845.29 380.15
  C 845.95 382.12 846.38 384.29 845.22 386.03
  Q 844.70 386.79 844.29 387.79
  A 2.57 2.49 56.7 0 0 844.11 388.73
  L 844.11 405.55
  A 3.71 3.54 -56.4 0 0 844.33 406.80
  L 845.57 410.22
  A 1.79 1.77 -32.4 0 1 845.14 412.11
  Q 842.41 414.77 845.44 416.77
  Q 851.68 420.87 856.65 425.67
  A 3.95 3.86 8.1 0 1 857.38 426.62
  Q 859.75 430.98 859.96 432.53
  Q 860.32 435.27 860.82 437.15
  A 4.44 4.39 -70.3 0 0 861.45 438.50
  C 863.34 441.17 866.06 443.98 868.03 448.47
  A 1.07 1.07 0.0 0 1 867.91 449.54
  Q 865.72 452.52 865.06 454.76
  Z
  M 734.31 106.16
  A 0.99 0.98 -62.8 0 0 732.76 106.66
  Q 732.11 108.84 731.14 110.74
  C 729.58 113.82 729.71 118.41 729.83 120.36
  A 1.45 1.43 -38.9 0 1 729.77 120.89
  L 728.28 125.99
  A 5.32 5.03 54.3 0 0 728.06 127.62
  L 728.15 131.63
  A 1.93 1.85 59.7 0 1 727.91 132.63
  L 723.44 140.79
  A 3.93 3.93 0.0 0 0 722.95 142.44
  Q 722.52 148.00 719.32 153.92
  A 3.42 3.36 82.7 0 1 718.66 154.79
  Q 716.47 156.86 715.49 157.74
  C 713.33 159.71 714.10 163.02 713.92 164.87
  A 5.36 5.31 61.8 0 1 713.33 166.85
  L 710.27 172.76
  A 2.66 2.52 62.9 0 0 710.00 173.68
  Q 709.90 174.80 710.36 175.92
  A 1.35 1.35 0.0 0 1 709.98 177.45
  Q 706.03 180.80 703.19 184.91
  C 701.75 187.00 696.63 189.70 693.53 192.44
  Q 690.78 194.87 690.49 195.03
  A 5.57 1.82 -25.9 0 0 689.83 195.42
  Q 689.04 195.92 686.00 195.95
  C 681.84 196.00 679.39 196.02 675.73 194.52
  Q 672.56 193.22 667.99 194.05
  A 1.49 1.40 -37.8 0 1 667.26 193.98
  L 649.45 187.51
  A 1.74 1.73 37.8 0 0 647.91 187.70
  Q 644.60 189.93 642.37 192.86
  Q 641.51 193.99 641.67 196.90
  A 2.46 2.21 -41.9 0 1 641.59 197.64
  L 639.41 205.53
  A 1.22 1.17 75.4 0 1 639.12 206.05
  L 636.22 209.17
  A 1.44 1.39 72.4 0 0 635.84 209.94
  L 635.09 214.52
  A 1.38 1.37 88.1 0 1 634.05 215.64
  C 627.87 217.14 625.56 221.83 619.41 215.72
  A 2.75 2.68 -81.2 0 1 618.89 214.99
  Q 616.33 209.81 615.86 208.37
  Q 613.87 202.22 613.17 200.70
  A 1.99 1.98 32.8 0 1 613.01 199.97
  L 612.68 185.75
  A 1.75 1.74 78.8 0 0 610.31 184.16
  L 607.83 185.12
  A 0.78 0.78 0.0 0 1 607.29 185.12
  L 604.13 183.98
  A 1.48 1.35 52.4 0 0 603.56 183.88
  L 593.15 184.12
  A 1.34 1.34 0.0 0 0 591.86 185.63
  Q 592.56 191.11 590.91 194.87
  C 589.84 197.31 590.41 199.94 589.31 202.42
  A 3.07 3.05 46.6 0 0 589.25 204.75
  L 589.61 205.68
  A 1.94 1.94 0.0 0 1 589.47 207.37
  Q 586.19 212.83 586.11 214.08
  Q 585.82 218.62 584.16 222.84
  Q 583.80 223.75 584.15 228.09
  A 4.50 4.43 52.5 0 1 583.93 229.86
  C 582.96 232.75 581.07 239.51 578.80 242.43
  Q 576.02 246.02 571.97 248.51
  A 2.98 2.94 32.9 0 1 570.04 248.91
  C 564.66 248.13 562.30 247.78 559.46 243.66
  Q 558.98 242.96 558.88 240.36
  C 558.76 237.19 557.42 235.92 555.29 233.57
  A 3.12 3.11 24.3 0 1 554.49 231.46
  L 554.58 222.97
  A 0.96 0.88 -56.5 0 0 554.52 222.59
  C 552.75 218.06 551.77 211.86 553.45 207.39
  A 2.51 2.46 51.7 0 0 553.58 206.17
  C 553.26 203.99 550.68 202.58 551.47 200.21
  C 552.76 196.39 552.63 191.83 552.94 188.59
  A 2.18 2.18 0.0 0 0 550.88 186.21
  Q 545.48 185.92 539.45 187.43
  A 1.18 1.15 -82.2 0 0 538.69 188.02
  C 536.47 192.11 540.05 199.24 536.95 202.24
  A 3.37 3.12 56.5 0 0 536.35 205.92
  Q 538.27 210.20 538.03 214.23
  A 3.94 3.91 62.8 0 1 537.45 216.06
  C 535.49 219.17 532.61 222.33 532.21 226.18
  A 2.18 2.17 -5.2 0 1 530.65 228.04
  Q 528.52 228.66 526.90 230.23
  A 1.97 1.95 22.2 0 1 525.55 230.79
  Q 525.33 230.80 520.00 229.97
  Q 510.90 228.57 509.09 220.15
  L 507.89 214.59
  Q 506.75 211.48 503.70 207.78
  A 4.83 4.82 26.5 0 1 502.60 204.50
  L 502.76 200.95
  A 1.82 1.81 -57.2 0 0 502.57 200.06
  Q 501.07 197.06 500.86 193.58
  A 1.40 1.40 0.0 0 0 499.19 192.28
  Q 494.60 193.20 489.26 192.51
  C 485.33 192.01 483.47 194.29 480.33 195.86
  Q 478.39 196.84 473.26 199.53
  Q 472.50 199.93 469.70 199.68
  C 468.09 199.53 467.09 199.76 465.74 200.04
  A 3.14 3.13 60.6 0 1 462.99 199.27
  L 452.13 189.13
  A 8.00 7.05 48.2 0 1 451.34 188.32
  L 446.70 182.98
  A 4.00 3.99 14.0 0 1 446.00 181.82
  L 440.91 168.64
  A 1.59 1.52 -59.7 0 1 440.80 168.18
  L 440.45 164.22
  A 3.96 3.94 -72.7 0 0 439.07 161.57
  C 434.93 158.07 432.33 151.74 431.58 146.73
  C 431.09 143.46 428.74 139.83 427.35 136.36
  A 5.99 5.89 -56.1 0 1 426.93 134.11
  Q 426.98 130.25 425.43 125.96
  A 5.65 5.62 33.0 0 1 425.12 124.52
  L 424.69 118.93
  A 5.63 5.52 -60.1 0 0 424.21 117.08
  Q 422.67 113.71 422.17 111.64
  A 1.72 1.67 -22.7 0 0 419.63 110.64
  Q 419.33 110.82 419.12 111.38
  Q 418.73 112.45 417.75 116.84
  A 2.09 2.05 72.9 0 1 417.27 117.77
  L 414.46 120.94
  A 3.54 3.30 80.9 0 0 413.97 121.67
  Q 412.08 125.49 408.47 128.77
  A 7.93 7.85 -4.1 0 0 407.35 130.05
  C 403.77 135.10 402.05 136.86 399.42 141.49
  Q 397.57 144.77 394.69 146.79
  A 4.78 4.66 -1.6 0 0 393.43 148.09
  C 390.73 152.24 389.44 153.94 389.82 158.01
  A 1.96 1.94 -26.5 0 1 389.30 159.54
  L 381.48 167.92
  A 4.18 4.14 -17.3 0 0 380.48 169.80
  C 379.22 175.16 376.20 180.02 372.85 184.72
  A 5.95 5.86 69.4 0 0 371.92 186.81
  L 371.45 188.89
  A 7.57 7.40 67.3 0 1 370.60 191.03
  Q 370.11 191.91 366.46 198.20
  Q 364.94 200.82 362.22 209.07
  A 6.20 6.17 52.1 0 0 361.93 211.45
  L 362.10 213.58
  A 2.52 2.48 58.8 0 1 361.75 215.06
  Q 360.32 217.48 356.70 226.97
  Q 355.74 229.48 354.79 231.09
  Q 353.05 234.04 352.22 235.64
  A 3.36 3.30 -31.5 0 0 351.85 237.12
  L 351.78 240.06
  A 7.54 7.54 0.0 0 1 351.35 242.45
  Q 351.11 243.05 348.02 247.72
  Q 345.71 251.22 345.43 256.65
  A 1.67 1.64 59.8 0 1 345.28 257.24
  L 343.05 262.01
  A 6.67 6.36 64.5 0 0 342.52 263.63
  C 341.98 266.34 342.22 269.98 341.28 272.77
  Q 340.66 274.62 341.19 276.56
  C 341.85 278.97 340.60 280.72 339.07 282.87
  C 337.18 285.53 338.55 288.09 337.13 291.23
  Q 335.34 295.18 336.64 299.61
  C 337.20 301.55 336.07 303.28 335.19 305.08
  A 1.53 1.48 47.3 0 0 335.16 306.31
  Q 335.71 307.60 335.77 308.63
  A 2.64 2.59 -31.7 0 1 335.41 310.09
  C 333.23 313.76 333.91 317.97 333.84 324.79
  A 7.78 7.76 57.2 0 1 333.20 327.78
  Q 331.46 331.79 332.26 337.11
  A 2.38 2.37 56.0 0 1 331.97 338.61
  L 331.08 340.15
  A 3.30 3.28 52.1 0 0 330.77 342.71
  L 334.01 353.87
  A 2.13 2.11 65.6 0 1 333.13 356.23
  C 330.59 357.86 329.90 359.24 329.99 362.29
  Q 330.15 367.17 329.71 369.66
  C 329.22 372.40 330.89 375.16 329.28 378.23
  A 1.53 1.50 -38.3 0 0 329.15 379.25
  Q 330.60 385.63 330.38 390.26
  Q 329.86 401.14 330.12 404.38
  Q 330.24 405.76 331.43 409.20
  A 3.89 3.83 45.9 0 1 331.41 411.76
  Q 330.48 414.37 331.83 416.72
  A 0.66 0.64 53.4 0 1 331.72 417.52
  Q 330.46 418.75 330.38 420.47
  A 2.28 2.24 -62.5 0 0 330.81 421.89
  Q 333.45 425.45 333.62 426.91
  Q 333.71 427.68 333.91 431.60
  A 5.14 5.14 0.0 0 0 336.38 435.73
  L 352.73 445.60
  A 3.60 3.55 69.3 0 0 353.49 445.95
  Q 357.48 447.27 360.73 449.61
  A 3.80 3.76 -17.0 0 0 361.66 450.10
  Q 364.72 451.17 377.19 456.58
  C 381.66 458.52 384.92 460.54 390.06 461.08
  Q 392.13 461.30 393.82 462.58
  Q 398.90 466.40 405.78 466.77
  C 410.94 467.04 413.49 471.56 416.89 473.59
  A 4.89 4.79 66.4 0 0 418.25 474.14
  Q 425.90 475.95 434.03 479.72
  Q 435.63 480.46 442.80 480.95
  Q 444.65 481.07 451.35 484.02
  A 1.37 1.21 56.6 0 0 451.76 484.13
  L 462.13 485.15
  A 0.40 0.35 -30.1 0 1 462.28 485.18
  C 464.41 485.90 465.98 487.73 468.01 488.61
  C 474.74 491.50 481.67 492.74 489.09 492.59
  Q 493.54 492.51 497.40 493.97
  C 499.26 494.67 501.56 493.51 503.70 494.14
  C 507.45 495.24 510.59 494.43 514.08 495.72
  C 517.81 497.10 522.30 496.90 526.10 496.86
  Q 528.15 496.84 530.24 497.78
  C 533.78 499.38 536.53 497.24 539.53 500.20
  A 1.39 1.39 0.0 0 0 541.48 500.20
  Q 543.86 497.84 546.87 497.40
  C 551.42 496.74 555.62 496.82 560.85 496.70
  A 11.98 11.91 37.7 0 0 563.18 496.41
  C 565.92 495.78 568.04 495.10 571.23 494.93
  Q 577.98 494.60 579.06 494.52
  A 9.07 9.00 32.9 0 0 581.43 494.02
  Q 584.86 492.79 588.76 492.36
  A 7.62 7.61 28.5 0 0 591.36 491.59
  Q 595.83 489.32 601.38 488.58
  C 603.77 488.26 606.61 485.85 609.09 487.98
  C 611.23 489.81 613.76 487.64 615.89 487.22
  Q 620.00 486.40 624.59 485.19
  A 10.41 10.10 -52.2 0 1 626.92 484.86
  Q 637.37 484.60 640.74 484.51
  Q 643.32 484.45 649.60 482.34
  A 19.83 18.98 -57.6 0 1 652.65 481.59
  Q 658.22 480.70 661.42 479.17
  Q 665.12 477.40 666.14 477.11
  C 668.21 476.53 671.52 477.24 673.47 475.96
  Q 678.01 472.97 679.11 472.83
  Q 681.14 472.57 684.88 472.62
  A 2.44 2.29 -52.0 0 0 685.59 472.51
  L 689.75 471.18
  A 9.02 8.57 32.4 0 1 691.79 470.78
  Q 695.18 470.52 695.89 469.91
  Q 700.59 465.88 705.78 464.77
  C 715.13 462.78 720.10 461.92 727.38 458.14
  Q 733.93 454.74 741.11 454.10
  C 744.04 453.83 745.71 452.09 747.95 450.60
  A 5.67 5.66 19.6 0 1 749.41 449.91
  C 753.02 448.82 757.52 448.37 761.06 446.22
  A 9.00 8.84 22.0 0 1 763.59 445.17
  Q 770.25 443.53 776.18 439.92
  A 7.54 7.53 21.1 0 1 778.10 439.07
  Q 778.16 439.05 785.13 436.38
  C 787.16 435.60 788.47 435.59 790.54 435.91
  Q 792.04 436.15 793.03 435.13
  Q 794.96 433.13 797.32 432.10
  Q 803.98 429.20 806.73 428.26
  A 4.94 4.78 -76.2 0 0 808.67 427.04
  C 811.49 424.14 814.70 423.37 819.52 422.49
  Q 823.00 421.85 824.08 417.79
  C 824.57 415.91 822.94 413.39 823.51 411.91
  Q 823.91 410.87 823.43 407.51
  Q 823.10 405.24 824.35 402.79
  A 2.67 2.60 -32.9 0 0 824.63 401.57
  L 824.31 379.27
  A 0.88 0.84 65.0 0 1 824.49 378.74
  Q 826.05 376.78 825.55 375.48
  Q 824.21 372.01 824.70 369.89
  Q 825.25 367.45 824.84 365.76
  Q 824.29 363.57 824.47 356.37
  A 2.20 2.14 32.9 0 0 824.24 355.36
  Q 823.29 353.44 821.77 352.06
  A 2.97 2.97 0.0 0 1 821.08 348.56
  C 822.57 345.49 822.37 342.25 824.18 339.31
  A 2.31 2.30 -42.6 0 0 824.28 337.06
  L 823.27 335.08
  A 3.44 3.41 31.1 0 1 822.90 333.62
  L 822.75 327.12
  A 1.60 1.57 -57.3 0 0 822.62 326.49
  L 821.19 323.03
  A 1.59 1.52 -59.7 0 1 821.08 322.57
  Q 820.76 319.08 820.55 311.41
  C 820.50 309.54 820.03 307.85 819.37 306.03
  A 4.61 4.57 37.8 0 1 819.12 304.12
  C 819.27 302.44 819.44 300.71 818.68 299.26
  C 817.16 296.40 818.61 295.91 818.88 293.21
  A 2.28 2.22 -49.0 0 0 818.84 292.48
  L 816.37 280.54
  A 2.87 2.55 32.2 0 0 816.21 279.99
  C 815.49 278.23 812.68 274.90 813.64 272.40
  C 814.45 270.31 812.56 267.36 812.61 264.93
  Q 812.71 259.71 810.70 255.83
  Q 809.47 253.47 809.07 251.21
  C 808.19 246.24 805.45 241.89 803.78 238.35
  A 9.00 8.60 28.8 0 1 803.08 236.13
  Q 802.21 230.96 800.35 227.33
  Q 795.62 218.12 793.07 209.65
  A 1.41 1.40 -56.0 0 1 793.00 209.28
  L 792.79 206.52
  A 5.39 5.31 -56.7 0 0 792.55 205.31
  Q 789.68 196.04 785.25 188.86
  C 783.91 186.70 783.28 184.86 782.52 182.53
  A 11.83 11.37 -72.1 0 0 781.09 179.59
  Q 778.01 175.06 774.96 167.77
  C 772.80 162.60 770.55 160.54 766.44 156.98
  A 4.49 4.48 -71.0 0 1 764.89 153.79
  Q 764.64 148.74 761.20 143.88
  A 3.82 3.24 8.2 0 0 760.66 143.27
  Q 757.70 140.55 757.21 139.79
  Q 751.26 130.42 745.06 123.53
  C 741.08 119.11 737.29 113.54 735.92 108.60
  Q 735.50 107.10 734.31 106.16
  Z
  M 315.63 466.71
  L 316.16 470.67
  A 2.10 2.06 25.3 0 0 316.48 471.54
  C 319.58 476.31 324.67 476.46 327.59 479.38
  Q 330.82 482.60 334.31 485.69
  C 337.12 488.17 340.43 488.46 343.01 489.97
  Q 347.18 492.41 352.34 493.18
  A 3.89 3.88 -19.3 0 1 354.38 494.16
  C 357.87 497.37 363.92 501.25 369.45 502.84
  Q 375.45 504.55 379.02 508.29
  C 381.92 511.33 387.06 510.78 390.93 510.81
  A 5.16 5.13 63.1 0 1 393.87 511.78
  C 396.98 514.01 399.93 515.54 404.24 517.03
  Q 409.28 518.77 412.84 520.84
  C 415.34 522.29 419.17 523.79 421.20 524.31
  Q 429.53 526.45 439.27 528.50
  A 9.90 9.88 -23.1 0 1 442.48 529.79
  L 450.52 534.79
  A 4.90 4.87 -20.1 0 0 451.67 535.32
  C 456.18 536.75 460.97 536.93 466.36 537.97
  C 470.18 538.71 472.88 538.73 476.10 539.15
  A 8.04 7.96 59.8 0 1 478.13 539.70
  Q 483.67 542.00 485.02 542.44
  Q 487.38 543.20 489.24 542.50
  A 1.86 1.84 2.5 0 0 490.24 541.59
  L 493.62 534.81
  A 0.94 0.89 77.1 0 1 493.75 534.59
  C 495.61 531.99 498.66 528.48 497.84 526.39
  A 1.16 1.16 0.0 0 0 497.13 525.72
  Q 489.66 523.20 484.30 527.33
  A 1.80 1.79 -49.2 0 1 482.35 527.48
  Q 480.42 526.43 478.44 526.43
  C 475.53 526.43 472.81 525.86 470.12 525.08
  A 7.49 7.03 66.1 0 1 468.51 524.40
  Q 465.48 522.68 464.35 522.39
  Q 457.39 520.65 447.94 517.28
  A 8.16 8.14 72.6 0 1 446.05 516.29
  Q 440.98 512.73 434.87 511.75
  Q 432.57 511.38 431.58 509.41
  C 429.35 504.95 422.33 502.44 418.05 501.86
  C 415.00 501.44 412.13 500.53 410.69 498.84
  Q 405.12 492.33 400.86 490.37
  Q 398.81 489.43 390.17 487.48
  A 3.30 3.26 -18.8 0 1 388.81 486.82
  L 385.15 483.85
  A 9.03 9.00 75.3 0 0 382.80 482.47
  Q 380.04 481.36 375.43 478.54
  Q 374.53 478.00 371.12 477.75
  A 4.88 4.85 60.0 0 1 369.35 477.27
  Q 357.73 471.56 353.54 469.63
  C 349.99 468.00 347.04 465.89 342.53 463.12
  A 0.45 0.12 14.9 0 0 342.46 463.08
  L 328.22 456.66
  A 2.90 2.88 43.4 0 0 325.72 456.72
  L 322.30 458.45
  A 0.85 0.84 72.7 0 1 321.08 457.81
  C 320.48 453.56 317.50 450.90 314.43 448.39
  Q 313.98 448.02 313.76 447.45
  Q 313.49 446.72 313.16 446.52
  A 2.55 2.19 -49.4 0 0 310.32 446.96
  C 306.69 450.29 301.58 458.38 305.47 463.05
  C 308.39 466.55 310.61 467.06 314.98 466.24
  A 0.55 0.55 0.0 0 1 315.63 466.71
  Z
  M 559.66 526.01
  Q 559.35 526.98 559.84 528.15
  Q 561.62 532.46 566.00 538.46
  C 569.21 542.87 574.53 548.02 580.41 546.12
  Q 582.97 545.29 582.99 545.29
  A 20.39 16.96 -8.6 0 1 585.86 545.04
  L 609.83 544.49
  A 3.58 3.21 34.1 0 0 610.57 544.39
  C 612.21 543.97 613.73 542.94 616.42 543.79
  C 619.57 544.79 620.55 543.01 623.26 542.91
  Q 629.58 542.67 637.40 541.06
  A 9.11 8.91 42.3 0 1 640.41 540.95
  C 643.57 541.36 647.43 541.65 650.41 539.98
  A 6.32 6.31 27.9 0 1 652.89 539.22
  C 658.84 538.71 663.98 538.90 669.67 537.60
  Q 675.53 536.26 677.80 535.99
  C 681.08 535.61 682.82 533.17 686.33 533.07
  Q 688.19 533.01 691.62 532.10
  Q 694.01 531.47 698.04 531.43
  A 1.13 1.08 35.0 0 0 698.37 531.38
  L 706.38 529.21
  A 11.62 11.39 -53.2 0 1 708.98 528.81
  Q 716.70 528.49 723.04 526.35
  C 726.84 525.07 729.91 524.65 733.93 523.14
  C 735.61 522.51 737.74 522.39 739.36 521.95
  A 2.91 2.87 14.0 0 0 740.68 521.17
  Q 743.01 518.81 747.98 516.65
  A 1.56 1.55 54.8 0 1 749.67 516.95
  C 753.25 520.35 757.84 515.33 760.19 514.21
  A 4.03 3.59 -62.4 0 1 760.93 513.93
  L 772.52 510.87
  A 1.62 0.96 -20.1 0 1 772.74 510.82
  Q 777.35 510.17 778.01 509.66
  Q 782.71 506.03 788.66 504.05
  A 7.05 6.98 15.7 0 0 790.97 502.77
  Q 793.26 500.88 798.92 496.17
  Q 799.81 495.43 803.78 494.08
  A 3.99 3.96 14.2 0 0 805.20 493.24
  L 810.72 488.11
  A 1.78 1.71 13.5 0 1 811.37 487.73
  L 817.65 485.79
  A 7.50 7.47 12.8 0 0 820.92 483.74
  L 828.67 475.43
  A 2.25 2.24 18.7 0 1 830.10 474.73
  C 833.34 474.45 836.56 474.48 838.00 471.74
  Q 839.94 468.07 841.45 461.92
  A 3.64 3.62 44.8 0 0 841.44 460.18
  Q 840.86 457.91 842.29 456.15
  A 1.67 1.66 56.7 0 0 842.60 454.62
  L 840.65 447.86
  A 1.86 1.86 0.0 0 0 837.50 447.10
  L 830.52 454.59
  A 2.90 2.85 -75.4 0 1 829.15 455.41
  Q 826.62 456.07 824.95 456.98
  Q 818.34 460.57 813.97 464.77
  A 3.21 3.20 23.7 0 1 811.68 465.66
  Q 807.19 465.55 803.02 467.50
  Q 802.03 467.96 798.61 467.40
  A 2.47 2.24 -41.4 0 0 797.96 467.39
  L 792.80 468.07
  A 3.29 3.23 -64.0 0 0 791.53 468.52
  Q 787.35 471.07 782.11 472.00
  C 778.27 472.68 776.13 474.97 771.72 474.34
  Q 768.49 473.88 765.63 475.39
  C 763.61 476.46 761.30 475.73 759.15 476.75
  Q 756.46 478.03 753.95 480.64
  A 3.23 3.23 0.0 0 1 752.49 481.52
  Q 746.30 483.29 736.00 487.01
  C 731.66 488.58 726.58 488.94 722.59 492.34
  Q 720.86 493.81 718.68 493.69
  C 715.36 493.50 711.42 495.33 708.29 496.91
  A 7.70 7.69 -65.3 0 1 706.64 497.52
  C 704.83 497.95 702.17 498.01 700.35 499.16
  C 698.37 500.43 696.26 502.72 693.50 502.12
  C 688.98 501.13 685.70 503.28 681.56 505.41
  A 4.43 4.41 30.5 0 1 679.60 505.91
  L 672.61 506.07
  A 0.76 0.75 34.1 0 0 672.34 506.12
  C 667.95 507.79 665.86 509.28 661.91 512.41
  A 2.96 2.95 35.7 0 1 659.07 512.87
  L 650.95 509.92
  A 3.22 3.20 38.6 0 0 648.11 510.23
  Q 644.73 512.39 640.84 512.66
  A 4.72 4.64 29.1 0 0 639.10 513.14
  L 634.57 515.44
  A 1.42 1.39 27.3 0 1 634.08 515.59
  Q 628.17 516.26 623.17 515.40
  A 1.77 1.76 27.4 0 0 621.64 515.88
  Q 619.98 517.52 617.52 517.58
  Q 608.14 517.82 601.16 518.54
  Q 599.12 518.75 597.95 519.27
  C 595.41 520.42 592.41 520.14 589.86 520.83
  C 586.63 521.71 584.95 521.48 582.16 523.04
  Q 579.87 524.31 577.41 522.45
  A 1.63 1.63 0.0 0 0 575.66 522.31
  C 572.58 523.96 570.50 523.86 566.98 525.19
  Q 563.88 526.37 560.61 525.49
  A 0.79 0.79 0.0 0 0 559.66 526.01
  Z
  M 491.31 575.70
  Q 489.26 574.70 482.88 572.16
  C 479.45 570.79 476.89 565.63 471.99 565.75
  Q 467.47 565.86 465.92 565.91
  A 4.95 4.87 -33.1 0 1 463.75 565.47
  Q 461.18 564.32 458.52 564.20
  C 456.10 564.09 453.98 563.08 451.66 562.16
  A 3.05 3.02 36.4 0 0 448.65 562.60
  L 446.50 564.31
  A 0.91 0.89 40.4 0 1 445.50 564.38
  L 427.79 554.16
  A 2.72 2.70 61.3 0 0 426.54 553.79
  L 419.09 553.46
  A 4.97 4.96 67.7 0 1 415.92 552.13
  L 412.47 548.91
  A 1.17 1.17 0.0 0 0 410.84 548.94
  C 409.60 550.20 408.21 549.58 406.77 548.67
  Q 403.27 546.46 401.59 546.39
  Q 393.38 546.10 387.19 540.35
  A 1.95 1.94 -36.9 0 0 384.99 540.04
  L 383.01 541.05
  A 1.56 1.54 -52.2 0 1 382.03 541.18
  C 377.41 540.25 374.92 539.47 371.50 536.05
  Q 368.75 533.29 365.90 530.58
  Q 363.13 527.95 359.48 527.92
  A 3.21 3.19 -31.7 0 1 358.15 527.61
  Q 350.16 523.89 342.69 519.13
  Q 338.71 516.59 331.20 514.03
  C 328.22 513.02 325.17 511.12 322.47 509.67
  A 17.09 16.69 77.9 0 1 319.74 507.86
  Q 314.19 503.35 308.27 500.48
  Q 301.48 497.18 297.80 493.47
  A 0.87 0.86 7.5 0 1 297.62 493.24
  L 295.47 489.58
  A 2.05 2.05 0.0 0 0 292.42 489.01
  L 290.95 490.17
  A 2.58 2.58 0.0 0 0 290.39 493.59
  Q 291.76 495.71 291.92 497.29
  A 1.72 1.69 -33.2 0 1 291.69 498.34
  L 290.29 500.78
  A 1.61 1.56 52.7 0 0 290.14 502.02
  L 291.02 505.07
  A 1.39 1.35 -41.0 0 1 290.94 506.03
  Q 289.24 509.65 290.43 514.39
  Q 290.81 515.91 291.89 518.99
  A 1.76 1.75 -54.2 0 1 291.99 519.63
  L 291.64 528.87
  A 2.28 1.98 75.1 0 0 291.66 529.19
  Q 292.19 533.57 291.79 536.68
  A 5.52 5.47 -31.5 0 1 291.46 538.02
  Q 288.34 546.12 288.14 551.77
  Q 287.80 561.36 287.85 599.00
  Q 287.86 600.29 286.30 604.73
  A 4.84 4.77 55.1 0 0 286.03 606.32
  L 286.03 621.55
  A 4.89 4.88 -30.5 0 1 285.41 623.93
  L 284.64 625.30
  A 2.09 2.06 -40.6 0 0 284.50 626.95
  C 285.05 628.73 286.21 630.12 286.13 632.66
  C 286.07 634.58 284.23 636.65 284.24 638.30
  Q 284.27 645.21 284.03 650.25
  Q 283.88 653.48 284.51 656.37
  C 284.86 657.99 284.47 658.90 284.14 660.28
  A 3.41 2.98 55.2 0 0 284.06 661.00
  L 283.98 716.42
  A 0.94 0.77 -57.9 0 0 284.01 716.65
  L 285.02 720.29
  A 3.85 3.79 -43.0 0 1 284.92 722.61
  L 284.21 724.59
  A 0.12 0.09 -35.8 0 0 284.19 724.65
  Q 283.61 735.47 285.95 745.68
  A 1.61 1.04 51.3 0 1 285.98 745.97
  L 286.31 760.27
  A 1.14 1.11 -27.2 0 1 286.07 760.99
  L 284.41 763.06
  A 1.70 1.62 -23.0 0 0 284.05 763.89
  C 283.55 767.81 288.78 770.46 284.94 774.40
  A 2.62 2.56 48.7 0 0 284.76 777.76
  C 286.05 779.49 286.37 781.06 286.09 783.62
  Q 285.75 786.69 287.46 791.37
  Q 288.90 795.29 287.34 800.35
  A 1.45 1.43 -38.9 0 0 287.28 800.88
  L 287.98 814.79
  A 3.47 3.46 57.8 0 1 287.58 816.56
  Q 285.84 819.83 286.06 824.39
  C 286.17 826.56 285.85 828.23 285.47 830.69
  A 4.95 4.91 44.8 0 0 285.48 832.25
  Q 286.41 837.98 286.35 839.25
  Q 285.75 851.25 286.35 858.38
  C 286.73 862.86 286.08 866.27 286.15 871.03
  Q 286.16 871.69 284.90 875.04
  C 284.06 877.29 285.51 878.06 285.92 880.05
  Q 286.46 882.70 287.57 885.85
  A 3.35 3.33 -1.5 0 0 289.78 887.93
  Q 293.10 888.89 296.35 891.44
  A 9.68 9.49 -13.4 0 0 298.46 892.71
  C 301.43 894.00 306.70 895.96 311.46 897.18
  C 317.53 898.74 322.51 901.70 327.99 904.55
  A 6.65 6.60 63.1 0 0 329.95 905.20
  L 332.68 905.67
  A 13.43 13.27 61.9 0 1 336.12 906.74
  Q 340.90 908.97 343.25 909.50
  Q 350.45 911.14 351.58 911.64
  Q 359.59 915.18 367.24 916.79
  Q 372.20 917.83 376.65 917.23
  A 1.98 1.97 65.5 0 1 378.40 917.89
  C 381.95 922.01 386.83 920.45 391.26 918.76
  C 392.82 918.17 396.89 918.98 399.16 919.95
  C 403.72 921.87 409.19 923.86 414.36 924.28
  C 417.20 924.50 419.71 926.88 422.92 926.36
  A 2.12 2.09 82.5 0 0 424.67 924.05
  Q 424.21 919.72 426.79 917.24
  C 428.65 915.44 428.64 913.85 428.79 911.55
  A 5.63 5.58 56.6 0 1 429.08 910.11
  Q 432.87 899.36 433.69 895.46
  Q 437.03 879.64 437.26 878.14
  A 3.14 3.09 71.9 0 1 438.12 876.41
  C 441.55 872.86 440.22 869.73 441.57 865.58
  Q 442.78 861.87 442.84 857.94
  A 4.93 4.85 -35.5 0 1 443.11 856.40
  C 445.05 850.79 446.75 846.32 446.85 841.26
  A 1.79 1.64 57.7 0 1 446.96 840.65
  L 450.60 829.89
  A 1.91 1.90 -33.4 0 0 450.69 829.46
  C 450.90 825.70 450.73 823.70 452.15 820.40
  Q 454.27 815.48 454.75 808.75
  A 10.07 10.01 -33.9 0 1 455.24 806.29
  Q 456.91 801.20 456.96 795.62
  Q 456.98 793.77 459.59 788.79
  A 0.75 0.47 -31.7 0 0 459.64 788.69
  L 462.69 779.80
  A 0.45 0.33 62.7 0 0 462.71 779.67
  Q 463.03 773.30 462.00 768.57
  C 461.35 765.64 464.67 764.04 465.09 761.09
  Q 466.50 751.26 470.77 742.50
  A 0.50 0.46 -42.5 0 0 470.80 742.16
  L 470.02 739.48
  A 1.56 1.56 0.0 0 1 470.05 738.55
  L 471.34 735.01
  A 3.78 3.72 -38.6 0 0 471.54 733.35
  L 471.29 731.19
  A 3.07 2.83 -42.8 0 1 471.37 730.17
  C 472.50 725.78 473.82 721.73 474.73 717.46
  Q 475.44 714.13 475.89 713.40
  Q 477.93 710.12 478.75 706.98
  A 3.37 3.28 47.9 0 0 478.80 705.56
  C 478.36 703.28 477.17 701.61 478.31 699.32
  Q 480.97 693.99 480.90 688.11
  Q 480.88 686.15 483.52 682.35
  A 4.89 4.83 -23.5 0 0 484.35 680.28
  Q 484.89 676.87 484.76 671.49
  Q 484.70 668.81 485.42 666.90
  Q 486.79 663.31 486.99 659.26
  A 4.74 4.66 -31.3 0 1 487.43 657.52
  Q 489.81 652.48 489.04 644.77
  Q 488.55 639.81 490.19 633.97
  A 10.51 10.23 54.7 0 0 490.56 631.62
  Q 490.89 624.04 490.80 617.23
  Q 490.78 615.72 492.17 611.29
  A 7.28 7.21 -34.7 0 0 492.46 609.74
  Q 492.67 606.93 492.76 601.76
  C 492.80 599.39 494.58 596.85 495.10 594.46
  Q 496.66 587.35 498.08 582.67
  A 1.62 1.61 -36.7 0 0 498.15 582.20
  L 498.15 575.12
  A 2.87 2.80 31.3 0 0 497.80 573.76
  Q 496.84 572.02 496.33 568.47
  A 1.47 1.46 72.9 0 0 494.24 567.36
  C 492.34 568.29 490.97 570.54 491.56 572.72
  Q 491.94 574.13 491.96 575.29
  A 0.45 0.45 0.0 0 1 491.31 575.70
  Z
  M 813.94 548.67
  C 816.49 546.42 816.96 543.85 818.81 541.14
  A 2.52 2.48 57.5 0 0 819.21 539.26
  C 818.06 533.07 817.04 528.43 825.38 528.62
  Q 828.03 528.69 831.95 527.19
  Q 835.85 525.69 840.82 524.19
  A 2.48 2.31 36.4 0 1 841.69 524.09
  L 845.11 524.36
  A 1.68 1.68 0.0 0 0 846.92 522.60
  Q 846.72 518.95 846.80 516.10
  C 846.88 513.11 848.95 511.19 848.89 508.25
  Q 848.71 499.80 848.90 495.57
  A 1.01 1.01 0.0 0 0 847.35 494.68
  L 840.95 498.81
  A 8.19 8.18 87.6 0 0 838.21 501.79
  C 836.55 504.88 835.26 506.36 831.97 508.46
  A 2.49 2.49 0.0 0 1 830.25 508.83
  C 826.61 508.30 822.20 508.83 819.57 511.57
  Q 816.73 514.53 814.90 516.20
  A 6.34 6.26 -76.6 0 1 812.91 517.44
  C 811.26 518.08 809.98 518.23 808.13 519.23
  Q 805.11 520.85 801.48 521.89
  Q 798.81 522.66 797.20 524.23
  C 791.65 529.66 782.55 532.90 775.21 534.09
  A 6.47 6.45 -60.6 0 0 773.72 534.51
  Q 765.13 538.18 763.73 538.99
  Q 759.84 541.24 758.38 541.65
  Q 731.96 549.11 724.78 551.53
  Q 723.94 551.82 720.18 554.44
  Q 719.16 555.14 714.01 556.99
  Q 711.48 557.90 707.42 557.98
  Q 697.44 558.17 696.01 558.23
  C 692.13 558.41 686.23 560.97 681.55 562.09
  Q 679.02 562.69 674.11 564.93
  C 671.96 565.91 670.44 566.31 668.56 564.90
  Q 667.34 563.99 666.15 564.53
  Q 662.87 566.03 659.46 565.86
  A 1.62 1.60 -53.4 0 0 658.80 565.96
  L 648.78 569.54
  A 4.52 4.51 -54.9 0 1 647.36 569.79
  Q 644.47 569.83 641.20 571.22
  A 2.15 2.15 0.0 0 1 639.30 571.10
  L 634.92 568.57
  A 3.95 3.94 -44.0 0 0 631.08 568.51
  L 626.10 571.18
  A 4.33 4.30 -57.8 0 1 623.93 571.68
  Q 614.99 571.37 610.37 571.82
  C 608.30 572.03 605.55 570.59 604.01 571.00
  A 4.98 4.47 21.5 0 0 603.15 571.32
  L 594.62 575.43
  A 1.65 1.63 50.3 0 1 592.91 575.26
  C 589.59 572.73 586.87 574.00 583.25 573.25
  Q 580.39 572.66 579.23 572.91
  Q 574.78 573.88 572.94 574.12
  A 0.68 0.66 66.3 0 1 572.33 573.87
  L 570.17 571.13
  A 0.76 0.76 0.0 0 0 569.70 570.85
  L 564.32 569.89
  A 2.38 2.35 -18.2 0 1 563.09 569.28
  L 560.43 566.80
  A 0.78 0.77 32.8 0 1 560.24 565.93
  Q 560.99 564.10 559.45 562.99
  A 0.86 0.85 -70.9 0 0 558.10 563.65
  L 557.99 565.96
  A 2.34 2.26 -32.7 0 1 557.80 566.77
  Q 555.27 572.35 552.54 574.81
  A 2.72 2.71 54.7 0 0 551.98 578.12
  C 553.25 580.47 554.06 581.54 553.88 583.97
  Q 553.66 587.03 554.79 589.84
  Q 556.20 593.37 556.18 595.26
  Q 556.12 599.33 555.32 601.09
  A 1.63 1.61 -45.4 0 0 555.32 602.46
  L 557.38 606.82
  A 8.07 7.81 27.3 0 1 557.96 608.54
  Q 558.08 609.47 558.06 611.72
  C 558.02 616.01 559.76 620.38 562.30 623.70
  C 564.36 626.39 564.39 628.11 563.94 631.23
  Q 562.57 640.69 567.12 648.52
  C 568.40 650.75 567.68 654.05 568.11 656.57
  A 4.71 4.70 -66.2 0 0 568.79 658.33
  Q 570.23 660.57 571.00 662.31
  A 1.58 1.54 60.6 0 1 570.49 664.24
  Q 569.04 665.24 568.87 666.76
  A 2.95 2.89 -51.5 0 0 568.99 667.93
  L 573.70 682.78
  A 1.34 0.88 -66.9 0 1 573.75 683.06
  Q 573.93 687.51 574.16 694.30
  Q 574.37 700.41 577.80 713.54
  A 3.26 3.24 -52.9 0 1 577.89 714.21
  L 577.94 722.50
  A 5.53 5.41 34.7 0 0 578.31 724.42
  Q 578.88 725.87 579.96 727.34
  C 582.02 730.15 582.51 733.18 581.75 736.45
  A 2.87 2.76 71.4 0 1 581.24 737.53
  L 578.25 741.33
  A 1.35 1.34 -44.7 0 0 578.23 742.97
  C 580.20 745.60 581.32 747.57 581.50 750.97
  Q 581.90 758.32 583.48 763.02
  A 8.53 8.40 37.7 0 1 583.90 766.11
  Q 583.61 772.14 585.10 776.29
  Q 585.89 778.49 586.04 781.26
  C 586.26 785.31 587.30 786.95 589.31 791.41
  A 6.75 6.63 33.0 0 1 589.92 794.15
  C 589.98 798.94 590.03 801.57 591.58 806.35
  A 2.60 2.56 35.1 0 1 591.68 806.90
  L 592.04 813.51
  A 2.60 2.56 35.1 0 0 592.14 814.06
  L 595.07 823.16
  A 2.05 1.83 21.2 0 0 595.33 823.67
  L 597.45 826.64
  A 2.03 2.03 0.0 0 1 597.64 828.65
  L 594.39 835.86
  A 0.81 0.78 50.4 0 0 594.35 836.38
  Q 594.69 837.64 595.52 838.59
  A 3.52 3.14 39.4 0 1 596.10 842.29
  Q 596.09 842.32 594.71 844.63
  A 3.31 3.29 46.4 0 0 594.64 847.92
  Q 596.01 850.43 596.18 853.23
  C 596.39 856.57 597.54 858.71 597.73 862.25
  Q 597.92 865.65 598.15 867.79
  A 5.36 5.36 0.0 0 0 598.76 869.77
  C 600.59 873.22 602.17 876.38 602.08 880.59
  Q 601.90 888.28 602.20 893.97
  A 2.20 2.14 -34.1 0 1 601.98 895.04
  Q 601.65 895.70 601.06 896.37
  C 599.28 898.38 599.96 903.24 600.87 904.74
  C 603.74 909.52 608.37 916.05 604.55 920.57
  A 2.13 2.12 48.8 0 0 604.39 923.10
  L 607.62 928.11
  A 1.02 0.97 -63.2 0 1 607.79 928.67
  Q 607.88 934.62 610.62 942.79
  A 0.79 0.78 -6.3 0 0 611.29 943.32
  C 613.74 943.54 614.71 942.67 616.58 941.80
  A 1.74 1.72 -45.4 0 1 618.02 941.78
  Q 621.80 943.42 628.26 942.80
  A 2.20 2.14 -60.7 0 0 629.04 942.57
  Q 630.84 941.65 631.34 941.56
  Q 634.13 941.04 640.88 942.72
  A 0.78 0.36 -20.3 0 0 641.01 942.73
  L 650.35 942.65
  A 9.68 9.62 -54.0 0 0 653.26 942.18
  C 659.07 940.27 666.56 940.83 677.74 940.67
  Q 683.77 940.58 685.63 939.59
  Q 691.45 936.50 696.72 937.52
  A 1.03 0.87 -38.4 0 0 697.03 937.53
  L 709.71 936.55
  A 6.07 5.93 25.8 0 0 712.48 935.62
  L 718.28 931.87
  A 1.92 1.71 19.7 0 1 718.90 931.62
  Q 728.17 929.70 732.08 927.78
  Q 740.53 923.62 745.69 921.41
  A 8.02 7.93 -73.4 0 0 747.13 920.62
  Q 754.05 915.88 762.19 914.25
  A 9.99 9.82 -62.4 0 0 764.26 913.58
  Q 775.02 908.63 778.60 906.85
  Q 779.50 906.40 781.26 906.83
  C 784.23 907.55 785.30 907.07 788.47 905.68
  Q 795.26 902.69 798.82 900.14
  A 2.17 2.13 -72.1 0 1 799.43 899.82
  L 803.43 898.39
  A 3.06 2.93 12.6 0 0 804.47 897.76
  C 805.92 896.54 806.55 894.44 808.21 893.18
  Q 810.06 891.76 811.23 890.16
  A 1.76 1.74 -78.4 0 1 812.23 889.49
  C 821.36 887.22 827.81 880.63 834.76 873.52
  Q 838.03 870.16 842.61 870.69
  A 1.15 1.15 0.0 0 0 843.88 869.67
  Q 844.04 868.16 843.51 866.77
  C 842.32 863.65 842.20 859.20 843.54 856.24
  C 844.48 854.17 844.73 853.17 843.69 850.57
  C 841.86 846.00 842.82 841.16 843.89 836.30
  A 1.27 1.26 -5.2 0 0 842.16 834.87
  C 838.53 836.38 834.49 836.69 830.65 835.15
  C 827.63 833.94 825.18 834.30 822.00 833.85
  A 2.16 2.13 63.9 0 1 821.23 833.58
  L 813.21 828.95
  A 1.15 1.13 87.1 0 1 812.83 828.60
  Q 810.85 825.74 810.88 822.39
  Q 810.95 816.36 811.19 812.75
  A 2.00 2.00 0.0 0 1 813.16 810.88
  L 835.34 810.63
  A 9.02 8.81 -53.2 0 0 837.91 810.23
  Q 842.15 808.90 847.14 808.75
  A 3.89 3.76 -54.1 0 0 848.16 808.57
  L 856.85 805.67
  A 10.54 10.53 32.8 0 1 859.02 805.20
  L 864.00 804.67
  A 4.16 4.08 -59.6 0 0 865.25 804.33
  Q 868.83 802.71 872.91 802.65
  A 3.69 3.63 -53.6 0 0 873.91 802.49
  L 878.23 801.17
  A 1.48 1.22 -50.5 0 1 878.59 801.10
  Q 889.39 800.34 891.00 799.74
  Q 898.42 796.97 906.31 796.12
  Q 907.04 796.04 910.55 794.00
  A 10.46 9.81 19.1 0 1 912.45 793.15
  Q 916.19 791.90 917.16 790.91
  Q 921.08 786.93 922.67 786.39
  Q 928.14 784.54 929.32 783.51
  Q 931.62 781.52 933.32 780.93
  C 938.06 779.27 940.21 776.37 943.41 772.22
  A 5.48 5.46 -80.0 0 1 946.07 770.35
  Q 952.94 768.15 957.98 762.21
  Q 962.69 756.65 966.70 754.18
  A 4.13 4.02 2.4 0 0 967.75 753.24
  L 971.30 748.79
  A 1.43 1.43 0.0 0 1 971.71 748.43
  L 976.75 745.29
  A 3.69 3.67 80.5 0 0 978.39 742.98
  Q 979.83 736.46 984.10 732.39
  C 985.51 731.04 987.83 730.07 988.98 729.37
  A 4.48 4.41 0.4 0 0 990.40 727.99
  L 993.68 723.00
  A 3.51 3.13 86.7 0 1 994.06 722.52
  Q 997.39 719.13 998.31 717.28
  Q 1001.29 711.28 1003.72 708.30
  A 1.60 1.59 -11.1 0 0 1003.91 708.02
  L 1008.88 699.23
  A 16.80 16.65 -22.7 0 0 1010.45 695.44
  Q 1010.86 693.35 1012.85 686.87
  Q 1013.16 685.85 1012.62 679.27
  A 2.84 2.68 -40.4 0 1 1012.73 678.26
  Q 1013.23 676.58 1014.07 675.74
  A 2.52 2.36 46.4 0 0 1014.05 672.38
  Q 1013.24 671.48 1011.96 670.57
  A 2.43 2.42 17.2 0 1 1010.93 668.63
  Q 1010.79 661.92 1011.09 655.06
  C 1011.16 653.54 1010.95 650.58 1010.39 648.35
  Q 1008.49 640.81 1008.22 639.88
  C 1006.87 635.26 1005.07 633.51 1001.49 630.59
  A 5.85 5.83 -73.9 0 1 999.38 626.75
  C 998.46 619.21 994.95 614.68 989.99 606.49
  Q 988.43 603.91 986.68 602.02
  Q 984.16 599.29 982.57 597.18
  A 10.17 10.16 -2.8 0 0 979.74 594.62
  L 977.46 593.22
  A 6.35 6.31 -1.7 0 1 975.60 591.48
  C 973.27 588.16 971.15 583.60 966.12 583.65
  A 1.46 1.43 -17.5 0 1 964.94 583.05
  L 957.60 572.75
  A 4.45 4.45 0.0 0 0 956.37 571.57
  Q 955.87 571.22 952.49 569.79
  Q 951.22 569.25 948.62 567.45
  A 7.60 7.50 71.9 0 0 946.84 566.53
  Q 943.11 565.16 937.98 561.45
  Q 935.71 559.80 933.42 557.96
  A 10.43 10.34 -15.2 0 0 930.58 556.35
  L 927.46 555.18
  A 1.13 0.79 -10.0 0 1 927.31 555.11
  Q 918.72 549.67 916.33 549.14
  Q 907.68 547.22 903.79 546.28
  A 6.50 6.15 51.0 0 0 902.52 546.11
  L 891.58 545.78
  A 6.38 6.35 -34.6 0 1 889.75 545.45
  Q 883.23 543.21 875.23 543.80
  Q 873.05 543.96 870.98 543.20
  Q 869.47 542.65 868.69 542.83
  Q 867.99 543.00 866.35 543.58
  A 5.67 5.53 -54.4 0 1 864.67 543.88
  L 845.08 544.17
  A 1.60 1.48 30.5 0 0 844.53 544.29
  L 837.02 547.40
  A 5.01 4.86 34.1 0 1 834.88 547.78
  L 831.25 547.62
  A 1.37 1.36 -57.0 0 0 830.55 547.77
  Q 828.49 548.85 825.72 550.75
  Q 824.82 551.36 819.64 552.39
  A 1.54 1.51 -35.3 0 1 818.59 552.22
  L 814.03 549.58
  A 0.56 0.56 0.0 0 1 813.94 548.67
  Z
  M 525.52 539.26
  Q 523.73 540.83 521.34 542.38
  C 518.83 544.01 520.02 547.33 520.33 549.38
  A 3.23 3.22 -24.7 0 1 519.25 552.29
  L 516.60 554.59
  A 1.69 1.68 60.2 0 0 516.11 556.40
  Q 517.63 561.04 520.71 565.19
  Q 522.03 566.96 523.79 567.09
  A 1.46 1.45 29.2 0 0 524.75 566.82
  Q 526.40 565.61 528.75 562.74
  A 0.83 0.78 1.9 0 1 528.91 562.60
  L 533.55 559.32
  A 0.83 0.78 1.9 0 0 533.71 559.18
  C 536.56 556.19 538.63 552.00 534.46 548.86
  Q 530.04 545.52 529.37 544.87
  A 4.17 4.17 0.0 0 1 528.22 542.88
  L 527.47 539.87
  A 1.20 1.20 0.0 0 0 525.52 539.26
  Z
  M 504.48 683.92
  A 0.57 0.56 63.7 0 0 505.12 684.14
  C 508.84 682.95 511.34 681.55 514.44 678.58
  Q 516.60 676.51 518.20 675.60
  C 520.30 674.41 522.75 673.80 524.75 672.84
  A 2.62 2.58 -87.8 0 0 525.87 671.79
  Q 527.25 669.32 531.83 663.37
  C 532.68 662.26 535.00 662.47 535.97 661.20
  Q 536.51 660.50 536.62 658.15
  Q 536.93 651.90 538.06 648.88
  A 1.39 1.37 -48.2 0 0 538.01 647.81
  Q 537.16 646.03 537.13 645.06
  Q 536.89 638.00 536.65 634.67
  A 6.89 6.87 -57.6 0 0 536.20 632.64
  L 534.92 629.32
  A 1.57 1.57 0.0 0 1 535.84 627.28
  C 539.87 625.82 539.30 623.40 537.74 620.33
  Q 536.84 618.56 538.03 616.39
  C 539.29 614.10 537.57 612.40 535.91 609.99
  A 5.54 5.52 27.1 0 1 534.93 606.98
  L 534.59 592.01
  A 1.58 1.58 0.0 0 0 532.58 590.53
  L 528.64 591.67
  A 4.75 4.70 46.5 0 1 525.72 591.58
  L 521.08 589.89
  A 1.76 1.76 0.0 0 0 518.90 590.77
  Q 517.68 593.27 515.28 594.53
  A 2.06 2.03 -15.8 0 0 514.17 596.48
  Q 514.73 605.35 513.05 612.07
  Q 512.59 613.91 512.68 614.96
  C 512.88 617.60 511.75 619.81 512.13 622.21
  Q 512.42 624.04 513.99 627.17
  A 1.21 1.18 46.3 0 1 513.98 628.27
  C 512.85 630.32 512.19 631.88 512.16 634.32
  Q 512.10 638.28 512.02 639.00
  A 6.31 6.24 -30.6 0 1 511.54 640.83
  L 510.26 643.84
  A 2.29 2.19 -33.7 0 0 510.07 644.69
  Q 510.05 645.80 509.95 653.25
  C 509.87 659.01 507.76 662.76 505.08 668.01
  A 5.00 4.94 63.1 0 0 504.57 669.60
  C 504.01 673.40 503.01 681.81 504.48 683.92
  Z
  M 546.88 681.37
  A 1.24 1.23 -22.5 0 0 544.77 680.50
  L 535.12 690.14
  A 4.54 4.49 10.0 0 1 533.79 691.06
  Q 528.24 693.61 523.86 697.23
  A 2.70 2.60 17.9 0 1 522.71 697.79
  Q 521.30 698.08 519.91 697.88
  A 1.33 1.32 -82.7 0 0 518.40 699.05
  Q 517.81 704.33 513.26 708.25
  C 507.37 713.32 504.02 719.18 500.16 724.92
  A 1.36 1.34 -78.6 0 1 499.31 725.49
  L 496.20 726.13
  A 2.03 1.99 -72.8 0 0 495.18 726.68
  Q 493.39 728.42 492.27 731.58
  A 2.40 2.25 56.5 0 0 492.12 732.46
  Q 492.25 738.58 490.51 744.00
  C 489.68 746.60 490.28 749.76 489.18 752.20
  Q 488.18 754.43 488.22 756.46
  Q 488.29 759.64 486.75 763.11
  A 6.81 6.77 60.1 0 0 486.20 765.18
  C 485.90 768.30 485.45 770.82 485.35 773.44
  Q 485.27 775.46 484.20 777.73
  A 1.30 1.29 8.1 0 0 485.58 779.56
  C 490.28 778.79 492.14 776.29 495.81 771.84
  Q 498.73 768.30 502.90 768.58
  C 505.22 768.74 510.19 765.02 511.28 764.29
  C 513.48 762.82 514.91 761.01 516.86 759.78
  C 520.46 757.51 522.18 756.00 525.69 753.52
  C 529.48 750.84 533.79 749.17 537.62 746.71
  A 2.77 2.75 -87.7 0 0 538.31 746.07
  C 539.20 744.92 539.31 742.78 540.33 741.83
  C 542.03 740.24 544.41 739.75 546.19 738.79
  C 548.42 737.59 549.94 735.05 552.37 733.82
  C 554.19 732.90 554.74 731.44 553.81 729.70
  Q 551.58 725.54 551.35 721.89
  C 551.21 719.73 550.13 717.57 550.08 715.98
  Q 549.89 709.19 549.18 705.49
  C 548.33 701.08 549.11 697.17 547.04 692.68
  A 1.71 1.67 -58.3 0 1 546.88 691.96
  L 546.88 681.37
  Z
  M 554.84 759.70
  Q 553.71 760.01 552.91 760.67
  C 550.11 762.96 547.83 765.29 544.34 766.93
  Q 539.33 769.29 535.35 770.97
  A 6.43 6.40 14.2 0 0 533.87 771.85
  L 521.31 781.82
  A 0.28 0.25 -75.1 0 1 521.22 781.88
  L 512.14 786.31
  A 8.66 7.13 -20.5 0 0 511.08 786.91
  L 498.13 795.28
  A 1.08 0.76 -73.4 0 0 497.94 795.43
  Q 493.36 799.71 487.46 802.56
  Q 486.68 802.94 484.60 806.21
  A 6.90 6.80 -6.4 0 1 483.62 807.42
  L 479.15 811.83
  A 4.64 4.63 -15.1 0 0 477.90 814.00
  L 475.77 822.20
  A 5.08 5.05 69.6 0 1 475.07 823.74
  L 472.96 826.89
  A 2.94 2.87 65.2 0 0 472.48 828.24
  L 471.43 838.92
  A 1.00 0.79 -38.5 0 1 471.37 839.18
  L 470.36 841.85
  A 5.47 5.42 53.5 0 0 470.02 844.19
  C 470.39 849.08 469.33 850.53 466.52 855.06
  A 4.20 4.06 70.6 0 0 466.12 855.93
  L 464.12 862.19
  A 1.42 1.28 -41.9 0 0 464.06 862.75
  Q 464.38 865.65 462.60 868.94
  C 461.61 870.78 461.73 872.88 462.26 874.68
  A 1.97 1.97 0.0 0 0 464.92 875.93
  L 476.54 870.97
  A 2.91 2.90 34.9 0 1 477.79 870.75
  Q 481.92 870.95 485.88 869.17
  A 3.02 3.02 0.0 0 1 487.67 868.95
  L 490.18 869.40
  A 1.27 1.21 -46.5 0 0 490.74 869.37
  Q 496.01 867.78 501.38 863.39
  C 502.62 862.38 504.51 861.85 506.39 862.40
  C 508.51 863.02 512.08 860.95 513.99 860.04
  A 9.98 9.84 -62.3 0 1 516.47 859.25
  Q 521.19 858.40 524.11 856.85
  Q 526.93 855.35 529.82 854.86
  Q 534.15 854.12 541.45 849.96
  Q 544.00 848.50 548.37 848.20
  A 2.66 2.57 29.0 0 0 549.44 847.91
  C 553.09 846.01 555.74 842.43 559.18 838.94
  Q 563.60 834.47 569.09 837.42
  A 1.13 1.13 0.0 0 0 570.57 835.81
  L 569.50 834.14
  A 2.50 2.50 0.0 0 1 569.09 832.91
  L 568.68 826.22
  A 1.47 1.23 39.9 0 0 568.63 825.94
  L 565.86 816.95
  A 1.70 1.52 -75.6 0 0 565.59 816.43
  Q 564.76 815.38 563.69 814.33
  A 2.40 2.39 -52.4 0 1 563.31 811.38
  Q 566.10 806.76 564.42 802.13
  C 562.92 797.98 562.59 795.26 561.22 790.87
  A 10.25 10.15 -54.9 0 1 560.75 788.08
  Q 560.64 784.67 560.54 780.51
  C 560.48 777.83 559.91 775.86 559.19 773.38
  A 9.23 9.09 36.7 0 1 558.84 771.10
  L 558.74 766.70
  A 2.35 2.35 0.0 0 0 558.54 765.80
  L 556.10 760.29
  A 1.07 1.06 -19.7 0 0 554.84 759.70
  Z
  M 452.52 909.86
  A 0.90 0.90 0.0 0 1 452.31 910.74
  L 448.83 914.47
  A 2.02 2.01 -20.8 0 0 448.31 915.62
  L 447.81 920.76
  A 3.06 3.04 63.8 0 1 447.38 922.04
  Q 443.83 927.94 441.36 935.45
  A 13.98 13.90 70.1 0 1 439.96 938.46
  C 437.12 943.00 432.28 950.79 432.10 956.93
  C 432.01 959.87 430.61 961.53 430.16 963.91
  Q 429.64 966.70 432.03 966.72
  Q 436.59 966.76 439.01 967.76
  C 441.94 968.98 443.97 968.94 447.24 969.90
  C 451.23 971.06 453.23 966.99 457.16 968.61
  C 460.46 969.97 462.71 970.76 466.74 970.69
  Q 476.88 970.51 487.12 970.67
  Q 490.82 970.73 495.53 969.31
  Q 496.48 969.03 500.59 969.49
  A 1.91 0.74 22.5 0 0 500.80 969.50
  L 512.90 968.97
  A 4.17 4.01 -37.6 0 1 514.17 969.11
  C 518.18 970.20 519.08 969.99 522.84 969.17
  A 9.93 9.73 37.8 0 1 524.91 968.93
  L 535.21 968.82
  A 6.60 6.26 37.0 0 0 536.45 968.68
  L 540.78 967.69
  A 3.26 3.21 -41.0 0 1 542.56 967.80
  C 547.02 969.38 549.44 970.02 554.93 970.65
  A 2.04 1.92 38.6 0 0 555.67 970.59
  L 561.04 969.03
  A 3.16 3.15 35.6 0 1 561.65 968.93
  Q 567.06 968.56 571.01 969.80
  C 575.48 971.21 579.35 970.51 585.05 970.65
  Q 589.30 970.77 591.79 966.31
  A 1.47 1.46 -36.4 0 0 591.95 965.27
  L 590.43 957.93
  A 2.73 2.66 24.6 0 0 590.11 957.10
  C 588.93 955.05 587.38 953.89 586.92 951.60
  Q 585.86 946.38 587.82 942.56
  A 2.03 2.01 48.7 0 0 587.92 940.91
  C 587.09 938.67 585.54 936.86 585.04 934.12
  Q 584.34 930.25 583.78 928.69
  A 16.58 16.51 34.5 0 1 582.82 923.56
  L 582.64 916.40
  A 4.37 4.30 31.8 0 0 582.20 914.59
  L 579.07 908.15
  A 1.35 1.32 -59.5 0 1 578.94 907.62
  L 578.76 899.60
  A 4.50 4.42 -55.8 0 0 578.52 898.28
  L 577.52 895.34
  A 2.73 2.72 -44.8 0 1 577.53 893.54
  L 578.30 891.43
  A 2.17 2.16 46.0 0 0 578.32 890.00
  C 576.83 885.51 576.94 881.10 575.76 876.30
  Q 574.61 871.58 574.69 866.95
  A 1.87 1.74 37.3 0 0 574.59 866.36
  L 572.01 859.06
  A 1.43 1.42 64.2 0 0 569.91 858.32
  Q 567.76 859.66 565.34 862.09
  C 561.36 866.09 556.07 869.46 550.70 868.68
  A 0.94 0.91 -54.9 0 0 550.13 868.79
  L 540.09 874.19
  A 0.80 0.46 -59.9 0 0 539.95 874.27
  L 536.66 876.89
  A 1.35 1.35 0.0 0 1 535.02 876.92
  C 531.57 874.39 529.73 877.66 527.01 877.79
  Q 524.30 877.92 520.68 878.68
  C 518.41 879.15 516.93 881.41 514.80 882.26
  A 2.41 2.40 41.8 0 1 513.29 882.34
  C 508.65 881.11 507.28 884.87 504.37 886.11
  Q 501.31 887.41 497.55 887.82
  A 6.86 6.70 -59.3 0 0 495.49 888.37
  Q 493.54 889.22 493.51 889.24
  C 491.26 890.32 488.03 889.66 485.96 891.38
  Q 484.68 892.44 483.50 891.40
  C 480.95 889.17 477.77 893.21 476.02 894.55
  A 6.02 5.79 16.8 0 1 474.18 895.49
  Q 464.48 898.41 463.05 898.79
  Q 462.09 899.05 459.67 901.27
  C 457.53 903.22 455.86 903.96 452.88 904.34
  A 1.63 1.63 0.0 0 0 451.52 906.41
  L 452.52 909.86
  Z
  M 593.96 990.62
  Q 590.18 988.31 587.61 990.36
  A 1.77 1.77 0.0 0 1 586.56 990.75
  L 583.71 990.81
  A 5.22 5.17 23.6 0 0 580.45 992.07
  C 577.57 994.54 574.78 996.79 571.08 995.45
  Q 569.00 994.70 565.87 993.44
  C 561.44 991.66 556.28 991.51 552.05 993.32
  A 4.73 4.72 -57.0 0 1 550.32 993.69
  L 543.54 993.85
  A 4.56 4.53 63.9 0 1 540.54 992.81
  Q 537.30 990.16 532.24 988.44
  A 1.62 1.62 0.0 0 0 530.77 988.66
  Q 528.31 990.44 524.86 989.93
  C 523.48 989.72 521.98 990.26 520.59 990.78
  A 2.33 2.28 46.4 0 1 518.84 990.72
  L 517.78 990.25
  A 4.13 4.06 -32.5 0 0 516.03 989.88
  C 509.39 989.97 503.78 990.16 498.13 989.68
  Q 492.74 989.21 488.10 991.86
  C 486.92 992.54 484.99 992.33 483.57 991.25
  C 481.04 989.34 479.81 992.13 477.51 992.12
  Q 468.95 992.07 465.28 991.91
  A 8.28 8.20 -34.0 0 1 462.91 991.46
  C 457.53 989.58 451.29 990.07 445.36 989.71
  A 5.91 5.86 -29.6 0 1 443.00 989.07
  Q 440.27 987.67 437.54 987.91
  A 3.99 3.91 -36.1 0 1 435.75 987.65
  Q 434.21 987.03 429.76 986.18
  C 427.95 985.83 426.44 984.74 424.74 984.27
  C 420.66 983.14 419.56 986.15 417.76 988.94
  Q 417.34 989.59 416.08 990.91
  Q 410.42 996.84 407.65 999.60
  A 0.83 0.59 88.7 0 0 407.50 999.82
  L 405.30 1004.32
  A 9.01 8.93 84.8 0 1 402.67 1007.51
  C 399.84 1009.66 395.77 1012.55 394.38 1015.73
  C 391.84 1021.56 384.56 1023.37 383.53 1029.25
  A 1.43 1.43 0.0 0 0 384.97 1030.93
  C 387.67 1030.87 389.90 1031.21 392.27 1029.94
  C 394.36 1028.81 396.83 1030.01 399.29 1030.04
  Q 407.66 1030.15 408.71 1030.10
  A 2.41 2.37 -33.7 0 1 409.76 1030.30
  L 413.90 1032.17
  A 0.98 0.95 -30.0 0 0 414.26 1032.26
  C 419.96 1032.64 425.26 1033.06 431.74 1033.97
  Q 441.71 1035.38 451.15 1035.13
  A 3.75 3.70 -36.0 0 1 452.47 1035.33
  C 455.19 1036.24 456.54 1036.79 459.14 1036.83
  Q 464.16 1036.91 467.13 1037.93
  C 470.19 1038.99 473.67 1038.53 476.69 1039.64
  Q 478.88 1040.44 481.86 1040.58
  Q 484.48 1040.69 487.51 1042.12
  A 3.50 3.38 -28.5 0 0 488.63 1042.43
  L 496.31 1043.18
  A 3.86 3.79 -29.6 0 1 497.55 1043.51
  Q 499.95 1044.59 503.28 1044.99
  C 505.87 1045.30 508.41 1046.41 511.01 1046.58
  Q 512.25 1046.67 529.43 1046.56
  A 14.28 13.65 36.8 0 0 532.59 1046.18
  C 533.50 1045.96 537.89 1044.31 540.18 1044.65
  C 542.16 1044.94 543.52 1044.46 545.18 1042.83
  Q 547.64 1040.42 551.60 1037.88
  C 553.45 1036.69 554.79 1034.31 556.24 1032.80
  Q 559.47 1029.43 564.37 1023.51
  A 25.82 25.73 -1.2 0 1 567.11 1020.66
  Q 573.63 1014.88 574.38 1013.81
  Q 577.73 1009.02 581.71 1003.71
  C 583.75 1000.98 585.04 997.20 587.33 994.51
  A 1.40 1.39 -73.7 0 1 588.22 994.02
  Q 590.97 993.65 593.89 992.18
  A 0.90 0.89 -42.5 0 0 593.96 990.62
  Z
  M 509.73 1068.38
  Q 506.59 1066.28 504.05 1066.15
  C 498.56 1065.88 493.02 1066.13 488.08 1064.18
  A 4.99 4.96 53.1 0 0 485.89 1063.86
  C 481.28 1064.23 478.43 1061.34 474.16 1060.35
  Q 465.07 1058.22 457.57 1057.62
  C 455.17 1057.43 452.81 1056.14 450.04 1056.22
  Q 444.95 1056.38 440.11 1054.89
  A 7.74 7.70 -34.4 0 0 438.33 1054.56
  L 427.94 1053.90
  A 7.39 7.31 -31.6 0 1 425.65 1053.37
  Q 421.79 1051.78 414.85 1051.22
  A 3.39 3.21 -46.6 0 0 413.93 1051.27
  Q 408.84 1052.30 404.05 1051.01
  Q 400.63 1050.09 398.28 1050.10
  C 392.81 1050.12 388.62 1049.39 386.06 1053.23
  A 0.82 0.82 0.0 0 1 384.76 1053.31
  C 383.38 1051.69 381.71 1051.05 379.71 1052.35
  Q 378.71 1052.99 375.23 1054.26
  A 1.76 1.74 80.6 0 0 374.08 1055.88
  L 374.01 1062.96
  A 2.65 2.57 -33.3 0 1 373.78 1063.98
  L 372.13 1067.64
  A 2.39 2.38 -31.7 0 0 371.92 1068.52
  L 371.54 1077.00
  A 1.70 1.68 66.7 0 1 371.13 1078.05
  C 369.06 1080.44 370.42 1084.16 369.49 1087.07
  Q 368.70 1089.55 368.46 1091.25
  C 368.03 1094.40 369.15 1096.27 369.99 1098.72
  A 2.53 2.52 45.8 0 1 369.97 1100.41
  C 368.83 1103.56 367.83 1104.84 370.06 1108.43
  A 0.91 0.90 -43.1 0 1 370.02 1109.45
  C 368.26 1111.85 366.23 1114.31 366.31 1117.05
  A 1.76 1.75 -64.0 0 0 366.64 1118.01
  Q 367.98 1119.83 370.51 1119.13
  A 1.79 1.73 -75.3 0 0 371.32 1118.64
  C 373.10 1116.69 374.01 1113.86 377.11 1113.32
  Q 382.80 1112.34 388.05 1109.96
  Q 389.70 1109.21 391.24 1108.96
  C 394.40 1108.46 396.09 1108.07 398.43 1106.18
  Q 399.65 1105.21 401.26 1105.08
  C 407.83 1104.57 414.68 1100.93 419.47 1099.41
  C 425.41 1097.52 429.49 1095.08 436.02 1092.27
  C 437.88 1091.47 439.31 1091.02 441.10 1091.56
  Q 442.33 1091.94 442.90 1092.02
  A 2.09 2.07 -53.3 0 0 444.09 1091.84
  C 445.84 1091.01 448.41 1088.97 450.63 1089.72
  Q 454.15 1090.90 457.70 1089.02
  A 3.56 3.55 32.6 0 1 459.53 1088.62
  Q 462.22 1088.76 470.87 1088.69
  Q 474.31 1088.66 477.53 1087.65
  Q 481.62 1086.37 485.76 1086.53
  A 3.31 3.30 -71.3 0 0 488.62 1085.11
  L 491.66 1080.72
  A 1.60 1.48 -3.0 0 1 492.00 1080.37
  L 500.42 1074.02
  A 5.95 5.94 -65.7 0 1 503.57 1072.83
  L 508.73 1072.43
  A 0.91 0.91 0.0 0 0 509.41 1072.05
  Q 510.40 1070.66 510.27 1069.27
  A 1.23 1.22 14.0 0 0 509.73 1068.38
  Z"
/>
<path fill="#000000" d="
  M 734.13 203.94
  A 1.69 1.68 -46.0 0 1 732.68 203.97
  L 727.12 201.46
  A 3.42 3.40 -3.3 0 1 725.59 200.10
  C 722.94 195.65 722.45 190.17 724.04 184.86
  Q 724.79 182.34 724.81 179.12
  A 4.79 4.66 -35.5 0 1 725.09 177.58
  Q 727.55 171.01 728.07 170.05
  C 729.41 167.62 728.37 165.07 731.06 162.86
  C 732.98 161.27 736.64 159.22 738.76 158.97
  Q 740.36 158.79 742.11 160.17
  Q 749.47 166.01 750.34 166.56
  A 6.08 6.04 -88.2 0 1 752.41 168.78
  Q 754.10 171.89 755.40 176.83
  Q 756.90 182.56 757.36 183.20
  A 2.09 2.08 36.5 0 1 757.64 185.06
  Q 757.41 185.76 756.57 187.23
  C 755.47 189.16 755.82 191.85 754.75 193.58
  Q 752.46 197.27 748.85 200.68
  A 4.51 4.45 23.1 0 1 745.77 201.90
  L 739.16 201.90
  A 4.28 4.28 0.0 0 0 737.23 202.36
  L 734.13 203.94
  Z"
/>
<path fill="#000000" d="
  M 400.72 214.28
  A 2.39 2.39 0.0 0 0 398.12 213.98
  L 394.99 215.57
  A 3.47 3.31 -63.1 0 1 394.20 215.85
  C 386.54 217.36 384.37 212.00 384.69 205.65
  Q 384.84 202.86 384.66 199.38
  A 3.03 3.02 -26.1 0 1 385.40 197.22
  Q 388.87 193.23 390.04 186.93
  C 391.42 179.55 393.43 173.56 401.23 171.31
  C 402.97 170.81 404.03 170.70 405.77 171.53
  Q 408.71 172.91 413.55 174.02
  A 2.66 2.64 -3.0 0 1 415.46 175.73
  L 417.53 181.66
  A 9.34 9.33 -53.6 0 1 418.05 185.12
  Q 417.86 190.00 419.61 193.78
  A 4.30 4.24 33.0 0 1 420.00 195.56
  L 420.00 206.06
  A 0.78 0.73 59.1 0 1 419.93 206.38
  C 416.98 212.95 416.08 216.15 408.60 216.07
  C 405.45 216.04 403.00 216.18 400.72 214.28
  Z"
/>
<path fill="#000000" d="
  M 660.25 288.53
  Q 653.30 290.94 647.95 289.25
  C 640.87 287.02 625.45 276.31 636.26 267.76
  A 4.05 4.04 22.3 0 1 638.25 266.93
  Q 643.74 266.22 648.06 267.65
  C 652.99 269.28 658.14 268.84 662.78 270.43
  A 1.36 1.36 0.0 0 0 664.21 270.07
  L 669.63 264.25
  A 2.03 2.02 28.9 0 1 671.61 263.68
  Q 675.08 264.57 676.31 264.68
  C 680.05 265.01 682.38 267.69 682.95 270.94
  A 2.98 2.81 -48.1 0 1 682.97 271.77
  L 681.71 281.71
  A 1.18 1.16 83.2 0 1 680.98 282.65
  Q 677.71 283.93 672.90 287.47
  C 669.05 290.31 665.37 290.83 661.41 288.64
  A 1.46 1.44 50.0 0 0 660.25 288.53
  Z"
/>
<path fill="#000000" d="
  M 463.11 280.03
  A 1.08 1.07 -33.6 0 0 464.18 280.24
  Q 467.35 279.12 470.97 278.28
  Q 471.67 278.12 474.40 275.86
  A 3.86 3.68 -74.3 0 1 475.43 275.25
  Q 476.33 274.91 479.39 274.36
  Q 482.15 273.86 486.30 271.84
  C 489.22 270.42 491.37 270.23 494.38 270.48
  A 2.00 1.98 79.7 0 1 496.03 271.64
  L 499.83 279.91
  A 0.90 0.89 42.7 0 1 499.86 280.58
  C 497.62 286.59 493.80 289.52 488.61 294.66
  A 1.75 1.69 12.2 0 1 487.95 295.07
  L 474.19 299.81
  A 0.94 0.92 54.1 0 1 473.32 299.66
  Q 469.22 296.45 464.45 299.98
  A 2.82 2.80 36.8 0 1 461.80 300.35
  L 452.83 297.03
  A 13.41 13.29 -20.2 0 1 450.92 296.16
  Q 449.81 295.54 447.45 293.78
  C 445.56 292.37 443.86 292.01 441.52 291.48
  A 1.78 1.76 -89.8 0 1 440.19 290.13
  Q 439.66 287.81 438.27 285.04
  C 435.92 280.33 435.49 275.72 440.06 272.10
  C 443.77 269.17 447.12 269.57 451.09 271.90
  Q 452.04 272.46 457.78 275.47
  A 2.56 2.54 79.0 0 1 458.28 275.81
  L 463.11 280.03
  Z"
/>
<path fill="#000000" d="
  M 566.33 394.74
  A 0.97 0.96 44.2 0 0 565.13 394.75
  L 559.23 399.43
  A 1.61 1.58 19.0 0 1 558.60 399.73
  Q 554.70 400.57 551.54 402.85
  A 3.38 3.30 19.1 0 1 550.39 403.39
  L 526.42 409.53
  A 4.45 4.41 -39.3 0 1 523.45 409.25
  L 511.27 403.51
  A 5.09 4.84 73.0 0 1 510.56 403.11
  L 504.84 399.15
  A 6.48 6.34 84.3 0 1 503.86 398.33
  L 495.54 389.83
  A 2.37 2.32 -67.8 0 1 494.87 388.18
  Q 494.84 381.53 494.84 379.27
  C 494.85 376.21 497.45 374.42 500.14 372.09
  C 503.52 369.16 509.34 371.11 512.13 373.56
  C 514.30 375.46 515.36 379.41 517.74 381.15
  Q 521.48 383.90 523.89 384.16
  Q 530.21 384.84 532.93 385.32
  A 3.45 3.39 45.6 0 0 533.97 385.34
  C 538.80 384.72 542.80 384.13 546.47 381.80
  Q 547.92 380.88 549.12 377.94
  Q 550.45 374.67 552.45 371.26
  A 4.09 4.06 58.7 0 0 553.00 368.97
  Q 552.64 363.46 552.77 358.92
  C 552.82 357.26 552.44 355.70 551.57 354.53
  A 3.70 3.21 -45.4 0 1 551.84 350.32
  Q 553.09 348.72 551.91 346.66
  A 4.47 3.68 46.6 0 1 551.64 342.71
  Q 552.29 341.46 552.72 339.72
  A 3.33 3.09 54.2 0 0 552.82 338.92
  L 552.75 326.84
  A 1.83 1.83 0.0 0 0 551.70 325.20
  Q 550.47 324.62 549.63 323.86
  A 3.00 2.94 -81.7 0 1 548.90 322.86
  C 547.81 320.37 546.94 318.34 545.42 316.28
  C 542.82 312.76 540.09 308.61 540.75 304.10
  Q 541.89 296.30 548.78 296.51
  Q 552.10 296.62 553.20 296.17
  C 557.73 294.31 560.78 291.40 566.72 293.67
  Q 572.85 296.00 578.86 297.03
  C 581.69 297.52 583.77 304.21 584.21 306.68
  A 4.11 4.06 -37.5 0 1 583.87 309.16
  Q 581.58 313.90 578.00 317.47
  Q 577.02 318.45 575.44 323.50
  A 0.90 0.87 75.9 0 1 575.24 323.85
  L 573.35 325.87
  A 4.95 4.91 -23.4 0 0 572.03 329.17
  Q 571.92 336.80 572.18 349.23
  C 572.24 352.28 575.18 353.91 572.79 357.15
  Q 571.91 358.34 572.50 359.59
  Q 573.78 362.33 573.98 364.76
  C 574.14 366.65 573.54 369.43 574.08 371.12
  A 1.72 1.66 -84.5 0 0 574.82 372.05
  Q 577.34 373.53 578.61 375.15
  C 581.07 378.29 583.20 379.29 587.39 382.34
  Q 588.93 383.46 594.12 384.55
  A 4.05 4.02 37.8 0 0 596.76 384.23
  Q 599.75 382.76 603.49 382.76
  A 4.28 4.28 0.0 0 0 605.42 382.30
  L 610.63 379.66
  A 3.40 3.14 -62.5 0 1 611.44 379.37
  C 614.72 378.64 619.12 377.77 621.35 380.55
  C 625.07 385.19 626.92 388.50 626.10 394.10
  A 2.05 2.04 83.6 0 1 624.81 395.72
  Q 620.18 397.53 617.10 401.25
  A 1.87 1.87 0.0 0 1 616.17 401.86
  L 609.41 403.82
  A 2.35 2.28 -49.5 0 1 608.56 403.90
  Q 604.06 403.46 600.34 405.98
  A 1.50 1.49 45.7 0 1 598.63 405.95
  C 595.26 403.52 592.80 403.96 587.66 403.79
  A 5.13 4.88 54.6 0 1 586.02 403.47
  L 583.03 402.34
  A 8.06 8.05 -37.5 0 0 579.27 401.85
  Q 578.68 401.92 577.56 401.45
  Q 571.73 399.01 566.33 394.74
  Z"
/>
<path fill="#000000" d="
  M 380.65 313.95
  C 383.76 317.29 378.46 323.51 375.80 325.29
  Q 373.69 326.71 368.56 326.02
  A 2.75 2.72 69.1 0 1 367.13 325.37
  C 362.31 321.12 356.84 316.87 363.41 310.39
  C 365.96 307.87 367.74 308.39 371.60 308.45
  C 376.10 308.52 377.81 310.89 380.65 313.95
  Z"
/>
<path fill="#000000" d="
  M 526.39 325.82
  A 2.56 2.55 -21.1 0 1 525.50 327.82
  Q 523.48 329.55 520.54 330.03
  C 514.84 330.96 511.42 331.24 507.51 326.35
  A 2.83 2.82 -52.8 0 1 507.12 323.47
  Q 508.02 321.36 509.37 317.07
  Q 509.87 315.47 512.23 313.78
  C 515.58 311.38 521.85 313.62 524.62 315.87
  A 4.42 4.40 -71.2 0 1 526.24 319.18
  L 526.39 325.82
  Z"
/>
<path fill="#000000" d="
  M 629.29 339.13
  A 1.58 1.55 -68.7 0 1 628.16 339.64
  Q 625.84 339.66 623.75 340.37
  Q 621.31 341.19 619.42 340.53
  C 614.18 338.70 614.54 334.39 614.83 329.84
  Q 615.23 323.79 621.58 321.21
  A 2.32 2.31 45.8 0 1 623.39 321.24
  L 630.60 324.49
  A 2.94 2.93 -75.2 0 1 632.31 327.43
  Q 632.00 330.91 632.08 333.01
  C 632.17 335.74 631.02 337.20 629.29 339.13
  Z"
/>
<path fill="#000000" d="
  M 499.12 334.41
  L 501.43 340.87
  A 1.12 1.04 42.9 0 1 501.47 341.41
  Q 500.45 346.61 494.35 349.90
  C 486.96 353.89 483.96 348.79 480.96 342.49
  C 479.46 339.34 480.75 334.24 484.54 332.62
  Q 488.50 330.93 491.00 331.31
  Q 494.12 331.79 498.38 333.62
  A 1.36 1.34 -88.6 0 1 499.12 334.41
  Z"
/>
<path fill="#000000" d="
  M 370.32 363.63
  C 368.51 367.34 372.52 368.06 371.79 370.63
  Q 369.47 378.85 370.03 387.40
  A 15.56 14.92 -43.8 0 1 369.89 390.70
  C 369.25 394.85 368.71 396.85 370.37 400.05
  C 371.26 401.76 371.77 402.92 370.67 404.61
  Q 369.05 407.09 370.57 410.31
  A 2.01 2.00 -42.6 0 1 370.49 412.19
  C 369.31 414.21 366.03 418.25 363.54 418.26
  Q 360.61 418.29 356.52 417.79
  A 1.67 1.63 -19.2 0 1 355.62 417.37
  L 351.86 413.86
  A 0.99 0.93 -80.3 0 1 351.62 413.50
  Q 349.64 407.92 350.84 400.78
  C 351.41 397.41 347.12 394.61 350.18 391.50
  A 2.87 2.82 51.5 0 0 350.55 388.00
  Q 348.32 384.37 348.80 379.85
  C 349.06 377.45 350.39 375.28 350.86 373.21
  A 1.49 1.20 57.2 0 0 350.89 372.92
  L 350.89 365.47
  A 5.06 5.00 56.5 0 1 351.27 363.55
  Q 352.74 359.97 352.20 356.39
  C 351.65 352.72 352.79 349.67 352.58 345.82
  A 3.43 3.35 53.8 0 1 352.76 344.56
  Q 354.78 338.87 360.26 337.50
  A 2.73 2.65 45.8 0 1 361.70 337.54
  L 367.72 339.38
  A 1.43 1.22 -15.7 0 1 368.00 339.51
  Q 370.81 341.32 373.27 346.24
  C 374.73 349.16 373.70 350.74 372.39 353.58
  A 4.11 4.07 -32.8 0 0 372.01 355.30
  Q 372.03 360.13 370.32 363.63
  Z"
/>
<path fill="#000000" d="
  M 617.19 355.76
  Q 612.03 358.54 607.88 362.81
  A 1.67 1.60 -77.8 0 1 607.30 363.20
  L 601.39 365.48
  A 0.67 0.63 -47.1 0 1 600.99 365.51
  L 596.41 364.45
  A 1.16 1.16 0.0 0 1 595.71 363.95
  C 593.20 359.85 590.78 356.28 594.01 352.19
  Q 596.57 348.95 598.45 344.59
  A 2.61 2.59 7.2 0 1 600.44 343.06
  Q 604.58 342.42 608.08 340.20
  C 611.47 338.04 615.93 341.62 617.66 344.68
  A 1.84 1.80 29.8 0 1 617.91 345.56
  L 618.11 354.19
  A 1.74 1.73 75.5 0 1 617.19 355.76
  Z"
/>
<path fill="#000000" d="
  M 519.08 350.80
  A 1.74 1.74 0.0 0 1 519.85 349.80
  Q 521.00 349.10 524.72 347.42
  C 528.80 345.57 531.85 347.02 535.32 349.15
  C 540.43 352.27 537.06 357.20 535.77 361.08
  A 3.90 3.89 4.7 0 1 532.69 363.68
  Q 529.56 364.18 525.67 363.94
  C 518.66 363.50 517.60 356.08 519.08 350.80
  Z"
/>
<path fill="#000000" d="
  M 645.50 370.05
  C 642.73 371.07 638.49 364.53 637.77 362.70
  A 1.76 1.75 -51.0 0 1 637.67 361.73
  L 639.15 353.02
  A 1.79 1.78 -6.0 0 1 640.26 351.66
  Q 646.97 348.99 652.73 348.66
  Q 657.87 348.37 658.11 353.60
  Q 658.29 357.39 658.21 357.99
  A 5.57 5.55 -21.3 0 1 657.65 359.26
  L 654.18 365.01
  A 7.69 7.66 -85.0 0 1 650.40 368.20
  Q 648.97 368.76 645.50 370.05
  Z"
/>
<path fill="#000000" d="
  M 799.33 540.91
  Q 804.02 541.44 806.16 546.25
  A 1.75 1.70 35.1 0 1 806.31 547.04
  L 805.98 554.53
  A 2.64 2.58 -26.3 0 1 805.50 555.90
  C 803.80 558.22 801.33 560.44 798.12 559.75
  C 795.18 559.11 792.93 561.13 790.20 560.35
  C 787.44 559.56 785.89 559.15 784.73 556.27
  Q 784.37 555.38 782.94 552.92
  A 3.56 3.56 0.0 0 1 782.94 549.34
  L 786.33 543.47
  A 1.71 1.68 9.4 0 1 787.51 542.64
  Q 789.67 542.24 793.26 542.55
  Q 794.60 542.66 798.08 541.10
  A 2.36 2.34 -53.4 0 1 799.33 540.91
  Z"
/>
<path fill="#000000" d="
  M 845.84 700.41
  Q 842.82 694.91 845.99 690.50
  A 3.15 3.12 -47.7 0 0 845.83 686.62
  C 841.82 681.99 846.83 678.75 846.72 674.69
  Q 846.36 661.88 846.94 648.86
  Q 847.06 646.15 844.27 646.15
  Q 835.72 646.15 834.07 646.32
  A 1.36 1.35 68.8 0 1 832.84 645.77
  C 829.69 641.44 827.27 637.16 830.46 632.02
  Q 830.74 631.57 833.54 630.12
  Q 837.82 627.91 842.20 625.68
  A 9.35 9.26 -57.2 0 1 846.77 624.67
  C 852.19 624.88 856.09 623.10 861.72 621.25
  A 3.24 3.23 52.6 0 1 864.52 621.63
  L 866.77 623.13
  A 1.60 1.59 -31.2 0 0 867.85 623.39
  Q 872.23 622.83 877.64 623.92
  C 880.90 624.59 882.39 623.86 886.04 622.80
  A 4.31 4.29 -39.0 0 1 889.24 623.13
  C 891.72 624.44 894.89 628.82 896.71 631.09
  A 2.54 2.47 84.5 0 0 897.45 631.72
  L 903.01 634.93
  A 3.58 3.39 -6.7 0 1 903.60 635.37
  Q 908.58 640.07 911.77 643.29
  C 914.44 646.00 914.15 651.56 914.54 654.10
  A 4.70 4.57 -61.7 0 0 914.91 655.40
  L 916.36 658.60
  A 20.29 20.26 -62.1 0 1 917.89 663.60
  L 918.86 669.35
  A 1.85 1.77 49.7 0 1 918.81 670.17
  L 918.20 672.29
  A 3.19 2.94 55.7 0 0 918.07 673.18
  L 917.84 691.54
  A 3.51 3.48 -25.8 0 1 917.09 693.67
  Q 913.66 698.03 913.51 698.27
  C 911.72 701.02 912.22 702.86 911.91 705.76
  A 2.97 2.96 66.2 0 1 911.34 707.24
  L 907.01 713.08
  A 3.26 3.08 -86.8 0 1 906.26 713.79
  C 900.19 717.93 896.61 719.98 893.29 724.66
  C 890.88 728.07 888.30 729.37 884.73 729.94
  C 881.88 730.40 880.84 732.02 878.59 733.44
  A 2.43 2.38 -61.3 0 1 877.40 733.80
  L 863.73 734.30
  A 4.57 4.41 -52.3 0 0 862.84 734.43
  C 860.71 734.99 859.82 735.34 857.77 735.41
  Q 854.10 735.54 846.31 735.69
  Q 839.09 735.84 835.09 734.07
  Q 829.43 731.58 826.33 725.61
  C 823.61 720.37 824.12 715.08 827.65 710.31
  Q 828.43 709.25 830.00 708.91
  Q 836.22 707.55 841.04 711.21
  Q 842.28 712.15 844.08 711.17
  A 0.98 0.98 0.0 0 0 844.59 710.31
  L 844.59 705.16
  A 2.63 2.57 -33.0 0 1 844.84 704.05
  L 845.88 701.78
  A 1.52 1.50 -47.1 0 0 845.84 700.41
  Z
  M 870.07 645.00
  Q 869.63 648.26 870.12 653.89
  C 870.24 655.33 871.43 656.37 871.73 657.60
  A 1.77 1.74 -39.0 0 1 871.60 658.76
  Q 870.14 661.77 870.14 662.49
  Q 870.04 670.07 869.91 675.68
  A 12.12 12.01 -33.9 0 1 869.08 679.80
  Q 867.86 682.94 867.89 684.60
  Q 868.05 692.51 867.94 703.09
  A 5.76 5.71 54.9 0 1 867.64 704.86
  C 867.18 706.20 866.31 707.27 866.40 708.81
  C 866.61 712.31 871.24 711.48 873.25 709.97
  Q 876.50 707.52 880.42 705.79
  A 2.63 2.61 -88.1 0 0 881.66 704.62
  L 887.07 694.28
  A 2.20 1.98 -8.3 0 1 887.62 693.62
  L 893.27 689.14
  A 3.81 3.78 68.9 0 0 894.69 685.90
  Q 894.45 682.36 896.43 678.64
  A 3.34 3.32 -31.8 0 0 896.82 677.00
  L 896.59 667.02
  A 4.77 4.73 24.7 0 0 895.50 664.11
  Q 892.79 660.84 892.50 656.53
  A 3.12 3.11 -71.2 0 0 891.47 654.43
  L 885.93 649.50
  A 3.45 3.29 -10.8 0 0 885.03 648.92
  Q 881.73 647.49 879.53 645.83
  C 876.70 643.70 874.35 643.59 871.13 643.96
  A 1.20 1.20 0.0 0 0 870.07 645.00
  Z"
/>
<path fill="#000000" d="
  M 798.90 655.94
  Q 790.40 653.52 790.65 644.28
  C 790.77 639.89 793.86 637.93 797.87 635.84
  A 7.87 7.82 -77.9 0 0 799.22 634.96
  Q 801.76 632.87 805.50 631.17
  A 2.37 2.35 47.7 0 1 807.69 631.28
  C 811.95 633.80 813.68 634.52 816.08 639.73
  A 0.48 0.46 32.6 0 1 816.13 639.94
  L 816.32 648.35
  A 1.35 1.35 0.0 0 1 816.14 649.06
  Q 814.70 651.50 813.09 651.92
  Q 806.49 653.67 801.42 655.79
  A 3.88 3.85 41.3 0 1 798.90 655.94
  Z"
/>
<path fill="#000000" d="
  M 335.25 646.86
  Q 332.31 651.28 332.25 652.27
  Q 331.91 657.87 332.21 662.14
  A 2.08 2.07 65.5 0 1 331.61 663.76
  C 330.00 665.38 326.93 669.26 324.52 669.93
  Q 320.71 670.98 317.73 669.81
  A 1.71 1.70 -5.4 0 1 316.95 669.17
  C 315.52 666.98 312.85 663.86 312.88 660.51
  Q 312.96 653.80 312.92 652.83
  Q 312.76 648.04 314.02 645.33
  C 316.10 640.84 317.81 637.50 322.44 636.67
  C 324.83 636.24 331.65 635.76 333.27 638.25
  A 2.63 2.54 23.4 0 1 333.63 639.11
  C 333.84 640.08 333.81 643.16 334.92 644.49
  Q 335.59 645.29 335.59 645.76
  A 1.97 1.94 -28.2 0 1 335.25 646.86
  Z"
/>
<path fill="#000000" d="
  M 805.77 703.06
  A 2.67 2.67 0.0 0 1 804.80 704.84
  C 801.59 707.43 797.58 709.20 793.26 707.32
  Q 787.97 705.01 784.67 700.90
  C 781.06 696.40 782.26 692.00 785.17 687.64
  A 3.26 3.25 -74.6 0 1 787.72 686.19
  Q 797.27 685.70 803.78 692.88
  C 806.63 696.02 806.18 699.04 805.77 703.06
  Z"
/>
<path fill="#000000" d="
  M 326.11 740.81
  A 2.64 2.62 54.4 0 1 325.71 743.30
  L 321.18 749.14
  A 1.79 1.78 17.9 0 1 319.84 749.82
  C 314.38 750.06 309.00 750.57 306.56 744.20
  Q 305.34 741.01 305.30 740.41
  A 3.29 3.21 -39.0 0 1 305.44 739.23
  Q 306.99 734.26 307.14 728.34
  C 307.22 725.32 308.32 722.92 308.39 719.89
  Q 308.73 705.68 308.70 703.00
  Q 308.68 701.78 310.97 696.00
  A 2.29 2.26 82.2 0 1 311.69 695.04
  Q 318.49 689.80 325.24 695.16
  A 2.11 2.08 11.0 0 1 325.95 696.20
  L 327.72 702.04
  A 3.77 3.42 -57.4 0 1 327.87 702.93
  L 328.23 709.21
  A 4.87 4.84 -57.1 0 0 328.54 710.68
  L 329.48 713.17
  A 4.77 4.73 32.9 0 1 329.77 714.49
  Q 330.00 717.90 330.88 723.98
  C 331.06 725.16 330.00 727.34 328.79 728.65
  Q 325.74 731.96 325.08 737.44
  A 1.67 1.59 40.0 0 0 325.16 738.15
  L 326.11 740.81
  Z"
/>
<path fill="#000000" d="
  M 323.27 839.77
  C 321.65 841.87 319.92 843.44 319.88 845.56
  Q 319.83 848.06 320.04 853.39
  A 1.72 1.70 -21.6 0 1 319.44 854.75
  Q 315.52 858.07 310.63 860.03
  A 2.57 2.56 -39.1 0 1 308.26 859.79
  Q 305.94 858.27 303.12 857.56
  A 0.97 0.97 0.0 0 1 302.37 856.60
  Q 302.42 852.57 301.02 849.13
  A 2.70 2.69 -56.2 0 1 300.82 848.11
  L 300.82 836.96
  A 1.46 1.36 58.3 0 1 300.93 836.41
  C 301.76 834.34 302.47 833.02 301.83 831.07
  C 300.82 827.98 301.60 825.45 301.03 822.65
  Q 300.61 820.60 300.94 816.48
  A 2.22 2.18 38.5 0 0 300.83 815.58
  L 299.67 812.18
  A 2.62 2.62 0.0 0 1 300.44 809.34
  Q 303.94 806.30 301.28 801.84
  Q 300.68 800.83 300.67 796.32
  A 1.81 1.79 64.5 0 1 301.06 795.20
  C 303.92 791.63 305.84 789.38 304.05 784.47
  A 1.67 1.66 39.7 0 1 303.97 783.63
  L 304.96 777.34
  A 0.66 0.65 -86.8 0 1 305.58 776.78
  Q 309.36 776.59 312.53 775.36
  C 315.55 774.18 317.36 774.75 319.39 776.66
  Q 322.27 779.37 323.23 783.38
  Q 324.44 788.44 323.95 800.25
  A 0.83 0.57 68.2 0 1 323.90 800.47
  L 322.52 803.53
  A 4.68 4.62 57.4 0 0 322.10 805.51
  Q 322.11 809.23 320.64 812.90
  A 3.93 3.79 -34.8 0 0 320.37 814.26
  L 320.18 826.74
  A 4.27 4.20 -56.4 0 0 320.52 828.50
  Q 322.01 832.04 322.04 835.21
  A 4.72 4.65 -58.9 0 0 322.55 837.34
  L 323.35 838.92
  A 0.80 0.80 0.0 0 1 323.27 839.77
  Z"
/>
<path fill="#000000" d="
  M 795.17 819.30
  L 793.50 824.29
  A 1.60 1.59 0.7 0 1 792.44 825.32
  Q 782.55 828.26 775.07 821.47
  C 771.25 818.00 772.52 811.98 775.64 808.66
  C 777.11 807.09 777.90 806.27 780.04 806.40
  Q 782.05 806.52 785.70 806.50
  C 787.98 806.49 791.26 810.55 792.62 811.70
  A 3.49 3.47 14.0 0 1 793.79 813.64
  Q 794.59 817.38 794.94 817.95
  A 1.48 1.46 -55.0 0 1 795.17 819.30
  Z"
/>
</svg>
