<?xml version="1.0" encoding="UTF-8" standalone="no"?>
<!DOCTYPE svg PUBLIC "-//W3C//DTD SVG 1.1//EN" "http://www.w3.org/Graphics/SVG/1.1/DTD/svg11.dtd">
<svg xmlns="http://www.w3.org/2000/svg" version="1.1" viewBox="0.00 0.00 1200.00 1200.00">
<path fill="#000000" d="
  M 328.01 586.91
  L 328.53 586.55
  A 2.21 2.19 -17.7 0 0 329.47 584.75
  C 329.49 581.84 329.72 580.54 332.03 578.62
  Q 336.24 575.11 336.74 573.96
  Q 339.33 568.03 339.37 567.95
  A 5.88 5.88 0.0 0 1 340.09 566.87
  C 342.03 564.63 345.41 564.01 347.81 562.53
  Q 355.37 557.87 360.64 553.89
  C 361.60 553.17 364.13 551.95 365.60 551.61
  Q 369.78 550.63 373.26 549.13
  A 1.24 1.24 0.0 0 1 374.26 549.13
  L 377.40 550.49
  A 4.05 4.05 0.0 0 0 378.95 550.84
  Q 387.46 551.06 393.46 549.43
  C 397.06 548.45 397.15 551.01 399.68 550.92
  Q 403.03 550.80 404.42 550.83
  C 407.66 550.90 410.01 549.83 412.88 547.94
  A 1.49 1.48 -44.7 0 1 414.53 547.94
  L 418.28 550.43
  A 0.58 0.53 -20.8 0 0 418.53 550.53
  L 425.06 551.45
  A 1.45 1.45 0.0 0 0 425.40 551.45
  Q 434.57 550.36 447.52 551.11
  A 6.82 6.37 52.1 0 1 448.71 551.30
  Q 456.08 553.28 464.25 553.09
  A 1.49 1.42 52.1 0 1 464.78 553.17
  L 468.48 554.48
  A 4.40 4.38 55.0 0 0 469.88 554.73
  L 486.49 555.03
  A 2.83 2.73 -34.7 0 1 487.23 555.15
  L 491.78 556.59
  A 6.21 6.11 -35.7 0 0 493.65 556.88
  L 500.46 556.88
  A 1.51 1.42 55.5 0 1 501.06 557.01
  C 503.17 557.94 508.35 559.66 510.70 558.70
  A 1.62 1.58 -84.9 0 0 511.48 558.03
  Q 512.14 556.90 513.61 554.12
  C 514.94 551.59 517.89 549.33 519.70 546.90
  Q 526.60 537.68 529.97 529.98
  A 2.16 2.14 84.5 0 1 530.69 529.10
  C 532.62 527.71 534.84 526.67 535.17 524.04
  Q 535.73 519.64 538.64 516.42
  C 541.46 513.32 543.94 509.83 546.22 507.38
  A 3.83 3.83 0.0 0 0 547.16 505.65
  C 549.08 497.89 557.06 494.07 557.64 485.66
  A 5.27 5.22 66.0 0 1 558.71 482.83
  C 562.74 477.61 565.22 474.77 567.91 470.35
  C 571.08 465.14 576.93 460.74 578.86 457.33
  Q 582.39 451.08 586.44 444.18
  C 587.26 442.77 587.88 440.46 588.97 438.98
  Q 590.72 436.62 592.35 433.48
  A 9.79 9.51 80.7 0 1 593.80 431.40
  Q 597.48 427.36 599.52 422.47
  A 5.82 5.70 78.1 0 1 600.55 420.85
  C 604.78 416.17 608.43 413.06 610.08 406.61
  C 610.73 404.05 613.98 401.15 615.77 399.19
  A 5.03 4.96 -14.1 0 0 616.79 397.51
  C 618.35 393.29 619.24 388.28 622.93 385.98
  Q 624.14 385.23 626.99 383.75
  A 3.51 3.44 1.3 0 0 628.40 382.43
  Q 631.06 378.00 631.22 376.93
  Q 631.77 373.42 633.88 370.99
  A 3.29 3.13 78.3 0 0 634.41 370.14
  L 636.03 366.19
  A 3.04 3.00 84.8 0 1 637.12 364.86
  C 639.09 363.53 641.94 363.13 643.01 360.53
  Q 644.48 356.99 645.01 352.76
  C 645.32 350.28 646.31 348.71 648.58 347.22
  Q 651.07 345.59 651.35 344.80
  Q 652.59 341.35 655.27 338.17
  C 659.35 333.35 661.65 329.72 661.84 324.24
  A 2.48 2.45 -12.6 0 1 663.20 322.13
  C 667.13 320.16 668.63 314.97 672.40 312.48
  Q 676.35 309.87 682.33 311.32
  A 2.22 2.17 79.5 0 1 683.64 312.24
  Q 686.98 317.21 687.03 322.03
  A 1.32 1.32 0.0 0 0 689.07 323.12
  Q 690.77 322.01 692.37 320.52
  C 693.90 319.11 695.10 318.55 697.61 317.42
  A 2.04 2.02 84.7 0 0 698.75 316.03
  C 699.43 313.24 699.73 311.93 701.52 309.91
  C 705.70 305.22 710.16 300.84 713.68 296.00
  A 10.28 9.99 -14.4 0 0 714.62 294.46
  C 717.24 289.20 719.07 287.90 724.03 282.95
  Q 727.43 279.56 723.99 275.80
  Q 720.52 272.00 716.62 268.82
  Q 714.48 267.07 713.17 265.47
  C 710.23 261.90 708.51 260.11 706.11 255.83
  Q 704.13 252.29 702.48 249.75
  Q 701.78 248.68 701.23 244.69
  A 5.69 5.62 31.7 0 0 700.94 243.50
  C 699.47 239.47 697.87 237.14 696.02 233.13
  Q 695.32 231.61 695.38 228.80
  C 695.47 225.15 692.64 222.59 691.69 219.78
  Q 690.86 217.31 688.16 211.35
  A 7.87 7.68 31.7 0 1 687.49 208.66
  Q 687.13 202.99 683.03 197.72
  Q 682.10 196.52 680.90 189.73
  A 2.69 2.37 31.9 0 0 680.74 189.20
  L 676.11 179.03
  A 2.58 2.50 31.1 0 1 675.90 178.24
  L 675.24 172.61
  A 4.21 4.03 -62.2 0 0 674.87 171.32
  Q 673.43 168.24 673.24 164.21
  A 2.43 2.38 34.9 0 0 673.14 163.68
  L 670.64 155.40
  A 3.41 3.25 20.4 0 0 670.20 154.50
  C 668.10 151.46 666.79 149.77 665.62 146.45
  A 4.29 4.26 34.9 0 1 665.37 145.07
  C 665.32 141.72 665.59 137.17 664.15 134.42
  C 662.80 131.82 659.78 130.84 659.39 127.43
  Q 658.96 123.69 658.67 122.87
  Q 656.48 116.59 655.88 114.56
  A 8.69 8.63 33.5 0 1 655.55 112.97
  Q 655.32 111.00 655.36 106.16
  Q 655.42 99.93 655.55 99.33
  C 656.37 95.55 660.65 91.06 665.11 91.62
  Q 670.17 92.26 674.01 94.18
  Q 675.86 95.09 682.44 97.11
  Q 685.65 98.10 690.98 102.26
  A 4.12 3.99 -89.0 0 1 691.84 103.18
  C 694.57 107.23 698.01 109.32 702.38 111.42
  A 4.16 4.13 82.4 0 1 703.74 112.47
  Q 705.93 115.01 709.31 116.38
  C 713.76 118.19 716.78 121.07 719.68 124.08
  Q 720.92 125.36 727.77 129.53
  C 732.78 132.58 736.95 138.65 740.97 142.54
  A 17.46 17.12 4.9 0 1 743.06 144.97
  Q 745.59 148.49 746.59 149.18
  C 750.35 151.77 752.40 153.02 754.86 155.59
  Q 760.35 161.34 762.12 162.92
  A 9.13 9.05 82.1 0 0 763.43 163.92
  Q 768.81 167.40 770.71 170.05
  Q 775.54 176.78 778.73 181.51
  A 5.89 5.83 -88.3 0 0 779.98 182.85
  C 783.03 185.25 786.26 188.22 788.36 191.79
  Q 788.77 192.49 788.77 196.27
  Q 788.77 198.70 789.62 200.85
  A 2.56 2.56 0.0 0 1 789.76 202.25
  C 789.53 203.47 788.89 204.62 788.90 206.28
  Q 788.91 208.45 788.06 209.82
  C 786.65 212.09 784.89 213.97 783.54 216.85
  Q 781.65 220.89 778.55 225.46
  A 1.63 1.62 33.9 0 0 779.00 227.72
  L 781.22 229.20
  A 1.91 1.89 1.8 0 1 781.80 229.81
  L 785.37 235.81
  A 0.73 0.68 1.2 0 0 785.66 236.09
  L 789.76 238.46
  A 2.25 2.24 -42.6 0 0 791.85 238.54
  L 797.59 235.74
  A 0.50 0.42 -76.7 0 0 797.75 235.62
  L 812.59 220.23
  A 3.24 3.18 -77.0 0 1 813.86 219.42
  L 820.43 217.25
  A 1.74 1.70 -43.9 0 1 821.50 217.26
  L 832.02 220.97
  A 1.77 1.75 -2.4 0 1 833.04 221.90
  L 837.05 230.75
  A 3.86 3.83 4.7 0 0 838.39 232.32
  L 846.92 238.00
  A 1.90 1.88 83.9 0 1 847.30 238.31
  L 855.10 246.01
  A 6.61 6.53 -77.4 0 1 856.69 248.55
  Q 858.01 252.39 859.92 256.78
  Q 861.03 259.33 860.11 265.12
  C 859.67 267.89 856.20 273.36 854.33 275.54
  Q 851.79 278.53 849.65 281.29
  A 5.02 4.89 -84.8 0 1 848.13 282.59
  L 847.38 283.00
  A 1.26 1.25 -16.0 0 0 846.73 284.16
  Q 846.94 287.73 843.99 289.28
  C 838.55 292.14 834.84 298.65 831.83 301.83
  Q 830.85 302.87 826.49 305.73
  Q 825.44 306.41 823.23 309.18
  A 3.68 3.62 -16.6 0 0 822.66 310.21
  C 821.24 314.09 819.22 318.64 816.34 321.49
  A 4.76 4.39 5.0 0 1 815.42 322.20
  C 810.42 325.14 805.91 328.33 803.66 333.85
  A 1.14 1.13 17.3 0 1 802.36 334.53
  Q 799.68 333.91 797.13 334.10
  C 794.06 334.33 791.01 333.18 788.84 331.86
  C 785.87 330.05 781.61 329.17 778.66 327.02
  A 1.12 1.11 -35.6 0 0 777.65 326.86
  Q 772.72 328.52 768.73 331.31
  C 767.11 332.45 766.48 334.21 765.51 336.32
  A 0.88 0.79 -8.1 0 1 765.24 336.64
  L 761.93 338.95
  A 1.31 1.30 85.4 0 0 761.49 339.47
  L 759.52 343.50
  A 1.05 1.02 -7.2 0 1 759.32 343.75
  Q 749.98 351.28 747.20 355.73
  Q 743.33 361.94 741.99 362.80
  A 2.60 2.59 -11.4 0 0 740.85 364.51
  Q 740.28 367.78 736.98 371.93
  C 735.91 373.27 736.45 375.06 737.73 376.26
  Q 741.25 379.55 743.45 383.73
  A 4.91 4.89 -85.2 0 0 744.76 385.29
  Q 746.29 386.49 752.06 393.19
  Q 753.82 395.24 758.19 398.76
  C 762.70 402.38 766.13 405.90 770.21 409.22
  A 1.15 0.97 83.6 0 1 770.41 409.41
  L 786.13 428.36
  A 1.33 1.28 -1.1 0 0 786.41 428.62
  Q 789.92 431.32 795.24 431.06
  C 799.35 430.86 802.23 434.42 803.99 437.85
  C 805.95 441.66 804.63 447.96 803.09 451.57
  Q 802.97 451.84 801.96 456.94
  C 801.47 459.43 796.76 463.42 793.71 466.38
  C 791.84 468.18 793.24 470.70 791.84 472.87
  Q 789.32 476.78 786.04 478.68
  A 3.49 3.47 87.0 0 0 784.59 480.30
  Q 780.80 488.97 773.70 496.42
  A 2.74 2.69 78.9 0 0 773.14 497.27
  L 767.64 509.90
  A 3.24 2.44 85.2 0 1 767.44 510.26
  Q 765.45 513.13 761.15 519.37
  Q 759.22 522.16 758.48 525.71
  A 5.37 5.30 69.0 0 1 757.60 527.72
  C 754.62 531.88 752.41 536.66 748.90 541.00
  Q 742.39 549.06 742.00 549.46
  A 3.84 3.72 -12.3 0 0 741.25 550.59
  Q 739.55 554.54 736.46 557.95
  C 734.70 559.88 734.59 562.39 733.71 565.00
  C 732.81 567.70 729.56 569.43 728.47 572.63
  Q 727.27 576.12 724.58 578.45
  A 5.48 5.42 -8.9 0 0 723.17 580.36
  Q 721.33 584.51 720.36 585.36
  Q 717.06 588.27 715.01 590.84
  A 1.10 1.10 0.0 0 0 715.43 592.54
  C 716.25 592.90 718.48 593.19 719.59 593.06
  Q 722.96 592.65 725.99 594.40
  A 2.12 2.11 43.5 0 0 728.17 594.35
  C 730.90 592.63 732.99 592.50 736.24 593.64
  Q 743.51 596.21 745.25 597.08
  A 2.15 2.04 -30.6 0 0 746.17 597.29
  L 749.93 597.29
  A 2.81 2.72 55.8 0 1 751.03 597.52
  L 754.73 599.13
  A 2.49 2.47 -33.9 0 0 755.82 599.34
  L 760.89 599.16
  A 0.98 0.92 -31.7 0 1 761.34 599.25
  Q 770.84 603.68 781.63 602.58
  C 782.92 602.44 786.11 604.43 788.12 604.68
  Q 791.60 605.11 794.40 606.28
  A 5.48 5.44 56.8 0 0 796.42 606.71
  C 800.40 606.82 804.31 608.19 808.12 608.47
  Q 811.40 608.71 814.67 608.86
  C 821.24 609.17 827.24 611.81 833.70 612.42
  Q 834.35 612.48 842.87 613.73
  A 5.31 5.18 62.4 0 1 844.58 614.29
  C 848.04 616.15 851.40 616.49 855.93 617.01
  A 12.24 11.88 -31.8 0 1 858.31 617.53
  Q 862.60 618.92 865.43 618.89
  Q 867.03 618.88 869.62 619.88
  Q 873.08 621.23 877.12 619.52
  A 3.39 3.37 -45.7 0 1 879.65 619.48
  L 890.34 623.64
  A 3.65 3.56 72.3 0 1 891.13 624.06
  C 894.92 626.72 898.27 626.92 903.78 627.05
  C 905.99 627.10 908.40 629.37 910.26 630.22
  Q 913.68 631.77 914.09 631.99
  A 10.44 10.44 0.0 0 1 916.69 633.81
  L 924.19 641.00
  A 1.14 1.13 30.7 0 1 924.49 642.16
  L 921.86 650.74
  A 0.50 0.39 -49.3 0 0 921.85 650.95
  L 923.08 660.93
  A 2.21 2.19 27.4 0 0 923.34 661.74
  Q 923.98 662.97 924.44 664.03
  C 926.22 668.16 921.98 668.31 922.31 671.96
  Q 922.75 677.02 923.10 678.72
  A 1.76 1.73 -72.9 0 0 923.54 679.57
  C 925.30 681.45 927.04 680.09 928.88 678.78
  A 2.91 2.89 -53.0 0 1 931.53 678.40
  L 936.92 680.30
  A 8.22 8.21 49.6 0 0 941.13 680.64
  C 944.63 680.02 946.98 679.91 951.17 680.39
  Q 957.10 681.07 963.28 678.99
  Q 964.44 678.61 970.58 679.21
  A 4.83 4.83 0.0 0 0 971.34 679.21
  L 980.48 678.38
  A 1.11 1.11 0.0 0 0 981.48 677.35
  Q 981.86 671.89 980.06 668.00
  A 4.21 4.19 -53.4 0 1 979.71 665.59
  Q 980.24 661.89 979.50 658.17
  A 3.64 3.62 -41.4 0 1 979.62 656.30
  Q 980.48 653.71 982.21 650.98
  C 983.07 649.62 982.08 647.61 982.63 646.07
  Q 983.32 644.10 983.59 643.79
  Q 988.20 638.50 990.83 631.84
  A 12.86 12.39 73.7 0 1 992.15 629.32
  Q 996.95 622.14 998.06 619.02
  C 1001.32 609.79 1003.93 604.64 1003.73 597.16
  A 4.92 4.88 -20.8 0 1 1005.50 593.25
  L 1009.30 590.10
  A 5.05 5.04 77.8 0 0 1010.93 587.57
  L 1014.19 575.78
  A 1.11 0.75 -33.9 0 1 1014.28 575.56
  Q 1017.56 568.80 1020.93 561.07
  C 1021.98 558.66 1025.13 554.49 1025.27 551.99
  C 1025.38 550.05 1025.49 548.06 1026.92 546.32
  Q 1030.19 542.36 1031.61 536.99
  A 7.29 7.20 -17.1 0 1 1033.22 533.99
  Q 1038.34 528.29 1039.52 525.99
  Q 1043.46 518.33 1046.16 513.21
  A 1.86 1.73 -24.4 0 0 1046.29 512.90
  L 1049.84 500.72
  A 6.10 6.02 -17.1 0 1 1051.04 498.49
  Q 1055.49 493.24 1058.64 486.88
  C 1061.10 481.91 1063.25 478.82 1065.75 473.48
  A 4.80 4.77 -89.5 0 1 1068.11 471.14
  L 1072.86 468.98
  A 3.24 3.24 0.0 0 1 1075.60 469.02
  L 1083.92 473.11
  A 3.55 3.54 85.5 0 1 1085.25 474.25
  L 1089.98 481.01
  A 4.31 4.31 0.0 0 1 1090.40 485.18
  L 1089.39 487.50
  A 2.39 2.38 -49.3 0 0 1089.55 489.71
  Q 1092.30 494.07 1089.65 496.05
  A 2.93 2.45 58.7 0 0 1089.13 499.52
  Q 1089.90 500.98 1090.43 502.25
  A 3.38 3.29 34.8 0 1 1090.67 503.49
  Q 1090.68 509.91 1090.69 513.39
  C 1090.70 517.35 1091.72 520.34 1089.86 524.16
  C 1088.29 527.38 1088.67 530.49 1088.78 534.70
  A 3.15 3.06 28.9 0 0 1089.26 536.28
  Q 1089.55 536.74 1090.20 537.70
  A 3.15 3.12 45.4 0 1 1090.19 541.21
  C 1088.12 544.23 1088.63 548.08 1088.37 554.35
  A 1.63 1.61 59.5 0 1 1088.20 555.03
  L 1086.10 559.23
  A 1.16 1.12 52.6 0 0 1086.01 559.99
  L 1087.81 568.35
  A 3.14 3.10 51.0 0 1 1087.62 570.28
  L 1084.92 576.50
  A 1.03 1.02 57.3 0 0 1084.83 576.92
  Q 1084.82 578.36 1084.76 590.50
  Q 1084.76 592.12 1086.30 596.50
  A 5.77 5.71 -55.0 0 1 1086.63 598.42
  L 1086.63 612.03
  A 1.34 1.24 -34.1 0 1 1086.50 612.59
  C 1085.13 615.50 1084.22 616.97 1084.71 619.75
  C 1085.16 622.26 1087.36 625.03 1088.07 627.16
  A 4.26 4.19 -51.8 0 1 1088.32 629.42
  L 1087.76 632.69
  A 2.62 2.54 44.1 0 0 1087.79 633.67
  Q 1088.54 637.02 1087.92 638.16
  Q 1085.10 643.30 1084.57 648.08
  A 7.54 7.46 -30.6 0 1 1084.01 650.22
  Q 1082.98 652.61 1082.76 653.72
  C 1081.71 659.05 1074.57 661.43 1070.61 662.74
  A 8.52 8.32 14.7 0 0 1067.78 664.35
  Q 1066.17 665.74 1064.33 666.77
  C 1060.81 668.75 1054.75 666.86 1054.51 673.24
  Q 1054.35 677.70 1054.93 681.12
  A 3.85 3.85 0.0 0 0 1057.47 684.10
  Q 1058.23 684.37 1060.16 684.79
  C 1062.05 685.21 1064.09 686.74 1066.25 686.83
  Q 1071.08 687.02 1078.02 686.87
  A 1.85 1.83 69.5 0 1 1079.48 687.54
  L 1083.42 692.37
  A 5.88 5.78 -74.4 0 1 1084.43 694.20
  C 1085.00 695.89 1084.79 698.29 1085.51 700.38
  Q 1086.71 703.85 1086.62 706.37
  C 1086.54 708.93 1088.27 711.07 1087.14 713.62
  A 2.64 2.64 0.0 0 0 1087.07 715.61
  Q 1088.62 719.82 1087.58 723.64
  C 1086.60 727.28 1087.15 730.22 1086.24 733.87
  A 6.14 6.01 -43.2 0 0 1086.14 736.26
  C 1086.70 739.94 1086.76 741.53 1085.08 745.66
  A 4.19 4.07 -33.9 0 0 1084.80 746.98
  L 1084.65 750.39
  A 1.81 1.78 66.1 0 1 1084.26 751.42
  L 1079.03 758.06
  A 4.63 4.63 0.0 0 1 1078.06 758.96
  Q 1076.01 760.34 1071.22 764.17
  Q 1069.64 765.43 1066.85 765.78
  C 1064.64 766.06 1062.68 763.94 1060.98 763.99
  Q 1054.69 764.16 1037.32 764.13
  A 2.00 1.74 35.1 0 0 1036.93 764.17
  L 1026.22 766.14
  A 2.05 2.01 21.9 0 0 1025.45 766.46
  Q 1024.05 767.41 1023.08 767.66
  A 1.05 1.05 0.0 0 1 1022.01 767.30
  C 1019.92 764.73 1015.31 765.90 1012.59 766.54
  A 5.16 5.15 48.3 0 1 1009.66 766.37
  C 1007.86 765.72 1005.75 765.02 1004.13 766.15
  A 1.43 1.40 -8.3 0 0 1003.61 766.83
  L 1002.68 769.48
  A 2.99 2.97 -84.0 0 1 1000.27 771.44
  Q 996.29 772.00 992.57 771.87
  Q 987.73 771.71 986.13 767.29
  Q 984.24 762.02 983.58 760.52
  A 1.06 0.93 35.6 0 1 983.48 760.09
  L 983.38 751.97
  A 1.10 1.10 0.0 0 0 981.95 750.94
  Q 978.46 752.05 974.75 752.01
  Q 960.94 751.85 958.59 751.95
  A 4.81 4.80 -35.4 0 1 956.64 751.62
  Q 953.65 750.44 950.44 750.86
  C 947.07 751.31 944.33 750.82 941.61 750.46
  A 5.76 5.71 43.1 0 0 939.86 750.51
  C 938.15 750.85 936.34 751.76 934.32 751.85
  Q 932.03 751.96 929.24 752.61
  A 1.83 1.81 -78.3 0 0 928.14 753.34
  C 924.64 758.14 928.39 762.23 932.15 765.72
  A 0.94 0.93 -49.7 0 1 932.25 766.98
  C 929.69 770.24 931.15 772.78 930.37 776.28
  Q 930.09 777.51 929.61 779.86
  C 929.28 781.45 930.46 783.95 930.57 785.82
  Q 930.89 791.10 929.29 795.64
  A 2.64 1.82 -55.5 0 0 929.19 795.98
  Q 928.36 799.64 929.03 808.76
  Q 929.14 810.23 928.34 815.62
  Q 927.88 818.72 924.66 820.50
  A 2.25 2.24 -56.8 0 1 923.38 820.77
  Q 918.83 820.43 917.00 820.15
  C 913.00 819.54 912.28 823.10 909.04 824.48
  Q 908.14 824.86 905.68 824.39
  Q 903.48 823.97 900.45 824.15
  A 2.57 2.47 -65.7 0 0 899.00 824.73
  L 897.30 826.14
  A 1.04 1.03 36.8 0 1 896.22 826.29
  L 887.94 822.69
  A 0.84 0.82 41.2 0 0 887.19 822.73
  Q 883.91 824.58 879.27 823.91
  Q 878.62 823.82 871.17 822.70
  A 7.90 7.82 -29.3 0 1 869.39 822.21
  C 867.51 821.44 866.30 820.82 864.21 820.39
  Q 857.83 819.08 853.31 817.42
  A 4.59 4.48 -34.0 0 0 851.71 817.13
  C 848.57 817.12 845.36 815.56 842.89 815.85
  C 841.29 816.03 838.67 814.72 837.52 815.08
  C 831.06 817.12 822.75 814.24 817.05 811.09
  A 8.63 8.50 60.3 0 0 813.32 810.04
  C 809.63 809.88 808.24 810.09 804.99 809.17
  Q 801.97 808.32 799.44 808.28
  A 4.76 4.62 -32.1 0 1 797.61 807.89
  Q 794.16 806.41 790.08 805.91
  A 10.15 9.87 -30.7 0 1 787.83 805.37
  C 785.24 804.41 783.47 803.20 781.26 805.26
  A 2.91 2.73 -49.6 0 1 777.81 805.65
  C 775.49 804.17 773.33 803.73 770.04 803.94
  Q 767.91 804.08 766.12 802.33
  A 1.61 1.61 0.0 0 0 763.83 802.38
  C 761.00 805.38 758.08 802.90 754.99 801.58
  A 2.91 2.86 51.7 0 0 753.40 801.38
  L 746.99 802.36
  A 2.13 2.12 89.5 0 0 745.21 804.18
  Q 744.78 807.51 744.71 807.93
  C 744.46 809.51 742.91 810.62 743.96 812.37
  Q 745.94 815.67 747.24 819.49
  A 2.18 2.16 -74.9 0 0 747.62 820.16
  L 749.73 822.70
  A 4.06 3.98 -70.5 0 1 750.58 824.53
  C 750.82 825.80 751.07 831.11 749.87 832.85
  C 749.51 833.36 749.45 834.19 749.73 834.73
  C 752.52 840.17 754.18 843.25 754.81 848.53
  A 4.02 4.01 24.2 0 0 755.50 850.34
  L 757.15 852.70
  A 2.18 2.16 70.2 0 0 759.08 853.62
  Q 763.56 853.29 767.22 851.74
  A 5.37 5.24 -56.7 0 1 769.13 851.32
  L 776.26 851.07
  A 3.94 3.91 -37.1 0 1 777.53 851.24
  C 781.19 852.37 782.44 851.93 785.51 851.60
  A 2.36 2.34 56.8 0 1 786.97 851.91
  C 789.15 853.18 792.94 854.67 795.47 853.92
  Q 798.99 852.88 799.89 853.08
  Q 802.63 853.69 806.24 851.53
  A 1.03 1.02 51.7 0 1 807.49 851.68
  Q 810.88 855.08 815.28 853.57
  Q 817.48 852.82 819.33 852.80
  Q 822.83 852.75 830.25 852.76
  Q 833.22 852.77 834.97 852.38
  Q 844.94 850.22 854.78 851.23
  A 3.49 3.43 -30.5 0 1 855.78 851.48
  Q 861.00 853.60 864.55 858.76
  C 866.40 861.47 873.00 859.20 875.30 858.20
  A 5.67 5.52 33.9 0 1 877.78 857.75
  C 884.02 858.07 889.45 856.93 895.05 856.54
  A 6.49 6.49 0.0 0 0 896.89 856.13
  C 900.40 854.79 903.22 852.60 907.21 853.09
  C 911.41 853.61 914.25 854.33 918.91 854.88
  C 924.51 855.54 928.74 858.38 932.32 862.76
  Q 933.41 864.10 936.43 867.50
  A 1.99 1.97 11.0 0 1 936.73 867.94
  L 939.51 873.69
  A 1.29 1.28 -14.2 0 0 940.73 874.41
  Q 947.77 874.06 954.44 876.56
  Q 963.13 879.81 973.74 888.89
  C 975.97 890.80 975.63 892.34 979.48 892.49
  C 981.72 892.58 986.59 892.55 989.30 893.31
  Q 993.97 894.61 998.07 896.57
  A 5.26 5.24 79.4 0 1 999.44 897.51
  Q 1003.06 900.93 1007.47 902.88
  A 2.33 2.32 5.9 0 1 1008.80 904.51
  L 1009.65 908.44
  A 0.66 0.55 28.7 0 0 1009.74 908.67
  Q 1011.91 912.44 1014.42 918.05
  C 1015.47 920.41 1018.52 923.20 1018.51 926.19
  Q 1018.49 932.28 1021.33 939.22
  C 1022.23 941.41 1023.75 942.90 1025.22 944.52
  A 5.65 5.62 24.1 0 1 1026.67 948.29
  L 1026.67 954.52
  A 4.45 4.45 0.0 0 1 1025.98 956.90
  Q 1023.96 960.08 1022.65 962.64
  Q 1021.38 965.13 1017.10 969.05
  A 2.62 2.60 18.0 0 1 1015.81 969.70
  C 1012.16 970.41 1010.00 970.60 1007.32 972.42
  C 1004.06 974.64 996.73 973.96 991.66 973.89
  A 4.81 4.79 -31.7 0 1 989.70 973.43
  C 983.93 970.70 980.46 965.50 975.53 962.95
  Q 974.76 962.55 972.81 960.14
  A 1.04 0.90 14.1 0 1 972.69 959.97
  L 970.31 955.02
  A 1.45 1.42 7.5 0 0 969.91 954.51
  L 962.66 948.79
  A 1.01 1.01 0.0 0 0 961.05 949.77
  C 961.65 952.93 964.98 952.44 965.87 954.97
  Q 967.05 958.28 966.45 961.50
  Q 966.02 963.87 966.17 964.51
  C 967.46 969.92 966.62 973.10 962.81 977.12
  Q 959.40 980.71 958.33 982.90
  A 1.26 1.24 7.1 0 1 957.44 983.58
  Q 954.30 984.20 951.05 986.44
  A 3.89 3.84 22.7 0 1 949.46 987.08
  C 945.95 987.65 944.81 987.37 941.64 986.26
  A 6.47 6.36 -34.8 0 0 939.49 985.89
  Q 927.97 985.89 926.01 985.75
  C 921.63 985.42 919.10 982.71 916.07 979.97
  A 6.92 6.83 79.9 0 0 914.74 979.03
  Q 910.59 976.75 903.88 974.46
  Q 902.12 973.86 899.02 973.82
  Q 893.51 973.74 889.99 969.49
  A 4.37 4.36 70.1 0 0 886.63 967.91
  L 875.68 967.91
  A 1.79 1.72 54.9 0 1 875.02 967.78
  L 868.62 965.30
  A 1.84 1.83 26.5 0 0 866.40 966.04
  Q 863.30 971.06 859.50 978.14
  Q 857.68 981.54 852.06 984.91
  A 2.32 2.31 -57.0 0 1 850.57 985.23
  C 849.04 985.04 847.68 984.02 846.16 984.14
  Q 840.74 984.54 821.38 984.08
  A 2.10 2.08 -29.6 0 1 820.39 983.81
  Q 814.19 980.31 807.30 983.83
  Q 803.99 985.52 801.65 983.23
  A 2.80 2.68 -38.8 0 0 798.26 982.94
  Q 796.05 984.36 793.25 984.31
  Q 784.15 984.16 780.14 984.12
  A 2.43 2.37 -56.4 0 0 779.16 984.33
  C 776.51 985.50 774.34 984.28 771.83 984.25
  Q 764.33 984.17 758.68 984.52
  A 1.37 1.36 4.6 0 0 757.44 985.57
  Q 756.63 988.99 754.03 997.25
  Q 753.26 999.68 752.64 1000.57
  C 751.20 1002.64 749.19 1004.21 748.72 1006.85
  Q 748.39 1008.72 747.79 1009.93
  A 4.23 4.08 -10.2 0 1 747.01 1011.01
  Q 743.52 1014.47 742.50 1016.52
  Q 739.58 1022.38 738.83 1023.77
  A 5.89 5.48 -12.0 0 1 738.17 1024.71
  Q 733.68 1029.84 732.18 1032.21
  Q 731.38 1033.48 729.82 1037.80
  Q 729.64 1038.30 727.47 1042.11
  A 3.54 3.42 -6.2 0 1 726.67 1043.07
  C 722.81 1046.29 719.19 1051.39 715.07 1055.26
  Q 708.24 1061.66 705.65 1064.68
  Q 700.13 1071.12 698.63 1072.50
  Q 696.68 1074.30 693.86 1077.95
  C 691.70 1080.74 689.02 1081.92 686.70 1084.67
  Q 680.18 1092.39 671.15 1100.81
  A 3.38 3.30 10.1 0 1 670.27 1101.41
  Q 663.84 1104.41 659.14 1109.37
  A 5.82 5.73 -83.6 0 1 658.03 1110.27
  C 654.36 1112.55 650.95 1115.42 646.35 1118.17
  Q 642.42 1120.51 640.28 1123.51
  Q 639.41 1124.72 637.20 1125.37
  C 632.55 1126.75 628.00 1129.36 623.42 1132.19
  C 620.14 1134.21 618.40 1138.74 614.63 1140.31
  A 1.93 1.93 0.0 0 1 612.56 1139.92
  L 610.83 1138.26
  A 1.20 1.20 0.0 0 0 609.48 1138.04
  C 604.60 1140.43 601.67 1141.30 597.98 1144.73
  A 3.98 3.93 20.3 0 1 595.71 1145.76
  Q 591.17 1146.22 586.27 1146.27
  C 584.50 1146.29 580.84 1147.85 579.01 1149.26
  C 575.71 1151.81 571.88 1153.39 567.30 1154.34
  C 563.66 1155.10 561.00 1157.39 557.61 1158.57
  Q 554.51 1159.64 548.11 1161.48
  A 9.11 8.75 -52.5 0 1 545.94 1161.81
  C 542.15 1161.92 538.81 1161.69 534.89 1163.11
  Q 532.23 1164.08 528.88 1164.01
  A 3.81 3.70 35.9 0 0 527.58 1164.20
  L 514.43 1168.36
  A 1.57 1.56 -32.1 0 1 512.88 1168.01
  Q 510.25 1165.53 507.12 1167.25
  C 505.52 1168.14 504.19 1167.97 502.35 1167.85
  A 4.26 4.16 37.6 0 0 500.83 1168.03
  C 499.76 1168.37 498.59 1169.36 496.96 1169.75
  Q 492.20 1170.88 489.23 1167.25
  A 2.72 2.69 51.0 0 0 485.46 1166.83
  C 480.79 1170.57 476.33 1165.03 472.54 1167.61
  C 471.15 1168.55 470.09 1168.55 468.57 1167.76
  Q 465.43 1166.14 463.27 1166.27
  Q 453.12 1166.88 446.99 1164.38
  A 1.59 1.52 -30.3 0 0 446.53 1164.27
  L 430.95 1163.59
  A 3.82 3.64 54.0 0 1 429.91 1163.40
  Q 425.64 1162.00 420.41 1161.62
  C 418.11 1161.45 415.63 1159.43 413.82 1158.78
  Q 409.37 1157.17 408.23 1156.54
  A 1.73 1.73 0.0 0 0 406.82 1156.43
  Q 404.82 1157.14 403.96 1156.88
  Q 395.10 1154.17 387.81 1153.82
  Q 386.78 1153.78 382.51 1150.73
  A 3.76 3.68 72.2 0 0 381.56 1150.23
  L 371.29 1146.61
  A 8.68 8.36 56.4 0 0 369.39 1146.19
  L 364.72 1145.71
  A 6.36 6.31 69.7 0 1 360.97 1143.97
  L 356.94 1140.08
  A 1.30 0.65 61.1 0 0 356.82 1139.99
  L 349.02 1135.49
  A 0.96 0.95 57.3 0 0 348.44 1135.36
  Q 347.02 1135.50 345.76 1136.27
  A 1.56 1.55 42.4 0 1 344.28 1136.33
  L 334.16 1131.38
  A 6.79 6.62 80.9 0 1 332.28 1129.98
  L 328.60 1126.04
  A 4.61 4.58 -6.9 0 0 327.43 1125.13
  Q 324.71 1123.64 318.87 1120.91
  C 315.59 1119.39 313.03 1117.44 310.16 1115.34
  C 308.18 1113.89 306.76 1111.88 304.69 1110.85
  Q 300.03 1108.53 296.78 1107.49
  A 3.39 3.39 0.0 0 1 294.94 1106.03
  Q 291.42 1100.24 285.59 1095.92
  A 8.18 8.17 87.9 0 1 284.30 1094.72
  Q 280.55 1090.30 279.38 1089.36
  Q 269.76 1081.60 267.74 1079.41
  A 12.88 12.69 -82.9 0 1 266.23 1077.44
  C 263.78 1073.54 261.58 1069.35 258.82 1067.12
  A 6.15 6.10 78.0 0 0 257.63 1066.34
  L 254.51 1064.84
  A 8.59 8.47 85.0 0 1 251.24 1062.06
  L 242.25 1049.20
  A 1.69 1.65 17.8 0 1 242.07 1048.86
  C 240.42 1044.26 238.52 1042.57 234.30 1038.23
  A 13.27 13.11 -83.6 0 1 232.65 1036.14
  Q 230.10 1032.13 228.19 1030.08
  C 224.88 1026.54 223.56 1023.45 223.20 1018.99
  A 3.93 3.81 33.5 0 0 222.96 1017.90
  L 216.44 1000.44
  A 2.00 1.84 -76.3 0 0 216.13 999.88
  Q 215.27 998.77 214.05 997.73
  C 212.17 996.13 211.67 994.68 211.03 992.00
  C 210.67 990.46 209.14 988.90 207.33 987.67
  Q 202.85 984.62 203.68 978.15
  A 0.75 0.71 66.4 0 1 203.79 977.84
  L 205.18 975.43
  A 1.36 1.35 50.1 0 0 205.28 974.28
  Q 204.43 971.90 204.25 969.36
  C 204.07 966.76 202.57 963.92 201.75 962.46
  A 2.90 2.90 0.0 0 1 202.04 959.03
  L 204.08 956.70
  A 5.37 5.34 66.6 0 0 205.40 953.34
  Q 205.42 952.96 205.36 942.78
  C 205.35 940.46 204.20 938.34 203.90 936.66
  Q 203.29 933.21 202.27 930.06
  A 3.77 3.61 40.4 0 1 202.11 928.50
  Q 202.38 926.24 203.37 923.59
  C 204.36 920.96 201.59 917.56 201.52 915.00
  Q 201.38 909.69 201.16 907.23
  A 7.59 7.12 35.6 0 0 200.87 905.77
  Q 198.35 897.47 197.41 894.78
  Q 197.17 894.09 197.84 892.38
  C 198.57 890.49 198.39 889.42 197.96 887.49
  C 197.39 884.93 197.71 882.77 197.99 879.91
  A 6.05 5.79 -47.6 0 0 197.96 878.58
  Q 197.30 874.04 196.58 870.33
  C 195.27 863.70 195.64 858.58 195.48 851.98
  Q 195.41 849.16 196.99 847.41
  A 3.63 3.62 -35.4 0 0 197.64 843.58
  Q 196.19 840.09 196.16 840.04
  A 8.10 7.96 31.5 0 1 195.66 838.04
  C 195.29 834.63 195.76 830.09 194.96 826.84
  C 194.45 824.78 195.38 822.29 195.37 819.74
  Q 195.33 810.26 195.13 808.52
  A 1.19 0.91 -63.9 0 0 195.07 808.22
  L 192.55 800.10
  A 1.47 1.46 -47.5 0 1 192.52 799.33
  Q 193.09 796.72 193.50 794.46
  C 193.89 792.36 195.84 791.23 195.36 788.69
  C 195.08 787.23 194.18 786.25 193.54 785.04
  A 3.51 3.46 -59.6 0 1 193.06 783.13
  L 193.44 774.23
  A 2.66 2.56 64.4 0 1 193.90 772.84
  C 195.47 770.59 195.61 769.72 194.47 767.17
  C 192.68 763.13 193.46 759.39 194.13 754.25
  C 194.47 751.67 195.73 749.29 194.92 746.85
  Q 194.35 745.17 194.39 743.17
  Q 194.47 738.32 191.71 732.15
  A 4.26 4.25 -47.3 0 1 191.59 729.02
  L 192.68 725.91
  A 3.96 3.79 55.5 0 0 192.90 724.56
  Q 192.80 719.79 193.32 713.39
  Q 193.48 711.40 193.18 710.16
  C 192.70 708.18 191.15 705.94 191.95 703.87
  Q 193.65 699.46 193.38 692.84
  Q 193.33 691.49 191.93 686.01
  Q 190.74 681.38 191.94 677.60
  Q 193.23 673.53 193.23 672.73
  A 4.90 4.86 -54.9 0 0 192.95 671.10
  C 191.73 667.62 191.56 664.89 190.14 661.52
  C 188.85 658.44 191.28 656.73 191.51 653.75
  Q 191.71 651.15 191.56 645.26
  A 3.21 3.04 55.4 0 1 191.73 644.18
  L 193.15 640.15
  A 0.82 0.75 56.6 0 0 193.19 639.90
  Q 193.39 630.10 193.28 614.60
  C 193.26 611.81 190.77 610.85 192.28 607.22
  C 193.88 603.37 192.86 599.57 193.68 595.61
  C 194.29 592.68 192.59 589.54 192.56 586.25
  A 7.51 6.84 52.6 0 1 192.67 584.99
  Q 193.47 580.49 193.12 579.16
  Q 192.15 575.46 191.84 572.55
  A 2.73 2.64 -39.5 0 1 191.97 571.41
  L 193.05 568.36
  A 3.37 3.32 -35.7 0 0 193.24 567.25
  Q 193.13 554.20 193.49 546.76
  C 193.58 545.09 194.89 543.17 195.13 541.49
  Q 195.99 535.46 193.91 531.27
  A 5.12 5.05 30.6 0 1 193.39 529.31
  Q 193.22 526.10 193.37 519.57
  C 193.42 517.10 195.41 515.39 194.32 512.89
  Q 193.61 511.24 193.51 509.57
  Q 193.07 501.64 193.33 496.88
  A 11.14 11.14 0.0 0 1 194.75 492.05
  C 197.63 486.94 199.74 483.07 201.69 477.53
  Q 202.90 474.09 205.07 471.10
  Q 206.81 468.72 204.60 466.36
  Q 201.77 463.33 195.34 457.15
  A 1.22 0.80 14.9 0 1 195.17 456.96
  L 188.24 447.41
  A 0.67 0.53 -83.7 0 1 188.17 447.30
  Q 181.85 436.03 174.35 426.07
  A 4.29 4.28 26.7 0 1 173.50 423.51
  L 173.50 413.55
  A 2.64 2.59 -56.4 0 0 173.31 412.57
  C 169.96 404.27 172.00 396.79 176.42 389.13
  A 1.89 1.85 -10.7 0 1 176.63 388.83
  L 182.37 382.41
  A 3.58 3.58 0.0 0 0 183.27 379.91
  Q 183.09 374.81 183.84 367.58
  Q 184.17 364.46 184.76 362.34
  Q 185.79 358.63 185.80 357.08
  C 185.80 354.18 189.11 352.08 190.65 349.72
  A 1.64 1.63 -36.8 0 0 190.85 348.35
  C 190.41 346.93 189.62 345.50 189.54 344.16
  Q 189.26 339.47 189.30 333.75
  Q 189.32 330.01 190.21 327.20
  Q 191.22 324.01 196.08 317.55
  Q 205.16 305.49 211.73 298.70
  Q 212.89 297.50 216.91 295.81
  A 2.06 1.99 -78.6 0 0 217.58 295.35
  L 222.56 290.18
  A 3.00 2.97 9.4 0 1 223.49 289.52
  L 229.83 286.64
  A 2.84 2.82 43.3 0 1 232.00 286.58
  C 234.16 287.41 237.54 289.23 240.40 288.84
  A 1.73 1.72 72.3 0 0 241.69 286.33
  Q 240.60 284.23 240.95 282.17
  C 241.83 276.90 240.47 270.18 246.48 267.91
  A 1.50 1.49 79.2 0 0 247.45 266.48
  Q 247.40 264.11 248.48 262.44
  A 2.49 2.32 -6.1 0 1 248.80 262.07
  L 253.14 258.01
  A 2.11 2.10 -42.7 0 0 253.26 255.06
  Q 248.89 250.25 246.19 247.57
  Q 245.14 246.53 234.67 237.36
  A 6.33 6.08 -87.1 0 1 233.56 236.08
  Q 231.48 232.91 228.49 231.44
  A 2.00 1.99 12.8 0 1 227.38 229.69
  L 227.24 217.77
  A 2.47 2.46 -36.8 0 1 227.36 216.95
  L 228.71 212.81
  A 16.19 15.90 -32.7 0 0 229.33 210.08
  Q 230.79 199.17 236.36 191.51
  Q 239.35 187.40 246.88 180.32
  A 6.62 6.20 -6.3 0 0 247.78 179.27
  C 249.72 176.37 250.81 173.78 254.37 171.43
  C 256.89 169.75 257.95 168.88 259.90 167.15
  A 9.90 9.85 -76.3 0 1 262.86 165.34
  Q 267.23 163.63 270.29 160.83
  A 5.39 5.33 -74.3 0 1 272.35 159.66
  Q 276.40 158.44 279.24 155.98
  A 5.30 5.29 -65.3 0 1 282.69 154.70
  L 292.86 154.70
  A 4.99 4.93 -32.1 0 1 294.97 155.17
  C 299.55 157.35 300.48 156.64 304.85 154.85
  A 1.63 1.55 32.4 0 1 305.46 154.73
  L 312.51 154.73
  A 2.85 2.84 69.0 0 1 314.63 155.68
  Q 317.96 159.38 322.94 161.90
  A 9.86 9.49 78.4 0 1 325.09 163.38
  Q 330.11 167.97 336.67 171.91
  A 6.74 6.68 -2.8 0 1 338.53 173.58
  Q 343.05 179.54 349.78 182.99
  C 353.32 184.79 354.95 186.26 356.66 188.82
  Q 357.92 190.71 358.90 191.74
  Q 361.55 194.51 364.43 198.76
  Q 365.34 200.10 367.19 200.48
  C 370.62 201.18 372.84 202.83 374.31 206.20
  C 375.39 208.70 376.95 212.57 379.88 216.10
  A 6.82 6.65 -0.7 0 0 381.06 217.22
  Q 388.27 222.57 390.82 225.97
  Q 394.31 230.60 398.67 234.18
  A 5.15 5.14 18.1 0 1 400.55 237.89
  C 400.74 241.42 400.74 245.14 399.40 249.68
  Q 398.38 253.13 398.93 256.66
  A 4.22 4.19 -23.3 0 1 397.32 260.67
  Q 392.84 264.07 390.15 269.29
  A 8.84 8.70 -11.5 0 1 389.01 270.98
  Q 386.08 274.36 384.60 277.80
  C 383.56 280.22 382.69 281.09 381.02 282.99
  C 379.13 285.16 378.36 287.45 375.92 289.12
  A 1.57 1.56 -9.7 0 0 375.28 290.02
  C 374.12 294.29 373.44 296.91 370.56 299.62
  Q 368.49 301.56 367.40 303.35
  Q 365.56 306.33 361.58 310.57
  A 8.72 8.29 83.8 0 0 360.55 311.92
  C 358.01 316.00 353.36 322.42 348.45 323.43
  Q 344.30 324.28 342.66 325.46
  C 340.95 326.68 339.30 329.39 336.65 329.86
  Q 332.80 330.54 329.17 328.22
  A 3.40 3.30 87.9 0 1 328.21 327.30
  Q 324.39 321.81 318.20 316.38
  A 1.68 1.68 0.0 0 0 316.03 316.34
  Q 314.13 317.89 311.59 317.97
  A 2.45 2.44 12.7 0 0 309.48 319.30
  L 308.26 321.66
  A 1.09 1.04 -4.0 0 1 307.88 322.08
  L 301.78 325.89
  A 1.62 1.61 -38.0 0 0 301.47 328.38
  Q 303.81 330.82 305.36 333.85
  C 306.71 336.49 306.59 340.53 307.87 342.84
  Q 313.60 353.18 312.27 364.96
  A 1.81 1.69 -26.7 0 1 312.00 365.69
  L 308.03 371.66
  A 2.98 2.95 -24.6 0 0 307.55 372.93
  C 306.64 379.64 305.02 383.42 302.61 390.44
  Q 301.81 392.79 300.25 394.66
  Q 297.83 397.56 296.85 401.60
  C 296.32 403.79 295.15 405.19 293.54 407.04
  A 2.28 2.28 0.0 0 0 293.12 409.33
  L 294.08 411.88
  A 5.02 5.02 0.0 0 1 293.98 415.64
  L 292.65 418.70
  A 0.78 0.73 59.1 0 0 292.58 419.02
  L 292.92 433.99
  A 4.63 4.61 -63.1 0 0 293.74 436.52
  Q 294.67 437.85 295.57 439.92
  C 296.74 442.63 296.66 446.52 297.97 448.86
  Q 298.53 449.88 301.52 452.78
  A 6.12 6.08 -83.1 0 1 302.57 454.13
  Q 305.35 459.04 307.02 464.97
  A 6.84 6.83 24.4 0 0 307.40 465.98
  Q 310.41 472.46 306.97 477.99
  Q 306.12 479.35 306.80 481.18
  C 307.79 483.82 308.16 485.43 308.19 488.62
  Q 308.24 493.93 310.03 497.61
  A 4.58 4.53 -59.1 0 1 310.48 499.45
  Q 310.61 505.26 310.64 508.31
  C 310.65 510.08 309.97 511.60 309.92 513.11
  A 2.84 2.80 -60.5 0 0 310.35 514.71
  C 312.08 517.44 314.63 522.25 314.06 525.52
  Q 313.75 527.35 314.03 528.63
  Q 314.52 530.79 314.89 536.77
  Q 314.95 537.76 317.11 542.89
  Q 318.10 545.22 318.43 548.57
  Q 318.71 551.35 319.42 552.85
  C 320.33 554.77 322.49 557.83 322.10 560.15
  Q 321.73 562.36 322.17 563.35
  C 323.13 565.50 324.66 567.67 323.56 569.54
  C 321.48 573.10 323.76 578.62 325.71 581.73
  A 3.29 3.27 29.2 0 1 326.21 583.47
  L 326.21 585.97
  A 1.15 1.14 72.5 0 0 328.01 586.91
  Z
  M 256.83 203.10
  C 259.94 203.18 263.77 199.80 267.45 197.29
  A 8.72 8.70 4.5 0 0 268.81 196.13
  Q 271.36 193.49 274.13 191.82
  A 7.85 7.67 -86.3 0 0 276.29 189.88
  C 278.77 186.64 281.35 183.70 281.22 181.55
  A 2.05 1.84 -10.1 0 0 278.65 179.96
  Q 275.34 180.87 272.96 183.23
  Q 264.81 191.31 257.71 198.11
  A 0.56 0.43 -10.6 0 0 257.61 198.22
  L 255.75 201.01
  A 1.35 1.34 -72.4 0 0 256.83 203.10
  Z
  M 334.82 304.64
  C 335.44 305.33 336.93 305.40 337.51 304.51
  C 340.08 300.64 339.53 296.51 345.68 294.65
  Q 347.15 294.20 348.52 291.88
  Q 352.35 285.36 354.12 279.70
  A 4.87 4.75 76.2 0 1 355.25 277.78
  L 360.20 272.65
  A 2.87 2.76 -13.8 0 0 360.79 271.72
  Q 363.01 265.91 366.77 261.87
  A 1.81 1.69 76.8 0 0 367.16 261.19
  L 368.93 255.12
  A 1.13 1.12 80.7 0 1 369.37 254.50
  L 372.43 252.36
  A 3.46 3.46 0.0 0 0 373.91 249.64
  C 374.14 243.15 369.97 241.02 364.46 239.75
  A 3.05 3.03 -88.1 0 1 362.14 237.25
  Q 361.64 233.96 359.76 231.58
  Q 356.60 227.60 352.94 223.21
  A 12.05 11.65 -1.8 0 0 350.47 220.97
  Q 342.14 215.33 337.31 206.72
  A 4.43 4.35 -82.0 0 0 336.60 205.76
  Q 333.01 201.97 329.87 200.44
  Q 326.73 198.91 325.68 197.90
  A 5.02 4.84 -82.3 0 1 324.66 196.51
  Q 322.63 192.39 321.87 191.88
  Q 318.18 189.42 316.11 187.81
  Q 313.42 185.72 310.67 185.54
  C 307.71 185.35 305.40 187.20 304.90 190.10
  Q 304.56 192.06 304.53 192.16
  A 9.63 9.54 72.3 0 1 303.52 194.14
  L 295.67 205.92
  A 3.26 2.97 -8.7 0 1 295.25 206.44
  Q 292.20 209.51 290.50 212.50
  A 2.14 2.08 -86.4 0 1 289.51 213.40
  C 285.39 215.19 282.30 219.55 279.20 222.70
  C 277.25 224.68 274.00 223.91 271.49 223.53
  A 3.37 3.29 37.6 0 0 269.72 223.74
  C 264.36 225.94 263.21 229.51 265.68 234.62
  Q 266.04 235.37 270.58 239.40
  A 6.43 6.25 79.5 0 0 271.68 240.18
  C 275.70 242.40 276.98 244.35 280.37 248.43
  A 1.37 1.26 84.3 0 0 280.64 248.67
  L 286.66 252.61
  A 2.34 1.19 63.0 0 1 286.88 252.77
  Q 300.57 264.89 304.32 268.43
  Q 306.50 270.49 309.96 276.75
  A 5.79 5.61 7.7 0 0 311.07 278.16
  L 315.54 282.33
  A 5.73 5.69 -86.4 0 1 316.31 283.21
  Q 318.73 286.63 323.73 293.81
  Q 324.87 295.45 327.70 297.82
  Q 331.55 301.04 334.82 304.64
  Z
  M 275.51 274.49
  Q 273.23 277.19 268.75 279.18
  Q 266.86 280.02 265.25 282.42
  A 3.31 3.20 -25.1 0 0 264.73 283.79
  L 263.89 289.56
  A 1.49 1.47 -49.3 0 0 263.93 290.15
  L 268.34 307.19
  A 2.53 2.53 0.0 0 0 271.10 309.07
  Q 275.60 308.52 278.39 310.40
  Q 280.01 311.50 281.97 310.91
  Q 286.81 309.43 293.24 307.75
  Q 299.45 306.12 300.74 300.07
  A 1.03 1.01 28.1 0 0 300.45 299.14
  Q 296.06 294.89 291.22 293.05
  A 2.31 2.31 0.0 0 1 289.76 291.27
  Q 289.26 288.31 287.54 285.77
  A 2.12 2.07 82.3 0 0 286.50 284.96
  L 282.27 283.47
  A 1.94 1.85 -11.2 0 1 281.53 283.00
  Q 278.53 279.88 276.79 274.73
  A 0.75 0.75 0.0 0 0 275.51 274.49
  Z
  M 742.30 294.48
  A 1.07 1.07 0.0 0 0 740.63 295.37
  C 740.69 300.03 737.04 299.56 733.89 300.36
  A 1.23 1.21 -87.1 0 0 733.05 301.13
  L 731.70 304.98
  A 2.09 2.06 -18.0 0 1 731.56 305.25
  L 724.52 316.21
  A 3.01 2.88 -89.7 0 1 723.69 317.07
  L 721.21 318.81
  A 3.16 3.06 -1.2 0 0 720.45 319.58
  L 714.74 327.95
  A 0.16 0.08 -26.6 0 0 714.71 327.99
  Q 712.10 332.84 710.11 334.11
  C 706.49 336.43 702.23 338.87 705.30 343.37
  A 2.73 2.47 88.1 0 0 705.95 344.04
  Q 710.56 347.39 713.75 349.03
  C 717.74 351.08 718.29 353.87 719.45 357.81
  A 1.62 1.62 0.0 0 0 722.46 358.05
  Q 724.95 352.94 727.87 349.41
  A 7.77 7.41 78.4 0 0 728.96 347.67
  L 729.47 346.56
  A 3.26 3.24 -2.1 0 1 730.88 345.05
  C 734.98 342.86 736.08 339.11 738.53 333.94
  A 1.61 1.45 -12.2 0 1 738.82 333.54
  L 750.59 322.33
  A 1.76 1.62 -14.7 0 0 751.02 321.66
  L 752.76 316.73
  A 0.63 0.58 84.9 0 1 753.00 316.42
  L 760.11 311.80
  A 1.74 1.74 0.0 0 0 760.69 309.50
  C 758.52 305.59 755.95 303.07 751.47 301.37
  Q 747.80 299.97 744.99 297.03
  Q 743.04 294.98 742.30 294.48
  Z
  M 283.60 346.69
  Q 280.60 351.87 282.28 356.62
  A 3.63 3.62 50.6 0 1 281.99 359.66
  Q 279.66 363.65 278.76 367.39
  C 278.21 369.65 276.02 370.32 274.53 371.97
  Q 271.98 374.79 270.83 375.17
  Q 266.31 376.64 264.94 377.26
  C 262.61 378.33 259.71 378.66 257.82 377.54
  Q 251.79 373.95 246.47 377.76
  A 0.64 0.62 51.7 0 1 245.63 377.65
  C 243.08 374.66 240.30 372.16 238.14 368.81
  Q 234.49 363.15 229.26 356.65
  A 8.90 8.59 -78.4 0 1 228.19 354.96
  Q 226.49 351.48 225.28 349.29
  C 223.38 345.85 223.12 343.27 223.22 339.74
  Q 223.29 337.45 224.39 336.37
  C 227.28 333.52 228.67 331.81 230.20 328.12
  Q 231.95 323.92 234.24 321.65
  A 2.53 2.52 73.2 0 0 234.93 320.36
  L 236.28 313.65
  A 1.70 1.70 0.0 0 0 234.70 311.61
  Q 232.61 311.50 231.06 313.06
  Q 227.35 316.81 223.85 318.63
  A 5.06 5.05 9.8 0 0 222.67 319.46
  C 218.02 323.78 212.61 328.80 209.61 335.58
  A 2.31 2.30 -40.1 0 0 209.48 337.04
  Q 210.97 343.27 211.65 344.10
  Q 216.71 350.30 218.89 358.00
  A 6.92 6.27 -70.3 0 0 219.46 359.38
  Q 223.49 366.53 228.30 371.94
  A 5.80 5.61 11.3 0 1 229.08 373.07
  Q 231.38 377.52 232.77 379.21
  Q 237.48 384.99 243.65 389.69
  A 1.96 1.95 -82.0 0 1 244.30 390.56
  L 246.29 395.88
  A 2.30 2.30 0.0 0 1 245.78 398.28
  Q 242.77 401.36 240.33 403.84
  C 236.23 408.00 231.91 406.11 228.13 402.15
  Q 225.35 399.24 220.43 395.21
  A 2.84 2.57 3.5 0 1 220.02 394.79
  L 208.21 380.03
  A 2.89 2.79 22.4 0 1 207.61 378.66
  Q 207.22 376.16 204.42 372.85
  A 0.92 0.92 0.0 0 0 202.80 373.49
  Q 202.89 375.56 204.09 377.39
  A 8.48 8.25 19.8 0 1 204.97 379.19
  Q 206.47 383.60 208.29 387.80
  C 210.51 392.94 214.95 397.17 218.30 401.98
  C 222.36 407.83 228.35 411.38 230.70 418.33
  A 3.17 3.12 43.5 0 1 230.76 420.10
  Q 229.62 424.45 226.56 427.87
  A 1.70 1.69 -67.7 0 1 225.21 428.44
  L 217.14 428.09
  A 5.49 5.48 -26.4 0 1 214.26 427.12
  L 205.68 421.23
  A 1.18 1.12 2.3 0 1 205.34 420.88
  Q 203.08 417.29 199.20 412.97
  A 1.16 1.15 -78.3 0 1 198.98 412.63
  L 194.54 402.86
  A 0.76 0.76 0.0 0 0 193.31 402.64
  Q 192.51 403.46 192.94 405.04
  C 193.54 407.27 194.93 409.57 193.89 412.53
  A 2.45 2.44 -38.5 0 0 193.76 413.66
  Q 194.09 416.42 194.92 419.78
  C 195.44 421.85 197.37 423.13 198.26 425.07
  C 200.61 430.20 204.33 434.70 208.15 440.76
  A 3.93 3.17 12.3 0 0 208.65 441.38
  L 217.26 450.06
  A 1.82 1.78 -83.0 0 1 217.55 450.44
  L 219.43 453.70
  A 5.73 5.71 -85.1 0 0 220.69 455.20
  L 225.73 459.42
  A 0.96 0.92 -24.0 0 0 226.34 459.64
  Q 228.76 459.66 230.26 458.99
  Q 234.01 457.33 237.97 456.07
  A 8.26 8.13 17.7 0 0 240.26 454.91
  Q 242.49 453.30 244.69 451.72
  Q 247.44 449.75 250.00 451.65
  Q 251.08 452.45 252.91 451.85
  A 1.61 1.59 9.8 0 0 253.64 451.34
  C 256.76 447.53 259.79 449.99 263.30 447.74
  Q 265.57 446.27 266.62 445.89
  A 1.29 1.27 39.7 0 1 267.32 445.83
  L 269.87 446.35
  A 1.31 1.31 0.0 0 0 271.26 444.42
  L 269.88 442.03
  A 1.27 1.27 0.0 0 1 269.78 440.94
  L 271.10 437.18
  A 2.19 2.04 -37.7 0 0 271.21 436.51
  L 271.21 424.98
  A 6.66 6.56 -56.7 0 0 270.70 422.43
  C 270.14 421.10 269.15 419.49 269.18 418.06
  C 269.24 415.10 271.36 414.01 271.26 411.26
  Q 271.09 406.72 271.76 402.36
  A 5.48 5.37 -27.2 0 1 272.33 400.65
  Q 277.98 389.88 281.81 375.62
  Q 282.13 374.42 284.65 370.93
  Q 286.97 367.71 287.90 360.93
  A 0.29 0.23 -38.0 0 1 287.93 360.81
  L 289.48 356.73
  A 2.29 2.28 -38.4 0 0 289.61 355.64
  C 289.12 351.97 286.41 350.21 285.22 346.84
  A 0.90 0.89 -39.6 0 0 283.60 346.69
  Z
  M 255.19 352.09
  A 0.84 0.84 0.0 0 0 256.61 351.72
  L 257.27 349.13
  A 2.28 2.09 71.5 0 1 257.54 348.52
  L 261.24 342.97
  A 1.42 1.35 -28.4 0 0 261.48 342.23
  Q 261.65 337.43 262.79 335.45
  A 2.86 2.86 0.0 0 0 262.32 331.97
  L 259.58 329.28
  A 2.06 2.06 0.0 0 0 256.31 329.78
  Q 254.91 332.40 252.14 336.84
  C 250.83 338.95 249.86 341.99 249.22 343.77
  A 2.55 2.54 33.8 0 0 249.76 346.47
  L 255.19 352.09
  Z
  M 539.15 797.28
  C 535.80 797.38 533.35 800.94 531.49 803.29
  A 1.23 1.21 -68.6 0 1 530.46 803.75
  Q 527.76 803.59 525.50 804.94
  A 1.78 1.78 0.0 0 1 523.89 805.04
  L 519.78 803.25
  A 3.15 3.15 0.0 0 1 517.90 800.63
  L 516.78 787.13
  A 0.39 0.34 55.4 0 1 516.80 786.96
  Q 517.44 784.99 517.00 783.76
  Q 515.61 779.92 512.44 775.99
  A 1.03 0.61 86.0 0 1 512.33 775.83
  L 506.87 765.36
  A 0.55 0.54 48.4 0 1 506.90 764.82
  C 509.22 761.27 510.81 758.17 508.24 753.95
  Q 506.70 751.44 504.63 744.99
  Q 503.57 741.69 503.28 738.94
  Q 502.86 734.82 501.68 732.96
  C 499.53 729.55 499.55 724.89 498.02 720.95
  C 496.91 718.09 497.13 715.60 499.00 713.51
  A 2.13 2.10 42.2 0 0 498.83 710.53
  Q 495.25 707.26 494.04 703.43
  A 2.59 2.58 -44.0 0 1 494.07 701.76
  C 495.81 696.92 495.04 694.63 493.93 690.29
  A 10.82 10.42 -53.7 0 1 493.60 687.82
  Q 493.49 680.97 493.00 679.80
  Q 492.07 677.61 489.78 671.80
  A 6.19 5.97 33.7 0 1 489.35 669.84
  Q 489.03 663.40 485.70 656.99
  A 1.81 1.81 0.0 0 1 486.06 654.84
  Q 488.91 652.14 487.41 648.03
  A 3.34 3.30 -76.1 0 0 486.81 647.02
  C 484.02 643.82 481.42 641.11 482.97 637.01
  C 484.19 633.78 481.30 631.91 481.77 629.25
  Q 482.24 626.59 484.92 616.97
  Q 485.46 615.04 485.13 608.66
  A 2.44 2.28 30.1 0 0 484.81 607.60
  L 483.60 605.51
  A 1.55 1.53 35.6 0 1 483.42 604.47
  C 484.63 597.98 486.67 593.61 489.36 585.20
  C 490.20 582.59 491.86 579.36 493.02 577.20
  A 0.93 0.93 0.0 0 0 492.14 575.83
  Q 488.51 576.08 484.89 575.84
  C 482.33 575.68 481.51 577.29 478.67 576.38
  C 475.73 575.43 473.05 576.56 470.14 575.51
  Q 465.26 573.75 458.40 574.45
  A 2.34 2.33 53.6 0 1 457.30 574.28
  C 454.14 572.96 453.14 570.50 449.34 573.06
  C 446.14 575.22 441.90 574.38 438.31 572.70
  A 5.51 5.48 57.3 0 0 436.00 572.19
  L 428.76 572.19
  A 1.86 1.81 29.5 0 0 427.85 572.43
  L 424.98 574.09
  A 2.02 2.01 49.2 0 1 422.71 573.92
  Q 420.85 572.45 418.74 572.50
  Q 416.28 572.56 409.60 572.66
  A 10.79 10.78 -51.4 0 0 407.64 572.88
  Q 401.45 574.18 395.90 573.08
  Q 394.93 572.89 393.44 571.27
  A 0.79 0.78 59.4 0 0 392.60 571.05
  L 390.38 571.78
  A 1.98 1.67 -49.9 0 1 389.92 571.86
  C 384.90 572.03 380.28 572.07 375.98 574.75
  Q 367.26 580.20 358.67 583.88
  A 1.62 1.62 0.0 0 0 357.69 585.51
  L 357.86 587.52
  A 1.65 1.63 -23.0 0 1 357.29 588.90
  C 351.91 593.52 353.80 596.35 356.20 602.10
  Q 356.37 602.49 355.92 605.68
  A 4.05 4.04 40.4 0 0 356.06 607.41
  L 358.13 613.98
  A 0.20 0.04 79.1 0 0 358.15 614.03
  C 358.82 617.23 358.44 620.53 359.37 624.01
  Q 360.78 629.29 362.72 633.24
  C 364.04 635.94 364.46 638.01 365.27 640.53
  A 10.63 10.14 -71.1 0 0 366.28 642.72
  Q 368.00 645.54 369.11 648.92
  A 10.53 10.35 -70.0 0 0 370.02 650.92
  Q 372.41 654.92 372.81 655.97
  Q 375.08 661.91 378.85 667.37
  Q 379.71 668.63 381.15 672.86
  A 6.74 6.64 -73.3 0 0 382.16 674.77
  C 383.72 676.82 387.28 679.43 388.19 681.98
  A 2.09 2.06 39.4 0 1 388.29 682.92
  Q 387.93 685.76 388.64 686.69
  Q 391.00 689.78 392.29 693.01
  C 393.90 697.07 396.35 700.25 398.25 703.66
  A 13.19 13.16 -69.2 0 1 399.23 705.85
  C 399.95 707.97 400.28 710.00 401.41 712.26
  Q 404.85 719.10 408.03 723.54
  C 410.72 727.30 410.81 731.48 412.77 734.78
  Q 414.30 737.34 421.89 747.15
  Q 424.40 750.38 426.77 752.28
  A 3.91 3.90 14.0 0 1 428.16 754.59
  Q 429.31 760.66 433.36 767.62
  A 4.00 3.87 1.6 0 0 434.69 768.98
  C 437.22 770.53 439.34 771.75 440.75 774.49
  Q 444.24 781.30 443.83 790.25
  C 443.68 793.26 446.05 795.08 448.36 797.39
  A 3.25 3.19 -14.1 0 0 449.76 798.21
  Q 452.21 798.92 454.87 798.23
  A 2.14 2.13 68.8 0 1 457.29 799.31
  C 458.71 802.02 458.67 804.62 460.18 807.44
  Q 463.31 813.27 465.15 818.89
  A 3.70 3.66 -77.7 0 0 466.10 820.39
  L 467.75 821.99
  A 4.58 4.56 -76.2 0 1 468.99 824.05
  Q 469.74 826.65 471.94 828.34
  A 0.73 0.73 0.0 0 1 472.09 829.33
  Q 470.37 831.88 470.38 834.76
  A 1.12 1.12 0.0 0 0 471.47 835.88
  Q 478.16 836.08 483.92 839.25
  C 487.00 840.94 489.97 841.46 492.70 840.66
  C 495.10 839.95 496.76 838.63 499.32 839.93
  C 501.30 840.94 504.03 841.19 505.82 841.75
  C 508.88 842.73 512.16 842.42 515.16 843.18
  A 3.07 3.03 45.4 0 0 516.62 843.20
  C 519.28 842.61 522.18 843.90 525.00 844.05
  Q 529.72 844.31 535.08 846.07
  A 3.14 3.13 55.3 0 0 535.90 846.22
  L 553.67 847.00
  A 2.49 2.14 49.4 0 1 554.19 847.08
  Q 557.50 848.00 558.31 847.80
  Q 564.17 846.31 570.64 847.04
  A 4.88 4.69 58.9 0 1 572.05 847.42
  Q 575.46 848.90 577.65 849.66
  Q 578.51 849.96 582.61 849.47
  A 2.67 2.67 0.0 0 1 584.44 849.92
  Q 585.19 850.44 586.18 850.48
  A 2.22 2.10 -54.2 0 0 587.13 850.30
  L 589.96 849.01
  A 1.50 1.44 -58.6 0 1 590.46 848.88
  L 601.40 847.91
  A 1.37 1.36 -38.9 0 1 601.89 847.96
  Q 606.09 849.21 607.24 849.25
  Q 611.89 849.42 618.40 847.29
  A 1.44 1.39 -44.0 0 1 619.27 847.29
  C 623.27 848.63 626.84 849.67 630.24 846.37
  C 632.52 844.16 638.94 844.62 640.97 845.63
  Q 642.22 846.25 643.18 846.34
  A 2.44 2.42 -50.4 0 0 644.20 846.24
  C 646.82 845.44 648.20 844.99 650.31 844.90
  Q 657.69 844.62 659.26 844.62
  A 1.40 0.95 29.2 0 0 659.49 844.60
  L 673.26 841.29
  A 2.21 2.15 -40.9 0 1 674.47 841.36
  L 677.35 842.37
  A 3.82 3.82 0.0 0 0 681.36 841.42
  L 682.81 839.92
  A 1.47 1.41 10.6 0 1 683.39 839.54
  Q 689.57 837.35 691.87 837.14
  Q 701.48 836.25 705.61 836.10
  A 5.04 5.00 -63.2 0 0 708.31 835.20
  L 713.64 831.46
  A 3.24 3.24 0.0 0 1 715.03 830.91
  Q 718.09 830.45 721.76 829.18
  Q 722.13 829.05 723.17 829.15
  Q 724.23 829.25 724.53 828.72
  A 1.11 1.09 -36.8 0 0 724.65 827.94
  C 724.48 827.10 723.68 825.79 723.64 824.36
  C 723.57 821.65 722.91 819.44 721.01 816.78
  C 719.20 814.25 719.40 811.01 719.32 807.42
  A 8.92 8.67 38.5 0 0 719.08 805.56
  Q 717.47 798.83 716.14 793.54
  C 715.41 790.65 715.32 788.02 714.43 785.90
  C 713.42 783.50 713.47 781.17 713.02 778.28
  A 2.37 1.79 47.4 0 0 712.94 777.98
  L 708.52 765.03
  A 2.92 2.83 -76.6 0 0 707.90 763.99
  Q 705.62 761.55 704.80 759.61
  A 2.49 2.47 -48.8 0 1 704.70 757.99
  Q 706.48 751.67 703.30 747.23
  C 701.66 744.94 701.48 742.60 701.02 740.52
  A 10.79 10.70 -63.2 0 0 700.35 738.45
  L 697.55 731.94
  A 5.39 5.24 31.2 0 1 697.13 730.32
  Q 696.60 724.50 694.17 719.60
  Q 692.22 715.67 691.95 714.76
  A 1.40 1.39 -39.5 0 1 692.05 713.72
  Q 693.83 710.29 693.23 706.48
  A 1.17 0.97 -66.3 0 0 693.17 706.27
  L 690.64 699.36
  A 1.61 1.57 -70.9 0 0 690.48 699.02
  C 688.37 695.64 686.27 692.75 685.65 688.82
  C 684.83 683.61 683.81 681.42 682.14 675.68
  C 681.29 672.75 682.22 669.22 680.50 666.66
  C 677.70 662.50 680.78 657.60 678.45 654.13
  Q 677.00 651.97 674.58 650.76
  A 0.90 0.89 -53.6 0 0 673.55 650.92
  Q 670.51 653.90 667.53 658.72
  Q 666.73 660.01 660.92 664.25
  A 2.82 2.78 -64.7 0 1 659.50 664.77
  C 655.31 665.06 653.95 665.53 650.83 663.08
  Q 645.94 659.23 647.42 653.46
  C 648.41 649.59 650.30 647.28 652.02 644.63
  A 5.80 5.62 -19.3 0 0 652.59 643.49
  L 654.23 638.96
  A 1.69 1.58 79.0 0 1 654.58 638.40
  L 662.41 630.49
  A 3.43 3.41 8.3 0 1 663.22 629.89
  L 667.51 627.64
  A 2.75 2.71 2.4 0 0 668.58 626.67
  C 669.30 625.69 669.81 623.31 670.55 621.86
  Q 674.76 613.62 676.65 610.46
  C 678.23 607.81 678.71 605.44 679.59 602.69
  A 8.77 8.73 77.8 0 1 682.00 598.93
  C 685.48 595.76 688.02 592.68 690.48 588.27
  Q 692.07 585.42 693.95 582.74
  C 696.04 579.77 697.28 576.34 698.42 573.45
  A 4.22 4.01 76.3 0 1 699.00 572.44
  C 700.92 570.00 702.95 568.31 704.70 565.66
  Q 709.83 557.87 712.00 554.36
  A 5.34 5.34 0.0 0 0 712.79 551.99
  Q 713.05 549.07 715.02 546.74
  A 5.72 5.69 -19.7 0 0 716.26 544.14
  C 717.60 537.06 723.07 532.56 727.37 528.16
  A 4.07 3.98 77.7 0 0 728.29 526.69
  L 730.04 521.72
  A 3.04 3.00 78.3 0 1 730.79 520.56
  C 733.36 518.08 735.07 516.52 736.71 514.01
  Q 746.76 498.70 746.95 498.49
  C 749.42 495.61 750.07 490.95 753.10 487.74
  C 756.07 484.60 754.61 480.59 758.12 477.88
  A 2.17 2.16 -6.6 0 0 758.75 477.09
  L 764.53 464.71
  A 2.30 2.27 80.6 0 1 764.98 464.07
  Q 769.13 459.82 771.17 457.91
  Q 772.44 456.72 774.70 451.47
  A 1.11 1.08 -49.5 0 0 774.63 450.44
  Q 770.45 443.71 765.92 440.57
  A 3.73 3.68 -83.3 0 1 764.55 438.81
  Q 762.73 433.95 758.99 430.31
  Q 756.76 428.13 754.28 425.14
  Q 749.94 419.88 749.46 419.44
  Q 743.45 414.00 737.17 407.52
  Q 735.59 405.89 732.85 403.49
  C 728.79 399.94 726.63 396.01 723.92 392.48
  Q 718.74 385.74 712.95 381.23
  A 7.73 7.29 1.7 0 1 711.61 379.89
  Q 708.81 376.25 706.10 373.76
  C 703.65 371.51 702.09 369.09 700.08 366.43
  A 6.30 6.06 -88.9 0 0 699.33 365.62
  C 697.07 363.63 695.36 363.05 693.58 360.48
  Q 692.08 358.29 689.88 357.00
  A 5.05 5.04 -88.5 0 1 687.95 354.96
  C 686.48 352.08 684.23 348.35 680.75 346.42
  A 0.98 0.97 33.4 0 0 679.51 346.67
  L 671.05 357.39
  A 1.91 1.89 74.6 0 0 670.78 357.87
  Q 668.92 362.85 665.47 366.86
  A 2.37 2.21 76.7 0 0 665.07 367.56
  L 663.73 371.37
  A 1.87 1.76 76.9 0 1 663.37 371.99
  Q 661.88 373.72 659.73 377.97
  C 658.95 379.51 656.69 382.48 654.68 382.49
  Q 653.82 382.50 653.52 382.64
  A 0.98 0.95 -9.9 0 0 653.00 383.36
  Q 652.29 388.16 650.89 390.20
  Q 646.06 397.21 644.74 402.15
  A 3.13 3.02 -19.5 0 1 644.20 403.23
  Q 642.29 405.68 641.63 406.14
  Q 637.53 408.92 637.02 409.76
  C 634.92 413.20 634.53 415.94 630.71 417.52
  A 2.67 2.66 -2.3 0 0 629.19 419.16
  L 626.13 428.63
  A 4.23 4.07 -17.4 0 1 625.39 429.98
  Q 622.66 433.34 619.80 439.72
  Q 619.20 441.06 617.07 442.27
  C 611.00 445.70 605.83 452.55 604.23 459.76
  C 603.48 463.17 601.63 464.55 598.59 467.13
  A 3.61 3.52 -7.0 0 0 597.74 468.19
  C 595.53 472.35 594.38 475.29 591.12 478.13
  C 587.47 481.31 586.63 485.24 586.41 490.04
  A 3.70 3.68 69.8 0 1 585.26 492.55
  L 577.30 500.11
  A 2.90 2.82 -5.5 0 0 576.91 500.57
  C 574.87 503.61 574.52 504.54 571.76 507.17
  Q 568.63 510.15 568.65 514.14
  A 2.45 2.42 66.9 0 1 567.99 515.81
  C 564.99 519.04 563.70 519.87 562.50 523.81
  A 7.22 7.13 68.6 0 1 561.84 525.35
  Q 561.48 525.98 558.15 530.14
  Q 556.08 532.71 548.30 545.02
  A 7.77 7.50 83.3 0 1 547.41 546.19
  L 543.92 549.96
  A 1.55 1.52 78.3 0 0 543.61 550.44
  Q 540.82 556.78 536.64 561.28
  A 8.17 8.13 81.2 0 0 535.49 562.86
  Q 533.13 567.09 530.04 570.84
  C 527.64 573.75 529.31 578.04 526.59 581.09
  Q 524.88 583.02 524.25 583.27
  C 517.68 585.85 517.69 590.18 514.93 595.64
  A 4.14 4.10 62.3 0 0 514.53 596.95
  Q 514.47 597.42 514.49 601.20
  Q 514.52 606.93 512.18 611.92
  C 510.93 614.59 512.30 616.92 511.35 619.50
  C 509.65 624.12 512.97 628.97 511.30 633.57
  C 509.25 639.18 515.95 642.46 514.44 646.72
  Q 514.21 647.38 512.99 649.59
  A 4.07 4.04 51.4 0 0 512.65 652.70
  L 514.28 658.24
  A 6.40 6.37 37.7 0 1 514.54 660.24
  Q 514.33 667.07 515.72 672.52
  C 516.11 674.06 515.50 676.19 516.19 677.57
  Q 517.37 679.95 518.11 681.91
  A 4.80 4.57 -57.2 0 1 518.42 683.54
  Q 518.63 693.11 518.92 700.00
  Q 519.04 702.96 521.75 708.85
  A 8.24 7.79 27.5 0 1 522.25 710.29
  Q 522.95 713.14 522.90 713.54
  Q 522.26 718.22 522.89 723.79
  A 7.54 7.49 31.3 0 0 523.36 725.69
  C 524.44 728.44 526.80 733.29 526.15 737.31
  Q 525.68 740.21 526.91 746.59
  A 3.00 2.98 -70.0 0 0 527.53 747.93
  Q 531.16 752.35 532.35 758.72
  C 532.70 760.56 532.33 763.34 532.85 764.94
  Q 534.27 769.33 536.18 775.47
  A 8.23 8.22 -52.7 0 1 536.54 778.13
  Q 536.39 783.42 537.71 787.78
  C 538.68 791.01 538.01 793.33 539.63 796.46
  A 0.56 0.56 0.0 0 1 539.15 797.28
  Z
  M 471.84 891.84
  L 469.65 889.74
  A 1.18 1.17 -50.8 0 0 467.86 889.93
  C 466.02 892.64 466.77 894.71 466.84 897.74
  Q 466.95 902.31 463.35 906.51
  A 3.10 2.90 -82.5 0 1 462.57 907.15
  Q 451.43 913.56 444.25 903.53
  A 3.91 3.88 25.0 0 1 443.54 901.60
  L 442.88 893.70
  A 3.58 3.56 -39.6 0 1 443.00 892.46
  Q 443.97 888.94 443.41 884.28
  C 443.04 881.20 445.62 880.00 445.40 877.52
  A 1.92 1.50 -1.7 0 0 443.53 876.14
  Q 430.12 876.07 428.00 875.95
  A 3.30 3.07 56.1 0 1 426.93 875.70
  L 423.51 874.21
  A 1.60 1.52 55.3 0 0 422.89 874.08
  L 402.50 874.08
  A 3.03 2.99 34.1 0 0 401.42 874.28
  Q 398.65 875.32 390.85 877.49
  C 389.43 877.89 388.73 877.20 387.52 877.27
  A 2.26 2.23 -66.9 0 0 386.15 877.83
  Q 379.31 883.78 375.49 889.25
  Q 374.97 890.00 373.79 891.08
  C 371.36 893.30 375.75 895.72 375.66 898.12
  Q 375.33 906.91 377.22 914.85
  Q 378.44 919.96 378.65 922.98
  C 379.12 929.58 378.73 933.73 380.99 937.93
  C 383.01 941.70 381.86 944.56 382.23 948.55
  Q 382.75 954.31 382.99 958.02
  A 7.54 7.45 -59.5 0 0 383.66 960.67
  L 385.53 964.78
  A 3.63 3.62 38.2 0 1 385.79 966.94
  Q 385.31 969.60 386.20 973.05
  Q 387.36 977.55 385.46 980.56
  A 3.34 3.32 62.8 0 0 384.96 982.13
  L 384.33 992.08
  A 2.72 2.67 -50.2 0 0 384.39 992.81
  L 385.48 997.84
  A 2.94 2.85 44.2 0 1 385.51 998.88
  Q 384.38 1005.75 384.89 1015.70
  A 5.51 5.41 -55.1 0 0 385.11 1017.01
  L 386.86 1023.10
  A 2.85 2.84 -32.8 0 1 386.28 1025.75
  C 383.38 1029.12 378.41 1034.90 373.99 1034.20
  Q 372.74 1034.00 367.01 1030.87
  A 2.19 2.17 -85.7 0 1 365.99 1029.67
  Q 365.24 1027.54 363.02 1024.25
  C 361.10 1021.43 361.57 1017.89 360.69 1014.42
  Q 359.66 1010.37 361.06 1005.93
  C 361.60 1004.20 361.14 1003.57 360.26 1002.12
  A 2.14 2.14 0.0 0 1 359.96 1000.69
  C 360.40 997.57 359.46 993.15 359.45 989.42
  Q 359.41 970.94 359.26 967.07
  Q 359.16 964.55 358.46 962.57
  C 357.42 959.65 357.49 957.16 356.53 954.37
  Q 355.34 950.92 355.34 945.55
  Q 355.34 944.46 353.75 940.01
  Q 353.04 938.07 354.19 934.57
  A 2.82 2.81 -41.8 0 0 354.27 933.17
  Q 353.76 930.55 352.05 927.54
  Q 351.22 926.07 352.09 924.81
  C 354.10 921.89 353.46 919.50 352.12 915.97
  C 350.86 912.67 351.30 908.44 351.18 905.59
  A 7.97 7.82 32.9 0 0 350.57 902.87
  Q 348.89 898.89 346.32 895.13
  A 2.05 2.00 45.7 0 1 346.32 892.79
  Q 347.31 891.42 347.32 889.95
  A 1.06 0.96 42.1 0 0 347.30 889.75
  L 346.67 886.85
  A 1.06 1.00 47.8 0 1 346.68 886.34
  Q 347.45 883.56 346.89 881.89
  C 345.32 877.22 340.88 872.85 340.90 867.18
  Q 340.91 863.99 340.56 861.81
  Q 339.66 856.34 339.19 847.61
  C 338.91 842.24 337.87 839.51 336.35 833.57
  A 20.31 19.61 35.5 0 1 335.83 830.78
  C 335.39 826.78 335.89 820.75 334.72 816.05
  Q 332.99 809.13 331.82 806.21
  A 5.41 5.23 33.9 0 1 331.46 804.52
  Q 331.18 798.19 329.48 788.00
  Q 329.28 786.86 328.37 783.48
  Q 327.01 778.45 328.70 773.50
  A 1.87 1.82 -44.2 0 0 328.73 772.36
  C 327.91 769.45 328.19 766.52 327.25 763.32
  Q 325.70 758.00 325.06 753.05
  A 8.57 8.38 -60.3 0 0 324.50 750.91
  Q 323.14 747.50 321.97 742.97
  C 321.12 739.69 325.32 738.56 323.14 734.07
  Q 321.55 730.79 321.27 726.33
  A 10.05 9.69 -57.3 0 0 320.73 723.62
  C 318.78 718.04 317.14 714.47 317.54 709.96
  C 317.89 706.07 316.40 703.81 314.49 700.54
  Q 313.00 697.99 313.12 695.37
  C 313.22 693.27 315.78 691.34 315.74 688.73
  C 315.63 682.61 313.15 676.11 310.43 670.28
  A 8.96 8.76 29.7 0 1 309.67 667.63
  C 309.12 663.24 309.71 660.25 308.19 655.93
  C 307.12 652.91 307.27 648.59 308.01 644.86
  Q 308.44 642.67 308.15 640.48
  Q 307.21 633.29 307.19 629.39
  A 2.94 2.57 41.2 0 0 307.12 628.87
  L 304.39 617.49
  A 2.83 2.46 29.8 0 0 304.22 617.00
  L 302.35 612.69
  A 2.03 1.91 -58.0 0 1 302.20 611.93
  Q 302.22 605.36 301.29 602.72
  Q 299.60 597.85 299.54 596.03
  Q 299.35 590.06 298.86 588.96
  Q 296.06 582.68 295.02 576.52
  A 5.96 5.74 28.3 0 0 294.49 574.87
  Q 294.33 574.55 293.21 572.81
  C 291.53 570.20 290.94 566.40 292.11 563.57
  C 293.66 559.81 293.54 556.43 293.37 552.69
  Q 293.27 550.69 291.42 549.13
  Q 288.90 547.00 287.74 544.25
  A 0.60 0.07 83.7 0 1 287.72 544.16
  L 286.09 536.08
  A 7.93 7.40 -51.6 0 1 285.95 534.33
  C 286.26 531.34 288.75 527.58 286.24 523.88
  C 284.56 521.39 283.63 519.37 283.57 516.51
  Q 283.44 510.92 283.59 508.06
  A 1.38 1.32 60.8 0 1 283.74 507.48
  L 285.30 504.40
  A 0.91 0.88 -41.9 0 0 285.35 503.71
  L 279.72 486.68
  A 1.60 1.48 -56.9 0 1 279.66 486.33
  L 279.39 476.78
  A 1.31 1.31 0.0 0 0 278.06 475.50
  C 275.93 475.53 273.33 476.97 272.33 477.30
  A 10.15 9.96 -54.0 0 1 269.30 477.81
  L 261.61 477.94
  A 3.47 3.44 52.4 0 1 260.57 477.80
  L 258.74 477.26
  A 1.62 1.60 -45.3 0 0 257.86 477.27
  Q 256.13 477.78 253.01 478.08
  C 247.99 478.56 246.35 481.34 243.65 484.88
  A 2.12 2.10 -77.0 0 1 242.40 485.67
  Q 236.70 486.84 235.32 487.56
  Q 229.88 490.41 223.98 493.50
  Q 219.11 496.06 220.81 501.71
  Q 221.78 504.92 222.24 505.74
  A 1.62 1.62 0.0 0 1 222.26 507.27
  Q 221.07 509.60 222.30 511.66
  A 1.37 1.35 -50.7 0 1 222.41 512.84
  C 222.00 513.92 221.16 514.91 220.90 516.27
  Q 220.51 518.40 220.66 521.51
  C 220.80 524.46 220.27 527.01 222.35 529.63
  A 1.64 1.63 42.8 0 1 222.43 531.54
  C 220.24 534.84 219.17 540.60 222.56 543.64
  A 0.88 0.86 -60.4 0 1 222.81 544.58
  C 222.53 545.43 221.45 546.08 221.17 546.96
  Q 219.94 550.74 219.06 552.44
  A 1.41 1.40 -41.0 0 0 218.98 553.53
  C 219.74 555.68 220.74 557.64 220.48 561.32
  C 220.39 562.56 219.34 563.45 219.17 564.68
  A 1.54 1.53 31.5 0 0 219.43 565.76
  Q 223.23 571.27 222.49 578.71
  A 0.92 0.90 -12.9 0 1 222.03 579.42
  L 219.19 581.06
  A 1.44 1.43 -36.1 0 0 218.84 583.26
  C 220.30 584.89 221.85 586.59 222.22 588.56
  C 222.74 591.38 223.05 595.49 221.65 598.44
  Q 220.79 600.28 220.77 601.05
  Q 220.61 607.11 219.85 611.01
  A 2.81 2.71 47.2 0 0 219.83 612.00
  L 220.53 616.17
  A 1.13 1.11 -38.2 0 1 220.45 616.79
  L 219.35 619.32
  A 2.39 2.36 47.3 0 0 219.29 621.03
  Q 220.16 623.56 219.55 626.21
  A 1.51 1.46 -43.9 0 0 219.53 626.75
  L 221.11 639.03
  A 5.76 5.75 53.2 0 1 220.68 642.05
  L 217.64 649.04
  A 2.84 2.81 49.9 0 0 217.49 650.90
  L 220.11 660.89
  A 1.17 1.15 -44.5 0 1 220.10 661.47
  L 217.09 671.80
  A 2.44 2.44 0.0 0 0 217.36 673.78
  C 219.21 676.79 218.50 680.96 218.95 684.65
  A 3.54 3.44 27.7 0 0 219.38 685.97
  C 221.04 688.93 220.54 690.20 220.11 694.08
  Q 219.93 695.68 220.39 698.37
  Q 221.18 703.01 219.79 707.22
  A 1.87 1.85 46.3 0 0 219.77 708.35
  Q 220.51 710.89 220.63 711.40
  C 221.49 714.91 219.63 715.35 218.94 717.42
  A 7.40 7.37 53.9 0 0 218.58 719.76
  L 218.65 726.97
  A 3.43 3.40 21.9 0 0 219.69 729.37
  L 221.99 731.58
  A 1.90 1.88 22.2 0 1 222.57 732.94
  L 222.57 738.01
  A 0.90 0.88 59.8 0 1 222.46 738.44
  Q 220.70 741.87 220.68 743.26
  Q 220.61 748.73 220.41 752.09
  A 6.18 6.18 0.0 0 1 220.15 753.48
  C 219.51 755.54 217.30 759.51 219.40 762.15
  Q 220.05 762.96 220.34 763.68
  A 3.94 3.90 34.7 0 1 220.64 765.28
  L 220.47 771.90
  A 3.04 2.94 -33.8 0 1 220.23 773.02
  C 217.96 778.48 219.00 785.10 218.78 790.82
  Q 218.34 801.88 218.85 814.80
  A 9.26 9.17 -54.5 0 0 219.22 817.09
  Q 220.79 822.40 220.58 827.07
  C 220.54 828.14 221.05 829.93 221.49 830.77
  A 1.81 1.80 -46.3 0 1 221.52 832.35
  Q 220.70 834.13 220.55 837.68
  C 220.48 839.40 219.15 840.79 218.90 842.12
  A 2.27 2.25 35.6 0 0 219.16 843.65
  L 220.32 845.68
  A 2.41 2.40 30.4 0 1 220.63 846.86
  C 220.59 855.17 220.38 859.43 222.42 866.06
  A 1.53 1.52 56.1 0 1 222.15 867.47
  Q 220.48 869.55 220.67 872.51
  C 220.91 876.18 220.40 880.84 220.85 882.86
  Q 221.08 883.95 222.05 886.67
  A 1.32 1.30 48.5 0 1 221.99 887.72
  Q 220.72 890.25 221.33 891.43
  Q 223.38 895.45 225.05 900.31
  C 226.32 904.01 224.82 906.76 222.72 909.99
  A 2.58 2.57 44.4 0 0 222.75 912.85
  C 224.06 914.78 227.37 917.18 226.32 920.48
  Q 225.66 922.52 226.08 924.31
  C 227.13 928.78 226.74 933.72 226.93 939.02
  A 1.46 0.10 85.9 0 0 226.95 939.17
  L 230.19 954.11
  A 2.14 2.11 52.6 0 1 230.01 955.52
  Q 227.65 960.20 229.22 966.95
  C 229.51 968.22 230.64 969.47 231.52 970.74
  C 232.89 972.73 232.63 976.40 233.68 978.34
  Q 239.06 988.35 243.71 997.31
  A 2.46 2.44 -80.2 0 0 244.08 997.84
  C 247.20 1001.37 248.03 1006.36 249.19 1009.64
  A 5.82 5.79 16.0 0 0 250.14 1011.34
  Q 254.38 1016.67 255.55 1019.60
  Q 257.72 1025.01 259.10 1026.69
  Q 260.98 1028.98 262.48 1031.98
  Q 264.72 1036.47 265.79 1037.29
  Q 268.43 1039.30 270.97 1042.05
  C 274.32 1045.66 277.46 1048.42 281.87 1052.84
  A 11.50 11.44 83.8 0 0 283.75 1054.36
  C 288.45 1057.44 290.26 1061.41 292.27 1065.62
  A 2.48 2.44 -81.4 0 0 292.77 1066.31
  L 312.47 1085.30
  A 4.75 4.66 -12.3 0 0 314.06 1086.30
  Q 318.19 1087.83 318.69 1088.02
  Q 320.07 1088.55 324.43 1092.95
  A 0.86 0.73 -4.7 0 0 324.64 1093.10
  L 330.66 1096.11
  A 2.70 2.55 -9.7 0 1 331.26 1096.51
  Q 333.23 1098.26 337.49 1100.98
  C 341.71 1103.67 345.47 1107.29 349.14 1109.63
  C 351.25 1110.97 354.99 1111.03 357.36 1112.18
  Q 359.94 1113.43 362.33 1115.31
  A 8.14 8.12 -14.7 0 0 364.34 1116.48
  Q 369.71 1118.66 373.85 1122.59
  A 5.70 5.61 76.8 0 0 375.80 1123.82
  C 379.07 1125.06 382.29 1124.47 385.59 1126.10
  Q 391.48 1129.02 399.31 1130.08
  C 401.38 1130.36 402.47 1132.22 403.92 1133.20
  A 3.75 3.61 65.6 0 0 405.35 1133.77
  L 415.61 1135.51
  A 2.29 1.72 49.8 0 1 415.89 1135.59
  Q 423.22 1138.49 431.35 1138.76
  Q 433.96 1138.84 437.48 1139.88
  Q 448.50 1143.10 459.22 1143.08
  A 1.92 1.89 -29.0 0 1 460.20 1143.35
  L 463.46 1145.23
  A 4.65 4.64 51.5 0 0 467.14 1145.65
  Q 470.84 1144.53 473.78 1144.69
  A 4.27 4.22 -31.3 0 1 475.29 1145.05
  C 478.91 1146.67 480.28 1145.88 482.95 1145.47
  A 1.78 1.73 -34.8 0 1 484.04 1145.65
  Q 486.21 1146.80 486.81 1146.81
  C 493.59 1146.92 498.58 1147.45 501.99 1144.47
  Q 504.31 1142.44 505.02 1142.00
  A 4.34 4.20 -65.7 0 1 506.41 1141.45
  Q 518.02 1139.05 521.06 1137.75
  Q 523.01 1136.91 525.67 1136.69
  C 529.96 1136.33 531.26 1135.97 535.04 1134.12
  Q 536.49 1133.41 537.87 1134.20
  C 539.62 1135.20 540.52 1134.41 541.90 1134.05
  Q 547.99 1132.45 551.72 1130.02
  A 5.86 5.82 22.7 0 1 553.81 1129.17
  Q 558.20 1128.33 565.48 1125.54
  C 569.93 1123.84 574.79 1123.13 578.89 1122.54
  A 1.97 1.78 -42.1 0 1 579.50 1122.54
  L 582.37 1123.01
  A 3.20 3.18 26.3 0 0 585.17 1122.07
  L 590.80 1116.24
  A 3.50 3.48 -69.4 0 1 593.14 1115.17
  Q 596.88 1114.99 599.73 1113.73
  Q 601.50 1112.95 603.07 1112.81
  C 608.10 1112.36 612.59 1110.89 615.90 1107.19
  Q 616.33 1106.70 619.15 1104.85
  A 8.40 8.12 16.2 0 1 620.59 1104.09
  C 625.10 1102.24 626.74 1100.21 630.26 1096.80
  Q 632.59 1094.53 640.48 1090.47
  A 10.35 9.74 -76.1 0 0 642.09 1089.43
  C 646.76 1085.72 652.04 1082.28 656.82 1077.00
  A 8.14 7.42 -85.5 0 1 657.79 1076.09
  Q 662.53 1072.33 666.09 1067.19
  Q 666.83 1066.11 671.83 1064.08
  A 2.37 2.36 3.7 0 0 673.02 1063.04
  L 676.09 1057.73
  A 2.05 2.01 87.3 0 1 676.67 1057.08
  Q 685.27 1050.70 685.32 1050.67
  Q 687.29 1049.45 688.70 1047.80
  C 690.94 1045.18 695.30 1041.72 696.77 1040.17
  Q 698.41 1038.43 700.67 1034.84
  Q 704.03 1029.50 707.01 1026.08
  C 709.76 1022.92 711.48 1019.67 711.69 1015.76
  A 0.79 0.79 0.0 0 1 712.52 1015.01
  Q 717.51 1015.22 719.99 1010.60
  Q 723.57 1003.90 726.40 999.82
  A 6.36 6.28 71.2 0 0 727.26 998.04
  C 728.29 994.62 728.87 991.64 732.45 990.12
  A 1.07 1.07 0.0 0 0 733.06 989.43
  Q 735.58 980.39 736.18 978.18
  Q 736.85 975.72 736.90 973.74
  C 737.00 969.86 737.79 967.07 739.61 963.48
  Q 740.54 961.66 740.09 959.54
  C 739.49 956.74 739.50 954.90 740.65 952.24
  Q 742.57 947.77 743.06 946.36
  A 4.78 4.75 55.0 0 0 743.34 944.75
  L 743.34 938.17
  A 2.89 2.75 -58.7 0 0 743.08 936.98
  L 741.99 934.57
  A 1.43 1.40 -46.6 0 1 741.97 933.43
  Q 743.25 930.32 743.25 929.74
  Q 743.30 921.74 743.55 910.26
  Q 743.66 905.26 741.91 901.54
  A 4.43 4.28 -60.2 0 1 741.50 899.93
  Q 741.25 895.70 740.98 890.76
  Q 740.76 886.97 738.64 880.46
  C 737.63 877.36 737.54 875.42 737.17 872.32
  C 736.43 866.21 732.61 862.81 730.62 857.95
  A 1.86 1.85 -83.8 0 0 729.94 857.10
  Q 728.73 856.27 726.76 855.73
  A 1.97 1.97 0.0 0 1 725.34 853.44
  L 725.69 851.70
  A 0.95 0.95 0.0 0 0 724.28 850.69
  L 722.11 851.95
  A 1.69 1.67 -60.9 0 1 721.36 852.17
  Q 717.71 852.40 717.04 852.76
  Q 711.14 855.98 705.88 855.91
  Q 704.00 855.89 701.68 856.88
  Q 698.27 858.33 694.40 858.18
  A 4.94 4.82 -52.8 0 0 692.66 858.44
  C 688.79 859.76 686.15 861.64 681.85 863.51
  Q 680.06 864.29 677.12 864.09
  Q 673.58 863.86 669.18 865.58
  A 4.93 4.79 -54.7 0 1 667.45 865.90
  L 651.18 865.90
  A 0.66 0.62 28.2 0 0 650.85 865.99
  L 644.25 869.80
  A 1.55 1.55 0.0 0 1 642.38 869.55
  C 637.08 864.23 635.67 874.36 631.54 868.95
  A 1.41 1.40 -40.2 0 0 629.46 868.78
  Q 625.62 872.37 619.26 871.99
  A 1.94 1.90 -28.0 0 1 618.37 871.73
  L 617.15 871.02
  A 4.07 3.89 64.8 0 0 616.01 870.58
  Q 609.01 869.09 603.56 872.01
  A 1.78 1.78 0.0 0 1 601.71 871.90
  Q 598.61 869.74 595.72 871.43
  A 3.77 3.73 31.0 0 1 593.62 871.94
  Q 590.73 871.77 581.00 871.89
  Q 579.20 871.91 577.34 872.94
  A 3.35 3.32 45.3 0 1 574.06 872.91
  L 571.21 871.26
  A 2.63 2.50 61.1 0 0 570.17 870.93
  L 563.45 870.33
  A 0.93 0.90 -46.0 0 0 563.15 870.34
  C 558.38 871.19 554.58 870.38 550.38 871.23
  C 546.88 871.94 543.38 871.78 540.74 871.66
  A 5.14 5.08 -33.1 0 1 539.23 871.35
  Q 530.95 868.35 527.73 868.23
  Q 510.66 867.59 510.43 867.59
  A 5.48 5.39 52.6 0 1 508.59 867.33
  L 505.20 866.25
  A 4.26 3.99 -32.8 0 0 504.21 866.07
  Q 500.69 865.83 498.74 865.03
  A 2.17 2.13 42.0 0 0 496.93 865.11
  Q 494.13 866.59 492.71 865.83
  C 490.08 864.42 488.54 863.91 485.05 864.11
  Q 482.96 864.23 480.96 862.73
  A 1.08 1.08 0.0 0 0 479.24 863.50
  C 479.09 865.24 478.94 866.14 477.85 867.66
  Q 474.71 872.00 471.17 877.20
  A 3.16 3.15 64.6 0 0 470.64 878.70
  C 470.23 883.82 473.52 886.80 473.09 891.38
  A 0.74 0.74 0.0 0 1 471.84 891.84
  Z
  M 905.24 684.49
  A 1.45 1.44 -76.5 0 0 904.26 682.88
  Q 902.86 682.43 902.05 681.71
  A 1.38 1.36 -74.3 0 1 901.61 680.91
  Q 900.68 675.75 903.22 671.59
  A 3.48 3.47 61.9 0 0 903.74 669.87
  Q 903.84 666.72 902.60 663.57
  Q 901.83 661.62 901.72 660.25
  C 901.50 657.35 901.81 653.09 898.03 652.20
  Q 894.01 651.26 888.61 649.65
  C 887.11 649.20 885.64 647.56 884.08 646.93
  Q 876.61 643.95 870.51 644.16
  A 7.03 7.03 0.0 0 1 867.73 643.67
  Q 863.91 642.14 858.22 641.81
  A 7.50 7.49 58.0 0 1 855.85 641.26
  C 852.38 639.82 849.27 638.09 843.50 638.18
  A 5.80 5.77 55.2 0 1 841.26 637.77
  Q 837.29 636.20 833.73 635.77
  C 831.72 635.53 829.65 634.14 827.38 634.01
  Q 825.68 633.92 822.52 632.86
  Q 819.73 631.92 816.48 632.15
  C 811.38 632.51 808.93 628.80 804.33 628.19
  Q 802.92 628.00 798.12 627.70
  A 7.20 7.03 56.6 0 1 796.06 627.25
  Q 793.13 626.14 790.61 625.97
  C 788.09 625.80 786.11 624.53 783.19 625.02
  A 3.61 3.49 46.0 0 1 781.77 624.97
  L 770.16 622.24
  A 3.17 2.62 -32.0 0 0 769.56 622.16
  L 763.11 621.96
  A 6.75 6.64 -34.2 0 1 761.13 621.60
  Q 757.09 620.19 754.33 620.02
  C 752.43 619.91 750.33 618.74 748.25 618.51
  Q 745.11 618.16 740.56 618.06
  C 735.95 617.96 733.68 614.32 730.21 614.11
  Q 727.89 613.97 712.85 613.81
  A 1.50 1.49 64.2 0 1 711.97 613.50
  L 708.37 610.65
  A 2.38 2.37 -50.1 0 0 705.12 610.94
  C 704.24 611.94 703.21 613.16 702.79 614.57
  Q 701.82 617.83 699.19 618.87
  A 3.77 3.74 -87.0 0 0 697.21 620.67
  Q 694.80 625.42 690.90 628.84
  A 1.67 1.67 0.0 0 0 690.61 631.01
  Q 694.03 636.18 695.09 641.51
  C 695.49 643.54 696.20 644.72 697.27 646.32
  C 699.24 649.24 698.60 654.24 699.07 657.01
  C 699.76 661.03 704.20 663.50 702.13 668.59
  Q 701.34 670.52 702.42 672.31
  C 704.56 675.87 706.64 678.78 706.65 682.68
  Q 706.66 686.52 708.44 689.20
  Q 710.12 691.71 710.77 693.91
  Q 711.43 696.09 713.92 701.39
  A 5.99 5.85 31.5 0 1 714.48 703.61
  L 714.79 709.57
  A 3.84 3.75 34.8 0 0 714.97 710.51
  L 716.48 714.96
  A 1.09 0.99 -58.2 0 1 716.55 715.34
  Q 716.65 721.85 717.09 722.90
  Q 720.16 730.17 723.86 739.80
  C 725.30 743.53 726.14 747.20 727.23 751.33
  C 727.94 754.00 728.93 755.38 730.90 757.02
  Q 732.55 758.40 732.53 760.47
  Q 732.47 765.89 733.58 769.55
  A 0.96 0.62 32.9 0 0 733.67 769.75
  L 739.86 780.25
  A 0.48 0.48 0.0 0 0 740.15 780.47
  Q 743.79 781.34 746.38 780.51
  Q 752.53 778.53 758.41 779.59
  Q 759.85 779.85 763.62 782.01
  C 766.75 783.81 768.69 782.09 771.87 782.32
  Q 777.92 782.76 780.53 783.56
  C 784.42 784.75 788.78 784.80 791.69 784.91
  A 7.06 6.92 -32.7 0 1 793.87 785.36
  Q 797.61 786.78 801.55 786.97
  A 7.46 7.29 55.7 0 1 803.75 787.41
  Q 806.68 788.47 808.75 788.58
  Q 814.90 788.89 822.92 789.20
  A 3.15 3.11 -30.9 0 1 824.19 789.51
  L 828.22 791.47
  A 5.37 5.07 60.1 0 0 829.78 791.94
  C 838.50 793.11 846.51 792.91 853.72 792.81
  A 6.23 6.18 -34.9 0 1 856.02 793.21
  C 861.04 795.08 866.25 794.48 871.63 795.96
  Q 876.30 797.24 883.20 796.71
  A 4.46 4.38 56.5 0 1 885.64 797.23
  Q 889.07 799.07 893.04 798.84
  C 897.31 798.60 899.61 802.01 904.15 800.59
  A 1.06 1.05 86.4 0 0 904.88 799.76
  Q 905.41 796.73 905.35 795.49
  C 905.18 791.95 905.09 790.73 906.14 788.02
  Q 906.32 787.53 905.78 786.06
  C 904.42 782.40 905.21 779.65 906.94 776.50
  A 2.58 2.43 -31.7 0 0 907.25 775.34
  C 907.33 770.44 907.82 767.34 905.86 763.21
  A 4.89 4.89 0.0 0 1 905.40 761.38
  Q 905.18 757.06 905.39 754.65
  C 905.60 752.17 908.49 750.56 906.10 747.89
  A 2.04 2.03 -65.4 0 1 905.58 746.48
  C 905.62 744.95 906.37 743.79 906.04 741.88
  Q 905.34 737.73 904.66 733.69
  A 4.89 4.81 -44.5 0 1 904.69 731.97
  L 905.30 728.93
  A 3.27 3.25 44.8 0 0 905.29 727.57
  L 904.36 723.24
  A 0.81 0.75 48.9 0 1 904.37 722.87
  Q 905.07 720.66 905.16 719.52
  C 905.32 717.68 903.60 715.89 904.17 713.75
  Q 904.30 713.27 905.73 709.61
  A 0.12 0.06 73.2 0 0 905.74 709.56
  L 904.97 698.09
  A 2.79 2.50 -60.3 0 0 904.82 697.40
  Q 903.98 695.11 903.22 689.48
  A 2.94 2.92 59.3 0 1 903.75 687.36
  Q 905.07 685.54 905.24 684.49
  Z
  M 333.9884 630.7382
  A 1.79 1.13 -95.5 0 0 333.0352 632.6283
  A 1.79 1.13 -95.5 0 0 334.3316 634.3018
  A 1.79 1.13 -95.5 0 0 335.2848 632.4117
  A 1.79 1.13 -95.5 0 0 333.9884 630.7382
  Z
  M 411.08 781.55
  Q 410.54 779.98 410.18 776.17
  Q 409.99 774.15 406.48 768.96
  A 1.08 0.98 -73.4 0 1 406.33 768.65
  L 405.03 764.58
  A 4.39 4.28 17.7 0 0 404.29 763.19
  L 398.62 755.95
  A 4.75 4.59 18.3 0 1 397.85 754.48
  C 397.07 752.05 396.69 748.94 394.22 747.34
  Q 389.56 744.33 387.75 738.32
  A 4.72 4.55 -54.5 0 1 387.57 737.11
  Q 387.51 729.70 382.21 723.87
  C 380.23 721.70 379.88 720.16 379.19 717.34
  Q 377.80 711.69 373.73 707.48
  C 371.83 705.52 371.69 704.07 371.26 701.24
  Q 370.98 699.39 368.45 695.42
  A 0.47 0.46 -70.7 0 1 368.39 695.29
  L 366.57 689.87
  A 8.16 8.05 -69.6 0 0 365.90 688.38
  Q 362.02 681.72 359.37 674.20
  A 7.21 6.93 -74.8 0 0 358.31 672.26
  Q 353.83 666.38 351.22 659.20
  A 6.96 6.74 -75.1 0 0 350.16 657.30
  Q 344.72 650.40 344.20 648.78
  Q 342.51 643.44 338.68 639.70
  C 337.53 638.58 337.77 637.03 336.39 636.18
  A 0.97 0.97 0.0 0 0 334.92 637.16
  Q 335.54 641.00 333.41 642.84
  A 3.22 3.05 57.6 0 0 332.68 646.56
  C 334.76 651.02 337.57 657.74 336.43 662.23
  Q 335.73 665.01 335.76 665.50
  A 1.94 1.88 -56.6 0 0 335.87 666.08
  L 339.88 677.20
  A 7.57 7.35 35.2 0 1 340.32 679.54
  C 340.43 684.40 341.43 687.69 341.30 691.99
  Q 341.24 693.92 342.11 697.25
  A 10.13 10.10 38.4 0 1 342.42 699.89
  Q 342.28 706.78 342.87 708.69
  Q 344.46 713.88 344.63 717.71
  Q 344.85 722.56 345.89 725.70
  Q 346.10 726.32 347.79 734.41
  A 2.86 2.83 52.7 0 1 347.55 736.26
  Q 346.41 738.58 347.01 740.99
  A 1.93 1.93 0.0 0 0 348.11 742.29
  L 350.42 743.29
  A 1.76 1.75 7.0 0 1 351.45 744.60
  Q 352.93 752.99 352.74 754.26
  Q 352.52 755.81 352.00 757.83
  A 4.37 4.32 45.6 0 0 351.99 760.02
  L 354.69 770.65
  A 1.63 1.46 41.9 0 1 354.74 771.11
  Q 354.42 777.28 356.06 781.40
  A 5.58 5.57 -55.1 0 1 356.45 783.60
  Q 356.39 786.76 356.70 788.28
  C 357.27 791.13 359.59 794.63 362.65 791.80
  Q 364.71 789.88 366.34 789.34
  Q 373.49 786.95 381.22 784.47
  Q 382.93 783.92 385.48 781.83
  A 4.38 4.36 -63.6 0 1 388.41 780.84
  L 402.70 781.37
  A 0.58 0.21 -25.1 0 0 402.81 781.36
  C 405.32 780.93 408.13 780.18 409.65 782.29
  A 0.81 0.81 0.0 0 0 411.08 781.55
  Z
  M 927.16 729.90
  A 1.18 1.17 -6.2 0 0 928.15 730.69
  Q 933.35 731.24 939.41 730.96
  C 944.86 730.71 952.18 730.93 956.80 730.86
  C 959.23 730.83 961.39 732.14 963.41 732.12
  A 5.12 4.94 -55.5 0 0 965.27 731.74
  Q 968.24 730.52 969.27 730.92
  C 973.12 732.41 975.21 733.58 978.67 732.19
  Q 980.98 731.26 981.12 729.32
  Q 981.44 724.92 979.73 719.34
  A 2.88 2.60 -58.0 0 1 979.62 718.72
  L 979.11 710.05
  A 5.88 5.65 -43.8 0 1 979.16 708.83
  C 979.64 707.37 980.97 706.24 980.75 704.44
  Q 980.47 702.15 979.30 701.07
  A 1.71 1.71 0.0 0 0 978.36 700.63
  C 973.35 699.97 968.00 700.34 961.90 700.29
  C 959.07 700.27 956.80 701.02 954.33 700.63
  Q 951.75 700.22 948.65 700.29
  Q 935.89 700.54 933.36 700.45
  C 927.89 700.27 927.19 703.11 925.32 707.93
  A 1.51 1.49 40.3 0 0 925.44 709.26
  Q 926.82 711.50 926.81 712.75
  Q 926.72 725.48 926.77 726.99
  Q 926.83 728.88 927.16 729.90
  Z
  M 369.90 860.15
  Q 372.86 860.20 373.88 859.62
  C 378.09 857.25 379.91 856.95 384.24 856.68
  A 16.37 16.11 -55.6 0 0 388.44 855.86
  C 391.78 854.75 395.86 852.72 399.64 853.13
  C 402.20 853.42 404.67 852.47 407.44 852.59
  Q 416.45 852.97 421.08 852.89
  A 1.93 1.30 -29.6 0 1 421.35 852.91
  L 433.24 855.31
  A 2.24 2.17 45.9 0 0 433.90 855.33
  L 443.54 854.25
  A 2.05 2.04 -89.6 0 0 445.34 852.47
  C 445.53 850.87 444.91 848.42 444.00 846.91
  Q 441.55 842.90 441.15 840.09
  A 1.75 1.73 -77.3 0 0 440.40 838.89
  L 437.06 836.67
  A 1.49 1.43 -88.8 0 1 436.61 836.18
  L 429.58 823.34
  A 1.36 0.88 -77.9 0 1 429.47 823.05
  L 428.66 819.28
  A 4.33 4.08 -65.1 0 0 428.36 818.38
  Q 426.90 815.18 423.40 808.08
  C 421.79 804.83 420.49 803.62 416.75 803.83
  Q 408.51 804.29 399.31 802.24
  A 2.64 2.62 -49.8 0 0 397.73 802.38
  C 394.45 803.74 392.89 804.09 389.29 803.85
  Q 386.66 803.67 384.86 804.91
  A 1.51 1.49 -55.9 0 1 383.71 805.14
  L 381.46 804.69
  A 1.05 1.02 39.2 0 0 380.88 804.74
  L 374.21 807.23
  Q 374.14 807.26 374.07 807.29
  L 369.68 809.59
  A 2.03 2.03 0.0 0 0 368.59 811.39
  L 368.59 814.26
  A 3.52 3.50 70.1 0 1 367.34 816.95
  C 364.50 819.35 360.08 822.63 361.07 826.84
  C 361.43 828.38 363.27 830.08 364.30 831.14
  A 2.05 2.04 -65.0 0 1 364.87 832.72
  Q 364.71 834.62 364.41 838.18
  C 364.07 842.15 365.26 845.70 366.95 849.20
  Q 367.74 850.83 367.53 852.70
  Q 367.09 856.68 369.01 859.65
  A 1.08 1.07 -15.7 0 0 369.90 860.15
  Z
  M 802.49 871.92
  C 801.54 872.61 800.68 874.03 799.26 873.97
  Q 794.58 873.75 789.37 873.95
  A 2.16 2.10 -30.9 0 1 788.27 873.69
  L 785.29 872.07
  A 2.01 2.00 -45.7 0 0 783.32 872.10
  L 780.98 873.44
  A 2.18 2.11 -58.7 0 1 779.87 873.73
  Q 779.05 873.77 777.80 873.28
  C 776.04 872.60 773.88 872.59 772.32 872.18
  C 768.74 871.24 766.11 872.63 763.14 874.71
  Q 761.39 875.94 761.63 878.03
  A 1.68 1.63 -66.9 0 0 761.92 878.79
  Q 763.43 880.92 763.58 882.48
  A 2.31 2.22 49.6 0 1 763.54 883.15
  L 761.91 890.72
  A 2.67 2.61 44.3 0 0 761.94 891.94
  Q 763.25 896.67 765.71 900.29
  C 767.74 903.29 765.53 906.25 766.18 909.49
  A 4.85 4.84 46.1 0 1 766.14 911.62
  C 765.30 915.01 766.40 917.99 767.52 922.43
  A 2.21 2.17 50.4 0 1 767.40 923.84
  Q 766.61 925.70 765.24 927.20
  A 3.65 3.64 63.6 0 0 764.30 930.00
  Q 765.27 940.17 765.15 950.20
  C 765.13 952.27 762.82 954.73 762.71 956.78
  Q 762.61 958.79 762.92 960.24
  A 0.93 0.92 -4.8 0 0 763.79 960.97
  Q 771.54 961.26 777.68 959.60
  C 780.72 958.79 784.09 958.61 786.29 958.89
  Q 789.72 959.31 791.33 959.35
  A 1.59 1.56 -62.9 0 0 792.32 959.02
  L 793.88 957.81
  A 1.03 1.02 34.8 0 1 794.81 957.65
  C 795.55 957.89 796.30 958.49 796.95 958.63
  Q 802.11 959.70 805.66 957.88
  A 1.22 1.21 44.2 0 1 806.77 957.87
  Q 808.71 958.86 809.19 958.87
  Q 811.51 958.92 819.12 958.71
  A 5.62 5.54 -57.0 0 0 821.16 958.26
  Q 825.42 956.42 831.60 956.85
  A 1.38 1.34 -24.5 0 1 832.27 957.09
  L 834.07 958.30
  A 2.01 2.00 -45.9 0 0 836.35 958.26
  Q 838.46 956.73 840.87 957.09
  A 1.75 1.75 0.0 0 0 842.77 954.72
  L 841.82 952.27
  A 1.09 1.08 -54.3 0 1 841.74 951.77
  Q 841.95 949.39 841.52 943.95
  C 841.28 940.88 839.77 938.48 839.60 935.42
  A 3.74 3.73 55.4 0 1 839.90 933.77
  L 840.99 931.27
  A 4.37 4.33 57.5 0 0 841.34 929.66
  Q 841.38 927.39 841.29 922.95
  C 841.25 920.99 839.75 918.61 840.46 916.22
  Q 842.04 910.92 842.60 909.39
  C 843.86 906.00 842.65 902.51 844.75 899.43
  C 845.89 897.75 845.70 895.74 844.24 894.27
  C 842.59 892.61 843.30 890.06 844.30 888.39
  A 3.91 3.85 -32.5 0 0 844.83 886.07
  L 844.67 884.33
  A 4.85 4.70 -41.6 0 1 844.78 882.86
  Q 845.65 879.27 845.41 875.43
  A 1.44 1.44 0.0 0 0 844.09 874.09
  L 835.05 873.38
  A 1.72 1.69 39.2 0 0 834.50 873.43
  Q 831.86 874.15 827.67 874.00
  Q 826.57 873.96 824.39 872.66
  Q 821.67 871.06 818.09 872.65
  Q 813.02 874.91 807.39 874.16
  A 3.54 3.50 -21.8 0 1 805.69 873.44
  L 803.80 871.94
  A 1.08 1.08 0.0 0 0 802.49 871.92
  Z
  M 867.62 881.87
  Q 869.31 884.08 867.23 886.99
  A 2.08 2.06 54.1 0 0 866.94 888.87
  Q 867.84 891.56 868.31 892.83
  C 869.48 895.98 867.44 898.30 866.70 901.40
  A 4.78 4.57 -40.3 0 0 866.57 902.65
  Q 866.65 906.48 866.61 912.87
  C 866.60 915.03 865.50 917.21 865.56 919.26
  A 3.13 3.09 33.8 0 0 865.79 920.38
  Q 867.40 924.43 866.24 927.55
  C 864.30 932.73 864.13 938.07 866.44 942.88
  C 867.76 945.62 872.75 944.63 875.07 944.97
  A 7.02 6.79 -29.6 0 1 876.58 945.36
  Q 884.45 948.39 888.77 948.53
  Q 891.01 948.61 895.15 948.64
  A 4.99 4.83 54.4 0 1 896.75 948.93
  L 917.91 956.38
  A 1.48 1.22 -13.6 0 1 918.24 956.54
  L 929.33 963.66
  A 8.90 8.82 -27.6 0 0 933.87 965.06
  Q 938.64 965.19 942.71 966.36
  C 945.01 967.03 946.06 965.84 946.03 963.66
  A 0.90 0.82 -67.6 0 0 945.84 963.14
  L 941.24 957.60
  A 3.81 3.80 70.0 0 0 938.29 956.22
  C 932.72 956.22 925.91 956.04 925.34 949.26
  Q 924.92 944.17 928.49 940.51
  A 3.09 3.00 10.3 0 1 929.52 939.82
  Q 943.06 934.35 951.37 931.38
  Q 953.16 930.74 958.17 927.99
  A 4.81 4.55 -66.6 0 1 959.13 927.58
  C 964.86 925.83 972.54 925.98 977.26 930.29
  Q 979.56 932.40 988.92 941.63
  Q 991.23 943.90 992.65 946.20
  A 5.67 5.66 -6.2 0 0 995.57 948.54
  L 997.84 949.34
  A 1.20 1.20 0.0 0 0 999.34 947.73
  Q 997.56 943.69 997.70 939.37
  A 4.35 4.25 34.5 0 0 997.32 937.43
  Q 995.74 933.87 995.15 929.90
  A 7.17 7.11 28.1 0 0 994.53 927.89
  Q 991.71 922.10 988.89 917.83
  C 985.96 913.41 980.49 914.27 974.64 914.20
  A 5.96 5.71 -52.6 0 0 972.89 914.47
  Q 969.90 915.42 966.97 916.23
  Q 963.57 917.17 958.25 920.64
  A 4.72 4.67 24.0 0 1 956.37 921.35
  Q 945.44 922.92 934.45 928.80
  C 930.53 930.89 920.64 935.89 917.23 935.04
  Q 914.05 934.26 911.35 934.43
  A 1.13 1.11 -17.0 0 1 910.30 933.88
  C 907.50 929.08 906.18 927.12 908.52 921.90
  C 909.60 919.50 913.65 916.82 915.67 915.95
  Q 925.60 911.67 937.46 905.71
  Q 939.44 904.72 947.73 903.13
  A 2.15 2.11 22.4 0 0 948.47 902.83
  Q 949.59 902.13 949.68 899.47
  A 1.71 1.71 0.0 0 0 948.00 897.69
  Q 945.02 897.63 941.91 896.52
  A 3.39 3.30 -41.9 0 0 939.95 896.44
  C 936.88 897.25 934.29 897.06 931.11 898.30
  Q 926.25 900.20 919.99 900.17
  A 9.63 9.58 30.2 0 0 915.14 901.44
  Q 915.06 901.48 910.31 904.51
  C 908.91 905.41 907.98 905.44 906.62 904.87
  Q 905.53 904.41 904.67 904.96
  Q 900.57 907.58 895.21 909.49
  A 3.76 3.64 -50.2 0 1 893.52 909.67
  Q 890.50 909.30 887.83 910.05
  A 2.70 2.68 -34.4 0 1 885.49 909.62
  Q 882.50 907.37 880.20 904.06
  C 878.07 901.01 879.34 897.80 880.79 894.55
  Q 881.83 892.22 883.65 891.88
  Q 887.98 891.06 889.97 889.88
  A 3.85 3.74 -82.7 0 0 890.65 889.34
  Q 894.41 885.54 898.71 884.43
  Q 909.94 881.51 916.16 880.22
  A 1.69 1.69 0.0 0 0 916.76 877.16
  L 912.24 874.15
  A 1.41 1.34 -23.3 0 0 911.64 873.93
  Q 904.97 873.10 900.07 875.25
  A 6.86 6.86 0.0 0 1 897.96 875.81
  Q 896.56 875.95 892.21 876.24
  C 889.67 876.41 888.00 877.84 885.59 877.89
  C 881.34 877.98 877.20 879.16 874.12 881.63
  A 1.47 1.47 0.0 0 1 872.07 881.43
  Q 870.71 879.80 868.37 880.09
  A 1.11 1.11 0.0 0 0 867.62 881.87
  Z"
/>
</svg>
