<?xml version="1.0" encoding="UTF-8" standalone="no"?>
<!DOCTYPE svg PUBLIC "-//W3C//DTD SVG 1.1//EN" "http://www.w3.org/Graphics/SVG/1.1/DTD/svg11.dtd">
<svg xmlns="http://www.w3.org/2000/svg" version="1.1" viewBox="0.00 0.00 1200.00 1200.00">
<path fill="#000000" d="
  M 852.27 593.44
  Q 852.04 593.40 851.99 593.28
  A 0.03 0.02 -31.7 0 1 852.00 593.26
  Q 853.92 591.14 855.54 590.29
  C 859.86 588.04 861.38 587.45 863.98 585.02
  Q 866.22 582.94 867.10 582.78
  Q 871.49 581.99 877.01 580.30
  A 4.40 4.36 -39.2 0 1 880.38 580.63
  C 882.15 581.59 884.98 583.60 886.37 580.61
  Q 887.10 579.05 887.98 576.84
  A 3.01 3.00 -7.1 0 1 888.98 575.56
  C 893.04 572.60 897.65 572.13 902.76 572.34
  Q 912.96 572.77 923.78 572.37
  C 925.74 572.29 927.23 571.79 928.65 571.31
  A 3.28 3.26 43.0 0 1 930.49 571.25
  Q 935.82 572.65 936.42 573.09
  Q 940.46 576.07 945.11 578.17
  A 1.73 1.73 0.0 0 0 947.38 577.36
  L 949.15 573.72
  A 2.40 2.40 0.0 0 1 949.99 572.77
  Q 953.61 570.38 955.60 569.82
  Q 962.91 567.73 968.03 565.00
  C 969.69 564.11 971.63 563.96 973.04 563.68
  A 1.04 1.03 -86.4 0 0 973.81 562.99
  C 974.59 560.55 973.45 558.26 972.28 555.58
  A 9.03 8.99 -57.3 0 1 971.54 552.15
  C 971.49 548.09 971.18 543.68 972.82 539.26
  C 974.10 535.83 972.76 532.99 976.46 530.18
  C 979.95 527.53 980.59 526.94 984.40 527.51
  A 0.63 0.63 0.0 0 0 985.10 526.72
  Q 984.46 524.43 986.51 523.01
  Q 990.22 520.43 991.58 519.08
  C 994.95 515.72 996.26 514.83 1000.70 513.99
  A 11.99 11.73 25.9 0 0 1003.66 513.00
  C 1012.25 508.82 1020.59 507.46 1030.89 506.17
  A 10.27 10.14 32.4 0 0 1032.50 505.82
  Q 1036.02 504.73 1037.01 505.26
  Q 1039.16 506.40 1043.24 506.40
  Q 1053.84 506.41 1055.34 506.33
  A 5.00 4.91 -32.1 0 1 1057.43 506.79
  L 1067.40 511.42
  A 0.67 0.53 -6.3 0 1 1067.51 511.49
  Q 1069.50 513.08 1070.95 516.30
  C 1072.92 520.68 1073.46 523.72 1075.69 527.72
  C 1077.91 531.70 1078.84 535.95 1078.83 540.94
  C 1078.79 553.55 1078.02 564.36 1081.47 574.87
  C 1082.76 578.79 1081.11 581.56 1083.82 584.80
  A 2.03 2.03 0.0 0 1 1084.16 586.82
  L 1083.00 589.90
  A 1.07 1.06 39.2 0 0 1083.10 590.87
  L 1086.35 595.94
  A 0.99 0.99 0.0 0 1 1086.43 596.84
  L 1085.12 600.02
  A 1.33 1.20 -36.4 0 0 1085.02 600.51
  Q 1084.75 617.73 1085.01 638.79
  Q 1085.03 640.81 1085.75 642.04
  Q 1086.92 644.04 1086.89 645.03
  Q 1086.78 648.83 1086.20 649.76
  C 1084.13 653.09 1086.55 653.87 1086.77 656.64
  Q 1087.04 660.04 1086.52 661.27
  Q 1085.01 664.83 1085.00 665.00
  Q 1084.83 670.66 1084.49 672.39
  A 1.10 1.05 65.4 0 1 1084.38 672.71
  L 1083.12 675.13
  A 3.90 3.80 62.1 0 0 1082.70 676.56
  C 1082.25 681.78 1081.61 684.76 1077.06 687.64
  C 1073.21 690.07 1070.39 693.79 1066.50 696.80
  Q 1065.48 697.58 1063.28 697.52
  Q 1060.97 697.45 1058.44 698.61
  A 2.49 2.42 37.7 0 1 1056.93 698.78
  L 1055.06 698.38
  A 1.78 1.78 0.0 0 0 1053.96 698.50
  C 1052.16 699.34 1051.23 699.88 1049.39 699.72
  Q 1045.41 699.37 1041.27 700.83
  Q 1040.67 701.03 1037.74 700.61
  Q 1036.06 700.37 1034.31 699.69
  Q 1028.32 697.35 1022.62 697.33
  C 1020.42 697.31 1019.25 696.52 1017.84 695.57
  C 1015.75 694.15 1011.64 693.86 1008.78 693.52
  Q 1007.37 693.35 1003.30 691.43
  Q 998.76 689.29 997.08 685.22
  A 2.69 2.67 83.8 0 0 995.08 683.60
  Q 993.38 683.29 992.28 683.18
  C 986.22 682.54 987.44 675.74 987.51 671.03
  Q 987.54 668.96 985.92 667.84
  Q 983.77 666.36 982.98 663.37
  A 1.41 1.37 -84.2 0 0 982.29 662.50
  Q 980.51 661.54 977.21 663.40
  A 2.31 2.30 -42.5 0 1 974.80 663.30
  Q 973.27 662.26 966.32 660.96
  A 0.85 0.84 -75.2 0 0 965.37 661.52
  C 964.34 664.46 964.78 668.08 964.99 671.93
  A 1.83 1.80 67.8 0 1 964.39 673.39
  L 955.14 681.67
  A 2.68 1.95 -18.2 0 0 954.90 681.92
  L 948.03 689.92
  A 1.21 0.89 -18.0 0 0 947.88 690.13
  C 946.08 693.22 945.20 695.06 942.21 696.96
  A 2.01 2.00 -66.2 0 1 941.52 697.23
  L 937.98 697.91
  A 2.58 2.52 -68.2 0 0 936.94 698.37
  Q 932.37 701.84 925.41 703.65
  C 920.18 705.01 915.99 708.27 908.43 712.97
  A 5.23 5.15 4.8 0 0 907.37 713.85
  L 905.10 716.31
  A 2.20 2.14 12.5 0 1 904.13 716.91
  Q 898.49 718.59 891.82 722.08
  C 887.73 724.22 888.90 726.23 888.59 729.60
  Q 888.28 732.89 886.81 737.55
  Q 886.50 738.53 886.20 742.14
  A 3.19 3.01 61.8 0 1 885.92 743.18
  Q 884.84 745.43 883.48 746.48
  C 881.59 747.93 880.91 748.59 880.52 750.97
  Q 879.22 758.84 874.74 765.07
  A 10.37 9.91 -17.9 0 0 873.53 767.31
  Q 870.59 774.92 869.54 776.05
  Q 865.76 780.17 864.81 784.62
  Q 864.15 787.70 863.18 788.73
  C 861.12 790.92 858.10 792.66 856.94 795.51
  A 2.81 2.80 -37.0 0 0 856.74 796.90
  Q 857.29 801.74 854.35 805.39
  C 852.48 807.70 853.26 810.78 852.76 813.50
  A 3.69 3.67 -22.1 0 1 852.15 814.93
  L 849.37 818.82
  A 2.92 2.86 66.2 0 0 848.86 820.18
  L 848.53 823.31
  A 3.49 3.43 61.4 0 1 848.18 824.54
  C 847.43 826.06 845.86 827.48 845.08 829.27
  Q 842.75 834.59 839.89 837.65
  C 836.54 841.23 835.41 844.71 832.73 849.74
  C 831.50 852.07 829.92 853.75 829.01 855.19
  A 2.45 2.37 64.5 0 0 828.64 856.29
  C 828.39 859.87 830.20 861.32 827.10 864.30
  Q 826.00 865.37 825.67 866.00
  Q 823.41 870.36 822.05 871.98
  A 1.29 1.27 -33.4 0 0 821.80 873.14
  L 822.43 875.38
  A 2.09 2.08 -39.1 0 1 822.27 876.90
  L 817.38 886.18
  A 4.26 4.24 61.6 0 0 816.92 887.73
  Q 816.65 890.44 816.13 891.13
  Q 813.58 894.55 812.50 896.08
  A 7.50 7.36 73.8 0 0 811.72 897.53
  C 810.17 901.43 807.93 903.61 806.21 907.37
  Q 804.84 910.36 802.05 913.55
  C 799.02 917.03 801.28 920.47 802.61 924.10
  A 3.00 2.86 36.0 0 1 802.78 925.02
  L 803.03 934.06
  A 3.11 3.01 52.2 0 1 802.93 934.98
  L 801.99 938.57
  A 2.64 2.63 43.6 0 0 802.03 940.06
  Q 803.32 944.04 802.46 950.34
  A 3.80 3.68 -27.9 0 1 802.04 951.63
  L 799.70 956.05
  A 2.45 2.43 -29.3 0 0 799.44 956.96
  Q 798.44 969.91 797.29 977.02
  Q 797.08 978.32 796.38 979.98
  A 7.64 7.51 -29.9 0 0 795.87 981.80
  C 794.97 987.66 794.66 991.55 792.70 995.24
  Q 787.78 1004.47 787.24 1007.03
  Q 786.38 1011.14 785.03 1014.53
  A 2.97 2.84 57.1 0 0 784.82 1015.62
  L 784.82 1017.73
  A 2.27 2.25 -21.8 0 1 784.11 1019.37
  Q 783.49 1019.96 779.58 1023.56
  C 773.19 1029.46 771.61 1039.86 765.94 1044.50
  A 3.17 3.17 0.0 0 0 764.79 1046.81
  Q 764.59 1051.99 762.11 1054.39
  A 1.78 1.77 -72.6 0 1 761.18 1054.88
  C 755.04 1056.12 750.32 1063.97 746.83 1069.32
  Q 745.96 1070.67 738.60 1077.03
  C 736.52 1078.82 735.63 1079.96 734.32 1081.96
  A 3.30 3.26 12.3 0 1 732.03 1083.41
  L 728.38 1083.91
  A 4.42 4.40 14.5 0 0 725.47 1085.61
  C 723.23 1088.57 719.95 1090.59 716.22 1091.54
  C 713.20 1092.32 711.82 1093.69 709.53 1095.72
  A 4.48 4.42 12.5 0 1 708.40 1096.43
  L 697.15 1101.18
  A 3.83 3.71 -57.2 0 1 695.95 1101.46
  L 688.73 1101.85
  A 0.90 0.87 -57.4 0 0 688.44 1101.92
  Q 679.42 1105.77 669.49 1105.39
  Q 667.70 1105.33 666.37 1103.97
  A 1.87 1.80 -41.5 0 0 663.91 1103.87
  C 660.87 1106.31 657.91 1104.39 655.18 1105.67
  C 650.12 1108.05 646.98 1107.49 640.21 1107.42
  A 4.70 4.68 57.9 0 1 638.23 1106.96
  C 634.23 1105.00 630.54 1102.67 626.07 1104.38
  A 2.52 2.52 0.0 0 1 624.77 1104.53
  Q 619.44 1103.73 617.74 1102.51
  Q 609.96 1096.94 600.32 1097.52
  C 597.68 1097.68 593.28 1092.94 591.41 1091.39
  A 6.47 6.27 -13.3 0 0 589.75 1090.40
  Q 585.62 1088.71 584.95 1088.05
  Q 574.95 1078.12 562.26 1071.47
  A 8.35 8.26 -5.6 0 1 559.66 1069.36
  Q 557.68 1066.98 554.01 1064.69
  A 10.03 9.98 -6.9 0 1 552.28 1063.34
  C 549.79 1060.93 547.99 1059.09 545.15 1057.64
  Q 542.10 1056.07 541.66 1055.73
  A 11.72 4.98 39.3 0 1 540.37 1054.69
  Q 540.35 1054.68 536.68 1050.62
  A 1.86 1.75 82.3 0 0 536.25 1050.27
  L 530.75 1047.22
  A 5.59 5.23 77.9 0 1 529.83 1046.58
  C 525.25 1042.72 521.11 1037.21 515.97 1033.75
  A 9.12 9.03 89.0 0 1 513.61 1031.45
  C 510.64 1027.25 509.58 1025.37 505.25 1022.07
  A 7.13 6.94 89.4 0 1 503.80 1020.61
  C 500.94 1016.79 497.85 1014.02 495.10 1010.22
  Q 492.39 1006.46 486.86 999.71
  Q 484.64 996.99 482.44 995.08
  C 480.10 993.05 479.00 990.35 476.99 988.25
  Q 475.05 986.22 472.92 982.89
  C 471.37 980.46 470.28 979.58 467.94 977.33
  A 7.38 7.19 7.4 0 1 466.76 975.84
  Q 462.25 968.37 455.04 959.43
  C 452.17 955.86 448.79 953.70 445.34 951.41
  A 3.50 3.47 -83.9 0 1 444.00 949.73
  L 440.63 940.65
  A 3.65 3.62 -84.7 0 0 439.13 938.83
  C 437.25 937.70 435.93 936.95 434.64 935.29
  C 432.52 932.57 430.44 929.30 428.20 927.12
  C 423.92 922.98 421.52 919.94 419.01 913.73
  A 13.61 13.33 17.8 0 0 417.71 911.26
  Q 415.81 908.41 414.93 906.19
  A 6.97 6.88 12.3 0 0 413.40 903.84
  C 409.94 900.33 408.23 896.64 406.69 893.65
  A 1.62 1.33 -84.3 0 0 406.53 893.41
  L 399.74 885.30
  A 1.75 1.29 80.0 0 0 399.55 885.12
  C 394.19 880.64 391.09 875.28 388.02 868.74
  C 385.73 863.86 383.01 860.78 379.05 858.13
  A 3.25 3.23 -76.0 0 1 377.63 855.75
  C 376.66 845.28 369.39 841.21 363.23 834.18
  A 7.99 7.60 -80.4 0 1 362.13 832.55
  Q 358.52 825.49 352.99 820.05
  Q 352.19 819.25 351.49 816.69
  C 349.62 809.87 345.32 803.51 340.09 799.01
  C 337.58 796.86 335.86 793.50 336.01 789.99
  C 336.26 784.49 333.00 782.81 330.78 778.43
  A 1.93 1.92 67.4 0 0 328.46 777.47
  L 319.01 780.61
  A 11.26 11.11 17.4 0 0 315.96 782.18
  Q 310.38 786.26 304.39 788.85
  Q 302.59 789.62 299.39 792.04
  Q 297.06 793.80 293.57 795.05
  A 1.66 1.66 0.0 0 1 292.77 795.13
  L 289.19 794.68
  A 2.25 2.21 -60.0 0 0 287.53 795.14
  L 282.13 799.41
  A 1.69 1.69 0.0 0 1 279.82 799.21
  Q 277.98 797.12 275.88 799.09
  A 2.63 2.51 -47.8 0 1 272.57 799.33
  C 269.42 796.95 268.27 795.64 264.57 795.66
  A 5.37 5.19 53.3 0 1 262.79 795.37
  Q 259.20 794.10 253.83 792.83
  C 250.80 792.12 248.28 787.42 245.81 785.75
  Q 244.17 784.63 243.72 784.20
  A 1.39 1.36 -67.1 0 1 243.30 783.14
  Q 243.53 778.84 240.88 774.39
  A 0.94 0.94 0.0 0 0 239.13 774.80
  Q 238.98 776.90 238.31 778.35
  A 4.22 4.09 82.4 0 1 237.37 779.62
  Q 234.03 782.66 233.56 783.84
  C 229.90 793.13 222.89 799.60 214.51 805.01
  A 1.77 1.76 -44.6 0 1 212.56 805.00
  Q 209.76 803.12 208.51 804.79
  Q 207.17 806.60 207.84 808.12
  Q 209.65 812.17 208.57 818.31
  A 3.89 3.80 69.8 0 1 207.81 820.01
  C 206.03 822.26 204.72 823.58 204.82 826.72
  Q 204.90 829.11 202.65 832.08
  Q 201.53 833.56 197.77 835.16
  Q 194.45 836.58 189.54 840.00
  A 4.69 4.66 -66.3 0 1 187.61 840.76
  Q 179.94 841.88 171.02 841.52
  C 166.70 841.35 165.35 844.97 160.00 842.68
  Q 154.63 840.39 151.77 839.72
  C 148.58 838.98 145.53 840.92 142.00 837.20
  Q 137.85 832.82 133.63 830.24
  C 129.71 827.84 128.72 823.17 124.55 820.67
  Q 122.01 819.15 119.54 816.78
  C 117.95 815.27 116.18 814.29 114.41 813.32
  A 2.57 2.48 -6.7 0 1 113.74 812.81
  C 109.75 808.64 109.70 804.86 109.30 799.93
  A 3.94 3.84 29.4 0 0 108.84 798.36
  Q 107.83 796.51 107.60 795.99
  A 2.92 2.91 54.1 0 1 108.10 792.84
  C 109.62 791.16 110.07 789.46 109.79 786.91
  Q 109.13 780.96 111.06 775.54
  C 111.81 773.41 111.60 772.01 110.61 770.34
  Q 109.46 768.41 110.12 766.53
  Q 111.93 761.41 112.86 758.16
  A 11.88 11.55 -37.8 0 0 113.31 754.95
  Q 113.31 744.96 114.05 740.89
  C 114.59 737.88 113.21 734.96 114.68 731.68
  Q 116.22 728.24 116.47 724.33
  Q 116.75 719.84 117.13 717.71
  Q 117.97 712.97 117.55 706.91
  A 2.14 2.12 -36.9 0 1 117.69 705.96
  L 118.94 702.65
  A 5.74 5.64 56.5 0 0 119.31 700.74
  L 119.51 691.79
  A 2.92 2.81 59.8 0 1 119.81 690.55
  L 120.88 688.35
  A 1.47 1.44 -48.7 0 0 120.80 686.91
  L 119.97 685.60
  A 3.16 3.15 -63.0 0 1 119.46 684.02
  C 119.28 680.24 119.62 676.12 119.00 672.57
  Q 118.42 669.23 117.96 662.25
  A 2.32 2.23 -38.4 0 1 118.09 661.29
  Q 119.46 657.52 120.98 651.77
  C 121.47 649.89 122.61 647.71 124.14 646.10
  Q 129.93 639.97 135.89 634.64
  Q 138.36 632.43 140.99 632.45
  Q 146.83 632.50 148.35 632.28
  A 4.96 4.90 28.2 0 0 149.91 631.82
  L 154.91 629.42
  A 9.36 9.25 -63.2 0 1 157.12 628.68
  Q 160.46 627.99 165.45 626.49
  Q 167.16 625.98 171.24 627.08
  Q 172.02 627.29 175.49 626.63
  A 4.21 4.15 45.4 0 1 177.11 626.65
  L 197.00 630.86
  A 3.65 3.62 73.1 0 1 198.80 631.83
  L 201.44 634.48
  A 3.38 3.15 78.0 0 0 202.31 635.09
  C 207.96 637.86 212.36 640.97 215.84 645.63
  A 3.80 3.77 21.0 0 1 216.52 647.14
  C 217.52 652.05 217.93 653.90 221.84 656.60
  Q 223.90 658.03 225.96 660.20
  A 3.02 2.99 -68.6 0 1 226.78 662.11
  Q 226.93 665.37 226.41 668.14
  C 225.98 670.44 222.96 672.49 222.83 674.83
  Q 222.79 675.56 222.87 685.58
  A 3.06 3.05 16.1 0 0 224.27 688.11
  Q 227.33 690.08 232.13 691.85
  C 234.40 692.69 235.70 693.67 236.72 695.73
  A 1.49 1.49 0.0 0 0 239.16 696.07
  Q 243.71 691.10 245.59 685.54
  C 246.64 682.41 247.74 681.03 250.77 679.55
  C 254.45 677.74 256.05 672.71 257.85 669.20
  A 4.36 4.33 0.6 0 1 259.80 667.30
  Q 263.84 665.34 267.09 661.44
  A 7.20 6.78 -86.2 0 1 268.37 660.25
  Q 277.80 653.56 287.91 649.09
  A 1.91 1.88 40.3 0 1 289.15 649.00
  L 299.05 651.79
  A 2.05 2.00 41.6 0 0 300.32 651.73
  C 305.10 649.89 307.25 647.12 310.75 644.06
  C 313.01 642.09 317.76 642.43 321.55 642.46
  C 324.50 642.49 327.12 644.80 330.58 644.40
  A 1.13 1.13 0.0 0 1 331.60 644.83
  C 333.72 647.56 335.80 650.63 339.39 647.21
  Q 342.71 644.05 345.14 641.59
  A 3.98 3.97 23.5 0 1 348.12 640.42
  Q 352.92 640.62 357.43 638.49
  A 3.34 3.32 -48.6 0 1 359.89 638.33
  Q 364.90 639.94 371.33 640.66
  C 374.09 640.97 375.92 643.02 377.62 645.53
  Q 385.60 657.37 387.79 659.99
  Q 389.59 662.15 393.53 664.93
  A 4.59 4.52 88.7 0 1 394.57 665.94
  C 396.25 668.14 396.81 670.16 399.02 673.19
  Q 401.31 676.33 405.19 673.92
  A 0.51 0.50 -22.5 0 1 405.95 674.23
  Q 406.36 676.00 407.27 676.81
  A 3.44 3.20 76.1 0 0 407.96 677.26
  C 410.63 678.56 413.72 679.62 416.67 681.29
  Q 420.49 683.45 421.63 683.77
  Q 428.51 685.68 429.89 687.04
  Q 433.79 690.86 438.43 694.65
  A 7.74 7.72 -84.9 0 1 440.30 696.89
  C 441.83 699.64 442.96 703.10 445.99 704.10
  C 451.10 705.78 456.15 710.51 459.64 714.81
  A 6.27 6.26 12.2 0 1 460.42 716.02
  Q 461.82 718.85 462.38 719.38
  Q 465.09 721.95 471.03 725.57
  A 7.73 7.54 83.0 0 1 472.59 726.82
  Q 474.97 729.28 478.00 732.69
  Q 480.18 735.15 483.01 735.55
  A 1.22 1.22 0.0 0 0 484.36 734.64
  C 484.68 733.37 485.32 730.93 485.37 729.09
  Q 485.69 718.74 484.66 710.81
  A 1.13 0.85 -55.4 0 1 484.65 710.56
  L 484.90 708.27
  A 3.14 3.12 37.4 0 0 484.69 706.74
  Q 484.46 706.06 482.22 701.25
  C 481.04 698.70 483.81 695.43 485.78 692.79
  C 487.71 690.20 487.81 688.99 488.02 685.99
  Q 488.10 684.78 488.86 683.20
  Q 491.03 678.68 493.00 671.82
  A 2.14 2.14 0.0 0 0 492.46 669.70
  L 487.24 664.48
  A 1.39 1.35 11.8 0 1 486.91 663.99
  L 477.82 641.65
  A 4.15 4.04 -60.9 0 1 477.58 640.76
  L 477.25 638.43
  A 4.75 4.68 -66.1 0 0 476.52 636.50
  C 474.57 633.28 472.31 630.60 471.82 625.72
  Q 471.30 620.59 468.58 613.97
  A 4.20 4.05 15.9 0 0 467.99 612.95
  Q 466.22 610.71 466.06 610.15
  Q 464.10 602.90 460.52 595.75
  A 1.16 1.12 -2.2 0 0 459.88 595.18
  L 457.58 594.31
  A 1.39 1.37 83.5 0 1 456.90 593.76
  L 452.82 587.37
  A 1.87 1.86 42.7 0 1 452.74 585.49
  Q 453.97 583.17 452.68 580.22
  Q 450.15 574.43 448.80 564.77
  Q 448.54 562.92 445.26 557.63
  A 3.43 3.38 -65.4 0 1 444.77 556.28
  L 443.12 544.28
  A 7.16 6.96 -61.3 0 0 442.60 542.40
  Q 441.15 539.00 440.99 535.88
  C 440.75 531.04 438.31 525.50 436.55 521.46
  A 9.90 9.82 32.1 0 1 435.75 518.04
  L 435.29 508.62
  A 2.89 2.76 34.9 0 0 435.12 507.78
  L 429.77 493.39
  A 2.85 2.79 -56.2 0 1 429.58 492.37
  Q 429.47 483.86 425.57 475.99
  Q 424.52 473.88 424.22 471.49
  C 423.67 467.10 421.13 464.00 419.90 459.68
  Q 419.69 458.94 420.06 456.39
  C 420.65 452.27 419.10 448.61 417.16 445.10
  A 3.72 3.45 24.4 0 1 416.90 444.48
  L 413.86 433.63
  A 1.62 1.61 36.7 0 1 413.79 433.16
  Q 413.81 431.19 413.36 429.36
  Q 411.52 421.89 408.04 412.02
  Q 407.10 409.38 406.59 398.95
  A 10.24 9.72 -53.8 0 0 406.40 397.47
  Q 405.41 392.61 405.23 390.24
  C 404.97 386.70 401.70 385.32 404.38 381.06
  Q 405.05 379.98 404.50 378.82
  Q 402.17 373.89 404.87 370.40
  A 2.81 2.67 -49.0 0 0 404.71 366.77
  Q 403.68 365.75 403.58 364.25
  Q 402.89 354.14 402.94 351.47
  A 3.00 2.94 31.4 0 0 402.57 350.00
  Q 400.76 346.69 403.88 343.33
  A 2.15 2.09 12.0 0 1 404.80 342.75
  L 412.72 340.37
  A 9.27 9.24 -71.2 0 0 415.49 339.00
  Q 416.65 338.15 427.19 331.18
  Q 428.74 330.15 435.33 327.81
  A 8.63 8.35 -69.6 0 0 436.88 327.07
  Q 438.54 326.06 441.30 323.55
  C 443.39 321.65 445.55 321.88 448.19 321.34
  Q 455.92 319.77 461.91 315.17
  A 2.09 2.05 23.0 0 1 462.95 314.76
  L 470.95 313.98
  A 3.68 3.58 29.1 0 0 472.13 313.66
  Q 475.99 311.89 476.83 312.00
  Q 483.38 312.92 489.20 309.49
  A 1.07 1.05 79.9 0 0 489.71 308.74
  C 490.16 305.82 488.10 301.89 486.49 298.23
  A 12.45 12.42 31.1 0 1 485.48 294.18
  L 485.12 289.43
  A 1.96 1.95 -60.7 0 0 484.92 288.71
  L 482.82 284.66
  A 1.88 1.88 0.0 0 0 479.86 284.17
  L 477.52 286.40
  A 4.24 4.16 -74.8 0 1 475.83 287.39
  Q 475.01 287.63 469.80 287.61
  Q 464.90 287.58 462.92 284.15
  Q 460.42 279.84 459.22 271.66
  A 1.08 1.05 -78.9 0 0 458.72 270.89
  C 455.72 269.03 453.92 265.29 453.39 261.90
  C 452.91 258.77 451.38 255.99 451.48 252.76
  C 451.57 249.68 451.82 248.81 450.63 246.12
  Q 449.49 243.52 450.66 240.95
  A 2.70 2.69 43.9 0 0 450.61 238.57
  C 449.60 236.63 449.01 231.36 449.97 229.17
  A 1.76 1.74 -89.4 0 1 450.88 228.27
  Q 453.33 227.21 454.88 224.84
  C 456.55 222.29 459.93 219.69 462.09 219.07
  Q 468.17 217.34 474.04 213.36
  C 476.67 211.58 479.51 212.23 482.29 213.93
  Q 487.51 217.12 491.97 222.21
  Q 492.69 223.04 493.34 227.19
  C 493.97 231.32 498.94 229.90 501.63 228.85
  A 7.97 7.91 -55.4 0 1 504.40 228.33
  Q 506.99 228.32 511.26 228.47
  Q 513.81 228.56 513.81 226.28
  Q 513.79 219.99 513.61 216.88
  A 3.90 3.90 0.0 0 1 514.28 214.45
  C 516.35 211.41 518.94 208.82 522.92 208.28
  C 525.75 207.89 528.35 206.38 531.50 206.40
  Q 540.28 206.48 545.31 206.31
  C 547.25 206.25 548.77 205.70 550.14 205.51
  A 3.69 3.63 50.6 0 1 551.92 205.70
  Q 555.78 207.11 559.90 205.18
  C 561.37 204.50 562.47 204.49 563.76 204.97
  C 565.66 205.69 569.36 204.22 572.07 204.32
  Q 574.69 204.42 576.18 204.26
  A 7.59 7.39 31.7 0 0 577.89 203.88
  L 580.95 202.82
  A 3.06 3.01 -46.5 0 1 582.72 202.76
  Q 584.43 203.22 586.30 203.89
  Q 588.51 204.68 593.15 203.67
  A 5.36 5.27 44.3 0 1 595.36 203.66
  C 597.53 204.10 604.04 206.35 605.86 208.89
  Q 609.23 213.63 610.34 215.33
  A 2.52 2.48 24.6 0 1 610.72 216.33
  C 611.48 221.19 606.84 224.77 603.16 228.44
  C 600.56 231.03 596.96 232.28 594.72 234.80
  C 591.82 238.05 587.09 240.45 583.62 243.61
  A 4.23 4.10 9.0 0 1 582.71 244.25
  Q 570.26 250.87 561.17 256.95
  Q 559.07 258.36 556.09 261.42
  A 8.11 8.02 6.3 0 1 554.46 262.71
  Q 549.69 265.52 545.62 269.74
  A 6.93 6.75 -81.3 0 1 543.90 271.04
  C 541.68 272.22 536.12 275.33 533.20 274.57
  A 0.56 0.56 0.0 0 0 532.50 275.11
  Q 532.51 284.26 539.16 289.19
  A 2.25 2.23 -56.8 0 1 539.76 292.10
  C 539.02 293.38 538.76 294.43 539.26 295.99
  Q 540.66 300.38 540.82 303.86
  A 0.59 0.58 -5.0 0 0 541.48 304.41
  C 543.94 304.08 557.28 304.43 560.23 307.98
  C 562.41 310.60 563.72 311.90 564.89 315.44
  Q 565.92 318.55 569.22 323.27
  C 570.81 325.54 570.65 329.09 571.64 331.58
  Q 572.68 334.21 573.13 338.08
  Q 573.19 338.57 575.45 342.09
  C 577.53 345.33 575.24 347.92 577.16 351.11
  Q 579.86 355.61 580.51 358.86
  C 581.49 363.74 583.22 366.39 584.95 371.56
  A 15.11 14.76 20.7 0 0 586.31 374.48
  Q 588.53 378.15 588.57 379.35
  C 588.76 385.30 588.19 390.22 591.73 393.98
  C 594.10 396.49 595.41 397.92 595.68 401.12
  C 596.04 405.34 598.07 411.11 599.67 413.60
  Q 602.55 418.10 603.16 420.38
  Q 604.86 426.75 608.84 432.39
  C 610.76 435.13 610.52 437.11 611.13 441.19
  C 611.40 442.96 613.58 443.85 615.22 444.24
  Q 619.00 445.13 620.72 441.78
  C 621.82 439.66 622.91 437.37 625.36 435.24
  Q 628.65 432.36 630.41 427.51
  Q 630.75 426.58 634.89 423.36
  A 1.74 1.53 -4.6 0 0 635.17 423.07
  L 640.53 415.55
  A 3.93 3.91 67.7 0 0 641.21 413.91
  Q 641.79 410.56 643.27 407.07
  C 644.88 403.28 646.96 405.31 649.61 403.75
  A 3.44 3.40 -0.6 0 0 650.80 402.55
  L 659.09 388.44
  A 9.77 9.35 80.6 0 1 659.87 387.30
  L 674.22 369.08
  A 4.82 4.63 -1.5 0 1 675.05 368.24
  L 678.12 365.76
  A 1.45 1.41 -12.5 0 0 678.62 365.00
  Q 680.07 359.43 685.12 353.93
  Q 689.80 348.83 694.37 339.54
  A 6.87 6.67 80.7 0 1 695.58 337.80
  Q 699.20 334.02 701.77 329.08
  Q 701.81 329.01 704.75 325.70
  A 7.78 7.31 83.8 0 0 705.46 324.76
  L 712.56 313.45
  A 3.91 3.76 -22.7 0 0 713.04 312.34
  L 714.18 307.82
  A 2.54 2.54 0.0 0 1 715.08 306.43
  Q 717.00 304.94 719.35 304.58
  C 723.19 304.00 727.35 305.18 731.55 303.34
  A 4.46 4.45 -42.6 0 1 735.45 303.50
  Q 737.32 304.50 741.04 306.95
  Q 742.00 307.58 748.04 308.51
  A 4.29 3.89 -29.3 0 1 748.74 308.67
  L 756.08 311.02
  A 6.75 6.38 -20.0 0 1 757.19 311.50
  L 769.87 318.64
  A 13.79 13.61 -23.9 0 0 773.81 320.13
  L 775.95 320.58
  A 11.27 11.11 -22.4 0 1 779.63 322.08
  Q 783.88 324.78 786.57 325.49
  Q 792.50 327.05 795.03 328.85
  Q 796.44 329.86 798.89 330.25
  Q 804.67 331.19 808.90 335.05
  C 811.53 337.45 813.36 338.52 816.61 338.47
  A 3.13 3.12 16.1 0 0 819.20 337.04
  C 822.06 332.62 824.04 330.78 825.82 326.52
  Q 827.41 322.71 831.00 319.51
  A 5.01 4.81 86.5 0 0 831.85 318.51
  Q 833.87 315.35 835.76 311.48
  Q 837.43 308.05 841.04 307.44
  A 0.56 0.56 0.0 0 0 841.35 306.50
  Q 837.09 302.04 832.90 298.59
  C 830.86 296.92 831.47 294.33 830.93 292.05
  A 1.82 1.80 10.0 0 0 830.17 290.98
  C 828.05 289.60 825.54 287.50 825.17 284.56
  C 825.01 283.31 824.64 282.33 824.20 281.39
  A 4.27 4.26 -46.9 0 1 824.09 278.04
  Q 826.30 272.34 828.34 268.15
  Q 829.30 266.17 834.52 260.61
  A 1.66 1.66 0.0 0 0 834.87 260.06
  L 840.84 244.26
  A 2.47 2.42 -1.4 0 1 842.21 242.85
  C 847.27 240.77 848.23 237.32 851.18 233.55
  Q 856.26 227.05 859.60 222.93
  A 4.87 4.68 2.5 0 1 860.84 221.84
  C 866.32 218.49 869.21 217.19 875.16 219.36
  A 9.14 8.73 -28.9 0 0 876.83 219.80
  C 879.09 220.17 884.53 220.12 887.41 221.37
  C 890.87 222.88 891.18 223.86 893.86 227.25
  Q 894.99 228.67 902.60 233.11
  C 906.26 235.25 905.50 244.10 904.83 247.83
  A 4.41 4.30 -21.5 0 1 903.95 249.78
  Q 901.50 252.87 900.42 256.14
  A 4.07 3.99 -10.7 0 1 899.14 257.98
  L 893.04 262.90
  A 0.63 0.58 74.3 0 0 892.82 263.33
  Q 892.61 267.34 889.10 270.77
  A 1.79 1.78 26.6 0 0 890.12 273.82
  C 892.11 274.08 893.11 273.98 894.99 275.29
  Q 896.18 276.13 897.61 275.11
  Q 905.53 269.45 913.75 267.02
  A 1.80 1.78 42.9 0 1 914.68 266.99
  Q 918.30 267.86 921.60 269.57
  A 7.45 7.36 63.8 0 0 923.53 270.24
  Q 928.22 271.15 929.31 271.69
  C 936.64 275.30 941.23 277.23 944.51 279.65
  A 6.32 6.12 0.7 0 1 945.75 280.88
  Q 948.19 284.11 948.94 284.69
  C 951.17 286.42 954.03 288.24 956.18 291.01
  Q 959.68 295.53 965.78 298.57
  Q 966.88 299.12 968.71 301.96
  Q 972.67 308.08 975.94 310.62
  Q 978.68 312.76 980.41 314.59
  C 983.29 317.66 985.22 318.98 989.23 320.32
  A 2.48 2.43 74.6 0 1 990.09 320.82
  Q 991.10 321.74 991.64 323.68
  C 992.54 326.93 993.33 329.15 995.49 332.32
  Q 999.37 337.99 999.66 338.36
  A 3.15 3.13 -65.3 0 1 1000.33 340.18
  Q 1000.36 341.06 1003.14 346.63
  Q 1007.72 355.78 1002.38 364.92
  C 999.85 369.25 996.09 369.90 992.60 371.70
  A 2.36 2.35 -47.9 0 1 990.70 371.80
  L 981.41 368.29
  A 0.97 0.96 -50.6 0 0 980.55 368.38
  C 976.02 371.18 971.62 364.40 967.77 368.41
  A 3.19 2.81 34.0 0 1 964.26 368.86
  Q 963.01 368.25 961.75 367.65
  A 4.82 4.75 -32.0 0 0 959.70 367.19
  C 957.35 367.21 953.10 367.95 950.81 366.17
  Q 949.22 364.94 946.91 364.15
  A 4.60 4.54 56.0 0 0 945.72 363.91
  C 941.16 363.61 934.21 363.75 927.79 362.59
  Q 925.49 362.18 923.33 361.03
  C 919.73 359.10 915.33 359.99 911.66 359.27
  Q 908.74 358.70 905.42 357.28
  Q 899.94 354.95 899.82 354.92
  Q 897.48 354.33 895.35 353.24
  A 5.36 5.28 -8.1 0 1 894.01 352.25
  Q 890.08 348.27 885.20 345.58
  A 13.73 12.99 -9.7 0 1 883.28 344.30
  C 880.63 342.19 877.33 338.98 874.52 343.27
  C 872.63 346.17 871.64 348.02 869.16 350.29
  Q 864.39 354.64 862.31 361.38
  C 861.43 364.21 860.51 365.31 857.89 366.17
  A 1.66 1.65 67.6 0 0 856.93 368.48
  L 858.28 371.17
  A 1.93 1.74 30.7 0 1 858.46 371.75
  Q 859.10 375.94 859.57 376.71
  Q 862.68 381.76 863.21 383.06
  A 1.61 1.61 0.0 0 0 864.28 384.01
  C 866.36 384.57 869.01 384.57 870.28 386.18
  A 1.65 1.61 -67.0 0 1 870.65 387.13
  Q 870.74 388.86 871.79 399.48
  Q 872.26 404.18 870.46 408.41
  A 3.76 3.72 84.5 0 1 869.12 410.05
  L 866.41 411.92
  A 1.62 1.55 88.8 0 0 865.94 412.43
  C 863.40 416.89 858.89 420.31 856.23 424.74
  Q 852.29 431.32 846.39 438.39
  Q 842.62 442.90 841.44 447.48
  C 840.49 451.15 838.73 453.61 835.96 454.97
  C 832.31 456.74 832.61 459.14 832.80 463.34
  A 1.96 1.94 60.1 0 1 832.50 464.48
  C 830.89 467.04 829.08 468.25 826.53 469.89
  A 4.52 4.50 -2.6 0 0 824.99 471.57
  Q 818.17 484.35 815.52 490.24
  Q 813.78 494.08 811.19 494.46
  A 0.87 0.86 85.5 0 0 810.46 495.33
  C 810.50 497.55 811.61 499.68 810.14 501.45
  C 808.07 503.94 804.50 505.75 804.47 509.62
  C 804.44 512.30 803.78 514.44 801.25 515.48
  C 798.95 516.44 798.13 516.57 797.38 519.17
  Q 794.89 527.88 788.26 535.95
  A 2.17 1.87 -17.6 0 0 787.97 536.42
  L 785.51 541.81
  A 1.19 0.95 -17.0 0 1 785.32 542.09
  L 778.70 549.10
  A 1.56 1.54 -7.7 0 0 778.46 549.41
  Q 776.03 553.44 772.11 558.34
  C 770.63 560.20 769.24 563.72 768.64 566.33
  C 767.67 570.56 765.96 572.81 763.46 576.39
  A 13.05 12.98 74.6 0 0 762.23 578.57
  Q 760.41 582.65 758.65 584.49
  C 756.92 586.30 753.92 586.31 753.22 589.77
  Q 752.62 592.75 750.84 594.67
  C 747.53 598.25 745.18 602.63 742.19 605.94
  A 5.25 5.20 -15.0 0 0 741.07 607.86
  L 739.43 612.84
  A 7.86 7.82 73.2 0 1 738.20 615.15
  L 728.16 627.95
  A 2.00 1.85 -16.2 0 0 727.86 628.45
  Q 727.45 629.47 727.74 631.31
  A 1.71 1.69 -27.3 0 1 727.27 632.76
  L 722.88 637.15
  A 2.06 1.91 -10.8 0 0 722.52 637.64
  Q 721.33 639.92 720.00 643.47
  C 719.37 645.12 716.34 648.93 716.44 650.77
  Q 716.64 654.60 716.57 658.09
  A 1.67 1.66 28.6 0 0 716.86 659.06
  C 718.52 661.48 720.11 662.34 722.97 663.06
  A 1.82 1.79 86.8 0 1 724.23 664.20
  L 726.41 670.31
  A 3.51 3.45 33.2 0 1 726.59 671.13
  Q 727.24 679.28 731.54 686.79
  A 7.14 6.41 -72.2 0 1 732.10 688.04
  Q 734.57 695.37 734.79 697.48
  Q 735.10 700.40 737.06 704.66
  Q 738.94 708.75 740.35 715.34
  C 741.27 719.65 739.45 723.36 743.58 726.55
  A 0.59 0.58 40.1 0 0 744.37 726.49
  Q 745.33 725.44 748.32 721.39
  C 749.54 719.75 750.84 718.90 752.75 717.56
  A 2.24 2.23 -20.5 0 0 753.68 715.53
  Q 753.37 712.04 753.40 710.00
  C 753.45 706.79 756.50 706.87 758.42 705.48
  A 1.85 1.83 -5.3 0 0 758.99 704.80
  Q 760.66 701.47 761.52 694.56
  Q 761.88 691.64 764.81 688.05
  C 767.28 685.03 769.45 682.47 771.09 678.91
  Q 772.49 675.89 775.94 672.49
  Q 778.06 670.39 778.87 665.37
  C 779.18 663.44 782.29 660.35 783.74 658.82
  Q 786.92 655.47 787.97 655.16
  Q 793.58 653.48 798.50 649.24
  A 1.92 1.90 -8.8 0 0 799.04 648.51
  L 801.12 643.78
  A 3.31 3.12 58.9 0 0 801.39 642.53
  C 801.42 636.47 801.04 631.81 807.30 629.70
  A 2.80 2.80 0.0 0 0 809.08 627.87
  C 809.98 624.92 810.92 621.72 813.59 620.12
  Q 815.06 619.23 815.97 618.01
  Q 819.85 612.78 823.41 608.55
  C 826.08 605.36 830.63 604.30 833.24 601.42
  Q 833.92 600.67 835.06 599.69
  A 15.20 15.02 12.4 0 1 838.77 597.35
  Q 846.85 593.77 847.70 593.51
  Q 848.74 593.20 852.12 593.65
  A 0.16 0.10 -22.8 0 0 852.27 593.44
  Z
  M 503.81 284.02
  C 505.52 285.97 506.31 287.88 506.54 290.55
  Q 506.92 294.89 507.12 300.65
  C 507.26 305.01 511.13 308.52 515.56 308.59
  Q 518.20 308.64 520.83 307.93
  A 0.84 0.83 78.6 0 0 521.44 307.01
  Q 520.70 301.55 517.59 297.91
  C 516.21 296.28 515.48 294.77 515.36 292.89
  Q 515.01 287.42 514.37 282.68
  Q 514.13 280.94 513.26 279.79
  A 1.29 1.28 -12.1 0 0 512.49 279.30
  Q 508.30 278.48 504.08 281.57
  A 1.67 1.67 0.0 0 0 503.81 284.02
  Z
  M 842.58 353.22
  A 2.01 2.00 -72.5 0 0 844.72 352.10
  L 848.89 343.30
  A 7.54 7.49 -11.1 0 1 850.12 341.48
  Q 850.66 340.84 857.31 333.08
  Q 859.82 330.15 860.86 327.17
  C 861.39 325.66 859.57 324.22 858.42 323.37
  Q 856.68 322.08 855.56 322.59
  A 1.11 1.06 9.4 0 0 855.18 322.85
  L 843.74 334.63
  A 4.69 4.67 -18.3 0 0 842.48 337.12
  Q 841.76 341.48 837.30 344.13
  Q 836.58 344.56 834.61 347.47
  A 1.54 1.52 57.1 0 0 834.38 348.59
  C 835.12 352.42 838.54 352.54 842.58 353.22
  Z
  M 706.54 680.16
  A 1.02 1.02 0.0 0 0 704.66 680.78
  Q 704.93 684.69 704.28 686.93
  C 703.62 689.18 700.73 693.66 700.89 696.14
  Q 701.22 701.52 697.66 704.05
  C 696.14 705.13 694.78 707.13 694.82 708.59
  Q 694.98 714.02 694.61 717.69
  A 4.29 4.21 -29.0 0 1 694.16 719.21
  C 692.93 721.62 690.03 723.93 689.24 727.29
  A 2.17 2.14 42.9 0 0 689.29 728.46
  L 692.44 737.79
  A 2.35 2.35 0.0 0 1 691.90 740.18
  C 689.13 743.01 687.08 745.18 685.34 748.78
  Q 683.80 751.95 681.70 756.22
  A 8.13 8.06 56.9 0 0 680.88 760.18
  Q 681.20 767.26 678.02 773.53
  C 676.04 777.43 677.42 779.90 677.03 783.74
  A 1.85 1.84 -28.2 0 1 676.85 784.33
  L 671.26 795.00
  A 2.25 2.19 -28.3 0 0 671.02 795.76
  Q 669.69 806.02 664.12 815.13
  Q 662.36 818.01 659.49 819.60
  A 1.94 1.90 30.5 0 1 658.52 819.84
  Q 656.91 819.82 653.01 819.57
  C 648.97 819.32 647.35 814.14 647.47 810.83
  C 647.64 805.92 646.78 803.12 650.54 799.99
  A 2.13 2.12 62.4 0 0 651.23 797.77
  L 650.67 795.76
  A 1.76 1.70 44.0 0 1 650.64 794.92
  Q 652.55 786.27 655.99 779.82
  A 5.65 5.47 -26.3 0 0 656.56 778.22
  Q 658.04 770.63 657.60 763.30
  C 657.39 759.94 660.49 757.53 660.97 755.19
  Q 662.27 748.84 665.89 744.78
  C 670.87 739.19 663.27 734.72 666.35 729.60
  C 668.65 725.77 671.29 721.93 672.01 717.93
  Q 672.42 715.64 674.06 712.83
  A 2.03 2.00 67.8 0 0 674.27 712.32
  L 678.38 697.71
  A 2.93 2.86 75.0 0 1 679.03 696.55
  Q 680.53 694.93 680.71 694.46
  Q 681.43 692.58 686.45 678.17
  C 687.64 674.78 687.53 670.68 690.29 667.61
  Q 691.40 666.37 691.42 664.42
  Q 691.50 657.69 691.54 653.61
  A 5.44 5.36 58.9 0 1 692.09 651.32
  Q 693.83 647.82 697.90 639.18
  Q 699.55 635.69 701.23 634.49
  Q 704.03 632.49 704.43 630.91
  Q 705.47 626.80 706.05 625.29
  A 5.21 5.15 75.6 0 1 706.92 623.80
  C 708.61 621.78 709.46 620.84 710.51 618.60
  Q 712.02 615.35 714.06 613.05
  C 715.28 611.68 715.93 609.51 717.11 607.81
  Q 722.77 599.61 726.19 592.87
  A 4.39 4.32 -9.3 0 1 726.98 591.79
  L 730.91 587.94
  A 1.46 0.95 -83.4 0 0 731.06 587.76
  Q 735.40 581.34 738.43 574.61
  C 740.45 570.11 742.88 566.46 747.12 565.35
  A 1.03 1.03 0.0 0 0 747.83 564.03
  C 746.42 559.74 749.00 558.53 750.65 555.48
  Q 755.59 546.30 761.54 538.25
  Q 764.32 534.49 766.50 530.89
  Q 769.15 526.50 771.53 523.55
  C 773.80 520.75 773.11 516.93 774.53 513.98
  Q 777.54 507.74 782.22 503.74
  Q 783.16 502.93 784.90 498.69
  Q 785.32 497.66 789.29 493.29
  C 791.09 491.31 792.07 487.51 793.76 484.69
  Q 799.91 474.36 804.87 461.39
  Q 805.51 459.73 808.22 457.31
  A 5.81 5.66 85.7 0 0 809.25 456.08
  Q 814.15 448.06 816.92 442.37
  Q 817.24 441.73 820.57 439.55
  C 823.05 437.93 824.45 434.01 825.55 430.97
  A 15.78 15.74 -17.1 0 1 827.58 427.15
  C 830.53 423.10 833.54 417.58 837.38 412.86
  Q 840.96 408.46 841.75 406.73
  Q 844.06 401.71 847.31 398.91
  A 1.65 1.65 0.0 0 0 847.50 396.60
  Q 844.25 392.71 841.22 390.07
  C 840.20 389.17 839.87 388.23 839.57 386.86
  C 838.96 384.12 836.89 382.12 834.15 379.37
  Q 829.40 374.60 826.17 371.52
  A 5.90 5.69 79.7 0 0 824.89 370.60
  C 821.05 368.55 819.43 365.29 816.26 362.92
  C 812.54 360.15 803.66 353.31 799.79 353.64
  Q 797.41 353.84 796.43 353.09
  C 788.67 347.11 778.25 344.25 771.67 340.84
  A 6.15 6.09 -26.2 0 0 769.94 340.26
  L 763.63 339.18
  A 3.94 3.74 -25.2 0 1 762.48 338.80
  C 760.24 337.66 759.03 336.65 756.20 335.57
  C 750.36 333.36 748.55 327.82 741.77 328.55
  A 4.33 4.29 -35.9 0 1 739.53 328.20
  Q 736.91 327.05 734.73 326.01
  C 732.74 325.07 732.01 325.99 730.28 327.29
  Q 727.00 329.76 726.58 333.92
  A 3.37 3.36 73.4 0 1 725.36 336.19
  Q 721.89 339.05 718.22 343.61
  C 716.15 346.19 715.15 349.45 713.34 353.02
  A 6.92 6.88 -25.6 0 0 712.73 354.74
  C 711.95 358.36 709.82 359.05 706.56 361.03
  A 3.72 3.70 -4.9 0 0 705.02 362.85
  Q 702.28 369.88 697.18 376.21
  A 4.17 4.11 2.4 0 1 696.22 377.08
  Q 692.58 379.53 691.14 382.96
  Q 687.21 392.37 680.37 398.30
  A 0.73 0.33 -24.4 0 0 680.30 398.38
  L 673.03 407.22
  A 3.05 3.04 -29.2 0 0 672.36 409.57
  L 672.66 411.68
  A 1.46 1.45 -30.0 0 1 672.37 412.76
  Q 669.23 416.86 664.63 419.87
  Q 663.72 420.46 659.57 425.87
  A 4.52 2.81 -51.2 0 1 659.15 426.35
  Q 654.00 431.60 653.15 433.38
  Q 649.25 441.51 646.34 445.33
  Q 645.18 446.84 641.24 449.11
  A 1.67 1.67 0.0 0 0 640.53 449.91
  Q 639.86 451.50 639.85 454.85
  A 2.54 2.54 0.0 0 1 638.95 456.79
  Q 633.74 461.17 628.52 467.27
  Q 627.42 468.56 624.70 474.35
  A 16.47 16.23 -14.1 0 1 622.84 477.41
  C 619.89 481.25 616.56 485.23 614.25 490.73
  Q 613.57 492.34 611.47 493.42
  A 2.39 2.27 26.7 0 1 610.68 493.66
  Q 608.75 493.85 608.37 494.65
  Q 606.35 498.89 605.72 499.71
  Q 602.53 503.86 597.42 510.66
  A 4.11 4.11 0.0 0 0 596.64 512.54
  Q 596.24 515.36 595.13 516.44
  C 591.06 520.37 589.52 521.46 588.53 525.93
  A 1.21 1.18 -22.4 0 1 588.33 526.39
  L 581.20 536.39
  A 0.37 0.28 -10.9 0 1 581.12 536.48
  C 577.05 540.35 573.65 544.77 572.11 550.40
  Q 571.87 551.29 569.18 554.42
  Q 566.53 557.50 563.94 563.74
  C 563.40 565.04 563.72 566.51 563.29 567.71
  A 1.11 1.06 75.7 0 1 563.07 568.10
  L 559.26 572.71
  A 1.25 1.24 -19.8 0 0 558.99 573.28
  Q 558.53 575.66 556.70 580.94
  C 555.24 585.12 552.57 586.74 549.86 589.12
  A 1.75 1.72 77.7 0 0 549.35 589.93
  C 548.78 592.00 549.41 595.33 548.19 597.30
  Q 547.62 598.22 546.13 600.03
  A 2.46 2.37 -20.4 0 0 545.66 601.01
  Q 545.26 602.81 546.24 604.90
  A 2.01 2.00 43.0 0 1 546.30 606.46
  C 545.22 609.28 544.39 610.75 542.41 613.15
  A 11.49 11.42 -14.1 0 0 540.69 616.00
  Q 538.05 622.37 532.98 629.29
  A 2.16 2.15 60.5 0 0 532.58 630.74
  L 532.88 633.90
  A 0.55 0.37 -52.5 0 1 532.87 634.07
  C 531.79 638.08 528.71 639.75 528.65 644.08
  C 528.58 649.29 524.49 655.65 521.24 660.00
  Q 519.11 662.86 518.38 666.84
  C 517.82 669.86 513.56 672.68 512.84 676.53
  Q 512.44 678.62 511.95 679.97
  Q 509.55 686.44 509.00 687.65
  A 3.84 3.74 58.3 0 0 508.68 689.08
  L 508.59 695.29
  A 3.46 3.42 54.2 0 1 508.45 696.19
  L 506.99 701.40
  A 3.48 3.30 54.8 0 0 506.87 702.22
  Q 506.84 706.10 505.79 709.15
  C 505.17 710.96 505.47 711.93 506.35 713.39
  A 3.57 3.24 48.3 0 1 506.31 717.13
  Q 504.73 719.36 504.79 722.00
  C 504.97 729.91 504.69 733.77 505.80 737.09
  A 2.09 2.04 -44.4 0 1 505.77 738.47
  L 505.36 739.57
  A 6.73 6.56 55.6 0 0 504.92 742.11
  C 504.98 745.87 504.81 749.62 505.35 753.32
  Q 506.05 758.16 506.26 759.44
  C 507.07 764.34 506.75 770.40 507.06 774.26
  A 10.59 9.84 36.9 0 0 507.41 776.20
  Q 508.77 780.92 508.76 781.75
  Q 508.74 784.18 508.60 789.52
  Q 508.58 790.59 508.10 791.86
  C 506.44 796.25 510.03 796.85 510.46 800.33
  Q 510.83 803.44 510.92 816.44
  C 510.93 818.39 510.09 822.38 511.01 824.84
  Q 512.73 829.41 511.95 832.34
  C 511.13 835.40 514.22 836.26 511.91 840.39
  C 510.02 843.78 513.09 846.58 515.62 848.58
  A 0.37 0.28 10.9 0 1 515.70 848.67
  L 520.98 856.55
  A 1.29 1.05 8.1 0 0 521.23 856.82
  L 529.28 863.15
  A 5.42 5.41 -23.6 0 0 532.21 864.30
  C 537.99 864.76 542.43 868.36 548.00 870.85
  A 3.44 3.27 -32.0 0 0 549.42 871.14
  L 559.08 871.06
  A 3.03 3.00 -38.1 0 1 559.77 871.14
  C 567.30 872.83 574.71 872.21 581.84 872.27
  A 4.04 4.02 -29.8 0 1 583.80 872.80
  Q 586.53 874.37 589.80 874.16
  C 591.66 874.05 592.54 874.74 594.07 875.83
  A 1.87 1.86 49.3 0 0 595.97 875.98
  L 602.96 872.49
  A 3.64 3.64 0.0 0 1 605.15 872.15
  Q 611.12 873.13 616.45 870.93
  Q 617.51 870.49 619.47 871.41
  C 622.94 873.04 626.98 872.29 630.26 870.40
  C 632.78 868.95 634.94 868.29 637.68 868.37
  Q 639.97 868.43 643.28 867.30
  Q 647.28 865.92 651.83 865.34
  A 4.34 4.32 -68.2 0 0 653.99 864.41
  Q 657.71 861.41 664.29 859.41
  C 667.85 858.32 671.48 856.69 673.71 854.70
  Q 677.39 851.43 679.07 850.81
  Q 683.79 849.08 684.97 847.69
  Q 689.85 841.91 695.52 839.54
  C 697.54 838.69 698.35 837.45 699.62 835.68
  A 3.78 3.72 4.0 0 1 701.00 834.50
  Q 706.63 831.69 709.10 826.21
  Q 710.94 822.11 711.91 820.70
  Q 715.62 815.32 719.18 811.19
  Q 721.19 808.87 723.28 804.50
  A 11.23 10.97 78.0 0 1 724.71 802.24
  C 726.84 799.61 728.03 798.26 729.02 794.88
  A 4.31 4.13 -20.3 0 1 729.65 793.58
  C 732.10 790.10 735.51 787.26 738.29 784.18
  Q 741.06 781.11 738.95 777.10
  Q 737.74 774.79 734.23 767.11
  A 4.77 4.66 -62.8 0 1 733.91 766.07
  L 733.20 762.04
  A 1.88 1.86 -65.7 0 0 732.95 761.37
  L 728.78 754.25
  A 7.53 7.49 28.2 0 1 727.76 750.91
  L 727.45 745.72
  A 4.37 4.05 -56.9 0 0 727.31 744.90
  L 722.49 727.76
  A 2.69 2.65 -66.3 0 0 722.30 727.26
  L 717.74 718.13
  A 1.45 1.43 35.9 0 1 717.60 717.29
  L 717.89 714.86
  A 3.02 3.00 26.6 0 0 717.06 712.39
  Q 713.80 709.01 713.33 704.92
  C 712.96 701.69 710.71 700.34 712.02 696.50
  A 3.47 3.42 -40.0 0 0 712.17 694.93
  L 711.15 687.50
  A 0.67 0.66 24.1 0 0 711.03 687.19
  L 706.54 680.16
  Z
  M 477.09 335.65
  A 0.68 0.67 -29.3 0 1 476.34 335.44
  Q 474.23 332.81 470.87 334.42
  C 464.54 337.44 460.35 339.56 454.57 340.00
  A 2.31 2.30 -69.5 0 0 453.10 340.67
  L 449.47 344.30
  A 5.23 5.22 18.5 0 1 446.49 345.78
  L 440.33 346.63
  A 1.47 1.36 -62.5 0 0 439.80 346.82
  L 426.35 355.43
  A 1.07 1.00 87.9 0 0 425.97 355.87
  Q 424.66 358.71 426.22 361.71
  Q 426.71 362.66 426.02 363.59
  C 424.89 365.14 424.50 366.50 425.32 368.56
  Q 426.20 370.75 426.86 373.87
  A 3.87 3.86 -72.4 0 0 427.80 375.69
  C 429.22 377.21 430.26 377.98 430.57 380.10
  Q 431.22 384.46 429.34 387.86
  A 3.58 3.48 -31.3 0 0 428.90 389.56
  L 428.90 399.68
  A 2.06 1.99 34.1 0 0 429.07 400.49
  Q 430.22 403.28 430.89 406.46
  C 431.49 409.36 432.67 410.77 434.52 413.28
  Q 436.75 416.32 435.75 419.13
  C 434.66 422.20 434.38 425.09 434.96 427.75
  C 435.35 429.47 436.62 431.31 437.47 432.79
  Q 438.21 434.07 438.73 436.82
  Q 439.63 441.62 441.22 444.84
  Q 442.49 447.41 442.80 450.29
  Q 443.04 452.48 444.44 456.34
  A 4.28 3.93 35.4 0 1 444.68 457.46
  L 445.01 462.00
  A 1.08 1.05 -60.8 0 0 445.13 462.45
  Q 446.86 465.84 448.71 470.55
  C 450.72 475.70 449.99 480.94 450.79 486.44
  C 451.40 490.67 454.62 495.27 456.26 499.24
  C 457.11 501.28 456.67 504.51 457.45 506.91
  Q 458.81 511.16 458.70 516.10
  A 4.69 4.64 -57.1 0 0 459.14 518.21
  C 460.36 520.77 462.65 523.30 462.62 526.20
  Q 462.56 532.66 464.06 538.61
  C 464.74 541.31 464.71 544.39 464.94 546.36
  A 4.71 4.69 -62.0 0 0 465.40 547.88
  C 467.30 551.67 465.86 556.20 468.93 559.13
  C 473.77 563.75 475.99 568.82 476.72 575.28
  Q 477.09 578.50 477.93 579.68
  Q 480.04 582.65 480.18 585.63
  C 480.32 588.38 481.40 593.35 482.40 594.58
  Q 485.87 598.86 486.63 603.58
  Q 487.11 606.59 488.18 609.71
  Q 490.10 615.34 490.97 620.89
  A 7.69 7.50 -63.3 0 0 491.65 623.04
  C 492.66 625.08 493.97 626.60 494.78 629.06
  Q 495.41 630.96 497.62 634.40
  Q 498.84 636.29 500.32 641.00
  C 501.22 643.89 500.45 647.21 501.48 650.24
  A 1.12 1.09 5.1 0 0 502.03 650.88
  Q 503.84 651.84 504.80 650.96
  A 0.95 0.89 -14.7 0 0 505.05 650.56
  L 509.35 636.07
  A 3.73 3.72 71.5 0 1 509.89 634.98
  C 512.71 631.08 514.24 627.22 515.22 622.45
  Q 515.98 618.78 519.16 615.22
  C 521.64 612.45 519.10 610.81 520.31 608.30
  Q 523.14 602.40 524.04 599.93
  A 5.17 5.15 -12.8 0 1 525.25 598.02
  C 527.61 595.65 528.60 590.65 530.21 584.99
  C 531.10 581.83 534.89 577.18 536.60 573.71
  Q 541.64 563.50 548.56 551.02
  A 5.68 5.66 62.6 0 0 549.24 548.86
  Q 549.65 545.21 551.93 542.68
  C 555.19 539.05 557.10 535.65 558.87 531.16
  A 1.92 1.25 -82.6 0 1 558.98 530.93
  L 564.73 521.31
  A 2.98 2.91 84.1 0 1 565.15 520.78
  L 570.00 515.92
  A 0.97 0.95 81.3 0 0 570.18 515.67
  L 573.70 508.02
  A 3.09 3.09 0.0 0 1 575.05 506.61
  C 579.90 504.09 581.92 499.08 584.51 493.78
  A 3.83 3.70 83.0 0 1 585.36 492.65
  Q 590.77 487.74 593.73 480.92
  C 595.46 476.92 596.33 476.44 599.43 473.17
  Q 601.19 471.31 602.13 467.36
  A 2.13 2.05 -25.5 0 1 602.31 466.88
  L 603.63 464.52
  A 1.52 1.51 27.3 0 0 602.95 462.41
  Q 600.08 461.04 597.43 458.56
  Q 592.12 453.59 590.92 452.33
  A 2.95 2.88 17.8 0 1 590.18 450.93
  L 589.20 446.36
  A 5.09 5.03 24.4 0 0 588.69 445.03
  Q 586.29 440.77 584.13 434.53
  C 582.61 430.17 580.74 427.16 579.13 423.88
  Q 577.62 420.79 577.70 419.24
  Q 577.96 414.14 575.47 409.52
  Q 572.09 403.24 570.82 399.06
  A 1.77 1.75 21.4 0 0 570.61 398.59
  L 568.08 394.64
  A 5.84 5.83 30.5 0 1 567.18 391.17
  L 567.41 387.15
  A 4.87 4.74 -54.4 0 0 567.12 385.24
  L 559.80 365.56
  A 1.68 0.96 -74.9 0 1 559.75 365.37
  Q 558.75 360.83 558.20 360.10
  Q 556.82 358.29 556.03 356.81
  A 4.05 4.02 31.4 0 1 555.57 354.94
  Q 555.61 348.31 554.75 346.28
  Q 553.34 342.98 550.09 334.92
  C 549.02 332.25 547.78 330.55 545.85 328.77
  A 1.63 1.63 0.0 0 0 544.22 328.42
  Q 538.87 330.20 533.93 328.99
  A 5.34 5.29 -42.6 0 0 531.79 328.91
  Q 528.64 329.46 525.49 329.60
  C 523.36 329.70 521.86 332.51 519.60 330.70
  Q 518.81 330.06 518.07 329.65
  A 1.94 1.94 0.0 0 0 517.10 329.39
  L 510.76 329.39
  A 4.31 4.24 -58.7 0 0 508.74 329.90
  Q 506.17 331.27 504.00 331.31
  Q 491.67 331.53 487.47 331.85
  A 1.31 1.22 -55.3 0 0 487.06 331.94
  L 477.09 335.65
  Z
  M 1011.92 533.70
  Q 1017.73 536.76 1023.02 536.82
  Q 1025.29 536.84 1027.89 537.55
  C 1031.50 538.54 1033.58 538.48 1037.26 537.51
  Q 1040.21 536.73 1043.11 538.05
  A 3.47 3.46 -39.1 0 0 1045.35 538.28
  L 1054.53 536.21
  A 1.61 1.60 -5.8 0 0 1055.78 534.69
  C 1055.99 526.64 1049.11 526.94 1043.39 526.82
  C 1041.09 526.77 1040.78 524.64 1037.86 526.24
  C 1034.73 527.95 1028.91 527.47 1026.42 527.40
  C 1020.83 527.26 1016.43 528.74 1011.99 530.81
  A 1.61 1.61 0.0 0 0 1011.92 533.70
  Z
  M 1057.37 562.86
  A 1.92 1.92 0.0 0 0 1054.72 561.85
  Q 1051.85 563.29 1048.92 563.47
  C 1046.91 563.60 1045.39 564.29 1043.91 565.09
  A 2.55 2.54 36.3 0 1 1042.17 565.35
  Q 1040.16 564.93 1037.96 565.27
  A 3.28 3.27 -31.4 0 1 1035.59 564.70
  Q 1033.77 563.38 1032.57 563.38
  Q 1024.21 563.32 1023.89 563.30
  A 9.40 9.39 -35.0 0 1 1022.12 562.99
  Q 1021.21 562.73 1019.22 561.55
  C 1016.73 560.06 1014.72 559.84 1011.70 559.44
  A 5.43 5.37 -26.8 0 1 1009.87 558.85
  Q 1005.55 556.52 1001.20 554.31
  C 998.10 552.73 994.72 553.76 995.68 557.94
  Q 996.00 559.32 998.17 564.03
  A 3.22 3.20 31.8 0 1 998.47 565.29
  C 998.53 567.30 997.87 568.88 998.25 571.14
  Q 998.72 573.91 998.65 578.32
  A 2.03 1.95 58.8 0 1 998.48 579.08
  L 997.48 581.30
  A 2.33 2.33 0.0 0 0 997.46 583.15
  L 998.44 585.44
  A 1.89 1.79 35.3 0 1 998.58 586.14
  L 998.80 599.35
  A 1.39 1.39 0.0 0 1 998.67 599.98
  Q 997.89 601.68 997.39 602.84
  C 996.42 605.09 996.85 607.72 997.82 610.43
  Q 998.87 613.34 998.73 617.55
  A 1.74 1.69 58.3 0 1 998.59 618.18
  L 997.25 621.41
  A 2.97 2.97 0.0 0 0 997.81 624.55
  Q 1001.10 628.12 1000.60 633.17
  Q 1000.46 634.55 1001.84 638.27
  C 1002.93 641.22 1003.34 642.87 1002.05 645.58
  A 2.33 2.32 49.2 0 0 1001.93 647.27
  L 1004.64 656.02
  A 2.69 2.51 37.3 0 1 1004.76 656.73
  C 1004.87 659.95 1006.84 667.32 1009.61 669.24
  Q 1012.12 670.99 1015.48 673.19
  A 7.98 7.97 70.6 0 0 1017.29 674.06
  Q 1025.74 676.88 1026.10 677.05
  C 1028.08 678.01 1030.81 678.16 1033.11 679.32
  C 1035.07 680.31 1037.44 680.64 1039.22 680.39
  Q 1044.16 679.68 1047.76 678.70
  A 14.73 14.49 -53.4 0 1 1050.97 678.20
  C 1053.20 678.10 1058.18 678.65 1058.87 675.94
  Q 1059.51 673.38 1059.46 668.71
  A 2.91 2.89 60.7 0 1 1059.91 667.09
  C 1061.31 664.84 1064.03 663.35 1063.77 660.36
  C 1063.68 659.29 1063.60 658.22 1063.98 657.27
  Q 1066.25 651.65 1065.00 645.08
  C 1064.48 642.33 1059.74 641.75 1062.69 637.72
  Q 1064.46 635.32 1062.81 632.58
  C 1060.13 628.13 1063.82 625.28 1063.55 620.49
  Q 1063.29 615.96 1064.48 612.09
  A 1.56 1.55 47.3 0 0 1064.51 611.26
  L 1063.79 608.38
  A 1.17 1.14 49.8 0 1 1063.84 607.70
  Q 1066.61 600.57 1064.57 593.74
  C 1063.10 588.83 1062.19 583.86 1061.40 579.95
  A 5.28 5.22 23.5 0 0 1060.71 578.23
  Q 1059.02 575.52 1059.75 572.10
  C 1060.59 568.18 1058.45 565.65 1057.37 562.86
  Z
  M 979.77 644.32
  A 2.04 1.91 89.4 0 0 981.73 642.18
  Q 981.67 640.91 981.18 639.52
  C 980.57 637.75 980.99 635.13 980.02 633.72
  Q 977.69 630.36 975.54 625.96
  A 1.98 1.86 -59.9 0 1 975.34 625.10
  L 975.34 618.65
  A 2.50 2.43 61.8 0 1 975.72 617.33
  C 977.55 614.46 977.97 613.09 975.03 610.83
  C 972.73 609.06 974.34 606.40 975.21 604.46
  A 2.28 2.24 -35.8 0 0 975.39 603.40
  Q 975.25 601.80 974.52 600.33
  A 2.53 2.52 -54.0 0 1 974.28 598.79
  C 974.64 596.50 976.12 593.89 974.87 590.56
  A 1.24 1.20 0.9 0 0 974.16 589.85
  Q 969.91 588.23 966.42 591.21
  Q 961.70 595.26 957.29 602.29
  A 4.77 4.77 0.0 0 0 956.55 604.91
  Q 956.57 607.71 956.71 611.47
  Q 956.76 612.60 955.22 616.46
  A 4.22 4.21 -36.3 0 0 954.92 618.39
  Q 955.14 621.05 957.07 623.98
  C 958.04 625.44 959.98 626.34 961.15 627.82
  A 3.17 3.13 -73.2 0 1 961.73 628.92
  L 962.82 632.55
  A 1.95 1.93 10.6 0 0 963.52 633.56
  C 965.85 635.36 968.22 637.50 970.68 638.97
  Q 974.61 641.31 978.31 643.95
  Q 978.78 644.29 979.77 644.32
  Z
  M 897.59 601.74
  Q 907.39 603.52 916.60 602.11
  C 920.77 601.47 926.48 599.88 928.89 595.89
  A 1.69 1.35 -60.2 0 0 928.55 593.70
  Q 928.10 593.46 926.92 593.37
  C 921.09 592.93 914.74 593.78 910.26 593.51
  A 5.90 5.88 -30.4 0 1 908.09 592.95
  L 905.48 591.68
  A 0.98 0.98 0.0 0 0 904.22 592.06
  L 902.52 594.84
  A 6.30 6.04 83.6 0 1 901.68 595.94
  C 900.48 597.25 898.02 598.90 897.24 601.13
  A 0.46 0.46 0.0 0 0 897.59 601.74
  Z
  M 947.09 663.03
  C 945.77 659.90 940.52 655.26 936.76 657.77
  Q 933.50 659.94 929.03 659.58
  A 1.54 1.54 0.0 0 0 927.60 661.93
  Q 929.39 664.82 929.04 669.26
  A 2.33 2.31 79.3 0 1 927.76 671.15
  L 921.64 674.21
  A 3.68 3.66 -42.3 0 1 918.06 674.05
  Q 912.53 670.66 905.92 668.10
  Q 904.12 667.40 902.37 667.29
  A 1.54 1.51 70.9 0 1 901.32 666.77
  C 899.10 664.27 898.02 659.96 896.07 654.61
  A 10.71 10.61 34.6 0 1 895.43 651.21
  Q 895.38 649.09 895.34 639.38
  C 895.33 636.97 893.84 635.56 894.98 633.09
  A 2.53 2.49 -55.0 0 0 894.51 630.27
  Q 891.86 627.60 890.69 624.10
  A 2.20 2.15 -43.4 0 1 890.75 622.59
  Q 891.90 619.82 891.82 618.74
  Q 891.36 612.29 892.92 606.71
  A 0.65 0.65 0.0 0 0 892.51 605.92
  Q 891.82 605.68 891.01 606.29
  C 888.86 607.91 888.94 614.55 888.61 615.60
  A 15.24 15.05 67.0 0 1 887.74 617.79
  L 880.93 631.71
  A 1.50 1.48 -32.7 0 0 880.79 632.34
  L 880.79 643.72
  A 3.06 3.03 -25.3 0 1 880.08 645.67
  L 876.26 650.28
  A 1.69 1.67 -79.9 0 1 875.61 650.74
  C 869.76 652.94 866.11 650.40 862.18 646.27
  A 3.47 3.41 -67.1 0 1 861.24 643.90
  L 861.24 631.77
  A 6.97 6.92 -33.3 0 1 861.83 628.97
  Q 863.21 625.87 864.35 619.70
  Q 864.75 617.53 866.32 615.80
  Q 869.80 611.94 869.39 607.47
  A 1.29 1.29 0.0 0 0 866.91 607.12
  L 863.48 615.86
  A 1.35 1.30 -12.2 0 1 863.13 616.38
  L 860.37 618.99
  A 0.71 0.71 0.0 0 0 860.21 619.20
  Q 857.01 625.16 856.70 631.21
  A 1.81 0.93 -53.7 0 1 856.66 631.46
  L 855.14 636.86
  A 4.56 4.30 52.4 0 0 854.99 638.34
  C 855.34 643.17 855.80 647.43 852.47 650.31
  Q 850.27 652.22 847.14 653.17
  C 840.87 655.07 836.09 648.17 833.79 642.98
  A 2.05 2.04 -57.3 0 1 833.61 642.14
  L 833.46 633.73
  A 1.02 1.01 53.5 0 0 831.48 633.43
  C 830.96 635.05 828.77 635.86 827.70 636.55
  A 6.60 6.52 -88.7 0 0 825.91 638.28
  C 822.83 642.64 819.30 645.74 821.35 650.66
  A 1.67 1.63 -85.5 0 0 821.99 651.43
  Q 826.15 654.10 828.22 654.12
  C 831.79 654.16 836.82 653.59 838.49 656.29
  Q 840.21 659.05 843.43 659.81
  Q 848.74 661.07 854.59 663.91
  A 5.56 5.54 78.8 0 1 855.97 664.84
  Q 857.83 666.52 860.85 669.63
  C 862.70 671.55 868.32 672.14 870.04 675.27
  Q 873.03 680.70 874.28 681.75
  C 877.53 684.45 879.78 687.17 882.83 689.47
  Q 887.32 692.86 889.19 699.20
  A 1.89 1.89 0.0 0 0 892.26 700.07
  Q 894.77 697.84 896.69 695.71
  Q 897.78 694.50 901.59 693.96
  A 1.64 1.64 0.0 0 0 902.45 693.56
  C 903.30 692.80 903.66 691.58 904.74 690.76
  Q 909.76 686.91 911.66 685.77
  A 3.35 3.26 24.4 0 1 912.85 685.34
  L 924.04 683.64
  A 0.87 0.87 0.0 0 0 924.78 682.87
  Q 925.21 678.79 928.37 676.87
  Q 932.07 674.62 935.87 671.55
  A 4.99 4.80 -2.2 0 0 936.62 670.77
  C 939.51 666.98 942.22 663.33 946.77 663.48
  A 0.33 0.33 0.0 0 0 947.09 663.03
  Z
  M 914.59 624.15
  A 0.96 0.96 0.0 0 0 913.93 625.39
  C 915.16 628.99 914.68 633.05 916.25 636.82
  Q 917.47 639.74 916.40 642.44
  A 0.58 0.58 0.0 0 0 916.84 643.23
  Q 918.40 643.52 919.51 642.73
  C 921.65 641.21 922.84 640.15 925.73 640.05
  Q 932.04 639.82 936.31 638.85
  A 3.00 2.97 -45.2 0 1 937.61 638.84
  L 940.49 639.45
  A 1.09 1.09 0.0 0 0 941.79 638.52
  C 942.15 635.67 938.26 632.36 936.06 630.46
  A 1.27 1.23 23.4 0 1 935.63 629.42
  Q 935.96 625.42 933.61 622.69
  A 2.63 2.62 -36.6 0 0 930.21 622.19
  L 929.06 622.93
  A 1.61 1.58 31.4 0 1 928.03 623.17
  Q 924.50 622.76 920.61 624.95
  A 1.80 1.79 -52.7 0 1 919.30 625.13
  C 917.57 624.69 916.04 623.76 914.59 624.15
  Z
  M 835.2254 627.1209
  A 1.81 0.93 -75.1 0 0 833.8613 628.6309
  A 1.81 0.93 -75.1 0 0 834.2946 630.6191
  A 1.81 0.93 -75.1 0 0 835.6587 629.1091
  A 1.81 0.93 -75.1 0 0 835.2254 627.1209
  Z
  M 154.00 653.67
  L 158.80 657.09
  A 4.01 3.99 -37.2 0 0 162.49 657.59
  C 166.89 656.00 169.60 658.40 173.81 661.03
  A 3.00 2.99 -38.7 0 0 176.39 661.31
  Q 179.07 660.35 181.50 660.41
  C 186.01 660.50 189.01 659.54 191.63 656.32
  A 1.36 1.36 0.0 0 1 193.23 655.92
  Q 196.13 657.15 197.34 655.69
  A 0.63 0.62 35.3 0 0 197.17 654.75
  Q 195.03 653.49 193.33 654.68
  A 1.25 1.25 0.0 0 1 191.66 654.47
  C 184.90 646.69 175.80 647.50 164.30 647.68
  Q 160.81 647.73 154.16 651.23
  A 1.44 1.43 48.9 0 0 154.00 653.67
  Z
  M 370.41 689.53
  A 0.69 0.69 0.0 0 0 371.35 690.10
  Q 374.07 689.00 377.45 687.92
  C 381.39 686.67 383.27 683.03 380.06 679.71
  Q 379.21 678.84 375.49 675.90
  A 1.89 1.61 3.6 0 1 375.19 675.61
  L 363.85 661.27
  A 1.64 1.61 -10.2 0 0 363.06 660.73
  Q 357.77 659.07 353.45 662.45
  A 2.09 2.09 0.0 0 0 352.98 665.22
  L 356.25 670.32
  A 5.29 4.97 -85.5 0 0 357.02 671.28
  Q 365.30 679.44 366.74 681.19
  Q 370.01 685.18 370.41 689.53
  Z
  M 287.39 672.79
  C 286.86 675.42 285.03 676.64 282.39 677.48
  Q 280.03 678.23 276.18 680.22
  C 273.20 681.76 272.32 683.71 270.25 687.60
  A 3.99 3.99 0.0 0 1 269.46 688.63
  C 267.71 690.29 265.15 692.41 263.20 695.09
  A 3.96 3.91 -24.0 0 0 262.48 696.93
  Q 261.93 701.40 258.21 705.46
  C 256.69 707.12 255.72 709.02 255.42 710.99
  A 1.11 1.11 0.0 0 0 256.84 712.22
  C 260.62 711.10 265.08 707.49 267.25 704.48
  Q 272.25 697.52 279.78 691.12
  A 3.54 3.43 13.0 0 1 280.79 690.51
  C 283.10 689.60 287.22 688.58 289.34 689.93
  C 292.94 692.22 294.32 696.80 297.12 702.64
  Q 299.35 707.28 302.17 710.70
  A 2.16 2.14 -66.8 0 1 302.64 711.89
  C 303.04 717.29 303.60 720.51 305.76 725.99
  Q 307.21 729.67 306.53 735.32
  Q 306.05 739.34 306.19 742.54
  A 5.18 5.17 61.5 0 1 305.24 745.77
  L 302.86 749.11
  A 16.89 2.04 -66.3 0 0 299.73 754.41
  C 297.73 758.20 294.20 760.53 291.44 763.26
  A 6.29 6.17 11.2 0 1 289.38 764.61
  C 287.06 765.53 282.99 767.75 280.59 766.95
  Q 277.73 766.00 275.60 764.70
  A 3.52 3.46 -87.0 0 1 274.22 763.14
  C 273.26 760.99 271.22 756.42 268.90 757.36
  C 265.84 758.60 264.02 763.46 262.70 765.28
  C 260.49 768.32 259.53 771.71 263.46 773.52
  Q 267.71 775.48 274.70 776.98
  A 2.36 2.31 -49.8 0 0 276.05 776.85
  Q 279.41 775.47 282.61 774.97
  C 290.30 773.77 296.24 769.37 302.97 765.48
  Q 304.17 764.79 307.55 760.01
  C 310.51 755.82 314.80 756.33 319.50 756.52
  Q 323.12 756.67 330.11 755.28
  A 0.51 0.49 -46.3 0 1 330.33 755.27
  L 333.34 755.59
  A 1.51 1.49 22.0 0 0 334.68 755.03
  L 338.32 750.41
  A 4.58 4.54 63.7 0 0 339.28 747.52
  C 339.13 740.76 339.39 736.49 338.67 731.31
  C 337.55 723.25 347.72 715.05 351.56 710.77
  A 9.78 9.65 -7.8 0 0 352.60 709.42
  L 355.06 705.61
  A 2.30 2.27 -86.7 0 1 355.96 704.80
  C 358.84 703.36 363.67 700.72 363.38 697.38
  A 0.86 0.84 -84.6 0 0 362.77 696.63
  Q 357.48 695.07 352.48 693.27
  C 348.79 691.94 347.11 688.41 344.99 686.26
  Q 338.70 679.91 334.63 675.65
  C 333.42 674.39 332.19 672.79 331.17 671.09
  C 329.25 667.88 325.32 665.46 322.08 663.85
  A 2.27 2.26 38.1 0 0 319.60 664.15
  Q 316.58 666.73 314.84 671.76
  A 1.49 1.48 -69.0 0 0 315.66 673.62
  C 320.41 675.61 323.05 679.16 327.45 683.57
  A 5.46 5.28 10.3 0 1 328.47 684.99
  C 330.17 688.43 331.60 692.44 333.76 693.55
  C 335.93 694.68 340.90 697.19 341.00 699.80
  Q 341.13 703.48 341.11 706.81
  A 3.42 3.42 0.0 0 1 339.85 709.42
  C 335.23 713.15 329.03 716.26 323.90 711.09
  Q 319.36 706.52 316.95 704.85
  A 2.82 2.77 5.4 0 1 315.99 703.71
  Q 314.39 700.27 310.17 693.83
  Q 308.69 691.58 307.79 691.09
  Q 300.02 686.88 296.48 680.11
  A 4.49 4.32 -82.6 0 0 295.71 679.07
  L 288.96 672.31
  A 0.93 0.93 0.0 0 0 287.39 672.79
  Z
  M 831.61 684.21
  Q 827.16 681.16 823.00 677.61
  C 821.25 676.12 818.77 675.21 815.82 675.68
  Q 813.17 676.10 810.70 674.36
  A 2.96 2.95 -38.9 0 0 807.85 674.06
  C 806.87 674.47 805.45 675.65 803.82 675.83
  Q 802.72 675.95 801.89 676.60
  A 2.30 2.19 -6.7 0 0 801.29 677.32
  Q 798.06 683.50 794.60 686.96
  Q 792.95 688.60 792.75 689.77
  C 792.37 692.05 792.87 694.83 790.84 696.62
  C 785.67 701.19 784.24 704.72 780.36 712.71
  A 12.44 12.32 -13.1 0 1 778.90 715.03
  Q 775.60 719.22 775.31 720.82
  C 774.41 725.87 773.91 729.33 770.23 733.23
  C 766.35 737.33 761.68 741.03 758.93 745.67
  Q 758.26 746.80 754.18 752.40
  Q 752.62 754.54 753.28 757.37
  C 753.57 758.57 754.99 759.47 755.77 760.28
  A 3.35 3.27 -74.2 0 1 756.59 761.79
  C 757.24 764.55 758.93 766.61 758.86 769.45
  C 758.73 774.92 761.44 779.30 763.61 784.89
  A 7.03 6.99 14.7 0 0 764.74 786.81
  Q 769.43 792.48 773.08 798.92
  Q 774.17 800.84 774.73 802.99
  C 775.69 806.72 778.24 808.92 781.08 811.38
  A 4.83 4.81 18.2 0 1 782.73 814.63
  C 782.94 817.29 783.00 818.50 783.97 820.89
  Q 786.30 826.65 786.97 828.02
  C 788.76 831.72 789.56 837.10 789.90 840.04
  A 8.63 8.61 -59.7 0 0 790.52 842.41
  Q 792.79 847.90 792.93 853.18
  A 5.26 5.17 -59.1 0 0 793.45 855.32
  C 795.00 858.51 795.77 859.75 796.62 863.12
  Q 797.51 866.66 799.57 870.51
  Q 800.36 871.99 801.60 871.85
  Q 803.89 871.58 803.93 868.75
  Q 804.01 861.45 808.32 856.02
  A 4.05 4.01 74.8 0 0 808.97 854.87
  L 814.99 838.96
  A 2.70 2.55 73.2 0 1 815.28 838.38
  L 818.33 833.74
  A 4.12 3.80 72.0 0 0 818.83 832.65
  L 820.44 826.93
  A 2.18 2.13 -19.4 0 1 820.81 826.18
  C 823.59 822.48 827.26 818.16 829.29 813.88
  C 829.96 812.45 829.20 810.68 829.52 809.30
  Q 831.83 799.45 836.63 792.95
  A 1.21 1.15 68.5 0 0 836.86 792.38
  L 837.64 786.48
  A 3.20 3.18 -24.3 0 1 838.16 785.12
  Q 843.02 778.03 844.41 775.63
  Q 846.18 772.57 849.31 763.66
  A 17.75 17.28 69.9 0 1 850.58 760.82
  Q 855.86 751.38 856.85 748.53
  Q 857.79 745.79 857.97 742.14
  A 4.50 4.48 -20.6 0 1 859.37 739.08
  C 861.39 737.17 862.73 735.77 863.53 733.13
  Q 864.26 730.73 866.28 728.62
  Q 867.55 727.29 867.51 725.25
  Q 867.42 720.58 867.50 717.74
  Q 867.55 715.74 865.52 712.23
  A 5.05 4.93 -63.2 0 1 864.88 710.20
  Q 864.57 706.66 863.00 704.89
  Q 858.38 699.69 856.20 697.02
  A 5.26 4.98 -80.3 0 1 855.64 696.18
  Q 854.50 694.03 853.57 693.01
  A 3.23 3.16 77.6 0 0 852.29 692.17
  Q 848.42 690.80 844.79 687.98
  C 842.51 686.21 839.38 684.57 837.37 683.60
  Q 835.38 682.65 832.87 684.24
  A 1.15 1.15 0.0 0 1 831.61 684.21
  Z
  M 142.21 675.35
  L 142.88 680.18
  A 4.04 4.02 54.3 0 1 142.50 682.52
  L 141.75 684.06
  A 1.09 0.96 -34.2 0 0 141.65 684.45
  L 140.67 701.27
  A 0.23 0.11 71.6 0 1 140.66 701.34
  L 136.99 716.45
  A 0.74 0.67 51.7 0 0 136.97 716.74
  L 137.36 719.51
  A 3.56 3.30 -46.6 0 1 137.35 720.52
  Q 136.06 729.26 136.52 738.60
  A 5.98 5.87 -36.5 0 1 136.14 740.99
  L 135.50 742.70
  A 2.97 2.89 56.1 0 0 135.31 743.74
  C 135.33 746.43 137.20 747.81 135.45 750.70
  Q 133.87 753.33 133.22 754.95
  A 5.49 5.32 57.7 0 0 132.83 756.81
  Q 132.66 761.86 132.24 762.70
  Q 130.49 766.20 130.51 767.26
  Q 130.57 770.23 130.47 776.00
  A 14.10 12.91 72.6 0 1 130.30 777.96
  C 129.91 780.38 129.12 781.38 130.04 784.52
  Q 131.26 788.64 129.76 792.26
  C 128.93 794.25 129.22 795.91 130.64 797.14
  Q 134.85 800.82 137.90 804.82
  Q 139.54 806.97 145.20 810.84
  Q 148.34 812.98 149.25 813.82
  C 151.85 816.19 153.53 817.80 156.71 818.63
  A 7.40 7.27 68.5 0 1 159.00 819.65
  L 161.66 821.43
  A 1.79 1.68 -20.3 0 0 162.23 821.67
  C 166.36 822.58 167.95 820.38 170.75 820.26
  C 173.07 820.17 175.56 821.80 178.21 821.83
  Q 184.75 821.88 188.23 815.25
  C 189.47 812.88 190.23 810.72 188.77 808.41
  Q 187.38 806.23 187.36 806.19
  A 1.52 1.51 42.4 0 1 187.30 805.01
  L 191.27 794.30
  A 1.66 1.66 0.0 0 0 191.11 792.82
  L 190.11 791.25
  A 1.66 1.65 -52.8 0 1 189.92 789.86
  L 190.65 787.51
  A 3.89 3.77 -41.1 0 0 190.79 785.83
  L 190.35 782.68
  A 2.02 1.97 50.3 0 1 190.42 781.82
  Q 192.22 775.87 191.31 769.37
  Q 190.80 765.72 191.19 764.10
  Q 191.94 761.00 193.38 759.16
  A 1.67 1.67 0.0 0 0 193.72 757.94
  Q 193.64 757.28 192.78 756.30
  C 189.50 752.56 193.93 747.13 193.59 743.12
  Q 193.03 736.70 194.96 731.94
  A 3.36 3.36 0.0 0 0 195.20 730.86
  L 195.65 720.21
  A 1.66 1.47 60.1 0 1 195.76 719.68
  C 196.75 717.15 197.43 716.17 197.38 712.60
  C 197.35 710.06 195.04 708.62 198.00 706.06
  A 1.11 1.10 -26.6 0 0 198.36 704.99
  L 197.63 701.60
  A 1.47 1.44 44.5 0 1 197.62 701.04
  Q 197.95 699.31 198.96 697.30
  C 200.23 694.75 199.48 692.37 198.65 689.86
  Q 198.27 688.72 199.41 685.83
  A 2.47 2.43 48.9 0 0 199.50 684.29
  Q 198.99 682.46 197.46 680.22
  A 0.96 0.92 -16.1 0 0 196.70 679.82
  C 193.94 679.79 192.08 681.52 189.53 681.63
  Q 187.09 681.74 186.25 682.02
  Q 180.97 683.82 174.43 683.47
  Q 171.12 683.29 171.07 683.28
  C 168.18 682.60 166.58 681.11 163.38 678.92
  A 3.74 3.68 -31.3 0 0 160.79 678.31
  L 158.87 678.58
  A 3.05 3.03 -36.1 0 1 157.17 678.32
  L 152.21 675.99
  A 5.05 4.74 -25.7 0 0 151.10 675.64
  L 143.40 674.22
  A 1.01 1.01 0.0 0 0 142.21 675.35
  Z
  M 640.48 1077.99
  Q 642.63 1078.79 644.75 1078.76
  Q 656.70 1078.55 666.71 1078.67
  A 2.79 2.72 -30.7 0 1 667.88 1078.95
  L 672.19 1081.06
  A 1.79 1.77 -38.4 0 0 673.36 1081.19
  L 687.50 1077.99
  A 0.05 0.03 13.3 0 0 687.53 1077.98
  L 697.90 1073.77
  A 2.98 2.69 14.3 0 0 698.30 1073.56
  L 705.60 1069.07
  A 1.53 0.74 -50.2 0 0 705.76 1068.96
  Q 711.79 1063.44 720.46 1059.08
  A 4.38 4.37 7.8 0 0 721.77 1058.09
  L 728.13 1051.20
  A 4.63 4.56 -83.5 0 1 729.12 1050.40
  L 730.75 1049.41
  A 6.75 6.48 -84.3 0 0 732.39 1048.01
  Q 732.85 1047.50 734.13 1043.87
  Q 734.89 1041.70 737.30 1039.55
  C 738.76 1038.24 741.75 1038.34 742.99 1036.50
  Q 746.41 1031.37 754.47 1016.44
  Q 756.31 1013.02 757.50 1011.38
  C 761.78 1005.46 764.39 998.20 767.57 991.79
  Q 767.85 991.23 767.56 987.94
  A 4.78 4.74 54.3 0 1 767.93 985.62
  L 772.71 974.46
  A 2.22 2.19 45.4 0 0 772.71 972.75
  C 770.38 967.25 774.05 962.59 777.08 957.94
  A 2.19 2.18 -50.0 0 0 776.85 955.25
  C 775.81 954.13 775.42 953.04 775.46 951.44
  Q 775.66 944.12 775.42 940.27
  Q 775.28 937.94 776.10 936.85
  C 777.95 934.40 781.06 931.90 779.20 928.29
  C 777.94 925.83 776.62 922.56 776.96 919.51
  Q 777.75 912.43 777.65 909.85
  C 777.57 907.68 778.51 905.61 778.03 903.47
  Q 777.62 901.65 777.56 899.13
  Q 777.43 892.43 776.70 883.90
  A 2.12 2.10 22.6 0 0 776.21 882.73
  Q 772.06 877.96 772.37 871.95
  A 3.71 3.20 46.5 0 0 772.33 871.12
  Q 769.89 855.90 769.21 854.02
  Q 767.65 849.70 767.46 847.41
  Q 767.33 845.94 766.68 843.29
  C 764.86 835.82 761.73 826.82 757.14 819.91
  Q 754.05 815.25 752.47 810.06
  Q 752.02 808.59 750.36 807.36
  A 0.56 0.55 -59.9 0 0 749.51 807.59
  L 744.80 818.58
  A 1.50 1.35 81.7 0 1 744.54 818.97
  L 734.15 830.42
  A 2.22 2.17 -10.7 0 0 733.83 830.88
  Q 733.26 831.98 729.70 839.69
  Q 728.11 843.14 722.88 848.31
  C 720.27 850.89 717.65 852.30 714.96 854.62
  C 710.92 858.10 704.05 862.11 700.94 864.15
  Q 700.54 864.41 693.43 869.73
  Q 686.92 874.60 685.26 875.28
  Q 677.76 878.35 671.79 880.53
  Q 670.94 880.84 668.74 882.30
  A 2.57 2.36 -69.2 0 1 668.28 882.53
  L 654.69 887.32
  A 2.28 2.10 32.0 0 1 654.00 887.45
  Q 646.55 887.61 641.70 891.85
  C 639.62 893.66 637.93 893.81 635.52 893.65
  Q 630.92 893.34 627.69 893.60
  Q 626.73 893.68 623.38 895.39
  A 2.45 2.42 -61.3 0 1 622.58 895.63
  Q 619.73 895.94 618.83 895.43
  Q 616.00 893.82 615.19 893.84
  Q 609.57 894.01 604.55 893.66
  Q 603.52 893.58 600.11 895.16
  A 5.00 4.97 -63.6 0 1 599.05 895.52
  Q 595.37 896.33 594.74 896.23
  Q 588.72 895.27 583.52 895.80
  A 6.77 6.73 -33.6 0 1 579.59 895.02
  C 576.97 893.60 574.78 893.24 572.14 895.07
  Q 570.96 895.88 570.31 896.01
  A 2.37 2.34 -43.1 0 1 569.24 895.98
  C 568.19 895.68 566.99 894.67 565.53 894.27
  Q 558.18 892.24 553.01 891.50
  C 549.22 890.96 545.92 889.05 542.00 889.68
  C 538.29 890.28 534.41 886.92 529.96 884.14
  A 2.76 2.71 -22.4 0 0 529.12 883.80
  L 521.33 882.16
  A 1.30 1.30 0.0 0 0 519.84 883.86
  C 520.69 886.27 521.55 889.10 524.00 892.11
  Q 525.85 894.39 526.69 899.13
  Q 527.52 903.84 531.23 910.04
  C 533.04 913.05 533.91 916.41 535.89 918.93
  Q 536.99 920.33 537.41 921.18
  A 3.04 3.01 31.6 0 1 537.73 922.49
  Q 537.92 929.56 538.40 930.96
  Q 538.88 932.35 540.23 934.80
  A 3.01 3.01 0.0 0 1 540.51 937.01
  C 539.18 942.11 537.49 947.57 531.31 947.60
  C 527.26 947.62 522.89 947.36 521.19 943.28
  Q 520.22 940.96 519.53 938.58
  A 10.31 10.25 -71.4 0 0 517.93 935.33
  C 515.39 931.86 508.98 923.00 509.33 919.15
  Q 509.82 913.82 506.61 909.19
  C 504.07 905.55 509.42 904.97 507.20 901.08
  Q 503.91 895.33 501.53 892.08
  A 6.50 6.40 16.9 0 1 500.70 890.55
  Q 499.67 887.80 499.68 887.49
  Q 499.91 882.39 498.25 877.61
  Q 497.24 874.73 497.21 872.77
  Q 497.14 868.43 494.19 862.90
  Q 493.49 861.59 493.49 857.69
  A 1.62 1.60 -23.8 0 1 493.94 856.55
  Q 494.96 855.47 495.15 854.87
  A 1.32 1.27 46.0 0 0 495.15 854.04
  Q 493.76 849.85 490.38 844.95
  C 489.40 843.54 488.93 841.22 489.92 839.44
  C 491.50 836.61 490.75 835.84 490.09 833.02
  A 15.93 15.78 -52.2 0 1 489.67 829.57
  Q 489.54 820.37 489.48 809.25
  Q 489.48 807.72 487.93 804.34
  A 1.44 1.40 32.8 0 1 487.81 803.82
  L 487.37 785.04
  A 3.01 3.01 0.0 0 0 487.23 784.20
  L 483.60 773.01
  A 1.00 1.00 0.0 0 0 482.79 772.32
  Q 480.00 771.88 478.78 771.72
  C 474.19 771.12 471.63 766.76 469.60 762.60
  C 468.50 760.31 465.30 758.38 463.73 756.82
  Q 463.14 756.23 460.77 752.73
  C 457.13 747.33 451.67 743.28 445.42 740.61
  A 1.91 1.88 87.9 0 1 444.49 739.73
  L 440.44 731.63
  A 2.20 2.20 0.0 0 0 439.44 730.63
  L 430.50 726.26
  A 2.41 2.25 81.9 0 1 429.68 725.60
  Q 425.14 719.78 423.40 718.69
  Q 415.97 713.99 409.91 706.94
  A 3.05 2.66 53.7 0 0 406.31 706.14
  Q 404.77 707.05 402.38 706.86
  A 2.82 2.80 29.0 0 0 400.47 707.40
  Q 398.42 708.93 395.57 709.27
  C 392.65 709.62 388.92 711.31 386.85 713.02
  Q 382.51 716.61 378.85 719.04
  A 3.65 3.65 0.0 0 0 377.82 720.07
  Q 376.20 722.53 373.40 724.56
  C 370.71 726.50 367.85 729.09 367.23 731.48
  C 365.46 738.38 363.89 741.58 360.15 748.28
  C 358.83 750.64 360.69 752.76 360.66 755.19
  A 3.49 3.44 -32.2 0 1 360.32 756.64
  L 359.07 759.19
  A 2.85 2.74 60.8 0 0 358.78 760.30
  L 358.36 767.58
  A 2.95 2.89 38.4 0 0 358.49 768.62
  C 359.23 770.91 360.35 772.58 360.89 775.21
  Q 362.11 781.15 364.90 786.84
  A 5.44 5.40 -80.6 0 0 365.95 788.32
  Q 369.03 791.45 370.70 796.11
  A 1.96 1.63 25.7 0 0 370.86 796.46
  L 375.72 804.81
  A 3.33 2.90 -86.0 0 0 376.03 805.22
  L 381.00 810.65
  A 5.30 5.22 18.0 0 1 382.26 813.08
  Q 383.17 817.33 386.48 820.82
  Q 391.93 826.56 394.08 828.73
  C 396.41 831.10 397.18 833.19 397.83 836.22
  Q 397.90 836.56 399.40 839.02
  A 2.90 2.80 2.4 0 0 400.20 839.86
  C 403.19 841.95 408.06 845.06 408.40 848.11
  Q 408.85 852.04 409.78 853.24
  Q 415.44 860.52 419.70 868.34
  A 6.16 6.00 -82.9 0 0 420.76 869.74
  Q 424.76 873.67 425.19 874.82
  Q 426.43 878.16 427.53 880.92
  A 5.59 5.40 15.4 0 0 428.37 882.34
  C 431.82 886.56 433.94 890.39 437.46 894.00
  C 440.34 896.96 440.82 901.00 442.87 904.22
  Q 446.41 909.77 450.93 914.16
  A 0.22 0.17 11.4 0 1 450.99 914.23
  L 454.03 919.23
  A 8.50 8.44 -82.9 0 0 455.09 920.60
  Q 460.63 926.29 465.07 934.24
  A 11.17 11.05 -86.5 0 0 468.17 937.78
  C 470.45 939.48 473.31 941.73 475.31 944.66
  Q 476.83 946.91 479.45 950.04
  A 9.97 9.53 14.6 0 1 480.93 952.44
  C 482.36 955.78 484.40 959.16 487.70 961.44
  C 491.89 964.34 493.66 966.68 495.21 970.40
  C 497.00 974.70 499.23 975.29 502.56 977.56
  A 1.50 1.21 82.0 0 1 502.85 977.83
  L 509.21 985.74
  A 2.36 2.21 -78.7 0 1 509.54 986.27
  L 511.78 991.10
  A 2.25 2.20 13.5 0 0 512.05 991.53
  L 518.32 999.24
  A 1.81 1.77 75.9 0 0 519.33 999.86
  L 521.80 1000.38
  A 4.64 4.60 -11.3 0 1 524.62 1002.24
  Q 531.38 1011.88 534.06 1015.74
  Q 535.84 1018.30 541.42 1022.08
  Q 545.01 1024.51 549.76 1031.20
  A 2.20 2.14 -0.9 0 0 550.45 1031.85
  L 554.79 1034.54
  A 7.18 6.99 83.2 0 1 556.14 1035.63
  Q 559.33 1039.00 560.51 1039.52
  Q 563.02 1040.63 564.66 1041.59
  A 4.63 4.44 84.6 0 1 565.91 1042.67
  Q 568.85 1046.31 569.69 1047.12
  Q 572.91 1050.21 581.25 1054.69
  A 12.04 11.45 77.4 0 1 583.19 1055.99
  Q 590.19 1061.73 597.92 1066.09
  A 1.58 1.57 86.3 0 1 598.35 1066.47
  L 602.17 1071.57
  A 1.25 0.90 9.2 0 0 602.39 1071.79
  C 605.09 1073.78 608.24 1073.84 611.04 1075.24
  Q 617.25 1078.32 623.04 1081.23
  C 626.74 1083.08 634.98 1082.14 638.56 1081.65
  A 1.01 1.00 7.2 0 0 639.35 1081.04
  Q 639.73 1080.11 639.65 1078.60
  A 0.62 0.61 -81.3 0 1 640.48 1077.99
  Z
  M 219.78 713.61
  Q 219.50 713.74 218.88 714.60
  A 1.34 1.29 63.6 0 0 218.62 715.42
  Q 218.67 718.72 217.67 721.88
  A 5.04 4.87 -39.0 0 0 217.45 723.69
  L 217.86 730.14
  A 2.75 2.72 -29.4 0 1 217.36 731.89
  L 215.61 734.33
  A 0.81 0.78 -29.9 0 0 215.47 734.81
  Q 215.52 736.84 214.00 745.55
  Q 212.58 753.71 212.50 765.96
  A 5.55 5.38 58.7 0 1 211.98 768.25
  Q 209.76 772.91 211.52 778.50
  A 1.28 1.28 0.0 0 0 213.27 779.28
  C 214.21 778.85 215.04 777.82 215.26 776.93
  Q 216.58 771.39 219.53 767.63
  C 223.13 763.04 224.89 758.82 225.23 753.62
  C 225.35 751.86 224.07 749.27 224.79 747.54
  Q 226.70 742.99 227.01 741.91
  A 7.18 6.39 60.1 0 0 227.24 740.80
  C 227.60 737.60 225.69 735.02 225.43 731.60
  Q 225.23 728.99 224.45 727.11
  A 2.06 2.05 41.3 0 1 224.36 725.76
  C 225.26 722.52 226.48 720.27 223.10 717.84
  Q 221.23 716.48 220.75 714.10
  A 0.69 0.69 0.0 0 0 219.78 713.61
  Z
  M 282.62 718.44
  A 1.35 1.35 0.0 0 0 280.34 718.81
  C 279.62 720.59 278.57 722.24 276.58 723.49
  C 273.87 725.20 271.29 728.58 268.00 730.90
  Q 266.97 731.64 264.77 731.45
  Q 261.17 731.13 256.64 732.84
  Q 255.54 733.26 253.37 732.45
  C 251.39 731.71 249.08 731.21 248.84 733.89
  Q 248.51 737.45 247.87 739.32
  C 247.24 741.16 247.89 742.54 248.85 743.87
  A 0.65 0.65 0.0 0 1 248.70 744.78
  Q 247.58 745.60 247.39 747.09
  A 0.61 0.61 0.0 0 0 247.86 747.77
  Q 249.25 748.08 249.54 746.72
  Q 249.71 745.88 251.02 745.07
  Q 256.50 741.67 257.51 741.21
  A 9.70 9.64 -64.8 0 1 259.10 740.63
  Q 263.43 739.45 264.11 738.90
  Q 268.09 735.67 269.81 735.07
  Q 282.94 730.48 286.46 729.79
  A 1.47 1.47 0.0 0 0 287.45 727.61
  Q 286.59 726.10 283.93 722.27
  C 283.11 721.08 283.04 718.93 282.62 718.44
  Z
  M 800.36 873.95
  L 799.18 874.89
  A 0.45 0.44 -38.6 0 0 799.10 875.51
  L 799.54 876.06
  A 0.31 0.31 0.0 0 0 800.09 875.92
  Q 800.16 875.45 800.93 874.83
  A 0.39 0.38 51.7 0 0 800.99 874.28
  L 800.78 874.00
  A 0.31 0.30 51.2 0 0 800.36 873.95
  Z"
/>
<path fill="#000000" d="
  M 552.58 956.45
  A 2.04 2.02 88.3 0 1 554.60 958.37
  L 555.07 966.70
  A 3.25 3.16 57.3 0 1 554.74 968.32
  Q 553.45 970.94 550.56 972.85
  A 2.50 2.50 0.0 0 1 549.33 973.26
  Q 543.88 973.59 543.00 973.29
  Q 538.59 971.77 537.64 967.24
  Q 536.00 959.46 542.30 956.64
  A 1.97 1.94 -57.3 0 1 543.14 956.45
  L 552.58 956.45
  Z"
/>
</svg>
