<?xml version="1.0" encoding="UTF-8" standalone="no"?>
<!DOCTYPE svg PUBLIC "-//W3C//DTD SVG 1.1//EN" "http://www.w3.org/Graphics/SVG/1.1/DTD/svg11.dtd">
<svg xmlns="http://www.w3.org/2000/svg" version="1.1" viewBox="0.00 0.00 1200.00 1200.00">
<path fill="#000000" d="
  M 993.39 348.30
  A 1.55 1.44 -78.5 0 0 991.17 349.89
  Q 991.22 350.25 992.56 350.43
  A 2.04 2.02 67.7 0 1 993.58 350.86
  Q 995.66 352.52 998.68 354.07
  C 1001.89 355.71 1005.31 358.74 1009.08 359.94
  Q 1011.27 360.63 1015.95 361.78
  C 1020.70 362.95 1024.42 367.71 1028.82 372.04
  A 4.52 4.43 -76.5 0 1 1029.99 374.00
  Q 1031.12 377.93 1031.92 379.95
  C 1033.05 382.83 1032.56 385.20 1030.97 387.15
  A 2.46 2.46 0.0 0 0 1031.09 390.54
  L 1034.58 393.94
  A 5.24 5.24 0.0 0 1 1035.42 395.01
  Q 1037.80 398.93 1039.58 401.62
  C 1040.53 403.07 1040.72 406.79 1041.58 409.14
  Q 1043.11 413.27 1040.89 417.89
  Q 1040.58 418.53 1040.66 421.77
  A 3.20 3.17 -30.2 0 1 1040.18 423.55
  Q 1037.49 427.87 1032.87 430.85
  A 0.27 0.27 0.0 0 0 1032.87 431.30
  Q 1039.53 435.52 1041.86 442.10
  C 1042.47 443.82 1042.58 448.18 1041.19 450.60
  C 1040.39 452.00 1040.13 453.21 1040.49 454.87
  Q 1040.71 455.93 1040.55 456.77
  A 1.53 1.50 68.4 0 1 1040.34 457.27
  L 1034.82 465.36
  A 3.01 3.01 0.0 0 0 1034.30 466.84
  Q 1033.99 471.10 1030.54 475.23
  C 1029.11 476.94 1025.78 478.59 1024.98 480.00
  Q 1020.98 487.04 1015.79 494.05
  Q 1014.88 495.29 1012.49 497.38
  A 4.48 4.24 -5.2 0 0 1011.67 498.31
  C 1007.16 505.29 1001.79 510.37 995.05 517.28
  A 2.06 2.05 46.9 0 0 994.96 520.05
  C 997.62 523.16 1000.14 525.49 1004.03 527.84
  Q 1007.81 530.11 1009.69 535.41
  Q 1011.21 539.67 1016.88 543.03
  A 3.63 3.40 -1.9 0 1 1017.85 543.88
  Q 1020.55 547.34 1020.54 549.01
  Q 1020.54 557.24 1020.65 562.74
  A 1.65 1.65 0.0 0 1 1020.27 563.82
  Q 1017.71 566.94 1012.92 568.22
  A 1.21 1.21 0.0 0 0 1012.16 569.96
  L 1014.44 574.21
  A 0.93 0.67 35.8 0 1 1014.52 574.45
  Q 1015.33 579.70 1013.13 583.26
  A 1.14 1.13 -35.2 0 0 1012.99 584.05
  L 1013.48 586.60
  A 1.56 1.55 -33.9 0 1 1013.25 587.75
  Q 1009.04 594.13 1002.38 597.60
  Q 1000.63 598.52 997.88 600.63
  A 1.63 1.60 -10.8 0 0 997.31 601.45
  Q 996.04 605.52 995.32 606.35
  Q 990.96 611.37 988.63 614.67
  C 987.38 616.45 985.42 617.87 983.81 618.61
  A 2.75 2.22 64.3 0 0 982.99 622.10
  C 984.29 624.71 988.88 623.10 990.77 622.01
  Q 991.50 621.59 997.62 617.88
  Q 999.26 616.89 1000.95 617.23
  A 2.18 2.15 -21.4 0 1 1001.79 617.59
  Q 1012.05 624.57 1013.47 625.43
  C 1015.52 626.67 1016.96 628.16 1019.35 630.28
  A 1.94 1.94 0.0 0 0 1021.47 630.58
  L 1028.55 627.23
  A 2.17 2.14 -60.5 0 1 1029.22 627.04
  C 1032.73 626.62 1034.05 626.47 1036.87 624.11
  A 2.89 2.41 5.2 0 1 1037.26 623.84
  L 1044.98 619.64
  A 4.57 4.57 0.0 0 1 1047.48 619.09
  Q 1052.00 619.41 1056.16 617.89
  A 5.25 5.20 -50.9 0 1 1058.64 617.62
  Q 1067.17 618.71 1073.62 620.45
  Q 1075.10 620.85 1078.67 622.38
  Q 1083.07 624.25 1083.69 624.57
  A 6.10 5.99 82.4 0 1 1085.41 625.91
  C 1087.22 627.91 1091.08 632.67 1091.14 635.49
  A 1.41 1.41 0.0 0 0 1093.30 636.65
  C 1099.25 632.87 1102.93 637.34 1108.02 636.53
  Q 1112.14 635.87 1114.15 636.94
  Q 1120.60 640.36 1124.69 642.26
  A 3.01 2.97 -7.4 0 1 1125.73 643.05
  L 1132.62 651.16
  A 2.22 2.22 0.0 0 1 1133.12 652.88
  L 1132.31 658.87
  A 1.72 1.71 6.1 0 0 1133.88 660.81
  L 1138.00 661.12
  A 4.35 4.02 -30.0 0 1 1139.15 661.38
  C 1142.59 662.67 1148.87 664.04 1152.30 667.58
  C 1155.71 671.09 1159.46 672.88 1162.78 676.54
  Q 1166.87 681.05 1167.26 681.89
  Q 1168.62 684.79 1169.39 691.57
  A 6.29 6.11 31.9 0 0 1169.80 693.22
  C 1171.72 698.13 1172.60 699.83 1171.74 705.33
  A 3.89 3.66 48.0 0 0 1171.72 706.28
  Q 1172.57 713.74 1173.79 717.51
  A 6.20 6.13 34.8 0 1 1174.10 719.17
  Q 1174.47 726.10 1172.81 734.13
  Q 1172.55 735.37 1170.83 737.15
  Q 1166.44 741.72 1158.57 743.69
  C 1154.96 744.60 1150.35 743.15 1147.66 744.18
  A 1.38 1.37 52.5 0 1 1146.35 744.00
  C 1144.71 742.75 1142.82 741.23 1140.54 740.51
  Q 1138.12 739.74 1135.66 737.76
  C 1131.62 734.50 1128.93 732.97 1122.80 728.66
  A 1.64 1.49 86.4 0 1 1122.48 728.35
  L 1120.60 725.86
  A 2.83 2.82 -7.4 0 0 1119.44 724.97
  C 1114.30 722.90 1110.82 724.06 1107.54 728.42
  C 1105.83 730.68 1105.51 734.09 1104.61 737.29
  Q 1103.76 740.32 1104.45 744.43
  A 2.27 2.27 0.0 0 0 1106.37 746.29
  Q 1110.78 746.92 1115.90 749.30
  C 1119.49 750.97 1122.02 753.48 1125.40 755.57
  A 2.63 2.54 87.6 0 1 1126.20 756.33
  C 1128.03 758.96 1128.57 762.40 1130.28 764.93
  Q 1131.97 767.42 1132.26 768.15
  C 1133.30 770.81 1132.16 773.86 1130.67 776.96
  A 1.80 1.10 82.6 0 0 1130.60 777.17
  L 1129.13 784.30
  A 2.10 2.09 1.4 0 1 1127.39 785.95
  Q 1121.91 786.81 1117.39 789.11
  A 8.31 8.26 28.4 0 1 1114.51 789.96
  L 1106.73 790.79
  A 3.13 3.00 46.2 0 1 1105.81 790.75
  Q 1101.79 790.00 1095.30 790.23
  Q 1094.11 790.27 1090.65 789.05
  A 13.36 13.00 -33.6 0 0 1086.72 788.31
  L 1085.42 788.26
  A 3.05 3.02 63.0 0 1 1083.81 787.73
  C 1079.99 785.14 1077.43 782.99 1073.98 782.21
  A 3.83 3.79 -37.7 0 0 1072.92 782.08
  L 1066.16 782.19
  A 5.67 5.47 32.8 0 0 1064.24 782.57
  C 1061.59 783.57 1059.15 785.25 1055.48 783.46
  C 1052.40 781.95 1047.99 780.37 1048.39 785.77
  Q 1048.68 789.60 1046.37 793.45
  A 1.81 1.79 1.7 0 1 1045.62 794.15
  Q 1041.32 796.29 1037.61 796.16
  Q 1035.32 796.09 1033.57 796.99
  Q 1031.34 798.14 1025.79 798.49
  Q 1024.10 798.59 1020.76 800.30
  C 1018.65 801.38 1017.93 803.92 1015.85 805.26
  C 1013.92 806.51 1012.03 806.07 1010.04 806.26
  A 7.61 7.46 30.3 0 0 1007.85 806.81
  Q 1004.85 808.06 1001.74 808.27
  A 6.81 6.79 -60.6 0 0 999.11 809.01
  L 982.52 817.64
  A 2.86 2.61 21.0 0 1 982.06 817.82
  L 973.95 820.02
  A 4.36 4.04 -51.3 0 1 972.88 820.18
  Q 968.13 820.34 966.60 821.33
  Q 958.63 826.46 956.27 827.53
  Q 954.35 828.39 948.68 828.33
  A 5.80 5.73 35.2 0 0 946.59 828.68
  Q 940.32 830.92 935.34 834.57
  C 932.18 836.88 928.18 836.37 923.63 836.41
  Q 922.37 836.42 917.94 838.63
  A 2.32 2.13 -78.4 0 0 917.36 839.05
  L 911.53 844.68
  A 3.69 3.65 22.2 0 1 909.06 845.70
  Q 904.04 845.81 899.00 848.76
  A 1.54 1.54 0.0 0 0 898.50 850.96
  C 901.66 855.57 901.10 860.42 900.46 866.24
  Q 900.08 869.70 901.07 875.23
  A 6.42 6.27 -45.7 0 1 901.07 877.52
  Q 900.74 879.39 899.42 882.65
  C 898.41 885.15 898.51 886.62 898.38 889.16
  Q 898.31 890.63 897.81 891.75
  C 896.17 895.39 896.73 898.88 895.37 902.64
  Q 894.64 904.64 894.23 908.53
  A 1.47 1.46 -28.8 0 1 894.10 908.97
  L 893.14 911.04
  A 6.42 6.39 -30.5 0 0 892.57 913.22
  L 892.18 918.36
  A 7.69 7.66 63.5 0 1 891.02 921.85
  Q 885.49 930.58 883.34 938.11
  A 5.36 5.34 74.8 0 1 882.08 940.32
  C 878.46 944.11 875.68 948.20 876.59 953.52
  A 2.74 2.69 -37.7 0 1 876.37 955.12
  Q 874.81 958.38 873.70 959.10
  Q 868.81 962.23 866.12 966.64
  C 864.91 968.63 862.62 969.68 861.22 971.46
  C 858.24 975.22 855.91 979.74 852.25 983.59
  Q 846.68 989.45 839.35 996.35
  A 6.62 6.32 5.7 0 1 838.49 997.02
  Q 834.87 999.38 832.67 1001.68
  A 7.41 7.39 8.5 0 1 830.76 1003.09
  Q 824.03 1006.53 818.50 1012.89
  A 1.15 0.97 -83.6 0 1 818.30 1013.08
  L 809.83 1019.44
  A 6.40 5.84 10.7 0 1 808.89 1020.02
  L 793.64 1027.48
  A 0.39 0.24 13.3 0 1 793.55 1027.51
  Q 785.91 1029.77 781.24 1034.45
  A 4.11 4.05 12.8 0 1 779.61 1035.46
  Q 779.00 1035.66 775.25 1036.52
  Q 770.24 1037.66 761.74 1041.53
  C 759.32 1042.63 757.38 1042.60 755.14 1043.40
  Q 744.63 1047.14 740.17 1049.28
  A 9.06 9.01 30.9 0 1 736.58 1050.17
  C 731.34 1050.37 729.10 1050.33 725.00 1051.81
  A 6.77 6.72 -56.9 0 1 723.23 1052.19
  Q 720.88 1052.36 718.24 1053.46
  A 6.24 6.09 -57.7 0 1 716.27 1053.93
  L 713.54 1054.13
  A 4.24 4.21 27.5 0 0 711.68 1054.71
  C 709.00 1056.27 705.95 1056.06 703.25 1057.28
  C 701.12 1058.25 698.75 1059.29 696.72 1057.82
  Q 694.62 1056.29 692.35 1056.46
  A 0.87 0.80 25.7 0 0 691.95 1056.58
  L 688.87 1058.36
  A 0.92 0.85 -56.1 0 1 688.41 1058.47
  Q 683.69 1058.16 672.27 1058.21
  Q 670.45 1058.22 666.03 1056.00
  A 1.26 1.19 85.3 0 1 665.53 1055.55
  L 661.44 1048.95
  A 1.98 1.67 26.1 0 1 661.22 1048.45
  L 660.86 1046.93
  A 0.87 0.87 0.0 0 0 659.31 1046.62
  Q 657.55 1049.02 655.11 1050.78
  A 4.53 4.50 -73.4 0 1 654.10 1051.33
  C 651.94 1052.17 648.16 1053.42 644.32 1054.38
  Q 637.63 1056.03 633.49 1058.53
  A 6.35 6.28 23.2 0 1 631.56 1059.29
  L 624.12 1060.90
  A 4.96 4.75 23.4 0 0 622.80 1061.39
  Q 618.15 1063.98 613.12 1064.60
  A 3.97 3.91 25.9 0 0 611.61 1065.11
  L 608.80 1066.72
  A 2.38 2.25 20.1 0 1 608.29 1066.94
  L 596.99 1070.61
  A 0.37 0.05 -8.0 0 0 596.92 1070.63
  L 587.75 1072.40
  A 2.09 2.08 -41.2 0 1 586.67 1072.33
  Q 586.62 1072.31 584.52 1071.24
  C 582.84 1070.39 581.53 1070.99 579.94 1072.18
  C 576.42 1074.79 573.49 1076.00 568.74 1076.21
  Q 559.14 1076.63 558.62 1076.63
  C 555.83 1076.62 554.60 1077.47 552.77 1078.99
  A 4.53 4.34 -51.3 0 1 547.97 1079.63
  Q 546.15 1078.74 544.49 1079.02
  Q 535.79 1080.48 523.74 1080.16
  Q 520.47 1080.07 517.35 1078.22
  A 0.87 0.87 0.0 0 0 516.45 1078.22
  Q 513.52 1079.98 512.54 1080.08
  C 509.58 1080.38 506.62 1079.35 503.77 1079.75
  C 498.44 1080.49 493.49 1080.10 488.78 1077.48
  A 5.58 5.47 -27.8 0 0 486.50 1076.80
  Q 479.57 1076.34 475.47 1076.33
  C 473.13 1076.32 471.69 1075.74 469.87 1074.86
  A 0.79 0.76 41.6 0 0 469.14 1074.89
  Q 466.21 1076.65 464.58 1076.13
  Q 458.69 1074.26 458.49 1074.24
  C 454.44 1073.81 450.78 1071.96 446.20 1071.43
  A 2.05 1.65 51.1 0 1 445.74 1071.33
  L 432.94 1067.11
  A 3.96 3.66 -20.6 0 1 432.40 1066.89
  C 429.77 1065.56 427.11 1063.54 423.81 1062.24
  Q 416.95 1059.54 410.98 1058.20
  A 4.61 4.43 65.6 0 1 409.80 1057.73
  L 405.67 1055.35
  A 1.82 1.64 61.9 0 0 405.06 1055.13
  L 395.79 1053.56
  A 7.92 7.92 0.0 0 1 392.09 1051.90
  Q 386.13 1047.10 379.87 1044.30
  Q 374.76 1042.01 373.88 1041.43
  C 369.81 1038.75 366.18 1035.55 361.45 1034.82
  A 2.51 2.48 -17.3 0 1 360.04 1034.09
  Q 354.84 1028.73 349.68 1024.01
  C 347.47 1021.98 344.46 1020.28 342.33 1018.57
  A 19.07 19.04 75.7 0 0 338.34 1016.20
  L 336.07 1015.20
  A 9.41 9.39 -9.0 0 1 332.84 1012.86
  C 330.39 1010.11 328.09 1006.51 325.39 1003.88
  Q 319.09 997.74 314.85 992.40
  C 312.85 989.87 309.35 987.76 307.88 985.36
  Q 306.05 982.39 303.12 976.59
  A 3.07 3.01 9.7 0 0 302.55 975.80
  L 300.24 973.48
  A 2.54 2.47 -77.9 0 1 299.65 972.54
  C 298.52 969.31 295.92 966.25 294.11 962.35
  C 293.11 960.20 292.54 956.92 291.18 955.57
  Q 288.52 952.92 287.98 951.51
  Q 286.09 946.57 285.21 944.64
  A 4.02 3.98 -53.4 0 1 284.89 942.40
  C 285.68 937.13 284.47 934.73 281.87 929.98
  A 5.16 5.09 -64.3 0 1 281.31 928.34
  C 280.34 922.26 281.83 916.50 280.58 910.77
  C 279.84 907.41 281.16 904.97 281.08 902.01
  Q 280.95 897.47 282.51 893.53
  A 6.67 6.65 -33.9 0 0 282.99 891.10
  Q 283.01 887.62 283.58 884.67
  C 284.21 881.40 283.16 876.63 285.81 873.53
  Q 289.12 869.64 289.23 865.77
  C 289.34 862.38 291.63 859.38 293.78 855.70
  A 15.33 15.21 67.7 0 0 295.36 851.88
  Q 296.66 846.90 298.28 845.00
  Q 304.70 837.49 309.08 828.82
  A 7.98 7.97 82.6 0 1 310.88 826.48
  Q 313.86 823.81 315.31 820.82
  C 317.11 817.11 319.70 815.32 322.88 813.58
  A 1.10 1.10 0.0 0 0 323.39 813.01
  L 325.67 807.21
  A 2.68 2.67 88.3 0 1 327.01 805.78
  L 336.23 801.45
  A 1.73 1.58 27.0 0 1 336.74 801.31
  L 341.78 800.78
  A 1.49 1.47 85.7 0 0 343.09 799.24
  L 342.84 793.52
  A 2.17 2.14 -34.1 0 1 343.05 792.47
  Q 344.34 789.68 348.14 784.71
  C 350.29 781.89 351.30 777.56 351.48 773.56
  Q 351.68 769.30 353.73 764.40
  Q 354.63 762.25 355.52 761.16
  C 358.01 758.09 358.72 755.08 360.22 751.22
  A 8.08 8.08 0.0 0 1 361.18 749.46
  C 363.66 745.99 366.10 743.14 367.65 739.91
  Q 369.80 735.44 372.46 731.12
  A 5.41 5.40 -25.8 0 0 373.23 728.91
  C 373.85 723.44 377.28 718.27 379.72 713.58
  A 2.13 1.75 -28.1 0 0 379.89 713.17
  L 382.25 705.90
  A 4.68 4.68 0.0 0 1 383.15 704.30
  Q 386.02 701.00 387.86 696.30
  A 6.39 5.85 76.2 0 1 388.57 695.00
  L 390.90 691.82
  A 4.42 4.34 -14.7 0 0 391.33 691.10
  L 398.22 676.24
  A 4.95 4.90 80.0 0 1 399.18 674.85
  Q 404.93 668.99 406.36 665.35
  Q 409.07 658.43 410.30 657.04
  C 414.27 652.54 418.61 647.13 419.34 641.52
  Q 419.61 639.40 421.23 637.79
  C 423.72 635.31 425.61 633.42 427.11 629.49
  Q 429.39 623.54 434.31 617.07
  C 435.78 615.13 437.60 613.86 438.80 611.95
  A 2.51 2.50 38.7 0 0 438.45 608.87
  L 434.03 604.39
  A 6.92 6.82 76.1 0 0 431.24 602.68
  Q 426.24 601.06 417.52 596.20
  C 414.02 594.25 411.58 591.62 408.06 589.57
  A 11.67 11.30 -6.7 0 1 405.82 587.86
  Q 399.58 581.74 390.67 577.58
  A 8.14 8.06 -12.2 0 1 388.90 576.45
  C 385.64 573.68 383.59 571.85 378.74 569.67
  A 12.30 12.18 -13.9 0 1 376.54 568.36
  Q 369.81 563.30 361.12 557.71
  C 358.99 556.34 356.86 555.71 354.93 554.50
  A 7.07 3.71 44.5 0 1 354.14 553.94
  Q 354.08 553.89 347.88 548.40
  C 345.28 546.10 339.22 543.79 336.14 542.10
  Q 328.58 537.97 325.19 536.04
  A 7.91 7.73 69.6 0 0 324.07 535.51
  L 321.15 534.43
  A 5.50 5.46 76.2 0 1 319.36 533.34
  L 315.98 530.24
  A 1.46 1.22 -5.2 0 0 315.66 530.02
  L 304.99 524.73
  A 1.80 1.69 76.6 0 1 304.55 524.44
  Q 295.51 516.34 284.37 510.93
  C 280.89 509.23 277.41 507.24 275.02 505.43
  A 8.48 8.38 -19.1 0 0 271.90 503.94
  Q 267.49 502.85 262.63 499.32
  C 260.35 497.66 257.89 496.78 255.90 495.63
  A 7.56 7.39 79.3 0 1 254.70 494.79
  Q 250.35 491.12 249.41 490.82
  C 244.47 489.26 242.27 487.45 238.91 483.65
  A 0.57 0.21 20.3 0 0 238.84 483.59
  L 221.35 473.03
  A 3.03 2.75 -19.2 0 0 220.57 472.70
  L 216.40 471.60
  A 3.27 3.26 72.4 0 1 215.08 470.91
  L 209.48 466.11
  A 1.78 1.74 -12.0 0 0 209.18 465.92
  L 202.91 462.83
  A 3.29 3.22 -8.7 0 1 201.99 462.17
  Q 199.08 459.25 194.21 457.55
  A 5.23 5.21 -17.3 0 1 192.89 456.86
  L 181.33 448.62
  A 1.21 0.94 -7.0 0 0 181.18 448.53
  L 177.14 446.66
  A 4.68 4.52 -11.3 0 1 176.13 446.01
  Q 171.26 441.85 169.84 441.28
  Q 163.04 438.57 161.53 437.21
  Q 157.92 433.96 153.73 430.31
  Q 152.03 428.82 147.67 428.02
  A 3.83 3.74 65.5 0 1 146.36 427.51
  L 138.17 422.37
  A 1.25 1.20 83.0 0 1 137.90 422.15
  C 135.57 419.84 130.98 415.56 126.89 416.12
  Q 124.28 416.47 123.36 416.04
  C 118.00 413.56 114.74 407.78 109.35 404.43
  C 108.16 403.69 107.06 403.87 105.76 404.28
  C 104.13 404.79 103.60 404.58 102.42 403.99
  C 100.86 403.21 99.25 402.85 96.47 401.85
  Q 94.08 400.99 90.35 397.27
  A 3.11 3.09 -71.4 0 1 89.47 395.49
  C 88.48 388.48 90.06 385.13 94.18 380.56
  C 96.23 378.29 96.83 376.45 97.06 373.84
  C 97.28 371.36 98.97 370.12 100.90 368.04
  C 103.77 364.94 105.03 359.85 108.31 356.55
  Q 112.03 352.80 114.00 348.20
  A 4.28 4.25 -8.8 0 1 115.20 346.57
  L 116.69 345.30
  A 1.81 1.70 88.4 0 0 117.02 344.93
  Q 126.12 331.24 135.78 320.18
  A 2.49 2.45 -13.5 0 0 136.18 319.54
  L 137.61 316.06
  A 1.92 1.74 75.8 0 1 137.78 315.74
  L 144.20 305.82
  A 5.43 5.43 0.0 0 1 145.43 304.47
  C 149.04 301.70 150.97 300.52 153.17 296.94
  A 1.71 1.58 87.7 0 1 153.51 296.54
  L 156.29 294.18
  A 3.18 3.12 -11.1 0 0 157.23 292.81
  Q 159.36 286.71 164.44 282.40
  A 2.24 2.23 53.5 0 0 164.87 279.47
  C 163.15 276.84 160.48 276.52 158.59 275.88
  A 4.91 4.78 -14.2 0 1 156.98 274.95
  C 153.73 272.07 152.10 270.79 146.86 270.20
  A 1.69 1.65 -20.9 0 1 145.98 269.82
  L 140.75 265.47
  A 0.57 0.48 -4.7 0 0 140.61 265.37
  Q 139.22 264.56 136.13 266.16
  A 2.26 2.25 2.6 0 0 135.25 266.96
  C 132.95 270.59 132.37 272.51 127.51 275.09
  A 1.67 1.65 -52.0 0 1 126.36 275.24
  L 120.96 273.99
  A 4.44 4.42 -15.7 0 1 118.81 272.79
  Q 115.30 269.20 110.69 267.90
  A 5.83 5.75 72.0 0 1 108.64 266.84
  L 104.81 263.72
  A 1.48 1.43 -14.0 0 0 104.36 263.46
  Q 96.07 260.24 91.64 257.06
  Q 82.75 250.67 79.96 249.52
  A 3.55 3.55 0.0 0 1 79.01 248.95
  Q 73.69 244.56 68.19 237.93
  C 66.79 236.24 65.92 234.47 65.29 232.73
  C 64.18 229.66 68.81 224.71 69.33 221.43
  C 69.66 219.36 71.87 218.45 72.70 216.13
  C 73.51 213.85 75.19 210.95 77.46 209.64
  Q 78.85 208.85 79.40 208.37
  A 3.60 3.54 83.2 0 0 80.22 207.31
  C 81.24 205.33 82.58 202.72 84.13 201.04
  Q 90.80 193.87 92.74 192.45
  Q 93.91 191.59 100.54 189.30
  A 3.85 3.55 33.3 0 1 101.75 189.10
  L 110.58 189.10
  A 6.18 6.10 -33.4 0 1 112.94 189.57
  C 114.58 190.24 115.87 190.96 117.11 190.92
  C 120.86 190.80 121.65 186.63 120.97 183.51
  A 1.72 1.67 -39.4 0 1 121.09 182.44
  L 122.15 180.17
  A 2.23 2.22 -58.8 0 0 121.49 177.48
  C 120.26 176.53 119.44 175.73 119.37 173.97
  Q 119.23 170.65 118.10 166.43
  Q 117.89 165.63 118.62 162.03
  A 3.80 3.73 -22.6 0 1 119.17 160.73
  L 123.59 154.13
  A 4.62 4.54 89.5 0 1 124.78 152.90
  Q 132.91 147.15 134.04 145.72
  Q 138.04 140.63 139.27 139.11
  A 7.45 7.40 77.3 0 0 140.31 137.45
  Q 140.49 137.07 141.53 134.45
  C 142.76 131.33 145.96 129.02 148.99 127.33
  A 3.16 3.13 -0.5 0 0 150.20 126.11
  C 152.70 121.51 154.92 120.36 158.75 117.88
  A 5.89 5.60 -83.9 0 0 159.94 116.87
  L 163.24 113.20
  A 3.39 3.34 7.5 0 1 164.22 112.46
  C 167.55 110.83 168.69 110.42 170.80 107.54
  Q 173.47 103.90 177.84 101.94
  Q 179.89 101.02 181.01 99.21
  Q 182.44 96.88 185.24 94.45
  A 4.73 4.66 16.0 0 1 187.02 93.48
  C 191.05 92.30 192.40 91.00 195.28 87.69
  C 197.45 85.20 199.70 84.26 202.65 85.13
  Q 209.35 87.11 211.10 87.45
  A 4.01 4.00 69.1 0 1 212.70 88.17
  Q 216.79 91.29 217.86 96.90
  A 0.13 0.04 61.8 0 1 217.87 96.95
  L 216.17 108.42
  A 6.40 6.18 -32.7 0 1 215.91 109.52
  Q 215.87 109.64 214.93 111.74
  A 2.58 0.05 -75.3 0 0 214.31 113.95
  Q 213.74 116.07 212.16 120.05
  Q 207.85 130.92 205.60 145.83
  C 205.25 148.12 202.33 151.16 202.31 154.28
  Q 202.29 157.11 200.42 159.37
  C 199.03 161.05 198.80 162.58 198.69 164.43
  C 198.58 166.35 197.36 168.83 197.07 169.86
  A 7.85 7.24 -37.0 0 0 196.85 171.07
  Q 196.63 173.26 195.99 180.25
  C 195.70 183.43 194.07 185.52 192.96 188.29
  C 190.38 194.70 188.85 199.45 183.84 203.44
  A 1.09 1.09 0.0 0 0 183.45 204.52
  C 184.25 208.47 189.77 210.39 192.64 211.48
  A 2.11 2.08 1.1 0 1 193.87 212.74
  L 194.90 215.75
  A 3.72 3.71 3.2 0 0 196.84 217.91
  L 208.42 223.28
  A 1.27 1.27 0.0 0 0 210.09 222.71
  L 213.78 215.46
  A 4.56 4.51 81.1 0 1 214.63 214.28
  L 221.41 207.51
  A 2.78 2.72 79.5 0 0 222.00 206.63
  Q 225.93 197.53 229.62 193.36
  C 236.34 185.75 249.53 189.40 256.91 194.38
  C 259.34 196.02 260.61 196.35 262.66 197.35
  A 16.35 16.30 -11.9 0 1 266.42 199.79
  L 270.29 203.15
  A 1.35 1.34 -11.6 0 0 270.55 203.32
  L 275.95 205.82
  A 2.65 2.61 76.3 0 1 276.42 206.11
  L 280.47 209.33
  A 1.79 1.77 75.1 0 0 280.93 209.60
  Q 287.35 212.28 294.24 215.75
  C 295.90 216.58 298.18 217.73 299.57 219.53
  C 302.53 223.37 306.66 224.43 309.84 227.29
  Q 314.82 231.77 321.63 235.47
  Q 324.80 237.19 326.48 238.66
  C 329.20 241.02 332.62 243.11 334.97 244.08
  Q 340.33 246.29 340.57 246.41
  A 8.75 8.59 80.9 0 1 342.84 248.09
  Q 347.62 253.01 355.55 256.48
  A 10.96 10.94 75.4 0 1 357.88 257.85
  Q 362.94 261.68 368.99 264.19
  A 9.82 9.68 -15.2 0 1 371.01 265.33
  Q 380.88 272.56 384.94 274.81
  Q 389.16 277.16 400.63 283.01
  A 1.08 0.84 -7.0 0 1 400.83 283.13
  L 407.56 288.03
  A 2.73 1.83 74.6 0 1 407.85 288.28
  Q 411.28 291.83 412.95 292.86
  C 420.90 297.76 425.30 301.14 432.23 304.43
  Q 435.12 305.80 440.16 308.33
  Q 441.11 308.81 443.94 312.22
  C 446.63 315.46 449.32 317.20 452.89 318.65
  C 455.27 319.61 455.86 320.44 457.62 322.00
  A 10.25 9.82 -7.0 0 0 458.97 323.01
  Q 460.37 323.86 465.78 326.60
  C 468.27 327.85 470.28 329.59 472.20 330.97
  A 15.21 14.82 72.9 0 0 475.29 332.66
  Q 479.64 334.42 480.78 335.31
  Q 487.78 340.83 488.42 341.29
  A 8.05 8.02 74.3 0 0 490.28 342.34
  L 494.10 343.87
  A 4.20 4.17 74.9 0 1 495.10 344.45
  Q 495.41 344.70 497.90 347.35
  C 499.48 349.04 502.41 350.86 505.25 351.92
  C 511.18 354.13 516.70 358.24 521.72 362.78
  A 1.48 1.44 -8.9 0 0 522.03 363.00
  L 538.22 372.14
  A 2.40 1.89 61.3 0 0 538.69 372.34
  C 542.16 373.40 547.63 374.59 549.07 376.91
  C 551.87 381.42 556.44 384.85 561.25 387.92
  A 1.85 1.84 34.4 0 0 563.73 387.46
  Q 567.06 382.91 568.85 376.81
  C 569.35 375.09 569.19 372.24 570.49 370.72
  C 574.20 366.38 578.52 360.85 579.51 355.01
  Q 579.82 353.22 581.03 352.02
  C 585.63 347.45 587.61 343.28 592.10 335.74
  A 2.83 2.83 0.0 0 0 592.50 334.29
  Q 592.47 330.79 594.68 328.30
  C 596.92 325.80 597.33 321.98 598.44 319.63
  A 4.33 4.31 -8.7 0 1 599.42 318.30
  C 603.99 314.15 604.45 308.58 606.97 303.04
  A 4.08 3.95 -13.8 0 1 607.53 302.15
  C 610.67 298.34 612.86 293.02 615.54 289.54
  C 617.55 286.91 618.23 283.87 620.17 281.10
  C 622.23 278.17 623.33 273.81 625.98 271.06
  C 628.61 268.34 630.17 265.56 631.21 261.73
  C 631.97 258.94 633.95 256.95 634.95 254.18
  Q 638.84 243.43 645.78 234.81
  C 647.50 232.67 646.44 228.04 648.40 225.92
  C 651.49 222.59 656.64 222.38 659.25 220.43
  A 1.14 1.13 -59.0 0 1 660.07 220.22
  L 668.17 221.32
  A 4.05 3.94 67.6 0 1 670.13 222.17
  Q 673.15 224.59 675.46 225.35
  Q 678.31 226.29 680.65 227.92
  Q 682.64 229.30 688.98 231.90
  A 7.57 7.11 -15.8 0 1 690.14 232.50
  Q 697.97 237.58 702.98 242.56
  A 8.87 8.59 -6.1 0 0 704.57 243.80
  Q 708.14 245.95 711.89 249.40
  Q 712.89 250.33 717.69 252.81
  C 721.12 254.58 725.16 255.64 728.03 257.56
  C 730.62 259.29 734.13 260.31 736.50 261.29
  A 2.17 1.82 68.5 0 1 736.94 261.53
  L 748.51 269.60
  A 11.66 11.59 69.9 0 0 752.12 271.29
  Q 754.90 272.04 758.51 275.96
  Q 759.67 277.22 764.27 279.25
  A 3.14 1.53 6.9 0 1 764.61 279.42
  L 774.23 285.12
  A 1.75 1.66 80.3 0 1 774.51 285.33
  Q 777.26 287.92 780.54 289.31
  C 783.86 290.72 784.42 291.62 787.01 293.80
  A 0.42 0.24 60.5 0 0 787.11 293.86
  L 800.04 300.62
  A 1.78 1.77 37.3 0 0 802.08 300.35
  L 810.18 292.80
  A 6.34 6.32 -7.3 0 0 811.42 291.20
  Q 813.29 287.79 816.01 284.89
  A 1.04 0.90 80.5 0 0 816.21 284.56
  L 818.51 278.27
  A 1.34 1.31 -41.7 0 0 818.56 277.54
  C 817.97 274.98 813.80 272.20 812.02 270.58
  A 2.27 2.26 -73.1 0 1 811.28 269.18
  C 811.01 267.11 811.01 265.68 809.87 264.22
  Q 808.79 262.83 809.76 260.96
  C 811.05 258.47 811.12 257.21 811.06 253.99
  C 810.96 249.24 813.59 245.33 817.06 241.87
  Q 823.06 235.89 826.31 232.14
  A 1.72 1.68 13.1 0 1 827.15 231.63
  L 830.18 230.83
  A 5.06 5.03 5.9 0 0 833.39 228.24
  L 840.41 214.46
  A 2.50 2.33 -28.9 0 0 840.65 213.73
  L 841.42 209.07
  A 5.96 5.93 -17.9 0 1 843.10 205.81
  L 847.02 201.92
  A 0.79 0.79 0.0 0 1 847.38 201.70
  Q 852.73 200.01 857.07 201.44
  Q 865.18 204.12 873.35 206.88
  Q 878.50 208.61 883.03 209.37
  A 3.80 3.78 79.6 0 1 885.70 211.22
  L 887.25 213.89
  A 3.65 3.60 3.3 0 0 888.28 215.03
  C 893.71 218.93 897.65 221.60 900.19 228.09
  Q 901.06 230.30 900.37 231.88
  Q 897.47 238.54 894.67 246.26
  A 1.82 1.81 -53.2 0 0 894.91 247.95
  L 899.17 253.79
  A 1.32 1.30 -13.0 0 0 900.00 254.30
  Q 903.00 254.77 906.52 256.74
  A 1.77 1.77 0.0 0 0 909.16 255.18
  C 909.15 251.21 912.29 247.79 914.92 245.94
  C 919.98 242.39 930.60 248.57 935.03 251.67
  A 0.67 0.53 -6.3 0 0 935.14 251.74
  L 939.89 253.86
  A 5.59 5.46 79.3 0 1 941.59 255.05
  Q 946.41 260.05 956.52 267.16
  C 958.51 268.57 960.87 269.32 962.00 270.11
  A 7.50 7.45 1.4 0 1 963.92 272.11
  Q 965.98 275.27 966.67 275.64
  Q 974.17 279.65 979.45 283.05
  A 0.17 0.11 6.6 0 1 979.51 283.10
  L 985.87 289.22
  A 3.15 2.83 76.4 0 0 986.64 289.75
  L 991.04 291.79
  A 3.44 3.42 80.6 0 1 992.11 292.56
  Q 995.45 296.10 997.90 297.94
  Q 999.39 299.06 1001.03 301.62
  Q 1003.44 305.39 1008.67 307.29
  C 1011.45 308.31 1013.40 311.08 1015.67 313.88
  A 4.95 4.94 -1.9 0 0 1016.74 314.88
  Q 1018.46 316.08 1020.87 317.19
  C 1025.07 319.12 1025.62 321.10 1026.91 325.18
  A 6.28 6.20 -75.4 0 0 1028.27 327.53
  C 1031.45 330.96 1032.99 332.60 1034.32 337.19
  A 1.77 1.74 -42.9 0 1 1034.27 338.30
  C 1032.27 343.66 1030.69 348.28 1026.00 351.96
  A 2.14 2.14 0.0 0 1 1024.59 352.42
  L 1014.36 352.07
  A 2.41 2.28 -30.7 0 1 1013.56 351.89
  Q 1006.68 348.99 998.30 350.14
  A 4.24 4.22 -36.2 0 1 995.93 349.78
  Q 994.77 349.23 993.39 348.30
  Z
  M 466.57 626.71
  A 0.67 0.67 0.0 0 0 465.59 627.53
  L 466.48 629.70
  A 1.56 1.56 0.0 0 1 466.61 630.37
  Q 466.42 642.26 467.01 648.99
  Q 467.54 655.06 469.94 662.88
  A 7.04 6.57 36.7 0 1 470.22 664.42
  C 470.48 668.12 470.61 671.93 471.94 676.53
  Q 472.73 679.27 472.44 682.05
  C 472.29 683.48 471.59 684.57 471.41 685.78
  A 2.60 2.52 39.3 0 0 471.56 687.09
  Q 472.74 690.08 472.72 690.75
  Q 472.57 696.05 472.69 701.77
  C 472.74 704.31 473.52 706.45 473.94 708.47
  A 14.09 14.03 -51.5 0 1 474.24 711.16
  C 474.38 722.03 473.80 726.66 476.10 732.72
  Q 476.55 733.91 476.23 740.97
  A 2.11 2.06 63.9 0 1 475.89 742.01
  L 474.63 743.97
  A 2.87 2.83 59.8 0 0 474.18 745.73
  L 474.64 752.07
  A 4.50 4.46 29.2 0 0 475.14 753.81
  C 477.31 757.92 476.34 764.59 476.09 773.52
  A 0.87 0.83 -27.4 0 1 475.93 773.98
  L 474.46 776.08
  A 1.52 1.51 40.0 0 0 474.63 778.02
  Q 478.64 782.02 480.17 783.49
  C 482.27 785.50 482.44 786.81 482.38 789.51
  C 482.29 793.35 482.48 794.46 480.67 797.47
  Q 479.46 799.48 478.89 801.88
  C 478.52 803.47 479.36 805.03 479.49 806.24
  A 2.93 2.87 -36.9 0 1 479.27 807.69
  Q 478.00 810.67 479.16 814.31
  Q 480.08 817.19 480.30 819.50
  A 3.78 3.77 -39.4 0 1 480.15 821.01
  L 478.70 825.64
  A 1.30 1.29 54.1 0 0 478.64 826.03
  L 478.64 845.23
  A 5.99 5.98 -31.1 0 1 477.95 848.02
  C 476.15 851.44 475.77 854.14 471.75 854.31
  Q 467.57 854.50 464.81 854.13
  A 3.39 3.31 -22.2 0 1 463.31 853.52
  C 460.12 851.17 459.11 848.96 457.27 844.82
  A 2.78 2.73 32.6 0 1 457.04 843.82
  Q 456.96 841.40 457.23 836.89
  C 457.38 834.36 460.31 832.81 458.10 830.00
  C 455.64 826.89 457.75 824.29 459.99 821.57
  A 1.04 1.03 -32.2 0 0 460.20 820.67
  L 459.25 816.72
  A 1.26 1.12 -55.7 0 1 459.21 816.41
  L 458.91 803.43
  A 5.45 5.40 -65.4 0 0 457.72 800.18
  L 454.89 796.68
  A 3.00 2.93 -76.7 0 1 454.44 795.93
  Q 452.75 791.96 453.38 788.75
  Q 454.21 784.49 453.60 782.12
  C 453.17 780.46 453.70 779.23 454.64 777.76
  A 2.01 2.00 55.5 0 0 454.91 776.29
  L 454.51 774.43
  A 2.95 2.85 -48.8 0 1 454.47 773.60
  Q 455.45 763.54 454.80 760.73
  Q 452.68 751.62 453.21 741.92
  C 453.37 738.94 452.90 736.76 454.80 734.03
  A 1.63 1.62 -42.4 0 0 454.88 732.28
  C 453.94 730.61 453.20 729.56 453.21 727.75
  Q 453.24 724.09 451.94 721.95
  A 1.06 1.03 43.0 0 1 451.89 720.98
  L 453.15 718.26
  A 2.90 2.89 56.2 0 0 453.42 716.87
  L 452.98 707.32
  A 4.17 4.05 30.8 0 0 452.52 705.61
  L 449.42 699.64
  A 1.79 1.78 47.7 0 1 449.50 697.85
  C 450.74 695.93 451.18 694.69 451.13 692.37
  Q 451.01 687.31 450.94 671.67
  A 1.28 1.10 40.8 0 0 450.89 671.33
  L 449.57 666.80
  A 6.98 6.97 36.5 0 1 449.28 664.88
  Q 449.21 659.98 448.17 656.41
  C 447.30 653.39 448.75 651.11 447.59 648.09
  A 3.82 3.80 35.7 0 1 447.34 646.58
  Q 447.45 643.76 447.15 640.05
  A 1.96 1.95 2.7 0 0 445.53 638.28
  C 441.50 637.57 440.63 643.73 440.39 646.79
  C 440.04 651.45 436.49 655.45 433.44 658.97
  A 5.10 4.85 81.5 0 0 432.83 659.84
  Q 430.25 664.33 426.68 669.93
  Q 424.20 673.83 423.72 677.72
  A 4.88 4.87 -10.9 0 1 421.25 681.37
  Q 418.22 683.04 418.09 683.12
  A 3.64 3.49 69.4 0 0 416.53 686.77
  C 417.03 689.69 413.06 694.48 411.00 697.27
  A 2.14 2.11 68.0 0 0 410.61 698.21
  L 410.34 700.26
  A 1.96 1.65 66.6 0 1 410.20 700.73
  L 406.10 709.45
  A 0.97 0.81 84.8 0 1 405.92 709.71
  L 401.93 713.91
  A 3.47 3.46 -8.9 0 0 401.36 714.69
  Q 399.02 719.01 398.80 719.86
  Q 397.40 725.24 395.58 728.59
  A 9.95 9.92 63.1 0 0 394.46 732.04
  Q 393.96 735.95 392.87 737.59
  C 388.10 744.81 385.04 748.68 384.05 756.25
  A 0.73 0.71 -17.5 0 1 383.79 756.73
  L 381.69 758.52
  A 2.53 2.49 78.2 0 0 380.88 759.78
  C 379.68 764.15 377.22 768.02 376.32 772.57
  Q 375.59 776.22 373.16 778.99
  A 2.47 2.43 69.9 0 0 372.58 780.27
  L 372.25 782.71
  A 1.31 1.30 68.4 0 1 371.99 783.32
  L 369.00 787.31
  A 3.05 2.64 77.7 0 0 368.64 787.97
  L 364.71 798.26
  A 2.00 1.89 -32.2 0 0 364.60 798.69
  L 364.10 802.35
  A 0.12 0.06 73.2 0 1 364.09 802.40
  L 360.80 811.93
  A 3.74 3.70 58.7 0 0 360.62 812.69
  Q 360.20 815.96 359.83 817.10
  C 358.31 821.72 357.42 826.50 355.51 833.62
  A 2.68 2.66 -21.5 0 1 355.15 834.44
  L 353.21 837.43
  A 0.88 0.80 66.4 0 0 353.08 837.81
  L 351.69 850.70
  A 2.34 2.23 59.5 0 1 351.56 851.26
  Q 350.37 854.64 350.35 857.17
  A 1.44 1.43 -85.6 0 0 351.56 858.59
  Q 355.22 859.16 358.33 861.37
  C 360.79 863.11 364.07 863.02 366.31 863.69
  A 10.44 10.09 -18.8 0 1 369.01 864.96
  Q 373.03 867.65 373.62 867.92
  Q 375.54 868.80 381.77 869.20
  Q 383.01 869.27 388.92 871.88
  Q 390.16 872.43 393.59 871.47
  A 2.75 2.68 42.0 0 1 394.87 871.42
  C 397.66 871.96 400.12 873.87 403.24 875.91
  A 5.30 5.05 67.8 0 0 404.69 876.56
  Q 412.31 878.65 414.35 878.82
  C 417.43 879.08 419.99 880.82 423.52 881.14
  A 8.52 8.37 -31.1 0 1 425.91 881.71
  C 428.52 882.77 434.96 885.59 437.73 884.45
  Q 440.14 883.47 440.22 883.45
  A 2.01 1.97 -41.1 0 1 441.22 883.51
  Q 443.75 884.33 447.51 884.88
  C 449.69 885.21 452.57 887.08 454.26 886.79
  C 458.76 886.03 462.48 887.40 466.42 888.39
  A 7.55 7.41 -36.1 0 0 468.05 888.63
  L 489.91 889.38
  A 8.63 8.32 -34.4 0 1 492.11 889.75
  C 494.03 890.34 497.22 892.27 500.60 891.18
  C 503.03 890.39 504.15 890.74 506.13 891.58
  A 3.04 3.04 0.0 0 0 507.96 891.74
  Q 510.24 891.25 511.01 891.50
  C 515.67 893.04 522.73 893.96 527.62 891.73
  C 530.07 890.62 532.51 890.75 535.20 892.12
  Q 537.96 893.54 538.81 893.54
  Q 544.41 893.60 548.23 891.29
  A 2.28 2.18 -60.3 0 1 549.30 890.97
  L 553.88 890.83
  A 1.89 1.81 -34.2 0 1 554.59 890.95
  C 558.27 892.40 559.84 891.67 563.05 890.92
  C 566.49 890.11 567.79 894.14 571.65 892.64
  Q 572.33 892.37 575.93 890.21
  Q 577.51 889.27 581.52 889.20
  Q 595.37 888.98 603.69 888.82
  A 18.60 18.45 37.1 0 0 607.92 888.25
  L 619.62 885.25
  A 3.66 3.54 -53.1 0 1 620.37 885.13
  Q 625.90 884.87 628.31 884.07
  Q 636.34 881.38 646.07 879.17
  A 1.44 0.98 -16.0 0 1 646.27 879.14
  L 657.64 878.31
  A 7.70 7.61 25.7 0 0 661.35 877.03
  Q 666.34 873.68 673.51 872.63
  C 674.84 872.44 676.43 872.82 677.45 872.50
  A 1.60 1.50 6.4 0 0 678.25 871.90
  Q 680.41 868.76 682.42 868.11
  C 687.32 866.55 694.56 865.07 695.86 860.09
  A 2.95 2.94 -46.1 0 0 695.83 858.46
  L 694.53 854.18
  A 1.62 1.53 -50.9 0 1 694.48 853.50
  L 694.91 850.33
  A 1.01 0.98 -69.3 0 0 694.50 849.38
  Q 687.73 844.65 688.82 838.25
  C 689.20 836.00 688.45 834.01 686.49 832.98
  Q 682.64 830.94 681.81 826.51
  Q 681.40 824.28 683.22 820.73
  Q 684.60 818.03 686.84 810.90
  A 6.61 6.37 55.7 0 0 687.14 809.15
  Q 687.28 804.49 687.99 801.44
  C 688.68 798.43 688.37 792.60 689.37 790.64
  Q 691.09 787.27 691.85 785.77
  A 6.30 6.28 64.0 0 0 692.45 784.02
  Q 693.13 780.21 693.76 773.51
  Q 694.07 770.28 694.84 768.85
  Q 697.05 764.78 697.03 763.25
  Q 696.98 760.21 697.57 757.47
  A 2.02 2.02 0.0 0 1 698.05 756.52
  Q 699.13 755.31 699.94 754.63
  A 2.48 2.27 53.0 0 0 700.24 751.47
  C 698.69 749.20 699.55 747.23 700.72 745.04
  A 4.45 4.43 51.4 0 0 701.08 741.75
  C 700.42 739.36 699.48 737.26 699.36 734.67
  Q 699.17 730.59 698.26 727.85
  A 1.75 1.74 -43.5 0 1 698.30 726.60
  C 699.23 724.37 699.63 719.88 698.40 717.36
  Q 697.69 715.91 697.49 715.09
  A 10.85 10.81 -54.3 0 1 697.23 713.49
  L 696.42 704.23
  A 1.38 1.36 -70.4 0 0 696.01 703.35
  L 694.60 701.93
  A 2.32 2.32 0.0 0 1 694.31 698.99
  C 696.26 696.11 695.00 692.72 693.87 689.53
  A 6.15 6.10 32.9 0 1 693.54 688.03
  Q 693.35 686.06 693.05 680.71
  C 692.84 676.94 691.46 672.67 690.13 669.13
  C 688.57 664.96 689.13 661.46 688.99 655.79
  A 2.88 2.88 0.0 0 0 688.90 655.16
  L 684.49 638.41
  A 3.79 3.39 -68.4 0 0 684.25 637.76
  C 681.94 632.98 680.61 630.43 681.65 624.95
  Q 681.84 623.95 680.94 621.51
  A 1.05 1.04 2.3 0 0 680.40 620.93
  L 677.48 619.58
  A 2.02 2.00 -0.3 0 1 676.53 618.65
  C 674.71 614.97 674.76 611.53 674.87 607.25
  A 2.74 2.70 35.2 0 0 674.67 606.13
  Q 673.29 602.69 671.44 599.76
  C 669.49 596.68 669.20 595.03 669.07 590.75
  Q 668.99 588.24 666.91 582.59
  C 665.24 578.03 660.88 573.47 658.23 569.58
  C 656.88 567.61 657.59 564.61 656.92 562.44
  Q 655.44 557.71 654.47 552.92
  A 3.61 3.58 -70.8 0 0 653.72 551.35
  Q 649.84 546.63 647.68 539.45
  C 647.05 537.35 647.36 535.75 647.08 534.17
  A 4.18 4.17 9.2 0 0 644.95 531.22
  L 640.81 529.00
  A 2.91 2.90 -82.8 0 1 639.38 527.15
  Q 637.49 519.53 636.97 516.90
  C 636.58 514.97 635.34 511.85 634.49 510.50
  Q 630.25 503.81 626.43 495.80
  C 624.79 492.38 620.91 488.94 618.99 486.78
  A 4.29 4.14 15.1 0 1 618.14 485.36
  L 616.66 481.15
  A 4.86 4.68 18.6 0 0 616.01 479.90
  Q 611.00 472.91 610.31 472.21
  Q 606.92 468.79 606.30 467.43
  Q 605.14 464.88 603.96 462.36
  A 10.44 10.03 -78.5 0 0 602.53 460.10
  C 598.88 455.71 597.62 453.80 593.59 449.73
  Q 590.36 446.46 588.01 442.63
  A 7.87 7.72 8.2 0 0 586.98 441.28
  C 584.82 439.03 582.34 437.69 580.19 434.94
  C 577.40 431.37 573.60 429.83 570.91 426.54
  Q 568.51 423.61 563.36 420.27
  A 4.30 4.28 3.7 0 1 561.84 418.55
  C 560.92 416.64 560.90 414.98 558.94 413.72
  Q 550.62 408.34 540.92 401.16
  Q 536.91 398.19 535.87 396.67
  A 1.64 1.46 88.9 0 0 535.51 396.28
  L 526.38 389.41
  A 0.64 0.54 68.2 0 0 526.21 389.32
  L 519.76 387.20
  A 0.92 0.72 65.8 0 1 519.53 387.08
  L 504.60 377.17
  A 0.88 0.65 -8.3 0 0 504.47 377.10
  Q 498.63 374.30 495.60 371.56
  C 492.38 368.65 488.65 367.37 485.47 364.24
  A 5.23 5.15 -11.3 0 0 483.76 363.12
  Q 482.50 362.61 473.66 357.73
  Q 469.65 355.51 464.86 351.74
  Q 456.79 345.38 448.07 341.28
  A 10.85 10.79 -14.2 0 1 446.40 340.29
  Q 439.85 335.48 431.96 331.38
  A 7.32 7.07 -9.1 0 1 430.41 330.30
  C 426.32 326.59 421.01 322.19 415.48 321.84
  A 2.77 2.72 63.9 0 1 414.09 321.35
  C 411.15 319.29 409.38 317.53 405.56 315.74
  A 4.49 4.45 80.1 0 1 404.28 314.83
  C 400.78 311.23 398.04 309.55 392.55 305.85
  Q 389.79 303.98 387.08 301.47
  C 383.68 298.32 379.26 297.54 375.81 295.16
  Q 372.92 293.17 366.98 289.94
  Q 366.30 289.57 364.31 286.24
  A 1.99 1.94 -0.8 0 0 363.54 285.51
  Q 355.13 281.04 349.13 279.34
  A 2.81 2.80 79.6 0 1 347.68 278.34
  L 343.90 273.29
  A 3.65 3.56 -3.9 0 0 342.64 272.22
  Q 337.51 269.53 330.84 266.98
  Q 329.03 266.29 323.87 261.28
  A 7.39 7.36 -7.7 0 0 322.46 260.21
  Q 313.93 255.19 307.37 249.80
  A 9.66 9.56 -12.2 0 0 305.44 248.57
  L 301.17 246.52
  A 1.55 1.45 -6.5 0 1 300.75 246.21
  Q 296.29 241.37 289.82 237.93
  Q 279.10 232.23 273.88 229.62
  Q 271.21 228.29 270.72 227.78
  Q 267.18 224.07 264.79 223.25
  Q 260.58 221.80 256.66 218.89
  C 252.75 215.99 249.60 213.97 245.43 212.55
  C 242.60 211.58 240.94 214.74 240.48 217.08
  C 239.46 222.31 236.15 224.90 231.95 227.81
  A 2.65 2.57 -5.5 0 0 231.05 228.87
  L 229.38 232.47
  A 5.92 5.78 78.7 0 1 228.49 233.84
  Q 219.50 244.03 217.39 246.91
  Q 216.63 247.95 215.18 251.34
  A 2.87 2.55 78.4 0 1 214.92 251.79
  L 208.52 260.92
  A 1.74 1.68 -85.7 0 1 207.98 261.40
  Q 203.31 264.11 202.05 266.08
  Q 198.93 270.97 194.73 276.82
  A 7.10 6.67 -4.5 0 1 193.64 278.02
  Q 189.08 281.99 188.33 283.09
  Q 187.00 285.05 183.76 291.53
  C 181.93 295.19 179.84 297.51 178.20 300.28
  C 175.97 304.02 173.16 306.65 169.55 310.73
  C 167.02 313.58 163.69 315.72 161.22 318.86
  A 7.04 6.82 -15.5 0 0 160.28 320.46
  Q 158.08 325.78 153.46 330.09
  A 2.53 2.44 -10.2 0 0 152.91 330.85
  L 151.31 334.30
  A 3.34 3.21 -9.6 0 1 150.53 335.35
  Q 145.32 340.02 141.32 345.08
  Q 140.67 345.90 138.57 350.91
  A 1.10 1.01 -15.9 0 1 138.41 351.17
  L 133.90 356.39
  A 1.27 0.64 -26.6 0 0 133.78 356.55
  Q 131.35 360.65 127.47 364.47
  A 9.27 8.92 -7.0 0 0 126.13 366.12
  Q 122.41 371.92 118.75 377.01
  Q 115.99 380.87 115.44 384.71
  A 1.14 1.13 -62.2 0 0 115.72 385.62
  C 119.16 389.45 125.77 391.46 130.65 393.00
  A 2.48 2.48 0.0 0 1 132.19 394.39
  C 134.41 399.59 138.80 400.19 143.66 401.64
  A 1.75 1.74 78.3 0 1 144.51 402.20
  Q 147.29 405.47 150.11 406.68
  Q 158.54 410.31 167.43 415.64
  A 4.41 4.40 85.2 0 1 168.55 416.59
  L 170.21 418.54
  A 2.43 2.36 81.6 0 0 171.02 419.16
  Q 178.19 422.60 184.22 423.94
  A 2.35 2.29 -17.4 0 1 185.21 424.44
  C 186.33 425.42 187.25 426.67 188.67 427.73
  C 197.08 434.01 204.32 439.45 213.16 443.20
  Q 216.39 444.58 217.59 445.68
  C 219.95 447.84 223.11 450.82 226.27 452.16
  C 230.18 453.81 232.65 455.94 236.63 457.36
  A 4.91 4.89 -14.4 0 1 238.26 458.32
  Q 243.76 463.26 250.26 465.34
  Q 251.96 465.89 253.37 467.10
  C 257.42 470.56 261.31 472.10 265.00 473.85
  A 11.68 11.35 76.2 0 1 267.35 475.32
  Q 274.58 481.15 279.85 484.16
  Q 281.23 484.96 285.41 486.23
  A 1.58 1.37 65.1 0 1 285.83 486.42
  L 306.09 499.53
  A 6.79 6.27 -16.3 0 0 307.44 500.20
  Q 311.60 501.71 314.89 504.52
  A 7.55 7.38 77.9 0 0 316.41 505.53
  C 320.61 507.65 323.61 509.54 327.66 511.04
  C 333.58 513.23 336.78 515.83 342.10 520.14
  Q 343.98 521.67 351.67 526.05
  C 353.17 526.90 355.14 527.14 356.79 527.66
  A 7.58 7.56 -16.4 0 1 359.42 529.09
  L 364.92 533.68
  A 2.20 2.13 75.8 0 0 365.42 533.99
  L 369.42 535.85
  A 7.62 7.55 77.0 0 1 371.05 536.88
  Q 376.14 541.06 377.92 541.87
  Q 383.51 544.44 387.11 546.78
  A 8.22 7.17 79.2 0 1 388.26 547.68
  Q 392.88 552.00 394.75 552.68
  Q 399.56 554.41 400.98 555.97
  Q 405.21 560.59 409.01 561.92
  Q 412.63 563.19 414.83 564.66
  C 418.74 567.26 423.49 569.29 426.65 570.90
  C 429.70 572.45 432.46 573.01 435.98 573.71
  A 2.34 2.32 -5.8 0 1 437.68 575.09
  C 438.87 577.96 440.70 579.92 440.57 583.00
  C 440.31 589.30 444.30 588.36 448.43 589.19
  A 3.58 3.58 0.0 0 1 450.28 590.20
  C 453.69 593.65 457.58 596.79 463.60 599.89
  Q 468.26 602.29 473.76 607.12
  A 10.84 10.40 79.2 0 0 475.59 608.42
  Q 480.79 611.36 483.00 614.60
  Q 483.84 615.84 485.71 621.74
  A 0.61 0.59 -32.4 0 1 485.56 622.36
  L 477.54 630.38
  A 0.74 0.73 38.3 0 1 476.63 630.48
  Q 473.36 628.42 469.63 628.17
  A 3.50 3.48 63.2 0 1 467.97 627.62
  L 466.57 626.71
  Z
  M 168.26 221.46
  C 166.40 222.78 165.13 227.45 164.75 228.26
  A 5.94 5.64 77.2 0 1 164.18 229.22
  L 157.37 238.43
  A 2.11 2.04 -85.1 0 1 156.68 239.03
  L 152.38 241.34
  A 1.69 1.67 8.6 0 0 152.05 241.58
  Q 147.99 245.39 152.44 248.79
  Q 157.63 252.75 160.63 253.31
  A 2.86 2.77 66.9 0 1 161.77 253.79
  L 174.27 262.56
  A 3.18 3.17 -40.1 0 0 177.45 262.83
  C 179.40 261.92 183.28 258.57 183.28 256.23
  Q 183.29 254.34 183.05 252.87
  A 2.19 2.19 0.0 0 1 183.56 251.09
  Q 185.91 248.36 187.74 247.56
  Q 192.56 245.43 195.37 241.47
  A 1.65 1.65 0.0 0 0 194.49 238.93
  C 192.48 238.34 190.75 237.52 189.26 235.83
  C 185.72 231.78 183.58 229.39 178.18 226.91
  A 12.20 11.81 75.2 0 1 175.94 225.56
  L 170.63 221.51
  A 2.00 1.99 46.1 0 0 168.26 221.46
  Z
  M 747.95 597.59
  L 751.58 596.64
  A 1.82 1.82 0.0 0 0 752.93 594.77
  C 752.70 590.76 754.47 588.30 756.93 583.53
  Q 758.44 580.59 760.44 578.22
  C 762.80 575.43 763.39 571.61 766.21 568.86
  Q 769.80 565.35 771.49 562.93
  A 6.75 6.21 -18.2 0 0 772.10 561.84
  L 774.62 556.09
  A 0.84 0.69 -20.7 0 1 774.73 555.90
  L 779.92 549.27
  A 1.01 0.73 80.8 0 0 780.06 548.99
  Q 781.34 544.66 782.71 542.30
  C 784.96 538.42 785.74 535.46 788.20 531.78
  C 789.24 530.23 789.47 528.73 789.32 526.53
  C 789.01 522.04 793.68 518.85 797.51 517.77
  A 2.17 2.17 0.0 0 0 799.10 515.63
  C 799.03 513.05 798.61 509.69 801.27 507.50
  C 804.59 504.77 806.72 503.71 807.33 499.57
  Q 807.38 499.20 809.74 492.54
  A 7.26 7.25 76.3 0 1 811.25 490.05
  C 816.50 484.41 820.40 475.50 823.61 470.87
  Q 833.75 456.26 848.62 433.65
  Q 852.74 427.39 856.72 420.13
  C 859.51 415.04 862.58 412.20 866.28 408.54
  C 869.79 405.06 870.15 400.36 872.42 396.93
  Q 873.46 395.34 878.21 390.78
  A 2.71 2.11 -85.8 0 0 878.49 390.47
  L 884.80 382.53
  A 1.40 1.40 0.0 0 0 884.65 380.63
  L 879.15 375.57
  A 3.30 3.11 -13.0 0 0 877.99 374.89
  Q 875.10 373.94 857.37 363.64
  Q 856.21 362.96 852.51 361.75
  A 12.61 12.61 0.0 0 1 847.84 358.98
  L 845.27 356.58
  A 10.32 10.31 81.9 0 0 843.46 355.22
  Q 836.96 351.39 828.18 345.27
  C 824.81 342.93 821.31 341.50 818.71 338.91
  C 813.01 333.24 805.48 330.68 799.29 327.42
  C 796.18 325.79 792.66 326.16 790.33 322.43
  C 788.19 318.99 786.52 315.26 782.01 316.19
  A 2.37 2.34 54.4 0 1 780.37 315.91
  C 775.06 312.77 770.61 308.73 765.65 305.08
  Q 762.06 302.43 757.81 302.32
  A 3.81 3.78 68.5 0 1 755.19 301.17
  Q 749.70 295.53 742.32 290.21
  Q 739.76 288.37 736.89 287.80
  A 4.78 4.77 72.3 0 1 734.57 286.60
  C 731.33 283.52 727.16 279.14 722.98 279.15
  C 721.12 279.15 715.99 277.96 715.31 275.52
  C 714.68 273.26 713.83 272.23 711.56 271.28
  Q 706.68 269.23 701.52 266.17
  A 6.61 6.27 81.7 0 1 700.24 265.16
  L 696.51 261.44
  A 0.84 0.60 72.9 0 0 696.34 261.31
  L 690.36 258.06
  A 0.09 0.03 16.8 0 0 690.33 258.04
  C 686.35 254.29 681.30 252.49 676.82 250.36
  A 5.25 4.97 -10.3 0 1 675.67 249.61
  C 672.58 246.94 669.22 242.11 664.50 242.09
  A 1.85 1.84 88.8 0 0 662.64 244.03
  C 662.78 246.82 661.13 251.28 658.38 253.16
  Q 657.15 254.01 655.93 255.25
  A 2.97 2.97 0.0 0 0 655.38 256.04
  L 651.60 264.20
  A 2.24 2.10 82.9 0 1 651.12 264.86
  Q 648.32 267.44 648.36 271.09
  Q 648.39 273.14 647.18 274.72
  Q 642.21 281.21 638.93 286.88
  Q 635.82 292.27 636.61 298.02
  A 1.80 1.77 64.9 0 1 636.06 299.58
  Q 633.49 301.96 630.47 306.94
  A 8.34 8.23 83.3 0 1 629.21 308.56
  C 626.41 311.37 620.39 317.20 621.46 320.64
  C 621.80 321.74 622.07 322.61 621.32 323.97
  Q 620.15 326.11 619.21 328.82
  A 6.52 6.51 76.1 0 1 617.83 331.11
  Q 616.82 332.18 615.72 333.22
  Q 612.76 336.00 612.49 340.46
  Q 612.37 342.31 612.50 344.89
  A 5.27 5.22 -25.5 0 1 611.14 348.68
  L 606.19 354.12
  A 7.35 7.08 81.3 0 0 605.18 355.55
  Q 602.18 361.23 597.50 366.45
  A 2.40 2.37 -20.3 0 0 596.90 367.73
  L 596.32 372.02
  A 2.66 2.50 -30.7 0 1 596.13 372.68
  C 593.13 379.26 591.00 384.60 586.14 389.47
  A 5.61 5.56 68.8 0 0 584.50 393.23
  L 584.36 397.26
  A 5.04 5.03 -31.2 0 1 583.87 399.24
  Q 583.35 400.33 582.91 401.02
  C 581.26 403.62 582.11 407.65 584.05 409.52
  Q 594.58 419.69 595.95 422.04
  Q 596.22 422.50 599.41 424.12
  C 603.26 426.08 607.08 430.23 609.37 433.16
  A 10.00 9.92 13.8 0 1 610.62 435.21
  L 613.64 441.87
  A 2.60 2.27 -78.0 0 0 613.88 442.30
  Q 615.98 445.40 619.89 447.92
  A 7.72 7.62 -89.6 0 1 622.25 450.34
  Q 625.29 455.30 629.66 458.19
  A 4.52 4.45 8.2 0 1 631.45 460.54
  C 633.31 466.31 637.22 472.33 640.84 476.47
  C 643.18 479.15 644.35 483.06 646.75 485.82
  A 5.32 5.20 -76.9 0 1 647.66 487.32
  C 648.67 489.92 649.24 493.06 650.33 495.85
  C 653.23 503.32 657.54 511.86 663.96 517.42
  A 6.78 6.77 11.4 0 1 665.92 520.37
  L 669.59 531.47
  A 2.45 2.03 25.6 0 0 669.77 531.86
  L 673.05 537.48
  A 6.88 6.78 -68.1 0 1 673.76 539.18
  L 675.13 544.37
  A 3.26 3.14 -67.1 0 0 675.38 545.02
  L 679.44 552.83
  A 5.80 5.65 25.8 0 1 679.94 554.21
  Q 682.08 563.45 686.97 572.00
  Q 687.99 573.79 688.64 574.45
  C 690.59 576.42 689.40 579.00 689.79 581.35
  Q 690.66 586.52 690.92 587.28
  Q 692.05 590.62 695.30 596.75
  A 8.36 8.08 23.0 0 1 695.89 598.14
  L 696.93 601.31
  A 4.44 4.14 -71.6 0 0 697.36 602.25
  Q 699.76 606.27 699.92 607.11
  C 701.03 612.81 702.50 615.74 705.49 621.30
  A 6.36 6.31 25.7 0 1 706.11 623.05
  C 706.58 625.55 706.38 627.36 707.16 630.32
  C 707.93 633.22 707.07 636.27 708.65 639.06
  C 709.65 640.81 710.23 642.04 710.15 644.08
  Q 709.94 649.69 710.93 654.14
  A 1.18 1.17 -82.9 0 0 711.54 654.93
  C 713.63 656.01 714.62 655.15 714.95 652.82
  Q 715.49 649.04 715.99 647.75
  Q 717.94 642.79 721.71 636.11
  C 723.09 633.67 724.12 630.58 724.96 628.97
  A 3.28 3.22 85.9 0 1 725.92 627.84
  Q 728.94 625.62 730.68 621.50
  C 731.71 619.06 732.83 617.07 734.73 615.97
  Q 737.59 614.29 738.53 613.32
  A 4.50 4.41 79.7 0 0 739.43 611.99
  Q 741.46 607.36 744.69 603.92
  A 2.37 2.26 80.5 0 0 745.07 603.36
  L 747.61 597.88
  A 0.55 0.52 3.3 0 1 747.95 597.59
  Z
  M 858.64 335.73
  Q 861.59 332.06 861.27 327.58
  A 4.19 4.11 -38.5 0 1 861.46 326.05
  L 863.25 320.61
  A 1.76 1.72 82.0 0 1 863.87 319.77
  Q 868.35 316.61 870.14 312.23
  A 2.40 2.39 -61.2 0 0 869.31 309.36
  L 840.53 289.16
  A 1.49 1.48 -45.2 0 0 838.83 289.17
  C 836.50 290.83 834.49 292.72 833.71 295.50
  Q 833.14 297.51 832.76 298.47
  A 2.83 2.79 -11.5 0 1 832.12 299.42
  C 827.32 303.99 825.63 307.52 822.88 313.54
  A 1.49 1.49 0.0 0 0 823.56 315.49
  L 832.61 320.09
  A 1.44 1.23 76.1 0 1 832.89 320.29
  Q 836.73 323.98 837.88 324.42
  Q 841.12 325.64 843.98 328.16
  C 848.48 332.12 852.77 334.60 857.97 335.95
  A 0.67 0.65 26.1 0 0 858.64 335.73
  Z
  M 940.94 392.78
  Q 940.53 393.00 940.59 393.75
  A 0.43 0.43 0.0 0 0 941.39 393.93
  L 941.63 393.52
  A 0.91 0.90 17.6 0 1 942.51 393.07
  C 944.36 393.27 949.23 393.11 950.81 391.45
  A 1.51 1.50 37.1 0 0 950.48 389.11
  C 946.89 387.00 941.97 385.07 938.72 382.35
  Q 934.40 378.74 934.06 378.33
  Q 929.88 373.20 926.61 364.82
  A 3.38 3.38 0.0 0 1 926.68 362.19
  C 928.61 357.96 931.31 352.38 931.33 347.48
  A 0.68 0.68 0.0 0 1 932.23 346.84
  C 935.83 348.10 939.61 344.13 940.96 341.20
  A 0.95 0.94 -76.9 0 1 941.83 340.65
  Q 942.10 340.65 943.81 341.35
  Q 943.96 341.41 944.17 341.40
  Q 944.52 341.37 944.56 341.36
  A 0.38 0.38 0.0 0 0 944.62 340.70
  Q 942.16 339.07 940.77 339.25
  A 0.39 0.37 -37.5 0 1 940.56 339.23
  L 934.33 337.03
  A 1.26 1.24 -48.2 0 0 933.37 337.09
  Q 931.59 338.00 930.00 338.14
  A 2.60 2.51 52.4 0 1 928.85 337.97
  Q 923.96 336.09 919.30 333.51
  Q 917.29 332.40 907.36 329.53
  C 905.16 328.90 903.16 329.58 900.84 328.62
  A 4.19 4.19 0.0 0 0 899.09 328.30
  L 897.90 328.35
  A 1.63 1.61 -36.6 0 1 897.26 328.26
  L 889.92 325.67
  A 1.16 0.75 57.0 0 1 889.74 325.59
  L 888.31 324.73
  A 1.50 1.49 -69.7 0 0 886.09 325.76
  Q 884.97 332.05 882.07 338.05
  Q 881.15 339.96 875.32 346.59
  A 0.51 0.50 40.8 0 0 875.38 347.32
  Q 877.81 349.32 880.99 352.27
  C 883.42 354.52 886.38 354.78 889.82 354.94
  A 4.26 4.16 -28.9 0 1 891.67 355.45
  C 895.84 357.74 897.28 358.01 898.95 361.86
  A 1.17 1.16 82.2 0 0 899.86 362.56
  L 903.10 363.00
  A 1.34 1.33 65.9 0 1 903.72 363.24
  C 906.83 365.52 906.61 370.54 907.95 372.70
  A 1.39 1.38 -52.9 0 1 908.10 373.81
  C 907.64 375.41 906.34 377.90 906.19 380.31
  Q 906.10 381.84 905.00 383.18
  A 1.14 1.14 0.0 0 0 906.51 384.86
  Q 908.21 383.75 910.26 383.50
  C 914.45 383.00 916.69 383.22 920.43 381.94
  Q 923.52 380.88 928.34 380.91
  A 3.25 3.24 69.5 0 1 930.75 382.01
  Q 934.32 386.04 939.10 389.33
  Q 940.53 390.31 941.15 392.24
  A 0.45 0.45 0.0 0 1 940.94 392.78
  Z
  M 987.24 373.76
  Q 987.15 373.16 986.33 371.91
  A 1.73 1.72 -2.3 0 0 985.74 371.37
  Q 982.79 369.81 978.27 367.08
  Q 976.32 365.90 967.22 364.04
  Q 966.28 363.84 960.50 364.65
  Q 959.67 364.76 958.30 363.85
  C 956.56 362.69 954.96 362.13 952.83 362.50
  A 1.61 1.42 -18.9 0 0 951.60 364.66
  Q 951.72 364.87 952.53 365.23
  Q 956.46 367.00 960.13 367.18
  A 3.02 2.98 -28.0 0 1 961.47 367.58
  C 962.52 368.19 963.52 369.31 964.82 369.78
  Q 970.43 371.81 973.19 372.99
  C 975.09 373.82 976.80 373.67 978.63 373.04
  C 981.33 372.11 983.90 374.54 986.52 374.59
  A 0.72 0.71 -4.3 0 0 987.24 373.76
  Z
  M 904.93 412.28
  C 905.30 412.08 907.52 412.52 908.54 412.25
  Q 916.90 410.04 923.01 407.96
  C 925.37 407.15 925.69 405.63 925.29 403.51
  A 1.00 1.00 0.0 0 0 924.61 402.74
  Q 921.38 401.71 920.48 401.85
  Q 915.40 402.65 911.49 406.49
  Q 907.41 410.49 905.05 410.82
  Q 904.78 410.85 904.51 411.22
  C 904.18 411.69 904.12 412.29 903.64 412.62
  C 901.25 414.24 900.49 417.33 898.52 418.91
  C 895.00 421.73 889.41 424.95 884.82 423.93
  Q 882.52 423.42 880.10 422.49
  A 0.93 0.93 0.0 0 0 878.86 423.16
  C 878.35 425.51 876.77 426.63 875.85 428.22
  Q 873.87 431.66 872.18 433.96
  C 870.06 436.88 869.96 440.12 867.34 442.54
  A 1.24 1.24 0.0 0 0 868.10 444.69
  C 874.30 445.12 877.23 445.93 882.89 449.15
  Q 892.13 454.41 904.61 458.68
  A 3.41 3.06 51.6 0 1 905.04 458.87
  L 916.54 465.09
  A 2.85 2.76 60.0 0 0 917.66 465.41
  Q 922.95 465.71 925.01 467.23
  Q 930.73 471.44 930.77 471.47
  A 4.65 4.57 71.4 0 0 932.44 472.32
  L 936.88 473.53
  A 6.38 6.38 0.0 0 1 940.07 475.56
  C 943.81 479.96 945.60 482.45 951.83 483.46
  A 2.03 2.03 0.0 0 1 953.43 484.86
  C 954.43 488.04 956.14 489.68 959.40 490.74
  Q 959.76 490.85 970.05 494.73
  C 974.27 496.33 975.44 500.67 977.97 503.05
  Q 980.13 505.08 981.95 502.94
  C 983.52 501.11 984.76 498.55 986.83 496.45
  Q 991.36 491.85 994.59 486.04
  A 8.38 7.95 81.7 0 1 995.57 484.65
  C 997.37 482.59 998.43 481.56 999.85 479.44
  Q 1002.28 475.83 1005.19 473.05
  A 5.84 5.49 -5.4 0 0 1005.94 472.20
  Q 1010.06 466.39 1013.71 462.23
  C 1016.37 459.20 1020.03 453.06 1019.03 449.41
  A 1.23 1.23 0.0 0 0 1016.93 448.91
  Q 1013.12 453.12 1007.06 459.78
  C 1004.14 462.99 1002.27 465.63 999.71 467.73
  C 997.15 469.82 995.41 472.79 993.00 474.54
  Q 991.68 475.50 991.07 476.23
  A 3.32 3.30 75.3 0 0 990.50 477.21
  C 989.57 479.68 987.08 484.16 984.46 484.56
  Q 982.28 484.90 976.49 484.02
  A 3.26 3.25 71.6 0 1 974.70 483.12
  L 969.66 478.08
  A 1.66 1.65 -52.3 0 1 969.41 476.08
  Q 971.43 472.63 971.40 468.91
  A 3.08 3.07 65.2 0 1 972.13 466.92
  Q 977.04 461.14 981.79 458.49
  A 5.61 5.58 -88.5 0 0 983.84 456.53
  L 987.23 451.08
  A 14.68 14.26 -9.0 0 1 988.70 449.12
  Q 991.72 445.73 996.11 440.77
  C 1000.34 435.98 1003.22 431.31 1007.76 427.82
  C 1012.86 423.91 1014.77 420.15 1019.53 413.52
  Q 1021.52 410.75 1018.98 408.77
  A 2.50 2.39 -43.1 0 0 1016.08 408.74
  Q 1012.17 411.44 1011.16 412.03
  C 1007.75 414.04 1006.55 416.74 1003.37 418.93
  Q 1002.00 419.88 999.97 421.89
  C 995.72 426.08 993.08 428.47 987.98 431.12
  A 1.45 1.45 0.0 0 0 987.37 431.73
  Q 985.23 435.83 983.66 436.67
  Q 978.93 439.19 978.29 439.80
  Q 977.13 440.91 970.22 445.99
  Q 961.64 452.31 961.38 452.50
  A 11.17 9.18 -47.0 0 0 960.22 453.57
  L 953.56 460.46
  A 0.79 0.79 0.0 0 1 952.52 460.55
  Q 950.48 459.07 947.43 458.42
  A 6.44 6.25 -22.2 0 1 945.49 457.64
  L 941.76 455.34
  A 3.48 3.42 85.7 0 1 940.95 454.63
  C 937.75 450.75 939.98 447.07 943.13 443.76
  Q 947.91 438.73 949.46 436.67
  A 9.44 9.15 0.1 0 1 951.58 434.62
  Q 957.38 430.58 961.37 425.95
  A 2.16 2.16 0.0 0 1 962.48 425.28
  L 967.12 424.20
  A 1.09 1.03 12.8 0 0 967.64 423.89
  Q 973.74 417.23 980.57 411.75
  C 983.06 409.75 984.19 408.31 986.74 405.53
  A 2.86 2.82 4.3 0 1 987.33 405.03
  L 992.52 401.67
  A 5.09 3.36 -64.3 0 0 993.03 401.29
  L 1006.70 389.68
  A 1.22 1.16 78.9 0 0 1007.07 389.10
  L 1008.41 384.36
  A 1.31 1.29 42.6 0 0 1008.37 383.53
  C 1007.06 380.26 1005.15 380.23 1002.54 379.82
  A 26.80 26.50 10.1 0 1 998.97 378.55
  L 990.22 374.72
  A 0.29 0.28 -84.1 0 0 989.83 375.04
  L 991.58 384.11
  A 1.48 1.40 -41.0 0 1 991.50 384.92
  Q 989.59 389.79 986.46 391.72
  Q 981.90 394.53 980.07 396.11
  Q 977.49 398.34 973.82 400.66
  Q 964.34 406.65 960.93 407.96
  Q 955.25 410.14 953.92 410.66
  A 5.08 5.06 6.0 0 0 951.17 412.88
  L 949.39 415.85
  A 3.23 3.22 -77.7 0 1 946.99 417.40
  Q 943.24 417.82 940.43 420.18
  Q 935.45 424.36 932.72 427.52
  A 0.67 0.67 0.0 0 1 931.78 427.60
  Q 929.86 425.98 928.30 426.80
  Q 922.16 430.03 915.31 430.89
  A 1.82 1.79 45.6 0 1 914.81 430.88
  L 908.80 429.72
  A 1.19 1.15 -18.0 0 1 908.21 429.43
  C 903.99 425.62 904.90 421.70 905.35 416.26
  Q 905.44 415.29 904.62 413.16
  A 0.71 0.70 64.7 0 1 904.93 412.28
  Z
  M 1002.52 565.83
  L 997.54 557.59
  A 0.94 0.49 27.5 0 0 997.47 557.49
  Q 995.58 555.22 991.86 551.84
  Q 990.36 550.49 989.85 548.75
  C 988.29 543.52 985.36 541.73 982.11 537.96
  Q 974.64 529.31 972.65 527.75
  Q 967.82 523.98 962.67 519.20
  A 5.02 4.97 -82.0 0 1 961.62 517.79
  L 960.12 514.72
  A 1.56 1.26 -85.9 0 0 960.01 514.55
  Q 958.31 512.51 956.63 511.88
  Q 952.48 510.33 949.49 507.77
  A 4.07 3.84 -8.0 0 0 948.91 507.36
  Q 936.71 500.28 935.19 499.50
  C 932.68 498.20 930.34 495.91 928.83 494.73
  C 926.79 493.14 925.39 492.63 922.97 492.05
  Q 920.72 491.51 919.28 489.85
  C 916.58 486.73 914.56 485.50 909.93 484.24
  Q 904.30 482.70 900.29 478.78
  Q 898.58 477.10 896.29 476.58
  Q 890.91 475.37 885.69 472.64
  A 1.36 1.31 58.9 0 0 885.12 472.49
  L 879.83 472.20
  A 5.41 5.40 71.2 0 1 876.00 470.31
  L 874.52 468.56
  A 1.07 1.06 60.3 0 0 873.37 468.24
  Q 871.91 468.75 871.54 469.11
  A 2.75 2.22 39.8 0 1 868.30 469.06
  Q 862.77 465.00 858.47 463.10
  A 0.94 0.94 0.0 0 0 857.55 463.20
  Q 845.41 472.04 840.55 485.34
  C 839.07 489.39 835.94 491.50 833.78 494.51
  A 5.69 5.67 70.7 0 0 832.93 496.28
  C 831.62 500.91 827.58 506.07 828.09 510.50
  Q 828.26 511.97 828.16 512.55
  A 1.19 1.17 -11.4 0 1 827.63 513.34
  C 822.13 516.79 818.35 521.09 816.42 527.29
  Q 815.47 530.34 814.76 531.05
  Q 811.68 534.16 810.54 537.44
  C 808.71 542.75 805.03 546.96 802.51 551.94
  Q 801.41 554.12 799.69 556.40
  A 4.55 4.48 -16.7 0 0 799.06 557.55
  L 797.59 561.53
  A 2.98 2.76 74.8 0 1 797.25 562.18
  C 795.25 565.00 793.79 566.78 792.76 569.72
  Q 790.97 574.84 789.66 577.77
  A 3.57 3.56 -85.2 0 1 787.31 579.76
  L 785.66 580.20
  A 1.02 1.00 -84.8 0 0 784.99 580.77
  Q 782.94 585.35 782.78 585.75
  C 782.12 587.37 782.36 589.10 781.99 590.55
  A 3.66 3.49 -21.0 0 1 781.41 591.77
  Q 776.90 597.79 771.17 605.15
  Q 770.48 606.04 769.63 609.14
  A 3.46 3.29 72.2 0 1 769.07 610.30
  C 766.48 613.76 764.07 615.18 761.19 616.95
  A 1.33 1.30 80.8 0 0 760.60 617.79
  Q 760.15 619.99 760.15 622.45
  C 760.15 624.46 758.00 627.09 755.84 628.56
  Q 752.95 630.52 751.06 633.30
  Q 744.66 642.68 742.54 646.26
  Q 740.40 649.86 740.14 651.94
  Q 739.69 655.55 738.91 656.42
  Q 735.02 660.73 731.56 666.97
  A 1.97 1.87 -27.6 0 0 731.32 667.67
  L 729.68 678.48
  A 0.19 0.15 -38.0 0 1 729.66 678.56
  L 725.21 688.03
  A 9.42 9.18 -12.7 0 1 723.80 690.20
  C 722.21 691.79 720.09 693.70 719.46 696.93
  A 2.12 2.10 42.4 0 0 719.51 697.94
  C 720.86 702.49 720.07 707.21 721.35 711.04
  Q 723.62 717.82 723.76 720.59
  A 1.86 1.81 56.1 0 1 723.61 721.41
  C 722.02 725.12 723.37 728.12 722.86 731.64
  Q 722.16 736.48 724.07 741.04
  A 3.81 3.66 -57.4 0 1 724.36 742.49
  L 724.36 756.24
  A 5.81 5.79 -35.7 0 1 724.05 758.11
  C 722.33 763.14 722.48 767.40 722.32 773.50
  Q 722.30 774.28 720.78 777.73
  A 5.82 5.75 60.6 0 0 720.30 779.49
  Q 720.07 781.48 720.18 784.94
  C 720.23 786.45 718.24 788.39 718.45 790.03
  C 718.80 792.81 721.44 794.47 722.21 797.07
  Q 724.16 803.71 724.24 804.06
  A 4.76 4.71 51.7 0 1 723.88 807.24
  C 723.04 808.95 722.48 810.25 722.46 812.36
  Q 722.42 816.55 721.99 818.76
  C 721.58 820.90 719.24 823.09 720.72 825.26
  C 722.94 828.50 722.71 831.21 721.24 835.06
  Q 720.08 838.08 720.15 839.28
  Q 720.57 846.18 719.08 851.31
  Q 718.48 853.38 718.38 855.26
  Q 718.21 858.42 717.69 859.25
  Q 716.07 861.81 718.14 864.81
  A 1.99 1.98 43.2 0 1 718.21 866.95
  Q 717.02 868.96 715.62 873.80
  Q 715.43 874.44 712.89 876.85
  A 2.67 2.65 13.0 0 1 711.97 877.42
  C 707.31 879.08 706.04 880.18 702.95 882.97
  A 2.83 2.82 21.8 0 1 701.26 883.69
  C 696.78 884.01 689.20 886.52 684.77 889.74
  C 681.18 892.35 677.28 892.05 673.35 893.75
  Q 670.65 894.92 666.69 897.12
  A 7.08 7.07 29.0 0 1 663.58 898.01
  L 654.27 898.48
  A 9.42 9.23 33.9 0 0 651.78 898.94
  C 648.57 900.01 645.19 900.46 642.18 901.54
  Q 632.52 904.97 630.82 905.83
  A 4.78 4.65 -56.2 0 1 628.42 906.34
  Q 623.70 906.11 619.64 907.57
  A 8.85 8.75 -55.2 0 1 616.84 908.09
  C 610.96 908.18 605.36 909.82 599.74 910.43
  A 10.81 10.65 -56.7 0 0 597.70 910.87
  C 592.67 912.49 587.24 912.33 581.09 912.41
  C 578.01 912.46 575.98 913.07 573.42 914.97
  A 2.88 2.80 46.9 0 1 569.87 914.80
  Q 568.59 913.68 566.85 913.36
  A 2.58 2.53 41.5 0 0 565.67 913.42
  L 563.29 914.12
  A 2.50 2.39 -52.0 0 1 562.60 914.22
  Q 554.21 914.21 553.80 914.17
  C 551.34 913.99 549.19 914.99 546.59 914.49
  C 544.53 914.10 542.60 914.73 541.02 914.82
  A 5.45 5.40 -39.8 0 1 539.52 914.69
  Q 537.18 914.14 530.55 914.29
  Q 528.74 914.33 525.74 915.50
  C 521.56 917.13 516.99 915.74 512.26 914.18
  A 1.70 1.68 45.3 0 0 511.20 914.17
  Q 509.83 914.61 508.20 915.42
  C 504.51 917.26 502.96 914.32 500.19 914.36
  Q 498.03 914.39 485.44 914.18
  C 482.79 914.14 479.61 913.51 477.03 913.97
  A 4.24 4.23 46.6 0 1 475.28 913.92
  Q 469.34 912.50 467.77 911.67
  Q 463.61 909.50 461.31 911.13
  A 1.19 1.18 -53.3 0 1 460.23 911.29
  Q 457.01 910.17 453.74 909.90
  A 7.42 7.42 0.0 0 1 452.04 909.56
  L 448.88 908.52
  A 2.29 2.11 53.1 0 0 448.23 908.40
  L 437.02 907.82
  A 0.90 0.87 -62.2 0 0 436.41 908.02
  L 435.16 909.09
  A 1.45 1.44 42.2 0 1 433.41 909.17
  L 430.43 907.07
  A 1.41 1.38 -23.9 0 0 429.81 906.84
  Q 425.74 906.40 421.85 904.87
  A 4.02 3.75 57.3 0 0 420.95 904.64
  L 415.44 903.89
  A 7.19 7.03 -30.7 0 1 414.00 903.54
  Q 408.40 901.60 405.25 901.30
  Q 404.59 901.24 402.09 902.05
  A 2.03 2.01 -41.1 0 1 400.65 901.96
  Q 397.43 900.50 392.69 899.84
  A 1.86 1.77 60.6 0 1 392.17 899.68
  L 382.28 895.02
  A 3.57 3.29 -25.5 0 0 381.28 894.71
  Q 378.65 894.31 373.34 894.35
  C 369.22 894.38 366.03 891.70 362.94 889.77
  A 6.75 6.69 -24.5 0 0 360.45 888.85
  Q 356.06 888.15 348.59 884.02
  Q 343.24 881.07 337.71 880.12
  C 334.78 879.61 332.18 877.41 329.29 878.10
  A 1.46 1.45 66.8 0 1 327.73 877.47
  Q 326.08 874.91 326.01 874.69
  Q 324.33 869.42 323.56 867.97
  A 1.12 1.11 43.5 0 1 323.53 867.02
  Q 324.23 865.43 325.90 862.59
  C 326.99 860.72 326.74 859.58 326.07 857.67
  A 2.02 2.01 -48.9 0 1 326.00 856.61
  Q 327.22 850.68 330.13 844.73
  Q 332.15 840.60 330.89 836.71
  A 1.64 1.64 0.0 0 0 328.05 836.19
  Q 325.96 838.79 324.72 841.79
  C 323.60 844.49 321.65 846.09 320.46 848.65
  C 318.71 852.43 317.25 854.12 314.96 857.71
  Q 313.68 859.72 313.01 861.54
  Q 311.58 865.43 311.49 865.55
  Q 310.30 867.21 310.13 869.47
  C 309.77 874.23 306.90 877.95 306.38 882.52
  Q 306.09 885.12 305.13 886.90
  C 304.01 888.98 304.02 890.83 303.03 893.37
  C 302.03 895.93 303.02 898.53 301.55 900.89
  Q 300.56 902.48 300.58 904.39
  Q 300.60 906.55 300.64 911.78
  A 5.16 5.11 32.5 0 0 301.12 913.90
  Q 302.71 917.34 302.48 921.40
  A 4.07 4.00 -51.9 0 0 302.63 922.75
  L 306.84 937.04
  A 2.21 1.79 40.9 0 1 306.90 937.32
  Q 307.60 943.11 310.24 946.63
  Q 314.49 952.29 315.16 955.43
  A 3.88 3.81 17.9 0 0 316.12 957.27
  L 322.24 963.76
  A 0.16 0.08 26.6 0 1 322.27 963.80
  Q 325.91 969.28 328.60 975.40
  Q 329.39 977.21 332.74 979.41
  A 4.80 4.76 89.1 0 1 334.08 980.72
  Q 340.01 989.40 348.87 995.62
  A 6.09 4.99 69.1 0 0 349.76 996.13
  Q 355.00 998.55 356.17 999.86
  Q 363.05 1007.55 371.59 1011.75
  Q 372.69 1012.29 376.93 1016.43
  A 6.07 5.01 -0.2 0 0 377.65 1017.02
  C 384.26 1021.65 393.50 1023.87 398.50 1028.96
  A 3.55 3.48 -5.0 0 0 399.12 1029.47
  Q 402.48 1031.67 403.38 1031.90
  Q 413.54 1034.44 425.02 1038.87
  C 428.82 1040.33 434.49 1041.58 437.43 1042.34
  Q 438.80 1042.70 441.58 1045.14
  A 3.68 3.52 -12.6 0 0 442.64 1045.78
  C 446.66 1047.36 452.66 1047.35 456.61 1047.30
  A 1.56 1.52 60.3 0 1 457.48 1047.55
  L 465.14 1052.50
  A 2.20 2.18 -41.7 0 0 467.34 1052.62
  C 471.81 1050.35 477.33 1050.59 482.45 1052.36
  Q 488.32 1054.39 489.94 1054.76
  A 5.16 5.13 -39.7 0 0 491.40 1054.89
  Q 494.31 1054.72 496.42 1055.84
  C 499.54 1057.50 504.53 1057.14 507.70 1056.67
  C 512.09 1056.02 515.26 1056.47 519.27 1055.13
  A 2.39 2.34 34.3 0 1 519.95 1055.01
  L 526.13 1054.90
  A 3.11 3.08 59.9 0 1 527.82 1055.36
  C 529.74 1056.53 531.94 1057.61 533.91 1056.34
  Q 536.94 1054.38 539.84 1054.96
  C 543.73 1055.73 546.50 1055.01 551.93 1054.70
  Q 553.95 1054.59 558.16 1052.37
  A 7.65 7.62 -61.2 0 1 561.07 1051.52
  Q 567.43 1050.96 570.49 1050.77
  C 574.42 1050.54 577.01 1048.81 580.58 1047.02
  A 3.01 2.99 43.9 0 1 583.17 1046.98
  L 585.37 1048.00
  A 1.83 1.82 -59.3 0 0 587.62 1047.42
  C 589.16 1045.31 590.47 1043.47 592.79 1043.06
  A 1.23 1.22 -31.9 0 1 593.75 1043.28
  Q 596.62 1045.41 600.97 1044.61
  A 0.71 0.55 18.5 0 0 601.17 1044.54
  L 605.52 1042.28
  A 8.56 8.45 -64.4 0 1 607.66 1041.51
  Q 613.34 1040.27 617.81 1037.51
  C 618.97 1036.79 620.12 1036.93 620.88 1038.00
  A 0.85 0.84 55.1 0 0 622.04 1038.21
  L 627.96 1034.17
  A 2.22 2.09 20.2 0 1 628.76 1033.83
  Q 633.32 1032.84 636.18 1031.85
  C 638.81 1030.95 641.09 1030.89 644.66 1030.58
  A 4.24 4.24 0.0 0 0 647.92 1028.54
  C 649.83 1025.31 652.77 1023.65 656.69 1022.88
  C 661.52 1021.93 666.16 1019.83 670.48 1016.68
  Q 674.12 1014.03 679.98 1010.94
  A 10.83 10.50 -77.3 0 0 681.75 1009.78
  Q 684.69 1007.40 688.47 1005.83
  A 2.38 2.38 0.0 0 0 688.92 1005.56
  L 693.83 1001.50
  A 7.19 7.02 9.6 0 1 694.97 1000.71
  L 704.66 995.32
  A 3.10 2.95 -60.5 0 1 705.91 994.94
  L 708.94 994.72
  A 1.38 1.37 -72.3 0 0 709.92 994.21
  Q 713.04 990.30 719.34 986.05
  C 720.80 985.07 722.59 984.58 723.92 984.10
  A 1.48 1.47 3.2 0 0 724.71 983.40
  C 726.22 980.43 729.90 975.87 733.34 973.68
  C 734.80 972.76 737.33 973.16 739.04 972.45
  A 1.63 1.55 7.0 0 0 739.70 971.96
  L 742.52 968.43
  A 1.44 1.26 0.0 0 1 742.92 968.08
  Q 750.81 963.45 755.58 956.24
  A 10.92 10.83 87.5 0 1 757.85 953.74
  L 770.14 943.84
  A 1.13 1.09 79.8 0 0 770.52 943.27
  Q 771.38 939.99 773.72 937.49
  C 777.00 933.99 781.90 928.67 786.38 925.15
  C 789.57 922.65 794.29 918.71 797.45 914.87
  Q 801.07 910.48 806.25 904.42
  Q 807.09 903.43 807.91 902.74
  C 810.04 900.93 811.32 898.58 813.16 895.35
  Q 813.86 894.13 817.01 889.81
  Q 821.84 883.20 823.36 876.32
  A 1.22 1.20 84.0 0 1 824.02 875.49
  Q 828.70 873.31 832.14 868.10
  A 3.82 3.82 0.0 0 0 832.76 866.19
  Q 832.91 862.74 834.00 860.80
  Q 837.97 853.73 843.69 846.70
  Q 844.99 845.10 845.55 842.28
  A 2.22 2.22 0.0 0 1 845.86 841.50
  L 847.80 838.50
  A 3.46 3.30 70.2 0 0 848.24 837.50
  Q 848.86 835.09 851.53 826.52
  Q 852.75 822.62 854.21 820.91
  Q 857.83 816.68 857.84 816.68
  A 2.33 2.29 75.4 0 0 858.81 815.00
  L 859.32 809.33
  A 2.99 2.96 -26.3 0 1 859.76 808.05
  Q 861.40 805.50 863.10 802.89
  Q 866.00 798.45 865.00 793.77
  A 2.72 2.72 0.0 0 1 866.11 790.98
  Q 869.00 788.96 870.16 786.23
  Q 872.02 781.83 873.83 773.59
  Q 874.21 771.84 877.43 767.10
  A 9.47 9.31 73.9 0 0 878.31 765.47
  Q 880.63 759.78 881.51 753.84
  A 5.84 5.83 -21.7 0 1 882.69 751.11
  Q 884.47 748.86 885.66 746.13
  C 886.66 743.84 888.05 742.83 890.25 741.92
  A 1.23 1.20 77.0 0 0 890.99 740.71
  C 890.66 736.18 890.55 731.90 892.90 727.04
  Q 895.74 721.18 896.77 713.22
  Q 897.23 709.69 898.30 708.52
  Q 900.22 706.44 902.71 706.03
  A 0.88 0.87 79.7 0 0 903.42 705.00
  L 902.56 700.57
  A 2.36 2.22 46.8 0 1 902.56 699.72
  C 903.33 695.69 904.62 694.85 906.26 692.33
  A 13.12 12.65 74.4 0 0 907.33 690.35
  L 911.40 680.93
  A 3.65 3.64 86.5 0 1 912.88 679.25
  Q 916.99 676.79 918.20 671.09
  A 2.38 2.18 48.8 0 0 918.22 670.19
  Q 917.91 668.28 918.43 666.84
  A 2.24 2.21 81.4 0 1 919.15 665.85
  Q 923.36 662.54 924.51 655.84
  A 4.97 4.95 72.9 0 1 925.97 653.07
  Q 929.90 649.32 933.90 642.74
  C 935.21 640.59 935.43 639.14 936.27 637.01
  A 4.11 4.03 75.4 0 1 936.86 635.98
  C 939.05 633.20 943.36 632.27 944.74 630.21
  Q 947.22 626.53 948.63 624.56
  A 7.87 7.72 -2.0 0 1 950.14 622.97
  Q 954.12 619.77 956.24 616.49
  Q 959.17 611.93 960.67 610.27
  C 962.47 608.26 963.28 606.47 964.93 603.34
  A 3.04 3.01 85.7 0 1 965.80 602.32
  Q 970.81 598.59 975.98 591.88
  A 6.57 6.43 76.4 0 0 976.78 590.54
  Q 978.58 586.64 979.84 585.35
  Q 984.84 580.26 986.59 578.10
  A 0.93 0.86 79.7 0 0 986.75 577.85
  L 989.07 572.85
  A 4.61 4.56 -3.7 0 1 990.84 570.86
  Q 996.16 567.58 1002.04 566.83
  A 0.67 0.66 70.8 0 0 1002.52 565.83
  Z
  M 1149.44 700.08
  C 1149.17 695.61 1146.30 690.52 1144.55 687.71
  C 1143.01 685.25 1136.41 682.57 1134.25 682.20
  A 5.78 5.70 -40.7 0 0 1133.08 682.12
  Q 1127.36 682.27 1119.76 682.23
  C 1116.78 682.21 1113.98 683.84 1111.29 684.08
  Q 1108.53 684.33 1106.48 685.24
  A 1.78 1.74 -52.1 0 1 1105.53 685.37
  L 1102.54 684.97
  A 1.70 1.67 34.2 0 0 1101.49 685.16
  C 1098.36 686.88 1097.11 687.60 1093.27 688.15
  C 1088.03 688.89 1083.37 692.95 1080.82 697.16
  A 3.02 3.01 -73.3 0 1 1078.12 698.62
  L 1069.71 698.28
  A 1.77 1.67 -32.5 0 1 1069.19 698.18
  C 1064.68 696.62 1059.84 694.90 1060.96 689.31
  Q 1061.99 684.19 1065.81 681.59
  Q 1067.54 680.41 1067.98 679.76
  C 1069.24 677.89 1070.30 675.43 1072.67 675.12
  Q 1075.38 674.78 1078.24 673.53
  A 2.14 1.88 11.9 0 0 1078.63 673.31
  L 1083.79 669.54
  A 6.18 6.10 -71.9 0 1 1085.46 668.68
  L 1097.50 664.54
  A 4.70 4.69 -52.1 0 1 1099.41 664.30
  C 1102.27 664.56 1103.55 664.91 1106.32 664.21
  Q 1109.21 663.47 1111.27 663.27
  A 1.58 1.57 -14.5 0 0 1112.56 661.09
  Q 1111.78 659.24 1110.19 658.82
  Q 1106.46 657.85 1101.02 656.40
  Q 1098.29 655.67 1090.72 656.71
  Q 1088.05 657.08 1073.77 661.15
  A 7.22 6.98 -66.8 0 0 1072.13 661.84
  Q 1065.04 665.93 1055.85 669.43
  A 1.86 1.85 -37.5 0 1 1054.08 669.20
  Q 1051.14 667.08 1046.82 665.75
  A 2.39 2.39 0.0 0 1 1045.13 663.55
  Q 1044.94 658.28 1045.05 655.25
  C 1045.24 650.41 1054.34 649.16 1057.52 647.53
  Q 1060.51 645.99 1066.64 644.44
  C 1069.26 643.79 1069.70 641.29 1067.43 639.65
  C 1061.95 635.69 1058.60 639.28 1053.15 640.11
  C 1049.30 640.70 1046.62 642.11 1042.57 643.22
  A 9.93 9.74 -66.6 0 0 1040.41 644.10
  L 1034.74 647.27
  A 1.29 1.29 0.0 0 0 1034.92 649.60
  C 1038.59 650.96 1040.45 653.08 1040.91 657.39
  Q 1041.41 661.95 1044.32 665.64
  A 2.02 1.97 22.8 0 1 1044.74 666.63
  Q 1044.98 668.66 1045.97 670.55
  A 0.98 0.96 49.4 0 1 1045.90 671.54
  Q 1044.46 673.57 1045.03 675.00
  Q 1046.27 678.09 1046.54 680.57
  C 1046.88 683.72 1048.03 685.60 1049.50 688.55
  A 9.12 8.92 26.5 0 1 1050.29 690.83
  Q 1050.54 692.08 1050.67 696.44
  C 1050.74 699.08 1051.62 701.45 1052.27 703.42
  A 4.10 4.01 -53.9 0 1 1052.47 704.80
  Q 1052.36 708.65 1054.31 715.45
  Q 1055.02 717.93 1055.32 723.24
  A 6.20 5.77 -57.0 0 0 1055.56 724.62
  C 1056.71 728.52 1056.48 730.97 1056.17 735.73
  A 14.85 13.77 45.7 0 0 1056.23 738.12
  Q 1057.11 746.02 1055.33 751.91
  Q 1054.19 755.68 1054.20 756.80
  Q 1054.21 759.57 1054.54 761.77
  A 1.12 1.12 0.0 0 0 1055.40 762.70
  L 1060.03 763.76
  A 2.27 2.18 -43.2 0 0 1060.94 763.77
  Q 1064.43 763.04 1065.21 763.31
  Q 1067.26 764.03 1068.80 764.27
  A 4.44 4.32 42.2 0 0 1070.46 764.21
  L 1073.60 763.47
  A 1.43 1.38 40.8 0 1 1074.15 763.44
  L 1086.81 765.17
  A 1.96 1.94 80.6 0 1 1088.29 766.24
  Q 1088.82 767.35 1089.52 767.97
  A 2.90 2.82 -13.1 0 0 1090.35 768.47
  C 1094.45 770.05 1100.05 771.90 1104.09 770.55
  A 2.13 2.10 -16.7 0 0 1105.49 768.00
  Q 1104.98 766.10 1102.77 765.15
  Q 1096.85 762.62 1091.14 758.45
  A 8.00 7.70 88.9 0 1 1089.45 756.76
  L 1085.81 751.76
  A 3.77 3.75 27.1 0 1 1085.09 749.55
  L 1085.09 742.76
  A 6.03 5.89 -57.2 0 0 1084.61 740.41
  C 1083.76 738.32 1082.46 735.69 1083.97 732.92
  Q 1085.51 730.12 1085.18 726.62
  C 1084.88 723.31 1087.68 720.79 1088.78 718.08
  C 1090.31 714.29 1093.33 709.49 1097.59 708.93
  Q 1101.86 708.37 1101.88 708.36
  A 3.49 3.39 -76.8 0 0 1103.27 707.47
  Q 1104.79 705.88 1111.49 699.49
  Q 1113.52 697.56 1115.82 697.34
  C 1120.36 696.91 1123.57 696.26 1127.97 694.41
  C 1136.80 690.70 1141.04 694.59 1146.80 699.94
  Q 1147.40 700.50 1148.86 700.63
  A 0.53 0.52 1.0 0 0 1149.44 700.08
  Z
  M 893.26 830.43
  A 1.05 1.05 0.0 0 0 895.18 829.69
  Q 894.90 827.97 895.36 826.65
  A 2.36 2.36 0.0 0 1 896.28 825.46
  L 904.12 820.20
  A 3.85 3.80 23.8 0 1 905.75 819.58
  Q 911.49 818.76 919.97 816.04
  C 924.28 814.66 928.47 814.75 932.49 812.35
  A 8.17 8.02 -67.0 0 1 934.52 811.51
  Q 942.88 809.36 946.36 808.57
  C 954.33 806.76 962.20 802.52 969.83 798.62
  C 971.53 797.76 973.13 795.84 974.70 795.30
  A 1.33 1.30 -40.4 0 1 975.72 795.37
  C 978.84 796.96 981.31 795.58 984.42 794.32
  Q 986.29 793.56 989.89 791.58
  A 2.96 2.71 21.0 0 1 990.55 791.32
  L 996.09 790.01
  A 3.14 3.11 19.7 0 0 997.27 789.46
  C 998.45 788.52 999.30 786.75 1000.65 786.14
  Q 1002.35 785.38 1004.54 785.13
  A 0.89 0.82 -57.0 0 0 1004.85 785.05
  L 1018.75 779.33
  A 2.93 2.85 -57.2 0 1 1019.66 779.12
  Q 1024.75 778.81 1026.04 778.82
  C 1031.81 778.87 1031.07 774.14 1030.02 770.27
  A 2.06 2.00 -46.3 0 1 1030.01 769.24
  Q 1030.73 766.42 1032.27 764.17
  Q 1033.11 762.95 1033.08 761.43
  C 1033.01 756.66 1033.84 753.54 1033.73 749.37
  Q 1033.68 747.31 1034.85 744.81
  A 2.59 2.48 58.4 0 0 1035.08 743.75
  L 1035.08 729.64
  A 1.42 1.19 -58.5 0 0 1035.02 729.24
  L 1033.81 725.72
  A 4.32 4.22 42.7 0 1 1033.69 723.36
  Q 1034.20 721.18 1034.35 718.81
  C 1034.54 715.79 1033.09 712.25 1033.04 709.24
  Q 1033.01 707.13 1032.01 704.37
  Q 1031.34 702.51 1030.89 698.20
  Q 1030.72 696.53 1028.51 692.41
  A 9.03 8.84 -66.2 0 1 1027.67 690.17
  Q 1025.94 682.62 1022.86 675.70
  C 1020.98 671.48 1020.18 666.89 1017.51 663.72
  Q 1016.00 661.93 1014.37 658.57
  Q 1012.07 653.82 1009.10 651.12
  A 6.69 6.68 -78.8 0 1 1007.34 648.49
  C 1006.24 645.44 1005.58 643.82 1001.95 641.57
  C 998.29 639.31 996.28 639.96 992.85 642.17
  Q 991.32 643.16 987.60 644.60
  Q 985.18 645.54 976.55 650.90
  A 11.52 11.42 -71.8 0 1 974.75 651.82
  Q 968.50 654.35 965.06 655.97
  C 962.01 657.41 958.17 658.03 955.94 658.41
  Q 954.67 658.63 951.44 661.14
  A 1.75 1.69 77.1 0 0 950.80 662.20
  L 950.31 664.78
  A 1.86 1.86 0.0 0 1 949.99 665.51
  L 943.15 674.96
  A 1.77 1.75 -22.3 0 0 942.84 675.69
  L 941.98 680.55
  A 4.79 4.77 -17.0 0 1 940.59 683.16
  C 937.06 686.58 935.02 690.74 932.83 694.69
  A 5.26 5.14 -10.7 0 1 932.13 695.69
  Q 928.40 699.84 927.30 702.80
  Q 926.46 705.08 924.05 715.43
  A 6.99 6.92 -24.4 0 1 923.34 717.29
  C 921.98 719.80 918.88 722.65 918.80 725.61
  Q 918.68 729.72 917.70 734.80
  A 3.25 3.12 68.2 0 1 917.24 735.94
  L 915.06 739.29
  A 3.28 3.05 -21.1 0 0 914.70 740.03
  Q 912.30 747.09 909.35 754.62
  Q 908.28 757.35 907.33 758.76
  A 1.20 1.06 -23.2 0 0 907.17 759.10
  L 903.83 770.93
  A 4.01 3.94 73.4 0 1 903.08 772.35
  L 899.55 776.57
  A 3.91 3.90 -26.1 0 0 898.66 779.16
  Q 898.90 787.39 894.68 794.22
  Q 891.88 798.74 890.90 800.90
  C 889.27 804.47 887.26 807.80 885.94 811.14
  C 885.17 813.10 883.51 814.58 882.97 816.52
  A 1.48 1.39 -47.5 0 0 882.98 817.38
  L 883.97 820.35
  A 1.02 1.02 0.0 0 1 883.92 821.09
  Q 883.08 822.86 882.46 825.22
  A 1.28 1.27 10.6 0 0 883.56 826.82
  C 887.52 827.23 890.93 826.81 893.26 830.43
  Z
  M 1150.61 720.88
  A 2.71 2.70 66.9 0 0 1151.39 718.93
  Q 1151.34 714.01 1151.43 707.62
  C 1151.46 705.61 1151.21 704.47 1148.99 704.43
  A 0.84 0.81 17.5 0 0 1148.29 704.78
  L 1143.91 711.02
  A 3.84 3.84 0.0 0 0 1143.40 714.39
  C 1144.51 717.87 1145.56 721.33 1150.07 721.00
  Q 1150.52 720.97 1150.61 720.88
  Z
  M 773.30 971.23
  Q 770.50 976.15 767.89 978.44
  Q 762.23 983.41 758.67 986.42
  Q 757.00 987.82 756.37 988.64
  Q 755.76 989.44 753.42 992.08
  A 1.18 1.00 -80.7 0 1 753.15 992.31
  L 743.88 997.98
  A 1.83 1.82 -3.6 0 0 743.18 998.77
  L 742.11 1001.07
  A 5.32 5.32 0.0 0 1 739.29 1003.76
  L 728.38 1008.26
  A 1.37 1.22 11.5 0 0 728.07 1008.44
  Q 724.43 1011.40 721.04 1013.54
  Q 719.09 1014.77 717.40 1016.41
  C 714.52 1019.21 713.77 1020.12 709.64 1020.40
  Q 707.67 1020.53 705.11 1022.88
  Q 701.87 1025.84 698.61 1028.81
  A 3.51 3.50 -75.7 0 1 697.35 1029.56
  C 692.50 1031.27 686.66 1033.10 682.60 1036.56
  A 1.32 1.31 -51.9 0 0 682.86 1038.74
  L 683.08 1038.85
  A 3.15 3.13 -49.3 0 0 686.30 1038.60
  Q 688.41 1037.13 689.77 1037.15
  Q 697.87 1037.23 700.86 1036.56
  Q 702.78 1036.13 712.44 1033.17
  Q 713.53 1032.83 719.25 1032.80
  Q 721.09 1032.79 727.08 1029.78
  Q 728.29 1029.17 732.88 1028.96
  A 8.16 7.98 34.4 0 0 734.87 1028.61
  Q 744.69 1025.52 753.04 1022.50
  C 757.43 1020.92 762.60 1018.21 766.27 1016.17
  A 6.00 5.87 25.7 0 1 768.19 1015.52
  Q 773.19 1014.78 775.85 1010.95
  A 4.37 4.37 0.0 0 1 779.91 1009.10
  Q 784.68 1009.62 789.30 1006.50
  C 792.49 1004.36 796.85 1001.22 801.53 998.48
  Q 806.82 995.39 809.63 993.11
  C 813.30 990.13 815.32 989.02 818.27 986.11
  Q 821.78 982.63 827.10 979.85
  A 2.64 2.62 82.4 0 0 828.45 978.07
  Q 829.09 975.07 830.42 972.90
  A 5.00 4.90 83.7 0 1 831.15 971.97
  C 834.54 968.54 837.65 965.85 839.84 962.41
  Q 841.91 959.16 843.44 956.78
  A 1.18 1.00 -9.3 0 1 843.67 956.51
  L 845.90 954.54
  A 2.90 2.90 0.0 0 0 846.25 954.19
  L 856.07 942.40
  A 3.49 3.40 -21.8 0 0 856.86 940.62
  L 857.86 933.34
  A 2.60 2.60 0.0 0 1 859.08 931.46
  Q 864.71 928.00 865.24 921.48
  A 2.87 2.83 60.1 0 1 865.50 920.49
  L 870.73 909.23
  A 4.23 4.06 -31.8 0 0 871.11 907.75
  L 871.31 904.70
  A 5.21 5.09 57.7 0 1 871.62 903.25
  Q 876.01 891.38 876.94 886.46
  Q 877.37 884.17 877.18 875.89
  Q 877.13 873.85 877.47 872.67
  C 878.18 870.17 877.32 868.32 877.83 865.65
  Q 877.98 864.88 878.13 861.60
  A 4.44 4.34 57.2 0 1 878.41 860.23
  L 878.95 858.81
  A 1.48 1.48 0.0 0 0 877.05 856.90
  L 869.04 859.88
  A 5.59 5.48 13.6 0 0 867.30 860.92
  C 861.59 865.98 858.47 870.30 852.93 877.94
  Q 851.15 880.40 849.94 885.87
  A 3.00 2.91 74.5 0 1 849.15 887.31
  L 845.08 891.38
  A 1.38 1.34 73.8 0 0 844.69 892.11
  C 844.38 893.79 844.40 896.27 842.60 897.75
  Q 841.46 898.68 840.96 899.37
  Q 837.20 904.58 836.23 905.52
  C 834.47 907.24 833.74 910.20 832.54 912.40
  Q 831.76 913.82 828.31 916.43
  Q 822.13 921.10 815.83 928.32
  C 814.29 930.10 813.77 931.51 812.43 934.05
  A 3.76 3.51 82.8 0 1 811.81 934.91
  Q 810.55 936.23 809.08 936.93
  A 1.27 1.26 -12.4 0 0 808.34 938.08
  Q 808.35 942.17 806.43 943.40
  Q 802.64 945.83 797.43 948.96
  A 4.17 4.03 1.0 0 0 796.20 950.11
  L 792.96 954.72
  A 2.57 2.30 -8.1 0 1 792.69 955.04
  Q 788.29 959.25 782.67 965.16
  C 780.20 967.76 777.75 970.64 774.31 970.65
  A 1.17 1.15 14.5 0 0 773.30 971.23
  Z"
/>
</svg>
