<?xml version="1.0" encoding="UTF-8" standalone="no"?>
<!DOCTYPE svg PUBLIC "-//W3C//DTD SVG 1.1//EN" "http://www.w3.org/Graphics/SVG/1.1/DTD/svg11.dtd">
<svg xmlns="http://www.w3.org/2000/svg" version="1.1" viewBox="0.00 0.00 1200.00 1200.00">
  <path fill="currentColor" d="
  M 174.38 398.83
  A 0.83 0.83 0.0 0 0 175.43 399.32
  Q 179.28 397.99 182.43 397.92
  C 185.44 397.85 187.93 399.04 190.54 396.62
  A 1.15 1.13 28.8 0 1 191.53 396.34
  L 195.15 397.06
  A 2.53 2.46 43.0 0 0 196.14 397.04
  C 200.09 396.16 203.89 394.67 207.20 397.75
  A 1.74 1.73 32.4 0 0 209.99 397.13
  L 212.07 391.95
  A 5.45 5.41 -39.6 0 0 212.37 388.93
  C 211.49 384.20 210.36 380.03 210.29 375.62
  Q 210.14 366.55 210.23 363.23
  A 1.03 1.02 85.1 0 1 211.05 362.25
  C 214.25 361.62 218.69 360.44 222.73 358.81
  Q 226.00 357.50 230.04 358.18
  C 232.17 358.55 233.57 360.75 236.17 359.62
  Q 239.48 358.18 240.86 358.11
  Q 247.49 357.77 258.69 358.29
  Q 259.38 358.32 261.95 359.44
  A 6.19 6.05 -32.2 0 0 264.28 359.94
  L 275.00 360.12
  A 4.69 4.45 -51.3 0 0 276.46 359.92
  Q 279.65 358.96 280.27 359.10
  Q 285.72 360.34 292.75 358.54
  C 296.55 357.56 299.19 362.27 303.86 359.14
  C 306.44 357.40 309.25 358.40 311.98 357.12
  A 5.82 5.78 34.7 0 1 314.97 356.59
  C 320.40 357.08 325.65 358.70 331.49 357.78
  A 1.57 1.56 -3.2 0 0 332.81 356.31
  C 333.04 350.79 331.37 348.54 328.22 344.37
  A 2.79 2.79 0.0 0 1 327.72 343.28
  L 326.80 338.93
  A 1.78 1.78 0.0 0 1 326.80 338.23
  L 328.53 329.36
  Q 328.54 329.33 328.55 329.30
  Q 329.93 326.39 330.14 323.43
  C 330.46 319.14 331.40 316.32 333.70 313.65
  Q 334.99 312.16 335.93 309.67
  Q 339.26 300.89 342.94 294.90
  Q 343.67 293.71 346.32 291.60
  A 4.10 4.06 -7.6 0 0 347.49 290.08
  C 348.64 287.46 349.94 283.33 353.07 282.49
  Q 356.20 281.65 357.88 277.62
  C 359.52 273.66 363.82 272.42 367.43 270.69
  Q 369.09 269.89 371.46 267.63
  Q 374.65 264.59 378.43 262.22
  Q 378.96 261.89 382.90 258.25
  A 7.80 7.56 7.2 0 1 384.02 257.41
  Q 388.04 254.99 389.81 253.50
  C 391.76 251.86 393.71 251.57 395.50 253.25
  Q 396.41 254.10 397.82 251.39
  A 1.52 1.51 6.4 0 1 398.77 250.64
  C 401.32 249.98 404.39 248.52 407.65 248.22
  C 411.68 247.84 414.34 244.87 418.02 244.26
  Q 420.59 243.83 425.31 242.45
  A 9.14 8.93 37.6 0 1 428.26 242.10
  Q 433.37 242.34 437.35 240.86
  A 6.46 6.30 -51.7 0 1 440.22 240.49
  Q 443.64 240.84 449.92 239.85
  C 451.36 239.62 452.28 238.65 453.57 238.33
  A 1.70 1.67 -34.0 0 1 454.96 238.59
  Q 456.85 239.94 459.39 240.32
  A 4.10 4.01 67.0 0 1 461.21 241.08
  Q 465.23 244.08 469.30 245.82
  C 472.50 247.18 475.74 250.23 476.49 253.26
  A 1.38 1.38 0.0 0 0 478.85 253.86
  Q 481.87 250.53 485.54 249.86
  A 4.47 4.41 -65.7 0 0 487.02 249.29
  L 501.48 240.56
  A 1.66 1.57 26.0 0 1 502.18 240.34
  L 509.24 239.94
  A 2.83 2.75 29.9 0 0 510.30 239.67
  C 515.66 237.17 521.56 237.11 526.40 233.26
  Q 527.64 232.27 528.96 232.28
  Q 532.54 232.29 535.66 231.12
  Q 539.12 229.81 540.95 229.77
  C 544.74 229.69 547.03 228.61 550.97 226.97
  A 6.85 6.65 -57.5 0 1 553.21 226.44
  Q 559.56 226.01 566.53 225.35
  Q 569.04 225.12 571.77 223.52
  Q 573.08 222.75 576.30 222.62
  Q 593.86 221.89 607.93 222.11
  A 10.36 10.35 -55.0 0 0 611.78 221.43
  Q 615.90 219.83 621.16 220.13
  A 7.14 6.64 51.9 0 1 622.43 220.33
  Q 623.23 220.53 626.16 221.55
  C 630.72 223.15 634.00 220.15 638.76 220.12
  A 4.31 4.15 -34.3 0 1 640.17 220.36
  C 643.42 221.53 646.81 223.31 649.34 221.58
  Q 649.56 221.43 653.16 218.00
  C 655.60 215.68 658.73 216.64 660.80 214.42
  C 663.18 211.88 664.40 210.38 666.96 208.78
  Q 671.57 205.90 678.77 200.92
  A 20.75 19.88 5.0 0 1 681.26 199.45
  Q 686.06 197.05 686.94 196.13
  Q 690.87 192.06 696.85 188.33
  Q 699.29 186.81 704.49 184.70
  Q 710.62 182.22 717.33 176.09
  Q 720.14 173.52 726.92 171.41
  A 7.75 7.71 -69.3 0 0 728.59 170.65
  L 741.19 162.88
  A 1.52 1.50 -72.1 0 1 741.42 162.76
  L 745.32 161.19
  A 1.08 0.85 -70.1 0 0 745.53 161.06
  Q 748.53 158.60 757.33 154.57
  Q 758.43 154.06 761.95 151.23
  A 6.21 5.72 -76.0 0 1 762.97 150.56
  Q 768.28 147.87 771.85 145.63
  Q 773.07 144.86 775.58 143.90
  C 779.77 142.29 783.20 138.02 785.48 136.23
  C 788.26 134.07 790.55 134.20 793.53 133.54
  A 1.90 1.84 16.6 0 0 794.43 133.07
  Q 796.94 130.77 800.36 128.61
  C 803.85 126.42 805.14 119.92 809.74 118.34
  Q 810.95 117.93 815.74 117.67
  Q 820.84 117.40 824.78 118.75
  Q 828.97 120.19 830.42 120.28
  C 833.35 120.48 835.16 122.21 837.96 122.19
  Q 840.05 122.17 843.34 123.44
  C 845.16 124.15 847.16 123.99 848.83 124.90
  A 0.97 0.95 -48.3 0 0 849.84 124.83
  Q 853.15 122.44 853.76 120.25
  Q 854.83 116.34 856.88 114.15
  C 859.45 111.40 859.72 110.42 861.53 108.13
  Q 862.41 107.03 863.89 106.30
  C 868.51 104.01 869.48 100.01 872.48 96.80
  Q 875.32 93.76 878.55 88.34
  Q 878.78 87.96 880.73 86.77
  C 882.91 85.45 886.27 85.35 888.15 84.13
  C 893.59 80.63 896.72 78.64 901.41 76.89
  A 2.37 2.33 -43.8 0 1 903.11 76.91
  L 906.01 78.07
  A 1.09 0.99 55.9 0 0 906.38 78.16
  Q 908.36 78.33 914.02 77.89
  C 917.92 77.58 919.68 80.83 922.60 83.34
  A 0.83 0.82 50.9 0 0 923.52 83.44
  L 936.94 76.46
  A 2.18 2.17 50.1 0 1 939.29 76.68
  C 941.34 78.29 944.95 78.93 947.35 77.43
  Q 948.24 76.87 949.16 76.70
  A 2.08 2.07 50.6 0 1 950.27 76.81
  C 955.63 78.91 961.71 81.25 965.63 84.60
  C 970.20 88.51 971.03 84.91 974.46 82.78
  Q 975.51 82.12 977.64 82.18
  Q 981.71 82.28 984.90 80.91
  A 2.67 2.65 -49.1 0 1 986.62 80.78
  Q 991.15 81.92 993.89 83.31
  Q 997.85 85.33 1000.14 86.23
  Q 1013.91 91.70 1016.11 92.44
  A 5.41 5.37 72.7 0 1 1017.64 93.25
  Q 1021.88 96.42 1024.90 101.27
  A 0.95 0.92 -11.6 0 0 1025.57 101.70
  L 1029.74 102.20
  A 4.09 3.97 -26.8 0 1 1031.15 102.64
  Q 1038.29 106.43 1039.50 107.23
  Q 1043.18 109.69 1046.61 114.45
  Q 1050.74 120.16 1052.09 121.66
  Q 1056.97 127.02 1061.09 130.66
  A 1.41 1.40 41.1 0 1 1061.23 132.63
  Q 1059.66 134.49 1058.96 137.32
  A 1.63 1.62 -73.6 0 0 1060.01 139.25
  L 1065.97 141.30
  A 1.69 1.68 14.6 0 0 1068.18 140.01
  Q 1068.69 137.18 1069.83 135.06
  Q 1071.83 131.36 1072.55 127.96
  A 2.76 2.70 69.6 0 1 1072.98 126.99
  L 1075.35 123.57
  A 4.58 4.48 70.9 0 0 1076.01 122.17
  Q 1076.98 118.58 1079.04 112.30
  Q 1080.90 106.66 1086.18 103.92
  C 1090.53 101.66 1091.92 100.51 1096.09 99.91
  Q 1099.41 99.43 1101.63 97.64
  A 4.24 4.20 -68.1 0 1 1103.69 96.75
  Q 1106.31 96.39 1110.21 95.00
  C 1113.06 93.99 1116.14 94.28 1118.73 93.63
  Q 1121.73 92.87 1128.20 91.44
  Q 1133.34 90.30 1136.89 90.31
  Q 1143.60 90.33 1145.68 90.57
  Q 1146.71 90.69 1152.03 92.39
  A 5.13 5.11 74.6 0 1 1153.87 93.44
  L 1159.84 98.69
  A 2.56 1.31 8.7 0 0 1160.13 98.90
  Q 1164.23 101.39 1165.06 102.68
  Q 1169.46 109.50 1171.06 110.99
  Q 1171.81 111.69 1177.58 114.90
  Q 1178.92 115.64 1179.30 118.24
  C 1179.75 121.26 1179.34 124.62 1179.83 128.57
  Q 1180.13 131.01 1179.77 133.65
  A 2.19 2.17 -55.2 0 0 1179.99 134.90
  L 1181.23 137.29
  A 2.40 2.39 42.3 0 1 1181.33 139.29
  L 1176.63 151.00
  A 4.22 4.22 0.0 0 0 1176.65 154.21
  L 1178.41 158.48
  A 2.14 2.09 43.2 0 1 1178.47 159.89
  L 1175.81 168.48
  A 0.65 0.34 -54.5 0 0 1175.79 168.63
  Q 1175.88 172.82 1177.21 176.50
  A 1.42 1.38 -42.1 0 1 1177.14 177.64
  Q 1175.57 180.71 1175.57 184.00
  C 1175.58 188.06 1174.02 191.07 1173.22 195.31
  C 1172.91 196.96 1171.48 198.66 1171.33 200.26
  A 2.50 2.49 36.7 0 0 1171.52 201.55
  L 1174.80 208.95
  A 1.19 1.17 44.7 0 1 1174.81 209.87
  C 1174.14 211.51 1172.09 213.32 1171.86 215.45
  A 1.68 1.61 -57.4 0 0 1172.05 216.40
  Q 1173.77 219.56 1173.45 223.25
  A 2.32 2.27 -27.6 0 1 1173.15 224.17
  C 1172.00 226.14 1171.19 227.24 1171.43 229.44
  Q 1171.70 231.93 1170.06 234.37
  C 1168.79 236.26 1170.14 238.60 1171.07 240.61
  A 5.18 5.17 31.3 0 1 1171.54 242.52
  Q 1171.69 245.68 1172.93 248.62
  A 2.20 2.11 39.2 0 1 1173.08 249.85
  C 1172.84 251.27 1171.82 252.62 1171.72 254.08
  Q 1171.57 256.42 1170.38 258.85
  C 1169.65 260.33 1169.61 261.61 1169.62 263.39
  A 3.30 3.28 72.8 0 1 1168.17 266.16
  Q 1164.03 268.94 1163.29 273.54
  Q 1163.10 274.69 1160.65 277.91
  A 1.75 1.70 -79.1 0 1 1159.82 278.49
  C 1159.20 278.68 1158.59 278.80 1157.95 279.13
  Q 1148.11 284.12 1142.02 286.01
  Q 1135.60 288.00 1133.72 288.69
  A 8.41 8.12 -55.7 0 1 1131.36 289.18
  C 1127.38 289.38 1124.63 291.39 1120.69 291.55
  Q 1119.11 291.61 1117.94 292.23
  C 1115.26 293.66 1111.67 292.39 1108.45 291.64
  A 12.82 12.82 0.0 0 0 1105.39 291.31
  Q 1101.12 291.37 1100.22 291.08
  Q 1090.27 287.86 1085.58 285.43
  Q 1084.36 284.81 1079.77 281.67
  A 6.25 6.17 -0.4 0 1 1078.25 280.19
  L 1074.57 275.12
  A 3.88 3.52 89.4 0 0 1073.93 274.43
  L 1069.35 270.65
  A 5.54 5.44 -87.7 0 1 1068.28 269.47
  L 1065.19 264.84
  A 4.87 4.81 -62.2 0 1 1064.37 262.14
  L 1064.37 245.65
  A 1.78 1.77 8.4 0 0 1063.10 243.95
  L 1059.07 242.77
  A 2.26 2.17 -15.2 0 1 1058.19 242.29
  C 1055.27 239.73 1053.75 237.41 1049.59 236.78
  A 3.13 3.12 80.3 0 1 1047.27 235.13
  L 1043.71 228.28
  A 2.25 2.10 -82.8 0 0 1043.37 227.81
  L 1035.03 219.07
  A 4.88 4.80 -74.2 0 1 1033.83 216.88
  Q 1031.96 209.25 1030.99 206.58
  Q 1030.62 205.58 1030.26 202.93
  Q 1030.03 201.31 1028.62 197.98
  Q 1026.49 192.91 1028.80 186.65
  A 3.53 3.44 49.2 0 0 1028.92 184.68
  Q 1027.87 180.11 1028.04 172.43
  A 2.40 2.34 63.6 0 1 1028.45 171.16
  C 1029.17 170.10 1030.86 168.65 1030.20 166.94
  C 1029.55 165.23 1026.80 163.44 1024.87 163.30
  Q 1023.58 163.21 1021.27 164.69
  Q 1018.89 166.22 1014.82 166.53
  A 1.58 1.57 67.3 0 1 1013.51 165.99
  Q 1008.83 160.49 1000.93 161.20
  A 2.72 2.69 -36.2 0 1 999.66 161.01
  C 997.87 160.25 996.29 158.58 994.44 158.04
  Q 989.76 156.68 984.31 157.66
  A 1.08 1.08 0.0 0 0 983.41 158.76
  Q 983.51 163.36 981.86 167.20
  A 2.81 2.72 -34.2 0 0 981.63 168.30
  L 981.63 172.91
  A 2.15 2.09 -34.2 0 1 981.46 173.74
  L 980.03 177.07
  A 1.79 1.68 -32.8 0 0 979.88 177.67
  L 979.22 186.16
  A 1.17 1.11 38.3 0 0 979.29 186.65
  Q 980.31 189.35 982.25 191.27
  A 1.63 1.63 0.0 0 0 983.28 191.73
  L 993.98 192.51
  A 2.66 2.34 39.2 0 0 994.53 192.49
  Q 998.77 191.82 1000.22 192.53
  C 1003.07 193.91 1004.76 193.37 1007.43 192.51
  A 1.45 1.44 -41.0 0 1 1008.48 192.58
  L 1016.15 196.20
  A 8.52 8.31 81.5 0 1 1018.95 198.33
  L 1022.77 202.77
  A 3.13 3.09 -73.9 0 1 1023.40 203.93
  Q 1024.94 209.24 1028.88 213.99
  Q 1028.92 214.05 1028.96 214.11
  L 1032.04 219.10
  A 1.44 1.42 -36.8 0 1 1031.77 220.91
  Q 1025.53 226.51 1021.65 234.02
  A 12.44 12.34 -7.6 0 1 1018.91 237.58
  Q 1016.26 239.98 1014.10 242.16
  Q 1012.03 244.26 1004.96 248.42
  A 4.61 4.56 28.7 0 1 1002.75 249.05
  Q 997.48 249.19 992.82 253.54
  A 2.74 2.69 -50.6 0 1 989.56 253.89
  C 986.81 252.22 985.26 255.55 982.83 255.35
  A 2.20 2.10 -24.5 0 1 981.83 255.00
  Q 979.38 253.38 977.84 253.76
  Q 973.32 254.91 965.63 259.87
  A 7.23 7.16 -68.1 0 1 963.41 260.83
  Q 960.20 261.64 957.99 263.20
  A 2.31 2.29 47.1 0 1 955.20 263.09
  L 950.64 259.33
  A 1.21 1.20 -58.1 0 0 948.77 259.77
  C 945.89 266.16 938.95 271.84 933.09 274.59
  C 929.32 276.37 926.98 280.34 923.69 282.52
  Q 918.24 286.14 914.54 288.06
  Q 913.76 288.47 911.74 291.11
  A 7.66 7.62 -88.9 0 1 910.13 292.67
  Q 904.84 296.45 901.53 300.97
  C 899.17 304.20 897.56 304.98 893.88 305.87
  A 2.59 2.58 -83.9 0 0 892.17 307.26
  Q 889.11 313.68 883.11 315.70
  A 6.62 6.55 16.6 0 0 881.22 316.71
  Q 872.48 323.45 864.79 328.04
  Q 861.89 329.76 855.70 335.19
  Q 854.53 336.20 853.16 337.01
  A 3.12 3.09 79.6 0 0 851.65 339.22
  Q 851.32 341.36 850.46 342.87
  A 3.05 2.90 -4.0 0 1 849.57 343.84
  C 843.92 347.74 841.48 349.68 836.03 351.53
  C 833.70 352.32 832.25 354.11 830.70 355.55
  Q 826.30 359.62 824.17 362.76
  C 821.55 366.60 819.50 367.78 815.97 369.36
  A 2.26 2.11 -78.5 0 0 815.31 369.83
  L 804.08 381.68
  A 2.57 2.55 11.4 0 1 803.08 382.34
  Q 795.14 385.20 792.71 387.47
  Q 786.78 393.04 782.37 397.69
  A 4.35 4.33 70.1 0 0 781.20 400.21
  L 780.46 406.86
  A 1.49 1.43 43.8 0 0 780.48 407.34
  C 781.52 412.82 781.98 418.65 780.47 423.63
  C 779.67 426.29 780.19 427.53 781.19 430.01
  A 3.21 3.20 46.0 0 1 781.15 432.51
  L 779.78 435.58
  A 0.86 0.69 -38.8 0 0 779.71 435.90
  Q 779.58 445.70 779.85 449.97
  Q 780.00 452.42 779.74 456.52
  C 779.49 460.56 780.40 463.28 781.22 466.84
  A 2.12 2.06 -41.3 0 1 781.12 468.10
  Q 778.13 475.58 780.69 484.19
  A 1.15 1.12 -44.2 0 1 780.67 484.91
  L 779.68 487.79
  A 1.60 1.53 -38.0 0 0 779.60 488.34
  L 779.79 494.63
  A 1.75 1.75 0.0 0 1 779.44 495.71
  Q 777.67 498.07 777.70 499.64
  A 2.19 2.13 -62.7 0 0 778.05 500.79
  Q 781.83 506.53 781.19 511.49
  C 780.70 515.24 777.51 520.44 777.53 524.55
  Q 777.55 528.54 778.49 531.34
  A 2.14 2.09 -52.4 0 1 778.60 532.27
  C 778.30 535.01 777.26 536.11 778.50 539.46
  A 2.99 2.91 39.2 0 1 778.66 540.85
  Q 778.63 541.10 777.97 542.97
  C 776.99 545.72 778.49 546.83 779.28 549.10
  A 5.55 5.40 35.5 0 1 779.58 550.76
  Q 779.66 554.60 780.29 555.52
  C 782.53 558.80 779.90 559.44 779.71 562.14
  Q 779.34 567.51 779.43 570.66
  Q 779.82 584.45 779.67 585.76
  Q 778.90 592.50 779.43 598.03
  C 779.80 601.89 779.54 604.75 779.71 609.00
  C 779.97 615.79 779.57 618.86 779.67 625.02
  Q 779.80 634.05 780.21 645.08
  Q 780.29 647.31 779.10 649.01
  C 777.67 651.03 777.88 653.04 777.82 655.51
  Q 777.51 667.44 777.79 679.56
  A 10.07 10.01 34.3 0 0 778.41 682.80
  Q 780.45 688.32 779.24 695.98
  A 0.33 0.21 58.3 0 0 779.24 696.09
  L 779.69 702.96
  A 3.59 3.59 0.0 0 1 779.35 704.77
  Q 777.95 707.75 778.11 709.26
  C 778.27 710.92 778.99 712.68 778.05 714.52
  C 776.74 717.06 777.89 719.27 777.68 721.88
  Q 777.11 729.08 779.25 736.77
  A 3.24 3.21 -39.1 0 1 779.00 739.10
  L 776.02 744.82
  A 1.11 1.09 -37.8 0 0 775.92 745.55
  C 776.49 748.03 776.98 748.15 775.92 750.78
  A 6.54 6.45 56.1 0 0 775.45 753.26
  Q 775.52 770.78 775.22 783.49
  Q 775.20 784.14 776.01 785.99
  A 2.17 2.11 -51.9 0 1 776.14 787.22
  C 775.69 789.59 774.10 791.82 772.56 794.12
  A 3.53 3.46 -25.1 0 0 771.99 795.65
  Q 770.92 804.77 773.10 811.47
  A 9.08 9.06 -55.9 0 1 773.55 813.81
  Q 773.68 816.15 774.31 818.22
  A 2.10 2.03 39.9 0 1 774.39 818.97
  L 773.45 830.17
  A 1.23 1.12 65.5 0 1 773.27 830.73
  Q 772.00 832.79 771.91 833.63
  Q 771.08 841.91 772.39 848.01
  A 2.52 2.51 -41.7 0 1 772.31 849.33
  L 771.62 851.33
  A 4.14 4.09 53.0 0 0 771.40 852.98
  Q 771.85 860.17 771.51 871.50
  Q 771.45 873.44 772.02 876.24
  Q 772.95 880.84 770.00 884.62
  A 1.70 1.69 49.2 0 0 769.87 886.52
  L 771.31 889.02
  A 1.21 1.14 32.0 0 1 771.46 889.59
  Q 771.42 893.75 773.27 897.36
  A 3.17 3.13 31.7 0 1 773.62 898.80
  L 773.62 905.02
  A 2.49 2.45 -32.0 0 1 773.35 906.14
  C 772.00 908.79 770.66 910.39 772.48 913.47
  C 773.84 915.79 773.71 916.83 773.48 919.24
  C 773.20 922.15 775.36 924.35 776.25 926.91
  A 2.39 2.34 -49.9 0 1 776.34 928.10
  C 776.16 929.00 775.60 930.43 775.61 931.37
  Q 775.67 934.61 774.62 937.18
  Q 773.54 939.81 773.53 942.02
  Q 773.51 953.36 774.38 958.17
  Q 775.49 964.20 775.44 964.55
  Q 775.22 966.12 776.74 970.79
  Q 777.80 974.07 777.78 979.70
  A 5.32 5.19 -34.6 0 1 777.41 981.58
  Q 774.07 989.96 773.74 996.18
  Q 773.52 1000.31 772.75 1001.13
  C 769.55 1004.53 769.44 1006.47 769.47 1011.00
  A 3.55 3.52 -32.8 0 1 769.14 1012.49
  Q 767.82 1015.31 765.32 1017.60
  C 764.11 1018.71 761.60 1019.59 759.63 1020.60
  Q 755.09 1022.93 751.19 1019.70
  A 1.68 1.66 -44.2 0 0 749.08 1019.68
  L 747.39 1021.04
  A 1.43 1.43 0.0 0 1 746.50 1021.35
  L 739.03 1021.35
  A 2.24 2.21 -29.9 0 1 737.93 1021.06
  Q 733.16 1018.29 725.50 1019.54
  A 0.76 0.65 -60.6 0 0 725.25 1019.63
  L 722.75 1021.07
  A 1.98 1.97 52.5 0 1 720.35 1020.75
  C 718.45 1018.84 715.64 1018.47 713.22 1019.90
  Q 711.45 1020.95 708.96 1019.68
  Q 706.70 1018.53 703.69 1020.45
  A 1.32 1.32 0.0 0 1 702.57 1020.58
  L 701.47 1020.20
  A 1.43 1.41 -46.8 0 0 700.44 1020.24
  C 698.86 1020.94 697.46 1021.34 695.89 1020.29
  Q 694.56 1019.40 694.01 1019.41
  Q 686.46 1019.58 676.24 1019.25
  Q 673.79 1019.17 672.05 1020.82
  A 1.10 1.10 0.0 0 1 670.48 1020.77
  C 667.69 1017.77 663.74 1019.67 660.48 1021.20
  A 1.46 1.46 0.0 0 1 658.93 1021.00
  L 657.30 1019.66
  A 1.67 1.66 -25.0 0 0 656.24 1019.28
  L 645.12 1019.28
  A 1.70 1.70 0.0 0 0 643.42 1020.98
  L 643.42 1036.45
  A 4.47 4.47 0.0 0 0 643.83 1038.32
  L 645.24 1041.35
  A 1.02 0.92 -62.5 0 1 645.34 1041.74
  L 645.79 1047.84
  A 1.61 1.61 0.0 0 0 648.15 1049.15
  Q 649.38 1048.50 650.11 1047.33
  A 2.89 2.88 28.0 0 1 653.73 1046.23
  Q 657.17 1047.78 660.04 1048.61
  A 7.28 7.11 -19.1 0 1 662.08 1049.57
  Q 663.06 1050.24 667.78 1055.05
  C 670.38 1057.72 671.09 1058.85 671.86 1062.33
  Q 672.62 1065.76 674.76 1068.95
  Q 675.81 1070.54 675.80 1075.66
  C 675.80 1078.77 674.78 1084.12 676.50 1088.43
  Q 677.02 1089.73 676.42 1094.97
  A 0.40 0.35 59.9 0 1 676.39 1095.12
  L 673.81 1101.53
  A 2.45 2.42 46.4 0 0 673.78 1103.25
  L 675.14 1107.03
  A 5.06 4.93 -56.1 0 1 675.42 1108.56
  C 675.52 1113.69 675.37 1115.42 675.99 1119.17
  C 676.96 1125.13 670.31 1132.92 665.99 1135.95
  Q 664.33 1137.11 656.14 1139.63
  C 653.33 1140.49 649.79 1142.78 646.93 1143.24
  Q 641.95 1144.05 637.64 1141.08
  Q 634.78 1139.12 630.31 1135.76
  A 2.34 2.34 0.0 0 1 629.56 1134.82
  Q 627.27 1129.78 627.04 1128.95
  Q 624.68 1120.38 623.72 1113.34
  A 2.22 2.17 18.9 0 0 623.08 1112.07
  Q 618.67 1107.70 612.52 1110.40
  A 2.57 2.53 -85.1 0 0 611.39 1111.37
  Q 609.25 1114.75 609.64 1117.18
  Q 609.92 1118.97 609.90 1119.62
  A 1.77 1.73 63.8 0 1 609.56 1120.66
  Q 606.55 1124.83 605.98 1126.21
  Q 604.62 1129.55 604.44 1129.83
  A 1.72 1.68 9.5 0 1 603.45 1130.52
  Q 600.34 1131.27 596.77 1135.00
  Q 595.98 1135.82 594.18 1136.44
  A 2.18 2.15 -46.9 0 1 592.91 1136.49
  Q 589.12 1135.50 588.25 1135.52
  Q 580.36 1135.70 575.63 1134.89
  C 571.89 1134.26 568.54 1135.93 564.88 1134.38
  C 561.88 1133.11 559.22 1133.60 556.30 1132.34
  C 553.05 1130.93 550.21 1130.83 546.34 1129.77
  A 8.79 8.56 -35.5 0 0 544.40 1129.47
  C 540.63 1129.35 536.25 1129.80 531.52 1129.36
  C 529.07 1129.13 527.94 1126.71 525.27 1129.08
  A 1.11 1.10 -52.2 0 1 524.05 1129.24
  Q 519.61 1126.99 516.52 1127.34
  C 514.15 1127.62 512.45 1127.80 510.30 1126.59
  Q 507.94 1125.25 506.96 1125.23
  Q 499.13 1125.10 495.01 1125.00
  Q 491.83 1124.92 488.12 1122.66
  C 486.35 1121.58 483.94 1123.34 482.34 1123.34
  Q 478.61 1123.33 475.98 1123.34
  C 473.98 1123.35 472.69 1121.54 470.61 1122.41
  C 467.56 1123.67 466.04 1121.77 463.03 1121.56
  Q 459.20 1121.29 451.73 1121.41
  Q 447.87 1121.46 444.60 1119.53
  A 2.02 2.01 40.7 0 0 442.32 1119.70
  L 440.70 1121.00
  A 2.40 2.39 -50.5 0 1 438.10 1121.25
  L 427.58 1115.77
  A 1.89 1.89 0.0 0 1 426.56 1114.09
  L 426.56 1104.50
  A 3.76 3.72 -32.5 0 1 426.93 1102.88
  Q 428.04 1100.56 428.71 1097.29
  C 429.24 1094.72 434.28 1092.36 436.75 1091.14
  A 7.17 6.68 22.6 0 1 437.96 1090.69
  Q 446.02 1088.53 451.91 1083.41
  A 3.30 3.25 24.2 0 1 454.06 1082.61
  Q 461.79 1082.59 469.42 1081.23
  Q 470.81 1080.98 476.26 1077.25
  C 479.23 1075.22 484.34 1076.67 486.98 1075.48
  Q 488.30 1074.88 491.17 1073.48
  A 10.79 10.68 26.9 0 1 494.09 1072.54
  C 496.76 1072.08 498.77 1072.06 501.83 1071.10
  Q 505.85 1069.84 509.94 1068.60
  A 7.89 7.88 -53.4 0 1 512.23 1068.26
  Q 516.80 1068.26 517.48 1068.19
  C 521.58 1067.78 525.51 1065.47 529.68 1064.46
  Q 533.58 1063.50 535.07 1062.88
  C 537.99 1061.65 540.33 1061.96 543.97 1062.22
  A 2.28 2.28 0.0 0 0 546.25 1060.79
  C 548.47 1055.23 554.51 1059.12 558.52 1057.89
  C 563.44 1056.36 569.38 1055.41 574.34 1053.04
  A 7.19 7.12 29.9 0 1 577.48 1052.21
  L 587.44 1051.93
  A 1.94 1.93 -5.3 0 0 589.30 1049.69
  Q 588.79 1046.52 588.13 1041.76
  C 587.83 1039.65 586.84 1039.17 587.82 1036.66
  Q 588.70 1034.38 586.71 1031.91
  A 2.02 1.89 -79.9 0 1 586.47 1031.54
  Q 585.11 1028.82 586.74 1026.75
  C 588.10 1025.03 589.03 1023.14 587.04 1021.31
  Q 584.99 1019.43 582.52 1019.41
  Q 578.02 1019.37 574.45 1020.34
  A 3.60 3.53 -44.4 0 1 572.56 1020.34
  L 564.31 1018.08
  A 2.43 2.39 -0.8 0 1 562.64 1016.48
  L 559.52 1006.59
  A 1.00 1.00 0.0 0 0 558.75 1005.91
  Q 556.26 1005.42 553.89 1003.92
  A 0.39 0.18 64.9 0 1 553.83 1003.87
  L 545.01 995.84
  A 1.82 1.81 21.7 0 1 544.42 994.48
  C 544.64 983.09 543.66 969.96 544.31 959.58
  C 544.54 955.77 543.19 952.66 545.00 948.84
  A 1.98 1.98 0.0 0 0 544.61 946.59
  L 542.92 944.90
  A 1.62 1.57 21.0 0 1 542.47 943.93
  C 542.16 940.35 541.73 936.35 543.30 932.86
  C 544.13 931.03 544.50 928.60 543.80 926.69
  Q 543.30 925.32 543.23 924.78
  A 2.32 2.24 53.7 0 1 543.38 923.65
  Q 544.84 920.05 543.12 916.82
  Q 542.33 915.34 542.61 913.75
  Q 543.17 910.55 542.45 907.63
  A 1.44 1.43 54.3 0 1 542.63 906.51
  C 543.83 904.61 544.96 902.72 543.72 900.43
  C 542.12 897.48 541.22 896.28 541.30 892.25
  A 1.10 1.07 37.3 0 0 541.24 891.84
  L 540.58 889.74
  A 2.62 2.57 49.8 0 1 540.72 887.85
  C 541.95 885.32 542.89 883.97 541.98 881.01
  Q 541.52 879.50 539.17 875.16
  A 5.10 5.07 27.8 0 1 538.59 873.31
  Q 538.34 871.07 537.23 868.54
  A 0.72 0.71 63.0 0 1 537.52 867.64
  C 540.11 866.12 540.53 864.20 540.42 861.06
  Q 540.30 857.72 540.97 854.73
  A 1.23 1.12 -42.5 0 0 541.00 854.39
  L 540.71 845.39
  A 1.18 1.18 0.0 0 1 540.80 844.89
  Q 543.28 838.85 541.90 834.68
  Q 540.56 830.64 540.91 829.13
  C 541.60 826.08 540.40 824.16 540.69 820.84
  Q 540.87 818.78 540.66 816.69
  Q 540.28 812.83 540.39 805.11
  Q 540.42 803.59 538.77 799.78
  Q 538.60 799.37 538.48 796.74
  A 2.68 2.60 -33.6 0 1 538.78 795.37
  Q 540.49 792.13 541.15 786.77
  C 541.48 784.08 540.05 781.78 541.24 778.90
  C 542.76 775.23 540.75 774.00 540.61 770.99
  C 540.35 765.32 540.15 761.71 541.68 757.69
  A 3.53 3.43 -36.8 0 0 541.91 756.25
  L 541.13 738.12
  A 3.54 2.84 -46.9 0 1 541.18 737.45
  L 543.05 727.71
  A 2.11 1.96 47.0 0 0 543.05 726.96
  L 542.28 723.34
  A 1.06 0.96 42.1 0 1 542.26 723.14
  L 542.26 699.31
  A 1.56 1.55 61.2 0 1 542.50 698.48
  L 543.68 696.62
  A 4.08 4.07 46.1 0 0 543.76 692.41
  L 542.71 690.58
  A 3.28 3.26 28.8 0 1 542.28 689.12
  C 542.06 684.14 542.08 680.89 540.29 676.87
  A 1.35 1.33 -5.2 0 0 539.36 676.11
  Q 535.61 675.25 531.93 675.61
  A 4.56 4.55 59.7 0 1 528.85 674.80
  Q 524.62 671.82 519.72 670.47
  A 5.01 4.95 75.4 0 1 517.43 669.11
  C 513.78 665.31 509.22 662.63 503.74 660.78
  Q 500.30 659.62 497.85 658.20
  A 1.17 1.17 0.0 0 0 496.36 658.49
  L 491.89 664.13
  A 5.65 5.50 73.4 0 0 490.93 665.96
  C 490.20 668.31 486.99 675.87 483.87 676.73
  A 0.83 0.82 81.8 0 0 483.27 677.54
  Q 483.28 679.39 483.78 680.50
  A 3.66 3.47 52.3 0 1 483.41 684.16
  Q 478.84 690.12 477.37 694.13
  Q 476.21 697.29 474.38 699.85
  Q 471.42 703.99 469.54 709.37
  A 4.72 4.53 73.6 0 1 468.98 710.45
  L 466.29 714.32
  A 3.99 3.95 68.1 0 0 465.67 715.79
  L 463.42 727.19
  A 7.21 7.09 63.0 0 1 462.97 728.62
  C 461.63 731.62 460.96 734.07 459.25 737.44
  Q 457.74 740.44 457.72 742.77
  Q 457.71 745.56 456.62 747.35
  Q 453.82 751.98 451.56 754.69
  C 448.77 758.02 450.46 760.42 449.12 763.85
  Q 447.61 767.74 444.98 772.50
  A 13.04 12.79 -22.2 0 0 444.00 774.77
  Q 442.11 780.82 438.38 788.15
  Q 437.59 789.69 437.64 794.02
  C 437.65 795.58 435.50 799.85 433.87 802.03
  Q 431.54 805.15 430.47 809.81
  A 2.72 2.67 46.6 0 0 430.45 810.98
  Q 430.94 813.54 430.19 815.48
  A 1.17 1.14 42.8 0 0 430.24 816.43
  L 431.05 817.99
  A 1.02 1.01 47.6 0 1 431.01 819.00
  C 428.72 822.65 425.33 825.89 425.45 830.32
  C 425.49 831.92 425.14 833.50 424.64 834.92
  Q 420.30 847.15 419.59 852.79
  A 4.71 4.69 62.0 0 1 419.13 854.31
  C 416.94 858.69 415.29 861.24 415.45 865.11
  A 2.99 2.95 56.6 0 1 415.18 866.48
  C 414.52 867.90 413.01 869.48 412.24 871.11
  C 410.12 875.60 407.56 881.49 407.62 886.34
  A 5.93 5.91 58.1 0 1 406.98 889.10
  Q 405.89 891.24 405.45 894.19
  C 404.91 897.87 402.89 901.06 401.43 903.53
  Q 399.97 906.00 399.74 907.88
  C 399.46 910.28 400.19 914.22 397.83 916.18
  C 393.78 919.56 392.50 924.59 390.51 929.16
  A 5.67 5.53 -12.7 0 1 389.51 930.70
  C 387.45 932.95 386.09 934.97 385.44 938.45
  Q 384.72 942.36 383.40 944.49
  Q 382.03 946.71 381.51 949.12
  Q 380.73 952.80 378.27 956.17
  A 2.78 2.72 -21.7 0 0 377.79 957.25
  L 376.86 961.99
  A 2.54 2.38 -24.7 0 1 376.53 962.80
  Q 375.60 964.22 372.79 967.78
  Q 372.23 968.49 371.02 973.26
  C 370.38 975.76 367.00 978.08 365.87 980.71
  Q 363.68 985.79 363.59 990.26
  A 4.73 4.72 -27.1 0 1 362.75 992.85
  L 354.57 1004.59
  A 4.68 4.32 74.3 0 0 354.04 1005.63
  Q 352.81 1009.04 351.39 1011.18
  C 349.63 1013.84 349.58 1015.82 349.75 1018.73
  C 349.91 1021.54 348.87 1023.25 346.54 1025.55
  Q 343.78 1028.26 342.29 1031.59
  A 6.59 6.41 -29.6 0 0 341.80 1033.27
  Q 341.19 1037.63 340.78 1038.78
  Q 339.08 1043.59 332.61 1050.38
  C 331.54 1051.51 331.43 1053.47 331.71 1055.39
  Q 332.38 1059.94 328.49 1063.59
  Q 326.51 1065.45 325.50 1069.23
  A 3.20 3.13 69.4 0 1 325.09 1070.16
  L 320.30 1077.73
  A 3.89 3.87 9.5 0 1 317.89 1079.44
  L 309.83 1081.29
  A 1.83 1.76 42.4 0 1 309.08 1081.31
  L 306.45 1080.79
  A 2.71 2.46 -36.5 0 0 305.94 1080.74
  L 292.96 1081.00
  A 1.45 1.45 0.0 0 0 291.55 1082.68
  C 292.26 1087.21 294.56 1093.24 298.69 1095.80
  A 2.29 2.24 -28.8 0 0 299.87 1096.13
  C 304.66 1096.10 309.46 1095.36 313.22 1097.66
  A 3.41 3.40 47.7 0 0 316.48 1097.82
  C 319.40 1096.42 320.64 1095.68 323.47 1096.29
  Q 328.40 1097.34 335.00 1101.21
  C 338.62 1103.33 341.53 1106.75 345.13 1108.97
  A 3.94 3.92 -85.2 0 1 346.68 1110.81
  Q 348.97 1116.36 350.65 1123.80
  Q 351.44 1127.33 351.54 1131.54
  Q 351.68 1138.00 351.39 1139.33
  Q 350.71 1142.50 346.45 1149.91
  A 1.47 1.40 -5.7 0 1 346.08 1150.34
  L 338.71 1156.35
  A 3.11 3.11 0.0 0 1 336.47 1157.04
  Q 331.37 1156.60 327.92 1158.61
  C 325.32 1160.12 322.89 1159.45 320.27 1160.59
  A 1.38 1.37 -39.7 0 1 318.94 1160.47
  C 316.08 1158.54 311.55 1161.16 308.64 1162.14
  A 2.64 2.57 40.7 0 1 307.33 1162.22
  C 304.22 1161.62 302.85 1161.64 301.03 1160.59
  Q 299.87 1159.93 299.13 1159.81
  A 1.90 1.83 -55.8 0 0 298.03 1160.04
  L 296.34 1160.99
  A 1.01 0.99 47.9 0 1 295.27 1160.93
  C 291.91 1158.56 286.70 1158.94 282.46 1160.76
  Q 279.84 1161.89 276.47 1162.71
  Q 275.26 1163.00 274.32 1162.43
  C 272.10 1161.08 270.38 1161.78 268.05 1162.13
  A 3.34 3.26 -39.5 0 1 266.51 1162.00
  Q 263.82 1161.12 257.75 1161.32
  C 254.58 1161.43 252.53 1161.89 250.50 1163.73
  Q 249.34 1164.79 249.00 1164.95
  A 2.96 2.92 -58.5 0 1 247.71 1165.27
  L 242.37 1165.32
  A 2.80 2.73 -27.3 0 1 240.76 1164.83
  L 238.37 1163.17
  A 1.17 1.16 -49.7 0 0 236.87 1163.30
  L 232.65 1167.52
  A 2.26 2.25 -61.0 0 1 230.53 1168.13
  L 226.74 1167.24
  A 0.85 0.76 48.1 0 0 226.46 1167.21
  L 218.14 1167.69
  A 3.49 3.43 56.6 0 1 216.32 1167.30
  L 215.63 1166.94
  A 3.08 3.07 52.7 0 0 213.57 1166.66
  C 211.66 1167.06 208.77 1167.58 206.19 1168.58
  C 203.81 1169.50 201.82 1167.94 199.55 1167.71
  Q 193.17 1167.06 188.93 1167.65
  A 1.01 0.97 -36.7 0 1 188.45 1167.59
  L 178.33 1163.53
  A 0.94 0.93 28.1 0 0 177.21 1163.86
  C 176.26 1165.25 173.71 1166.11 172.35 1164.63
  Q 172.24 1164.52 171.04 1163.33
  A 1.48 1.47 -48.6 0 0 168.85 1163.47
  C 166.40 1166.61 162.19 1165.62 159.46 1163.30
  A 1.83 1.83 0.0 0 0 156.98 1163.39
  L 155.81 1164.56
  A 3.47 3.46 38.6 0 1 151.50 1165.04
  L 149.08 1163.51
  A 2.13 2.08 -28.4 0 0 147.96 1163.19
  L 135.80 1163.19
  A 1.73 1.70 -63.6 0 0 134.74 1163.56
  L 133.23 1164.77
  A 1.68 1.64 -69.6 0 1 132.51 1165.11
  C 128.15 1166.06 122.61 1164.74 118.50 1163.40
  A 2.25 2.24 35.1 0 0 116.45 1163.75
  C 113.65 1165.87 109.50 1165.41 106.22 1165.56
  A 2.52 2.42 -59.8 0 0 105.07 1165.89
  L 103.44 1166.83
  A 1.76 1.74 37.1 0 1 102.10 1167.01
  Q 99.66 1166.34 98.53 1166.74
  Q 91.89 1169.04 88.42 1169.19
  Q 87.05 1169.25 78.49 1167.59
  A 4.77 4.77 0.0 0 1 76.26 1166.51
  C 72.53 1163.30 70.04 1161.30 64.93 1158.65
  A 2.88 2.86 84.8 0 1 63.94 1157.82
  Q 61.77 1154.93 61.32 1153.54
  Q 59.82 1148.93 57.36 1142.51
  A 6.92 6.90 18.3 0 0 56.70 1141.20
  L 55.31 1139.03
  A 4.84 4.78 -62.5 0 1 54.55 1136.57
  Q 54.38 1131.23 53.61 1124.88
  Q 53.53 1124.22 54.47 1121.44
  A 2.51 2.48 -14.6 0 1 55.00 1120.55
  Q 59.70 1115.42 65.60 1112.89
  Q 66.36 1112.56 68.84 1109.44
  A 3.00 2.90 -82.1 0 1 69.91 1108.60
  Q 72.50 1107.45 74.31 1107.57
  Q 80.04 1107.96 83.20 1106.63
  A 1.85 1.84 -46.2 0 1 84.55 1106.60
  Q 85.18 1106.83 86.85 1107.62
  C 89.12 1108.71 91.85 1107.70 95.15 1106.87
  A 6.73 6.73 0.0 0 1 97.24 1106.68
  C 102.60 1107.04 105.90 1105.76 112.48 1103.96
  C 113.63 1103.64 115.10 1102.75 116.47 1102.71
  A 1.71 1.66 59.8 0 1 117.40 1102.97
  C 122.16 1105.99 126.33 1103.00 130.27 1102.22
  C 136.11 1101.06 141.10 1097.14 144.83 1092.32
  A 2.59 2.59 0.0 0 0 145.38 1090.64
  C 145.24 1085.50 149.29 1080.00 152.43 1076.17
  C 155.04 1072.99 154.00 1066.67 154.35 1063.10
  A 2.04 1.97 58.1 0 1 154.47 1062.54
  L 158.09 1051.87
  A 3.53 3.31 -37.2 0 0 158.28 1050.75
  L 158.28 1046.59
  A 2.89 2.87 58.8 0 1 158.60 1045.27
  C 160.23 1042.11 161.00 1041.01 160.86 1036.61
  C 160.71 1032.18 158.79 1029.98 155.58 1028.19
  C 151.68 1025.99 149.74 1024.28 145.37 1021.47
  Q 145.05 1021.26 141.99 1018.31
  A 4.40 4.29 -79.1 0 1 140.93 1016.70
  L 138.67 1010.63
  A 1.93 1.88 46.5 0 1 138.69 1009.27
  L 142.05 1000.90
  A 2.77 2.69 58.2 0 0 142.25 999.98
  L 142.42 995.75
  A 1.95 1.92 -27.3 0 1 142.75 994.74
  Q 143.07 994.25 145.72 991.23
  Q 148.80 987.74 149.33 983.36
  A 4.32 4.14 -32.5 0 1 149.55 982.46
  Q 151.21 978.04 154.33 969.03
  C 155.95 964.34 158.46 960.11 158.31 954.96
  A 3.30 3.22 -33.9 0 1 158.63 953.43
  L 164.40 941.48
  A 3.22 3.17 -12.6 0 1 164.82 940.83
  Q 169.27 935.55 170.30 928.64
  A 7.61 7.47 -26.7 0 1 171.20 926.00
  C 172.95 922.86 174.52 918.69 176.55 915.04
  C 178.42 911.67 180.39 908.19 178.83 904.96
  A 1.46 1.45 48.5 0 1 178.91 903.55
  L 185.80 892.65
  A 1.96 1.85 68.3 0 0 186.09 891.92
  C 186.81 887.84 187.53 880.94 192.07 879.85
  Q 193.26 879.56 194.77 878.81
  A 1.35 1.30 -2.4 0 0 195.41 878.14
  C 196.64 875.35 195.83 871.97 196.45 869.28
  A 4.75 4.68 -22.8 0 1 197.06 867.82
  Q 201.14 861.47 202.92 852.98
  C 203.43 850.56 205.32 847.71 207.32 845.82
  C 209.99 843.32 210.41 840.04 211.96 836.75
  Q 214.97 830.38 216.85 821.35
  Q 217.35 818.97 221.47 813.24
  Q 224.56 808.94 224.39 802.80
  A 3.23 3.20 -26.1 0 1 225.13 800.67
  L 227.19 798.17
  A 1.30 1.25 72.6 0 0 227.44 797.67
  Q 228.35 793.75 229.78 791.71
  C 232.27 788.15 232.94 784.65 235.61 780.83
  A 0.76 0.75 -22.6 0 0 235.72 780.57
  L 236.69 775.64
  A 2.08 2.01 -20.5 0 1 237.12 774.74
  Q 239.25 772.13 240.44 768.23
  C 241.71 764.05 243.66 762.05 245.24 758.13
  Q 247.03 753.68 249.92 749.42
  A 2.32 2.15 44.6 0 0 249.80 746.82
  C 248.68 745.29 249.00 744.23 250.45 742.79
  Q 253.99 739.25 255.80 733.82
  Q 257.11 729.87 258.18 727.96
  C 261.16 722.59 262.55 717.78 265.07 712.83
  C 267.62 707.82 268.67 703.30 270.78 698.19
  A 7.93 7.43 -29.1 0 0 271.20 696.88
  C 272.23 692.39 274.05 690.10 276.09 686.63
  A 1.04 0.97 62.9 0 0 276.22 686.17
  L 276.34 682.84
  A 4.32 4.31 67.2 0 1 277.47 680.06
  L 281.28 675.88
  A 1.73 1.69 -15.9 0 0 281.63 675.27
  C 283.22 669.84 284.01 666.69 285.91 663.46
  A 7.93 7.53 82.2 0 1 286.73 662.32
  Q 289.70 658.91 290.05 657.73
  Q 291.69 652.17 294.54 648.44
  C 296.21 646.25 296.21 645.11 296.66 642.65
  C 297.35 638.84 299.15 635.28 301.35 631.85
  C 302.62 629.87 301.69 626.72 302.57 624.66
  Q 304.31 620.60 307.48 618.61
  A 1.43 1.42 -17.8 0 0 308.15 617.32
  Q 307.97 613.93 309.32 612.06
  Q 313.35 606.46 315.03 602.87
  Q 316.42 599.90 314.03 596.55
  C 312.60 594.55 308.69 594.80 306.42 595.09
  Q 305.02 595.27 301.58 595.21
  Q 293.49 595.08 279.72 595.18
  A 4.49 4.45 -57.3 0 0 277.83 595.60
  C 273.18 597.74 268.42 598.34 264.27 595.43
  A 2.03 1.98 -25.5 0 0 263.22 595.07
  C 259.61 594.93 256.56 597.19 253.24 597.36
  Q 251.43 597.45 247.13 597.35
  A 3.82 3.82 0.0 0 0 245.13 597.85
  L 244.11 598.44
  A 1.26 1.25 47.7 0 1 242.73 598.37
  Q 240.24 596.53 237.31 598.67
  Q 235.60 599.92 231.04 600.10
  A 3.69 3.58 55.1 0 1 229.44 599.79
  L 221.74 596.34
  A 5.51 5.49 4.2 0 1 218.69 592.82
  Q 217.42 588.33 214.85 584.18
  C 214.03 582.84 213.89 577.66 214.12 575.57
  Q 214.57 571.46 214.32 567.37
  Q 214.22 565.86 214.60 564.88
  C 215.36 562.90 216.86 560.97 215.74 558.72
  Q 214.97 557.19 214.53 555.86
  A 2.54 2.52 36.0 0 1 214.40 555.06
  L 214.20 517.38
  A 6.62 6.37 -54.2 0 0 213.96 515.70
  L 212.70 511.22
  A 3.77 3.23 40.6 0 1 212.60 510.58
  Q 212.17 498.31 212.57 494.49
  Q 213.11 489.28 212.82 487.70
  A 4.17 4.15 -44.8 0 1 212.83 486.16
  C 213.46 482.92 215.09 477.27 213.65 474.47
  Q 212.59 472.42 212.45 469.50
  Q 212.29 466.21 211.43 465.36
  C 208.96 462.92 207.08 462.57 203.75 463.52
  A 2.17 2.12 50.1 0 1 202.16 463.36
  L 200.55 462.52
  A 2.02 2.02 0.0 0 0 199.26 462.32
  Q 196.36 462.83 190.89 464.89
  Q 188.27 465.87 183.85 465.05
  C 181.76 464.66 181.17 464.97 179.88 466.38
  A 2.13 2.06 9.0 0 1 179.14 466.90
  Q 177.92 467.39 175.16 467.17
  A 1.94 1.94 0.0 0 0 173.08 469.36
  C 173.49 472.45 171.61 474.63 171.55 477.40
  Q 171.47 480.92 171.58 483.02
  C 172.08 492.90 163.28 492.49 157.55 496.73
  Q 149.02 503.03 138.40 500.32
  A 0.65 0.60 -41.0 0 0 138.07 500.31
  L 134.31 501.10
  A 2.56 2.32 -47.8 0 1 133.69 501.16
  Q 125.80 500.89 122.51 500.84
  Q 117.63 500.77 115.20 502.04
  A 1.90 1.88 47.8 0 1 113.29 501.94
  Q 108.94 499.09 104.11 499.54
  Q 102.04 499.74 100.27 498.28
  Q 97.52 496.01 94.56 494.34
  A 3.80 3.77 1.0 0 1 93.06 492.80
  Q 90.85 488.63 87.03 485.04
  Q 86.37 484.43 85.52 482.06
  A 1.65 1.59 -51.6 0 1 85.44 481.23
  L 85.83 478.51
  A 6.18 6.11 -49.0 0 0 85.67 476.01
  L 83.19 467.09
  A 0.63 0.60 47.9 0 1 83.20 466.70
  C 84.41 462.96 84.27 461.12 84.40 456.49
  A 4.39 4.35 61.2 0 1 85.00 454.39
  Q 86.78 451.38 86.44 446.99
  A 4.59 4.58 -24.9 0 1 87.77 443.38
  L 93.77 437.39
  A 2.78 2.77 14.2 0 1 94.95 436.69
  Q 100.55 435.08 105.44 437.55
  Q 106.42 438.05 109.82 437.85
  A 3.80 3.79 -35.3 0 1 111.42 438.12
  L 114.43 439.32
  A 1.42 1.41 12.3 0 0 116.37 438.08
  C 116.53 434.60 115.56 432.54 117.77 429.39
  A 2.23 2.23 0.0 0 0 117.21 426.29
  L 112.34 422.90
  A 1.82 1.82 0.0 0 0 111.19 422.58
  L 109.01 422.70
  A 2.26 2.20 -29.8 0 1 107.69 422.36
  Q 103.37 419.58 98.68 418.12
  C 94.42 416.79 91.39 414.35 89.08 411.69
  C 86.24 408.42 86.44 403.52 86.34 399.37
  C 86.26 396.31 84.38 393.55 84.84 390.10
  Q 84.99 388.95 84.72 385.91
  Q 83.93 377.23 84.40 374.49
  C 85.14 370.27 84.56 366.59 83.27 362.54
  A 2.30 2.25 -44.4 0 1 83.30 361.06
  C 84.82 356.97 83.89 353.26 84.48 350.03
  A 5.71 5.36 65.0 0 1 84.96 348.57
  Q 86.42 345.54 86.40 344.24
  Q 86.25 334.40 87.23 327.49
  A 3.72 3.61 44.1 0 0 87.19 326.23
  Q 86.01 320.29 86.66 314.83
  Q 86.96 312.31 86.55 309.80
  Q 85.80 305.29 87.39 301.10
  C 88.38 298.48 88.46 295.35 87.80 293.49
  Q 86.72 290.43 86.66 288.96
  A 4.68 4.57 -37.4 0 1 86.91 287.24
  C 88.27 283.33 88.92 281.68 87.73 278.09
  A 2.30 2.29 34.6 0 1 87.60 277.39
  Q 87.51 273.69 88.80 270.84
  Q 90.22 267.70 90.29 266.20
  Q 90.46 262.82 90.20 259.74
  A 0.95 0.76 38.6 0 0 90.15 259.52
  L 87.09 250.96
  A 0.95 0.95 0.0 0 1 87.27 250.01
  Q 89.88 247.09 93.31 243.87
  Q 98.75 238.78 106.01 240.34
  A 1.91 1.78 61.0 0 1 106.38 240.46
  L 111.41 242.67
  A 2.77 2.76 7.1 0 1 113.02 244.73
  Q 113.72 248.75 116.04 252.17
  C 118.16 255.29 119.09 257.08 122.09 258.50
  A 0.74 0.70 3.7 0 1 122.47 258.91
  L 127.24 272.33
  A 2.35 2.16 -58.5 0 1 127.35 272.89
  L 127.74 279.64
  A 2.56 2.50 -62.8 0 0 128.09 280.77
  Q 129.88 283.72 132.49 285.52
  C 134.72 287.07 135.15 288.07 135.89 290.10
  C 136.83 292.66 138.35 294.73 140.33 297.88
  A 7.56 7.51 -62.9 0 1 141.47 301.46
  Q 141.77 307.14 145.47 312.43
  C 147.74 315.68 148.50 317.67 149.68 321.19
  C 150.85 324.69 152.22 325.73 155.01 328.22
  C 157.15 330.12 157.47 331.87 157.29 335.15
  C 157.12 338.15 157.49 340.51 159.23 343.14
  Q 161.84 347.09 163.86 353.73
  Q 164.58 356.12 166.57 358.02
  Q 169.81 361.13 171.06 365.39
  A 5.22 5.21 -55.2 0 1 171.25 366.45
  Q 171.83 374.39 175.75 382.21
  A 1.28 1.27 39.7 0 1 175.84 383.12
  Q 175.62 383.99 174.34 386.12
  Q 173.35 387.78 172.46 392.91
  A 1.76 1.73 -50.9 0 0 172.55 393.86
  L 174.38 398.83
  Z
  M 1003.33 217.22
  A 1.04 1.03 -79.6 0 0 1002.47 215.97
  Q 997.49 215.25 994.36 216.71
  A 3.67 3.65 -46.5 0 1 991.43 216.79
  L 977.64 211.25
  A 1.14 1.06 54.1 0 0 977.23 211.17
  L 972.57 211.17
  A 3.89 3.85 -17.3 0 1 969.40 209.53
  L 967.48 206.81
  A 4.08 4.03 -89.7 0 0 966.51 205.82
  C 963.18 203.44 957.70 199.34 958.17 194.82
  Q 958.67 190.02 957.03 186.85
  C 955.09 183.09 957.33 180.32 958.14 177.33
  A 7.06 6.97 52.5 0 0 958.39 175.33
  Q 958.28 169.70 959.19 167.95
  Q 960.09 166.21 962.49 161.97
  A 10.88 10.53 69.5 0 0 963.38 159.93
  Q 967.41 146.95 968.52 144.05
  Q 972.53 133.62 981.84 128.69
  C 983.08 128.04 984.17 126.83 985.03 126.46
  A 2.06 2.05 -42.0 0 1 986.84 126.55
  Q 989.11 127.79 992.46 128.48
  A 2.90 2.87 80.6 0 1 994.37 129.86
  L 996.19 133.02
  A 5.49 5.46 84.2 0 0 999.15 135.45
  L 1012.48 140.03
  A 2.26 2.14 -33.6 0 0 1013.23 140.16
  L 1032.72 140.16
  A 1.66 1.66 0.0 0 0 1034.31 138.03
  Q 1033.04 133.74 1029.53 129.57
  C 1027.24 126.87 1023.80 127.91 1021.35 125.60
  C 1018.95 123.35 1016.78 121.01 1013.77 119.37
  Q 1011.41 118.08 1009.05 116.74
  A 6.69 6.34 79.3 0 1 1007.86 115.88
  C 1004.49 112.88 1001.01 107.58 995.60 109.50
  A 2.15 2.13 -37.0 0 1 993.63 109.23
  C 989.38 106.23 987.30 104.35 981.50 105.01
  C 978.77 105.33 976.16 105.61 975.29 107.59
  Q 973.76 111.09 970.48 111.87
  A 3.09 2.96 -1.9 0 0 968.16 114.24
  Q 967.31 118.88 964.76 123.82
  A 3.15 3.07 -6.6 0 1 963.94 124.83
  C 959.08 128.75 956.63 131.00 955.65 137.54
  A 3.01 2.99 69.7 0 1 954.98 139.01
  C 953.00 141.34 950.53 142.46 949.33 146.12
  A 1.65 1.59 -40.9 0 0 949.26 146.89
  L 949.84 150.88
  A 3.14 3.13 -23.5 0 1 948.70 153.76
  L 937.35 162.86
  A 2.37 2.36 41.8 0 1 934.60 163.01
  L 930.92 160.68
  A 3.30 3.24 -89.5 0 1 929.82 159.54
  L 926.40 153.62
  A 2.45 2.42 -54.3 0 1 926.13 151.91
  Q 926.83 148.50 928.07 146.29
  Q 931.00 141.05 932.60 136.25
  Q 933.20 134.44 934.84 132.59
  C 936.68 130.51 937.84 128.92 938.77 125.46
  Q 939.90 121.24 942.75 118.21
  C 944.02 116.86 944.37 115.28 944.40 113.84
  C 944.48 110.70 949.24 108.70 950.32 105.76
  C 950.93 104.10 950.97 100.33 948.58 99.65
  C 941.51 97.62 933.89 100.43 930.22 106.49
  C 927.78 110.50 926.37 111.81 923.74 115.41
  A 12.33 12.18 89.6 0 1 921.39 117.82
  C 917.00 121.21 913.30 123.68 912.02 129.39
  C 911.13 133.36 910.32 135.76 909.25 138.73
  A 2.48 2.46 -4.4 0 1 908.09 140.07
  Q 902.91 142.87 902.08 143.04
  Q 894.16 144.66 890.56 138.52
  A 3.67 3.60 30.1 0 1 890.07 136.74
  Q 890.03 131.18 890.45 130.13
  Q 892.08 126.03 892.45 122.22
  A 4.37 4.35 69.2 0 1 893.59 119.67
  L 896.73 116.26
  A 2.34 2.29 81.3 0 0 897.01 115.87
  Q 900.76 109.02 901.73 107.97
  Q 908.57 100.59 909.38 99.59
  A 1.24 1.23 -0.9 0 0 907.61 97.88
  C 906.67 98.69 905.07 98.76 903.95 99.27
  Q 896.22 102.76 894.32 104.22
  Q 890.77 106.95 883.49 115.47
  A 9.28 8.74 -1.0 0 1 882.32 116.61
  C 878.66 119.55 875.23 122.69 873.41 127.29
  Q 872.13 130.53 868.64 133.76
  A 2.29 2.28 41.0 0 0 868.89 137.30
  C 871.73 139.29 874.82 142.96 878.19 144.44
  Q 883.51 146.76 888.03 150.46
  A 1.86 1.85 -84.7 0 1 888.51 151.04
  L 889.87 153.65
  A 1.73 1.62 -84.3 0 0 890.23 154.12
  L 901.98 164.78
  A 1.67 1.41 -4.9 0 0 902.32 165.02
  L 906.44 167.45
  A 3.33 3.03 81.4 0 1 907.18 168.05
  Q 915.02 176.72 917.45 179.80
  Q 919.04 181.82 919.94 185.58
  A 3.57 3.50 20.9 0 0 920.49 186.78
  Q 921.96 188.82 923.07 189.51
  Q 927.03 192.00 929.51 195.43
  Q 930.75 197.16 933.05 199.01
  Q 936.78 202.01 939.28 207.28
  Q 941.81 212.62 946.84 214.62
  Q 950.46 216.06 949.79 220.06
  Q 948.73 226.46 952.68 230.24
  Q 957.12 234.49 958.17 235.36
  A 4.12 4.02 77.7 0 0 958.90 235.84
  Q 959.89 236.36 962.37 235.61
  Q 971.64 232.79 975.17 230.76
  A 3.54 3.44 -62.3 0 1 976.49 230.33
  Q 980.06 229.90 981.34 230.14
  C 985.73 230.94 988.34 229.78 992.01 228.05
  A 2.39 2.38 35.4 0 1 993.27 227.84
  C 996.20 228.13 997.69 228.22 999.74 225.96
  Q 1002.34 223.08 1002.53 219.32
  C 1002.58 218.23 1003.16 217.96 1003.33 217.22
  Z
  M 1108.72 117.18
  C 1107.70 120.82 1113.80 120.81 1116.37 121.10
  A 3.82 3.51 54.6 0 1 1117.12 121.26
  L 1128.97 125.21
  A 3.66 3.63 53.0 0 0 1130.22 125.39
  Q 1131.33 125.33 1132.73 124.59
  C 1134.80 123.49 1137.34 123.96 1139.58 123.85
  Q 1141.28 123.77 1145.82 121.37
  C 1149.00 119.68 1149.32 115.45 1145.74 114.25
  C 1140.25 112.39 1134.94 110.01 1129.25 112.27
  C 1126.47 113.38 1124.64 113.32 1121.74 113.49
  A 10.35 10.30 34.2 0 0 1119.24 113.96
  Q 1115.41 115.21 1110.45 115.70
  Q 1109.10 115.83 1108.72 117.18
  Z
  M 1096.45 264.59
  A 2.21 2.20 81.9 0 0 1098.69 266.28
  Q 1107.55 265.89 1116.23 268.06
  A 4.31 4.28 28.8 0 0 1120.38 266.87
  C 1123.78 263.32 1128.66 264.84 1132.82 263.53
  Q 1136.38 262.41 1138.52 261.28
  A 1.73 1.70 84.9 0 0 1139.35 260.27
  L 1140.47 256.51
  A 1.54 1.51 -13.4 0 1 1140.91 255.81
  L 1145.10 252.06
  A 4.13 4.12 69.2 0 0 1146.48 248.98
  L 1146.48 236.17
  A 1.70 1.69 58.1 0 1 1146.65 235.43
  Q 1148.46 231.67 1148.08 225.24
  C 1147.90 222.21 1146.39 219.63 1146.17 216.93
  A 4.04 3.83 52.2 0 1 1146.31 215.51
  C 1146.70 214.21 1147.82 213.23 1147.96 211.68
  Q 1148.45 206.39 1147.46 203.50
  Q 1146.55 200.84 1146.51 200.37
  A 2.37 2.34 -32.1 0 1 1146.84 198.97
  Q 1148.46 196.30 1147.31 193.09
  A 3.21 3.17 42.5 0 1 1147.22 191.29
  L 1149.22 183.00
  A 1.41 1.41 0.0 0 0 1149.22 182.30
  L 1148.80 180.55
  A 1.32 1.25 46.6 0 1 1148.80 179.88
  Q 1150.04 175.11 1151.92 170.23
  C 1152.95 167.53 1151.97 163.59 1152.28 160.20
  C 1152.50 157.73 1151.52 150.18 1148.33 149.11
  Q 1146.02 148.33 1144.09 148.65
  Q 1136.85 149.84 1132.16 148.71
  A 1.46 0.10 4.1 0 0 1132.01 148.69
  L 1122.71 148.34
  A 4.07 4.02 -29.2 0 1 1120.86 147.83
  Q 1116.89 145.63 1111.73 145.36
  C 1106.91 145.11 1102.20 141.41 1097.24 138.26
  Q 1095.50 137.16 1094.40 137.63
  Q 1093.63 137.96 1093.03 140.02
  Q 1092.38 142.23 1090.55 143.84
  A 3.64 3.61 -31.5 0 0 1089.57 147.86
  Q 1090.57 150.42 1089.69 153.36
  C 1088.81 156.31 1090.11 158.14 1088.86 161.34
  Q 1087.85 163.94 1087.79 166.74
  Q 1087.54 180.03 1087.58 181.26
  A 8.27 8.15 55.6 0 1 1086.95 184.75
  C 1085.80 187.48 1084.18 189.89 1085.05 192.95
  Q 1085.71 195.24 1083.99 196.72
  A 1.24 1.23 -44.1 0 0 1083.96 198.57
  Q 1085.30 199.81 1085.48 201.74
  Q 1085.56 202.65 1085.55 214.02
  C 1085.54 217.33 1083.04 219.47 1083.43 223.28
  A 2.58 2.55 -67.5 0 0 1083.97 224.60
  C 1086.18 227.37 1085.71 228.94 1084.88 232.00
  A 3.21 3.14 44.4 0 0 1084.92 233.78
  Q 1086.77 239.76 1084.33 244.39
  A 2.89 2.86 51.1 0 0 1084.11 246.55
  Q 1085.11 250.02 1087.06 252.45
  C 1090.04 256.18 1094.99 258.69 1096.45 264.59
  Z
  M 780.59 374.16
  L 781.23 373.82
  A 1.70 1.70 0.0 0 0 781.97 373.08
  Q 785.27 366.82 790.62 363.42
  A 5.18 5.18 0.0 0 0 792.18 361.86
  Q 796.18 355.55 803.55 352.28
  Q 805.63 351.36 806.32 351.02
  A 1.78 1.77 -4.4 0 0 807.19 350.01
  C 809.53 343.00 815.39 341.96 820.07 338.75
  A 10.50 10.40 4.7 0 0 821.57 337.49
  Q 826.61 332.27 829.20 329.97
  Q 831.03 328.34 838.68 324.68
  A 1.38 1.36 -87.7 0 0 839.32 324.08
  C 840.63 321.65 841.81 317.75 843.73 315.72
  Q 846.82 312.46 850.35 311.09
  Q 860.08 307.29 865.87 301.42
  C 867.38 299.89 869.01 298.87 870.32 297.78
  A 7.39 7.39 0.0 0 0 871.34 296.76
  L 879.56 286.79
  A 2.93 2.77 -84.8 0 1 880.31 286.13
  C 882.55 284.76 884.72 283.89 886.79 282.22
  Q 890.56 279.16 893.13 277.45
  A 7.76 7.71 -86.2 0 0 894.75 276.02
  L 897.64 272.64
  A 2.54 2.44 -84.8 0 1 898.24 272.12
  L 909.73 265.06
  A 1.55 1.41 2.7 0 0 910.08 264.77
  L 913.09 261.36
  A 4.23 4.18 -82.6 0 1 914.36 260.37
  Q 918.83 258.09 922.62 253.89
  Q 923.71 252.68 928.96 249.59
  C 930.86 248.47 932.31 247.23 933.74 245.70
  A 2.25 2.24 44.3 0 0 933.70 242.59
  Q 930.10 238.91 928.71 233.34
  C 928.20 231.30 927.10 229.11 925.69 227.79
  Q 920.46 222.92 915.83 215.65
  Q 915.00 214.35 914.07 212.08
  C 912.56 208.37 909.18 205.29 907.58 203.63
  C 904.74 200.68 902.58 196.57 899.56 193.92
  Q 896.74 191.44 892.65 189.73
  A 3.63 3.61 -81.0 0 1 890.43 186.66
  Q 890.31 185.08 889.76 183.39
  A 2.51 2.47 12.1 0 0 889.04 182.30
  C 886.07 179.71 883.83 175.82 880.94 173.52
  C 878.52 171.60 876.44 167.94 873.44 166.21
  C 869.27 163.79 866.65 160.28 862.98 157.95
  Q 860.00 156.05 855.05 151.15
  A 2.47 2.29 80.9 0 0 854.59 150.79
  L 846.99 146.06
  A 2.82 2.60 67.3 0 0 846.27 145.73
  L 833.58 142.09
  Q 833.56 142.08 833.54 142.07
  C 829.99 140.01 825.83 138.07 821.91 140.57
  Q 816.44 144.06 814.65 145.58
  C 810.92 148.74 807.42 150.36 803.70 153.70
  C 802.14 155.10 800.09 154.28 798.71 155.65
  C 796.52 157.81 794.33 159.72 790.97 160.71
  Q 787.59 161.71 779.49 165.51
  Q 773.93 168.12 771.08 170.90
  C 769.97 171.98 768.35 172.73 767.12 173.53
  A 12.72 12.60 -71.1 0 1 764.40 174.88
  C 759.70 176.56 755.88 178.14 752.45 181.46
  Q 749.49 184.31 745.07 184.94
  A 5.47 5.33 -61.4 0 0 743.48 185.43
  C 737.52 188.34 733.38 190.14 729.50 193.89
  Q 728.27 195.07 727.69 195.27
  C 726.07 195.84 724.21 196.06 723.10 197.09
  Q 716.51 203.31 707.17 205.97
  A 2.24 2.23 3.7 0 0 705.74 207.22
  Q 704.75 209.52 702.73 211.15
  C 700.90 212.61 697.75 213.32 696.05 214.56
  Q 691.69 217.73 688.16 220.31
  Q 685.21 222.47 682.45 223.58
  Q 679.36 224.82 676.34 226.08
  Q 674.92 226.67 674.00 228.80
  A 1.07 1.06 43.4 0 0 674.03 229.73
  Q 674.85 231.34 676.84 231.71
  Q 683.72 232.97 688.03 234.31
  A 3.28 3.24 71.9 0 1 689.04 234.83
  L 692.07 237.18
  A 10.76 10.39 75.5 0 0 694.08 238.41
  Q 700.02 241.16 705.88 244.11
  Q 707.70 245.03 711.85 245.32
  A 0.80 0.80 0.0 0 1 712.50 245.74
  L 716.27 252.99
  A 1.95 1.90 -87.9 0 0 716.95 253.74
  L 726.06 259.56
  A 19.30 19.05 84.6 0 1 729.82 262.71
  Q 734.34 268.33 739.57 272.63
  C 741.05 273.84 742.90 276.18 743.44 277.43
  Q 745.87 283.01 750.27 288.66
  A 3.18 3.14 85.4 0 0 751.21 289.47
  C 755.39 291.87 755.60 295.14 756.91 298.50
  C 757.85 300.91 759.74 303.03 760.94 305.19
  A 5.02 5.02 0.0 0 1 761.55 307.20
  Q 761.83 310.78 763.91 314.49
  A 3.28 3.21 87.5 0 0 765.35 315.84
  Q 768.18 317.16 770.44 319.64
  A 4.34 4.31 24.0 0 1 771.57 322.55
  C 771.58 325.66 771.29 330.46 772.58 332.95
  C 773.52 334.75 775.29 337.21 775.29 339.56
  Q 775.27 349.20 778.94 358.03
  A 6.21 5.97 30.6 0 1 779.33 359.43
  Q 780.49 367.18 778.87 372.75
  A 1.21 1.21 0.0 0 0 780.59 374.16
  Z
  M 1065.28 162.41
  A 1.00 1.00 0.0 0 0 1063.34 162.52
  L 1062.94 164.58
  A 2.45 2.44 2.7 0 1 1060.78 166.54
  C 1058.59 166.77 1056.80 167.37 1055.22 169.06
  C 1052.75 171.71 1049.14 175.01 1049.66 178.46
  Q 1050.28 182.62 1048.43 186.39
  Q 1047.76 187.73 1047.66 188.87
  Q 1047.47 190.98 1047.64 191.38
  Q 1049.73 196.28 1049.82 201.27
  A 4.09 4.09 0.0 0 0 1050.79 203.86
  Q 1052.89 206.34 1054.50 209.33
  A 0.45 0.12 75.1 0 0 1054.54 209.40
  L 1062.18 219.04
  A 1.22 1.22 0.0 0 0 1064.36 218.35
  Q 1064.64 213.69 1063.22 209.86
  C 1062.14 206.99 1062.41 205.72 1063.24 202.68
  C 1063.91 200.23 1062.29 198.12 1062.19 195.77
  Q 1061.85 187.82 1062.60 183.07
  Q 1062.81 181.68 1064.99 178.14
  A 5.23 4.98 -23.8 0 0 1065.62 176.63
  Q 1067.44 169.08 1065.28 162.41
  Z
  M 759.44 405.57
  Q 761.01 401.60 760.37 397.35
  C 759.93 394.43 758.54 391.88 759.61 389.18
  C 760.50 386.93 759.83 384.68 759.01 382.67
  A 0.82 0.81 -58.8 0 1 758.95 382.42
  L 757.80 362.44
  A 4.99 4.95 26.8 0 0 756.99 360.01
  Q 755.09 357.13 753.89 354.06
  C 752.64 350.84 751.37 348.31 753.36 345.57
  A 1.63 1.63 0.0 0 0 753.26 343.53
  C 749.77 339.55 749.52 335.04 748.18 329.95
  A 9.30 9.24 21.8 0 0 747.06 327.36
  C 745.70 325.20 744.61 323.58 743.95 321.42
  C 742.55 316.80 739.81 314.09 737.03 310.34
  Q 730.44 301.43 729.34 299.75
  A 11.41 11.09 5.5 0 0 727.61 297.71
  Q 722.31 292.83 719.65 286.48
  A 4.77 4.76 -89.4 0 0 717.18 283.95
  C 714.26 282.66 712.14 281.27 710.07 278.51
  Q 707.79 275.48 705.51 273.77
  Q 700.07 269.69 693.46 266.26
  A 11.37 11.35 78.8 0 1 691.34 264.84
  Q 686.32 260.58 681.85 258.89
  C 679.95 258.17 677.67 256.04 675.97 255.68
  Q 671.10 254.66 665.73 252.91
  A 5.44 5.39 70.7 0 1 664.31 252.22
  Q 661.71 250.46 660.60 249.94
  C 659.03 249.19 656.09 250.05 654.41 249.89
  Q 651.99 249.67 649.53 249.75
  Q 644.47 249.90 640.74 246.98
  C 638.08 244.89 636.30 245.17 633.98 247.06
  A 1.31 1.31 0.0 0 1 632.42 247.12
  C 628.83 244.62 625.37 246.28 622.18 248.36
  A 1.66 1.66 0.0 0 1 619.99 248.01
  Q 617.82 245.34 613.99 245.49
  C 611.11 245.60 605.26 245.16 600.99 245.64
  Q 597.94 245.98 595.17 245.59
  A 3.19 3.12 -49.2 0 0 593.77 245.71
  L 589.83 246.95
  A 4.77 4.27 -53.9 0 1 588.90 247.15
  C 581.71 247.93 576.42 248.39 571.27 250.37
  A 2.95 2.71 29.0 0 1 570.56 250.54
  L 559.75 251.81
  A 2.76 2.62 -59.4 0 0 558.94 252.04
  Q 556.39 253.20 555.47 253.24
  Q 546.75 253.56 542.15 255.47
  Q 541.55 255.72 534.94 258.52
  A 11.15 11.08 31.8 0 1 531.27 259.37
  L 528.52 259.53
  A 3.30 3.18 -58.0 0 0 527.44 259.80
  Q 525.30 260.78 522.67 261.72
  C 520.57 262.48 517.73 265.23 515.49 265.27
  C 510.90 265.34 509.21 265.76 505.74 267.98
  A 6.28 6.24 23.8 0 1 503.44 268.86
  C 498.98 269.61 496.72 271.01 492.75 273.58
  A 7.90 7.63 -68.5 0 1 490.75 274.49
  Q 484.46 276.34 479.08 280.78
  A 10.29 10.09 -75.3 0 1 476.40 282.38
  Q 471.33 284.44 468.79 285.99
  Q 467.41 286.84 465.11 287.22
  C 462.61 287.63 460.68 289.17 459.54 291.25
  Q 458.15 293.77 457.94 293.99
  A 2.79 2.70 7.8 0 1 457.15 294.57
  Q 452.71 296.79 447.08 298.64
  Q 446.26 298.91 443.96 301.51
  A 9.19 9.17 -85.5 0 1 442.03 303.16
  Q 437.78 305.89 435.22 308.09
  C 433.20 309.83 429.55 310.14 427.93 312.83
  Q 423.62 319.96 417.07 323.34
  A 4.84 4.83 -5.1 0 0 414.66 326.21
  L 413.53 329.82
  A 2.49 2.22 -21.7 0 1 413.20 330.48
  Q 411.10 333.53 410.22 334.03
  Q 406.33 336.20 404.62 337.31
  A 5.62 5.59 79.6 0 0 402.16 340.89
  Q 401.32 344.95 397.93 349.62
  A 1.37 1.37 0.0 0 0 398.62 351.73
  Q 399.61 352.04 401.92 352.13
  C 404.03 352.21 406.19 351.23 408.25 351.51
  Q 413.19 352.17 415.57 352.80
  A 4.35 4.24 45.7 0 0 417.51 352.85
  L 420.63 352.19
  A 4.14 3.69 -48.4 0 1 421.31 352.11
  L 430.95 351.99
  A 0.61 0.51 -49.7 0 0 431.13 351.96
  L 437.99 349.80
  A 1.76 1.76 0.0 0 1 439.42 349.96
  C 443.20 352.18 444.34 351.57 448.08 350.29
  A 2.30 2.23 -51.1 0 1 449.06 350.17
  Q 449.41 350.21 452.01 351.45
  Q 454.18 352.48 457.25 351.79
  A 0.55 0.23 -40.3 0 0 457.38 351.75
  L 459.77 350.58
  A 4.53 4.50 31.8 0 1 461.67 350.14
  L 466.90 350.08
  A 10.28 10.15 -51.7 0 0 469.23 349.79
  C 474.00 348.61 478.76 347.03 483.10 349.55
  A 4.28 4.27 -46.7 0 0 487.62 349.41
  Q 493.39 345.59 500.62 346.13
  A 1.11 1.09 66.7 0 1 501.21 346.37
  L 502.93 347.79
  A 1.94 1.92 -44.6 0 0 505.37 347.80
  L 506.94 346.54
  A 1.40 1.37 -64.6 0 1 507.78 346.23
  Q 513.18 346.01 514.22 346.49
  Q 517.82 348.14 520.22 348.12
  Q 526.29 348.08 532.51 348.23
  Q 534.11 348.26 536.98 346.91
  Q 540.81 345.11 544.07 347.16
  C 546.81 348.88 548.80 346.02 551.41 346.51
  Q 552.39 346.70 554.49 347.65
  A 6.47 6.39 -32.5 0 0 557.14 348.22
  L 583.21 348.22
  A 1.05 1.00 32.3 0 0 583.61 348.14
  L 587.20 346.65
  A 3.42 3.41 -45.6 0 1 589.73 346.62
  Q 592.12 347.56 598.60 349.28
  C 601.91 350.16 605.55 349.92 608.20 350.50
  A 6.17 6.12 -44.1 0 0 610.63 350.53
  Q 616.51 349.43 622.80 350.56
  A 3.26 3.26 0.0 0 0 624.04 350.56
  Q 627.06 349.99 628.50 349.98
  Q 633.09 349.93 653.21 350.33
  Q 654.39 350.36 657.62 352.74
  A 6.62 6.59 68.8 0 0 660.21 353.89
  L 666.08 355.13
  A 4.20 2.92 17.5 0 0 666.66 355.22
  L 675.64 355.96
  A 1.86 1.75 -46.7 0 0 676.14 355.93
  L 680.06 355.10
  A 1.15 1.14 -39.5 0 1 680.72 355.16
  C 683.78 356.37 686.23 357.47 688.94 357.84
  C 692.38 358.30 695.16 359.76 698.63 360.34
  Q 701.03 360.74 710.52 362.85
  A 2.03 1.11 -2.4 0 1 710.77 362.92
  L 722.48 367.49
  A 2.95 2.42 -12.0 0 1 723.00 367.76
  Q 727.88 370.95 734.52 375.24
  C 737.77 377.34 739.70 379.31 741.87 381.80
  A 28.63 28.54 -3.9 0 0 747.76 386.93
  C 751.41 389.32 753.02 390.37 754.97 395.20
  A 3.17 2.83 35.0 0 1 755.20 396.18
  Q 755.51 400.33 755.90 404.31
  Q 756.03 405.64 757.19 406.29
  A 1.60 1.53 25.9 0 0 759.44 405.57
  Z
  M 351.75 354.65
  A 0.99 0.98 6.2 0 0 352.53 355.61
  C 355.78 356.33 359.03 356.29 362.27 355.32
  Q 365.71 354.30 368.87 353.92
  A 3.02 3.01 -80.0 0 0 371.21 352.28
  Q 372.72 349.28 373.42 345.54
  A 6.02 5.98 -26.4 0 1 373.98 343.90
  L 383.38 325.88
  A 2.32 2.13 -11.6 0 1 383.80 325.30
  L 391.09 317.86
  A 2.89 2.87 67.7 0 0 391.92 315.86
  Q 392.01 308.14 399.01 303.00
  A 4.42 4.31 16.0 0 1 400.05 302.44
  Q 403.93 301.02 406.95 299.65
  Q 408.20 299.08 409.87 296.05
  A 5.80 5.78 -8.0 0 1 410.89 294.70
  Q 416.15 289.52 421.33 287.21
  A 5.60 5.56 -79.3 0 0 423.00 286.06
  L 430.53 278.53
  A 16.76 16.46 5.3 0 1 433.13 276.41
  L 437.75 273.35
  A 6.01 5.97 -65.0 0 1 440.33 272.40
  C 444.07 271.97 446.76 272.07 449.07 268.74
  A 2.08 1.58 -52.5 0 0 449.08 266.30
  Q 448.72 265.96 447.68 265.82
  Q 442.21 265.10 440.10 264.47
  A 2.13 2.13 0.0 0 0 438.92 264.47
  C 436.55 265.13 434.70 266.81 432.34 264.72
  A 2.09 2.08 50.2 0 0 429.88 264.49
  C 426.69 266.38 424.41 267.32 419.83 267.05
  Q 414.04 266.72 409.28 270.64
  A 6.00 5.89 -71.6 0 1 407.04 271.79
  C 401.86 273.17 396.95 275.12 394.05 279.66
  A 1.80 1.78 5.7 0 1 393.17 280.37
  C 389.39 281.79 386.55 281.48 383.74 285.50
  Q 381.96 288.06 381.45 288.35
  A 3.78 3.38 19.1 0 1 380.66 288.68
  C 377.12 289.67 372.66 291.42 370.26 294.89
  Q 368.13 297.98 364.58 299.78
  Q 364.52 299.81 362.41 302.37
  A 2.03 1.92 78.9 0 0 362.10 302.86
  L 358.43 311.39
  A 3.94 3.82 -11.5 0 1 357.58 312.63
  Q 352.41 317.62 349.76 325.90
  A 3.32 3.25 -36.9 0 0 349.61 326.88
  L 349.61 333.71
  A 1.68 1.64 -29.3 0 1 349.35 334.60
  L 347.92 336.85
  A 2.10 2.09 39.6 0 0 348.17 339.41
  C 349.07 340.37 349.65 341.20 349.57 342.56
  Q 349.37 346.37 351.44 349.68
  A 2.07 2.06 -61.0 0 1 351.75 350.77
  L 351.75 354.65
  Z
  M 744.92 988.07
  L 745.73 986.51
  A 3.34 3.28 -28.5 0 0 746.08 985.37
  Q 746.37 982.72 747.97 979.71
  A 2.56 2.54 58.8 0 0 748.27 978.47
  Q 748.24 977.11 747.35 975.84
  C 745.51 973.22 746.39 969.78 747.74 967.24
  A 3.40 3.38 43.9 0 0 747.67 963.93
  L 744.45 958.43
  A 1.32 1.22 26.7 0 1 744.30 958.03
  Q 743.73 954.86 744.78 951.59
  A 2.97 2.90 48.8 0 0 744.86 950.12
  L 744.21 947.05
  A 1.43 1.26 -55.5 0 1 744.17 946.72
  C 744.07 942.78 744.68 937.47 744.19 932.46
  C 743.88 929.33 745.17 928.03 746.25 925.97
  A 4.26 4.25 49.7 0 0 746.52 922.63
  Q 743.75 914.41 742.76 906.76
  C 742.48 904.60 744.37 902.34 744.04 900.25
  Q 743.94 899.64 742.93 896.14
  Q 741.41 890.84 743.70 886.83
  A 1.47 1.45 54.4 0 0 743.87 885.78
  L 743.36 883.35
  A 2.55 2.36 42.8 0 1 743.31 882.69
  C 743.70 877.32 744.34 874.58 743.85 870.03
  Q 743.70 868.65 743.97 864.07
  A 2.40 2.38 13.2 0 0 742.51 861.73
  C 740.10 860.71 740.44 858.76 741.07 856.49
  Q 743.95 846.08 743.81 835.63
  Q 743.77 832.41 744.09 829.35
  C 744.41 826.34 743.59 823.13 745.15 820.00
  C 746.48 817.33 746.64 815.55 744.84 813.09
  A 2.54 2.50 21.4 0 1 744.41 812.12
  Q 743.14 806.25 745.84 799.29
  Q 747.48 795.09 744.32 790.37
  A 2.55 2.47 24.9 0 1 743.93 789.35
  L 743.07 783.71
  A 2.17 2.06 -41.3 0 1 743.16 782.70
  Q 743.53 781.81 745.21 779.98
  Q 747.11 777.93 748.25 774.76
  A 3.64 3.58 -34.5 0 0 748.46 773.67
  L 748.65 764.39
  A 7.68 7.26 53.4 0 1 748.84 762.80
  L 750.19 756.85
  A 0.33 0.22 -52.0 0 0 750.20 756.72
  Q 750.02 747.63 750.66 742.81
  A 5.01 4.86 44.1 0 0 750.61 741.19
  L 750.36 739.56
  A 4.42 3.92 -52.9 0 1 750.31 738.91
  L 750.37 724.54
  A 1.87 1.81 55.4 0 1 750.47 723.94
  L 750.94 722.56
  A 4.27 4.17 51.9 0 0 751.15 720.64
  L 750.10 711.66
  A 2.94 2.89 -37.6 0 1 750.31 710.15
  Q 751.89 706.36 752.00 705.46
  Q 752.48 701.75 752.30 696.26
  A 6.50 6.26 52.0 0 1 752.47 694.63
  L 753.47 690.45
  A 2.51 2.48 33.4 0 0 753.04 688.40
  Q 749.40 683.55 751.93 676.74
  Q 753.57 672.33 754.24 670.72
  A 1.96 1.94 -45.6 0 0 754.23 669.17
  L 753.29 667.07
  A 4.70 4.51 -59.7 0 1 752.91 665.49
  Q 752.27 655.36 754.82 644.94
  C 755.57 641.89 757.07 641.52 755.29 637.75
  C 753.75 634.51 755.73 632.69 755.11 629.87
  Q 754.25 625.92 755.96 620.68
  Q 756.42 619.28 756.33 617.81
  C 756.14 614.80 755.81 614.03 757.17 611.05
  Q 758.24 608.70 758.16 606.44
  A 4.23 4.18 -56.0 0 0 757.92 605.16
  Q 756.61 601.33 756.54 600.47
  C 756.35 597.77 756.38 594.21 755.44 591.34
  C 753.92 586.70 760.87 586.22 756.70 581.09
  A 1.95 1.94 -51.8 0 1 756.46 579.03
  L 758.06 575.75
  A 1.45 1.40 59.3 0 0 758.19 575.20
  Q 758.22 565.07 758.43 560.26
  Q 758.74 553.29 757.43 549.72
  A 1.95 1.89 -48.9 0 1 757.37 548.57
  L 758.05 545.93
  A 1.58 1.38 -41.3 0 0 758.10 545.55
  L 758.10 537.08
  A 1.57 1.51 29.8 0 0 757.86 536.26
  L 756.57 534.23
  A 3.25 3.23 41.9 0 1 756.39 531.06
  C 759.43 524.93 758.31 523.67 753.67 519.20
  A 4.77 4.76 -77.1 0 1 752.42 517.20
  L 747.93 502.94
  A 4.28 4.25 -50.6 0 1 747.76 501.14
  L 748.71 493.35
  A 3.74 3.73 -28.0 0 1 749.10 492.08
  Q 749.39 491.51 751.70 486.95
  Q 752.23 485.89 751.50 482.72
  A 3.16 3.10 -46.5 0 1 751.48 481.41
  L 753.67 470.26
  A 1.38 1.34 36.3 0 0 753.51 469.31
  C 752.01 466.86 750.18 464.77 749.13 461.90
  C 748.35 459.77 748.59 456.79 748.44 455.16
  A 7.32 7.19 -60.0 0 0 747.86 452.92
  C 747.04 451.05 745.24 449.86 747.86 447.38
  A 1.44 1.43 54.9 0 0 748.15 445.67
  L 744.64 438.92
  A 1.95 1.81 29.8 0 1 744.43 438.25
  L 743.73 431.86
  A 2.43 2.08 -62.4 0 0 743.62 431.38
  Q 742.80 429.17 741.57 427.91
  Q 736.18 422.44 733.46 417.33
  Q 731.33 413.31 727.01 407.03
  C 724.51 403.38 720.58 401.30 718.23 397.36
  A 3.37 3.36 -6.4 0 0 716.37 395.88
  Q 709.73 393.72 703.94 388.83
  A 4.52 4.30 76.2 0 0 702.94 388.19
  Q 697.05 385.51 692.02 385.05
  A 2.76 2.63 -25.0 0 1 690.83 384.65
  L 687.32 382.43
  A 4.26 4.24 68.3 0 0 686.05 381.88
  C 681.92 380.87 678.57 381.15 674.07 381.12
  Q 671.76 381.11 669.41 380.11
  Q 667.03 379.09 663.83 379.46
  A 3.27 3.22 -37.1 0 1 662.23 379.25
  C 658.37 377.72 654.54 373.66 650.60 375.83
  A 2.77 2.76 -54.6 0 1 648.84 376.13
  Q 644.42 375.39 640.19 374.41
  C 635.81 373.39 630.82 373.29 627.21 373.47
  A 6.42 6.19 -54.8 0 0 625.43 373.81
  Q 625.28 373.86 622.77 374.75
  C 620.73 375.48 619.78 373.43 618.41 372.84
  C 616.56 372.05 613.52 373.23 611.43 373.73
  A 1.79 1.78 48.6 0 1 610.37 373.66
  C 608.35 372.86 607.25 370.78 604.98 373.03
  A 1.78 1.76 44.3 0 1 602.52 373.05
  C 601.82 372.38 600.88 371.82 599.83 372.55
  C 597.67 374.05 595.35 373.14 593.53 374.06
  C 592.01 374.82 589.89 375.60 588.30 374.46
  C 585.51 372.47 583.70 374.98 581.05 375.13
  A 2.36 2.32 -36.5 0 1 580.12 375.00
  Q 570.32 371.47 561.14 374.86
  A 2.88 2.87 -36.6 0 1 558.42 374.46
  C 555.68 372.42 553.36 370.60 549.56 371.86
  Q 548.80 372.11 545.75 373.23
  A 3.18 2.92 -53.1 0 1 544.67 373.43
  Q 536.26 373.47 531.74 373.40
  C 528.91 373.37 527.17 375.65 524.04 374.42
  C 522.51 373.82 521.19 374.17 519.57 374.37
  A 3.64 3.52 -36.2 0 1 517.68 374.11
  Q 515.62 373.22 513.39 373.43
  A 3.37 3.33 53.9 0 1 511.79 373.17
  C 509.77 372.29 508.30 371.28 506.50 372.49
  C 503.26 374.66 498.81 372.78 494.83 373.86
  Q 490.42 375.06 488.97 375.05
  Q 485.19 375.04 482.51 375.08
  C 480.46 375.11 478.83 373.74 476.75 374.09
  Q 475.23 374.34 473.29 373.83
  C 470.71 373.14 469.46 375.09 466.98 375.01
  Q 463.64 374.89 458.87 376.81
  Q 455.66 378.09 451.47 375.94
  C 450.24 375.31 449.30 375.03 448.22 375.96
  C 446.46 377.48 444.92 377.55 443.41 375.63
  A 1.22 1.20 66.4 0 0 442.27 375.17
  Q 440.99 375.36 439.31 376.99
  A 1.00 0.96 22.2 0 1 438.63 377.26
  L 428.52 377.26
  A 2.43 2.38 -28.6 0 1 427.25 376.90
  L 425.80 375.98
  A 1.19 1.19 0.0 0 0 424.61 375.93
  L 419.73 378.47
  A 0.78 0.77 41.7 0 1 419.09 378.50
  Q 415.92 377.18 415.05 377.28
  Q 412.81 377.54 408.75 375.86
  Q 403.88 373.85 399.78 376.36
  Q 398.62 377.08 397.93 377.18
  C 396.05 377.44 395.23 377.60 393.16 378.71
  C 390.33 380.21 388.94 379.26 385.45 378.20
  A 3.06 3.03 -44.1 0 0 383.74 378.18
  C 381.59 378.79 379.88 380.35 377.62 379.13
  Q 376.23 378.39 375.38 377.97
  A 4.10 3.99 58.0 0 0 373.70 377.56
  Q 368.66 377.43 363.20 377.63
  C 360.98 377.70 359.72 378.50 357.98 379.78
  A 4.59 4.59 0.0 0 1 355.34 380.66
  L 344.45 380.80
  A 4.67 4.61 51.7 0 1 343.17 380.64
  C 338.27 379.33 333.49 379.47 325.24 379.50
  C 323.11 379.50 321.28 377.64 319.24 377.45
  C 316.44 377.17 313.89 378.47 309.04 380.04
  Q 301.78 382.38 294.84 380.10
  A 9.09 8.88 53.6 0 0 292.10 379.65
  Q 277.34 379.58 272.84 379.43
  Q 271.60 379.39 269.83 380.30
  C 265.50 382.52 263.66 379.00 259.25 379.68
  A 2.04 2.01 56.2 0 1 257.85 379.39
  L 255.90 378.15
  A 1.55 1.54 -48.0 0 0 254.12 378.25
  L 252.65 379.43
  A 1.29 1.29 0.0 0 1 251.67 379.71
  Q 247.93 379.26 241.74 379.15
  C 240.05 379.12 238.42 378.77 237.22 380.08
  A 1.50 1.49 -30.0 0 0 236.86 381.40
  Q 238.29 388.34 238.07 396.51
  A 8.74 8.72 37.2 0 0 238.45 399.25
  Q 240.36 405.36 238.87 411.35
  C 238.14 414.31 233.01 417.74 237.03 422.15
  C 238.37 423.62 238.84 424.32 238.33 426.74
  Q 236.99 433.06 238.54 439.91
  C 239.12 442.49 240.31 443.32 238.44 446.14
  C 236.55 448.97 238.32 453.12 239.25 456.45
  A 4.62 4.61 -47.2 0 1 239.33 458.61
  C 238.88 460.83 237.51 462.95 237.58 465.20
  Q 237.70 469.33 239.23 472.89
  A 3.21 3.19 -43.1 0 1 239.13 475.61
  L 236.87 479.94
  A 2.65 2.64 47.6 0 0 236.77 482.19
  L 237.52 483.97
  A 1.79 1.69 35.1 0 1 237.66 484.65
  L 237.84 501.76
  A 0.45 0.41 58.9 0 1 237.79 502.00
  L 236.40 504.66
  A 2.58 2.56 -50.8 0 0 236.67 507.45
  L 238.59 509.84
  A 2.23 2.18 -72.2 0 1 239.02 510.70
  Q 239.88 514.10 241.03 515.87
  A 1.32 1.31 -35.1 0 1 240.72 517.63
  C 237.40 520.17 237.57 522.58 237.69 527.07
  Q 237.82 531.84 239.37 535.67
  A 1.80 1.62 36.2 0 1 239.49 536.24
  L 239.60 542.70
  A 3.48 3.46 58.5 0 1 239.21 544.34
  Q 236.43 549.64 238.80 555.97
  Q 239.62 558.14 239.57 559.84
  C 239.46 563.64 239.72 565.15 238.29 568.43
  Q 236.89 571.66 237.94 576.89
  A 0.81 0.78 88.3 0 0 238.60 577.53
  Q 246.92 578.87 253.49 576.52
  A 5.09 4.83 33.0 0 1 255.05 576.23
  L 269.95 575.83
  A 0.48 0.38 -51.3 0 0 270.13 575.79
  Q 274.34 573.84 279.96 574.01
  A 6.39 6.35 -55.4 0 0 282.69 573.50
  Q 286.66 571.81 291.91 572.14
  Q 292.71 572.19 295.04 573.67
  A 1.62 1.61 47.0 0 0 296.63 573.73
  L 298.31 572.86
  A 1.38 1.38 0.0 0 1 299.72 572.94
  Q 301.55 574.17 303.95 573.14
  A 2.70 2.67 40.4 0 1 305.68 573.01
  L 307.53 573.50
  A 0.84 0.81 45.8 0 0 307.91 573.51
  L 323.71 570.17
  A 3.00 2.81 37.4 0 1 324.30 570.11
  L 335.23 570.16
  A 3.48 3.44 55.2 0 1 336.47 570.39
  L 339.82 571.68
  A 1.34 1.29 -33.4 0 0 340.30 571.77
  L 353.20 571.95
  A 5.66 5.59 31.3 0 0 355.89 571.31
  L 356.94 570.77
  A 2.32 2.30 -47.8 0 1 358.86 570.67
  Q 361.59 571.75 365.02 572.99
  Q 366.06 573.36 368.63 572.83
  A 5.67 5.64 45.1 0 1 371.05 572.84
  Q 373.96 573.50 376.38 573.18
  C 378.96 572.84 380.60 574.88 383.23 573.17
  Q 384.70 572.21 386.19 572.03
  Q 394.32 571.09 401.52 572.35
  Q 401.53 572.35 401.54 572.35
  L 423.03 571.75
  A 4.22 4.18 60.8 0 1 425.49 572.46
  C 427.15 573.57 427.99 574.18 430.20 573.91
  Q 433.44 573.52 436.38 573.44
  C 438.21 573.38 439.21 571.00 441.27 572.67
  Q 442.28 573.50 442.53 573.63
  A 4.35 4.31 -30.4 0 0 444.45 574.12
  L 454.75 574.27
  A 1.58 1.38 -48.7 0 0 455.13 574.22
  L 465.30 571.38
  A 3.71 3.70 11.6 0 0 467.21 570.12
  Q 471.23 565.04 477.76 564.15
  C 481.93 563.58 484.99 566.43 488.33 569.37
  C 491.24 571.94 493.42 572.52 496.04 569.83
  A 1.30 1.29 -47.1 0 1 497.82 569.76
  Q 501.95 573.36 507.95 571.05
  A 3.67 3.63 33.4 0 1 509.11 570.82
  L 529.74 570.02
  A 9.75 9.74 53.3 0 1 533.17 570.52
  C 536.82 571.74 538.30 572.52 542.15 570.19
  A 4.54 4.50 -55.9 0 1 545.20 569.59
  C 550.98 570.53 557.20 570.78 563.24 569.28
  Q 564.56 568.95 567.52 569.84
  A 6.05 5.91 -36.2 0 0 569.20 570.08
  L 584.51 570.08
  A 4.97 4.96 -57.7 0 0 586.66 569.59
  Q 590.34 567.84 597.52 568.24
  Q 606.32 568.73 611.01 570.17
  C 613.70 571.00 617.11 569.18 619.95 569.43
  Q 622.64 569.68 625.52 569.02
  A 2.36 2.35 53.1 0 1 627.19 569.26
  C 630.36 571.00 631.66 573.82 634.50 578.18
  A 2.18 2.16 -50.8 0 1 634.69 580.17
  Q 633.49 583.16 633.38 586.64
  A 4.54 4.53 57.3 0 1 633.02 588.31
  Q 632.00 590.78 631.35 592.12
  C 629.89 595.15 625.75 594.39 623.63 595.37
  Q 617.98 597.99 616.22 599.13
  A 1.13 1.11 36.9 0 1 615.25 599.26
  C 614.23 598.93 613.12 597.98 612.11 597.60
  Q 609.61 596.64 605.61 598.40
  A 2.02 1.99 -49.2 0 1 604.28 598.51
  L 597.16 596.68
  A 1.45 0.88 36.6 0 1 596.98 596.61
  L 595.38 595.78
  A 4.86 4.79 60.1 0 0 593.43 595.24
  Q 584.82 594.74 581.48 595.42
  Q 580.52 595.62 576.73 597.20
  A 2.91 2.78 -57.0 0 1 575.80 597.42
  C 571.66 597.71 569.48 596.22 566.43 595.10
  Q 564.91 594.54 563.61 594.63
  A 1.17 1.17 0.0 0 0 562.58 596.16
  Q 564.52 602.13 562.75 606.86
  A 3.00 2.91 -39.4 0 0 562.59 608.29
  C 562.78 609.73 563.63 610.83 563.24 612.51
  Q 562.97 613.65 562.13 615.21
  A 1.75 1.74 -49.4 0 0 562.27 617.11
  Q 563.90 619.25 563.72 621.46
  C 563.58 623.15 561.38 624.21 561.41 626.49
  C 561.46 630.77 561.23 632.33 561.99 636.10
  Q 562.59 639.10 563.37 642.83
  A 12.17 11.93 39.5 0 1 563.62 645.17
  Q 563.68 649.22 563.80 652.00
  Q 563.91 654.50 564.60 655.17
  C 565.75 656.29 567.31 656.70 567.35 658.75
  Q 567.42 663.42 567.09 664.16
  Q 565.56 667.57 565.77 670.78
  C 565.87 672.28 565.31 672.88 564.46 674.31
  A 4.41 4.39 62.9 0 0 563.88 676.12
  Q 563.39 681.46 563.94 685.85
  C 564.15 687.49 565.33 688.83 565.76 690.24
  A 1.63 1.61 -43.1 0 1 565.72 691.29
  C 564.33 694.82 565.86 697.71 565.73 701.10
  Q 565.47 708.37 566.45 713.23
  C 567.13 716.63 566.23 719.77 567.24 723.50
  Q 567.52 724.56 567.19 730.88
  A 3.38 3.29 -31.1 0 1 566.83 732.25
  Q 565.75 734.35 564.82 735.35
  C 563.32 736.96 564.13 739.20 564.68 741.61
  C 565.05 743.21 564.22 745.67 564.13 747.30
  A 4.42 4.38 36.8 0 0 564.39 749.05
  Q 565.38 751.83 565.42 753.00
  C 565.59 757.80 565.36 764.78 566.85 770.76
  C 567.94 775.16 566.78 779.08 567.26 783.57
  Q 567.58 786.50 566.54 790.06
  C 565.90 792.26 566.15 793.73 566.30 795.93
  A 13.92 13.63 -44.4 0 1 566.25 798.33
  Q 565.39 806.04 566.03 809.26
  Q 567.30 815.72 567.18 821.01
  Q 566.71 842.54 567.65 859.84
  Q 567.72 861.18 568.95 864.33
  Q 569.77 866.43 569.61 873.30
  A 2.53 2.46 -29.1 0 1 569.22 874.60
  L 567.78 876.87
  A 2.30 2.30 0.0 0 0 567.43 878.09
  L 567.43 887.43
  A 5.73 5.70 37.1 0 0 567.65 889.00
  Q 569.35 894.84 570.61 897.98
  C 572.28 902.19 572.45 904.42 571.87 909.09
  Q 571.42 912.76 571.61 926.23
  A 2.55 2.52 36.6 0 0 571.70 926.82
  L 573.00 931.45
  A 2.27 2.24 -42.3 0 1 572.92 932.91
  L 571.67 936.01
  A 2.09 2.09 0.0 0 0 571.57 937.24
  L 573.03 944.15
  A 2.54 2.47 -41.4 0 1 572.92 945.55
  Q 572.15 947.54 572.43 949.28
  C 572.85 951.89 571.13 954.00 571.96 956.79
  C 573.24 961.03 571.81 964.01 570.98 967.78
  A 2.81 2.75 42.8 0 0 571.05 969.19
  C 572.10 972.57 573.21 977.84 575.02 982.44
  Q 575.90 984.69 575.57 987.60
  A 3.11 3.10 64.5 0 1 575.10 988.93
  C 573.12 991.98 572.73 993.63 573.59 996.92
  A 0.94 0.93 -2.0 0 0 574.32 997.60
  Q 579.49 998.66 584.00 998.09
  A 4.18 4.14 52.7 0 1 586.20 998.40
  Q 593.49 1001.60 601.00 998.70
  A 5.54 5.29 -55.0 0 1 602.85 998.33
  Q 608.49 998.20 615.49 997.39
  C 616.79 997.24 619.52 998.06 621.20 998.13
  Q 627.61 998.36 638.47 998.23
  Q 642.34 998.18 646.97 997.18
  Q 651.63 996.17 657.18 996.17
  C 658.95 996.17 660.16 996.77 661.11 997.71
  A 1.70 1.70 0.0 0 0 663.47 997.73
  Q 665.54 995.75 668.13 996.10
  C 670.15 996.37 671.08 998.77 673.91 998.28
  A 1.66 1.58 17.9 0 0 674.74 997.88
  C 677.65 995.27 684.15 995.96 687.50 996.65
  C 691.25 997.42 694.36 995.34 698.07 997.11
  Q 700.11 998.07 702.29 998.09
  Q 710.78 998.16 711.80 998.14
  A 9.17 9.16 34.2 0 0 714.69 997.59
  L 717.54 996.57
  A 4.20 4.01 33.5 0 1 718.87 996.33
  L 730.76 996.10
  A 4.82 4.76 -31.5 0 1 733.11 996.65
  L 734.82 997.54
  A 3.18 3.13 62.8 0 0 735.79 997.86
  C 739.89 998.54 745.09 999.88 747.69 998.16
  A 0.90 0.88 -33.3 0 0 747.95 996.94
  Q 746.54 994.72 746.25 991.74
  A 1.72 1.69 -61.2 0 0 746.09 991.17
  L 744.92 988.93
  A 0.91 0.91 0.0 0 1 744.92 988.07
  Z
  M 172.35 446.32
  A 0.89 0.88 -73.9 0 0 173.17 447.81
  C 175.10 447.38 176.64 446.19 178.73 446.05
  Q 181.96 445.84 186.20 445.93
  C 189.00 445.98 192.13 443.33 194.67 442.76
  Q 200.97 441.35 207.45 442.92
  A 2.06 2.04 29.2 0 0 209.38 442.38
  L 212.70 439.06
  A 1.36 1.36 0.0 0 0 213.07 437.82
  Q 212.05 432.81 212.37 426.26
  Q 212.46 424.32 210.99 420.62
  A 0.85 0.83 -51.1 0 1 210.94 420.10
  L 211.31 418.20
  A 0.61 0.61 0.0 0 0 210.70 417.47
  L 204.67 417.63
  A 2.64 2.63 54.9 0 1 203.59 417.44
  C 201.63 416.64 200.05 414.89 197.62 415.95
  Q 192.74 418.05 186.62 417.44
  C 182.81 417.06 180.64 420.52 176.80 417.78
  Q 176.14 417.31 173.80 417.25
  C 171.58 417.20 171.15 420.10 171.96 421.34
  Q 173.66 423.89 173.82 427.33
  Q 173.88 428.59 172.48 431.80
  Q 169.77 438.04 173.42 443.67
  A 1.44 1.42 -39.2 0 1 173.23 445.45
  L 172.35 446.32
  Z
  M 506.49 592.93
  Q 504.87 591.93 502.56 592.86
  C 499.82 593.96 497.23 593.54 494.55 594.41
  C 490.53 595.70 485.61 594.18 481.89 596.15
  A 1.28 1.26 27.0 0 1 481.51 596.27
  L 469.05 597.73
  A 2.66 2.61 48.5 0 1 468.06 597.66
  Q 461.63 595.95 456.36 600.41
  A 1.44 1.43 -53.6 0 0 456.72 602.83
  C 462.15 605.13 464.66 607.46 469.22 612.43
  Q 473.15 616.73 479.08 619.60
  A 10.59 10.51 -11.5 0 1 481.26 621.03
  Q 486.75 625.71 495.38 630.88
  C 497.38 632.08 499.20 633.76 502.20 634.05
  Q 505.60 634.40 505.70 634.41
  A 2.10 2.09 70.5 0 1 507.18 635.12
  L 510.61 638.98
  A 0.57 0.21 20.3 0 0 510.68 639.04
  Q 514.93 641.91 518.92 643.43
  C 526.51 646.34 532.61 649.54 540.19 651.96
  A 1.41 1.41 0.0 0 0 542.01 650.88
  L 542.84 646.67
  A 1.21 1.06 -47.5 0 0 542.85 646.22
  L 541.30 637.10
  A 2.97 2.91 -42.6 0 1 541.37 635.77
  Q 542.15 632.97 541.49 629.80
  A 4.62 4.51 45.7 0 1 541.49 627.91
  L 542.04 625.35
  A 4.65 4.53 -38.5 0 0 542.16 624.40
  Q 542.22 622.01 542.18 614.42
  C 542.17 612.34 542.64 610.57 543.00 608.82
  A 2.87 2.75 -46.2 0 0 543.00 607.67
  C 542.74 606.38 542.22 605.61 542.18 604.11
  Q 542.10 600.03 539.87 596.49
  Q 538.94 595.01 536.74 595.28
  C 531.66 595.91 528.92 593.86 524.93 592.27
  A 3.06 3.04 -36.0 0 0 523.58 592.06
  Q 522.23 592.16 520.48 593.30
  A 2.36 1.98 -40.0 0 1 517.86 593.30
  C 515.94 591.65 511.54 590.49 509.04 592.21
  Q 508.30 592.72 507.37 593.03
  A 1.08 1.06 51.1 0 1 506.49 592.93
  Z
  M 295.16 697.08
  C 295.26 700.83 294.60 702.82 292.19 705.78
  Q 287.37 711.72 284.91 719.63
  Q 284.57 720.73 282.83 723.31
  A 2.82 2.60 -20.8 0 0 282.49 723.99
  L 279.78 731.87
  A 0.37 0.05 -82.0 0 1 279.76 731.94
  L 279.38 735.09
  A 4.48 4.45 64.8 0 1 278.70 736.99
  Q 275.60 741.77 274.21 746.45
  Q 272.91 750.82 272.83 751.04
  A 13.62 13.05 73.1 0 1 271.83 753.01
  C 270.19 755.67 267.46 759.25 265.81 763.88
  C 264.37 767.94 262.64 771.11 260.65 775.47
  C 259.63 777.69 259.54 778.84 259.30 781.11
  Q 259.00 783.96 257.54 785.68
  Q 250.68 793.78 249.46 805.41
  A 4.19 4.17 -21.0 0 1 248.39 807.80
  L 244.34 812.22
  A 1.90 1.84 73.4 0 0 243.87 813.12
  Q 243.44 815.20 243.92 817.37
  A 1.35 1.35 0.0 0 1 243.56 818.63
  Q 242.12 820.06 241.56 820.52
  C 239.27 822.37 239.49 825.59 239.10 827.63
  A 5.58 5.42 -23.9 0 1 238.32 829.57
  L 236.48 832.42
  A 2.16 1.97 -23.9 0 0 236.23 832.99
  L 231.40 849.77
  A 3.01 2.97 72.4 0 1 230.89 850.77
  Q 225.61 857.60 220.95 866.78
  C 219.88 868.88 219.88 869.93 219.75 872.48
  C 219.62 875.17 216.84 876.62 216.10 878.62
  C 215.30 880.76 215.84 883.67 215.45 885.27
  A 8.46 0.97 -75.8 0 0 215.16 886.43
  Q 215.04 886.90 212.11 889.90
  Q 210.69 891.37 208.13 896.38
  C 207.29 898.02 207.25 899.37 207.43 900.82
  A 3.17 3.16 -27.3 0 1 206.62 903.35
  C 202.54 907.76 201.23 908.81 199.87 913.91
  Q 198.44 919.27 194.05 926.64
  A 0.86 0.76 -30.1 0 0 193.96 926.91
  L 193.31 931.23
  A 2.39 2.20 61.1 0 1 193.22 931.60
  L 189.39 942.74
  A 1.42 1.19 58.5 0 0 189.33 943.14
  L 189.33 946.73
  A 3.78 3.76 -24.4 0 1 188.39 949.22
  L 184.46 953.69
  A 0.78 0.72 -16.4 0 0 184.30 953.96
  Q 182.60 958.70 180.40 962.67
  Q 180.02 963.35 179.46 968.80
  A 3.50 3.49 61.8 0 1 179.09 970.03
  C 177.39 973.20 175.87 974.46 174.78 977.50
  Q 172.50 983.92 169.93 991.09
  C 168.90 993.97 170.10 995.12 167.32 997.85
  Q 164.75 1000.37 164.71 1004.28
  A 1.44 1.41 -66.1 0 0 165.06 1005.22
  Q 168.07 1008.70 173.50 1011.81
  A 0.70 0.69 61.3 0 0 173.80 1011.90
  L 177.34 1012.12
  A 3.41 3.37 66.0 0 1 179.25 1012.87
  C 181.68 1014.86 184.04 1017.64 186.85 1019.30
  C 190.67 1021.57 194.70 1022.74 198.21 1025.25
  C 203.22 1028.83 207.43 1030.27 212.72 1030.58
  A 4.68 4.48 56.1 0 1 214.14 1030.89
  Q 218.63 1032.69 219.84 1033.64
  Q 223.22 1036.28 225.22 1037.28
  C 227.23 1038.29 230.34 1037.57 232.57 1038.53
  Q 236.23 1040.11 240.98 1040.51
  A 7.08 7.05 -31.1 0 1 243.19 1041.05
  L 248.87 1043.44
  A 2.69 2.56 -32.4 0 0 249.88 1043.64
  Q 251.29 1043.67 258.15 1045.84
  Q 263.27 1047.46 277.75 1049.17
  A 2.87 2.75 -30.2 0 1 278.37 1049.32
  L 288.07 1052.75
  A 10.21 9.98 -17.5 0 1 290.32 1053.89
  C 293.52 1056.33 296.23 1057.55 300.61 1056.12
  Q 302.88 1055.39 303.78 1053.24
  Q 306.28 1047.30 306.36 1047.54
  A 0.02 0.01 58.3 0 0 306.38 1047.55
  L 309.26 1044.67
  A 2.73 2.68 70.2 0 0 310.04 1042.97
  C 310.25 1040.32 309.39 1034.90 312.11 1032.83
  Q 317.28 1028.90 319.27 1023.92
  C 320.29 1021.38 321.73 1019.30 323.32 1017.09
  A 2.70 2.56 -24.5 0 0 323.79 1015.93
  C 324.14 1013.54 323.32 1011.10 324.94 1009.15
  Q 328.27 1005.14 329.68 1000.92
  Q 330.84 997.41 332.43 995.06
  Q 336.68 988.77 338.95 985.85
  A 5.56 5.55 74.0 0 0 339.84 984.24
  Q 341.53 979.54 343.01 972.25
  Q 343.80 968.38 346.73 963.82
  A 10.34 10.17 68.1 0 0 348.15 960.41
  L 348.68 957.98
  A 4.75 4.74 -22.2 0 1 349.37 956.35
  Q 351.21 953.55 352.66 950.13
  A 15.50 15.38 74.0 0 1 354.09 947.53
  Q 356.05 944.65 356.46 943.71
  Q 359.42 936.98 363.35 931.16
  A 6.25 6.24 64.1 0 0 364.40 928.12
  L 364.82 922.03
  A 1.23 1.09 63.3 0 1 364.91 921.69
  Q 366.06 918.97 366.69 918.58
  Q 371.52 915.58 372.41 909.98
  Q 372.53 909.22 375.24 905.57
  A 5.45 5.33 -18.6 0 0 376.05 903.98
  Q 376.21 903.44 376.80 900.02
  C 377.37 896.66 379.00 891.75 381.02 888.25
  C 383.41 884.11 384.29 882.04 384.52 877.19
  A 7.59 7.08 56.4 0 1 384.81 875.44
  Q 386.24 870.51 388.00 863.03
  Q 388.85 859.44 388.70 857.81
  A 2.35 2.34 68.2 0 1 389.58 855.75
  L 393.18 852.86
  A 2.45 2.45 0.0 0 0 394.09 851.02
  C 394.15 848.07 393.93 842.81 395.22 840.76
  Q 398.11 836.20 398.21 836.05
  A 4.29 4.16 -19.3 0 0 398.70 835.07
  L 402.35 824.79
  A 1.49 1.47 -36.5 0 0 402.42 824.34
  L 402.42 820.31
  A 3.13 3.13 0.0 0 1 402.86 818.71
  C 404.09 816.64 406.05 815.31 406.15 812.69
  Q 406.45 804.16 406.56 802.16
  A 3.38 3.23 60.6 0 1 406.87 800.95
  Q 411.40 791.46 412.23 788.70
  Q 414.96 779.69 419.46 772.79
  Q 420.97 770.47 422.73 761.72
  A 5.86 4.47 68.3 0 1 422.94 760.97
  L 425.66 753.04
  A 0.97 0.60 -31.7 0 1 425.74 752.88
  Q 428.04 749.07 429.04 745.30
  A 2.92 2.86 -23.8 0 1 429.30 744.65
  L 431.82 740.30
  A 4.17 4.12 60.1 0 0 432.36 738.25
  L 432.36 734.87
  A 3.68 3.58 -35.1 0 1 432.61 733.55
  C 433.52 731.20 435.86 729.46 436.21 726.70
  C 436.59 723.71 437.29 720.69 438.98 718.34
  C 440.32 716.48 441.29 715.06 441.90 712.97
  C 442.65 710.45 441.86 707.90 443.78 705.35
  Q 448.89 698.55 450.77 691.09
  A 0.93 0.83 72.6 0 1 450.90 690.80
  L 453.37 687.37
  A 4.79 4.76 61.9 0 0 454.27 684.37
  C 454.13 680.91 453.73 677.30 456.06 675.29
  Q 458.95 672.79 459.68 670.70
  C 461.27 666.15 462.30 662.39 466.22 659.02
  A 5.06 5.03 -11.1 0 0 467.67 656.88
  L 472.25 643.54
  A 1.36 1.35 12.4 0 0 471.10 641.75
  C 469.22 641.57 467.50 641.24 465.86 639.97
  Q 463.48 638.11 460.34 636.18
  A 4.20 4.08 81.4 0 1 459.67 635.67
  L 452.78 629.03
  A 4.14 4.12 -8.3 0 0 451.89 628.37
  Q 446.24 625.23 442.07 619.74
  A 5.94 5.82 87.2 0 0 440.57 618.35
  Q 438.99 617.32 437.98 616.87
  C 434.84 615.46 433.35 611.65 431.54 608.18
  A 1.99 1.95 -84.6 0 0 431.03 607.55
  L 424.95 602.54
  A 1.88 1.83 76.8 0 0 424.56 602.29
  C 420.81 600.49 414.70 596.90 409.76 597.29
  Q 404.84 597.69 402.64 599.14
  A 1.70 1.68 45.7 0 1 400.73 599.11
  L 396.84 596.41
  A 1.94 1.93 50.6 0 0 394.96 596.22
  L 388.26 599.17
  A 2.70 2.68 -57.0 0 1 387.15 599.41
  L 375.74 599.41
  A 1.29 1.28 67.6 0 1 374.82 599.02
  L 372.87 597.08
  A 5.12 5.09 70.8 0 0 369.87 595.62
  L 363.55 594.85
  A 0.61 0.38 31.7 0 0 363.40 594.85
  Q 357.28 595.38 351.00 595.00
  C 347.28 594.78 344.18 595.88 340.57 594.64
  A 1.66 1.66 0.0 0 0 338.46 595.67
  L 337.86 597.43
  A 2.34 2.26 73.0 0 1 337.55 598.04
  L 334.37 602.61
  A 2.43 2.43 0.0 0 0 333.94 603.74
  L 333.40 608.20
  A 0.63 0.47 -36.7 0 1 333.34 608.40
  C 330.92 612.99 328.37 617.15 326.92 622.39
  Q 325.91 626.06 322.72 629.54
  Q 321.29 631.09 321.31 632.94
  Q 321.34 636.85 319.48 639.87
  Q 318.37 641.67 317.61 644.41
  Q 315.43 652.36 310.85 659.41
  A 9.27 9.05 -19.7 0 0 309.89 661.38
  Q 307.89 667.17 304.50 674.28
  C 303.80 675.76 302.15 677.16 301.90 678.62
  Q 301.20 682.57 301.50 688.92
  A 2.40 2.25 54.4 0 1 301.39 689.75
  C 300.65 692.06 298.09 693.85 295.93 695.48
  A 1.97 1.95 71.0 0 0 295.16 697.08
  Z
  M 611.57 1048.25
  L 617.58 1048.21
  A 1.13 0.85 -34.6 0 1 617.83 1048.22
  L 623.05 1048.90
  A 1.38 1.37 1.6 0 0 624.60 1047.44
  Q 623.93 1037.84 624.18 1033.10
  C 624.40 1029.20 623.48 1026.30 622.41 1022.96
  A 1.23 1.22 86.7 0 0 621.48 1022.13
  Q 618.68 1021.60 616.57 1020.33
  C 613.13 1018.27 607.51 1019.12 607.54 1024.00
  Q 607.62 1034.39 607.74 1037.10
  A 6.04 6.04 0.0 0 0 608.30 1039.35
  Q 609.66 1042.28 609.88 1046.65
  A 1.68 1.67 88.2 0 0 611.57 1048.25
  Z
  M 182.26 1043.28
  A 1.07 1.07 0.0 0 0 180.62 1043.56
  C 179.23 1046.06 177.33 1048.73 177.42 1052.41
  Q 177.55 1057.09 175.28 1062.27
  C 173.33 1066.69 173.22 1069.42 174.47 1073.61
  A 2.78 2.77 -39.7 0 1 174.27 1075.73
  Q 172.52 1079.11 170.81 1083.53
  C 169.82 1086.10 167.75 1088.72 167.73 1091.28
  Q 167.71 1095.46 167.71 1095.63
  A 3.94 3.87 -32.2 0 1 167.40 1096.94
  L 165.15 1102.28
  A 2.95 2.91 89.6 0 1 163.65 1103.82
  L 158.57 1106.08
  A 1.05 1.03 5.2 0 0 158.12 1106.45
  Q 155.57 1110.18 155.75 1113.77
  A 1.46 1.46 0.0 0 1 155.45 1114.74
  Q 153.31 1117.54 150.25 1118.54
  C 148.39 1119.15 144.66 1118.64 143.01 1119.73
  Q 139.28 1122.18 135.79 1123.24
  A 4.32 4.17 -52.4 0 1 134.57 1123.42
  Q 129.46 1123.46 124.58 1123.61
  C 121.85 1123.70 120.57 1126.30 118.13 1127.06
  Q 114.87 1128.07 112.46 1126.34
  A 1.81 1.80 43.5 0 0 110.27 1126.39
  L 106.42 1129.48
  A 1.20 1.19 53.4 0 1 104.69 1129.22
  C 102.13 1125.49 98.13 1129.43 95.93 1129.44
  Q 91.30 1129.46 88.57 1130.30
  C 85.21 1131.32 83.49 1130.64 80.28 1129.48
  A 1.90 1.89 -71.2 0 0 77.84 1130.69
  C 76.49 1134.91 79.53 1138.52 82.49 1143.28
  C 84.55 1146.58 87.08 1146.50 90.30 1144.78
  C 92.48 1143.61 95.19 1144.24 97.40 1143.54
  Q 103.65 1141.54 109.62 1141.84
  A 6.02 5.95 -51.5 0 0 111.70 1141.59
  L 115.51 1140.42
  A 1.16 0.88 26.3 0 1 115.72 1140.38
  Q 118.22 1140.19 126.24 1140.04
  C 130.90 1139.95 135.85 1138.72 140.29 1138.22
  A 5.91 5.82 53.0 0 1 143.19 1138.65
  Q 149.24 1141.26 154.28 1139.04
  C 157.30 1137.72 159.89 1137.55 162.58 1138.67
  C 166.16 1140.17 170.58 1140.37 172.93 1140.67
  A 5.49 5.49 0.0 0 0 175.08 1140.52
  L 177.96 1139.75
  A 3.20 3.14 41.5 0 1 179.30 1139.68
  Q 182.74 1140.26 187.28 1140.68
  Q 188.18 1140.76 192.00 1142.86
  A 4.62 4.55 -24.5 0 0 193.34 1143.35
  C 198.93 1144.51 205.57 1143.67 210.96 1143.35
  A 2.50 2.22 28.4 0 0 211.68 1143.18
  L 216.95 1140.95
  A 2.89 2.88 -43.1 0 1 219.39 1141.03
  Q 223.70 1143.19 228.39 1141.66
  Q 232.00 1140.48 233.68 1140.21
  Q 243.56 1138.58 246.13 1138.51
  A 12.57 12.57 0.0 0 0 249.70 1137.89
  L 253.06 1136.78
  A 3.33 3.22 -49.8 0 1 254.44 1136.64
  L 265.69 1138.00
  A 2.17 2.13 41.5 0 0 266.46 1137.96
  Q 271.49 1136.82 277.95 1134.44
  C 280.82 1133.38 282.30 1136.08 285.25 1136.08
  Q 293.29 1136.11 299.64 1135.05
  C 302.31 1134.60 303.71 1135.39 305.90 1136.40
  Q 308.01 1137.37 309.84 1136.87
  Q 313.25 1135.93 315.98 1132.91
  A 2.13 2.11 11.0 0 1 316.85 1132.33
  C 320.58 1131.00 322.65 1132.72 325.55 1133.54
  A 2.22 2.22 0.0 0 0 328.36 1131.68
  L 328.66 1129.15
  A 3.48 3.47 -77.1 0 0 326.34 1125.44
  L 320.66 1123.49
  A 6.05 5.98 51.2 0 0 318.06 1123.19
  Q 314.99 1123.49 311.24 1122.09
  C 308.57 1121.08 306.20 1121.28 303.34 1120.81
  A 7.22 7.21 -46.3 0 0 300.73 1120.87
  C 297.48 1121.53 291.75 1122.04 288.62 1120.61
  Q 285.76 1119.31 278.97 1115.12
  A 5.19 5.15 -3.1 0 1 277.70 1113.99
  Q 275.22 1110.92 273.95 1106.05
  A 4.51 4.46 16.7 0 0 272.92 1104.16
  Q 272.90 1104.13 270.65 1101.87
  C 269.42 1100.63 268.80 1097.98 268.57 1095.94
  Q 267.18 1083.68 262.70 1073.25
  A 2.79 2.79 0.0 0 0 260.30 1071.57
  C 255.41 1071.30 253.21 1071.47 249.93 1068.61
  Q 248.70 1067.54 246.88 1068.05
  C 244.24 1068.80 243.33 1068.20 240.69 1066.82
  Q 238.61 1065.74 229.02 1063.08
  Q 225.77 1062.19 224.00 1061.46
  Q 220.52 1060.03 217.81 1060.63
  A 2.41 2.37 -37.8 0 1 216.28 1060.45
  Q 212.43 1058.59 210.26 1056.51
  C 206.18 1052.58 202.32 1054.41 198.32 1052.53
  C 194.95 1050.94 192.28 1048.43 188.61 1047.35
  Q 185.97 1046.57 182.26 1043.28
  Z" />
</svg>