<?xml version="1.0" encoding="UTF-8" standalone="no"?>
<!DOCTYPE svg PUBLIC "-//W3C//DTD SVG 1.1//EN" "http://www.w3.org/Graphics/SVG/1.1/DTD/svg11.dtd">
<svg xmlns="http://www.w3.org/2000/svg" version="1.1" viewBox="0.00 0.00 1200.00 1200.00">
<path fill="#000000" d="
  M 1045.65 971.41
  L 1045.53 971.86
  A 2.00 1.99 -55.9 0 0 1045.86 973.61
  L 1050.24 979.38
  A 3.07 3.06 -63.6 0 1 1050.86 981.23
  L 1050.86 994.99
  A 1.16 1.12 63.2 0 1 1050.66 995.64
  C 1047.94 999.48 1043.49 1001.44 1040.33 1003.71
  A 3.87 3.82 -71.9 0 1 1039.36 1004.21
  L 1027.13 1008.32
  A 6.03 6.01 47.2 0 1 1022.85 1008.15
  L 1016.36 1005.40
  A 12.14 11.95 75.4 0 1 1013.51 1003.70
  C 1010.05 1000.94 1008.33 999.18 1003.58 1000.79
  A 0.96 0.95 -31.2 0 1 1002.58 1000.55
  Q 1001.58 999.51 1000.04 996.47
  Q 994.55 985.59 992.68 980.79
  A 2.89 2.87 9.4 0 0 991.83 979.61
  C 989.37 977.57 988.44 973.51 985.02 971.53
  C 981.36 969.41 980.24 968.09 979.37 965.07
  A 2.84 2.83 49.3 0 1 979.53 962.90
  L 984.21 953.57
  A 4.22 4.22 0.0 0 1 985.95 951.77
  Q 988.79 950.22 991.66 947.96
  C 992.47 947.32 994.07 947.07 995.16 946.41
  A 0.58 0.58 0.0 0 0 995.17 945.42
  C 993.61 944.47 992.61 943.89 991.63 942.19
  Q 990.42 940.08 989.19 934.80
  C 988.05 929.91 984.29 926.26 980.28 922.21
  A 1.05 1.05 0.0 0 0 978.80 922.19
  Q 975.43 925.42 971.10 927.76
  A 7.94 7.55 -78.7 0 0 969.58 928.83
  Q 966.69 931.45 965.86 931.84
  Q 962.77 933.32 951.57 937.33
  Q 948.50 938.44 945.88 938.64
  C 942.83 938.87 939.92 941.15 936.88 942.25
  Q 930.78 944.48 925.65 944.93
  A 6.58 6.57 -67.7 0 0 921.93 946.49
  L 919.05 948.94
  A 2.68 2.61 16.2 0 1 918.02 949.49
  L 907.68 952.28
  A 4.14 3.97 35.9 0 1 906.74 952.41
  L 888.13 952.55
  A 1.93 1.92 -34.5 0 1 887.36 952.41
  Q 881.74 950.19 876.04 945.03
  A 4.59 4.53 7.8 0 1 875.04 943.73
  C 872.97 939.75 870.71 937.43 869.22 933.29
  Q 868.13 930.27 864.82 926.65
  Q 862.33 923.95 862.36 920.58
  C 862.39 917.76 859.31 915.95 856.92 914.43
  A 5.88 5.84 1.5 0 1 854.97 912.39
  L 845.86 896.36
  A 1.51 1.41 9.2 0 0 845.58 896.00
  Q 842.17 892.77 840.23 886.65
  C 839.31 883.74 836.23 881.63 835.15 879.54
  C 833.66 876.66 833.06 874.49 831.04 871.67
  A 6.19 5.20 89.8 0 0 830.43 870.95
  Q 826.68 867.19 826.25 865.72
  C 824.94 861.26 823.55 858.15 819.99 854.40
  Q 815.81 850.00 812.50 842.59
  C 811.34 840.01 807.75 834.95 804.35 831.75
  C 801.78 829.33 799.88 826.06 799.50 822.42
  Q 799.16 819.20 798.62 817.99
  C 797.48 815.42 794.90 813.38 793.67 810.57
  Q 791.78 806.23 789.14 801.74
  C 788.05 799.88 787.49 797.70 786.56 795.74
  A 6.57 6.32 14.2 0 0 785.80 794.52
  L 782.92 790.92
  A 7.37 7.36 -75.6 0 1 781.83 789.08
  Q 781.45 788.23 779.35 782.70
  C 778.38 780.14 774.28 776.82 772.66 774.54
  Q 768.38 768.54 766.55 766.51
  A 1.29 1.07 17.9 0 1 766.36 766.21
  L 761.88 755.25
  A 3.38 3.25 -62.3 0 1 761.70 754.63
  L 760.74 748.73
  A 1.65 1.65 0.0 0 0 758.70 747.40
  Q 751.91 749.13 746.23 748.04
  C 744.50 747.71 741.44 748.12 740.37 748.60
  C 735.25 750.92 731.25 750.81 724.03 750.99
  A 6.72 6.66 38.1 0 0 723.00 751.11
  L 712.37 753.18
  A 1.62 0.96 -20.1 0 0 712.15 753.23
  L 697.51 757.47
  A 1.29 1.27 18.7 0 0 697.14 757.65
  C 694.75 759.40 693.51 760.30 690.19 760.72
  A 2.23 2.13 -35.3 0 1 689.05 760.55
  C 686.49 759.37 681.91 758.19 679.34 759.88
  C 677.58 761.04 675.30 763.18 672.55 765.80
  A 1.34 1.33 -49.3 0 1 670.87 765.93
  C 669.18 764.76 667.69 764.64 665.64 765.26
  Q 661.98 766.37 658.56 766.48
  A 5.99 5.77 33.8 0 0 656.93 766.77
  C 655.33 767.29 653.65 768.45 651.65 768.84
  Q 646.01 769.94 639.64 772.16
  A 4.76 4.67 -53.7 0 1 638.04 772.42
  Q 629.96 772.33 621.15 774.83
  Q 616.36 776.20 614.78 776.47
  Q 611.84 776.99 609.09 778.00
  A 4.57 4.53 -56.0 0 1 607.73 778.27
  Q 599.49 778.64 594.71 778.58
  Q 591.31 778.53 588.29 781.01
  A 2.54 2.53 -51.9 0 1 585.61 781.34
  C 580.25 778.81 573.76 781.34 569.38 784.47
  A 2.00 1.98 35.2 0 1 567.65 784.76
  Q 564.92 783.96 562.24 784.68
  Q 560.90 785.05 559.37 784.31
  Q 556.05 782.70 552.10 784.61
  A 3.51 3.49 -8.9 0 0 550.17 787.24
  Q 549.17 794.10 546.42 800.95
  Q 544.91 804.73 543.45 806.68
  Q 538.28 813.55 536.19 821.60
  C 535.42 824.56 529.28 827.91 526.60 829.83
  Q 523.35 832.17 524.87 835.81
  A 1.78 1.77 56.9 0 1 524.46 837.78
  Q 522.39 839.75 521.14 841.96
  C 519.49 844.88 517.46 846.75 514.77 849.56
  C 513.23 851.18 512.52 852.61 511.29 854.77
  A 2.16 2.15 -81.1 0 1 509.86 855.82
  C 503.53 857.19 497.72 862.06 492.83 866.32
  C 486.82 871.57 479.81 874.05 471.74 877.75
  A 1.22 1.11 -79.6 0 0 471.37 878.03
  L 469.04 880.78
  A 3.78 3.69 7.3 0 1 467.73 881.77
  Q 466.63 882.28 462.95 883.43
  C 459.32 884.56 456.90 887.56 452.67 891.56
  A 2.15 2.12 34.8 0 1 450.37 891.96
  C 447.13 890.56 442.45 894.27 439.89 894.42
  Q 434.53 894.73 433.33 895.31
  Q 425.00 899.32 420.29 901.79
  Q 419.39 902.26 416.29 902.65
  C 413.29 903.02 410.62 904.52 407.62 904.55
  A 0.45 0.33 27.3 0 0 407.49 904.57
  L 398.31 907.08
  A 1.75 1.53 -65.5 0 0 397.78 907.32
  L 393.83 910.01
  A 2.75 2.64 24.9 0 1 392.49 910.47
  L 388.92 910.72
  A 1.71 1.59 28.5 0 0 388.30 910.88
  L 381.93 913.73
  A 5.40 5.25 -58.5 0 1 380.16 914.18
  Q 375.46 914.51 373.02 915.77
  Q 369.44 917.61 369.19 917.67
  A 5.04 4.93 -49.3 0 1 367.45 917.82
  L 364.46 917.55
  A 1.46 1.44 27.8 0 0 363.43 917.86
  Q 360.79 919.99 358.69 920.18
  Q 350.84 920.90 337.79 920.33
  A 3.05 2.81 -31.4 0 1 336.89 920.15
  L 333.60 918.88
  A 2.28 2.17 54.1 0 0 332.80 918.73
  L 325.28 918.73
  A 3.92 3.83 -57.8 0 0 323.53 919.15
  C 321.81 920.01 320.25 920.94 318.55 919.66
  C 316.91 918.43 315.30 918.00 313.00 918.71
  Q 310.76 919.41 310.25 919.30
  Q 305.78 918.36 299.75 917.84
  Q 299.06 917.79 297.69 918.07
  A 3.48 3.41 -41.0 0 1 295.85 917.96
  Q 291.57 916.48 286.01 916.81
  Q 285.16 916.86 282.79 915.90
  C 278.75 914.24 275.05 913.94 271.37 916.52
  A 0.83 0.81 44.6 0 1 270.44 916.52
  Q 268.20 915.00 265.49 914.72
  C 262.52 914.42 260.90 913.06 258.69 911.56
  C 257.05 910.44 253.93 910.85 251.81 909.99
  C 247.85 908.38 242.33 908.94 239.24 907.86
  C 235.06 906.40 231.60 904.43 227.14 904.60
  C 224.24 904.71 223.15 904.25 220.70 903.54
  A 10.18 9.92 52.6 0 0 217.83 903.12
  C 212.90 903.12 209.90 901.26 205.21 898.42
  A 12.71 12.45 -20.8 0 0 202.21 897.11
  Q 198.23 895.96 191.01 893.48
  C 187.32 892.22 184.80 888.68 182.56 886.67
  A 3.38 3.20 -8.8 0 0 181.85 886.18
  L 158.29 873.67
  A 6.58 5.81 34.8 0 1 157.50 873.18
  L 150.11 867.97
  A 5.97 5.90 89.0 0 1 148.76 866.65
  Q 141.95 857.45 138.47 851.18
  Q 137.70 849.80 133.65 845.94
  A 23.38 22.60 4.5 0 1 131.20 843.17
  C 129.03 840.25 128.26 839.08 126.01 836.70
  Q 118.10 828.35 114.77 825.02
  Q 111.87 822.12 104.84 810.39
  A 2.46 1.77 88.0 0 0 104.60 810.08
  L 102.09 807.25
  A 3.23 2.79 14.2 0 1 101.67 806.65
  Q 99.29 802.32 96.93 799.40
  Q 93.69 795.37 91.99 792.53
  Q 90.48 790.01 83.53 780.11
  C 81.35 777.00 79.84 773.64 78.32 769.98
  A 6.84 6.72 -76.7 0 0 77.25 768.21
  C 75.24 765.82 73.35 764.21 72.00 760.94
  Q 69.16 754.04 66.68 749.72
  Q 65.30 747.32 63.06 745.37
  C 61.22 743.77 61.47 740.97 60.99 738.88
  C 60.56 737.04 58.34 734.62 57.05 733.01
  A 6.18 6.09 18.0 0 1 56.01 731.00
  C 54.93 727.39 53.84 723.88 50.99 720.98
  A 1.73 1.73 0.0 0 1 50.70 718.95
  C 53.73 713.29 48.27 707.47 46.44 702.39
  Q 46.43 702.34 44.24 696.92
  A 1.42 0.93 -86.3 0 0 44.07 696.62
  L 41.26 692.91
  A 2.96 2.95 31.0 0 1 40.69 690.65
  L 41.19 687.60
  A 1.49 1.43 -53.2 0 0 41.09 686.78
  C 39.48 683.09 39.32 680.33 37.23 677.10
  Q 35.08 673.80 33.25 667.20
  Q 32.84 665.72 34.28 662.57
  A 1.73 1.71 47.9 0 0 34.34 661.26
  Q 31.84 654.17 30.77 645.77
  A 2.20 2.20 0.0 0 1 30.89 644.72
  L 33.45 638.05
  A 3.11 3.08 -44.7 0 0 33.47 635.87
  Q 30.79 628.69 29.81 625.01
  Q 28.32 619.38 30.47 614.94
  C 32.57 610.58 32.29 606.97 30.52 603.04
  C 28.68 598.96 29.33 597.90 30.98 594.09
  A 5.53 5.51 -31.3 0 0 31.41 592.34
  L 31.86 586.34
  A 1.90 1.85 58.3 0 1 31.98 585.80
  Q 33.38 582.24 33.37 579.26
  Q 33.33 566.43 33.84 559.58
  A 11.00 10.62 -47.2 0 0 33.80 557.61
  Q 33.16 551.95 33.73 550.23
  Q 35.12 545.96 35.24 543.76
  Q 35.46 539.70 35.71 536.92
  A 1.21 1.18 -27.0 0 1 35.91 536.33
  L 38.44 532.35
  A 5.52 5.46 62.4 0 0 39.29 529.59
  L 39.81 511.39
  A 3.82 3.80 63.4 0 1 40.50 509.30
  L 42.59 506.35
  A 0.99 0.97 -24.4 0 0 42.76 505.91
  Q 44.00 497.76 43.43 488.02
  C 43.07 481.84 43.80 476.41 46.13 469.74
  Q 47.63 465.43 47.52 461.47
  C 47.44 458.81 50.31 457.26 48.09 454.43
  A 1.57 1.57 0.0 0 1 47.80 453.09
  Q 47.91 452.61 48.62 450.35
  C 49.55 447.39 49.37 444.30 49.58 439.62
  A 0.95 0.73 64.2 0 1 49.62 439.43
  L 51.04 435.75
  A 6.69 6.53 -34.3 0 0 51.46 433.67
  Q 51.64 428.45 54.01 423.74
  C 55.43 420.93 55.51 418.64 56.73 415.99
  A 1.39 1.38 26.7 0 0 56.13 414.20
  Q 53.60 412.82 54.41 410.45
  Q 56.05 405.63 56.08 403.51
  C 56.14 399.70 57.26 397.79 59.90 395.69
  A 2.00 1.99 -32.8 0 0 60.44 393.22
  Q 58.75 389.86 59.69 386.27
  C 60.21 384.32 61.90 382.24 62.36 380.41
  Q 63.30 376.66 63.72 366.50
  Q 63.84 363.81 65.60 361.20
  A 3.46 3.44 56.6 0 0 66.13 358.57
  Q 65.63 356.07 66.36 353.04
  C 67.33 349.08 67.05 345.10 68.16 341.43
  C 69.35 337.51 69.42 333.73 70.72 329.70
  A 4.69 4.51 54.0 0 0 70.94 328.11
  Q 70.81 325.25 69.92 322.48
  Q 69.21 320.30 71.70 317.96
  Q 73.37 316.38 73.34 313.23
  Q 73.29 307.67 73.57 305.30
  A 3.71 3.67 64.7 0 1 74.10 303.80
  C 76.03 300.67 79.48 298.10 76.77 294.14
  Q 75.94 292.92 76.20 291.66
  Q 78.10 282.03 78.77 279.15
  C 79.26 277.07 78.95 275.27 79.34 273.29
  A 3.67 3.67 0.0 0 1 80.05 271.74
  Q 84.45 266.20 85.52 258.63
  C 85.83 256.40 87.97 254.62 86.06 252.46
  A 2.55 2.52 -72.1 0 1 85.49 251.33
  Q 83.75 243.29 90.67 238.76
  A 2.71 2.70 -22.8 0 0 91.83 235.93
  Q 90.71 230.80 91.53 224.46
  C 92.07 220.23 94.61 217.50 96.50 213.90
  A 5.41 5.34 -31.0 0 0 97.12 211.48
  Q 97.18 207.90 97.13 202.02
  C 97.08 195.81 99.79 191.50 103.07 186.90
  A 3.97 3.94 73.8 0 0 103.50 186.11
  L 107.12 177.18
  A 2.36 2.23 60.1 0 0 107.28 176.51
  C 107.67 171.85 107.46 169.09 108.58 166.30
  C 109.52 163.96 111.02 161.65 111.16 159.14
  Q 111.36 155.67 112.84 152.04
  A 6.57 6.41 60.0 0 0 113.29 150.27
  Q 113.48 148.62 113.88 144.44
  Q 113.97 143.43 116.18 141.17
  A 1.09 0.88 84.0 0 0 116.40 140.83
  L 118.96 134.17
  A 2.12 2.10 49.6 0 0 119.05 132.98
  Q 118.12 128.51 120.49 124.60
  Q 121.68 122.63 121.55 120.35
  C 121.32 115.96 121.54 114.38 123.88 110.32
  C 125.61 107.33 126.46 104.86 127.92 101.81
  A 4.11 4.10 5.9 0 1 130.65 99.60
  Q 136.70 98.15 141.78 99.12
  A 3.88 3.87 -49.8 0 0 143.89 98.94
  L 152.12 95.87
  A 4.76 4.00 23.4 0 1 152.72 95.69
  Q 156.43 94.80 161.80 95.36
  A 1.84 1.84 0.0 0 0 163.77 93.06
  Q 162.80 89.35 164.78 86.66
  C 168.86 81.15 171.02 74.26 177.18 70.30
  A 1.45 0.49 -22.1 0 0 177.31 70.20
  L 188.71 59.11
  A 5.07 5.03 16.8 0 1 191.23 57.77
  Q 196.02 56.76 200.50 54.50
  Q 201.76 53.86 209.90 53.15
  A 12.89 12.00 -52.8 0 0 212.10 52.77
  Q 218.88 50.96 226.90 51.38
  A 3.26 3.25 -17.1 0 1 229.31 52.65
  Q 230.86 54.66 233.13 56.02
  A 1.98 1.97 42.4 0 0 235.30 55.93
  C 237.26 54.51 238.72 53.67 241.12 53.54
  Q 244.88 53.35 246.82 52.58
  C 250.49 51.12 253.94 51.68 257.89 50.47
  C 266.04 47.97 271.36 50.43 276.95 56.31
  C 279.21 58.68 282.30 56.62 284.57 55.21
  A 4.80 4.80 0.0 0 1 285.63 54.72
  L 295.42 51.61
  A 1.71 1.48 30.6 0 1 295.86 51.53
  Q 299.98 51.21 303.03 49.52
  A 1.11 1.06 -58.4 0 1 303.56 49.38
  L 318.68 49.38
  A 2.79 2.73 -26.9 0 1 320.27 49.88
  C 322.82 51.67 325.49 51.79 328.32 50.65
  C 338.64 46.47 340.95 54.43 348.11 57.30
  Q 350.92 58.42 353.63 60.34
  A 1.79 1.26 5.7 0 0 353.84 60.45
  L 360.86 63.14
  A 1.73 1.64 -30.6 0 0 361.34 63.25
  Q 366.05 63.49 369.12 63.27
  Q 370.68 63.16 371.99 61.63
  C 373.83 59.49 375.39 57.95 378.41 57.60
  Q 383.55 57.00 386.43 57.94
  A 4.65 4.52 -41.0 0 0 388.72 58.07
  L 392.50 57.33
  A 4.13 4.11 49.7 0 1 394.73 57.52
  L 400.59 59.77
  A 1.89 1.89 0.0 0 0 403.01 58.75
  L 407.81 47.57
  A 4.28 4.15 -9.1 0 1 409.01 45.97
  Q 414.07 41.76 415.68 41.09
  Q 417.93 40.16 424.81 39.77
  A 3.44 3.42 60.7 0 1 426.93 40.37
  C 429.19 41.91 431.33 42.87 434.51 42.30
  Q 440.51 41.24 451.25 41.67
  Q 454.05 41.78 456.14 39.96
  A 1.72 1.71 50.9 0 1 458.63 40.22
  Q 460.27 42.35 462.46 43.32
  C 465.41 44.62 466.12 44.73 469.02 43.58
  Q 470.97 42.81 472.66 43.39
  Q 479.30 45.68 482.54 45.69
  A 2.21 2.20 58.6 0 1 483.56 45.94
  L 489.00 48.83
  A 3.58 3.57 88.6 0 1 490.39 50.16
  Q 491.57 52.16 492.67 54.77
  C 493.58 56.93 494.52 57.99 493.05 60.23
  Q 492.64 60.85 492.50 61.31
  A 1.88 1.82 48.2 0 0 492.46 62.31
  Q 494.05 69.03 497.82 75.06
  A 3.38 3.35 41.4 0 1 498.03 78.24
  C 497.19 80.07 496.70 81.42 496.71 83.66
  Q 496.74 94.96 496.41 105.75
  C 496.30 109.49 494.78 112.57 494.75 116.00
  Q 494.68 123.51 494.40 126.66
  Q 494.04 130.80 494.42 137.32
  Q 494.65 141.19 494.38 150.09
  A 6.71 6.70 -31.7 0 1 493.75 152.74
  Q 492.77 154.86 492.61 156.31
  C 492.26 159.46 489.05 161.53 486.54 161.88
  Q 480.84 162.68 477.22 167.11
  C 475.07 169.76 469.77 167.20 466.80 170.26
  Q 464.44 172.68 464.21 172.77
  A 0.81 0.81 0.0 0 1 463.26 172.47
  C 461.20 169.51 454.64 171.38 451.98 172.37
  A 3.88 3.68 33.0 0 1 450.62 172.62
  L 437.80 172.62
  A 1.43 1.38 -32.0 0 1 437.23 172.50
  L 434.81 171.40
  A 4.88 4.82 -29.9 0 0 433.17 170.97
  L 426.68 170.45
  A 9.69 9.56 -32.7 0 1 424.27 169.94
  Q 420.18 168.50 415.85 168.22
  A 4.26 4.22 -25.9 0 1 413.80 167.52
  Q 411.93 166.25 409.23 164.59
  C 405.35 162.20 401.84 156.33 400.49 152.30
  A 1.50 1.49 -20.5 0 0 398.50 151.40
  Q 392.18 154.06 385.66 152.54
  C 382.91 151.91 381.54 151.08 379.03 150.83
  Q 375.98 150.53 372.56 149.70
  A 1.04 0.75 54.2 0 1 372.38 149.64
  L 364.15 146.10
  Q 364.06 146.05 363.97 146.00
  C 362.28 144.88 360.62 142.49 358.81 141.05
  Q 355.65 138.56 352.03 136.73
  Q 351.19 136.30 350.37 135.41
  A 0.38 0.37 -48.6 0 0 349.79 135.45
  C 347.56 138.59 343.43 139.70 340.17 141.32
  A 2.02 1.97 -86.7 0 0 339.37 142.05
  L 337.88 144.38
  A 4.51 4.48 -80.6 0 1 335.16 146.34
  L 330.48 147.49
  A 1.35 1.13 -61.4 0 0 330.15 147.62
  L 316.29 155.19
  A 0.98 0.97 4.6 0 0 315.97 155.46
  Q 311.87 160.52 310.99 162.13
  Q 308.44 166.81 309.93 171.79
  A 2.55 2.53 -44.8 0 1 309.92 173.33
  L 308.96 176.28
  A 1.64 1.51 56.6 0 0 308.88 176.78
  L 308.76 187.65
  A 2.20 2.09 57.6 0 1 308.62 188.36
  L 307.26 191.91
  A 1.59 1.58 -43.0 0 0 307.22 192.92
  L 308.07 195.85
  A 0.92 0.88 47.5 0 1 308.06 196.36
  L 307.13 199.12
  A 1.64 1.52 -37.0 0 0 307.03 199.67
  C 306.83 207.18 307.38 213.48 305.00 218.61
  A 1.74 1.70 -66.5 0 0 305.89 220.95
  C 307.96 221.78 309.31 221.34 311.12 219.89
  C 314.04 217.55 315.73 215.94 319.40 216.70
  A 4.34 4.25 -45.6 0 0 321.32 216.66
  C 326.00 215.49 328.98 215.39 332.12 213.18
  C 335.32 210.93 340.56 209.55 345.15 209.40
  Q 351.50 209.19 355.23 207.75
  A 4.08 4.07 42.2 0 1 357.75 207.63
  L 359.68 208.16
  A 4.22 4.20 -45.1 0 0 361.94 208.15
  C 364.37 207.46 365.89 207.01 368.20 207.11
  Q 379.61 207.60 390.85 204.66
  A 8.20 8.11 -46.8 0 1 394.35 204.53
  Q 396.65 204.94 398.46 204.47
  A 4.97 4.96 45.9 0 1 401.05 204.51
  C 402.80 205.01 406.43 206.07 408.66 204.64
  C 411.58 202.76 415.37 199.61 418.56 202.24
  Q 419.39 202.93 420.68 203.06
  C 424.37 203.45 428.93 203.19 432.96 204.13
  Q 435.02 204.60 436.94 204.38
  Q 447.17 203.21 458.74 203.35
  Q 461.25 203.38 463.77 201.81
  A 3.23 2.99 43.1 0 1 466.99 201.83
  C 468.58 202.74 469.44 203.19 471.50 203.25
  C 476.90 203.42 479.28 203.61 483.63 204.15
  Q 488.10 204.69 493.01 203.92
  Q 501.48 202.58 511.68 203.99
  A 10.45 10.32 41.1 0 0 515.74 203.74
  Q 520.42 202.49 526.44 203.17
  Q 528.62 203.42 530.28 205.25
  A 1.23 1.22 50.1 0 0 531.93 205.40
  L 533.18 204.45
  A 3.53 3.50 -66.6 0 1 534.88 203.77
  Q 537.69 203.44 540.10 201.68
  A 1.81 1.79 43.6 0 1 542.16 201.64
  C 545.56 203.92 549.92 202.69 552.48 203.96
  Q 554.76 205.10 554.95 205.11
  A 2.00 1.93 -54.1 0 0 555.97 204.93
  Q 559.21 203.39 562.28 204.72
  A 2.75 2.74 -40.5 0 0 564.07 204.86
  Q 566.08 204.32 577.83 203.27
  Q 581.31 202.96 584.74 203.24
  Q 588.36 203.53 591.79 203.16
  C 595.32 202.77 599.03 203.75 601.52 204.52
  C 605.23 205.68 609.66 203.74 612.64 201.69
  A 1.99 1.91 23.0 0 1 613.51 201.36
  C 617.17 200.88 619.42 203.10 622.52 203.19
  Q 630.14 203.41 636.58 204.89
  C 638.84 205.42 639.48 205.15 641.20 204.13
  Q 642.61 203.30 643.80 203.86
  Q 646.79 205.26 649.85 205.25
  A 5.05 5.00 58.4 0 1 652.23 205.83
  Q 655.14 207.37 656.30 207.04
  Q 660.57 205.83 666.01 205.83
  A 3.39 3.34 57.4 0 1 667.46 206.16
  Q 670.32 207.54 672.99 206.31
  C 675.82 205.01 678.32 205.02 680.75 206.15
  C 684.39 207.85 687.29 207.50 690.84 205.68
  A 1.17 1.17 0.0 0 1 691.90 205.68
  L 697.77 208.68
  A 1.55 1.37 -22.0 0 0 698.11 208.80
  Q 706.10 210.55 712.22 207.80
  A 2.36 2.35 45.7 0 1 714.23 207.83
  C 717.32 209.35 720.66 212.28 724.27 210.73
  Q 725.59 210.17 725.74 210.15
  A 4.37 4.16 42.0 0 1 726.79 210.12
  C 728.44 210.26 730.43 211.35 732.46 211.38
  Q 735.31 211.41 740.18 211.38
  C 743.98 211.36 746.99 211.61 750.62 210.10
  Q 751.51 209.72 758.26 209.49
  C 760.53 209.41 762.69 209.36 764.60 210.66
  C 768.32 213.19 769.45 213.09 773.46 213.11
  C 775.56 213.11 777.97 215.40 780.57 214.23
  C 785.92 211.82 789.93 214.72 793.84 216.73
  A 4.96 4.86 -30.2 0 0 796.02 217.28
  Q 801.60 217.40 806.75 222.62
  A 2.06 1.92 13.3 0 1 807.19 223.28
  L 810.41 231.15
  A 2.44 2.33 34.2 0 1 810.57 231.89
  L 810.91 239.24
  A 1.79 1.79 0.0 0 0 812.37 240.91
  Q 816.55 241.70 820.99 241.45
  A 8.23 7.54 -39.9 0 1 822.53 241.52
  Q 823.76 241.70 824.92 241.94
  C 827.50 242.49 829.51 241.60 831.56 240.64
  A 2.73 2.72 44.5 0 1 833.83 240.62
  C 838.14 242.55 840.89 239.12 844.70 239.13
  A 1.13 1.13 0.0 0 0 845.83 238.00
  L 845.83 234.16
  A 0.67 0.63 -27.4 0 1 845.97 233.76
  Q 848.75 230.20 848.89 229.31
  Q 849.60 224.93 850.99 221.52
  A 6.02 5.90 58.5 0 0 851.43 219.60
  Q 851.47 218.90 851.93 215.32
  C 852.16 213.53 855.71 212.16 858.18 210.75
  A 1.95 1.93 87.6 0 0 858.98 209.87
  C 860.25 207.04 861.44 205.46 861.42 201.96
  Q 861.40 198.02 864.18 194.14
  Q 867.33 189.75 869.16 185.62
  A 10.91 10.72 75.5 0 1 870.28 183.68
  C 873.22 179.65 875.12 175.34 878.19 171.32
  Q 883.33 164.59 886.23 161.24
  Q 886.46 160.98 887.06 158.95
  Q 887.36 157.97 887.41 156.54
  C 887.57 152.48 888.48 144.99 892.68 144.20
  Q 894.07 143.94 894.38 143.86
  A 0.87 0.85 -2.3 0 0 895.01 143.19
  C 896.48 136.06 902.64 130.30 907.53 126.07
  A 3.63 3.61 24.3 0 1 909.91 125.18
  L 918.03 125.18
  A 3.85 3.81 -27.1 0 1 920.24 125.88
  Q 922.41 127.41 925.08 130.47
  C 926.30 131.86 926.71 132.89 926.66 134.81
  Q 926.54 139.53 926.98 142.86
  A 1.33 0.69 -72.5 0 0 927.01 143.03
  L 929.18 150.39
  A 2.88 2.86 43.3 0 1 929.23 151.86
  L 928.04 157.28
  A 0.83 0.83 0.0 0 1 927.77 157.73
  L 925.66 159.52
  A 2.02 2.01 52.1 0 0 925.33 162.21
  C 927.67 165.53 928.64 168.83 928.55 173.19
  Q 928.36 182.30 928.46 186.27
  A 3.05 2.99 -35.0 0 1 928.24 187.45
  C 927.03 190.47 926.83 193.05 925.24 196.40
  C 923.98 199.03 928.17 203.78 929.73 206.02
  Q 930.28 206.81 930.04 209.63
  A 5.62 5.47 -50.3 0 0 930.18 211.38
  C 931.31 216.07 930.07 217.48 928.86 220.66
  A 4.79 4.71 -34.7 0 0 928.55 222.29
  Q 928.43 231.99 928.61 239.75
  Q 928.67 242.46 926.40 243.92
  Q 920.62 247.66 915.37 249.47
  Q 913.01 250.29 910.17 252.22
  Q 907.23 254.22 902.72 255.60
  A 1.97 1.80 -33.3 0 0 901.90 258.85
  Q 902.27 259.13 904.07 259.39
  C 906.78 259.77 910.18 259.43 913.22 259.83
  Q 918.65 260.55 929.48 261.58
  A 5.31 5.27 -17.2 0 1 932.99 263.41
  L 939.67 271.23
  A 3.47 3.47 0.0 0 1 940.49 273.47
  L 940.49 280.86
  A 1.69 1.60 56.0 0 1 940.40 281.40
  L 937.00 290.43
  A 3.11 3.10 -46.1 0 0 937.04 292.71
  L 939.88 299.66
  A 3.37 3.35 -37.8 0 1 939.45 302.95
  Q 934.46 309.59 927.20 311.07
  A 5.62 5.49 22.7 0 0 925.36 311.80
  Q 921.76 314.05 918.10 316.12
  C 916.56 317.00 913.72 316.25 912.01 316.91
  Q 910.59 317.45 909.32 318.48
  A 1.77 1.77 0.0 0 1 907.18 318.56
  Q 904.89 316.97 902.21 316.75
  C 898.18 316.43 894.66 314.60 890.70 314.39
  Q 887.34 314.22 886.79 314.32
  Q 882.61 315.09 877.15 319.36
  A 1.06 1.05 34.0 0 1 876.19 319.54
  C 873.00 318.61 871.96 318.94 869.33 317.52
  Q 867.46 316.51 865.37 318.38
  A 2.30 2.30 0.0 0 1 862.60 318.60
  L 852.24 312.01
  A 1.26 1.26 0.0 0 1 851.65 310.89
  Q 851.80 307.37 850.03 304.26
  A 2.01 1.92 -66.8 0 1 849.84 303.75
  L 849.11 300.03
  A 1.47 1.46 -5.5 0 0 847.67 298.85
  L 839.60 298.85
  A 2.36 2.04 -49.1 0 0 838.98 298.94
  Q 835.87 299.86 829.02 300.34
  A 1.38 1.38 0.0 0 0 827.82 302.19
  Q 828.39 303.78 828.44 305.01
  C 828.58 308.72 828.45 313.55 829.68 317.63
  C 830.31 319.72 829.47 321.69 829.92 324.09
  Q 831.32 331.69 830.21 339.16
  A 5.48 5.19 -46.2 0 0 830.20 340.65
  C 830.85 345.37 831.50 352.55 829.30 356.09
  C 828.17 357.90 828.54 358.78 829.58 360.67
  Q 831.48 364.08 830.70 368.75
  A 2.66 2.64 68.5 0 1 830.23 369.84
  Q 828.02 372.90 827.17 376.92
  A 2.29 2.25 42.4 0 0 827.23 378.03
  C 828.22 381.06 826.32 382.77 826.73 385.09
  C 827.05 386.89 825.10 389.87 824.96 392.05
  Q 824.57 398.04 824.65 402.73
  C 824.71 406.08 822.41 409.80 820.53 412.98
  A 8.77 8.69 -22.9 0 0 819.56 415.34
  C 819.03 417.46 817.02 424.38 814.27 425.71
  Q 811.51 427.06 808.21 427.06
  A 3.49 3.49 0.0 0 0 806.99 427.28
  Q 804.06 428.37 801.28 430.36
  Q 794.59 435.12 786.94 429.36
  A 1.41 1.41 0.0 0 0 785.18 429.41
  L 784.03 430.39
  A 1.98 1.94 25.1 0 1 782.70 430.86
  Q 771.84 430.59 769.50 430.73
  Q 764.39 431.03 753.38 433.57
  C 751.51 433.99 750.74 434.76 748.85 433.31
  Q 747.60 432.36 746.36 433.01
  Q 743.29 434.61 739.91 435.02
  A 4.46 4.30 47.9 0 1 738.28 434.91
  Q 735.05 434.07 734.01 434.13
  Q 721.19 434.92 717.26 434.38
  Q 714.48 434.00 713.84 433.78
  C 710.62 432.65 708.17 432.30 704.84 432.66
  C 702.90 432.86 701.92 434.73 699.76 434.08
  Q 694.02 432.35 691.71 431.59
  C 687.97 430.37 686.19 434.38 681.98 431.84
  C 680.23 430.79 678.25 432.38 676.28 432.39
  C 670.70 432.39 667.00 433.00 664.35 431.55
  Q 661.45 429.96 658.14 432.15
  A 2.83 2.83 0.0 0 1 656.53 432.63
  Q 649.97 432.54 640.02 432.54
  Q 639.44 432.54 637.50 433.45
  C 635.03 434.62 632.15 435.00 629.74 433.82
  Q 627.53 432.73 626.08 432.71
  Q 618.44 432.55 616.38 432.81
  A 8.29 8.10 31.6 0 0 614.78 433.17
  L 611.00 434.45
  A 1.69 1.60 34.0 0 1 610.46 434.54
  L 601.57 434.54
  A 0.76 0.75 -34.1 0 1 601.30 434.49
  L 599.20 433.68
  A 0.88 0.80 47.6 0 0 598.76 433.64
  L 588.18 435.73
  A 1.83 1.83 0.0 0 1 586.49 435.17
  C 583.70 432.12 580.29 432.95 576.12 432.39
  A 2.63 2.62 27.5 0 0 573.98 433.06
  C 570.21 436.53 568.10 433.31 564.77 432.77
  Q 559.55 431.91 555.99 433.55
  C 551.04 435.82 550.46 432.34 546.23 431.61
  Q 545.59 431.50 543.38 432.41
  C 539.87 433.85 537.82 430.85 535.16 430.98
  A 4.06 3.93 32.9 0 0 533.74 431.26
  L 531.47 432.16
  A 5.80 5.78 34.1 0 1 529.33 432.57
  L 493.37 432.57
  A 0.49 0.41 -50.3 0 0 493.21 432.60
  L 490.00 434.06
  A 2.98 2.82 29.2 0 1 489.05 434.30
  L 481.99 434.78
  A 1.49 1.48 -2.6 0 0 480.61 436.29
  C 480.65 438.50 480.83 440.05 480.38 442.00
  Q 479.69 444.99 480.24 447.50
  A 3.92 3.91 -42.8 0 1 480.16 449.52
  Q 478.91 453.67 478.96 457.25
  C 479.00 460.63 477.04 463.36 476.50 466.81
  C 476.23 468.56 475.09 470.16 474.37 471.98
  A 1.44 1.44 0.0 0 0 476.08 473.89
  L 483.02 472.01
  A 2.31 2.25 -49.9 0 1 483.81 471.93
  C 489.11 472.28 495.78 470.12 501.25 468.04
  A 8.05 7.95 -57.0 0 1 503.54 467.54
  L 512.49 466.92
  A 1.57 1.54 34.3 0 0 512.88 466.85
  L 522.09 463.92
  A 4.58 4.53 -56.7 0 1 523.03 463.72
  Q 534.60 462.52 544.77 459.86
  A 15.05 14.79 35.4 0 1 547.64 459.40
  Q 553.53 459.06 554.93 458.41
  Q 556.72 457.58 560.47 455.73
  Q 561.49 455.23 565.26 456.06
  A 3.22 3.06 -41.0 0 0 566.40 456.11
  L 572.61 455.28
  A 2.83 2.82 -25.7 0 1 575.02 456.12
  Q 579.94 461.27 582.91 464.07
  C 585.90 466.88 589.38 463.75 593.12 462.05
  Q 596.62 460.45 598.56 459.42
  Q 604.13 456.46 611.38 457.53
  A 3.49 3.27 60.9 0 1 612.38 457.85
  Q 613.56 458.47 614.98 459.00
  A 2.35 2.10 -65.3 0 0 617.68 457.83
  Q 618.22 456.82 619.00 456.05
  A 1.69 1.66 -70.6 0 1 619.98 455.57
  C 625.29 454.93 628.60 456.69 633.29 459.28
  Q 639.97 462.96 639.46 471.04
  A 0.29 0.28 -89.0 0 0 639.74 471.34
  L 658.25 471.34
  A 3.49 3.42 -30.9 0 1 659.83 471.72
  Q 662.97 473.34 664.98 474.54
  C 667.83 476.23 668.54 478.63 669.91 482.28
  A 2.44 2.42 11.7 0 0 670.54 483.23
  C 673.10 485.60 676.13 485.44 680.06 485.37
  A 4.17 4.12 -23.6 0 1 682.94 486.48
  C 685.34 488.72 688.27 492.24 692.51 493.90
  A 1.13 1.13 0.0 0 1 693.21 495.16
  L 692.66 498.29
  A 2.24 2.23 -48.8 0 0 692.73 499.41
  C 693.77 502.63 698.62 506.34 700.72 508.15
  A 0.95 0.94 -50.2 0 1 700.84 509.47
  C 697.12 513.95 699.93 517.87 698.40 522.61
  C 697.40 525.70 695.42 527.19 692.24 528.99
  A 9.19 9.09 8.9 0 0 690.56 530.20
  Q 685.68 534.69 681.47 536.44
  C 678.39 537.72 674.94 534.71 672.25 534.76
  Q 668.58 534.82 665.08 534.66
  A 6.34 6.32 35.6 0 0 662.51 535.08
  C 658.81 536.50 655.85 538.11 651.00 537.74
  Q 649.47 537.63 645.62 539.41
  A 0.69 0.68 69.1 0 0 645.25 540.25
  Q 646.23 543.33 649.51 543.12
  Q 652.31 542.94 658.03 541.98
  A 5.84 5.84 0.0 0 1 659.89 541.98
  Q 662.73 542.45 664.65 541.96
  C 669.95 540.62 674.92 541.83 680.09 539.64
  A 5.76 5.68 -58.0 0 1 681.81 539.23
  Q 685.03 538.98 687.78 539.12
  C 693.48 539.41 697.41 538.37 701.19 534.48
  Q 702.64 532.99 705.32 533.42
  A 1.96 1.85 -21.7 0 1 706.05 533.71
  Q 709.66 536.17 713.02 533.75
  A 2.59 2.59 0.0 0 1 715.89 533.64
  C 719.64 535.93 725.33 539.41 729.43 536.06
  Q 730.48 535.19 731.32 535.26
  Q 734.88 535.52 737.73 535.21
  C 739.25 535.04 739.82 535.37 740.77 536.26
  C 742.10 537.51 745.38 537.34 746.40 537.01
  Q 750.10 535.84 754.03 536.99
  Q 758.03 538.16 762.10 536.06
  A 2.02 2.01 -55.5 0 1 763.22 535.85
  C 764.32 535.96 765.70 536.94 766.97 537.01
  Q 769.79 537.17 772.54 538.23
  C 776.19 539.63 778.82 539.59 782.57 539.57
  A 5.32 5.22 -31.3 0 1 785.00 540.14
  Q 791.82 543.57 797.68 548.04
  C 802.53 551.74 808.70 552.08 815.52 553.43
  Q 817.45 553.81 819.05 554.55
  A 3.68 3.66 82.9 0 1 820.37 555.58
  Q 824.76 561.02 832.24 564.04
  C 834.19 564.83 835.63 565.71 836.90 567.40
  Q 838.71 569.80 840.32 570.47
  C 846.45 573.00 850.79 573.99 852.56 579.73
  C 854.26 585.22 859.96 590.05 864.51 592.43
  A 8.01 7.97 81.5 0 1 866.58 593.97
  L 883.01 610.86
  A 1.41 1.21 -85.5 0 1 883.17 611.08
  C 885.53 615.18 888.47 619.25 892.28 622.46
  Q 894.54 624.37 895.82 628.24
  Q 896.12 629.13 898.92 632.19
  A 1.36 1.32 82.8 0 0 899.32 632.51
  L 904.53 635.30
  A 0.70 0.36 8.9 0 1 904.68 635.41
  Q 910.26 641.50 918.79 646.59
  Q 919.39 646.95 922.25 649.84
  C 924.49 652.11 925.99 655.84 928.29 657.72
  Q 928.58 657.95 931.37 659.97
  A 4.72 4.70 -87.0 0 1 932.68 661.43
  Q 933.97 663.67 935.28 665.97
  C 937.99 670.74 944.10 671.68 946.38 677.40
  Q 947.75 680.87 949.29 682.39
  Q 954.68 687.71 959.42 691.07
  A 5.35 5.19 -0.9 0 1 960.43 692.02
  Q 961.72 693.62 962.76 696.48
  C 964.17 700.37 965.88 703.44 968.51 706.48
  C 969.22 707.29 970.24 709.79 970.69 711.25
  Q 972.26 716.40 975.56 720.70
  A 3.33 3.24 -0.8 0 0 976.29 721.39
  Q 979.17 723.43 979.68 724.06
  Q 981.34 726.16 986.32 733.16
  Q 987.91 735.41 995.80 741.52
  Q 997.54 742.87 999.29 747.67
  Q 999.71 748.82 1002.17 751.52
  Q 1003.79 753.30 1010.54 760.32
  A 3.73 3.63 12.0 0 1 1011.25 761.38
  L 1014.49 768.49
  A 8.43 8.34 -76.1 0 0 1015.45 770.10
  L 1022.45 779.33
  A 4.87 4.65 87.5 0 0 1023.47 780.31
  Q 1024.23 780.84 1027.35 781.89
  C 1030.12 782.83 1030.21 785.50 1031.11 787.47
  C 1032.19 789.85 1035.95 793.01 1037.11 794.43
  A 9.62 9.00 12.8 0 1 1038.01 795.76
  Q 1040.52 800.23 1043.79 803.29
  A 9.64 9.62 -84.7 0 1 1045.35 805.17
  Q 1047.83 809.11 1051.43 813.02
  C 1053.05 814.78 1054.05 818.18 1055.36 820.16
  Q 1058.53 824.98 1060.12 827.82
  A 7.07 6.99 -83.9 0 0 1061.49 829.54
  L 1064.36 832.13
  A 1.09 1.07 -72.0 0 1 1064.71 832.83
  Q 1065.19 837.12 1063.82 840.79
  Q 1062.79 843.54 1062.74 844.14
  C 1062.52 846.82 1063.41 849.74 1060.86 851.80
  Q 1058.45 853.76 1057.30 855.81
  C 1054.84 860.22 1051.45 863.16 1049.37 867.30
  C 1047.25 871.50 1042.34 873.19 1037.86 875.09
  C 1034.41 876.56 1032.18 882.72 1029.69 884.94
  Q 1026.42 887.86 1025.18 889.18
  A 2.58 2.58 0.0 0 0 1024.98 892.49
  L 1030.14 899.41
  A 8.19 7.76 -88.5 0 0 1031.19 900.58
  C 1032.23 901.53 1034.61 902.33 1035.49 903.97
  Q 1036.88 906.56 1036.76 910.33
  A 1.02 1.02 0.0 0 0 1038.53 911.05
  L 1042.94 906.18
  A 3.27 3.26 23.3 0 1 1045.63 905.11
  Q 1057.98 906.10 1070.31 903.57
  A 11.24 10.93 38.4 0 1 1072.56 903.34
  L 1078.41 903.34
  A 3.24 3.18 31.5 0 0 1079.81 903.02
  Q 1082.18 901.88 1083.75 901.70
  Q 1091.82 900.78 1100.76 901.26
  Q 1103.64 901.41 1109.06 899.46
  Q 1112.72 898.14 1114.20 898.13
  C 1118.08 898.11 1127.83 901.17 1128.92 905.80
  C 1129.72 909.19 1130.45 910.85 1130.44 914.26
  Q 1130.42 917.78 1130.40 919.65
  C 1130.37 922.59 1130.84 924.95 1128.36 926.03
  C 1125.26 927.38 1122.38 929.57 1119.29 931.38
  A 4.11 3.99 -83.7 0 0 1118.25 932.24
  Q 1117.92 932.61 1115.82 936.08
  C 1113.69 939.60 1110.14 943.18 1105.53 945.19
  Q 1101.92 946.76 1098.95 948.90
  A 5.56 5.45 -89.2 0 0 1097.69 950.15
  C 1095.44 953.25 1094.63 955.06 1091.89 957.10
  C 1089.29 959.04 1087.82 962.96 1084.81 965.50
  Q 1083.85 966.30 1080.88 967.03
  Q 1075.37 968.39 1071.64 972.64
  Q 1070.20 974.29 1067.86 974.38
  Q 1064.95 974.49 1062.17 975.95
  A 3.95 3.74 -59.4 0 1 1060.59 976.40
  Q 1054.68 976.82 1052.63 976.36
  Q 1050.48 975.89 1046.73 971.19
  A 0.62 0.62 0.0 0 0 1045.65 971.41
  Z
  M 470.33 76.94
  Q 466.59 76.90 463.82 75.67
  Q 460.87 74.36 458.31 74.10
  Q 457.05 73.97 449.73 72.65
  Q 446.34 72.04 438.07 72.64
  A 2.71 2.69 -26.6 0 1 436.12 72.00
  Q 433.75 69.97 431.95 68.31
  C 429.94 66.45 425.43 64.37 424.61 68.74
  C 423.90 72.56 424.53 75.93 423.23 79.55
  A 3.51 3.50 -38.3 0 0 423.05 81.07
  C 423.28 83.33 424.25 84.49 422.97 86.72
  Q 422.22 88.03 422.70 89.17
  C 424.83 94.24 425.55 100.02 422.85 104.82
  A 3.53 3.52 58.7 0 0 422.40 106.69
  L 422.81 118.26
  A 3.14 3.10 54.5 0 1 422.62 119.44
  L 421.19 123.16
  A 1.99 1.94 56.5 0 0 421.05 123.89
  Q 420.88 135.60 420.74 138.59
  C 420.50 143.45 421.05 145.20 424.61 148.06
  Q 425.95 149.14 429.78 149.30
  Q 432.47 149.41 437.02 150.84
  Q 439.62 151.66 447.53 151.05
  Q 449.32 150.91 452.39 148.43
  A 2.72 2.63 -67.6 0 1 453.72 147.85
  L 458.28 147.23
  A 5.60 5.55 26.4 0 0 460.27 146.57
  Q 463.48 144.77 467.35 143.82
  Q 470.65 143.01 471.10 142.39
  C 472.80 140.06 470.42 136.64 468.64 133.76
  A 2.67 2.67 0.0 0 1 468.99 130.51
  C 471.62 127.78 471.35 125.40 471.39 121.58
  Q 471.44 117.30 470.32 114.99
  A 1.62 1.60 -49.2 0 1 470.24 113.77
  L 471.22 110.79
  A 2.49 2.13 59.0 0 0 471.33 110.14
  C 471.38 104.20 470.72 98.80 473.15 95.79
  A 2.96 2.67 47.6 0 0 473.13 92.38
  Q 472.31 91.22 471.88 89.78
  A 1.93 1.86 -49.0 0 1 471.83 88.86
  C 472.21 86.94 472.46 85.15 471.62 83.13
  Q 470.63 80.76 470.84 77.49
  A 0.52 0.52 0.0 0 0 470.33 76.94
  Z
  M 259.14 91.69
  Q 259.67 88.32 261.08 85.98
  A 3.82 3.63 -7.5 0 1 261.71 85.20
  L 264.34 82.70
  A 4.15 4.14 76.2 0 0 265.47 80.83
  C 266.33 77.80 269.97 71.28 263.23 72.15
  Q 257.79 72.85 256.66 73.46
  A 1.65 1.64 -36.0 0 1 254.70 73.16
  L 253.33 71.76
  A 3.05 3.05 0.0 0 0 249.07 71.66
  L 241.86 78.36
  A 1.71 1.48 4.1 0 1 241.62 78.54
  L 237.58 81.10
  A 2.34 2.24 -0.8 0 0 236.92 81.75
  Q 235.10 84.53 234.92 86.24
  Q 234.38 91.31 231.36 95.25
  Q 230.02 96.99 230.48 99.61
  A 1.73 1.72 88.8 0 0 231.94 101.02
  L 236.87 101.70
  A 1.69 0.17 7.8 0 1 237.06 101.74
  Q 249.25 105.30 249.80 105.40
  Q 251.22 105.67 252.58 105.01
  A 0.51 0.50 85.3 0 0 252.86 104.67
  L 255.68 94.40
  A 1.07 1.04 73.1 0 1 255.89 93.99
  Q 256.70 92.98 258.43 92.48
  A 0.99 0.98 -3.3 0 0 259.14 91.69
  Z
  M 289.21 122.97
  C 290.01 120.30 289.02 118.33 287.73 115.71
  A 1.36 1.35 -46.0 0 1 287.71 114.54
  C 289.39 110.74 291.14 106.37 290.31 102.41
  C 289.41 98.13 294.68 91.85 297.08 88.80
  Q 301.17 83.62 303.74 82.09
  Q 311.04 77.72 318.41 84.97
  A 3.40 3.39 71.6 0 0 320.24 85.89
  C 323.76 86.44 327.95 87.34 332.29 87.33
  Q 341.79 87.29 345.79 87.10
  Q 348.57 86.97 349.13 84.34
  A 0.74 0.74 0.0 0 0 348.72 83.52
  Q 346.77 82.60 343.11 79.48
  Q 342.42 78.89 338.25 78.20
  A 4.67 4.63 -27.9 0 1 337.06 77.84
  C 333.61 76.22 332.49 72.62 328.25 72.65
  Q 323.14 72.70 318.80 71.30
  Q 316.30 70.50 313.79 71.30
  Q 310.45 72.35 306.45 72.47
  A 3.23 3.11 53.3 0 1 305.24 72.27
  C 302.02 71.09 299.81 70.00 297.01 71.76
  Q 295.34 72.82 292.14 75.26
  A 2.27 2.22 85.6 0 0 291.52 76.00
  Q 290.04 78.92 286.83 81.57
  Q 285.72 82.48 284.46 86.46
  A 9.27 9.24 72.8 0 1 282.95 89.33
  Q 279.61 93.61 278.41 98.14
  A 10.49 10.39 70.1 0 1 276.90 101.41
  C 274.93 104.23 272.46 106.94 272.46 110.51
  Q 272.46 113.46 272.76 116.02
  A 0.76 0.75 -86.1 0 0 273.31 116.66
  L 284.41 119.71
  A 0.75 0.75 0.0 0 1 284.80 119.98
  L 287.33 123.31
  A 1.07 1.07 0.0 0 0 289.21 122.97
  Z
  M 186.01 92.53
  Q 188.14 95.28 191.53 95.27
  Q 195.12 95.26 202.05 95.91
  C 204.81 96.16 207.30 97.78 210.10 97.20
  A 1.59 1.59 0.0 0 0 211.35 95.46
  Q 210.55 88.63 215.81 84.23
  A 2.43 2.40 75.3 0 0 216.65 82.77
  Q 217.28 78.96 219.16 75.60
  A 1.90 1.90 0.0 0 0 217.87 72.80
  C 213.60 71.98 209.76 74.27 205.51 74.48
  C 200.44 74.73 196.11 80.43 193.26 83.22
  C 191.63 84.81 189.98 85.64 187.76 86.95
  A 2.20 2.18 -88.5 0 0 187.04 87.64
  Q 185.72 89.65 185.67 91.47
  A 1.66 1.59 -64.0 0 0 186.01 92.53
  Z
  M 403.34 82.08
  A 1.60 1.59 1.5 0 0 401.72 80.38
  Q 397.06 80.48 394.33 79.04
  A 1.05 1.03 63.9 0 0 393.99 78.92
  L 388.05 77.89
  A 2.73 2.67 -47.7 0 0 386.86 77.96
  C 381.33 79.65 376.28 80.32 374.53 83.54
  A 1.81 1.78 -33.7 0 0 374.32 84.56
  C 374.74 88.73 375.91 93.18 370.47 94.65
  A 2.32 2.31 2.8 0 0 368.93 96.04
  C 367.04 100.91 365.87 103.27 361.25 106.38
  C 359.28 107.69 358.63 108.48 358.56 110.75
  C 358.32 118.34 361.35 119.15 367.41 121.75
  A 6.75 6.65 77.5 0 1 369.37 123.02
  C 373.89 127.18 377.82 131.59 384.60 130.39
  Q 386.18 130.11 387.43 130.36
  C 389.76 130.83 391.58 130.68 394.40 129.30
  Q 397.29 127.88 399.69 127.80
  A 1.26 1.26 0.0 0 0 400.74 125.91
  L 399.33 123.46
  A 0.91 0.90 -41.3 0 1 399.40 122.46
  Q 401.05 120.37 401.14 118.95
  Q 401.31 116.01 401.37 106.26
  Q 401.38 104.84 401.68 104.28
  C 402.34 103.04 403.80 101.58 402.88 100.01
  Q 400.03 95.14 401.46 88.89
  Q 402.59 83.96 403.03 83.27
  A 1.82 1.73 -28.2 0 0 403.31 82.43
  L 403.34 82.08
  Z
  M 309.37 111.19
  C 308.01 114.86 308.61 120.41 308.89 124.42
  A 2.20 2.17 -24.8 0 1 308.25 126.12
  L 304.74 129.63
  A 2.11 2.11 0.0 0 0 305.09 132.90
  L 308.75 135.23
  A 2.60 2.60 0.0 0 0 311.75 135.09
  Q 318.32 129.95 327.48 127.18
  A 5.33 5.32 -75.6 0 0 329.71 125.86
  Q 333.70 121.89 335.86 119.86
  Q 336.34 119.40 338.09 115.83
  C 339.32 113.32 338.08 111.05 335.91 110.27
  A 1.61 1.61 0.0 0 0 334.45 110.46
  Q 331.24 112.70 327.54 112.20
  C 325.90 111.97 324.86 111.12 323.60 110.78
  A 6.64 6.45 -36.4 0 0 321.84 110.54
  L 310.40 110.47
  A 1.08 1.08 0.0 0 0 309.37 111.19
  Z
  M 515.23 813.44
  L 517.21 809.59
  A 4.73 3.04 -51.2 0 1 517.54 809.02
  L 526.87 794.36
  A 1.08 1.08 0.0 0 0 525.54 792.78
  L 522.08 794.21
  A 1.05 1.00 32.3 0 1 521.68 794.29
  Q 518.36 794.36 514.93 796.69
  A 2.24 2.23 49.1 0 1 512.18 796.49
  L 510.76 795.21
  A 3.12 3.12 0.0 0 0 507.39 794.67
  Q 502.28 796.95 496.39 798.09
  Q 490.95 799.15 486.01 797.34
  A 4.95 4.92 -31.2 0 0 484.94 797.08
  Q 483.31 796.86 477.08 796.85
  C 473.48 796.84 471.50 799.49 467.47 797.96
  C 464.36 796.79 459.83 796.25 457.03 797.09
  Q 452.56 798.44 450.50 798.38
  Q 444.74 798.20 444.13 798.40
  A 1.85 1.83 -40.1 0 1 442.76 798.29
  Q 440.60 797.20 438.00 796.95
  A 3.02 2.95 -25.5 0 1 436.71 796.51
  L 435.00 795.42
  A 1.12 1.10 42.3 0 0 433.73 795.47
  L 432.06 796.74
  A 0.94 0.93 41.2 0 1 431.03 796.80
  Q 427.89 794.94 427.06 794.89
  C 424.99 794.75 422.60 794.66 421.20 793.47
  Q 420.45 792.83 419.96 792.68
  A 1.45 1.45 0.0 0 0 418.81 792.80
  Q 413.60 795.71 407.98 794.35
  Q 404.14 793.42 392.02 789.49
  C 389.71 788.74 387.46 788.65 385.74 788.34
  A 10.69 10.58 -26.5 0 1 382.77 787.36
  L 371.17 781.59
  A 15.72 15.61 67.0 0 0 369.09 780.74
  Q 367.96 780.44 357.71 778.91
  Q 355.20 778.53 353.27 777.48
  Q 343.85 772.36 334.84 769.07
  C 332.39 768.17 329.11 765.57 327.06 765.17
  Q 319.65 763.71 312.97 760.16
  A 8.79 8.64 -9.7 0 1 311.36 759.04
  C 308.09 756.13 305.68 753.57 302.19 752.63
  Q 297.40 751.34 294.37 749.84
  A 7.16 7.13 -10.3 0 1 292.73 748.71
  Q 286.17 742.63 284.25 741.50
  Q 279.11 738.47 277.43 737.32
  A 7.69 6.11 68.8 0 1 276.64 736.68
  L 271.58 731.98
  A 4.05 4.00 80.9 0 0 270.91 731.49
  L 265.07 728.25
  A 1.88 1.85 -3.5 0 1 264.54 727.79
  C 261.83 724.28 257.84 722.17 254.64 718.64
  Q 249.59 713.06 244.99 711.40
  Q 240.50 709.78 239.41 708.90
  Q 231.82 702.77 227.56 697.26
  A 14.96 14.91 -89.9 0 0 224.98 694.66
  C 221.45 691.88 219.64 690.50 216.87 686.88
  Q 214.61 683.92 210.94 681.31
  Q 209.99 680.63 206.60 675.99
  A 4.74 4.68 -89.7 0 0 205.72 675.09
  C 203.13 673.10 198.89 671.72 196.89 668.85
  C 194.89 665.98 193.53 663.52 191.28 661.09
  Q 188.16 657.70 185.67 654.35
  C 182.75 650.41 179.66 648.27 176.95 644.52
  Q 175.08 641.92 170.24 635.92
  Q 168.45 633.69 165.06 627.45
  A 11.25 11.21 10.6 0 0 163.68 625.44
  Q 159.97 621.04 158.41 618.31
  Q 157.99 617.58 158.13 616.28
  C 158.61 611.54 156.16 607.65 158.54 604.27
  C 161.59 599.92 162.89 598.77 163.65 593.90
  A 1.57 1.57 0.0 0 1 163.79 593.48
  L 166.44 588.49
  A 4.42 4.39 56.9 0 0 166.94 586.08
  L 166.17 576.76
  A 1.97 1.82 -42.8 0 1 166.22 576.12
  C 167.34 571.52 167.12 567.38 167.50 563.69
  A 6.22 6.18 -29.6 0 1 168.05 561.72
  Q 171.32 554.83 171.87 548.65
  A 2.63 2.52 61.2 0 1 172.11 547.76
  L 174.66 542.32
  A 4.64 4.56 58.2 0 0 175.09 540.42
  Q 175.15 535.09 177.40 530.16
  A 2.53 2.50 57.4 0 0 177.62 529.13
  L 177.62 525.08
  A 1.69 1.66 -31.0 0 1 177.83 524.27
  C 179.01 522.10 180.72 521.15 181.17 518.50
  Q 181.20 518.32 181.58 513.10
  A 5.83 5.48 -35.7 0 1 181.83 511.82
  Q 183.19 507.58 183.80 503.04
  C 184.66 496.64 189.07 491.61 189.61 485.24
  Q 189.82 482.65 190.99 479.73
  A 6.73 6.70 -29.6 0 0 191.32 478.54
  C 191.99 474.61 192.30 471.42 193.53 467.59
  Q 197.82 454.16 199.37 450.29
  Q 201.07 446.02 202.14 440.69
  Q 202.73 437.74 204.79 431.00
  Q 205.12 429.94 204.06 427.94
  A 1.45 1.43 -52.9 0 1 203.93 426.97
  Q 204.90 422.68 206.14 419.91
  C 206.76 418.53 208.27 417.02 208.99 415.67
  A 3.88 3.81 62.3 0 0 209.44 414.17
  C 209.65 411.65 209.30 409.18 211.61 405.76
  A 6.88 6.27 75.1 0 0 212.29 404.45
  Q 215.06 397.20 215.91 390.12
  Q 216.13 388.35 217.00 386.89
  Q 218.66 384.13 219.25 380.19
  A 6.31 6.09 -30.0 0 1 219.69 378.66
  Q 221.12 375.38 221.23 375.24
  Q 225.95 368.91 227.20 360.97
  Q 227.85 356.89 227.91 354.61
  A 5.80 5.72 58.6 0 1 228.45 352.31
  Q 228.65 351.88 230.65 348.43
  Q 233.40 343.68 235.63 336.59
  A 14.22 14.21 -22.6 0 1 236.50 334.48
  Q 239.66 328.31 239.87 327.06
  C 240.69 322.09 240.46 319.13 242.11 314.94
  Q 243.23 312.10 243.47 306.50
  A 2.24 1.49 -47.6 0 1 243.53 306.11
  L 245.69 297.41
  A 14.60 14.59 65.0 0 1 246.78 294.41
  L 253.14 281.46
  A 3.51 3.45 -35.6 0 0 253.48 279.51
  C 252.77 273.37 254.72 267.33 255.73 263.14
  A 6.15 5.80 67.0 0 1 256.23 261.79
  Q 261.17 252.26 269.72 247.97
  C 273.58 246.03 276.35 243.90 278.16 240.89
  Q 279.92 237.98 283.71 233.95
  A 1.16 1.16 0.0 0 0 283.94 232.72
  C 283.69 232.09 283.74 231.13 284.02 230.41
  Q 285.41 226.80 285.41 224.93
  Q 285.40 217.85 285.40 217.83
  A 9.63 8.96 54.2 0 1 285.61 216.16
  Q 285.68 215.87 286.21 214.49
  C 286.86 212.84 286.50 211.62 285.94 210.04
  C 284.64 206.32 287.38 202.92 288.22 200.05
  A 1.62 1.56 -46.1 0 0 288.22 199.16
  Q 286.07 191.78 288.79 185.34
  Q 289.26 184.24 288.45 183.04
  Q 287.32 181.37 287.40 179.70
  C 287.55 176.61 286.79 173.54 288.58 170.49
  Q 289.96 168.14 289.88 165.76
  C 289.73 161.38 289.98 159.15 287.95 155.63
  Q 286.26 152.70 285.42 149.66
  A 0.42 0.41 -26.0 0 0 284.77 149.44
  Q 282.96 150.76 280.96 150.19
  A 2.88 2.85 69.7 0 1 280.21 149.84
  C 276.23 147.09 273.34 145.75 270.54 142.77
  Q 268.43 140.51 265.60 138.84
  Q 264.04 137.92 260.63 135.00
  Q 254.34 129.61 245.60 130.38
  C 243.71 130.55 241.82 130.18 240.62 128.96
  C 237.89 126.14 233.01 122.26 229.73 122.36
  C 228.24 122.40 226.96 124.46 224.87 123.38
  Q 220.48 121.10 219.42 121.00
  Q 213.29 120.38 209.71 119.33
  C 205.86 118.21 201.37 118.84 198.13 116.55
  A 1.15 1.14 -38.7 0 0 197.02 116.43
  Q 196.10 116.80 195.69 117.15
  A 3.06 2.98 -43.2 0 1 191.65 117.08
  Q 190.53 116.02 189.13 115.27
  A 1.52 1.51 -43.6 0 0 187.73 115.24
  L 185.41 116.39
  A 1.51 1.47 -57.2 0 1 184.76 116.54
  L 175.22 116.54
  A 1.99 1.83 54.5 0 1 174.46 116.38
  C 172.94 115.71 171.69 114.81 169.98 114.62
  Q 166.22 114.20 163.21 116.90
  A 1.23 1.22 -43.3 0 1 161.52 116.85
  Q 160.49 115.83 158.98 115.49
  A 1.93 1.87 -50.2 0 0 157.77 115.62
  C 156.17 116.36 155.67 116.79 153.79 116.64
  Q 149.81 116.32 145.83 118.82
  A 1.39 1.35 -13.2 0 0 145.20 119.80
  Q 144.79 122.91 143.20 126.07
  A 2.76 2.70 63.9 0 0 142.92 126.92
  Q 141.94 132.67 144.51 136.25
  A 1.33 1.31 -39.4 0 1 144.33 137.99
  C 142.20 139.95 140.80 141.57 140.12 144.85
  Q 139.09 149.80 137.17 154.70
  A 4.95 4.83 57.8 0 0 136.84 156.24
  Q 136.68 159.58 136.32 160.60
  Q 132.53 171.44 132.48 176.42
  A 1.41 1.39 56.1 0 1 132.38 176.94
  L 127.43 190.55
  Q 127.40 190.62 127.37 190.69
  C 124.83 195.40 124.87 197.97 124.50 203.38
  A 6.02 5.77 -34.3 0 1 124.20 204.81
  C 123.25 207.52 122.60 208.99 122.50 211.71
  Q 122.36 215.68 120.55 218.93
  Q 119.21 221.34 118.73 223.60
  C 117.73 228.36 116.84 231.32 116.69 236.03
  Q 116.62 238.22 116.03 244.83
  A 5.83 5.69 58.3 0 1 115.73 246.17
  Q 114.66 249.19 112.41 252.13
  C 110.53 254.58 110.89 257.12 110.53 259.79
  A 8.98 8.49 -33.9 0 1 110.21 261.21
  Q 108.43 266.60 108.45 267.76
  C 108.53 274.08 108.32 278.38 103.30 281.89
  A 2.31 2.29 70.9 0 0 102.32 283.94
  L 103.32 298.51
  A 1.55 1.52 54.4 0 1 103.21 299.22
  C 102.21 301.66 100.71 303.84 100.61 306.10
  Q 100.43 310.12 100.21 313.08
  A 9.32 9.25 -36.0 0 1 99.96 314.62
  Q 98.60 319.81 98.49 321.18
  C 98.23 324.25 96.24 327.17 96.40 330.50
  Q 96.50 332.74 95.66 334.92
  Q 94.52 337.87 94.72 342.25
  A 2.86 2.81 54.8 0 1 94.54 343.35
  L 91.95 350.09
  A 3.37 3.23 56.6 0 0 91.73 351.28
  Q 91.74 355.06 90.42 358.35
  A 1.08 1.04 48.7 0 0 90.39 359.03
  L 91.58 363.15
  A 1.53 1.52 -43.0 0 1 91.54 364.14
  L 87.47 374.74
  A 1.05 1.00 49.1 0 0 87.44 375.38
  L 87.79 376.58
  A 4.09 4.02 -43.8 0 1 87.72 379.05
  Q 85.76 384.62 86.71 390.73
  Q 86.84 391.57 86.43 394.56
  A 3.55 3.52 63.8 0 1 85.99 395.87
  Q 82.45 402.07 81.26 409.52
  Q 81.14 410.28 82.39 412.98
  A 3.07 2.94 32.5 0 1 82.68 414.17
  Q 82.73 415.89 81.67 418.93
  Q 79.97 423.81 77.97 428.72
  A 2.82 2.78 54.7 0 0 77.77 429.95
  L 77.96 432.58
  A 2.77 2.74 55.6 0 1 77.73 433.86
  L 73.63 443.14
  A 2.68 2.65 -46.8 0 0 73.69 445.44
  C 76.02 449.96 73.59 451.80 72.37 456.27
  C 71.26 460.36 68.70 462.98 69.42 467.61
  Q 69.81 470.14 67.97 472.67
  Q 67.12 473.84 67.80 475.05
  C 69.79 478.56 68.74 482.33 67.31 486.12
  A 4.30 4.12 58.5 0 0 67.04 487.37
  L 66.21 499.88
  A 5.79 5.68 60.9 0 1 65.61 502.07
  L 64.04 505.18
  A 7.58 7.46 -27.2 0 0 63.34 507.30
  C 62.94 509.33 62.98 511.99 62.08 514.27
  Q 60.94 517.17 60.99 522.21
  Q 61.03 526.42 58.97 531.31
  A 4.19 3.94 -32.6 0 0 58.69 532.42
  L 57.77 541.22
  A 1.82 1.79 44.4 0 0 57.78 541.72
  Q 58.58 547.11 59.35 549.48
  C 60.70 553.58 60.77 557.21 62.46 561.60
  A 4.68 4.67 -43.8 0 1 62.38 565.13
  L 58.89 573.23
  A 4.77 4.64 -34.0 0 0 58.50 575.10
  L 58.50 581.96
  A 4.53 4.38 58.9 0 1 58.05 583.92
  Q 56.39 587.30 56.77 591.25
  C 56.96 593.14 56.33 594.23 55.27 595.88
  A 2.12 2.11 57.1 0 0 54.96 597.34
  C 55.22 599.03 56.52 599.96 56.62 602.06
  Q 56.77 605.22 58.40 608.71
  A 3.30 3.21 -39.2 0 1 58.01 612.07
  Q 57.16 613.17 56.86 614.95
  A 2.07 2.03 -53.6 0 0 57.03 616.15
  Q 58.43 619.06 57.39 622.09
  C 56.53 624.58 58.24 627.31 57.94 630.00
  Q 57.77 631.48 58.53 636.46
  Q 59.05 639.85 57.46 643.54
  C 55.83 647.34 57.26 650.11 59.02 653.93
  A 6.58 6.46 -61.6 0 1 59.54 655.73
  Q 61.08 667.04 64.63 676.23
  Q 65.80 679.28 66.40 679.92
  Q 70.97 684.87 72.03 687.23
  C 73.27 689.99 72.18 692.27 71.14 694.82
  A 2.32 2.31 51.0 0 0 71.01 696.10
  Q 72.36 703.11 77.09 706.39
  A 3.49 3.49 0.0 0 1 78.58 709.52
  C 78.43 711.67 77.79 721.89 79.40 724.10
  Q 84.90 731.68 87.40 740.39
  A 2.84 2.82 4.2 0 0 88.98 742.21
  L 91.98 743.54
  A 1.25 1.18 77.5 0 1 92.29 743.75
  Q 94.00 745.32 94.67 747.07
  Q 96.64 752.19 99.36 756.91
  Q 100.06 758.13 100.91 762.30
  A 4.62 4.55 -65.5 0 0 101.40 763.64
  Q 102.48 765.64 103.07 766.26
  Q 107.78 771.13 111.94 777.11
  C 114.29 780.48 114.88 782.97 116.60 786.87
  Q 117.42 788.73 121.03 792.99
  Q 121.79 793.89 122.98 798.75
  A 6.27 6.23 -67.4 0 0 123.66 800.41
  Q 125.89 804.16 129.90 806.84
  Q 132.13 808.32 133.40 810.20
  Q 136.92 815.40 139.09 819.54
  C 140.86 822.89 144.66 825.52 147.18 828.37
  Q 148.17 829.49 161.57 843.40
  A 8.21 8.14 -7.8 0 0 163.67 844.98
  C 168.30 847.47 169.27 849.18 172.87 853.87
  Q 174.29 855.73 179.58 857.76
  A 0.94 0.71 -7.8 0 1 179.81 857.89
  L 183.88 861.09
  A 8.94 8.68 75.1 0 0 185.80 862.24
  Q 194.63 866.09 198.93 867.60
  C 202.08 868.70 204.13 870.55 207.56 871.52
  Q 213.33 873.16 217.21 876.45
  C 219.28 878.21 221.78 878.83 224.00 879.05
  Q 229.09 879.54 236.87 880.40
  A 4.15 4.04 -28.2 0 1 238.09 880.75
  L 245.58 884.27
  A 1.75 1.64 60.9 0 0 246.08 884.43
  L 260.56 886.95
  A 0.60 0.49 -24.3 0 1 260.71 886.99
  C 262.46 887.57 263.48 888.14 265.68 888.51
  C 270.37 889.32 275.52 889.24 279.93 890.66
  Q 282.43 891.47 286.55 891.67
  A 8.79 8.68 53.9 0 1 288.40 891.97
  Q 295.12 893.83 302.95 892.92
  C 306.63 892.49 308.15 893.82 311.21 894.73
  A 1.33 1.31 37.1 0 0 312.28 894.59
  Q 315.62 892.54 316.62 893.21
  Q 317.92 894.08 320.22 895.06
  A 1.00 0.90 -29.6 0 0 320.63 895.15
  L 331.43 895.46
  A 1.21 1.14 -30.7 0 1 331.83 895.55
  Q 332.49 895.85 333.80 896.73
  A 3.11 3.00 67.8 0 0 334.84 897.19
  Q 335.86 897.41 339.28 897.37
  C 342.61 897.34 344.13 893.95 348.35 896.68
  Q 349.81 897.62 351.47 896.83
  Q 357.75 893.84 365.08 891.86
  A 7.95 7.65 35.3 0 1 366.88 891.59
  Q 372.85 891.35 373.62 891.27
  A 7.42 7.24 31.6 0 0 375.31 890.89
  L 384.41 887.68
  A 6.33 6.16 32.8 0 1 386.19 887.32
  Q 389.83 887.12 392.97 885.09
  Q 393.64 884.66 396.35 884.94
  A 3.36 3.33 37.9 0 0 397.77 884.77
  Q 398.31 884.58 402.25 882.27
  Q 403.52 881.53 406.96 880.49
  C 408.91 879.91 411.29 881.10 413.12 880.10
  Q 415.53 878.78 419.70 877.68
  C 425.60 876.11 432.36 873.54 436.90 871.68
  A 2.46 2.17 -56.7 0 1 437.45 871.53
  L 441.07 870.99
  A 5.26 5.24 -76.9 0 0 444.60 868.78
  Q 447.68 864.32 452.15 863.60
  Q 455.18 863.11 456.94 862.24
  Q 460.63 860.42 465.63 858.69
  A 3.60 3.50 -76.0 0 0 466.97 857.86
  C 468.46 856.39 469.47 854.87 471.51 854.31
  Q 476.72 852.88 481.12 849.35
  Q 488.49 843.42 490.31 842.30
  A 1.64 1.62 -7.5 0 0 491.00 841.41
  C 492.12 837.82 493.07 835.61 496.22 833.38
  Q 500.14 830.60 504.65 825.20
  C 506.86 822.55 507.73 819.95 508.68 817.18
  Q 509.62 814.44 513.36 814.55
  A 2.03 2.02 14.2 0 0 515.23 813.44
  Z
  M 647.58 228.31
  Q 646.01 226.71 643.48 225.74
  A 2.60 2.58 -43.4 0 0 641.74 225.70
  Q 639.12 226.56 637.74 226.55
  Q 622.67 226.36 619.82 226.46
  Q 618.61 226.50 615.71 225.88
  C 611.71 225.01 609.23 228.01 605.34 225.46
  A 2.30 2.29 60.4 0 0 603.98 225.08
  Q 599.15 225.25 597.32 225.80
  Q 594.02 226.78 591.73 226.60
  Q 585.41 226.10 581.08 228.54
  Q 580.34 228.96 578.71 228.69
  Q 577.75 228.53 576.57 227.81
  Q 574.61 226.62 572.24 226.61
  Q 563.61 226.60 559.77 226.61
  Q 557.31 226.61 555.54 228.34
  A 1.07 1.07 0.0 0 1 554.01 228.32
  C 550.89 225.05 547.30 227.61 543.72 225.70
  A 2.14 2.13 -44.0 0 0 541.78 225.67
  Q 540.22 226.44 534.53 226.56
  Q 532.70 226.60 529.76 228.08
  A 3.56 3.25 -60.2 0 1 528.70 228.42
  Q 523.48 229.24 518.89 227.70
  A 2.20 2.16 39.0 0 0 517.12 227.87
  L 514.43 229.43
  A 1.38 1.37 -47.0 0 1 513.17 229.48
  Q 510.43 228.22 507.20 228.65
  A 5.34 5.32 51.8 0 1 504.56 228.33
  Q 498.94 226.14 496.48 225.96
  Q 494.82 225.84 487.09 227.29
  A 1.72 1.62 -46.8 0 1 486.61 227.32
  L 475.78 226.31
  A 1.61 1.46 55.9 0 1 475.33 226.20
  L 472.85 225.25
  A 1.32 1.30 -46.7 0 0 471.80 225.29
  L 465.72 228.25
  A 4.26 4.24 33.2 0 1 463.67 228.67
  Q 460.26 228.52 454.04 228.48
  C 451.04 228.46 450.45 223.76 447.01 226.11
  A 3.06 3.06 0.0 0 1 445.15 226.65
  Q 441.12 226.48 437.71 228.14
  A 2.94 2.93 -58.6 0 1 436.44 228.45
  L 420.71 228.68
  A 3.24 3.23 54.9 0 1 419.51 228.47
  L 415.99 227.12
  A 4.35 4.22 58.8 0 0 414.96 226.85
  Q 412.65 226.54 406.28 226.62
  C 404.31 226.65 400.82 226.31 398.85 227.33
  Q 392.34 230.68 385.65 230.58
  A 3.62 3.57 31.1 0 0 383.94 230.99
  C 381.03 232.49 376.65 233.34 374.11 230.81
  A 1.51 1.46 42.7 0 0 371.94 230.86
  Q 370.60 232.41 368.68 232.41
  Q 356.80 232.39 345.39 232.85
  A 3.42 3.42 0.0 0 0 343.00 233.97
  L 338.91 238.49
  A 1.09 1.08 -65.3 0 1 337.97 238.84
  L 335.57 238.54
  A 0.81 0.78 -46.0 0 0 335.29 238.55
  L 322.13 241.14
  A 10.53 10.49 22.1 0 0 318.23 242.78
  L 314.35 245.43
  A 1.68 1.62 -67.9 0 1 313.81 245.67
  C 311.22 246.34 305.68 246.55 303.23 249.26
  Q 298.45 254.54 293.72 257.33
  A 9.31 9.29 5.8 0 0 291.55 259.10
  Q 286.30 264.89 280.61 268.25
  A 3.01 3.00 -6.4 0 0 279.28 269.91
  C 277.47 275.50 276.66 278.39 273.73 282.64
  A 7.10 7.05 61.2 0 0 272.50 286.94
  L 272.73 292.15
  A 2.35 2.29 -36.5 0 1 272.57 293.14
  Q 270.80 297.75 270.10 298.39
  C 266.78 301.39 263.39 306.40 266.50 310.55
  A 2.51 2.50 -41.7 0 1 266.31 313.78
  C 262.99 317.27 261.09 321.74 262.16 326.55
  A 3.02 3.01 54.3 0 1 261.80 328.78
  C 259.46 332.64 257.09 335.05 256.63 340.35
  A 1.20 0.94 -58.3 0 1 256.60 340.51
  L 253.71 350.98
  A 4.05 3.71 -26.5 0 1 253.44 351.68
  L 251.47 355.69
  A 6.49 6.44 -31.0 0 0 250.80 358.33
  L 250.60 363.37
  A 5.75 5.74 56.2 0 1 250.27 365.04
  L 245.18 379.24
  A 2.69 2.50 -34.7 0 0 245.05 379.83
  Q 244.38 386.95 239.84 392.81
  Q 239.14 393.70 238.69 396.29
  C 238.08 399.75 236.46 402.85 236.48 406.09
  Q 236.50 408.71 235.51 410.81
  Q 234.58 412.77 234.19 416.28
  C 233.80 419.86 232.61 421.73 230.73 424.71
  Q 227.76 429.44 228.12 434.88
  A 3.68 3.68 0.0 0 1 227.86 436.52
  Q 226.39 440.15 226.69 445.32
  C 226.96 449.95 225.00 452.45 223.01 455.90
  A 3.97 3.95 61.9 0 0 222.50 457.60
  C 222.34 460.09 222.85 462.76 221.17 464.86
  Q 218.96 467.61 218.74 470.86
  C 218.42 475.76 215.94 481.00 214.89 485.18
  Q 214.46 486.90 214.70 490.07
  A 1.90 1.87 53.9 0 1 214.58 490.88
  L 211.70 498.50
  A 2.70 2.52 74.0 0 1 211.45 498.99
  Q 209.36 502.35 209.04 504.04
  C 208.43 507.32 207.62 509.77 207.50 512.69
  Q 207.43 514.50 206.48 521.95
  A 10.00 9.42 -32.4 0 1 205.92 524.14
  L 199.08 541.95
  A 4.41 4.38 -31.8 0 0 198.83 543.00
  Q 198.26 548.49 196.74 553.37
  A 0.93 0.61 -47.5 0 0 196.70 553.62
  L 196.55 560.69
  A 2.62 2.30 -41.3 0 1 196.47 561.31
  C 195.18 566.19 192.32 569.95 192.00 574.01
  Q 191.95 574.59 192.50 576.14
  A 3.37 3.32 35.7 0 1 192.69 577.25
  L 192.51 590.07
  A 4.50 4.46 62.0 0 1 191.78 592.49
  Q 189.32 596.27 189.04 601.67
  A 4.63 4.51 61.1 0 1 188.51 603.60
  L 185.01 610.20
  A 2.07 2.07 0.0 0 0 185.38 612.65
  C 188.38 615.65 189.69 616.73 191.10 620.99
  A 6.28 6.13 20.7 0 0 191.72 622.32
  Q 193.02 624.38 193.31 624.68
  Q 198.86 630.48 205.19 636.55
  Q 208.95 640.15 209.90 642.20
  Q 212.59 647.98 216.60 652.00
  Q 217.45 652.85 220.00 653.53
  C 224.45 654.72 226.47 658.77 228.81 661.54
  A 4.69 4.51 -4.1 0 0 230.01 662.54
  C 233.33 664.46 237.27 666.27 238.65 669.13
  Q 240.88 673.76 245.85 676.02
  A 4.10 4.08 -2.1 0 1 247.72 677.75
  L 251.90 685.27
  A 2.61 2.57 -81.4 0 0 252.32 685.85
  Q 254.09 687.70 255.26 688.23
  Q 264.57 692.38 268.39 696.13
  Q 275.25 702.86 279.44 707.06
  Q 281.10 708.74 286.13 711.23
  A 12.30 12.19 75.7 0 1 288.01 712.36
  Q 293.93 716.65 297.87 719.85
  C 301.09 722.47 304.08 723.68 306.95 725.65
  C 309.28 727.24 313.83 728.73 316.62 730.36
  A 8.90 8.78 83.3 0 1 318.53 731.89
  C 320.44 733.91 322.07 736.06 324.14 737.28
  Q 329.39 740.37 332.53 740.98
  Q 337.83 742.02 343.88 743.54
  A 2.52 2.49 -15.0 0 1 344.99 744.17
  Q 349.22 748.31 356.49 750.06
  C 358.48 750.53 358.79 752.30 360.01 753.26
  C 364.84 757.02 369.19 756.96 374.40 757.68
  A 6.27 5.98 60.4 0 1 376.19 758.22
  Q 379.23 759.67 383.07 760.99
  C 388.02 762.69 391.01 764.44 395.62 766.63
  Q 397.01 767.29 400.37 767.37
  A 3.27 3.22 -28.8 0 1 401.93 767.81
  C 405.14 769.65 406.43 773.13 410.86 770.43
  C 413.08 769.08 417.44 769.91 419.91 770.55
  Q 422.99 771.34 425.70 771.73
  Q 437.30 773.41 444.74 773.74
  A 3.37 3.31 -27.9 0 1 446.28 774.20
  C 448.70 775.63 449.88 776.28 452.93 775.78
  C 456.63 775.17 459.40 774.81 462.26 776.90
  A 2.05 2.04 -44.4 0 0 464.66 776.92
  Q 468.93 773.89 474.27 776.85
  Q 475.30 777.43 481.44 777.45
  A 1.03 1.01 26.3 0 0 482.05 777.25
  L 484.33 775.52
  A 0.50 0.45 -66.4 0 1 484.55 775.42
  C 487.49 774.87 488.62 775.70 491.76 776.99
  C 493.67 777.76 496.06 777.29 498.41 776.49
  C 504.83 774.31 510.90 775.10 516.17 775.28
  A 1.66 1.66 0.0 0 0 517.87 773.35
  Q 517.27 769.65 519.13 766.91
  A 1.62 1.60 6.7 0 1 519.91 766.30
  C 525.54 764.28 529.15 762.28 533.32 764.04
  A 1.33 1.33 0.0 0 0 534.36 764.04
  Q 535.04 763.76 535.69 763.21
  C 538.46 760.88 542.41 761.63 545.72 760.78
  Q 550.53 759.54 555.76 759.40
  A 13.39 13.31 36.8 0 0 558.75 758.98
  C 561.62 758.24 563.52 757.70 566.64 757.61
  Q 575.29 757.35 579.78 757.05
  A 9.20 8.83 34.3 0 0 581.62 756.74
  C 583.45 756.24 584.90 755.42 587.19 755.40
  C 592.28 755.35 595.64 753.90 600.66 753.33
  C 605.99 752.72 609.12 748.03 614.98 747.63
  Q 624.70 746.95 629.99 747.99
  A 1.37 1.35 41.7 0 0 630.62 747.96
  L 644.31 743.80
  A 2.56 2.53 -39.2 0 1 646.28 743.99
  L 646.93 744.33
  A 2.33 2.32 -38.0 0 0 648.59 744.53
  L 656.62 742.50
  A 4.13 4.07 -70.6 0 0 658.18 741.74
  Q 660.96 739.55 664.70 739.41
  C 666.99 739.33 669.72 737.92 671.58 738.09
  Q 674.24 738.33 676.79 737.70
  C 680.24 736.86 684.98 737.63 688.59 736.38
  Q 691.37 735.42 694.92 735.12
  A 4.04 4.03 -61.0 0 0 696.38 734.70
  Q 702.38 731.66 704.21 731.61
  Q 711.71 731.40 717.31 729.62
  A 3.58 3.29 -51.8 0 1 718.24 729.47
  L 727.89 729.20
  A 3.97 3.96 -55.4 0 0 729.19 728.96
  L 732.25 727.89
  A 9.39 9.39 0.0 0 1 735.36 727.36
  L 738.82 727.36
  A 2.21 2.19 31.2 0 0 739.82 727.12
  Q 744.46 724.81 749.90 725.88
  A 6.84 6.49 46.5 0 0 751.82 725.98
  Q 759.46 725.31 771.00 724.72
  Q 772.96 724.61 775.22 722.74
  Q 776.09 722.01 779.12 721.63
  A 2.17 2.16 54.9 0 1 780.41 721.86
  L 783.12 723.30
  A 2.99 2.98 -52.5 0 0 786.56 722.84
  L 788.67 720.85
  A 2.40 2.39 -72.5 0 1 789.76 720.28
  C 793.97 719.39 797.66 721.45 800.54 721.94
  A 1.45 1.45 0.0 0 1 801.50 722.55
  C 802.99 724.74 803.19 726.48 804.01 730.11
  A 3.49 3.47 -32.7 0 1 803.37 733.00
  Q 800.37 736.89 797.26 738.56
  C 792.77 740.96 789.61 743.96 785.19 745.41
  A 0.81 0.81 0.0 0 0 784.90 746.78
  L 789.48 750.93
  A 1.78 1.73 -75.5 0 1 790.00 751.84
  Q 790.84 755.69 791.47 757.01
  Q 792.78 759.79 798.86 766.37
  C 801.60 769.33 802.11 771.06 802.89 774.84
  A 5.56 5.50 27.3 0 0 803.31 776.13
  C 804.88 779.58 806.73 785.88 809.28 790.59
  Q 810.67 793.15 811.30 796.35
  A 1.87 1.87 0.0 0 0 812.25 797.64
  C 816.50 799.93 818.27 801.07 819.67 805.49
  Q 821.89 812.51 823.93 815.91
  Q 825.21 818.04 827.07 822.51
  C 828.86 826.82 832.22 829.39 834.08 833.41
  Q 835.60 836.71 838.82 841.08
  A 6.35 5.88 -77.8 0 1 839.44 842.13
  C 841.82 847.25 843.32 852.86 846.40 857.76
  A 3.31 3.28 -2.1 0 0 847.65 858.91
  Q 849.97 860.13 850.73 861.32
  Q 851.35 862.30 856.70 872.94
  Q 857.53 874.57 859.14 878.92
  Q 861.32 884.78 866.39 887.87
  C 868.44 889.12 870.39 891.69 870.43 893.61
  C 870.51 897.23 872.14 900.60 875.15 902.84
  Q 876.75 904.02 877.77 905.72
  Q 880.43 910.14 881.99 914.26
  A 3.65 3.65 0.0 0 0 882.48 915.17
  L 885.70 919.54
  A 1.11 1.07 -74.9 0 1 885.87 919.85
  Q 886.95 922.67 892.10 929.55
  Q 896.82 935.87 903.68 931.98
  Q 905.50 930.94 918.65 926.69
  A 6.68 6.03 18.9 0 0 919.70 926.24
  L 924.16 923.86
  A 2.41 2.36 27.1 0 1 925.06 923.58
  L 928.93 923.14
  A 2.34 2.32 24.5 0 0 930.04 922.73
  L 933.83 920.16
  A 4.27 4.16 -65.5 0 1 935.55 919.49
  C 939.47 918.88 940.72 918.61 944.18 915.84
  A 1.63 1.56 -65.1 0 1 945.08 915.49
  L 947.98 915.29
  A 5.42 5.37 22.5 0 0 951.14 914.00
  L 957.06 908.95
  A 1.35 1.29 -72.8 0 1 957.53 908.69
  Q 963.60 906.77 964.35 906.05
  Q 970.48 900.12 978.71 897.80
  Q 981.00 897.15 982.66 894.92
  C 983.45 893.86 983.46 891.80 983.72 890.51
  A 3.06 3.05 -17.8 0 1 984.51 888.98
  Q 987.58 885.77 989.26 885.19
  Q 993.77 883.61 997.56 879.99
  C 999.95 877.70 1001.75 876.28 1003.97 874.80
  C 1006.99 872.79 1010.20 868.86 1012.99 866.87
  A 7.78 7.21 -72.2 0 1 1014.36 866.10
  L 1017.76 864.64
  A 1.56 1.53 83.4 0 0 1018.67 863.47
  Q 1019.73 857.23 1026.53 855.06
  Q 1027.88 854.63 1029.09 853.29
  C 1030.79 851.41 1032.29 850.42 1034.12 848.87
  A 4.33 4.14 87.0 0 0 1035.03 847.81
  C 1037.17 844.27 1037.90 840.70 1039.34 837.10
  A 3.64 3.63 35.7 0 0 1038.73 833.37
  Q 1036.70 831.01 1036.15 830.16
  C 1035.00 828.39 1035.67 825.07 1033.90 823.54
  C 1032.10 821.99 1031.08 819.75 1029.81 818.44
  A 7.26 7.13 82.4 0 0 1028.32 817.28
  Q 1023.47 814.42 1022.42 812.30
  C 1019.37 806.13 1014.46 799.01 1008.60 794.26
  Q 1005.98 792.13 1003.96 788.76
  A 8.66 8.15 -83.9 0 0 1002.90 787.36
  Q 997.90 782.04 997.31 781.19
  Q 994.84 777.63 986.81 767.69
  A 10.00 9.93 87.5 0 0 984.63 765.68
  Q 979.49 762.19 974.32 755.38
  Q 972.30 752.72 971.23 749.47
  C 970.44 747.05 968.13 745.60 966.11 744.00
  C 964.08 742.39 963.00 739.96 960.70 738.37
  C 957.90 736.42 954.76 733.43 954.02 730.98
  Q 952.01 724.38 950.82 722.43
  Q 947.18 716.46 941.78 709.78
  C 938.40 705.61 934.61 702.41 931.08 698.48
  C 929.03 696.20 925.08 694.49 922.73 691.80
  Q 920.99 689.80 917.79 687.52
  A 4.38 4.34 2.2 0 1 916.65 686.30
  L 912.47 679.55
  A 4.50 4.45 -85.3 0 0 911.65 678.57
  Q 905.94 673.48 902.98 668.07
  A 10.78 10.75 -88.5 0 0 899.22 664.10
  C 894.03 660.88 888.61 656.93 883.89 651.69
  Q 881.13 648.64 877.08 645.33
  A 6.37 5.98 89.1 0 1 876.14 644.36
  L 872.23 639.31
  A 2.26 2.18 -88.9 0 0 871.99 639.05
  L 859.16 627.43
  A 4.01 3.92 6.9 0 1 858.35 626.42
  Q 856.85 623.81 855.04 621.75
  Q 846.39 611.94 837.48 605.10
  A 3.23 3.02 2.5 0 1 836.95 604.56
  L 831.62 597.53
  A 1.59 1.55 25.1 0 1 831.30 596.68
  L 831.12 594.08
  A 1.85 1.84 3.0 0 0 829.59 592.39
  C 825.20 591.63 821.62 589.57 818.73 585.86
  C 816.34 582.79 812.92 583.16 810.15 581.66
  Q 807.03 579.97 806.41 579.05
  Q 804.21 575.81 800.37 574.99
  C 797.12 574.30 793.91 573.06 788.52 571.48
  C 785.27 570.53 782.53 568.73 780.17 567.31
  A 3.17 3.16 63.0 0 0 778.76 566.85
  C 772.71 566.33 766.86 567.48 763.26 561.80
  A 1.09 1.09 0.0 0 0 761.57 561.60
  C 759.52 563.63 753.18 562.81 746.99 562.58
  A 4.73 4.60 58.9 0 1 745.05 562.07
  Q 741.61 560.32 736.80 560.44
  Q 735.04 560.49 731.81 562.11
  C 729.99 563.02 725.28 564.58 723.34 563.40
  C 721.08 562.03 719.65 559.55 716.34 560.82
  Q 715.73 561.05 713.71 562.36
  A 2.07 2.05 27.8 0 1 712.56 562.71
  L 706.19 562.71
  A 4.39 4.36 -23.7 0 1 703.24 561.57
  L 700.30 558.91
  A 1.67 1.66 -41.3 0 0 698.23 558.78
  Q 692.63 562.68 686.16 558.95
  A 2.12 2.11 -43.1 0 0 684.14 558.89
  C 681.31 560.31 678.57 560.42 675.63 561.53
  Q 672.77 562.62 672.03 562.63
  C 668.45 562.67 666.24 562.59 663.10 563.56
  Q 660.00 564.51 659.21 564.52
  Q 649.06 564.60 644.89 564.69
  C 642.54 564.74 641.33 565.39 638.77 566.17
  A 2.73 2.26 -50.4 0 1 638.19 566.28
  L 628.54 566.73
  A 6.61 6.51 34.1 0 0 626.75 567.06
  C 624.20 567.90 622.65 568.53 620.01 568.53
  Q 615.83 568.53 613.54 569.41
  Q 611.16 570.33 607.88 570.60
  Q 605.73 570.78 602.24 572.03
  C 599.65 572.96 597.97 571.86 595.70 570.84
  A 2.52 2.47 56.3 0 0 594.70 570.63
  L 584.77 570.63
  A 2.86 2.85 21.0 0 0 582.65 571.57
  L 580.63 573.79
  A 3.12 3.11 37.0 0 1 576.66 574.34
  C 573.72 572.47 570.82 571.36 567.07 572.21
  Q 564.72 572.75 561.61 572.57
  C 558.98 572.41 557.12 573.96 554.32 573.04
  C 552.62 572.48 551.63 572.41 549.74 573.34
  C 546.59 574.88 543.45 574.74 538.67 574.90
  A 9.14 8.99 32.3 0 0 535.43 575.60
  C 533.15 576.55 531.37 577.77 528.71 578.12
  C 524.54 578.65 519.84 577.95 516.10 578.25
  Q 510.28 578.72 506.12 578.40
  C 504.39 578.27 503.24 579.23 502.09 580.22
  A 1.09 1.09 0.0 0 1 500.57 580.12
  Q 497.53 576.74 493.76 579.32
  A 1.00 0.94 20.3 0 1 493.38 579.48
  L 487.68 580.60
  A 1.69 1.68 -27.9 0 1 486.17 580.14
  C 483.13 577.09 481.05 578.50 477.68 580.07
  A 3.18 3.16 48.6 0 1 474.66 579.87
  L 469.29 576.45
  A 0.55 0.55 0.0 0 0 468.47 576.76
  Q 468.15 577.90 468.09 578.77
  C 467.94 581.03 469.26 582.27 467.78 584.58
  C 465.98 587.40 467.21 589.28 468.07 592.09
  Q 469.26 595.94 467.54 599.19
  C 466.33 601.47 468.08 604.59 468.20 607.03
  C 468.31 609.30 466.64 612.69 466.78 614.75
  Q 466.93 616.92 466.79 619.56
  C 466.71 621.05 465.35 622.46 465.56 624.26
  A 2.45 2.32 29.4 0 0 465.82 625.10
  Q 467.26 627.89 466.67 630.24
  Q 465.08 636.54 460.67 644.77
  C 459.06 647.79 456.30 650.48 453.59 651.38
  Q 450.36 652.46 446.13 650.10
  A 2.26 2.25 5.2 0 1 445.10 648.87
  L 441.78 639.40
  A 2.17 2.15 -41.5 0 1 441.89 637.72
  C 444.41 632.74 447.52 628.66 443.58 623.27
  A 2.60 2.58 -56.0 0 1 443.17 621.11
  Q 444.75 614.99 445.52 611.22
  C 445.99 608.93 447.96 607.19 447.24 604.58
  C 446.47 601.77 447.44 597.85 447.32 595.27
  C 447.22 592.96 445.67 592.60 446.90 590.11
  Q 448.18 587.51 445.98 584.66
  Q 444.98 583.37 445.66 580.24
  A 1.93 1.87 71.9 0 1 446.05 579.44
  Q 447.39 577.86 447.40 576.96
  Q 447.55 562.11 447.45 553.25
  Q 447.42 550.01 446.82 548.93
  Q 444.81 545.24 446.00 542.25
  Q 447.31 538.97 447.33 538.54
  Q 447.52 533.11 448.32 528.42
  Q 449.59 521.03 449.54 510.75
  C 449.51 504.87 451.01 499.84 451.16 494.17
  Q 451.42 484.71 451.37 472.67
  C 451.36 469.31 454.19 468.18 452.16 464.50
  C 449.80 460.22 452.66 456.82 455.10 453.60
  A 1.39 1.37 -26.8 0 0 455.38 452.77
  L 455.38 441.29
  A 7.33 7.13 55.8 0 1 455.82 438.80
  C 456.40 437.22 459.20 432.49 455.21 432.55
  Q 450.69 432.61 447.23 430.79
  Q 444.24 429.22 443.68 428.99
  A 2.65 2.61 56.8 0 0 442.81 428.80
  L 434.07 428.33
  A 6.93 6.87 56.6 0 1 432.07 427.91
  C 430.42 427.36 429.15 426.35 427.00 427.03
  Q 425.75 427.42 423.92 426.79
  C 421.23 425.87 418.68 426.25 415.52 426.32
  C 411.28 426.41 406.14 421.89 405.44 417.79
  Q 404.80 414.02 406.10 411.69
  Q 408.95 406.56 414.78 406.36
  C 417.74 406.25 419.87 404.92 423.28 406.30
  Q 426.23 407.50 430.16 407.31
  C 432.58 407.20 433.71 407.79 436.19 408.67
  A 5.77 5.45 55.6 0 0 437.62 408.98
  C 440.86 409.26 444.52 408.79 448.27 409.78
  C 451.14 410.55 455.23 408.85 457.90 408.08
  A 2.47 2.44 -42.1 0 1 459.47 408.15
  L 463.02 409.51
  A 3.05 3.02 -37.8 0 0 464.51 409.69
  L 468.29 409.21
  A 2.37 2.31 -40.2 0 1 469.27 409.28
  Q 470.19 409.53 470.80 409.99
  C 472.24 411.05 473.91 410.54 475.05 409.90
  C 477.43 408.55 479.45 409.76 481.81 410.77
  A 4.98 4.94 -33.0 0 0 483.69 411.16
  Q 491.65 411.27 493.49 411.22
  Q 494.13 411.21 495.45 410.24
  C 497.15 409.01 498.83 408.76 500.46 409.84
  Q 504.51 412.53 508.89 409.72
  A 3.06 3.03 48.7 0 1 512.51 409.97
  C 515.42 412.43 517.75 408.99 520.45 409.37
  Q 525.00 410.02 525.51 409.87
  Q 528.40 409.05 531.53 408.51
  A 6.45 6.32 -44.2 0 1 533.80 408.52
  C 539.89 409.65 546.69 408.48 551.23 408.65
  A 4.00 3.98 -54.9 0 0 552.87 408.36
  Q 558.02 406.23 562.75 408.27
  C 564.52 409.03 566.59 409.03 568.00 409.04
  Q 583.35 409.18 597.00 409.05
  Q 597.94 409.04 600.74 407.75
  A 1.34 1.34 0.0 0 1 601.92 407.79
  Q 605.30 409.64 611.07 408.99
  C 613.64 408.70 615.84 406.77 618.56 408.12
  Q 619.99 408.82 621.52 408.55
  Q 624.80 407.96 626.74 408.45
  A 1.19 1.09 -41.2 0 0 627.19 408.46
  L 638.61 406.42
  A 4.69 4.63 49.8 0 1 641.04 406.64
  C 644.07 407.69 646.47 409.21 650.34 409.16
  A 2.89 2.83 -58.6 0 0 651.61 408.84
  Q 653.05 408.11 655.42 406.71
  Q 656.26 406.22 661.39 405.69
  A 4.49 4.47 -36.3 0 1 663.62 406.03
  C 666.56 407.28 668.98 407.99 672.10 406.47
  Q 674.35 405.37 676.02 405.78
  A 3.10 3.03 66.7 0 1 676.87 406.13
  C 679.03 407.43 679.92 407.88 682.73 406.47
  C 686.19 404.75 688.20 407.01 691.28 406.69
  Q 693.90 406.41 698.14 407.40
  Q 699.13 407.63 700.28 407.03
  C 702.06 406.10 703.17 405.95 705.26 406.47
  Q 710.91 407.85 715.11 408.04
  A 3.80 3.74 -33.5 0 1 716.29 408.27
  Q 720.69 409.82 724.96 408.50
  C 729.44 407.13 735.31 407.13 738.70 407.61
  A 0.99 0.68 -37.0 0 0 738.93 407.60
  L 743.15 406.66
  A 4.05 3.98 -49.3 0 1 744.24 406.57
  Q 747.63 406.80 749.41 406.43
  Q 751.91 405.92 754.34 406.31
  C 756.82 406.72 760.13 406.12 763.62 407.06
  A 3.18 3.00 51.4 0 0 764.47 407.18
  L 778.73 407.18
  A 2.48 2.34 -53.8 0 0 779.59 407.02
  Q 785.36 404.91 790.53 405.23
  Q 794.64 405.48 796.32 404.91
  A 1.40 1.37 5.0 0 0 797.09 404.28
  C 799.43 400.03 800.01 396.11 801.55 390.07
  Q 802.59 385.97 802.88 381.40
  Q 803.39 373.27 803.54 370.16
  A 4.45 4.34 57.7 0 1 803.85 368.70
  C 805.30 365.11 805.99 363.91 805.43 359.54
  A 4.74 3.45 51.5 0 1 805.39 358.95
  Q 805.36 350.93 805.48 346.48
  C 805.56 343.00 805.27 340.12 807.08 337.23
  A 2.53 2.47 64.0 0 0 807.46 336.09
  Q 807.58 334.43 806.69 332.53
  C 805.17 329.28 805.63 327.72 806.90 323.97
  Q 808.25 319.99 806.47 315.11
  C 805.30 311.91 804.89 310.31 806.06 307.45
  A 3.08 3.07 37.8 0 0 805.67 304.41
  L 803.68 301.78
  A 2.00 1.92 23.4 0 1 803.30 300.87
  Q 802.85 297.47 803.72 294.18
  A 4.22 4.20 -38.6 0 0 803.86 292.96
  Q 803.61 287.46 801.91 283.46
  A 4.72 4.65 31.1 0 1 801.56 282.09
  C 801.37 280.47 801.34 278.91 800.93 277.42
  Q 800.27 275.03 798.06 266.23
  C 797.16 262.68 796.68 259.01 795.03 255.43
  C 793.84 252.84 793.50 250.48 792.76 248.05
  A 5.76 5.75 19.3 0 0 791.99 246.45
  L 789.64 243.01
  A 1.38 1.33 -63.0 0 1 789.41 242.25
  L 789.41 236.30
  A 1.15 1.15 0.0 0 0 788.49 235.17
  Q 786.16 234.68 784.30 233.55
  A 2.64 2.61 52.5 0 0 782.25 233.27
  Q 780.88 233.64 778.40 233.04
  C 772.68 231.66 767.52 233.75 763.39 230.71
  A 1.00 0.99 53.3 0 0 762.46 230.57
  C 761.17 231.00 760.47 232.36 758.76 232.44
  Q 753.19 232.68 750.81 232.15
  Q 747.16 231.34 745.68 231.53
  A 3.30 3.29 -35.3 0 1 743.78 231.21
  C 741.77 230.21 739.77 229.28 737.63 231.56
  A 1.94 1.93 -49.8 0 1 735.06 231.78
  Q 731.42 229.04 726.13 231.58
  A 3.36 3.35 46.2 0 1 723.12 231.51
  L 721.36 230.58
  A 3.53 3.52 -43.3 0 0 718.23 230.49
  C 716.21 231.42 713.95 232.03 711.65 231.04
  C 709.59 230.15 707.52 230.63 705.12 229.85
  Q 701.84 228.78 697.82 230.40
  C 695.39 231.38 694.04 229.85 691.91 229.12
  A 4.09 3.97 53.6 0 0 690.60 228.90
  C 677.51 228.79 671.65 228.55 665.22 228.92
  Q 661.09 229.17 659.13 228.54
  C 655.31 227.30 652.27 224.48 648.51 228.31
  A 0.66 0.65 44.7 0 1 647.58 228.31
  Z
  M 847.83 277.46
  C 849.23 274.65 849.24 272.90 848.56 269.96
  A 1.71 1.64 43.8 0 1 848.53 269.26
  L 849.03 266.39
  A 1.40 1.40 0.0 0 0 848.87 265.45
  L 846.83 261.92
  A 2.61 2.61 0.0 0 0 843.89 260.70
  Q 841.31 261.39 838.94 262.64
  A 3.21 2.71 45.7 0 1 835.91 262.35
  C 834.17 261.19 833.22 260.54 830.68 261.43
  Q 826.84 262.76 821.61 262.06
  A 2.36 2.35 10.9 0 0 819.02 263.80
  C 818.14 267.16 820.18 270.47 820.59 274.10
  Q 820.86 276.44 822.83 278.52
  A 2.97 2.97 0.0 0 0 824.99 279.45
  C 829.76 279.47 836.21 279.72 841.46 278.68
  Q 846.52 277.68 846.82 277.82
  A 0.77 0.77 0.0 0 0 847.83 277.46
  Z
  M 603.75 490.26
  A 0.72 0.71 26.7 0 0 604.74 489.94
  Q 607.39 484.31 611.48 480.45
  A 1.00 1.00 0.0 0 0 611.07 478.76
  C 608.15 477.90 605.37 479.50 602.71 479.68
  Q 599.95 479.87 599.21 481.23
  C 597.16 485.01 600.57 488.53 603.75 490.26
  Z
  M 594.73 545.22
  Q 592.83 538.87 593.57 531.76
  C 593.88 528.81 593.63 525.13 592.47 523.03
  Q 590.01 518.59 587.60 510.63
  Q 586.48 506.95 585.23 505.69
  Q 580.30 500.74 577.18 494.15
  Q 576.52 492.75 572.81 490.36
  A 3.17 3.16 -79.2 0 1 571.41 488.30
  Q 570.84 485.36 569.12 483.63
  Q 566.31 480.81 564.59 479.24
  A 1.45 1.45 0.0 0 0 562.98 479.01
  L 556.27 482.29
  A 1.60 1.56 -57.0 0 1 555.60 482.44
  L 536.28 482.58
  A 2.78 2.45 -48.6 0 0 535.64 482.66
  L 532.02 483.48
  A 4.35 3.70 33.7 0 1 531.26 483.57
  Q 525.37 483.64 519.85 486.01
  A 7.06 6.94 -57.0 0 1 517.29 486.58
  Q 513.38 486.70 509.04 488.30
  A 2.68 2.59 -55.5 0 1 508.26 488.46
  L 502.77 488.64
  A 5.35 5.24 -55.7 0 0 501.08 488.98
  Q 497.30 490.38 491.91 490.80
  A 6.97 6.92 -58.1 0 0 489.75 491.31
  C 486.49 492.65 483.40 492.69 479.66 493.94
  Q 477.37 494.71 474.99 494.36
  A 1.46 1.44 -73.1 0 0 473.48 495.18
  Q 472.84 496.55 472.81 498.02
  Q 472.63 506.10 472.61 508.39
  Q 472.57 511.24 471.72 518.71
  Q 470.98 525.11 470.22 532.61
  A 4.21 4.13 -51.4 0 0 470.39 534.25
  C 471.71 538.56 469.11 540.20 468.45 543.53
  Q 467.33 549.16 470.86 553.76
  A 1.74 1.73 -26.8 0 0 472.72 554.37
  L 480.18 552.21
  A 3.59 3.59 0.0 0 1 482.18 552.21
  Q 485.64 553.23 489.71 551.70
  Q 491.87 550.88 493.72 551.82
  Q 498.08 554.03 502.88 552.60
  C 505.75 551.74 506.14 552.07 509.06 552.64
  C 512.79 553.38 514.42 551.96 517.17 550.32
  A 5.82 5.69 -64.6 0 1 519.09 549.61
  Q 522.09 549.09 525.58 547.63
  Q 526.70 547.17 533.39 547.15
  A 4.30 4.24 57.0 0 1 535.17 547.54
  L 538.05 548.87
  A 5.22 5.12 56.4 0 0 540.31 549.35
  L 551.90 549.24
  A 4.29 3.97 -47.2 0 0 552.54 549.19
  C 555.48 548.69 559.22 545.68 562.76 545.82
  A 2.25 2.25 0.0 0 1 563.51 545.99
  Q 567.16 547.48 568.34 547.16
  C 573.36 545.77 577.58 548.92 583.05 545.72
  A 1.12 1.11 40.1 0 1 584.01 545.64
  C 588.60 547.35 589.00 550.27 594.29 546.51
  A 1.18 1.17 -26.3 0 0 594.73 545.22
  Z
  M 626.81 497.69
  A 1.01 1.01 0.0 0 0 625.37 496.57
  L 614.38 502.26
  A 1.99 1.91 -59.2 0 1 613.69 502.45
  L 611.92 502.60
  A 0.82 0.81 -89.2 0 0 611.17 503.33
  Q 610.66 508.22 612.27 510.50
  C 615.96 515.70 619.41 519.62 619.13 525.64
  A 1.72 1.72 0.0 0 0 621.80 527.16
  C 625.63 524.63 629.41 522.74 633.68 521.35
  Q 636.78 520.34 640.50 518.36
  Q 644.40 516.28 652.48 514.87
  C 655.07 514.41 657.45 513.25 659.39 512.70
  A 5.52 5.33 37.6 0 1 661.09 512.51
  Q 667.71 512.84 674.78 515.26
  A 1.53 1.53 0.0 0 0 676.79 513.56
  Q 676.72 513.16 675.88 511.94
  Q 674.97 510.61 672.42 507.69
  A 5.20 5.19 85.1 0 0 671.20 506.66
  C 664.67 502.76 659.52 505.39 651.31 508.25
  C 647.29 509.65 644.37 512.36 640.01 513.47
  C 637.57 514.09 634.88 515.83 632.66 516.46
  A 2.80 2.78 49.2 0 1 630.71 516.31
  C 627.40 514.75 624.33 513.98 623.58 510.48
  Q 621.99 503.17 626.37 498.63
  A 1.64 1.59 74.1 0 0 626.76 497.90
  L 626.81 497.69
  Z
  M 636.56 544.84
  A 0.50 0.50 0.0 0 0 636.06 544.34
  A 0.50 0.50 0.0 0 0 635.56 544.84
  A 0.50 0.50 0.0 0 0 636.06 545.34
  A 0.50 0.50 0.0 0 0 636.56 544.84
  Z
  M 1021.76 922.20
  L 1020.15 919.96
  A 1.00 0.77 26.5 0 1 1020.02 919.69
  Q 1018.71 915.26 1017.45 914.02
  Q 1013.27 909.94 1009.52 905.23
  C 1005.24 899.86 1000.47 905.31 997.46 908.81
  Q 995.49 911.10 998.01 913.47
  Q 999.50 914.87 1003.43 918.60
  A 4.79 4.54 -84.4 0 1 1004.26 919.67
  C 1006.12 922.95 1006.48 925.33 1007.16 929.49
  A 1.38 1.35 -76.0 0 0 1007.65 930.32
  Q 1009.18 931.50 1010.59 931.58
  A 1.54 1.53 27.0 0 0 1011.67 931.23
  Q 1014.42 928.98 1018.79 926.43
  Q 1020.89 925.20 1021.84 922.97
  A 0.78 0.78 0.0 0 0 1021.76 922.20
  Z"
/>
<ellipse fill="#000000" cx="0.00" cy="0.00" transform="translate(751.35,691.16) rotate(-2.7)" rx="0.69" ry="0.54"/>
</svg>
