<?xml version="1.0" encoding="UTF-8" standalone="no"?>
<!DOCTYPE svg PUBLIC "-//W3C//DTD SVG 1.1//EN" "http://www.w3.org/Graphics/SVG/1.1/DTD/svg11.dtd">
<svg xmlns="http://www.w3.org/2000/svg" version="1.1" viewBox="0.00 0.00 1200.00 1200.00">
<path fill="#000000" d="
  M 912.24 586.77
  Q 911.54 583.33 910.52 580.74
  C 909.48 578.08 914.26 572.65 915.78 571.32
  A 0.62 0.61 54.7 0 0 915.91 570.55
  Q 914.15 567.41 915.00 566.05
  Q 918.60 560.33 918.74 560.07
  A 6.34 6.16 64.6 0 0 919.43 558.04
  L 919.94 554.70
  A 4.29 4.00 61.4 0 1 920.12 554.00
  Q 923.33 544.68 923.61 542.67
  C 924.32 537.71 926.22 535.19 927.99 531.97
  A 10.96 10.87 68.2 0 0 929.03 529.52
  L 932.21 518.11
  A 2.71 1.77 -52.4 0 1 932.33 517.77
  L 941.45 498.61
  A 3.87 3.71 -33.7 0 0 941.82 496.94
  Q 941.76 492.17 944.86 488.65
  C 947.13 486.07 947.37 485.21 948.62 482.55
  C 950.31 478.98 953.06 475.38 954.11 473.65
  Q 955.40 471.53 957.43 466.24
  C 958.22 464.20 957.59 462.05 958.03 459.99
  A 1.48 1.48 0.0 0 1 958.35 459.35
  L 963.23 453.64
  A 3.81 3.77 20.0 0 1 966.12 452.31
  Q 971.62 452.32 972.92 452.37
  C 977.54 452.53 980.27 460.26 982.53 465.09
  C 985.93 472.36 987.44 480.45 987.13 488.43
  C 987.02 491.29 989.04 494.16 989.86 496.89
  A 2.45 2.43 -43.7 0 1 989.82 498.44
  Q 988.00 503.42 990.34 508.54
  A 6.00 5.89 32.2 0 1 990.88 510.82
  Q 991.00 514.35 991.04 518.56
  C 991.08 521.94 991.68 523.74 992.66 527.48
  A 2.78 2.45 41.4 0 1 992.74 528.12
  L 992.88 540.32
  A 7.06 6.99 36.6 0 0 993.18 542.28
  C 993.58 543.61 995.50 545.82 994.18 547.73
  Q 992.49 550.16 992.88 552.83
  C 993.41 556.51 993.13 559.62 992.86 564.00
  C 992.74 566.03 994.84 568.87 994.94 570.89
  C 995.17 575.26 994.78 576.13 993.37 579.39
  A 5.03 5.01 -32.4 0 0 992.95 581.25
  L 992.80 585.89
  A 1.89 1.87 61.3 0 1 992.56 586.73
  Q 988.51 593.63 983.24 596.69
  C 981.49 597.71 979.86 596.48 978.18 596.85
  Q 974.32 597.71 971.63 597.65
  A 2.75 2.74 0.5 0 0 968.83 600.39
  L 968.83 605.58
  A 2.45 2.45 0.0 0 0 971.37 608.03
  Q 977.14 607.84 979.51 608.53
  Q 979.73 608.60 989.29 613.06
  C 995.18 615.81 995.19 620.14 995.09 625.72
  A 1.55 1.51 31.5 0 0 995.29 626.51
  L 996.83 629.17
  A 1.24 1.23 44.8 0 1 996.84 630.39
  Q 993.59 636.31 994.68 641.82
  A 1.49 1.49 0.0 0 1 994.35 643.08
  L 992.51 645.23
  A 3.77 3.75 70.9 0 0 991.68 646.95
  Q 990.60 652.38 986.21 657.73
  C 982.98 661.66 977.08 657.79 972.58 661.23
  C 969.88 663.30 967.81 663.45 964.14 664.89
  C 960.20 666.43 954.74 664.90 950.87 663.34
  A 1.93 1.92 40.5 0 0 949.16 663.47
  Q 946.17 665.23 944.23 667.77
  A 1.29 1.28 40.4 0 1 942.34 667.92
  Q 938.31 664.18 934.21 666.27
  Q 931.56 667.63 930.52 667.66
  Q 928.32 667.71 924.79 667.48
  A 1.60 1.55 -19.3 0 1 923.75 667.00
  C 921.65 664.82 920.57 661.79 919.38 658.79
  A 3.22 3.11 12.7 0 0 918.67 657.71
  L 915.93 654.97
  A 1.54 1.52 41.2 0 1 915.79 652.96
  Q 917.25 651.06 917.61 648.09
  A 1.96 1.95 13.8 0 0 916.35 646.02
  Q 914.55 645.34 912.57 644.95
  C 909.07 644.26 908.42 645.35 906.35 646.95
  A 0.91 0.90 36.8 0 1 905.45 647.07
  C 904.64 646.74 903.53 646.07 902.65 645.90
  C 896.16 644.68 891.19 640.92 884.58 644.73
  A 2.02 1.95 -0.5 0 0 883.83 645.47
  C 881.98 648.56 883.44 651.92 884.61 655.28
  A 4.72 4.56 37.1 0 1 884.88 657.00
  Q 884.76 661.85 884.90 668.25
  Q 884.98 671.97 886.35 674.74
  Q 886.85 675.77 886.89 677.08
  Q 887.07 684.01 887.00 690.24
  Q 886.97 692.78 888.42 695.35
  C 889.68 697.60 887.58 699.77 887.26 701.98
  Q 886.40 708.08 888.60 713.56
  A 4.39 4.22 -57.9 0 1 888.92 715.09
  L 889.12 723.58
  A 6.97 6.87 -53.6 0 0 889.35 725.19
  Q 891.85 734.46 890.56 742.22
  Q 890.01 745.55 886.54 749.55
  Q 885.99 750.18 880.34 752.88
  A 7.45 7.39 -58.0 0 1 877.29 753.60
  Q 872.73 753.70 871.66 754.17
  Q 869.87 754.94 865.54 757.23
  A 2.99 2.98 -61.7 0 1 864.48 757.55
  C 861.40 757.85 860.11 755.64 857.13 758.86
  A 1.20 1.20 0.0 0 1 855.40 758.90
  L 854.39 757.88
  A 3.01 3.00 -32.4 0 0 851.24 757.18
  L 845.34 759.32
  A 0.84 0.84 0.0 0 1 844.85 759.35
  L 841.65 758.60
  A 1.76 1.73 35.7 0 0 840.36 758.80
  C 838.90 759.67 837.02 760.43 835.19 759.97
  Q 834.08 759.70 833.02 759.72
  A 1.42 1.20 -49.7 0 0 832.60 759.79
  L 828.70 761.06
  A 0.96 0.94 40.5 0 1 828.25 761.09
  Q 825.71 760.65 823.61 761.06
  C 819.85 761.78 816.11 761.62 812.66 762.03
  A 2.35 2.20 -56.4 0 0 812.15 762.15
  L 808.52 763.53
  A 1.22 1.18 -50.0 0 1 807.95 763.59
  L 803.10 762.91
  A 2.31 2.28 -52.1 0 0 801.88 763.07
  Q 795.51 765.77 789.25 765.49
  C 784.97 765.29 780.48 767.26 777.69 770.04
  A 0.62 0.61 44.7 0 1 776.82 770.04
  Q 776.51 769.73 776.19 769.12
  C 775.31 767.47 772.71 767.26 771.59 767.87
  Q 768.51 769.56 765.50 768.65
  C 761.29 767.36 757.94 767.53 753.88 769.63
  A 2.77 2.75 46.3 0 1 751.23 769.56
  L 748.93 768.24
  A 2.09 1.98 -26.5 0 0 748.01 767.96
  Q 742.77 767.65 740.30 767.68
  C 737.39 767.72 735.89 769.52 732.69 768.49
  Q 729.75 767.54 727.14 768.55
  A 1.69 1.68 -85.0 0 0 726.29 769.27
  C 724.31 772.69 719.86 770.99 716.78 770.84
  C 713.03 770.67 712.05 774.82 712.55 777.72
  C 713.28 782.02 713.75 786.61 710.29 789.39
  A 1.49 1.48 71.9 0 0 709.74 790.48
  Q 709.61 794.54 708.08 799.51
  Q 707.48 801.48 706.93 806.08
  Q 706.18 812.50 701.75 818.49
  C 700.36 820.36 701.07 825.45 701.03 827.50
  A 3.52 3.52 0.0 0 1 700.56 829.18
  C 699.19 831.57 697.96 833.62 697.67 835.96
  C 697.49 837.41 699.07 838.49 698.95 840.04
  A 1.75 1.65 -26.7 0 1 698.62 840.94
  Q 697.11 842.99 695.74 845.17
  C 694.22 847.58 690.42 851.41 689.70 854.25
  Q 688.56 858.71 687.48 861.08
  A 5.30 5.06 -30.3 0 0 687.07 862.51
  C 686.87 864.06 687.20 865.96 686.34 867.38
  Q 685.09 869.45 683.98 870.36
  A 2.46 2.45 17.3 0 1 683.08 870.83
  Q 679.52 871.76 678.51 873.30
  C 675.58 877.74 672.90 880.95 672.82 886.51
  C 672.80 887.93 671.05 889.86 669.55 891.09
  Q 668.04 892.33 666.91 894.37
  Q 663.37 900.79 661.04 906.72
  Q 660.69 907.60 657.23 910.76
  A 6.32 6.21 -7.9 0 0 655.90 912.49
  Q 654.49 915.18 652.72 919.98
  Q 651.18 924.16 647.27 927.48
  Q 645.67 928.84 644.91 931.62
  C 644.58 932.82 645.27 934.17 645.19 935.47
  A 1.94 1.89 65.7 0 1 644.83 936.46
  Q 641.20 941.40 636.37 944.39
  Q 634.96 945.27 633.34 949.09
  Q 632.29 951.55 630.48 955.03
  A 5.11 4.91 -8.5 0 1 629.44 956.38
  Q 624.73 960.68 621.51 966.09
  A 2.91 2.77 83.4 0 1 621.11 966.62
  L 616.37 971.51
  A 5.35 5.34 -10.3 0 0 615.33 973.01
  Q 612.97 978.10 610.43 982.91
  C 609.30 985.06 606.20 987.89 603.35 989.61
  C 600.42 991.37 599.29 994.45 596.93 996.86
  Q 590.49 1003.43 587.67 1005.92
  A 8.53 8.51 -79.4 0 1 585.92 1007.12
  Q 583.48 1008.40 576.07 1012.52
  C 572.53 1014.49 568.56 1012.94 564.85 1015.42
  Q 562.52 1016.98 560.99 1017.16
  Q 558.89 1017.41 552.14 1020.34
  Q 550.19 1021.19 543.28 1022.92
  A 5.81 5.67 -45.7 0 1 540.82 1022.98
  C 535.81 1022.00 532.51 1024.43 527.84 1025.48
  C 524.55 1026.21 521.48 1027.78 518.04 1027.62
  Q 517.20 1027.58 515.61 1026.60
  C 512.81 1024.86 510.50 1026.05 507.99 1027.12
  A 0.90 0.87 -57.4 0 1 507.70 1027.19
  L 495.16 1027.99
  Q 495.15 1027.99 495.14 1027.99
  Q 491.51 1027.22 490.36 1027.87
  C 485.02 1030.94 481.18 1028.59 476.34 1026.09
  A 3.48 3.45 -29.9 0 0 474.87 1025.70
  Q 471.18 1025.56 467.63 1027.32
  A 3.04 3.01 -44.5 0 1 464.91 1027.31
  C 462.46 1026.05 460.47 1025.53 457.34 1025.58
  Q 454.53 1025.63 452.37 1023.85
  A 3.19 3.11 -46.5 0 0 448.24 1024.01
  C 444.13 1027.78 440.52 1024.77 436.90 1022.46
  A 3.03 2.55 -13.0 0 0 436.43 1022.22
  L 421.79 1016.40
  A 1.07 1.02 77.1 0 1 421.50 1016.21
  L 420.54 1015.25
  A 1.68 1.63 67.0 0 0 419.37 1014.76
  L 415.81 1014.76
  A 8.19 8.16 59.0 0 1 411.95 1013.79
  C 407.30 1011.30 403.14 1009.04 397.86 1007.44
  C 394.74 1006.49 392.71 1004.79 389.57 1003.80
  Q 387.57 1003.16 382.10 1001.31
  A 2.92 2.82 -10.3 0 1 380.87 1000.49
  Q 380.30 999.84 378.81 997.98
  Q 374.75 992.93 368.79 991.91
  Q 364.22 991.14 363.02 990.44
  Q 359.18 988.24 358.15 986.85
  Q 354.23 981.60 348.81 977.03
  C 344.41 973.32 340.46 969.55 336.60 966.31
  A 5.83 5.77 2.4 0 1 335.71 965.35
  Q 332.06 960.39 326.28 957.77
  Q 325.13 957.25 321.93 953.07
  A 3.34 2.11 39.1 0 0 321.63 952.72
  L 303.12 933.85
  A 4.52 4.42 -80.8 0 1 302.29 932.67
  Q 300.38 928.74 298.40 926.99
  Q 293.64 922.76 293.43 922.46
  C 290.83 918.83 283.84 913.56 280.26 908.36
  Q 276.31 902.60 275.67 901.65
  C 273.32 898.16 269.22 894.39 266.64 890.61
  Q 263.61 886.15 259.30 881.75
  A 4.88 4.77 12.6 0 1 258.24 880.12
  C 256.51 875.60 254.47 869.87 251.16 865.73
  C 249.40 863.53 249.25 861.98 249.42 859.22
  A 3.11 3.10 -69.5 0 0 248.20 856.54
  Q 245.23 854.26 243.46 852.37
  C 240.32 849.03 242.52 839.73 242.01 834.93
  C 241.60 831.09 243.07 826.60 238.90 824.56
  A 1.08 1.07 8.9 0 1 238.30 823.74
  C 237.85 820.48 239.37 818.04 238.78 815.24
  Q 237.93 811.29 236.46 805.50
  A 17.02 16.84 38.0 0 1 235.93 801.38
  Q 235.83 788.28 235.83 774.25
  Q 235.83 770.93 234.25 766.54
  Q 233.72 765.08 233.96 758.58
  A 4.85 4.77 57.6 0 1 234.32 756.91
  Q 237.09 750.15 234.29 742.32
  A 5.01 4.96 -57.3 0 1 234.01 741.00
  Q 233.51 734.64 234.17 727.89
  C 234.34 726.18 236.14 725.10 236.96 723.68
  Q 237.48 722.78 237.56 721.10
  C 237.75 717.22 237.50 715.03 239.14 712.62
  A 3.41 3.41 0.0 0 0 239.27 709.00
  L 237.85 706.54
  A 1.83 1.77 -63.7 0 1 237.63 705.85
  C 237.28 702.70 238.75 699.86 239.36 697.46
  A 8.12 8.07 53.0 0 0 239.61 695.63
  Q 239.71 689.98 240.59 687.58
  Q 243.68 679.19 243.97 672.29
  Q 244.05 670.57 246.44 666.91
  Q 249.55 662.14 254.19 655.45
  Q 256.97 651.45 258.32 647.44
  A 1.71 1.70 -13.4 0 1 258.76 646.73
  L 262.46 643.03
  A 0.82 0.78 -12.4 0 0 262.63 642.78
  Q 265.51 636.99 265.71 634.25
  Q 265.95 631.08 266.44 630.27
  A 4.35 4.30 84.9 0 1 267.21 629.34
  Q 269.24 627.48 270.21 625.70
  A 2.76 2.75 46.7 0 0 270.28 623.22
  L 267.73 617.84
  A 2.31 2.31 0.0 0 1 267.73 615.86
  L 269.49 612.15
  A 2.36 2.35 58.4 0 0 269.72 611.18
  Q 269.81 606.89 271.25 603.34
  A 4.65 4.46 -33.3 0 0 271.60 601.81
  L 271.97 595.51
  A 1.91 1.61 58.5 0 1 272.02 595.18
  L 280.04 566.13
  A 5.85 5.83 -19.6 0 1 280.96 564.20
  Q 283.37 560.85 284.25 556.52
  A 6.38 6.23 66.1 0 1 284.95 554.64
  C 286.06 552.69 287.93 550.70 289.00 548.23
  Q 291.67 542.04 296.33 536.38
  A 4.79 4.72 74.3 0 0 297.17 534.86
  L 299.09 529.24
  A 3.58 3.51 80.7 0 1 300.26 527.58
  L 308.86 520.81
  A 0.20 0.06 -46.6 0 1 308.93 520.77
  Q 314.27 518.19 316.76 512.66
  A 2.99 2.98 -79.6 0 1 319.30 510.90
  L 324.21 510.58
  A 1.68 1.67 89.4 0 0 325.78 508.97
  Q 325.91 505.98 325.61 500.50
  C 325.51 498.90 328.20 496.81 327.56 494.33
  Q 327.33 493.46 326.36 492.07
  C 324.32 489.14 326.95 487.02 326.71 484.66
  C 326.41 481.66 325.37 479.20 323.96 476.02
  A 2.17 2.12 -53.8 0 1 323.80 474.91
  Q 323.97 473.56 325.00 471.76
  C 326.87 468.50 324.20 464.46 322.33 461.34
  A 2.94 2.93 47.4 0 1 322.46 458.11
  L 323.97 456.01
  A 2.47 2.46 59.7 0 0 324.41 454.32
  L 323.70 448.06
  A 3.53 3.47 27.3 0 0 323.25 446.69
  C 322.22 444.91 321.46 443.20 322.18 441.12
  C 323.04 438.61 322.39 436.77 323.48 434.33
  C 324.51 432.02 322.29 430.62 322.61 428.94
  C 322.88 427.53 324.01 425.45 323.63 424.28
  Q 321.67 418.20 320.68 416.14
  C 319.20 413.06 319.39 410.70 321.08 408.04
  A 2.59 2.57 -26.3 0 0 321.47 406.91
  L 322.29 398.59
  A 6.04 6.02 35.9 0 0 321.79 395.52
  C 320.23 392.04 318.45 387.84 320.46 384.46
  C 321.80 382.21 322.16 380.56 320.88 378.96
  C 319.52 377.25 319.46 373.91 319.58 372.23
  Q 319.66 371.02 321.22 369.37
  A 1.52 1.50 69.1 0 0 321.63 368.44
  Q 321.70 367.38 321.00 366.03
  C 319.84 363.81 319.55 362.31 319.60 360.00
  Q 319.88 346.09 319.13 334.38
  C 319.01 332.50 317.95 330.40 317.88 328.42
  Q 317.76 325.19 316.76 322.12
  C 315.73 318.96 315.82 316.31 314.46 313.09
  Q 314.03 312.05 313.70 305.62
  A 4.67 4.64 56.2 0 1 314.13 303.41
  L 316.31 298.66
  A 2.70 2.62 -4.4 0 1 317.33 297.50
  Q 317.78 297.21 319.63 296.37
  C 322.48 295.08 323.81 292.67 324.59 289.31
  C 325.94 283.52 332.31 285.67 336.46 286.14
  A 7.63 7.49 39.8 0 0 339.44 285.90
  Q 346.42 283.91 347.52 283.34
  C 351.05 281.51 350.38 279.08 349.06 275.53
  C 347.37 271.01 347.83 266.10 347.76 260.46
  A 2.17 2.15 -58.1 0 0 347.55 259.53
  L 344.88 253.67
  A 0.87 0.86 -27.0 0 0 343.66 253.28
  L 341.23 254.69
  A 3.01 2.90 25.1 0 1 340.15 255.06
  Q 336.65 255.56 333.81 257.57
  A 1.84 1.83 42.3 0 1 331.83 257.66
  Q 329.61 256.36 325.61 255.14
  Q 323.88 254.62 321.46 255.18
  Q 318.44 255.87 315.00 255.22
  A 2.38 2.31 -18.4 0 1 313.94 254.71
  C 311.73 252.86 306.59 249.44 303.65 251.16
  A 2.33 1.97 -40.0 0 1 301.26 251.15
  Q 296.78 247.82 292.19 246.93
  A 6.22 6.15 -19.0 0 1 289.34 245.56
  Q 284.47 241.43 277.93 240.12
  Q 270.15 238.57 267.27 237.35
  C 263.49 235.77 260.36 235.48 256.52 234.19
  Q 254.20 233.41 252.10 233.45
  C 247.42 233.55 244.02 228.73 240.77 227.25
  Q 238.16 226.05 225.78 221.99
  Q 222.10 220.79 221.05 219.93
  C 218.43 217.81 216.36 215.22 215.49 211.59
  Q 215.18 210.27 214.05 206.92
  A 4.48 4.48 0.0 0 1 213.99 204.24
  Q 215.78 198.03 221.17 194.27
  Q 222.32 193.47 225.31 193.13
  Q 234.63 192.08 240.94 191.86
  A 2.19 2.14 28.8 0 0 241.91 191.59
  L 246.18 189.23
  A 3.19 2.71 16.0 0 1 246.60 189.04
  Q 251.64 187.16 258.77 184.85
  A 2.55 2.00 25.3 0 1 259.21 184.75
  L 266.57 184.00
  A 1.10 1.01 47.3 0 1 266.95 184.03
  C 268.10 184.34 269.44 185.51 270.33 185.71
  Q 273.39 186.40 276.21 186.03
  A 1.99 1.91 17.7 0 0 277.33 185.48
  L 279.32 183.49
  A 1.74 1.70 15.5 0 1 280.16 183.03
  Q 284.79 182.02 288.87 182.61
  C 293.94 183.35 298.32 182.20 303.78 182.33
  A 11.78 11.65 -53.0 0 0 307.69 181.76
  C 311.37 180.54 314.01 180.39 316.56 178.63
  C 318.77 177.10 321.46 178.58 323.59 178.22
  Q 326.08 177.81 327.67 177.12
  A 4.49 4.48 48.6 0 1 331.76 177.38
  C 334.81 179.22 337.03 181.46 340.75 178.94
  Q 341.81 178.23 343.05 178.24
  Q 346.83 178.27 350.23 178.26
  C 352.13 178.26 354.96 180.18 356.53 180.94
  Q 360.91 183.08 363.49 185.32
  C 364.79 186.45 366.99 186.47 368.16 187.80
  A 2.99 2.91 19.1 0 1 368.80 189.07
  C 369.44 192.00 368.01 194.28 371.79 195.70
  Q 372.63 196.02 374.24 195.59
  C 378.40 194.50 380.83 194.62 382.59 190.58
  Q 385.03 184.99 386.20 177.43
  A 1.92 1.86 68.3 0 1 386.54 176.60
  L 389.96 171.83
  A 5.47 5.42 -89.1 0 1 391.31 170.51
  L 396.45 166.95
  A 3.75 3.70 24.3 0 1 398.18 166.31
  Q 401.36 165.95 404.47 166.63
  C 406.49 167.07 408.70 168.84 410.34 169.68
  A 4.49 4.42 60.9 0 0 412.45 170.30
  L 420.94 170.61
  A 2.94 2.93 58.7 0 1 422.12 170.90
  L 429.47 174.39
  A 3.51 3.50 87.6 0 1 431.02 175.82
  Q 431.94 177.41 432.58 180.18
  Q 434.75 189.71 438.53 198.20
  A 3.15 3.15 0.0 0 1 438.49 200.84
  L 437.18 203.61
  A 2.70 2.59 58.9 0 0 436.92 204.76
  L 436.92 214.83
  A 2.27 2.17 33.4 0 0 437.14 215.79
  C 440.76 223.11 438.09 228.14 435.78 234.34
  A 11.40 11.17 -31.9 0 0 435.19 236.76
  Q 435.09 237.55 435.17 244.92
  C 435.22 250.67 428.18 250.06 423.22 249.97
  A 2.65 2.57 -53.0 0 0 422.32 250.11
  C 421.14 250.52 420.27 251.57 418.90 251.53
  Q 417.79 251.50 416.82 251.38
  A 1.55 1.54 3.2 0 0 415.08 252.93
  L 415.19 262.90
  A 4.43 4.35 -54.5 0 0 415.38 264.11
  L 417.07 269.46
  A 4.90 4.85 45.9 0 1 417.04 272.46
  Q 416.96 272.70 415.93 274.61
  C 414.56 277.15 414.71 280.14 417.46 281.60
  C 420.32 283.11 423.85 281.96 426.96 282.76
  A 5.81 5.73 45.4 0 0 429.64 282.80
  Q 431.60 282.36 435.50 282.32
  C 437.29 282.30 438.64 281.59 440.07 280.75
  C 442.22 279.48 444.06 282.05 446.39 282.11
  Q 451.60 282.25 456.27 282.07
  C 458.57 281.98 460.36 280.64 462.36 280.52
  Q 468.09 280.20 471.66 280.39
  A 1.89 1.79 -29.4 0 1 472.34 280.56
  L 474.65 281.66
  A 1.91 1.91 0.0 0 0 476.01 281.76
  C 477.61 281.26 478.76 279.76 480.62 280.81
  Q 482.37 281.80 483.79 282.11
  A 6.71 6.13 -36.3 0 0 485.18 282.26
  L 501.36 282.34
  A 2.87 2.87 0.0 0 0 503.39 281.50
  L 506.77 278.13
  A 0.79 0.79 0.0 0 1 507.85 278.09
  Q 509.76 279.74 513.95 281.54
  C 517.65 283.12 521.91 281.97 525.79 283.12
  A 3.62 3.62 0.0 0 0 527.66 283.16
  Q 529.45 282.72 534.76 281.80
  Q 536.41 281.52 540.37 278.80
  A 1.39 1.34 -62.8 0 1 541.07 278.56
  L 545.83 278.25
  A 2.91 2.89 68.9 0 1 548.27 279.34
  C 550.24 281.85 552.14 285.23 552.41 289.03
  Q 552.64 292.35 554.14 294.88
  A 1.19 1.19 0.0 0 1 554.16 296.05
  C 553.00 298.24 552.11 305.84 553.33 308.80
  A 1.49 1.48 54.3 0 0 555.82 309.21
  Q 559.36 305.14 562.60 303.01
  C 567.36 299.89 569.48 296.84 573.52 293.27
  C 575.27 291.72 576.48 290.66 578.88 290.20
  Q 581.57 289.68 584.51 286.57
  Q 585.96 285.05 589.62 285.09
  Q 596.26 285.18 601.06 287.99
  A 1.90 1.89 -53.6 0 0 603.40 287.63
  Q 606.27 284.49 607.36 280.77
  C 608.63 276.43 609.94 273.38 611.62 269.38
  A 2.01 2.01 0.0 0 1 613.47 268.15
  L 618.59 268.15
  A 1.50 1.50 0.0 0 0 620.09 266.65
  L 620.09 263.11
  A 1.24 1.21 -24.8 0 1 620.40 262.30
  Q 622.22 260.22 624.05 259.71
  Q 631.03 257.75 634.19 256.72
  A 4.54 4.49 44.7 0 1 636.94 256.72
  Q 641.72 258.26 645.25 260.19
  Q 645.95 260.57 647.97 263.55
  Q 648.73 264.66 651.86 265.22
  A 1.04 1.02 41.1 0 0 652.37 265.19
  L 664.31 261.47
  A 2.03 1.88 16.2 0 0 664.91 261.17
  C 668.48 258.55 670.51 257.56 675.01 259.02
  Q 681.58 261.15 682.89 261.62
  A 0.84 0.84 0.0 0 0 683.98 260.62
  C 683.52 258.78 683.82 257.52 684.80 255.89
  Q 687.22 251.86 688.02 248.43
  C 688.57 246.04 689.86 245.35 691.91 244.17
  Q 694.14 242.90 696.38 240.36
  A 1.68 1.66 -12.7 0 0 696.68 239.89
  L 700.15 231.82
  A 1.10 1.02 -13.1 0 1 700.38 231.48
  Q 706.45 225.50 712.49 224.73
  Q 718.65 223.96 729.82 224.38
  A 1.91 1.89 -32.4 0 1 730.51 224.53
  L 734.61 226.16
  A 1.96 1.96 0.0 0 0 737.24 224.81
  Q 738.29 220.64 740.83 215.57
  Q 741.37 214.51 742.05 209.60
  Q 742.22 208.42 744.95 205.61
  A 2.73 2.71 -11.9 0 0 745.52 204.74
  C 746.06 203.42 745.72 201.54 746.14 199.98
  Q 747.14 196.35 748.39 190.74
  Q 748.86 188.60 751.46 185.69
  C 755.80 180.80 759.75 176.19 765.76 174.71
  C 771.26 173.35 775.25 171.83 780.70 170.57
  Q 786.90 169.13 790.79 173.48
  A 1.55 1.42 49.2 0 0 792.83 173.72
  C 793.59 173.09 793.79 171.76 794.35 171.01
  Q 796.78 167.79 798.27 165.09
  C 799.71 162.47 802.23 160.44 804.69 159.18
  C 806.99 158.00 808.38 158.42 810.86 159.21
  A 3.32 3.27 46.6 0 0 812.57 159.27
  C 815.27 158.63 818.93 158.70 822.18 158.26
  Q 825.20 157.85 828.10 159.21
  A 2.14 2.14 0.0 0 0 830.73 158.56
  C 832.63 156.05 834.93 152.42 838.74 150.04
  A 4.25 4.01 -67.3 0 1 839.82 149.56
  C 842.21 148.87 844.77 148.32 846.40 147.06
  Q 847.17 146.46 847.59 146.26
  A 2.10 2.07 -46.2 0 1 849.28 146.21
  Q 852.01 147.32 852.76 147.15
  Q 858.26 145.95 864.81 146.55
  A 6.49 6.35 -32.4 0 1 866.27 146.86
  Q 869.92 148.11 871.35 148.13
  Q 875.92 148.20 879.01 149.54
  A 6.41 6.35 -30.9 0 0 881.08 150.05
  Q 885.96 150.41 892.27 150.46
  Q 894.54 150.48 898.60 151.96
  A 4.18 3.89 -15.4 0 1 899.58 152.47
  L 906.27 157.27
  A 3.52 3.44 -89.3 0 1 907.13 158.17
  L 911.81 165.38
  A 1.03 0.95 86.0 0 0 912.17 165.72
  Q 914.82 167.18 916.89 165.61
  Q 922.85 161.07 926.55 158.99
  A 3.86 3.76 -62.3 0 1 927.93 158.54
  C 930.50 158.21 931.49 158.44 933.79 157.26
  C 937.99 155.12 940.02 157.00 943.96 157.88
  A 1.56 1.55 -83.7 0 0 945.85 156.36
  L 945.85 152.02
  A 2.16 2.15 62.9 0 1 946.25 150.77
  L 949.68 145.99
  A 1.32 1.16 -0.9 0 1 950.03 145.67
  Q 954.04 143.22 956.95 139.64
  A 2.42 2.40 24.1 0 1 959.22 138.78
  C 960.65 139.01 961.66 139.30 963.56 139.01
  Q 968.25 138.31 969.51 138.69
  C 974.88 140.27 979.65 140.65 983.73 141.62
  Q 986.81 142.35 989.45 142.36
  C 992.21 142.38 994.25 144.09 996.97 144.31
  Q 999.54 144.51 1002.56 145.89
  C 1007.50 148.16 1012.06 149.07 1016.91 147.33
  A 2.07 2.06 55.3 0 1 1018.94 147.70
  Q 1025.03 152.79 1031.20 154.69
  A 1.57 1.54 75.4 0 1 1031.80 155.05
  L 1036.13 159.38
  A 2.58 2.58 0.0 0 1 1036.66 162.24
  C 1034.34 167.50 1034.00 172.52 1033.25 179.73
  Q 1033.13 180.85 1031.23 186.05
  A 1.39 1.36 46.3 0 0 1031.22 186.92
  L 1031.89 188.97
  A 1.86 1.85 47.3 0 1 1031.84 190.25
  Q 1031.17 191.84 1030.43 195.90
  C 1030.13 197.50 1028.74 199.43 1028.91 201.25
  C 1029.21 204.25 1029.31 205.82 1027.86 208.64
  C 1026.92 210.46 1026.78 211.98 1027.51 213.95
  Q 1028.98 217.96 1029.08 223.81
  A 1.30 1.27 66.6 0 1 1028.73 224.72
  C 1027.95 225.56 1026.39 226.21 1025.56 227.27
  C 1022.14 231.63 1023.17 235.20 1023.09 239.78
  Q 1023.07 241.23 1021.86 244.49
  Q 1020.77 247.42 1021.10 250.17
  A 4.63 4.63 0.0 0 1 1020.03 253.74
  L 1017.01 257.28
  A 3.13 3.12 -16.6 0 0 1016.37 258.46
  Q 1015.24 262.41 1015.06 266.09
  C 1014.88 269.71 1012.42 271.31 1009.47 272.79
  Q 1008.14 273.46 1004.24 273.45
  Q 1000.71 273.45 998.07 275.00
  A 4.38 4.31 -57.9 0 1 995.58 275.59
  Q 992.27 275.36 985.50 275.57
  Q 983.31 275.64 980.39 274.40
  Q 979.15 273.88 977.36 275.16
  A 1.23 1.23 0.0 0 1 976.04 275.22
  L 973.40 273.70
  A 0.66 0.66 0.0 0 0 973.05 273.60
  L 965.93 273.36
  A 1.69 1.61 -57.4 0 0 965.04 273.58
  L 962.35 275.14
  A 1.55 1.53 -53.6 0 1 961.27 275.31
  C 958.99 274.85 956.04 274.51 953.36 273.70
  Q 950.80 272.92 948.01 274.07
  A 1.43 1.42 -50.9 0 1 947.27 274.15
  L 941.61 273.24
  A 2.42 2.39 -23.6 0 1 940.67 272.88
  Q 935.38 269.38 934.40 268.05
  Q 932.09 264.91 928.46 262.82
  C 926.71 261.80 926.13 260.59 925.93 258.30
  Q 925.71 255.71 923.64 252.14
  A 0.49 0.48 -39.1 0 1 923.70 251.58
  C 926.41 248.51 926.09 242.68 925.69 238.87
  A 1.92 1.92 0.0 0 0 923.78 237.15
  L 921.54 237.15
  A 1.10 1.07 -28.5 0 1 920.97 236.99
  L 913.18 232.21
  A 1.27 1.27 0.0 0 0 911.38 232.71
  Q 909.14 237.03 906.35 241.11
  C 903.90 244.69 900.44 245.63 896.88 247.62
  C 895.37 248.46 894.77 250.81 893.00 251.75
  Q 889.95 253.38 887.75 253.33
  Q 883.24 253.22 881.12 253.90
  A 5.20 4.79 -67.3 0 0 880.14 254.35
  Q 875.26 257.23 867.67 260.23
  C 864.26 261.57 859.40 261.79 856.76 263.84
  Q 853.67 266.22 850.54 268.43
  A 3.95 3.93 71.7 0 0 848.88 271.74
  Q 849.09 279.07 849.01 284.51
  C 848.92 290.28 847.18 291.63 843.69 296.92
  Q 840.78 301.33 840.70 306.53
  Q 840.66 308.69 839.50 310.87
  Q 837.39 314.85 836.59 318.30
  A 6.30 6.26 74.3 0 1 834.92 321.30
  L 829.48 326.74
  A 1.67 1.56 77.7 0 0 829.08 327.41
  L 827.05 333.88
  A 3.01 2.91 53.0 0 0 826.92 334.93
  L 827.14 338.42
  A 3.91 3.89 64.1 0 1 826.16 341.28
  Q 821.34 346.67 819.09 353.34
  C 817.30 358.66 813.36 362.96 812.93 368.53
  C 812.58 373.12 809.42 374.24 806.18 376.40
  A 2.04 2.02 77.5 0 0 805.30 377.80
  Q 804.69 382.03 801.10 385.28
  A 2.05 2.04 71.1 0 0 800.43 386.65
  Q 800.24 389.11 799.18 393.03
  C 798.75 394.65 799.02 396.53 799.77 397.74
  A 1.39 1.39 0.0 0 1 799.49 399.55
  C 795.02 403.32 791.60 405.54 790.66 411.02
  C 790.24 413.52 789.09 417.75 787.70 420.51
  Q 784.79 426.25 783.22 429.67
  Q 782.02 432.29 780.57 435.98
  C 778.59 440.98 777.55 442.20 774.47 445.47
  C 771.04 449.10 769.33 454.09 769.09 458.95
  A 4.30 4.26 -25.2 0 1 768.21 461.36
  C 765.90 464.34 764.72 465.80 763.50 468.93
  C 762.15 472.39 760.31 474.85 758.08 478.06
  Q 757.18 479.35 756.96 481.70
  C 756.74 483.91 755.25 486.56 755.15 489.03
  Q 755.09 490.57 754.70 491.91
  A 4.68 4.45 -20.9 0 1 754.04 493.29
  C 750.77 497.94 749.52 499.77 748.87 504.86
  A 7.48 7.35 63.0 0 1 748.08 507.37
  Q 745.64 512.08 745.24 516.72
  A 6.00 5.99 -25.8 0 1 744.26 519.53
  Q 740.13 525.81 739.11 535.34
  A 4.05 3.90 -31.9 0 1 738.85 536.37
  Q 737.21 540.42 734.72 549.75
  C 733.79 553.21 731.27 555.16 733.34 558.95
  A 1.82 1.79 1.0 0 0 734.01 559.63
  C 736.58 561.12 738.10 561.39 741.21 560.79
  Q 744.62 560.13 746.01 560.43
  C 751.63 561.65 753.74 562.34 757.93 561.01
  C 760.94 560.05 763.65 559.78 766.60 560.90
  C 770.81 562.51 776.29 562.19 779.17 561.89
  A 1.57 1.45 -40.3 0 1 779.66 561.91
  L 785.01 563.01
  A 2.29 2.24 43.3 0 0 786.04 562.99
  Q 786.84 562.80 788.72 561.54
  Q 792.02 559.32 794.28 561.94
  A 3.49 3.23 52.5 0 0 798.66 562.69
  C 801.41 560.88 804.88 561.98 808.10 562.05
  Q 815.51 562.22 822.85 561.93
  Q 824.83 561.85 827.59 561.28
  C 830.79 560.62 832.93 562.26 836.08 562.07
  C 838.55 561.93 841.04 560.30 843.25 560.38
  C 849.21 560.60 855.66 563.51 862.24 561.06
  Q 864.45 560.24 866.51 561.59
  Q 870.28 564.08 875.42 564.46
  Q 876.70 564.56 881.73 567.52
  A 2.98 2.94 -88.0 0 1 882.88 568.77
  Q 885.02 573.09 884.94 574.36
  Q 884.67 578.56 885.38 581.41
  A 3.82 3.82 0.0 0 1 885.43 582.98
  L 884.77 586.58
  A 1.06 1.05 -79.2 0 0 885.60 587.81
  Q 892.28 589.12 897.49 587.23
  C 902.52 585.41 905.50 586.05 910.36 588.27
  A 1.35 1.35 0.0 0 0 912.24 586.77
  Z
  M 948.43 248.95
  C 953.12 250.45 957.08 251.16 960.85 248.61
  A 2.12 2.11 44.8 0 1 963.22 248.61
  Q 967.74 251.67 972.76 249.00
  A 1.06 1.04 -46.9 0 1 973.69 248.96
  L 980.34 251.81
  A 5.03 4.95 -30.9 0 0 981.95 252.20
  Q 988.78 252.64 990.98 252.43
  C 997.59 251.78 994.92 246.42 995.94 242.66
  Q 996.74 239.67 996.73 237.66
  A 3.11 3.09 62.0 0 1 997.25 235.94
  Q 999.16 233.10 999.25 231.97
  Q 999.67 227.08 999.75 226.55
  A 5.07 5.03 62.4 0 1 1000.36 224.58
  L 1002.92 219.90
  A 2.56 2.38 69.6 0 0 1003.14 219.37
  C 1004.46 214.70 1003.55 209.74 1004.67 205.68
  C 1005.31 203.39 1005.86 202.70 1005.09 200.40
  C 1004.12 197.52 1006.69 196.84 1007.29 194.42
  Q 1007.68 192.84 1008.42 189.96
  C 1008.93 187.94 1010.55 187.42 1008.71 185.03
  C 1006.50 182.15 1010.50 179.01 1009.88 175.86
  Q 1009.33 173.06 1006.31 171.67
  C 1004.54 170.86 1001.25 171.51 998.75 171.63
  A 3.99 3.96 -35.5 0 1 997.11 171.36
  Q 993.54 169.94 991.39 168.83
  C 989.79 167.99 989.24 165.78 986.90 165.61
  Q 982.46 165.29 980.75 165.14
  A 7.97 7.93 61.2 0 1 977.78 164.27
  C 975.09 162.87 971.49 161.09 968.57 162.11
  A 1.54 1.53 -88.6 0 0 967.68 162.96
  Q 966.51 165.78 964.06 168.64
  A 1.52 1.49 60.4 0 0 963.73 169.89
  L 964.14 172.05
  A 2.45 2.42 52.4 0 1 963.95 173.58
  C 962.27 177.14 959.31 181.86 958.91 186.02
  C 958.68 188.47 956.15 190.10 958.66 192.75
  A 2.90 2.61 -54.5 0 1 959.02 195.89
  Q 958.04 197.87 957.57 199.12
  C 956.81 201.11 956.98 203.72 956.80 205.52
  A 5.54 5.47 61.7 0 1 956.12 207.84
  L 954.37 211.00
  A 8.20 7.99 -25.3 0 0 953.52 213.28
  Q 952.82 216.69 952.20 217.97
  C 950.84 220.78 951.32 224.02 949.82 227.07
  C 948.92 228.88 949.79 230.75 949.13 232.54
  A 3.24 3.16 -10.6 0 1 948.19 233.88
  L 946.13 235.61
  A 2.43 2.40 -9.2 0 0 945.48 236.50
  C 944.13 239.79 945.45 243.60 947.19 246.38
  A 2.42 2.41 -54.7 0 1 947.49 248.14
  Q 947.28 249.08 947.54 249.34
  A 0.02 0.01 58.3 0 0 947.56 249.35
  L 947.95 249.04
  A 0.54 0.52 -54.9 0 1 948.43 248.95
  Z
  M 854.88 240.03
  Q 859.15 240.97 862.10 239.83
  Q 870.78 236.46 877.64 231.20
  A 1.67 1.66 -53.9 0 0 877.19 228.31
  Q 872.54 226.65 868.05 227.90
  C 864.53 228.89 863.31 232.79 859.08 230.74
  A 0.71 0.70 22.5 0 0 858.11 231.14
  Q 856.87 234.76 853.82 238.26
  A 1.74 1.73 19.7 0 1 852.52 238.87
  Q 850.90 238.88 849.18 240.31
  A 1.17 1.16 30.2 0 1 848.22 240.56
  C 846.44 240.23 845.45 239.81 843.06 239.68
  Q 841.15 239.57 840.37 238.88
  Q 836.67 235.61 834.43 234.18
  C 831.69 232.42 830.15 229.93 829.60 227.29
  A 3.16 3.08 46.2 0 1 829.61 225.96
  C 831.14 219.53 834.33 216.61 838.26 211.39
  C 840.61 208.28 841.68 202.23 845.65 198.99
  Q 850.98 194.63 854.23 189.40
  A 8.48 8.45 -88.3 0 1 857.33 186.47
  Q 863.53 183.07 868.36 180.86
  Q 869.64 180.28 873.47 180.37
  C 877.25 180.46 881.46 178.59 884.41 178.18
  A 2.14 2.12 87.1 0 0 886.23 176.15
  L 886.33 173.77
  A 1.12 1.11 -9.3 0 0 884.82 172.69
  Q 882.21 173.66 881.03 173.22
  C 876.66 171.55 873.23 170.89 869.12 168.70
  Q 863.46 165.69 857.57 169.81
  A 1.59 1.58 -47.2 0 1 855.85 169.88
  L 852.45 167.91
  A 2.34 2.33 -47.9 0 0 849.91 168.04
  C 846.70 169.98 844.93 172.94 842.36 175.44
  C 837.62 180.08 835.50 188.16 834.13 194.13
  A 8.19 7.85 66.0 0 1 833.47 195.96
  Q 831.38 200.08 830.49 205.48
  Q 830.09 207.92 828.38 209.00
  A 4.38 3.09 75.7 0 0 826.94 212.78
  Q 827.11 214.67 827.09 215.72
  A 2.12 2.08 -28.0 0 1 826.73 216.86
  Q 824.04 220.78 822.55 226.20
  Q 821.18 231.17 819.96 232.21
  Q 816.54 235.13 811.93 232.71
  Q 807.00 230.13 805.03 223.44
  A 2.79 2.73 -53.1 0 1 804.92 222.60
  Q 804.99 215.93 808.94 206.30
  Q 811.67 199.66 815.87 182.09
  A 2.10 2.10 0.0 0 0 814.18 179.53
  L 814.12 179.52
  A 2.50 2.50 0.0 0 0 811.30 181.30
  Q 809.70 186.99 805.82 192.52
  Q 803.29 196.12 802.94 202.18
  A 4.27 4.22 58.7 0 1 802.58 203.69
  Q 801.72 205.65 800.06 208.04
  Q 799.15 209.36 798.65 215.22
  A 0.74 0.64 -40.7 0 1 798.62 215.42
  L 797.71 218.67
  A 2.00 1.97 41.0 0 0 797.81 219.98
  C 798.41 221.34 799.42 222.02 799.07 224.05
  Q 799.01 224.43 798.16 226.31
  Q 795.93 231.24 791.44 234.14
  C 787.54 236.65 784.76 236.08 780.87 233.63
  Q 777.60 231.58 777.64 227.81
  Q 777.75 217.63 777.75 217.50
  A 5.14 5.07 58.2 0 1 778.16 215.70
  Q 779.99 211.54 779.71 207.40
  A 6.23 6.23 0.0 0 1 780.64 203.70
  C 783.20 199.59 784.87 198.02 783.58 192.74
  A 0.85 0.84 -13.9 0 0 782.55 192.12
  Q 778.02 193.26 775.26 193.79
  Q 773.62 194.10 768.38 197.25
  A 2.75 2.72 -3.6 0 0 767.30 198.46
  Q 765.11 203.22 765.00 206.73
  A 5.55 5.49 -31.1 0 1 764.40 209.10
  Q 761.48 214.87 760.58 219.28
  A 4.49 4.41 -23.7 0 1 759.97 220.81
  C 757.73 224.43 755.49 226.07 757.40 230.74
  A 1.91 1.91 0.0 0 0 758.56 231.83
  L 765.57 234.19
  A 3.41 3.28 55.5 0 0 766.45 234.37
  C 770.48 234.64 771.00 235.29 774.37 237.47
  A 3.13 3.11 62.1 0 0 775.94 237.96
  L 785.82 238.35
  A 1.70 1.67 -19.5 0 1 787.00 238.90
  C 790.26 242.44 794.13 246.98 798.65 248.23
  C 800.83 248.84 802.06 249.88 803.61 251.42
  C 807.08 254.86 810.23 254.32 814.79 254.48
  A 3.06 3.05 -29.0 0 1 816.26 254.90
  Q 818.77 256.34 822.41 256.31
  C 824.87 256.29 826.24 256.72 829.21 257.36
  A 0.90 0.89 26.5 0 0 830.09 257.07
  L 832.52 254.22
  A 3.03 3.02 4.8 0 1 833.29 253.57
  Q 838.36 250.55 844.88 247.73
  Q 846.91 246.85 847.93 245.09
  Q 849.60 242.22 853.59 240.92
  Q 854.11 240.76 854.27 240.36
  A 0.53 0.53 0.0 0 1 854.88 240.03
  Z
  M 937.46 179.05
  A 0.65 0.64 59.3 0 0 936.57 178.82
  L 932.27 181.46
  A 0.69 0.61 17.6 0 1 932.02 181.57
  Q 926.66 183.01 923.26 187.10
  A 4.41 4.25 77.6 0 0 922.61 188.16
  Q 920.90 192.14 919.49 194.99
  Q 918.99 196.01 918.90 199.70
  A 9.53 9.27 -37.9 0 1 918.59 201.93
  L 917.91 204.51
  A 1.16 1.11 -47.2 0 0 917.92 205.12
  C 918.80 208.29 919.60 212.20 922.45 213.14
  Q 926.85 214.59 929.32 217.02
  A 1.42 1.41 21.4 0 0 931.73 215.97
  Q 931.53 209.45 933.13 205.10
  A 1.27 1.27 0.0 0 0 933.04 204.02
  L 931.90 202.05
  A 3.27 3.27 0.0 0 1 932.42 198.11
  L 936.91 193.62
  A 1.38 1.29 76.0 0 0 937.26 192.99
  Q 937.85 190.33 937.71 189.59
  Q 936.74 184.66 937.90 180.73
  A 1.48 1.48 0.0 0 0 937.76 179.57
  L 937.46 179.05
  Z
  M 897.85 207.28
  Q 898.06 206.29 897.57 204.70
  Q 897.31 203.84 895.59 198.56
  A 0.65 0.65 0.0 0 0 894.76 198.14
  C 890.20 199.68 885.72 199.78 880.78 202.42
  A 4.56 4.51 26.1 0 1 879.38 202.89
  C 875.81 203.45 873.78 202.10 870.67 204.91
  Q 869.42 206.04 869.52 207.46
  A 2.31 1.80 -5.4 0 0 872.03 209.06
  C 876.01 208.61 879.05 208.00 883.36 208.16
  Q 892.16 208.47 896.43 208.43
  A 1.47 1.46 5.9 0 0 897.85 207.28
  Z
  M 566.67 567.51
  Q 568.24 568.45 570.17 568.28
  Q 574.09 567.95 576.94 568.95
  C 579.66 569.90 583.88 570.68 586.26 569.69
  Q 590.21 568.04 592.85 567.57
  A 2.28 2.27 -71.7 0 0 594.00 566.99
  L 596.15 564.96
  A 1.88 1.88 0.0 0 1 598.65 564.89
  C 602.15 567.80 604.80 566.63 608.73 566.55
  Q 617.31 566.37 624.31 566.03
  A 6.60 6.44 34.4 0 0 625.91 565.75
  C 628.03 565.07 629.41 564.56 631.74 564.42
  Q 636.40 564.16 641.01 563.92
  C 644.41 563.75 647.39 562.49 650.75 562.32
  Q 655.56 562.09 661.50 562.10
  A 7.19 6.90 37.2 0 0 663.13 561.91
  C 665.36 561.40 668.11 559.85 670.46 560.93
  Q 671.95 561.63 674.40 561.49
  C 676.03 561.40 678.95 559.81 680.75 560.80
  Q 684.69 562.95 688.74 561.67
  Q 693.73 560.10 697.91 560.16
  C 700.60 560.20 703.52 559.70 705.11 559.39
  A 3.28 3.24 -41.1 0 1 706.70 559.49
  L 709.36 560.34
  A 1.83 1.82 -72.2 0 0 711.65 559.16
  L 717.51 541.02
  A 2.89 2.68 -37.6 0 0 717.64 540.25
  C 717.69 536.50 717.70 534.31 719.35 530.78
  A 1.24 1.16 64.9 0 0 719.46 530.44
  L 722.12 517.81
  A 2.95 2.77 -26.1 0 1 722.43 516.99
  Q 723.52 515.05 724.98 513.42
  A 1.76 1.60 52.4 0 0 725.14 511.48
  Q 724.63 510.54 724.51 510.25
  A 1.74 1.73 -43.9 0 1 724.54 508.88
  Q 729.08 498.72 730.52 496.11
  C 732.16 493.14 731.37 489.84 733.47 487.31
  C 736.10 484.14 735.28 479.39 736.49 475.66
  Q 737.58 472.30 738.30 471.29
  Q 738.71 470.72 745.19 459.10
  Q 747.16 455.56 747.89 453.15
  C 749.26 448.58 751.01 446.33 752.40 441.38
  Q 753.67 436.83 757.06 433.50
  A 1.78 1.76 71.2 0 0 757.58 432.43
  C 757.84 429.82 757.36 427.68 759.35 425.61
  C 761.50 423.39 763.32 422.04 763.90 418.65
  Q 765.01 412.11 769.19 407.19
  Q 770.03 406.20 769.90 402.25
  Q 769.88 401.54 770.84 399.37
  A 2.29 2.25 86.7 0 1 771.74 398.34
  Q 774.40 396.74 775.32 394.46
  Q 777.88 388.14 778.20 381.72
  A 5.10 5.05 59.7 0 1 778.71 379.73
  Q 779.86 377.33 781.42 374.92
  Q 789.82 361.92 792.57 357.12
  Q 794.36 354.02 796.79 346.05
  A 1.99 1.97 -15.4 0 1 797.21 345.32
  L 800.53 341.65
  A 1.77 1.74 -14.8 0 0 800.91 341.01
  Q 802.76 335.72 804.57 331.40
  C 805.98 328.03 805.78 323.95 808.20 320.45
  C 810.28 317.45 809.83 316.38 809.95 312.49
  Q 810.02 310.18 811.94 307.15
  A 2.47 2.35 -4.3 0 1 812.49 306.54
  L 816.73 303.20
  A 0.80 0.74 87.5 0 0 816.94 302.95
  Q 820.42 296.84 822.29 288.96
  A 0.71 0.68 73.2 0 1 822.46 288.63
  L 825.55 284.91
  A 1.86 1.86 0.0 0 0 825.16 282.18
  C 821.38 279.61 817.63 279.21 813.45 277.91
  A 6.02 6.00 53.5 0 0 811.67 277.64
  L 804.73 277.64
  A 3.50 3.46 57.8 0 1 803.19 277.28
  Q 799.98 275.71 797.01 275.57
  C 794.97 275.47 793.34 274.48 792.23 273.29
  C 789.65 270.52 787.52 268.46 784.02 267.01
  Q 781.57 266.00 779.73 265.30
  C 775.05 263.52 772.12 259.79 766.71 259.32
  A 9.62 9.39 57.0 0 1 764.18 258.75
  Q 760.53 257.38 755.46 257.08
  A 4.57 4.55 61.4 0 1 753.44 256.48
  L 747.02 252.77
  A 3.68 3.39 -20.8 0 0 746.12 252.41
  Q 741.78 251.34 739.65 250.59
  C 736.51 249.48 731.48 249.24 729.06 249.41
  A 4.87 4.82 -32.3 0 1 726.33 248.81
  Q 723.59 247.29 719.78 247.13
  A 2.18 2.16 -75.5 0 0 717.73 248.35
  C 716.88 250.10 716.40 251.26 715.05 252.63
  Q 713.59 254.10 712.37 255.66
  A 4.67 4.64 -18.9 0 0 711.56 257.30
  Q 710.58 261.09 707.63 264.15
  C 705.07 266.82 704.82 270.51 704.37 274.11
  A 3.61 3.58 69.8 0 1 703.47 276.08
  L 698.73 281.34
  A 1.49 1.49 0.0 0 0 698.43 281.84
  C 697.51 284.45 697.39 287.02 695.76 289.19
  Q 693.09 292.72 692.24 293.89
  A 7.94 7.86 74.5 0 0 691.29 295.59
  C 690.52 297.49 690.25 299.35 688.85 301.68
  C 687.33 304.20 686.42 306.49 686.12 309.94
  C 685.93 312.19 684.58 313.93 682.14 314.90
  C 679.17 316.08 678.14 319.60 677.20 322.43
  C 675.63 327.19 673.30 331.47 671.34 335.19
  A 3.54 3.45 -25.8 0 0 671.02 336.07
  L 670.67 337.74
  A 15.66 15.66 0.0 0 1 668.23 343.41
  C 665.80 346.92 664.97 347.91 664.60 352.42
  A 4.01 3.98 65.2 0 1 663.88 354.40
  Q 662.57 356.27 660.18 357.95
  Q 658.78 358.94 658.88 360.55
  Q 659.22 366.20 654.38 370.04
  A 3.23 3.23 0.0 0 0 653.17 372.41
  C 652.92 377.18 652.06 379.72 649.90 383.90
  Q 644.77 393.81 643.63 396.63
  Q 643.15 397.82 642.87 401.27
  A 6.96 6.80 -32.0 0 1 642.37 403.32
  C 641.35 405.75 639.32 408.31 638.50 410.79
  Q 637.65 413.32 633.52 420.50
  C 630.81 425.21 628.67 432.42 626.11 437.49
  Q 624.28 441.09 621.65 445.06
  C 619.49 448.30 618.94 452.19 616.75 455.61
  Q 615.53 457.53 615.21 458.73
  C 614.45 461.68 614.88 464.48 612.33 466.65
  C 608.87 469.59 608.78 473.05 606.26 476.64
  Q 603.15 481.07 600.13 485.83
  A 5.47 5.21 68.5 0 0 599.45 487.50
  Q 598.43 492.25 594.34 495.49
  C 592.06 497.30 593.27 500.04 594.63 502.54
  A 1.73 1.66 35.8 0 1 594.82 503.59
  Q 594.74 504.19 594.40 504.87
  C 593.74 506.16 594.12 507.68 594.54 509.17
  A 1.90 1.86 -43.0 0 1 594.49 510.32
  C 593.24 513.58 591.03 517.19 590.69 521.19
  C 590.30 525.67 587.16 528.62 584.25 531.88
  A 5.61 5.54 -11.6 0 0 583.35 533.23
  C 581.26 537.76 579.75 542.21 575.19 544.77
  A 3.95 3.95 0.0 0 0 573.42 546.89
  Q 571.66 551.98 568.77 557.21
  Q 566.96 560.48 566.15 566.44
  A 1.09 1.08 -71.2 0 0 566.67 567.51
  Z
  M 371.42 282.67
  A 2.86 2.85 79.4 0 0 374.33 284.67
  Q 381.63 284.18 385.84 284.44
  C 387.66 284.56 388.79 284.13 389.90 282.76
  A 3.69 3.46 -62.2 0 1 393.56 281.50
  Q 394.63 281.79 396.44 282.24
  A 1.28 1.28 0.0 0 0 398.03 280.96
  L 397.78 272.33
  A 2.23 2.15 31.6 0 0 397.53 271.36
  L 395.89 268.09
  A 2.22 2.16 -58.9 0 1 395.66 267.11
  L 395.66 254.96
  A 1.95 1.95 0.0 0 0 393.90 253.02
  Q 390.63 252.70 386.65 253.60
  Q 385.11 253.94 383.87 253.17
  Q 381.04 251.40 377.39 251.59
  A 0.54 0.47 -49.1 0 0 377.25 251.61
  L 369.81 253.84
  A 1.59 1.58 -23.4 0 0 368.89 256.15
  L 370.65 259.19
  A 1.63 1.63 0.0 0 1 370.62 260.87
  Q 367.60 265.74 367.17 270.53
  C 367.06 271.74 368.22 273.91 368.18 275.75
  C 368.12 279.56 370.48 279.62 371.42 282.67
  Z
  M 634.67 303.70
  A 0.89 0.89 0.0 0 0 635.82 302.58
  Q 635.03 300.28 633.68 298.95
  A 1.88 1.88 0.0 0 1 633.40 296.61
  Q 635.37 293.46 635.72 290.22
  C 636.10 286.63 636.98 284.47 637.50 281.59
  A 2.01 1.69 -77.6 0 0 636.34 279.37
  C 634.54 278.88 631.67 281.78 630.55 283.17
  A 3.19 3.02 -85.8 0 1 629.86 283.80
  L 626.21 286.23
  A 2.13 2.13 0.0 0 0 625.25 288.01
  Q 625.27 291.98 623.40 294.82
  A 2.23 2.23 0.0 0 0 623.91 297.83
  Q 628.79 301.53 634.67 303.70
  Z
  M 668.92 283.92
  A 1.21 1.21 0.0 0 0 667.02 282.70
  Q 659.58 288.15 653.67 294.28
  A 2.83 2.81 -24.8 0 0 652.87 296.43
  L 653.05 299.17
  A 3.99 3.98 66.0 0 1 651.87 302.25
  Q 649.01 305.05 645.27 306.67
  A 4.20 4.15 -45.8 0 1 642.08 306.73
  L 636.77 304.61
  A 1.10 1.10 0.0 0 0 635.33 306.01
  C 637.46 311.83 644.11 313.14 650.67 314.77
  A 2.31 2.24 -17.9 0 1 651.50 315.18
  Q 653.21 316.49 653.36 319.11
  A 0.76 0.76 0.0 0 0 654.62 319.63
  Q 655.14 319.16 655.23 318.69
  Q 656.27 313.05 657.34 308.16
  A 0.98 0.95 66.0 0 1 657.45 307.86
  L 667.47 290.51
  A 1.30 1.05 -29.4 0 0 667.61 290.16
  L 668.92 283.92
  Z
  M 341.07 684.93
  L 340.05 682.86
  A 3.71 3.67 -58.7 0 1 339.67 681.27
  Q 339.66 681.14 339.78 660.69
  C 339.79 657.55 340.51 654.99 340.90 652.20
  A 5.44 5.43 39.9 0 0 340.68 649.77
  L 338.24 642.29
  A 8.41 8.37 -54.6 0 1 337.81 639.70
  L 337.50 615.07
  A 1.55 1.55 0.0 0 0 336.15 613.56
  C 332.95 613.16 325.94 612.49 323.34 614.85
  Q 318.89 618.91 313.94 621.04
  C 309.51 622.94 306.55 624.79 304.03 627.43
  C 301.50 630.08 297.43 630.36 295.25 633.77
  Q 294.34 635.20 292.71 636.55
  C 290.10 638.69 289.20 640.07 286.42 643.22
  A 8.03 7.69 79.3 0 0 285.16 645.16
  Q 282.21 651.66 276.88 658.44
  Q 275.58 660.09 273.52 660.67
  A 0.78 0.77 85.2 0 0 272.95 661.35
  C 272.86 662.33 273.08 663.34 272.69 664.34
  Q 271.58 667.14 270.92 669.92
  A 4.98 4.94 71.3 0 1 269.96 671.88
  C 267.80 674.58 264.92 675.90 264.86 679.58
  Q 264.85 680.63 265.45 685.75
  C 265.95 689.90 263.24 691.92 261.58 695.15
  Q 260.92 696.42 260.99 699.42
  Q 261.06 703.25 260.87 722.38
  C 260.85 724.22 259.01 726.86 259.41 728.95
  C 259.71 730.48 260.35 732.26 259.87 733.72
  Q 258.80 737.02 260.25 740.46
  C 261.10 742.49 261.02 744.08 260.16 745.73
  C 258.94 748.10 259.81 749.78 260.11 752.07
  A 4.67 4.67 0.0 0 1 259.97 753.98
  Q 259.08 757.01 259.53 758.13
  Q 261.89 764.06 260.02 768.52
  C 259.13 770.62 260.64 772.38 260.81 774.63
  Q 261.25 780.49 260.95 783.94
  Q 260.53 788.81 260.86 793.23
  Q 260.99 795.12 260.95 804.24
  C 260.93 807.45 262.90 810.83 261.08 813.64
  C 259.71 815.76 259.18 816.96 260.21 819.96
  Q 261.35 823.31 261.06 827.45
  A 4.39 4.27 -51.4 0 0 261.20 828.88
  Q 262.25 832.90 264.16 836.19
  Q 264.90 837.47 264.93 839.18
  C 264.97 842.52 265.38 844.40 266.85 847.52
  C 269.93 854.09 271.70 856.91 273.12 862.73
  Q 274.03 866.47 278.24 873.89
  A 4.56 4.55 8.1 0 0 278.94 874.82
  L 290.68 886.86
  A 8.48 7.17 -88.6 0 1 291.54 887.93
  C 293.30 890.57 294.20 892.29 296.68 894.77
  Q 304.90 903.04 308.78 906.46
  C 310.11 907.62 313.63 909.31 314.58 911.17
  Q 316.89 915.68 317.78 916.49
  C 319.88 918.44 321.96 919.89 323.83 922.20
  Q 329.56 929.31 331.20 930.60
  Q 338.74 936.50 344.12 942.02
  A 4.33 4.17 79.7 0 0 345.30 942.87
  Q 348.36 944.35 354.73 951.02
  Q 357.69 954.13 362.19 956.30
  Q 364.43 957.38 366.81 959.41
  C 370.66 962.69 372.04 963.62 375.72 967.15
  Q 380.09 971.32 386.11 972.58
  A 3.87 3.78 64.1 0 1 387.14 972.95
  L 397.03 978.31
  A 2.38 2.26 77.5 0 1 397.46 978.60
  C 401.31 981.93 405.63 986.01 410.77 986.25
  C 414.50 986.42 416.05 986.28 418.79 988.71
  Q 421.44 991.05 422.29 991.30
  C 427.33 992.75 429.94 994.03 434.51 994.49
  Q 439.05 994.95 442.62 998.50
  C 445.84 1001.70 448.75 999.48 451.58 998.33
  A 4.55 4.55 0.0 0 1 455.22 998.42
  L 462.64 1001.87
  A 5.14 5.12 -30.7 0 0 464.49 1002.34
  Q 468.14 1002.56 472.31 1002.39
  C 476.07 1002.23 477.28 999.26 481.60 1001.30
  Q 484.73 1002.77 489.82 1002.44
  C 492.06 1002.29 493.85 1003.28 495.37 1003.53
  A 5.00 4.89 43.7 0 0 497.08 1003.51
  L 509.05 1001.23
  A 2.02 2.01 -41.1 0 1 510.11 1001.30
  Q 512.35 1002.06 514.89 1001.40
  C 519.97 1000.08 524.72 1000.69 529.74 999.50
  Q 544.33 996.05 556.42 991.16
  A 6.87 6.56 -72.9 0 0 557.85 990.36
  Q 566.04 984.41 576.94 979.47
  Q 578.58 978.73 579.14 977.12
  C 580.88 972.07 584.30 971.92 588.61 969.84
  C 591.27 968.55 592.42 965.40 593.66 962.78
  A 16.57 16.36 77.7 0 1 595.85 959.32
  C 598.53 956.06 600.53 953.13 604.66 946.61
  A 16.77 16.05 -6.9 0 1 607.22 943.49
  Q 610.04 940.81 610.52 939.79
  Q 616.79 926.62 620.43 921.38
  C 623.01 917.66 629.42 909.90 628.55 905.99
  A 1.91 1.90 54.7 0 1 628.79 904.57
  Q 629.35 903.68 631.20 901.70
  Q 635.53 897.09 638.84 893.86
  C 640.63 892.10 642.79 889.11 643.18 887.37
  Q 644.51 881.35 647.67 877.29
  Q 648.79 875.84 649.42 873.99
  Q 649.96 872.43 650.78 870.54
  A 6.55 6.45 77.0 0 1 651.74 868.98
  L 654.79 865.27
  A 1.81 1.64 77.7 0 0 655.06 864.80
  C 656.19 861.96 656.71 860.32 658.49 858.42
  Q 661.56 855.12 662.66 853.50
  A 6.51 6.48 -21.5 0 0 663.57 851.42
  Q 664.34 848.29 666.69 845.08
  Q 667.29 844.26 667.81 839.52
  A 1.91 1.49 64.5 0 1 667.87 839.25
  L 671.18 828.31
  A 2.42 0.93 -67.5 0 1 671.29 827.99
  L 677.25 811.45
  A 0.60 0.42 79.7 0 1 677.30 811.34
  L 678.85 808.58
  A 1.63 1.62 50.9 0 0 678.98 807.28
  L 678.23 805.00
  A 2.32 2.30 -46.1 0 1 678.21 803.67
  L 680.43 795.85
  A 3.14 3.13 -13.5 0 1 681.32 794.40
  Q 684.23 791.70 685.52 787.27
  A 3.07 3.02 -46.5 0 0 685.49 785.45
  C 684.34 781.95 686.23 779.07 685.88 775.36
  A 2.00 1.99 -87.9 0 0 684.24 773.59
  Q 679.79 772.82 675.93 774.23
  C 671.93 775.69 667.77 776.11 664.53 774.05
  A 2.35 2.34 39.9 0 0 661.69 774.30
  Q 658.70 777.00 654.51 777.21
  Q 647.87 777.55 643.69 777.31
  A 2.11 2.06 31.3 0 0 642.52 777.58
  Q 641.61 778.11 640.68 779.01
  A 1.88 1.77 -41.7 0 1 637.97 778.94
  C 636.28 776.83 634.59 776.68 631.97 778.31
  C 628.27 780.61 623.02 779.40 619.66 779.56
  A 2.39 2.37 -58.3 0 0 618.58 779.82
  L 616.41 780.94
  A 0.46 0.45 -41.0 0 1 615.95 780.91
  C 612.16 778.18 610.05 780.13 606.58 782.34
  A 2.48 2.47 29.4 0 1 605.18 782.73
  C 601.25 782.63 599.38 779.84 596.56 778.06
  A 1.13 1.10 45.7 0 0 595.40 778.03
  L 593.34 779.22
  A 2.90 2.86 29.6 0 1 591.89 779.61
  C 586.85 779.63 582.34 779.07 578.15 780.25
  A 2.15 2.13 45.2 0 1 576.95 780.24
  Q 574.67 779.55 572.63 779.71
  A 1.56 1.55 -69.8 0 0 571.67 780.16
  L 568.16 783.66
  A 1.25 1.22 -18.8 0 0 567.81 784.35
  C 567.47 786.66 568.29 789.15 567.75 791.27
  Q 567.04 794.00 566.82 797.80
  C 566.71 799.61 564.80 801.71 565.98 803.47
  C 567.76 806.11 567.04 810.12 565.52 812.64
  A 3.52 3.50 63.3 0 0 565.06 814.04
  Q 564.52 819.15 565.88 822.12
  A 1.63 1.63 0.0 0 1 565.93 823.36
  L 565.15 825.51
  A 2.61 2.50 -36.3 0 0 565.00 826.37
  Q 564.94 832.50 564.86 835.58
  C 564.78 838.92 563.39 841.55 562.13 843.60
  C 560.28 846.60 561.44 848.50 562.82 851.79
  A 1.56 1.45 -58.1 0 1 562.93 852.36
  L 562.93 859.77
  A 2.67 2.65 -19.9 0 1 561.96 861.82
  Q 557.03 865.84 553.60 870.59
  C 548.70 877.37 542.70 872.16 538.88 867.58
  Q 538.11 866.65 537.90 864.36
  Q 537.30 857.89 540.33 853.74
  C 542.49 850.77 541.85 844.23 541.87 841.71
  A 6.87 6.79 -34.1 0 1 542.37 839.20
  C 543.86 835.54 544.84 831.57 542.98 827.73
  C 541.62 824.91 543.81 823.78 543.87 821.11
  Q 544.07 812.98 543.66 807.23
  A 8.61 8.38 -56.7 0 0 543.25 805.11
  L 542.48 802.76
  A 7.89 7.28 -59.8 0 1 542.17 801.36
  C 541.78 798.04 541.74 795.04 540.69 791.63
  Q 539.82 788.80 538.99 785.38
  A 1.26 1.18 -49.0 0 1 538.97 784.89
  L 539.53 781.57
  A 1.02 0.94 -53.4 0 0 539.47 781.02
  Q 538.01 777.48 537.99 776.75
  Q 537.91 772.86 538.03 762.68
  C 538.06 760.19 538.65 758.40 539.37 756.01
  A 7.07 7.02 -36.9 0 0 539.66 754.01
  L 539.66 739.63
  A 1.57 1.08 48.6 0 0 539.62 739.30
  L 538.87 735.96
  A 1.50 1.48 44.6 0 1 538.86 735.30
  L 540.98 724.64
  A 3.93 3.85 -49.5 0 0 540.84 722.59
  C 540.01 720.01 537.02 717.76 538.03 714.54
  Q 539.69 709.26 541.32 705.08
  A 4.15 4.14 40.9 0 0 541.06 701.50
  C 540.12 699.88 539.67 698.45 539.67 696.42
  C 539.70 688.29 539.38 684.06 539.80 677.84
  Q 539.99 675.08 539.72 669.58
  C 539.53 665.73 538.59 662.56 539.52 658.77
  C 540.38 655.25 538.20 651.28 537.87 648.35
  A 4.69 4.55 48.9 0 1 537.95 646.87
  L 538.52 644.37
  A 5.37 5.15 -45.1 0 0 538.56 642.24
  C 537.69 637.74 537.64 636.36 539.44 632.35
  A 0.10 0.08 -38.0 0 0 539.45 632.31
  L 539.63 618.97
  A 7.71 7.45 -49.7 0 0 539.55 617.74
  Q 539.17 616.26 536.60 611.52
  Q 535.70 609.87 535.83 606.37
  A 1.68 1.67 61.2 0 1 536.04 605.64
  L 537.60 602.94
  A 2.18 2.16 -29.9 0 0 537.90 601.84
  L 537.90 591.64
  A 4.12 3.96 -55.2 0 0 537.70 590.38
  L 536.26 585.99
  A 6.85 6.81 -44.5 0 1 536.31 581.60
  C 537.32 578.70 537.80 577.37 537.82 574.41
  Q 537.86 561.84 537.84 561.25
  C 537.74 558.74 535.61 557.59 536.26 555.03
  C 536.60 553.68 537.48 552.07 536.76 549.99
  C 536.00 547.81 535.86 546.26 536.79 544.13
  Q 537.88 541.62 537.97 537.39
  Q 538.01 535.54 536.63 531.09
  Q 534.47 524.14 537.07 516.41
  A 4.38 4.31 43.5 0 0 536.97 513.39
  Q 534.73 507.91 536.43 503.06
  Q 537.68 499.50 537.81 497.60
  Q 538.17 492.41 536.54 488.84
  A 2.43 2.41 -57.5 0 1 536.32 487.83
  L 536.32 484.46
  A 2.95 2.61 -41.5 0 1 536.40 483.80
  Q 537.48 479.18 537.57 478.00
  Q 537.84 474.12 537.93 461.62
  Q 537.96 458.51 537.41 456.65
  C 536.49 453.50 538.28 451.34 537.87 448.26
  Q 537.82 447.90 536.57 445.06
  Q 534.64 440.68 537.35 436.66
  A 2.08 2.05 62.1 0 0 537.71 435.46
  Q 537.70 434.79 536.89 433.65
  C 535.47 431.66 535.49 429.40 537.30 427.70
  A 1.54 1.49 72.0 0 0 537.76 426.76
  Q 537.84 426.10 536.45 423.39
  Q 534.85 420.28 536.94 417.58
  C 539.29 414.54 536.43 414.09 535.98 411.40
  Q 535.14 406.36 537.22 402.73
  A 2.21 2.20 44.4 0 0 537.19 400.50
  Q 534.07 395.33 537.60 390.75
  A 2.83 2.60 47.6 0 0 537.61 387.57
  C 536.69 386.18 535.83 385.20 535.85 383.35
  Q 535.87 380.43 534.78 377.87
  A 1.79 1.78 42.4 0 1 534.72 376.63
  L 535.63 373.82
  A 0.96 0.87 56.2 0 0 535.67 373.55
  L 535.67 358.70
  A 4.32 4.26 -60.3 0 0 535.10 356.56
  L 534.08 354.80
  A 3.22 3.22 0.0 0 1 533.66 353.21
  L 533.66 346.35
  A 2.66 2.65 62.1 0 1 534.11 344.87
  Q 536.60 341.21 534.98 336.16
  Q 533.74 332.31 533.72 332.02
  Q 533.47 326.83 533.78 309.25
  Q 533.82 306.89 533.22 304.39
  A 1.14 1.13 8.5 0 0 532.66 303.64
  C 530.63 302.53 527.35 304.11 525.18 304.93
  C 521.82 306.20 517.51 305.64 514.11 304.34
  A 3.49 3.40 56.3 0 0 513.08 304.12
  Q 507.72 303.74 503.09 303.09
  C 499.54 302.59 494.61 303.09 491.88 304.31
  C 488.49 305.83 485.02 305.93 482.26 303.91
  A 2.71 2.67 -26.3 0 0 480.71 303.40
  Q 472.68 303.31 471.86 303.45
  C 468.70 303.97 467.17 301.29 463.50 303.49
  A 2.96 2.44 47.4 0 1 460.40 303.06
  Q 459.24 302.11 457.84 301.94
  A 1.71 1.69 35.2 0 0 456.89 302.10
  C 453.35 303.82 448.52 303.92 444.54 302.35
  A 2.40 2.38 -43.3 0 0 442.90 302.31
  L 439.98 303.26
  A 1.75 1.49 -49.5 0 1 439.48 303.34
  Q 431.98 303.36 428.01 303.58
  C 426.17 303.69 424.72 304.91 423.31 305.08
  A 2.04 1.99 57.0 0 1 422.02 304.79
  Q 416.78 301.61 411.23 304.74
  A 4.46 4.40 -61.4 0 1 409.37 305.30
  Q 399.41 306.00 390.79 304.23
  C 389.49 303.96 388.36 303.22 387.40 303.24
  A 1.45 1.43 -68.7 0 0 386.37 303.70
  C 383.74 306.50 380.85 305.29 377.55 304.15
  A 2.21 1.79 49.1 0 0 377.27 304.09
  L 368.48 303.28
  A 2.89 2.87 -61.3 0 0 366.42 303.89
  C 364.96 305.03 363.54 305.66 361.72 305.62
  Q 355.25 305.47 352.08 305.79
  A 6.29 6.25 -41.7 0 1 350.06 305.68
  C 348.65 305.37 346.28 305.12 344.65 305.21
  Q 339.94 305.48 335.07 305.39
  A 1.27 1.27 0.0 0 0 333.84 307.06
  L 338.72 322.01
  A 4.61 4.46 -56.0 0 1 338.95 323.31
  L 339.42 340.73
  A 5.60 5.47 34.9 0 0 339.76 342.52
  Q 341.44 347.16 341.19 353.76
  Q 341.17 354.41 340.12 356.18
  A 2.00 1.94 56.4 0 0 339.88 357.48
  C 340.07 358.61 340.81 359.97 340.84 361.26
  Q 340.94 365.20 341.66 369.12
  A 6.27 6.06 44.0 0 1 341.72 370.90
  C 341.09 376.13 340.56 380.66 342.55 385.50
  A 1.63 1.61 43.3 0 1 342.59 386.63
  C 341.88 388.68 340.57 389.84 341.47 392.15
  Q 343.04 396.15 343.54 399.21
  A 2.84 2.43 47.7 0 1 343.56 399.86
  L 342.59 409.71
  A 4.07 4.05 -57.2 0 0 343.11 412.14
  L 344.74 414.95
  A 1.28 1.27 -60.7 0 1 344.90 415.53
  Q 345.14 421.37 344.98 426.50
  Q 344.89 429.32 343.22 431.58
  A 1.81 1.80 46.5 0 0 343.17 433.66
  Q 345.43 437.03 344.08 440.74
  A 2.65 2.62 -44.7 0 0 344.06 442.44
  C 345.43 446.56 345.02 450.33 345.14 455.17
  A 0.87 0.85 -55.5 0 0 345.19 455.46
  L 347.82 463.22
  A 3.43 3.43 0.0 0 1 347.89 465.22
  C 346.73 469.57 346.69 475.03 348.20 480.44
  Q 349.13 483.77 349.00 487.00
  A 4.24 4.16 -55.5 0 0 349.30 488.71
  L 350.58 491.89
  A 1.39 1.13 -65.6 0 1 350.64 492.12
  Q 351.41 496.72 349.31 500.23
  A 2.37 2.33 61.0 0 0 348.97 501.45
  L 348.97 508.72
  A 2.37 2.34 31.0 0 0 349.26 509.85
  C 351.66 514.32 350.90 519.42 351.04 526.10
  A 2.91 2.86 29.7 0 0 351.42 527.45
  L 352.49 529.30
  A 1.30 1.29 -45.4 0 1 352.49 530.59
  L 351.56 532.20
  A 2.46 2.46 0.0 0 0 351.22 533.41
  Q 351.10 539.02 352.43 544.02
  A 5.58 5.28 37.7 0 1 352.59 545.05
  Q 352.73 548.30 353.91 567.61
  Q 354.02 569.42 354.88 570.77
  Q 357.67 575.17 356.01 580.84
  Q 355.47 582.71 355.56 583.57
  C 355.70 585.01 356.53 587.06 356.38 588.60
  Q 356.35 588.89 355.89 591.12
  A 2.11 2.04 -44.1 0 0 355.87 591.76
  L 357.45 602.34
  A 5.31 4.70 34.3 0 0 357.67 603.21
  L 358.54 605.75
  A 0.35 0.31 41.4 0 1 358.55 605.83
  L 359.91 627.06
  A 0.96 0.82 -62.5 0 0 359.98 627.36
  C 361.43 631.19 360.55 636.82 361.87 641.58
  Q 363.18 646.29 362.81 652.85
  C 362.67 655.25 363.18 657.98 361.88 660.44
  C 360.95 662.20 362.63 664.08 362.77 666.13
  Q 363.42 675.72 362.72 685.01
  C 362.51 687.70 363.14 690.70 362.09 692.90
  C 361.26 694.66 361.56 696.14 362.30 698.25
  Q 362.82 699.76 362.91 702.31
  Q 363.13 708.81 362.53 712.52
  A 6.89 6.77 44.5 0 0 362.57 714.84
  Q 363.77 720.87 361.36 725.50
  A 1.50 1.49 46.5 0 0 361.33 726.82
  Q 362.85 730.05 363.09 734.46
  A 1.24 1.24 0.0 0 1 362.34 735.66
  C 355.67 738.41 360.84 748.95 360.94 754.08
  C 361.00 756.85 359.16 759.72 359.16 762.50
  Q 359.17 772.94 358.85 783.65
  A 2.49 2.12 -40.4 0 1 358.76 784.21
  L 358.02 786.65
  A 2.67 2.66 -46.1 0 0 358.05 788.26
  C 358.99 791.08 359.63 792.34 358.13 795.32
  C 356.04 799.47 356.94 802.09 356.67 805.76
  Q 356.46 808.80 354.69 810.12
  Q 346.64 816.18 337.12 811.38
  A 2.17 2.16 -76.6 0 1 335.94 809.45
  L 335.94 803.09
  A 3.96 3.87 -59.0 0 0 335.52 801.32
  C 333.99 798.23 333.54 796.06 333.95 792.33
  C 334.14 790.60 336.14 788.46 336.04 786.75
  Q 335.92 784.51 335.93 776.43
  A 5.30 5.19 38.1 0 0 335.75 775.07
  Q 335.36 773.54 335.40 773.24
  Q 335.79 770.34 336.24 764.32
  A 6.00 5.62 -48.4 0 0 336.21 763.19
  Q 335.74 759.19 336.12 757.92
  Q 337.30 753.98 337.48 753.11
  A 6.49 6.47 50.3 0 0 337.63 751.47
  Q 337.60 750.77 336.32 746.24
  C 335.04 741.76 336.79 736.48 338.72 732.30
  A 1.75 1.75 0.0 0 0 338.70 730.79
  C 337.20 727.76 335.45 723.09 337.58 720.06
  C 338.96 718.09 339.72 716.32 339.69 713.39
  Q 339.58 703.63 339.59 698.75
  Q 339.60 697.10 338.14 694.39
  A 3.51 3.31 28.7 0 1 337.75 693.19
  C 337.38 690.42 336.83 686.89 340.73 685.71
  A 0.56 0.56 0.0 0 0 341.07 684.93
  Z
  M 556.66 442.46
  Q 559.10 444.11 558.93 446.83
  C 558.83 448.30 559.63 449.69 560.30 450.77
  A 3.94 3.82 46.4 0 1 560.26 454.98
  Q 559.03 456.81 558.98 459.24
  Q 558.85 465.29 559.03 483.49
  Q 559.09 489.32 560.10 492.02
  Q 560.93 494.25 560.78 495.00
  A 2.91 2.88 -23.6 0 1 560.45 495.83
  Q 559.05 498.19 559.05 500.75
  Q 559.05 503.89 559.10 511.36
  A 7.66 7.59 33.4 0 0 559.72 514.32
  Q 561.37 518.14 561.36 520.68
  A 1.43 1.42 67.2 0 0 563.80 521.68
  Q 566.54 518.87 569.58 512.56
  A 2.69 2.62 58.8 0 0 569.85 511.39
  L 569.85 504.81
  A 1.26 1.12 55.7 0 1 569.89 504.50
  Q 571.79 498.16 572.71 490.26
  Q 572.88 488.80 575.07 483.49
  A 4.84 4.25 77.4 0 0 575.29 482.87
  Q 577.18 476.25 578.00 475.20
  Q 580.84 471.58 582.91 468.28
  A 9.54 9.25 84.5 0 1 584.29 466.55
  Q 587.00 463.85 589.09 460.59
  Q 594.88 451.58 599.28 441.29
  Q 600.11 439.34 599.94 436.86
  A 2.02 1.99 -22.0 0 1 600.67 435.18
  C 602.44 433.71 603.66 432.55 604.42 430.63
  C 606.40 425.66 610.41 419.69 612.33 413.21
  A 13.48 13.20 -20.5 0 1 613.97 409.70
  C 615.90 406.80 619.15 402.10 620.30 397.96
  C 620.88 395.82 622.45 393.99 623.18 392.68
  A 2.83 2.75 59.2 0 0 623.53 391.21
  C 623.37 385.01 627.32 378.74 629.99 373.51
  Q 632.30 369.00 632.08 366.75
  Q 631.81 363.97 633.10 362.49
  Q 634.72 360.63 635.09 359.78
  Q 636.31 356.93 639.57 352.07
  Q 639.64 351.96 642.57 345.77
  A 2.02 2.00 48.3 0 0 642.65 344.23
  C 641.47 340.97 642.39 338.22 639.18 335.33
  Q 636.23 332.67 632.89 330.64
  Q 625.80 326.35 622.39 324.58
  A 7.34 7.25 79.0 0 1 620.93 323.58
  C 618.85 321.74 617.60 320.47 615.20 318.91
  Q 607.73 314.08 607.43 313.87
  C 603.22 310.88 592.25 305.99 587.70 308.01
  Q 581.58 310.74 578.23 316.80
  Q 577.34 318.43 575.59 319.02
  Q 569.75 321.01 565.49 326.26
  Q 564.00 328.09 562.57 329.94
  A 3.89 3.57 -88.0 0 1 561.99 330.53
  L 556.31 334.99
  A 3.00 2.99 61.9 0 0 555.32 338.26
  L 556.73 342.57
  A 4.61 4.56 45.3 0 1 556.73 345.46
  L 555.17 350.14
  A 1.17 1.17 0.0 0 0 555.11 350.51
  Q 554.92 354.96 555.09 355.66
  C 556.31 360.76 557.84 364.48 556.10 367.72
  Q 555.05 369.66 555.64 371.64
  Q 557.05 376.39 556.89 381.57
  A 6.93 6.90 -54.8 0 0 557.36 384.33
  C 558.26 386.65 559.32 388.73 558.10 390.15
  C 554.86 393.93 558.55 397.15 558.83 401.14
  Q 559.36 408.75 558.34 416.61
  A 2.29 2.24 -48.5 0 0 558.38 417.40
  L 559.31 421.28
  A 3.87 3.82 -50.6 0 1 559.42 422.48
  Q 558.96 430.35 558.78 438.49
  Q 558.75 439.84 556.65 441.30
  A 0.70 0.70 0.0 0 0 556.66 442.46
  Z
  M 328.41 536.25
  L 323.39 538.42
  A 0.89 0.88 7.2 0 0 323.04 538.69
  Q 320.68 541.68 315.20 546.94
  Q 314.08 548.02 311.60 552.43
  C 308.39 558.12 302.17 563.44 300.46 570.26
  A 4.24 4.20 71.3 0 1 299.68 571.85
  C 297.33 574.79 297.45 578.41 297.02 582.14
  A 6.35 6.31 -31.5 0 1 296.67 583.58
  Q 295.16 587.54 294.66 591.89
  A 3.05 2.84 -31.7 0 1 294.41 592.80
  L 291.33 599.48
  A 3.23 3.18 -31.1 0 0 291.04 600.61
  C 290.88 602.68 290.73 608.16 292.15 609.85
  A 1.76 1.75 -38.7 0 0 294.55 610.11
  Q 298.49 607.07 300.31 605.27
  C 303.35 602.28 305.61 601.01 309.75 597.97
  Q 311.17 596.93 316.04 596.23
  A 9.98 9.97 -59.6 0 0 318.14 595.68
  Q 322.36 594.08 326.70 593.60
  C 329.37 593.30 331.90 592.10 334.77 591.98
  A 0.87 0.87 0.0 0 0 335.48 590.66
  Q 331.66 584.22 333.24 577.02
  A 2.90 2.84 -48.7 0 0 333.16 575.53
  Q 332.53 573.62 332.77 571.89
  A 3.31 3.29 -49.1 0 0 332.68 570.57
  L 331.94 567.95
  A 8.03 7.91 -53.3 0 1 331.66 565.93
  Q 331.61 564.60 331.61 558.27
  Q 331.61 557.52 330.45 553.93
  C 329.75 551.76 330.09 550.87 330.82 548.91
  Q 331.39 547.38 330.71 546.15
  C 328.92 542.89 330.16 540.27 329.59 536.89
  A 0.86 0.85 73.3 0 0 328.41 536.25
  Z
  M 864.42 583.24
  A 1.11 1.11 0.0 0 0 863.46 581.71
  L 853.16 581.06
  A 5.69 5.55 -45.7 0 0 852.34 581.08
  L 848.04 581.50
  A 3.15 3.05 -62.4 0 0 846.80 581.91
  C 844.26 583.43 843.04 584.53 840.34 582.04
  A 1.68 1.58 44.4 0 0 838.11 581.99
  C 835.59 584.39 831.80 583.91 828.81 582.39
  Q 827.06 581.51 825.03 581.39
  Q 819.29 581.06 815.98 583.15
  A 3.45 3.45 0.0 0 1 811.85 582.81
  Q 811.09 582.14 809.46 581.36
  A 1.52 1.46 54.6 0 0 808.71 581.22
  L 802.52 581.61
  A 4.42 4.41 28.4 0 0 800.70 582.15
  C 798.02 583.66 795.58 584.48 792.79 582.10
  A 1.30 1.30 0.0 0 0 791.15 582.07
  C 788.14 584.40 786.04 582.79 782.96 583.15
  Q 780.27 583.45 778.60 582.74
  C 776.62 581.90 775.35 583.96 773.21 583.13
  Q 772.00 582.66 769.76 582.84
  C 766.50 583.09 763.04 580.93 759.48 581.48
  A 1.63 1.60 -67.8 0 0 758.69 581.82
  L 753.71 585.74
  A 1.92 1.91 40.8 0 1 751.58 585.89
  L 749.43 584.64
  A 6.51 6.46 60.6 0 0 746.40 583.78
  Q 739.50 583.56 737.52 583.20
  C 734.45 582.66 732.03 584.39 728.69 582.57
  A 2.04 1.98 -37.1 0 0 727.22 582.39
  L 720.07 584.17
  A 1.40 0.90 -39.0 0 1 719.80 584.20
  L 705.33 583.34
  A 3.98 3.81 -28.3 0 1 703.74 582.90
  Q 700.35 581.11 695.38 581.40
  A 1.10 1.09 -65.4 0 0 694.77 581.63
  L 693.54 582.60
  A 3.84 3.79 -64.0 0 1 691.21 583.42
  L 680.62 583.53
  A 1.24 1.21 -37.5 0 1 680.21 583.48
  L 677.68 582.74
  A 1.55 1.46 46.8 0 0 677.04 582.70
  L 668.92 583.97
  A 2.39 2.35 24.9 0 0 668.08 584.27
  Q 664.57 586.33 659.50 585.56
  A 1.98 1.93 67.9 0 1 658.63 585.18
  Q 656.96 583.90 655.48 583.87
  C 653.72 583.84 652.18 585.85 650.51 585.77
  Q 644.13 585.45 636.58 585.81
  A 7.44 7.21 -56.3 0 0 634.27 586.31
  L 628.26 588.73
  A 2.60 2.22 27.7 0 1 627.56 588.89
  Q 619.27 589.68 608.74 589.63
  Q 606.83 589.62 603.99 591.51
  Q 603.38 591.92 599.39 593.21
  A 1.00 0.99 -33.5 0 1 598.44 593.02
  L 595.95 590.90
  A 0.74 0.74 0.0 0 0 595.30 590.73
  L 585.28 592.94
  A 1.34 1.34 0.0 0 1 584.72 592.94
  Q 583.22 592.64 582.31 590.91
  A 1.26 1.26 0.0 0 0 580.56 590.40
  L 578.88 591.37
  A 2.06 2.06 0.0 0 1 576.75 591.32
  Q 574.40 589.82 571.51 589.68
  Q 568.52 589.54 560.33 589.37
  A 1.30 1.30 0.0 0 0 559.12 591.20
  C 559.80 592.73 560.51 593.79 559.86 595.61
  C 559.10 597.75 560.42 599.55 560.15 601.42
  Q 559.88 603.35 560.73 605.56
  A 4.36 4.30 -55.9 0 1 561.00 607.01
  Q 561.10 614.74 561.35 621.80
  Q 561.39 622.72 562.61 626.18
  A 4.54 4.51 -55.6 0 1 562.86 627.54
  L 563.03 634.56
  A 2.94 2.81 57.3 0 1 562.80 635.74
  C 561.53 638.67 560.57 640.94 561.49 644.30
  Q 561.83 645.52 562.40 647.24
  A 1.84 1.82 -46.4 0 1 562.42 648.33
  Q 560.76 653.76 561.27 660.68
  A 6.17 5.93 34.4 0 0 561.57 662.13
  Q 564.31 669.95 561.99 679.15
  A 4.52 4.30 -41.1 0 0 561.86 680.56
  C 562.04 683.66 562.56 686.13 561.56 689.77
  A 4.36 4.25 49.5 0 0 561.45 691.44
  C 561.73 693.66 563.27 695.72 563.16 698.12
  Q 562.95 702.47 563.37 705.43
  A 9.27 9.27 0.0 0 1 563.37 708.07
  L 562.61 713.42
  A 1.10 1.01 42.7 0 0 562.64 713.80
  L 564.35 719.59
  A 2.28 2.22 48.9 0 1 564.27 721.05
  L 563.19 723.73
  A 2.44 2.40 54.0 0 0 563.03 724.79
  Q 563.33 728.68 562.65 731.79
  A 1.81 1.73 50.7 0 0 562.61 732.32
  L 563.08 739.71
  A 3.77 3.70 58.7 0 1 562.59 741.81
  Q 561.48 743.74 561.38 745.35
  A 2.18 2.12 39.4 0 0 561.46 746.06
  L 563.25 752.03
  A 13.62 13.29 23.7 0 0 564.23 754.46
  Q 564.25 754.49 565.25 757.06
  A 1.18 1.17 -7.7 0 0 566.23 757.80
  C 571.38 758.33 576.16 758.69 580.56 756.86
  C 582.79 755.92 585.66 756.33 588.02 756.98
  A 6.48 6.41 -43.9 0 0 591.22 757.02
  Q 595.87 755.89 600.04 756.78
  C 603.40 757.50 605.96 756.19 609.25 756.50
  C 613.83 756.93 617.44 756.26 622.53 756.35
  A 11.06 10.98 37.9 0 0 625.44 756.00
  Q 632.13 754.29 635.28 754.51
  Q 640.21 754.84 643.27 754.37
  C 647.11 753.78 650.19 754.70 653.74 753.05
  A 5.97 5.97 0.0 0 1 655.39 752.57
  Q 663.04 751.51 667.36 751.56
  C 669.86 751.58 671.71 750.34 673.71 750.28
  A 4.69 4.65 -35.5 0 1 675.49 750.57
  C 678.21 751.56 680.79 752.68 683.45 751.91
  Q 692.40 749.29 693.77 748.76
  A 2.77 2.76 -46.9 0 1 695.57 748.70
  Q 697.29 749.24 698.35 749.89
  C 699.90 750.85 701.88 749.88 703.35 749.60
  A 3.97 3.89 -43.7 0 1 704.92 749.62
  Q 711.87 751.11 718.89 749.50
  C 721.61 748.87 724.44 748.36 726.80 746.46
  A 1.50 1.50 0.0 0 1 728.80 746.57
  C 729.70 747.48 729.95 747.87 731.23 748.07
  Q 735.86 748.77 739.58 747.20
  C 741.97 746.20 744.01 746.07 746.01 746.10
  Q 758.53 746.29 761.39 746.20
  A 2.44 2.32 -34.5 0 1 762.33 746.35
  L 764.47 747.16
  A 2.39 2.34 -43.6 0 0 766.05 747.18
  C 769.60 745.98 772.83 746.33 776.19 745.09
  A 5.27 5.20 33.1 0 1 777.72 744.78
  Q 781.31 744.60 785.02 744.37
  C 788.36 744.16 790.43 746.51 793.97 745.01
  C 796.23 744.05 798.90 744.41 801.60 744.31
  A 9.18 8.88 34.6 0 0 803.71 743.96
  Q 809.03 742.38 816.18 742.11
  C 817.80 742.05 819.04 741.50 820.56 740.82
  A 1.92 1.92 0.0 0 1 820.89 740.71
  L 831.06 738.45
  A 3.13 2.92 35.7 0 1 831.61 738.38
  L 846.17 738.11
  A 3.18 2.75 -49.2 0 0 846.85 738.01
  L 850.30 737.04
  A 0.95 0.93 45.6 0 1 850.82 737.05
  L 854.10 738.11
  A 1.28 1.21 44.2 0 0 854.87 738.12
  Q 858.92 736.82 862.10 734.92
  C 863.30 734.20 864.21 734.06 865.71 733.79
  A 1.51 1.51 0.0 0 0 866.89 731.87
  Q 865.54 727.36 866.36 723.88
  A 1.88 1.43 -48.6 0 0 866.39 723.47
  L 865.82 713.68
  A 2.78 2.76 35.3 0 0 865.72 713.11
  Q 865.36 711.86 864.23 708.61
  C 863.01 705.08 865.47 704.20 865.75 701.74
  Q 866.37 696.40 864.40 691.38
  A 4.75 4.69 -58.7 0 1 864.08 690.03
  Q 863.54 683.49 863.87 682.30
  Q 864.69 679.42 864.18 677.30
  Q 863.76 675.61 863.75 674.07
  Q 863.71 669.15 863.52 659.69
  A 7.37 7.31 33.7 0 0 863.00 657.14
  Q 861.26 652.73 861.64 647.02
  Q 861.72 645.86 860.16 641.91
  Q 859.58 640.46 859.71 635.69
  A 1.51 1.48 65.3 0 1 860.01 634.85
  C 861.80 632.57 861.89 631.36 860.36 628.13
  Q 859.13 625.53 861.04 622.42
  A 1.75 1.67 63.6 0 0 861.30 621.58
  L 861.88 606.73
  A 3.63 3.52 -33.2 0 1 862.18 605.40
  Q 863.63 602.03 863.59 601.00
  Q 863.35 595.57 864.78 591.60
  A 3.23 3.23 0.0 0 0 864.97 590.30
  C 864.84 588.03 863.47 585.55 864.42 583.24
  Z
  M 881.09 624.70
  A 1.80 1.52 -15.9 0 0 883.25 625.67
  C 885.00 625.15 885.49 623.03 886.36 622.80
  C 888.80 622.15 890.37 624.33 891.88 624.51
  A 7.82 6.95 12.7 0 0 892.98 624.56
  L 912.40 624.31
  A 1.35 1.34 10.3 0 0 913.64 623.46
  C 916.32 616.73 911.82 614.99 911.20 609.27
  A 1.52 1.49 17.7 0 0 910.70 608.33
  Q 905.92 604.22 901.23 605.95
  Q 897.99 607.15 896.42 607.33
  Q 893.19 607.69 891.57 608.42
  Q 889.46 609.38 883.62 609.84
  Q 881.11 610.04 881.15 612.49
  Q 881.17 613.19 880.86 622.73
  Q 880.83 623.71 881.09 624.70
  Z"
/>
<path fill="#000000" d="
  M 1200.00 671.51
  L 1200.00 679.72
  Q 1198.51 689.88 1200.00 700.02
  L 1200.00 701.72
  Q 1199.19 705.98 1199.13 710.47
  Q 1198.35 705.60 1198.02 702.26
  A 12.25 12.15 46.4 0 1 1198.08 699.39
  Q 1199.33 690.47 1198.58 685.75
  Q 1197.39 678.23 1198.10 671.81
  Q 1198.72 666.22 1198.77 662.65
  C 1198.87 655.23 1199.12 645.48 1198.41 635.84
  C 1198.27 633.81 1198.17 629.40 1198.96 627.89
  A 0.21 0.21 0.0 0 1 1199.35 627.99
  Q 1198.90 649.79 1200.00 671.51
  Z"
/>
<ellipse fill="#000000" cx="0.00" cy="0.00" transform="translate(1199.14,720.38) rotate(-90.7)" rx="3.46" ry="0.29"/>
<path fill="#000000" d="
  M 1199.35 815.69
  L 1199.12 815.69
  A 7.72 0.45 -89.9 0 1 1198.68 807.97
  L 1198.68 806.55
  A 7.72 0.45 -89.9 0 1 1199.14 798.83
  L 1199.37 798.83
  L 1199.35 815.69
  Z"
/>
</svg>
