<?xml version="1.0" encoding="UTF-8" standalone="no"?>
<!DOCTYPE svg PUBLIC "-//W3C//DTD SVG 1.1//EN" "http://www.w3.org/Graphics/SVG/1.1/DTD/svg11.dtd">
<svg xmlns="http://www.w3.org/2000/svg" version="1.1" viewBox="0.00 0.00 1200.00 1200.00">
<path fill="#000000" d="
  M 520.19 1002.33
  A 0.85 0.85 0.0 0 0 518.99 1001.64
  C 516.93 1002.58 514.48 1003.73 512.11 1006.05
  Q 511.83 1006.33 507.12 1010.79
  Q 506.16 1011.70 503.46 1013.18
  C 500.55 1014.77 499.49 1016.16 498.00 1019.08
  Q 496.83 1021.39 493.74 1022.99
  Q 491.03 1024.39 488.47 1028.60
  A 5.46 5.45 -6.8 0 1 487.61 1029.69
  Q 484.45 1032.85 479.52 1035.24
  Q 478.00 1035.97 475.19 1040.44
  A 2.32 1.70 -17.8 0 1 474.98 1040.73
  L 464.55 1052.37
  A 1.81 1.51 -81.1 0 1 464.22 1052.66
  Q 459.63 1055.64 456.47 1060.06
  A 8.20 8.12 88.1 0 1 455.11 1061.53
  Q 448.18 1067.31 444.15 1070.38
  Q 440.01 1073.54 437.57 1077.61
  C 436.02 1080.22 434.81 1080.70 432.28 1080.82
  A 1.06 1.05 13.7 0 0 431.40 1081.35
  Q 429.87 1084.00 427.41 1087.89
  C 425.43 1091.00 423.74 1090.68 420.31 1090.86
  A 1.55 1.54 -86.8 0 0 418.86 1092.16
  L 418.38 1095.04
  A 2.57 2.45 70.2 0 1 417.90 1096.13
  Q 416.14 1098.41 412.94 1101.04
  C 410.93 1102.69 406.93 1103.37 405.18 1105.88
  Q 404.05 1107.49 401.71 1108.97
  Q 399.56 1110.33 397.30 1112.74
  A 6.93 6.70 6.2 0 1 395.68 1114.00
  Q 390.62 1116.84 385.04 1121.99
  C 382.37 1124.46 380.18 1126.00 376.87 1126.88
  A 4.30 4.29 8.8 0 0 374.35 1128.72
  L 371.96 1132.44
  A 2.85 2.82 -87.0 0 1 370.92 1133.39
  L 365.51 1136.28
  A 3.66 3.60 -56.3 0 1 363.54 1136.69
  Q 358.73 1136.30 353.86 1136.89
  Q 353.19 1136.97 351.03 1136.07
  C 347.43 1134.58 342.60 1134.71 338.83 1135.02
  A 4.15 4.05 25.4 0 0 336.96 1135.66
  L 329.72 1140.39
  A 2.38 2.21 -80.8 0 0 329.40 1140.64
  L 324.30 1145.61
  A 1.00 0.88 -75.1 0 1 324.06 1145.77
  Q 318.51 1148.34 316.25 1152.69
  C 314.54 1155.98 311.10 1157.85 308.02 1158.27
  C 306.31 1158.50 304.07 1158.95 302.44 1159.88
  Q 300.81 1160.80 299.69 1160.92
  Q 299.67 1160.92 299.65 1160.92
  L 286.68 1160.74
  A 2.38 2.34 65.7 0 1 285.15 1160.15
  C 282.82 1158.08 281.63 1157.22 278.41 1155.99
  Q 276.40 1155.23 274.89 1153.57
  A 0.98 0.98 0.0 0 0 273.30 1153.77
  C 272.47 1155.29 271.62 1156.17 269.76 1156.35
  Q 265.68 1156.75 261.46 1159.60
  A 4.29 4.28 -54.1 0 1 257.92 1160.17
  C 256.10 1159.67 253.74 1159.03 251.87 1158.92
  Q 247.71 1158.68 244.74 1157.49
  C 240.57 1155.82 236.24 1156.69 234.37 1151.52
  A 0.81 0.80 -27.6 0 0 233.15 1151.14
  C 231.12 1152.55 227.36 1154.94 224.75 1154.93
  Q 223.43 1154.92 213.58 1154.85
  C 209.18 1154.82 207.17 1153.31 204.38 1150.25
  A 3.36 3.34 73.1 0 0 202.41 1149.19
  Q 197.79 1148.49 195.92 1143.79
  A 1.57 1.56 -1.6 0 0 194.98 1142.91
  C 190.96 1141.53 187.04 1143.92 182.04 1146.21
  A 1.00 0.99 50.1 0 1 181.05 1146.12
  C 178.43 1144.24 175.15 1144.68 172.43 1143.55
  Q 166.73 1141.20 163.09 1138.23
  A 8.57 8.56 -11.4 0 0 161.63 1137.26
  Q 157.41 1135.01 156.90 1133.96
  Q 154.05 1128.06 146.94 1123.87
  Q 143.93 1122.09 142.01 1116.55
  A 1.88 1.76 15.0 0 0 141.60 1115.89
  L 139.75 1114.04
  A 2.87 2.86 -72.3 0 1 138.95 1112.48
  Q 138.08 1107.19 134.00 1102.80
  Q 133.39 1102.16 131.32 1097.76
  A 4.16 3.93 -62.7 0 1 130.96 1096.51
  Q 129.79 1086.86 134.43 1077.97
  Q 135.88 1075.19 138.51 1072.81
  C 143.24 1068.54 145.63 1066.28 152.30 1067.03
  C 155.81 1067.43 158.02 1065.46 161.77 1065.36
  Q 163.07 1065.33 165.40 1066.23
  C 170.07 1068.05 175.57 1067.47 180.73 1069.40
  A 1.53 1.48 88.7 0 1 181.59 1070.25
  C 182.57 1072.72 183.38 1075.10 186.58 1075.25
  Q 190.58 1075.45 194.43 1077.33
  Q 196.62 1078.40 198.43 1076.95
  C 201.60 1074.43 204.65 1070.63 202.45 1066.25
  Q 201.04 1063.45 200.44 1061.06
  A 2.17 2.17 0.0 0 0 199.63 1059.85
  L 195.78 1057.01
  A 3.49 3.39 88.8 0 1 194.97 1056.21
  Q 189.95 1049.38 188.25 1045.73
  Q 186.27 1041.45 183.01 1038.18
  A 1.51 1.50 41.3 0 1 182.88 1036.21
  Q 185.11 1033.25 183.36 1030.37
  A 1.54 1.53 -51.3 0 1 183.22 1029.06
  L 184.53 1025.34
  A 2.52 2.45 -36.1 0 0 184.67 1024.52
  Q 184.74 1019.59 185.42 1018.50
  Q 187.31 1015.46 189.24 1011.95
  A 4.59 4.57 5.4 0 1 191.82 1009.82
  Q 196.02 1008.45 199.38 1004.88
  A 5.00 4.89 -84.3 0 1 200.24 1004.16
  C 201.75 1003.20 207.53 1000.79 209.64 1002.12
  C 213.43 1004.53 216.66 1004.14 221.19 1002.28
  Q 223.36 1001.39 226.52 1001.57
  Q 227.62 1001.63 228.19 1001.12
  A 1.95 1.71 46.9 0 0 228.10 998.46
  Q 227.21 997.54 225.69 996.54
  A 1.28 1.28 0.0 0 1 225.19 995.05
  L 226.78 990.54
  A 1.41 1.10 61.2 0 0 226.85 990.11
  Q 226.85 986.46 226.69 979.51
  Q 226.54 973.57 228.15 970.24
  Q 230.63 965.08 236.13 962.69
  C 238.25 961.77 241.79 956.29 243.21 954.16
  A 4.92 4.85 1.2 0 1 244.80 952.66
  C 246.81 951.48 249.03 950.59 250.09 948.38
  Q 251.02 946.44 252.66 944.70
  A 1.17 1.15 -76.4 0 1 253.19 944.37
  L 256.94 943.17
  A 0.64 0.54 -68.2 0 0 257.11 943.08
  L 266.00 937.14
  A 4.82 4.82 0.0 0 0 267.85 934.75
  L 269.37 930.43
  A 3.86 3.84 -14.2 0 1 270.16 929.11
  Q 275.04 923.66 277.70 921.95
  C 284.46 917.59 288.15 915.28 292.78 910.24
  A 7.28 7.07 -9.5 0 0 293.67 909.03
  Q 296.73 903.81 298.22 902.93
  C 303.23 899.97 309.26 896.36 313.35 891.38
  Q 314.32 890.20 319.91 885.72
  A 4.60 4.35 -75.6 0 1 320.72 885.21
  L 325.81 882.73
  A 3.03 2.96 -78.2 0 0 326.54 882.24
  Q 329.37 879.62 335.52 875.54
  C 339.96 872.60 342.72 868.21 346.81 864.51
  A 3.75 3.70 16.3 0 1 348.33 863.69
  Q 351.10 862.97 351.38 862.87
  Q 352.05 862.63 352.17 862.43
  A 1.21 1.20 17.6 0 0 351.22 860.61
  Q 342.11 859.95 333.30 860.82
  A 2.28 2.27 -60.3 0 0 332.61 861.01
  L 330.25 862.08
  A 1.00 0.99 51.8 0 1 329.22 861.95
  Q 326.97 860.15 323.88 860.37
  C 322.11 860.49 320.99 860.00 319.47 859.14
  A 3.22 3.20 -41.4 0 0 316.66 858.97
  C 313.69 860.19 311.40 861.45 308.91 859.90
  Q 307.38 858.95 305.75 858.87
  Q 298.60 858.52 291.25 858.77
  Q 290.51 858.80 287.77 857.50
  A 5.70 5.69 57.6 0 0 285.35 856.96
  Q 279.84 856.97 277.40 856.86
  C 274.30 856.72 271.70 857.09 269.31 855.13
  A 1.33 1.32 -34.2 0 0 268.03 854.89
  Q 267.51 855.07 266.62 855.91
  C 265.24 857.21 262.08 856.73 258.81 856.55
  C 256.70 856.43 255.08 853.98 252.35 854.89
  Q 250.81 855.39 249.20 855.25
  Q 242.49 854.63 239.34 853.36
  A 1.69 1.67 46.7 0 0 238.19 853.32
  C 236.37 853.90 234.39 853.47 232.32 853.83
  Q 222.88 855.50 213.99 853.82
  A 3.62 3.55 38.3 0 0 211.93 854.04
  C 209.64 854.99 206.76 854.08 204.02 854.30
  Q 196.69 854.91 186.93 854.41
  A 4.96 4.92 -31.2 0 1 185.19 853.99
  Q 183.40 853.20 182.36 852.90
  C 180.74 852.44 178.91 853.83 177.17 853.58
  Q 174.70 853.22 172.63 853.90
  Q 171.44 854.30 170.02 853.55
  Q 166.90 851.90 162.67 853.67
  C 160.25 854.68 156.45 852.82 153.27 851.28
  Q 151.77 850.55 148.21 852.84
  A 1.60 1.57 33.8 0 1 147.03 853.06
  Q 143.89 852.41 139.81 852.69
  C 136.50 852.91 132.14 847.34 129.82 845.01
  C 124.96 840.11 123.40 836.18 125.36 829.65
  C 125.87 827.96 130.53 826.92 128.04 823.81
  Q 125.64 820.81 127.74 817.47
  C 129.78 814.23 130.93 811.43 130.75 806.98
  Q 130.67 805.01 130.82 798.00
  C 130.86 795.81 131.22 794.56 131.75 792.02
  A 1.94 1.88 44.1 0 0 131.72 791.06
  L 130.89 788.15
  A 1.61 1.60 50.3 0 1 130.99 787.03
  L 133.94 780.93
  A 9.66 9.24 66.1 0 0 134.57 779.18
  L 136.63 770.73
  A 2.87 2.52 -41.3 0 0 136.69 770.27
  L 137.09 754.86
  A 3.23 3.18 -37.4 0 1 137.19 754.15
  Q 139.58 744.29 140.90 734.24
  Q 141.18 732.07 140.13 730.50
  Q 137.50 726.61 140.18 721.51
  A 0.62 0.61 -78.4 0 0 139.59 720.61
  C 138.56 720.69 137.30 720.87 136.21 720.13
  C 132.59 717.66 130.23 720.55 127.10 720.76
  Q 123.35 721.02 120.29 719.26
  C 115.23 716.34 115.71 723.00 116.22 725.56
  A 1.41 1.35 -41.4 0 1 116.15 726.37
  L 112.55 735.82
  A 5.35 5.28 58.0 0 0 112.22 737.29
  Q 111.79 742.46 106.81 744.65
  C 103.40 746.16 99.33 743.12 96.14 741.37
  A 6.11 6.09 59.3 0 0 93.21 740.62
  L 85.73 740.62
  A 5.33 5.29 29.0 0 0 82.94 741.41
  C 79.55 743.50 77.16 744.76 73.28 744.69
  A 1.76 1.70 -27.6 0 1 72.40 744.43
  L 67.04 740.98
  A 3.45 3.39 -29.3 0 0 65.06 740.44
  L 55.64 740.81
  A 3.37 3.32 54.6 0 1 54.23 740.56
  L 51.08 739.23
  A 3.24 3.18 57.5 0 0 50.00 738.98
  Q 44.70 738.65 40.70 738.93
  Q 36.46 739.24 34.84 735.67
  Q 33.00 731.63 28.98 721.28
  A 3.63 3.45 -56.6 0 1 28.74 719.94
  L 28.86 707.34
  A 1.08 0.94 -40.9 0 1 28.90 707.06
  L 32.00 698.28
  A 1.68 1.67 38.9 0 0 31.84 696.85
  L 30.62 694.90
  A 1.03 1.03 0.0 0 1 30.54 693.98
  L 33.81 685.62
  A 1.96 1.90 -13.2 0 1 34.17 685.06
  L 38.62 680.26
  A 3.48 3.46 25.1 0 1 41.63 679.18
  Q 46.75 679.88 50.81 678.93
  A 1.77 1.76 -17.1 0 0 52.06 676.57
  L 50.94 673.71
  A 1.63 1.60 -55.7 0 1 50.84 673.15
  L 50.84 664.62
  A 1.80 1.79 -8.8 0 0 48.50 662.91
  Q 40.25 665.53 33.24 659.91
  Q 32.22 659.10 30.83 655.30
  A 4.31 4.25 35.5 0 1 30.58 653.86
  C 30.61 650.02 30.87 647.10 30.64 644.08
  Q 30.30 639.63 30.73 635.26
  Q 30.82 634.35 29.88 631.87
  C 28.64 628.62 28.12 625.95 29.89 622.94
  C 31.38 620.40 29.27 617.36 28.90 614.59
  Q 28.56 612.00 27.43 609.92
  A 4.02 4.01 47.8 0 1 27.63 605.75
  Q 28.33 604.70 28.75 603.75
  A 1.59 1.54 -34.6 0 0 28.87 603.15
  L 28.87 593.05
  A 3.50 3.44 -56.2 0 0 28.63 591.78
  Q 25.21 583.13 28.50 575.58
  A 4.21 4.09 -34.1 0 0 28.84 573.94
  L 28.84 546.12
  A 4.95 4.91 -54.2 0 0 28.60 544.60
  Q 27.57 541.41 28.48 536.88
  A 3.26 3.00 -28.7 0 1 28.76 536.05
  C 30.52 532.55 33.69 530.45 31.98 525.61
  A 2.89 2.88 -26.3 0 1 33.12 522.24
  L 38.72 518.57
  A 1.66 1.47 14.9 0 1 39.02 518.42
  Q 43.37 516.75 48.42 516.89
  A 4.08 4.07 74.7 0 1 51.76 518.80
  L 64.60 539.41
  A 10.67 10.49 7.6 0 0 65.86 541.03
  Q 70.23 545.63 71.68 548.60
  Q 74.43 554.21 76.90 560.08
  A 13.29 12.90 17.6 0 0 78.10 562.31
  Q 82.80 569.39 85.13 577.57
  Q 85.15 577.64 86.53 580.51
  A 1.71 1.70 -6.0 0 0 87.67 581.43
  Q 90.72 582.19 91.39 584.39
  Q 92.89 589.27 94.30 593.65
  A 10.47 10.41 -70.7 0 0 95.45 596.06
  Q 98.87 601.34 101.90 606.89
  Q 102.68 608.32 105.98 610.50
  C 108.74 612.33 109.64 616.74 110.80 620.38
  Q 111.28 621.91 113.21 625.45
  Q 116.87 632.17 117.70 635.56
  Q 118.13 637.33 117.81 643.70
  A 4.69 4.66 -57.1 0 0 118.31 646.08
  L 120.71 650.81
  A 1.21 1.21 0.0 0 0 121.77 651.47
  Q 126.69 651.60 131.40 653.02
  A 2.57 2.42 51.9 0 0 132.13 653.13
  L 145.57 653.13
  A 1.47 1.47 0.0 0 0 147.04 651.58
  C 146.84 647.49 146.64 645.83 146.90 642.15
  Q 147.08 639.63 146.77 635.26
  Q 146.55 632.14 148.53 629.69
  A 2.52 2.43 -47.6 0 0 148.44 626.43
  Q 146.06 623.92 147.34 620.05
  Q 149.13 614.66 149.24 611.64
  C 149.49 604.94 150.02 602.94 151.12 595.95
  A 4.15 4.08 67.5 0 1 151.82 594.22
  Q 154.72 590.09 156.69 588.87
  Q 160.78 586.34 164.04 583.89
  A 1.86 1.85 -51.6 0 1 165.88 583.67
  Q 170.88 585.82 176.54 585.60
  Q 177.17 585.57 180.31 587.23
  A 3.40 3.14 62.5 0 0 181.12 587.52
  Q 182.76 587.87 184.94 586.40
  C 186.76 585.18 189.87 585.64 192.37 586.53
  Q 195.14 587.53 197.98 587.52
  C 200.53 587.51 204.48 588.80 207.02 588.35
  Q 213.32 587.26 214.84 587.58
  Q 220.96 588.88 222.68 589.06
  Q 224.24 589.23 225.83 590.14
  C 227.72 591.23 230.54 591.69 232.41 591.19
  C 234.52 590.62 236.40 588.09 238.58 587.82
  Q 240.85 587.53 244.14 587.56
  A 1.68 1.68 0.0 0 1 245.67 588.58
  Q 246.32 590.08 247.33 590.89
  A 2.23 2.22 62.4 0 0 248.88 591.38
  L 258.39 590.72
  A 3.72 3.10 -38.9 0 1 258.98 590.73
  L 271.47 592.06
  A 13.69 13.56 43.9 0 0 274.80 592.01
  C 278.53 591.49 281.94 590.99 285.31 592.87
  A 3.31 3.25 61.8 0 0 286.52 593.25
  C 290.39 593.65 294.51 593.44 298.47 594.04
  C 305.18 595.07 309.39 595.98 314.96 595.26
  C 316.89 595.02 320.59 593.29 322.52 593.80
  Q 324.14 594.24 326.73 595.36
  A 2.05 2.04 -32.7 0 0 327.57 595.54
  L 335.16 595.54
  A 3.25 2.97 51.4 0 1 336.11 595.69
  C 340.15 597.00 344.22 598.79 347.80 595.71
  A 2.01 2.01 0.0 0 1 349.79 595.35
  C 352.29 596.25 353.65 596.31 356.41 595.72
  Q 360.01 594.95 362.64 596.01
  C 366.59 597.60 370.06 597.42 374.10 598.84
  A 4.10 4.07 -34.0 0 0 375.36 599.08
  L 381.91 599.30
  A 1.16 0.71 24.9 0 0 382.17 599.27
  Q 390.09 597.38 395.73 598.21
  Q 406.61 599.81 408.78 599.71
  C 415.73 599.37 421.65 598.93 426.68 600.71
  Q 433.66 603.19 437.51 603.16
  Q 438.27 603.16 441.34 601.89
  A 1.35 1.27 31.5 0 1 441.87 601.78
  L 445.36 601.78
  A 0.81 0.81 0.0 0 0 446.16 600.81
  L 445.24 596.27
  A 7.80 7.78 23.6 0 0 444.29 593.85
  Q 440.30 587.29 439.65 583.17
  Q 438.63 576.67 436.60 572.22
  Q 435.19 569.14 434.26 565.29
  Q 432.37 557.50 430.26 552.67
  Q 429.10 550.01 427.01 548.58
  A 3.23 3.21 12.8 0 1 425.66 546.45
  Q 425.27 543.92 424.68 539.02
  C 424.14 534.51 421.53 531.32 418.91 527.71
  A 5.57 5.44 21.2 0 1 417.99 525.69
  C 416.88 520.82 415.41 518.13 413.51 513.39
  Q 412.97 512.05 412.87 509.06
  C 412.72 504.45 408.89 501.16 407.58 497.28
  C 406.93 495.37 407.01 492.87 406.62 491.16
  A 5.65 5.64 20.3 0 0 405.73 489.23
  L 403.93 486.70
  A 4.20 4.17 20.7 0 1 403.26 485.23
  L 400.12 472.03
  A 5.19 5.03 24.7 0 0 399.63 470.77
  Q 397.14 466.16 395.30 458.82
  Q 394.61 456.04 392.68 453.72
  Q 389.43 449.78 389.29 448.93
  C 388.61 444.62 387.99 443.70 385.70 440.07
  A 4.14 4.08 27.5 0 1 385.06 438.09
  C 384.82 433.91 384.51 430.91 382.72 426.32
  Q 381.77 423.89 381.04 421.09
  Q 379.61 415.59 377.57 409.86
  Q 377.02 408.32 375.60 406.72
  C 373.92 404.81 373.13 403.26 372.89 400.12
  C 372.58 396.08 370.22 393.29 368.77 389.98
  Q 364.16 379.48 361.10 368.19
  Q 360.63 366.49 359.71 358.00
  A 2.03 2.02 -65.7 0 0 359.38 357.12
  Q 359.09 356.69 358.46 356.36
  C 353.63 353.80 353.30 346.00 351.27 341.28
  C 349.14 336.31 346.36 330.59 345.85 324.77
  A 4.83 4.82 -68.5 0 0 344.63 321.96
  Q 341.74 318.73 340.29 315.00
  C 338.82 311.25 337.90 310.34 339.52 306.82
  Q 340.27 305.19 339.02 303.07
  Q 335.83 297.66 332.59 292.46
  C 330.75 289.49 331.32 285.07 330.13 281.89
  Q 329.05 278.97 328.29 274.09
  A 7.51 7.38 28.1 0 0 327.61 271.91
  Q 325.64 267.82 324.32 264.31
  C 323.69 262.66 322.19 261.16 321.45 259.38
  A 1.28 1.17 -59.1 0 1 321.35 258.89
  L 321.35 255.58
  A 2.37 2.32 29.3 0 0 320.98 254.32
  C 318.85 251.01 315.76 246.71 317.15 242.91
  Q 318.91 238.05 318.84 236.91
  Q 318.29 227.90 324.61 221.78
  A 5.44 5.21 -79.3 0 1 325.90 220.86
  Q 330.19 218.72 332.10 217.39
  C 334.97 215.40 337.34 215.10 340.51 215.34
  C 342.67 215.50 344.29 214.61 346.10 212.86
  C 349.51 209.58 352.79 208.23 358.22 207.30
  Q 360.98 206.82 364.78 205.56
  A 3.38 3.34 12.0 0 0 366.17 204.67
  Q 368.94 201.65 373.70 201.43
  C 378.83 201.18 383.84 196.96 389.49 195.98
  C 392.66 195.42 395.51 194.25 398.14 192.90
  A 1.71 1.71 0.0 0 0 398.96 190.81
  C 398.44 189.35 397.43 188.23 397.10 186.69
  Q 395.83 180.91 391.45 176.26
  A 3.66 3.51 11.3 0 1 390.90 175.47
  L 389.63 172.97
  A 0.81 0.80 -29.1 0 0 388.49 172.65
  L 385.87 174.29
  A 2.07 2.02 -61.9 0 1 384.92 174.59
  L 378.76 174.97
  A 1.85 1.80 -56.1 0 0 378.14 175.10
  L 374.38 176.57
  A 3.88 3.70 -56.4 0 1 373.27 176.82
  C 367.23 177.24 359.95 178.34 356.31 174.00
  Q 355.38 172.90 354.74 168.33
  Q 353.97 162.77 351.11 154.52
  A 8.41 7.74 -72.4 0 0 350.43 153.06
  C 349.07 150.76 347.24 148.04 346.92 144.57
  Q 346.46 139.67 344.61 135.66
  Q 343.57 133.41 342.92 130.55
  C 342.18 127.29 339.72 125.18 338.43 122.07
  Q 337.22 119.17 337.20 117.99
  Q 337.09 111.03 336.87 107.20
  A 2.19 2.15 60.8 0 1 337.25 105.82
  Q 338.38 104.16 340.51 102.47
  Q 347.18 97.15 355.50 93.02
  A 9.76 9.55 -78.3 0 0 357.48 91.69
  Q 361.06 88.53 362.33 88.25
  Q 367.71 87.09 372.66 84.52
  Q 374.43 83.60 380.04 83.76
  A 2.57 2.54 -27.4 0 1 381.36 84.17
  Q 385.07 86.56 387.25 89.89
  C 389.16 92.83 389.06 97.00 390.56 100.22
  Q 392.31 103.99 392.69 107.86
  A 2.20 2.20 0.0 0 0 395.44 109.77
  Q 396.76 109.41 402.39 107.60
  Q 404.09 107.05 406.62 104.36
  A 2.73 2.69 -83.3 0 1 407.23 103.87
  L 416.99 98.08
  A 1.74 1.73 69.0 0 0 417.81 96.22
  C 417.08 92.86 416.91 90.43 413.90 88.41
  A 0.68 0.68 0.0 0 1 413.71 87.48
  L 414.16 86.79
  A 4.28 4.24 -28.9 0 0 414.83 84.50
  L 414.83 77.95
  A 2.09 2.07 -31.9 0 1 415.05 77.02
  Q 419.54 68.25 427.50 65.32
  Q 435.65 62.32 438.82 60.20
  Q 441.33 58.51 445.18 57.02
  Q 449.69 55.26 453.70 51.54
  C 456.18 49.25 459.75 49.89 462.68 48.90
  Q 468.46 46.97 475.72 42.99
  Q 477.11 42.23 478.99 41.76
  Q 487.71 39.58 490.24 39.00
  Q 491.27 38.75 495.35 36.24
  A 9.25 9.02 -68.1 0 1 497.71 35.20
  L 515.39 30.18
  Q 515.44 30.16 515.49 30.14
  L 519.15 28.44
  A 6.83 6.78 32.5 0 1 521.99 27.82
  L 529.93 27.82
  A 1.81 1.65 47.7 0 1 530.25 27.85
  L 540.05 29.93
  A 2.03 1.99 72.8 0 1 541.07 30.48
  Q 544.85 34.25 545.24 35.53
  Q 546.84 40.82 545.01 47.51
  A 6.74 6.72 69.2 0 1 544.14 49.45
  C 539.50 56.64 538.10 59.08 534.31 64.32
  Q 531.08 68.79 529.60 73.00
  A 6.38 6.36 73.7 0 1 528.59 74.85
  Q 522.32 82.94 518.34 87.80
  C 515.90 90.78 514.34 94.02 511.87 96.52
  Q 505.96 102.50 503.23 109.92
  A 6.23 5.99 -16.0 0 1 502.15 111.78
  Q 500.39 113.87 497.97 116.15
  C 495.73 118.26 495.32 119.45 495.98 122.19
  A 2.39 2.39 0.0 0 1 495.54 124.22
  Q 494.00 126.16 490.97 130.42
  Q 490.50 131.08 488.29 132.11
  C 485.81 133.27 483.21 132.20 480.58 133.69
  Q 478.34 134.96 475.42 134.80
  A 2.06 2.01 37.1 0 0 474.70 134.89
  L 468.04 137.02
  A 4.16 3.99 -69.4 0 0 467.04 137.50
  Q 464.42 139.23 461.12 143.11
  C 459.17 145.40 457.22 146.78 454.03 146.69
  Q 451.86 146.62 449.87 147.50
  A 2.13 2.13 0.0 0 0 448.79 150.32
  C 450.47 154.05 450.58 156.60 452.59 160.08
  Q 454.22 162.92 454.03 168.00
  Q 453.97 169.67 454.43 170.59
  A 1.92 1.91 66.5 0 0 456.83 171.54
  Q 462.28 169.50 463.93 166.01
  A 1.49 1.49 0.0 0 1 465.60 165.20
  Q 470.30 166.28 476.65 165.14
  C 480.62 164.42 483.68 161.18 487.66 160.04
  C 492.69 158.59 498.93 155.29 502.77 153.26
  A 5.55 5.48 -65.5 0 1 504.16 152.73
  C 509.01 151.58 511.06 151.25 514.47 149.42
  C 517.92 147.56 520.92 147.71 524.81 146.39
  Q 527.52 145.48 530.67 145.14
  A 2.68 2.57 27.8 0 0 531.54 144.89
  C 533.64 143.84 535.16 141.76 537.43 141.79
  Q 541.52 141.85 544.87 140.13
  C 549.49 137.75 552.98 136.78 557.25 137.90
  Q 561.42 139.00 562.14 141.78
  Q 562.64 143.74 563.67 145.40
  C 566.75 150.32 571.00 156.70 571.85 162.60
  Q 572.35 166.07 572.60 167.06
  A 3.77 3.62 20.6 0 0 573.24 168.40
  Q 577.39 173.95 577.66 178.31
  Q 577.97 183.19 578.59 185.14
  A 6.28 6.14 -69.1 0 0 579.12 186.36
  L 584.90 196.51
  A 5.00 4.98 25.9 0 1 585.47 198.15
  Q 586.47 204.36 589.33 212.20
  C 590.19 214.56 589.54 218.20 590.32 220.60
  C 591.27 223.56 593.61 225.30 594.61 227.64
  A 4.10 4.03 -58.0 0 1 594.92 229.04
  Q 595.06 232.98 595.56 233.76
  Q 597.84 237.37 598.40 241.56
  Q 599.04 246.26 599.43 247.40
  Q 601.25 252.71 601.57 253.15
  Q 602.20 254.00 604.59 257.32
  A 4.17 4.16 -66.7 0 1 605.32 259.16
  Q 605.62 261.29 608.88 270.23
  Q 609.46 271.80 610.59 277.78
  Q 610.78 278.79 612.97 281.36
  C 616.47 285.48 617.70 293.28 618.22 298.54
  A 4.92 4.90 22.3 0 0 619.34 301.20
  Q 621.52 303.80 622.29 306.83
  C 622.85 309.03 625.47 313.08 625.40 314.61
  Q 625.11 321.46 627.13 325.73
  Q 629.26 330.21 629.85 332.65
  C 631.11 337.78 633.20 340.99 634.51 345.74
  C 635.26 348.47 636.73 350.56 638.59 352.35
  A 4.05 4.03 -71.2 0 1 639.82 354.87
  Q 640.26 358.99 640.85 365.88
  Q 641.01 367.81 643.03 371.66
  A 2.52 2.33 -85.5 0 0 643.60 372.38
  L 649.65 377.61
  A 1.94 1.93 -48.7 0 1 649.82 380.36
  L 648.17 382.21
  A 2.16 2.15 -35.4 0 0 647.78 384.49
  Q 651.33 392.90 654.19 403.00
  Q 654.45 403.90 656.91 408.01
  A 7.12 7.05 -66.3 0 1 657.82 410.38
  C 658.17 412.17 658.14 414.42 658.68 416.76
  Q 658.95 417.89 662.80 428.27
  A 8.05 7.94 14.7 0 0 664.29 430.78
  C 665.70 432.39 667.97 433.88 668.33 436.99
  Q 668.77 440.74 668.89 444.40
  A 5.88 5.88 0.0 0 0 669.74 447.22
  Q 674.95 455.78 676.38 466.08
  Q 676.70 468.42 678.93 472.42
  A 3.00 2.74 24.0 0 1 679.10 472.81
  L 684.46 489.57
  A 5.43 5.36 -73.4 0 0 685.37 491.28
  Q 687.89 494.48 689.60 496.98
  A 2.49 2.03 50.2 0 1 689.63 499.78
  C 687.36 502.35 690.84 508.45 692.43 510.39
  Q 693.84 512.12 694.28 512.92
  A 3.75 3.68 -59.4 0 1 694.64 514.38
  L 694.75 518.15
  A 1.60 1.36 -61.0 0 0 694.85 518.64
  C 695.98 521.52 697.11 523.59 697.70 526.59
  Q 698.62 531.30 701.21 535.53
  Q 702.06 536.92 701.99 538.49
  Q 701.80 542.22 703.12 545.40
  C 704.05 547.68 704.17 550.45 703.97 552.21
  A 0.85 0.85 0.0 0 0 705.55 552.72
  C 708.15 548.08 711.49 547.50 716.92 547.37
  Q 719.45 547.31 722.03 546.14
  A 5.03 4.94 -58.4 0 1 723.85 545.69
  C 733.15 545.29 740.29 545.78 748.15 543.39
  Q 750.57 542.66 753.16 543.22
  Q 760.37 544.78 766.47 541.77
  A 2.96 2.95 -35.4 0 1 769.89 542.34
  Q 771.74 544.21 774.39 542.81
  A 1.72 1.70 -47.9 0 1 775.82 542.73
  L 786.71 546.90
  A 2.66 2.66 0.0 0 0 787.35 547.06
  Q 791.63 547.61 794.47 548.48
  C 797.84 549.52 800.32 549.61 803.33 550.14
  C 805.82 550.59 807.57 552.24 810.02 554.35
  A 4.22 4.21 72.8 0 0 811.68 555.23
  Q 813.09 555.61 814.92 555.69
  C 817.67 555.82 818.50 556.52 821.29 557.99
  Q 822.40 558.57 823.80 558.35
  A 1.00 0.99 82.4 0 0 824.63 557.26
  C 824.16 552.94 826.05 549.89 828.56 544.76
  A 2.60 2.51 -31.7 0 0 828.83 543.71
  L 829.11 537.33
  A 2.67 2.51 57.3 0 1 829.23 536.69
  L 830.37 533.01
  A 6.44 6.23 55.3 0 0 830.63 531.43
  L 830.77 525.91
  A 0.58 0.55 57.4 0 1 830.81 525.70
  L 834.37 515.44
  A 10.98 10.74 -33.1 0 0 834.88 513.15
  L 835.39 508.30
  A 3.17 3.15 -21.3 0 1 836.16 506.56
  C 838.88 503.51 838.44 499.48 839.91 496.94
  C 841.31 494.54 841.19 490.58 842.29 487.53
  Q 844.63 481.06 846.96 469.46
  Q 847.41 467.20 849.47 464.97
  C 853.91 460.17 845.53 456.38 849.83 451.57
  Q 852.10 449.04 852.36 448.49
  A 3.62 3.53 60.2 0 0 852.67 447.29
  Q 853.02 442.36 855.16 435.69
  Q 855.82 433.63 857.06 431.85
  C 858.63 429.60 858.78 426.85 859.05 423.93
  Q 859.17 422.60 860.44 420.21
  Q 866.45 408.92 867.09 395.32
  Q 867.45 387.74 872.18 382.50
  A 3.01 3.00 64.7 0 0 872.95 380.34
  C 872.81 377.50 872.96 375.51 873.81 372.69
  Q 874.86 369.18 874.81 366.49
  C 874.76 363.09 875.49 361.12 877.75 358.87
  A 1.78 1.78 0.0 0 0 877.95 356.57
  Q 877.15 355.43 877.00 353.93
  A 0.18 0.17 -42.1 0 1 877.01 353.83
  L 879.86 345.75
  A 1.48 1.37 76.5 0 1 880.13 345.27
  C 882.56 342.45 884.69 336.92 884.84 332.59
  C 884.98 328.25 885.56 326.56 884.97 322.83
  Q 884.69 321.07 885.29 319.06
  A 3.57 3.43 -18.4 0 1 885.88 317.94
  Q 890.19 312.56 891.23 305.48
  A 7.70 6.72 -35.4 0 1 891.51 304.31
  Q 895.05 293.57 897.61 285.51
  Q 898.65 282.24 899.02 280.32
  Q 899.66 276.98 900.10 275.96
  A 4.95 4.88 57.5 0 0 900.49 274.14
  C 900.60 269.85 902.55 265.75 902.69 261.37
  Q 902.81 257.55 903.44 256.16
  Q 906.04 250.48 907.52 243.80
  C 908.04 241.51 910.39 238.31 912.51 236.30
  Q 915.55 233.43 919.69 229.25
  A 5.79 5.62 7.2 0 1 921.05 228.23
  Q 925.11 226.05 927.17 224.43
  C 929.46 222.63 931.80 222.74 934.03 224.40
  Q 935.26 225.32 937.04 225.07
  A 2.27 2.17 21.7 0 0 938.03 224.67
  Q 942.69 221.21 948.89 221.47
  A 6.89 6.82 -51.0 0 0 950.90 221.25
  L 964.27 217.70
  A 7.14 6.87 35.5 0 1 965.76 217.48
  L 974.41 217.10
  A 1.85 1.85 0.0 0 0 976.05 214.58
  Q 973.06 206.87 971.77 204.00
  C 970.56 201.31 969.19 199.76 965.82 198.41
  C 961.93 196.86 956.36 193.56 956.22 188.89
  C 956.13 185.76 956.61 182.68 956.62 179.37
  Q 956.68 165.23 956.61 163.96
  C 956.44 161.03 954.71 159.51 951.75 160.43
  C 949.66 161.07 948.95 161.88 946.80 162.06
  C 944.33 162.28 942.70 164.39 940.31 164.73
  Q 935.61 165.38 932.84 164.01
  C 930.12 162.67 928.09 162.87 925.52 161.90
  A 1.73 1.72 -74.9 0 0 923.21 163.23
  L 922.54 167.26
  A 2.16 2.16 0.0 0 1 922.13 168.20
  Q 918.37 172.97 913.18 176.48
  A 2.68 2.67 24.9 0 1 911.97 176.92
  Q 897.30 178.53 884.79 170.43
  Q 883.56 169.64 878.69 168.60
  C 876.05 168.04 873.24 164.82 871.06 162.34
  A 16.05 16.02 -6.8 0 0 867.63 159.65
  L 857.64 153.84
  A 0.81 0.55 -10.5 0 0 857.46 153.76
  C 851.39 151.57 846.33 149.79 841.84 144.96
  C 839.46 142.39 838.59 139.78 836.58 135.58
  A 1.39 1.37 -48.2 0 1 836.53 134.51
  L 842.56 117.37
  A 5.09 4.98 -37.9 0 0 842.84 115.30
  C 842.32 108.69 847.10 105.42 848.98 99.74
  Q 849.63 97.77 852.72 89.15
  A 3.70 3.68 -16.8 0 1 853.25 88.17
  L 855.40 85.32
  A 4.42 4.36 71.2 0 0 856.14 83.79
  C 857.62 78.06 858.85 72.52 861.83 66.60
  C 863.66 62.95 861.37 59.53 864.96 56.07
  Q 868.11 53.03 870.90 49.63
  A 2.32 2.29 62.3 0 0 871.41 47.95
  L 871.20 45.67
  A 2.69 2.68 -31.1 0 1 871.63 43.94
  L 875.50 37.92
  A 4.03 3.93 -1.7 0 1 876.63 36.75
  L 881.19 33.64
  A 0.72 0.69 88.7 0 0 881.40 33.41
  Q 884.28 28.44 886.02 27.26
  Q 891.67 23.42 894.67 21.21
  Q 898.65 18.29 902.96 20.64
  Q 903.93 21.16 905.30 21.24
  Q 910.87 21.56 918.27 21.71
  A 14.20 13.72 -36.8 0 1 921.20 22.08
  C 925.91 23.18 930.32 23.28 935.64 23.51
  A 7.43 7.37 -28.0 0 1 939.16 24.57
  C 941.93 26.25 946.90 29.18 950.48 31.92
  C 952.99 33.85 956.06 34.75 958.57 36.68
  Q 963.94 40.79 966.90 46.84
  C 967.85 48.79 969.01 50.90 969.62 53.03
  Q 971.44 59.36 971.92 61.73
  Q 972.94 66.71 970.49 70.27
  A 1.49 1.49 0.0 0 0 970.51 71.98
  Q 972.87 75.26 976.47 76.81
  A 1.34 1.32 -9.9 0 1 976.86 77.08
  L 986.32 86.89
  A 0.86 0.86 0.0 0 0 987.68 86.74
  Q 989.78 83.23 994.69 78.20
  C 997.87 74.94 1001.09 74.27 1006.15 72.60
  C 1010.85 71.06 1017.53 71.38 1021.71 72.37
  C 1023.65 72.82 1025.18 72.44 1026.92 72.67
  A 4.15 4.02 -26.1 0 1 1028.31 73.12
  Q 1031.60 74.89 1032.88 75.13
  C 1035.32 75.58 1037.82 75.77 1040.19 77.11
  Q 1042.86 78.62 1047.00 80.18
  A 15.96 15.40 69.8 0 1 1049.63 81.45
  C 1053.99 84.09 1055.96 85.57 1059.99 87.06
  Q 1065.17 88.99 1069.28 90.46
  A 6.04 5.99 -9.8 0 1 1071.92 92.31
  Q 1074.90 95.95 1078.91 98.53
  A 3.82 3.53 -2.3 0 1 1079.72 99.22
  Q 1080.53 100.12 1082.95 103.31
  C 1085.43 106.56 1083.71 111.19 1082.41 115.01
  A 2.91 2.78 52.7 0 0 1082.28 116.19
  L 1082.81 121.90
  A 2.88 2.86 53.7 0 1 1082.61 123.23
  C 1081.72 125.47 1079.12 130.72 1083.45 131.25
  Q 1086.12 131.58 1088.02 132.44
  A 2.11 2.07 88.9 0 1 1089.03 133.43
  Q 1090.72 136.97 1093.82 138.21
  C 1098.36 140.03 1095.92 152.48 1094.75 156.06
  C 1093.21 160.71 1098.96 162.51 1102.24 163.42
  A 2.19 2.18 -14.9 0 1 1103.18 163.96
  L 1109.33 170.11
  A 2.22 2.21 -69.1 0 1 1109.96 171.53
  C 1110.10 174.46 1110.65 181.27 1109.06 184.97
  C 1107.98 187.48 1107.99 188.44 1107.68 190.84
  A 7.31 7.25 61.7 0 1 1107.02 193.07
  C 1105.92 195.35 1104.47 198.52 1102.70 201.12
  Q 1099.02 206.54 1097.59 209.61
  Q 1094.74 215.72 1094.44 216.24
  Q 1092.62 219.43 1091.46 222.94
  Q 1090.13 226.98 1086.10 237.03
  C 1085.64 238.17 1084.93 238.97 1084.54 239.84
  A 1.86 1.85 21.7 0 0 1085.62 242.34
  Q 1087.05 242.85 1091.77 244.19
  C 1094.52 244.98 1098.23 251.04 1101.48 255.42
  Q 1103.88 258.64 1106.56 263.40
  Q 1110.24 269.89 1113.68 274.59
  C 1114.30 275.43 1114.80 278.03 1114.72 279.60
  Q 1114.60 282.06 1115.85 287.67
  Q 1117.05 293.04 1114.40 298.88
  A 5.38 5.35 -33.3 0 0 1113.93 301.12
  Q 1113.96 304.56 1113.19 307.15
  C 1112.26 310.29 1112.42 312.90 1111.05 315.81
  C 1109.83 318.37 1110.15 321.60 1109.10 324.40
  C 1107.80 327.90 1107.97 329.20 1107.86 332.60
  C 1107.73 336.68 1106.47 339.76 1103.34 342.59
  A 1.45 1.44 -35.5 0 0 1103.04 344.36
  C 1105.15 348.17 1103.91 351.44 1101.57 355.62
  Q 1099.69 358.98 1099.86 362.48
  A 3.25 3.23 58.6 0 1 1099.43 364.27
  L 1098.36 366.13
  A 3.77 3.66 60.8 0 0 1097.86 368.00
  L 1097.86 372.54
  A 2.53 2.49 -32.8 0 1 1097.62 373.61
  Q 1096.15 376.83 1095.84 380.57
  A 7.60 7.54 61.3 0 1 1095.04 383.35
  C 1093.16 387.06 1092.27 389.38 1091.82 393.99
  A 6.67 6.67 0.0 0 1 1091.20 396.24
  C 1089.08 400.70 1087.94 402.69 1087.74 407.34
  A 3.03 2.95 60.7 0 1 1087.41 408.58
  C 1086.22 410.97 1084.47 413.08 1084.29 416.00
  Q 1083.92 422.05 1083.95 423.71
  A 1.17 1.05 56.1 0 1 1083.89 424.13
  L 1081.21 432.18
  A 0.85 0.82 -17.3 0 1 1081.05 432.47
  C 1077.86 436.69 1073.06 442.70 1077.64 448.11
  A 1.16 1.16 0.0 0 1 1077.77 449.40
  L 1074.05 456.29
  A 3.82 3.58 -26.8 0 0 1073.66 457.36
  Q 1071.84 466.42 1071.99 473.73
  A 3.98 3.95 56.4 0 1 1071.67 475.34
  Q 1068.57 482.41 1066.84 485.61
  C 1065.64 487.83 1066.40 491.33 1065.43 493.75
  Q 1063.65 498.21 1061.78 500.52
  Q 1059.27 503.61 1060.96 506.65
  A 1.62 1.61 35.4 0 1 1061.14 507.69
  Q 1060.28 513.21 1059.30 514.38
  Q 1055.73 518.69 1055.02 524.64
  A 2.14 2.04 39.0 0 0 1055.15 525.64
  L 1055.81 527.32
  A 0.89 0.87 -46.8 0 1 1055.82 527.91
  Q 1052.34 537.79 1051.91 541.40
  Q 1051.54 544.51 1050.42 545.65
  C 1046.86 549.26 1048.57 554.98 1047.53 558.53
  Q 1045.94 564.00 1045.88 570.27
  A 5.30 5.26 -28.5 0 1 1045.05 573.04
  Q 1042.42 577.16 1042.17 581.02
  C 1041.88 585.59 1039.66 590.68 1039.57 594.99
  Q 1039.55 595.55 1038.36 597.29
  C 1035.96 600.79 1034.93 605.45 1035.29 609.35
  A 1.04 1.03 57.5 0 1 1035.15 610.00
  L 1028.91 620.80
  A 3.95 3.95 0.0 0 0 1028.57 623.97
  L 1029.98 628.37
  A 4.14 4.12 -34.3 0 1 1029.24 632.24
  L 1026.89 635.09
  A 3.76 3.76 0.0 0 0 1026.29 636.17
  C 1025.78 637.67 1025.71 639.24 1025.05 640.85
  Q 1022.89 646.08 1022.18 652.25
  Q 1022.09 653.00 1022.99 655.91
  A 1.86 1.86 0.0 0 1 1023.03 656.84
  L 1021.48 664.18
  A 3.35 3.17 65.3 0 1 1021.29 664.74
  Q 1020.25 666.99 1018.25 673.52
  C 1017.36 676.44 1015.77 679.37 1014.61 682.03
  A 6.88 6.62 -31.2 0 0 1014.08 684.02
  C 1013.83 686.37 1014.00 687.94 1013.03 690.36
  Q 1011.94 693.09 1011.90 695.96
  A 6.59 6.51 -34.8 0 1 1011.48 698.21
  Q 1008.54 706.14 1008.57 707.56
  Q 1008.65 713.02 1006.11 719.31
  Q 1005.83 720.01 1005.80 722.04
  A 2.84 2.69 -38.3 0 1 1005.69 722.81
  L 1003.46 730.81
  A 2.78 2.69 -23.5 0 1 1003.20 731.44
  L 1000.33 736.40
  A 1.91 1.86 62.6 0 0 1000.09 737.20
  Q 999.84 741.27 999.19 743.23
  Q 998.33 745.84 998.21 748.85
  C 998.09 751.55 996.43 753.81 996.23 756.52
  Q 996.03 759.27 995.10 762.45
  C 993.79 766.91 993.94 769.16 993.65 774.14
  A 5.89 5.81 -26.6 0 1 992.64 777.11
  Q 988.62 783.03 986.78 788.25
  A 2.20 2.16 47.2 0 0 986.74 789.57
  L 987.16 791.06
  A 2.65 2.62 47.8 0 1 987.09 792.69
  Q 986.17 795.06 985.02 797.04
  Q 984.23 798.40 983.89 804.16
  A 3.48 3.35 -36.8 0 1 983.77 804.89
  L 979.99 818.46
  A 2.44 2.41 -38.8 0 0 979.91 819.15
  C 979.94 820.55 980.12 823.58 979.57 825.77
  Q 977.93 832.39 975.86 836.38
  C 974.10 839.78 973.46 842.32 974.04 845.57
  C 974.57 848.60 971.39 852.03 970.42 854.63
  A 6.14 6.12 58.2 0 0 970.09 856.05
  C 969.74 859.24 969.68 860.56 968.52 863.39
  Q 967.31 866.31 968.12 869.61
  A 3.37 3.34 -31.2 0 1 967.36 872.66
  L 963.76 876.68
  A 5.85 5.83 73.4 0 0 962.47 879.07
  L 960.18 887.58
  A 6.44 6.40 -38.2 0 0 959.96 889.39
  C 960.04 893.32 960.55 896.85 957.20 898.58
  A 1.99 1.97 69.2 0 0 956.20 900.83
  C 957.41 905.54 955.33 910.48 953.44 914.88
  A 9.70 9.69 59.6 0 0 952.68 917.80
  C 952.27 922.00 952.34 927.60 950.17 931.41
  Q 948.73 933.95 948.71 934.79
  C 948.68 935.71 948.38 938.53 947.85 939.68
  Q 946.48 942.63 946.24 946.75
  C 946.10 949.19 944.55 951.46 944.34 953.42
  Q 943.52 961.35 943.38 962.65
  A 5.80 5.76 -21.8 0 1 942.01 965.81
  L 939.11 969.18
  A 2.67 2.62 71.7 0 0 938.52 970.38
  Q 938.47 970.59 937.84 975.31
  Q 937.24 979.81 934.56 983.80
  Q 933.49 985.41 932.73 987.32
  A 1.92 1.91 -41.7 0 0 932.66 988.48
  Q 933.18 990.50 932.61 992.39
  C 931.66 995.51 932.07 996.79 931.91 1000.08
  C 931.69 1004.74 929.42 1010.08 926.61 1017.34
  Q 926.15 1018.53 924.31 1025.40
  A 5.98 5.87 51.8 0 0 924.10 1027.30
  Q 924.62 1037.38 919.28 1046.02
  C 917.49 1048.92 917.85 1051.49 917.92 1054.60
  A 3.67 3.64 -32.2 0 1 917.51 1056.36
  C 915.26 1060.63 913.50 1063.03 914.34 1067.70
  Q 915.00 1071.39 914.04 1076.54
  C 913.54 1079.23 912.15 1079.74 910.50 1081.48
  Q 906.56 1085.67 904.27 1087.45
  Q 900.89 1090.07 898.27 1093.58
  Q 893.26 1100.31 891.31 1107.41
  A 4.45 4.32 -20.2 0 1 890.62 1108.85
  Q 888.55 1111.69 887.59 1114.75
  Q 887.08 1116.41 885.96 1117.50
  C 882.79 1120.61 881.27 1124.36 878.55 1127.38
  Q 873.75 1132.71 869.05 1136.17
  A 1.67 1.40 -83.7 0 0 868.81 1136.40
  L 866.12 1139.63
  A 1.37 1.25 2.6 0 1 865.76 1139.93
  Q 860.59 1142.93 858.99 1145.50
  Q 854.95 1152.02 852.64 1153.57
  A 1.68 1.66 -56.7 0 1 851.47 1153.82
  L 848.76 1153.37
  A 1.22 1.19 36.4 0 0 848.02 1153.47
  Q 837.98 1158.29 831.74 1163.72
  C 830.52 1164.78 827.53 1164.60 826.09 1165.12
  Q 822.27 1166.51 819.21 1167.97
  C 816.71 1169.17 813.96 1172.62 811.55 1173.33
  Q 807.25 1174.58 801.80 1174.83
  Q 799.78 1174.92 794.67 1177.56
  A 12.68 12.55 -66.7 0 1 792.36 1178.49
  Q 789.13 1179.41 787.25 1180.40
  C 783.44 1182.39 778.54 1182.67 775.01 1182.85
  A 7.04 6.91 -54.1 0 0 773.36 1183.13
  Q 766.49 1185.21 764.40 1186.14
  Q 761.08 1187.63 758.57 1188.32
  C 754.29 1189.50 751.24 1190.99 747.70 1193.37
  A 1.20 1.20 0.0 0 1 746.24 1193.27
  L 744.16 1191.40
  A 1.59 1.48 68.5 0 0 743.39 1191.03
  C 740.61 1190.53 739.57 1191.12 737.62 1192.44
  A 2.71 2.70 -61.4 0 1 736.08 1192.90
  Q 730.04 1192.87 723.88 1192.87
  Q 722.57 1192.87 720.46 1193.83
  A 5.82 5.78 -58.5 0 1 718.41 1194.33
  C 714.66 1194.53 712.71 1194.65 708.98 1197.27
  A 5.34 5.27 18.8 0 1 707.41 1198.03
  Q 698.99 1200.47 691.71 1198.01
  C 688.82 1197.03 687.84 1196.59 685.56 1197.48
  Q 684.15 1198.03 682.93 1197.89
  Q 672.82 1196.71 662.97 1196.65
  C 660.36 1196.63 657.66 1195.02 655.21 1194.70
  Q 651.54 1194.22 648.27 1195.44
  Q 646.86 1195.97 645.55 1195.36
  Q 642.12 1193.77 638.53 1193.89
  A 5.68 5.46 -35.8 0 1 636.63 1193.62
  Q 633.82 1192.70 631.31 1192.86
  C 627.03 1193.12 622.58 1190.30 619.36 1189.24
  Q 615.10 1187.84 612.25 1186.58
  Q 601.15 1181.67 592.54 1177.60
  A 8.69 8.62 78.5 0 1 590.41 1176.18
  Q 584.30 1170.67 577.35 1167.24
  A 13.74 13.59 -10.2 0 1 574.10 1165.01
  Q 570.88 1162.06 567.77 1160.20
  A 13.00 12.80 -6.2 0 1 565.18 1158.15
  C 562.53 1155.42 559.59 1153.69 556.57 1151.34
  A 3.76 3.74 -84.9 0 1 555.58 1150.15
  Q 553.54 1146.24 545.41 1138.54
  Q 544.42 1137.60 542.05 1134.02
  A 13.79 13.54 -84.3 0 0 540.47 1132.05
  C 537.76 1129.23 535.09 1125.85 533.41 1122.28
  Q 532.91 1121.23 533.07 1119.17
  Q 533.29 1116.42 532.01 1113.90
  C 531.07 1112.06 530.76 1109.77 531.69 1108.38
  Q 532.76 1106.78 532.17 1105.08
  Q 530.89 1101.36 530.70 1097.14
  A 5.25 5.01 37.3 0 0 530.55 1096.19
  Q 529.98 1094.08 529.16 1092.28
  C 528.35 1090.47 530.25 1088.63 530.74 1086.83
  A 2.05 2.02 43.1 0 0 530.69 1085.60
  Q 529.45 1082.15 529.06 1077.65
  A 7.54 7.48 34.1 0 0 528.76 1076.12
  Q 527.73 1072.70 525.40 1066.62
  A 3.57 3.16 61.4 0 1 526.29 1062.71
  C 527.17 1062.01 527.05 1060.54 526.38 1059.47
  C 524.51 1056.47 524.72 1053.11 524.58 1048.26
  Q 524.54 1047.07 523.29 1044.05
  A 4.73 4.48 32.1 0 1 522.95 1042.73
  Q 522.74 1040.55 522.89 1036.27
  C 522.98 1033.59 522.49 1032.13 521.12 1029.84
  A 1.87 1.86 -45.4 0 1 521.11 1027.95
  L 522.35 1025.80
  A 3.33 3.32 49.5 0 0 522.57 1022.93
  L 519.21 1014.33
  A 1.97 1.94 44.6 0 1 519.19 1012.95
  L 520.55 1009.07
  A 2.78 2.72 52.8 0 0 520.70 1007.87
  L 520.19 1002.33
  Z
  M 886.55 65.98
  C 884.63 68.95 884.43 70.46 883.84 73.10
  A 5.72 5.56 -24.0 0 1 883.14 74.85
  Q 879.31 81.25 878.21 89.26
  Q 877.85 91.90 877.04 93.44
  Q 875.81 95.76 875.85 98.41
  A 4.75 4.71 60.3 0 1 875.19 100.86
  C 872.24 105.82 868.01 111.23 866.49 117.00
  Q 865.34 121.36 864.23 123.11
  C 862.24 126.23 861.85 128.63 862.23 131.79
  A 1.93 1.91 87.9 0 0 864.05 133.49
  C 866.66 133.59 869.02 133.84 871.49 135.37
  Q 873.69 136.73 876.47 137.98
  A 3.91 3.88 -3.7 0 1 878.20 139.49
  L 879.03 140.83
  A 4.26 4.16 1.2 0 0 880.34 142.16
  L 886.86 146.35
  A 6.74 6.69 -22.0 0 0 888.93 147.22
  Q 895.60 148.78 897.30 149.96
  Q 901.94 153.16 901.96 153.17
  A 3.47 3.46 -41.9 0 0 905.56 153.36
  C 907.06 152.54 908.59 150.44 909.23 148.65
  Q 911.56 142.15 916.10 136.76
  A 3.53 3.50 -26.5 0 0 916.92 134.35
  Q 916.71 129.61 919.13 126.12
  Q 920.22 124.54 920.48 122.71
  Q 921.19 117.58 924.00 113.81
  Q 925.06 112.37 925.13 110.67
  C 925.26 107.22 928.07 105.81 928.70 102.62
  Q 929.54 98.38 932.75 94.36
  C 934.30 92.41 934.54 90.87 935.36 88.13
  A 5.74 5.54 -22.9 0 1 935.85 86.98
  C 938.04 83.00 940.92 79.90 942.40 75.89
  Q 942.71 75.03 943.05 71.06
  C 943.25 68.74 946.96 66.26 949.27 65.07
  A 1.09 1.08 -19.6 0 0 949.84 63.88
  L 948.98 59.68
  A 1.75 1.71 14.3 0 0 948.36 58.66
  L 943.01 54.31
  A 4.50 4.33 -11.1 0 0 942.14 53.75
  Q 938.44 51.93 931.81 48.24
  C 927.76 45.99 924.47 46.53 919.87 46.75
  A 3.31 3.11 -35.0 0 1 918.64 46.57
  L 914.91 45.26
  A 1.41 1.40 -34.0 0 0 914.54 45.19
  L 904.11 44.92
  A 2.13 2.02 -54.4 0 0 903.18 45.10
  Q 899.87 46.54 897.23 49.15
  A 1.88 1.86 74.3 0 0 896.71 50.09
  C 895.59 55.22 892.62 59.56 889.10 64.36
  Q 888.31 65.43 887.31 65.52
  A 1.04 1.03 13.7 0 0 886.55 65.98
  Z
  M 959.66 89.67
  L 955.69 94.10
  A 2.28 2.24 71.9 0 0 955.16 95.17
  L 953.83 101.56
  A 1.77 1.75 -19.3 0 1 953.44 102.36
  L 950.45 105.86
  A 0.54 0.53 -10.9 0 0 950.34 106.02
  C 948.53 109.84 948.41 113.52 946.98 117.07
  Q 946.22 118.97 945.88 122.47
  A 5.73 5.70 -29.1 0 1 945.29 124.52
  L 942.14 130.78
  A 4.00 3.97 -5.7 0 1 941.00 132.16
  L 938.51 134.08
  A 2.09 2.05 78.9 0 0 937.77 135.20
  Q 937.11 137.60 938.50 140.00
  A 0.49 0.49 0.0 0 0 938.97 140.24
  L 950.35 139.18
  A 4.18 4.17 20.7 0 0 952.84 138.06
  L 960.76 130.59
  A 3.10 2.90 -80.6 0 1 961.28 130.19
  L 965.90 127.31
  A 2.63 2.61 84.5 0 0 966.93 126.05
  Q 968.24 122.57 970.67 116.98
  Q 970.94 116.38 970.72 113.94
  C 970.52 111.65 971.14 110.17 972.36 108.54
  A 3.65 3.63 -40.4 0 0 972.68 104.67
  Q 971.31 102.05 970.36 99.38
  A 2.34 2.28 3.9 0 0 969.20 98.08
  L 965.29 96.16
  A 1.96 1.86 -3.1 0 1 964.56 95.54
  L 960.50 89.72
  A 0.54 0.53 48.3 0 0 959.66 89.67
  Z
  M 1057.47 123.74
  Q 1057.47 123.72 1058.02 123.25
  Q 1058.18 123.11 1061.71 121.44
  A 1.27 1.27 0.0 0 0 1062.40 120.00
  C 1061.37 115.69 1060.81 111.80 1055.96 110.54
  Q 1052.49 109.65 1052.40 109.61
  A 2.39 2.30 -8.7 0 1 1051.59 109.04
  L 1048.85 106.11
  A 2.88 2.88 0.0 0 0 1047.73 105.36
  L 1037.26 101.46
  A 3.22 2.81 69.5 0 1 1036.63 101.12
  L 1032.65 98.23
  A 4.12 3.39 69.0 0 0 1032.05 97.89
  L 1021.91 93.43
  A 2.36 2.34 39.3 0 0 1019.64 93.65
  Q 1016.53 95.82 1012.53 93.61
  A 1.01 1.01 0.0 0 0 1011.29 95.16
  L 1013.80 98.02
  A 4.15 4.12 76.1 0 0 1015.92 99.31
  Q 1017.20 99.63 1025.77 102.93
  Q 1029.32 104.30 1031.23 105.50
  C 1035.06 107.92 1039.13 110.08 1043.53 110.08
  Q 1048.84 110.08 1050.55 110.44
  A 1.48 1.48 0.0 0 1 1051.49 111.07
  Q 1054.79 115.96 1054.88 116.97
  Q 1055.28 121.34 1056.23 123.85
  A 0.65 0.65 0.0 0 0 1057.47 123.74
  Z
  M 995.42 113.20
  A 0.95 0.94 -53.8 0 0 994.10 113.41
  C 991.67 116.78 990.13 120.20 989.81 124.36
  Q 989.64 126.45 989.06 127.93
  A 2.04 2.04 0.0 0 0 989.53 130.14
  Q 996.84 137.25 1004.15 144.08
  Q 1007.39 147.10 1008.68 150.00
  A 2.04 2.03 -20.4 0 0 1011.14 151.12
  Q 1016.71 149.43 1018.20 146.41
  Q 1019.07 144.64 1020.18 144.01
  C 1022.22 142.84 1024.62 141.87 1024.83 139.82
  A 1.90 1.90 0.0 0 0 1024.61 138.69
  Q 1022.27 134.33 1022.95 128.85
  A 1.33 1.33 0.0 0 0 1021.79 127.37
  C 1018.64 126.99 1016.04 127.48 1013.79 124.99
  C 1011.09 122.00 1009.29 120.20 1004.89 118.57
  Q 1000.45 116.92 995.42 113.20
  Z
  M 1067.39 228.92
  A 0.92 0.91 -60.9 0 0 1068.88 228.49
  Q 1072.09 217.44 1072.12 217.32
  Q 1073.51 211.57 1076.16 206.48
  Q 1080.83 197.53 1083.98 193.46
  Q 1086.07 190.76 1087.04 188.25
  C 1088.31 184.99 1091.32 179.30 1086.45 178.73
  A 1.00 1.00 0.0 0 0 1085.51 179.16
  Q 1079.93 187.15 1077.41 195.96
  A 5.69 5.67 -11.7 0 1 1075.53 198.81
  Q 1071.73 201.89 1069.25 206.42
  C 1068.20 208.34 1066.14 210.63 1064.44 210.68
  Q 1054.81 210.95 1052.34 201.59
  Q 1051.77 199.42 1052.60 197.79
  Q 1055.36 192.40 1057.87 188.90
  A 8.72 8.55 -19.8 0 0 1059.17 186.20
  Q 1060.77 180.56 1065.45 175.79
  C 1067.12 174.08 1068.74 169.23 1070.32 166.21
  Q 1074.92 157.40 1076.09 154.34
  Q 1077.22 151.35 1074.42 148.82
  A 0.65 0.64 -43.9 0 0 1073.56 148.81
  Q 1068.89 152.91 1067.04 155.76
  C 1064.11 160.30 1062.22 165.05 1059.02 169.42
  Q 1057.80 171.08 1055.86 175.63
  Q 1052.84 182.75 1044.90 186.14
  Q 1042.46 187.18 1039.03 186.76
  C 1034.64 186.22 1031.75 180.26 1030.52 176.42
  A 2.04 2.04 0.0 0 1 1030.76 174.69
  C 1032.43 172.13 1035.27 170.39 1036.79 168.24
  Q 1038.88 165.27 1039.12 164.59
  C 1039.52 163.40 1041.91 160.92 1042.72 159.26
  Q 1047.67 149.10 1053.59 140.37
  Q 1055.29 137.87 1057.13 131.56
  C 1057.34 130.84 1056.97 130.28 1056.43 129.65
  A 0.33 0.33 0.0 0 0 1055.88 129.74
  Q 1055.68 130.23 1055.36 130.16
  Q 1055.14 130.12 1055.14 130.10
  Q 1055.15 130.06 1055.16 129.90
  A 0.25 0.24 -6.5 0 0 1054.84 129.65
  Q 1054.58 129.74 1054.54 130.02
  C 1054.12 133.13 1049.81 135.73 1048.49 139.24
  Q 1047.95 140.66 1047.32 141.97
  A 14.14 13.80 79.0 0 1 1045.33 145.00
  Q 1037.90 153.65 1035.47 157.94
  Q 1033.20 161.98 1033.05 162.17
  A 3.45 3.43 5.4 0 1 1031.93 163.09
  L 1018.25 170.03
  A 9.03 9.02 -58.4 0 1 1014.18 171.00
  L 1003.80 171.00
  A 4.49 4.49 0.0 0 1 1001.13 170.12
  Q 997.58 167.48 993.63 164.92
  Q 992.74 164.35 990.73 161.14
  C 988.51 157.59 987.08 156.24 983.88 153.13
  A 0.61 0.61 0.0 0 0 982.89 153.35
  C 981.36 157.28 975.84 161.18 975.97 165.53
  Q 976.13 171.39 975.92 174.45
  A 3.95 3.92 -57.8 0 0 976.41 176.64
  Q 978.66 180.66 980.61 181.96
  Q 983.82 184.11 984.50 185.06
  Q 989.87 192.70 993.90 195.82
  C 997.48 198.59 996.13 203.78 996.01 207.20
  A 2.94 2.92 62.5 0 1 995.53 208.74
  L 993.29 212.24
  A 0.95 0.95 0.0 0 0 994.22 213.69
  Q 996.45 213.37 997.84 213.59
  C 1000.06 213.96 1000.56 215.70 1003.49 214.58
  Q 1006.80 213.31 1011.60 213.48
  Q 1015.10 213.60 1015.37 213.64
  C 1017.21 213.88 1019.71 215.63 1021.70 215.35
  C 1030.37 214.12 1036.36 217.40 1046.19 221.19
  A 6.04 5.98 -33.0 0 0 1048.12 221.59
  L 1052.36 221.78
  A 2.79 2.76 -30.3 0 1 1053.53 222.08
  L 1056.58 223.60
  A 2.27 2.19 -30.4 0 0 1057.61 223.85
  L 1060.73 223.85
  A 2.60 2.59 -23.9 0 1 1062.47 224.52
  L 1067.39 228.92
  Z
  M 408.26 163.75
  A 0.88 0.87 -28.6 0 0 407.91 164.93
  Q 412.67 173.86 412.99 174.49
  Q 415.86 180.07 416.48 185.22
  A 1.54 1.54 0.0 0 0 418.59 186.46
  L 427.61 182.76
  A 5.20 5.20 0.0 0 0 428.73 182.12
  L 432.05 179.64
  A 1.93 1.91 26.4 0 1 433.20 179.26
  L 435.17 179.26
  A 1.78 1.78 0.0 0 0 436.77 176.70
  L 435.10 173.30
  A 2.87 2.71 27.4 0 1 434.89 172.70
  L 432.35 160.76
  A 6.57 5.05 67.8 0 0 432.10 159.87
  L 430.63 155.82
  A 1.55 1.54 -19.0 0 0 428.69 154.88
  Q 418.20 158.33 408.26 163.75
  Z
  M 702.74 612.71
  L 697.26 601.91
  A 2.18 2.14 -62.9 0 1 697.04 601.21
  L 695.72 591.64
  A 8.76 8.75 -68.7 0 0 693.79 587.25
  C 691.25 584.20 687.51 580.17 690.08 576.26
  A 1.91 1.89 -39.9 0 0 690.25 574.48
  Q 688.46 570.17 686.53 567.25
  C 684.59 564.31 684.76 560.87 682.81 558.04
  Q 681.69 556.42 681.56 554.37
  Q 681.31 550.38 679.66 546.72
  C 678.54 544.23 678.75 541.27 677.51 538.74
  C 675.39 534.39 675.19 532.64 673.52 528.42
  Q 672.77 526.55 672.20 523.30
  Q 671.16 517.34 668.05 511.71
  A 10.52 10.22 24.7 0 1 667.07 509.17
  Q 666.16 505.30 663.44 500.34
  A 4.16 3.99 23.8 0 1 663.07 499.44
  L 659.06 485.59
  A 3.62 3.20 -58.1 0 1 658.92 484.76
  Q 658.71 481.16 657.97 479.54
  Q 654.74 472.56 653.57 470.05
  C 652.77 468.31 652.82 467.22 652.78 465.12
  A 7.62 7.58 29.2 0 0 651.69 461.31
  C 650.80 459.83 649.57 458.47 648.64 456.18
  Q 646.23 450.30 645.46 446.73
  Q 644.29 441.35 642.53 437.23
  Q 638.47 427.67 635.85 423.30
  A 1.52 1.33 22.9 0 1 635.72 423.03
  L 631.11 410.39
  A 3.20 3.15 34.0 0 1 630.91 409.40
  Q 630.63 404.05 630.30 403.01
  Q 628.42 397.05 623.55 389.72
  C 622.35 387.91 622.92 383.75 622.33 381.14
  Q 620.33 372.28 618.52 367.25
  Q 617.76 365.13 615.94 363.51
  A 2.37 2.34 11.6 0 1 615.28 362.52
  Q 614.21 359.44 614.34 358.52
  Q 614.78 355.44 614.20 354.06
  C 613.05 351.32 609.80 345.43 608.70 340.45
  Q 608.03 337.45 606.32 334.67
  A 5.45 5.42 -57.8 0 1 605.55 331.24
  L 605.72 329.66
  A 2.18 2.15 -53.7 0 0 605.57 328.64
  L 599.34 313.77
  A 3.31 3.14 32.9 0 1 599.10 312.78
  Q 598.73 308.55 596.99 305.81
  Q 595.36 303.25 594.93 301.51
  Q 593.96 297.58 591.58 293.84
  A 4.32 4.26 -67.5 0 1 591.00 292.41
  L 588.22 278.81
  A 7.55 6.93 -63.1 0 0 587.92 277.74
  L 583.66 266.22
  A 1.66 1.47 -75.1 0 0 583.51 265.92
  Q 579.54 259.65 579.16 257.57
  C 578.15 252.05 577.19 247.20 573.98 242.72
  A 6.71 6.51 -72.1 0 1 573.02 240.77
  C 571.31 235.16 569.90 232.16 568.72 226.88
  Q 567.88 223.12 565.64 219.35
  A 5.16 5.14 -63.8 0 1 564.97 217.37
  Q 564.33 212.01 564.79 207.47
  Q 565.06 204.79 563.08 202.62
  C 559.46 198.67 558.07 196.14 556.85 190.53
  Q 554.75 180.91 553.83 178.42
  Q 553.32 177.06 551.35 173.21
  A 3.64 3.57 29.2 0 1 550.99 171.99
  L 550.40 166.80
  A 1.33 1.29 -64.0 0 0 550.23 166.28
  Q 549.53 165.06 547.80 164.78
  A 1.55 1.55 0.0 0 0 546.85 164.93
  C 543.78 166.52 541.26 166.50 536.49 166.93
  A 5.23 5.15 -58.0 0 0 535.15 167.25
  L 519.17 173.49
  A 3.20 3.18 -59.2 0 1 518.47 173.67
  Q 506.28 175.35 494.70 182.31
  A 6.13 6.06 -82.2 0 0 493.63 183.13
  Q 491.57 185.13 490.61 185.34
  Q 483.42 186.89 478.15 188.86
  Q 474.73 190.14 472.86 190.47
  Q 468.71 191.20 467.49 191.84
  Q 466.86 192.17 460.44 193.35
  C 456.23 194.12 451.93 196.26 448.58 198.86
  A 8.92 8.91 17.6 0 1 445.68 200.36
  C 442.25 201.40 438.43 203.82 434.55 204.58
  C 431.23 205.22 430.06 206.26 427.34 208.16
  A 3.29 3.23 26.8 0 1 425.51 208.74
  Q 421.78 208.79 420.18 209.40
  C 413.62 211.87 409.56 214.02 404.17 214.87
  Q 401.13 215.35 398.32 217.38
  A 5.21 5.10 -70.5 0 1 396.73 218.16
  Q 390.78 219.94 385.28 221.53
  Q 382.84 222.24 375.61 225.81
  A 7.72 7.28 -63.1 0 1 374.08 226.36
  Q 366.94 228.06 361.65 230.79
  C 357.88 232.73 354.04 232.65 350.49 235.18
  C 348.82 236.37 346.56 236.75 344.73 237.32
  A 1.06 1.05 85.0 0 0 343.99 238.21
  Q 343.41 243.33 344.56 247.56
  A 4.71 4.66 -71.9 0 0 345.41 249.26
  Q 348.64 253.34 350.30 258.78
  C 351.17 261.62 353.78 265.26 353.84 268.02
  Q 353.99 274.96 354.87 277.45
  C 355.69 279.77 357.45 281.88 358.03 284.41
  C 358.41 286.11 359.06 287.69 360.31 289.33
  C 363.28 293.22 363.58 295.96 364.67 299.54
  A 4.09 4.03 -71.1 0 0 365.19 300.62
  C 367.94 304.64 368.22 307.48 369.43 313.35
  C 370.20 317.03 371.54 319.99 371.89 323.06
  C 372.60 329.35 375.28 334.72 379.26 339.24
  C 383.34 343.88 383.15 347.37 383.61 354.14
  A 4.48 4.45 30.3 0 0 384.04 355.76
  Q 385.04 357.82 385.28 358.65
  Q 387.61 366.79 388.66 371.23
  A 6.81 6.79 23.5 0 0 389.40 373.10
  C 391.98 377.55 394.48 383.14 395.32 388.87
  Q 395.99 393.50 398.62 396.54
  Q 399.76 397.86 399.86 400.13
  C 400.15 406.71 402.91 411.93 406.56 417.38
  Q 407.71 419.09 407.74 420.71
  C 407.83 425.58 409.80 428.83 412.52 432.68
  A 4.92 4.86 -72.7 0 1 413.11 433.82
  L 414.79 438.43
  A 1.59 1.51 -75.5 0 0 415.05 438.90
  Q 417.82 442.45 419.26 447.80
  C 420.12 451.00 419.42 455.72 420.84 458.66
  Q 425.79 468.91 426.09 469.38
  C 427.82 472.08 428.30 475.73 429.39 478.55
  A 5.49 5.34 32.9 0 1 429.76 480.16
  Q 430.17 485.69 432.67 492.03
  C 433.83 494.96 434.71 495.80 436.76 498.63
  A 6.33 6.32 28.8 0 1 437.96 502.74
  Q 437.67 507.42 438.77 510.53
  C 440.17 514.49 442.73 520.18 446.06 524.63
  Q 447.42 526.46 447.58 528.77
  Q 447.99 534.76 450.59 539.39
  A 7.80 7.67 25.1 0 1 451.41 541.59
  L 452.50 546.92
  A 6.34 6.30 24.7 0 0 453.20 548.79
  C 454.24 550.77 456.53 553.87 457.48 556.53
  Q 459.71 562.72 460.21 569.75
  A 9.50 9.35 33.0 0 0 460.80 572.41
  Q 461.89 575.24 462.19 578.22
  Q 462.44 580.71 463.61 582.65
  C 466.61 587.62 470.58 595.98 470.17 602.06
  A 1.01 1.01 0.0 0 0 470.96 603.12
  Q 475.42 604.13 479.07 601.74
  A 1.45 1.43 -55.9 0 1 480.13 601.53
  Q 481.90 601.88 482.67 602.93
  Q 484.59 605.52 487.75 605.45
  Q 500.81 605.15 512.44 605.89
  C 515.69 606.10 517.32 605.62 520.46 604.49
  A 4.87 4.83 -42.2 0 1 524.14 604.66
  C 527.97 606.47 530.21 607.32 534.47 607.38
  Q 556.28 607.70 560.31 607.85
  A 9.06 8.85 52.0 0 1 562.09 608.09
  C 566.72 609.20 573.78 610.32 577.98 608.50
  A 2.28 2.27 40.6 0 1 579.46 608.39
  Q 583.74 609.53 590.32 609.12
  A 4.12 3.71 32.8 0 0 591.25 608.97
  C 594.38 608.11 595.43 608.97 597.77 610.06
  A 4.18 4.16 56.5 0 0 599.66 610.45
  Q 602.58 610.37 605.44 611.33
  A 2.22 1.81 50.8 0 0 605.88 611.42
  L 615.00 612.13
  A 3.07 2.97 -46.0 0 0 615.60 612.11
  Q 621.59 611.31 629.54 611.55
  C 632.33 611.63 633.77 611.01 636.21 609.79
  A 1.65 1.65 0.0 0 1 637.84 609.88
  L 645.02 614.49
  A 2.99 2.99 0.0 0 0 648.04 614.62
  C 651.39 612.85 654.37 610.64 657.12 612.40
  C 660.04 614.27 662.17 615.11 665.83 615.21
  Q 678.18 615.56 689.65 615.36
  Q 691.12 615.34 692.91 614.64
  Q 696.42 613.28 700.62 615.01
  A 1.67 1.67 0.0 0 0 702.74 612.71
  Z
  M 910.24 986.63
  L 913.44 975.87
  A 4.41 4.34 69.3 0 1 913.89 974.85
  C 916.87 969.84 917.19 968.08 916.86 962.51
  Q 916.76 960.88 919.26 956.50
  A 1.75 1.62 66.7 0 0 919.45 955.96
  L 920.39 950.61
  A 4.48 3.90 64.2 0 1 920.60 949.84
  Q 924.31 939.82 926.08 933.81
  Q 926.80 931.34 926.91 927.75
  A 4.34 4.14 -35.5 0 1 927.16 926.44
  L 928.52 922.56
  A 2.31 2.21 -42.1 0 0 928.61 921.33
  L 927.97 918.18
  A 1.21 1.12 -49.9 0 1 927.95 917.75
  C 928.66 912.91 930.72 908.47 932.12 904.24
  A 11.54 11.08 -35.1 0 0 932.69 901.32
  L 932.89 898.31
  A 2.65 2.49 -36.0 0 1 933.01 897.68
  Q 936.02 888.80 936.35 887.87
  C 936.94 886.23 936.72 884.03 937.35 882.39
  Q 938.48 879.41 939.02 875.71
  C 939.36 873.42 940.19 872.95 941.90 871.01
  A 1.58 1.57 65.5 0 0 942.31 869.90
  C 942.27 867.97 941.23 866.20 942.54 864.48
  Q 944.72 861.60 946.03 858.69
  C 946.93 856.69 946.49 855.88 945.30 853.97
  C 943.28 850.72 945.25 847.26 947.73 844.99
  A 2.46 2.41 83.7 0 0 948.24 844.34
  Q 951.37 838.44 951.75 833.00
  A 6.05 5.97 57.7 0 1 952.13 831.26
  Q 953.32 828.08 955.88 823.12
  Q 956.77 821.39 956.79 816.85
  A 7.57 7.47 -34.3 0 1 957.34 814.03
  Q 958.97 810.05 958.89 805.49
  A 6.66 6.59 53.3 0 1 959.18 803.42
  L 960.75 798.46
  A 2.36 1.99 -40.1 0 0 960.85 797.88
  Q 961.04 790.04 961.26 788.28
  Q 961.46 786.69 963.62 783.43
  A 3.20 3.16 -20.2 0 0 963.99 782.64
  L 967.62 771.16
  A 1.92 1.79 78.3 0 1 968.07 770.42
  L 969.53 768.96
  A 1.55 1.54 -45.1 0 0 969.53 766.77
  L 967.48 764.72
  A 1.47 1.45 -62.5 0 1 967.08 763.42
  C 967.81 759.42 970.39 756.88 973.44 753.35
  A 6.05 6.05 0.0 0 0 974.90 749.41
  L 974.90 745.30
  A 3.94 3.85 53.1 0 1 975.03 744.30
  Q 976.01 740.41 977.39 733.66
  Q 978.15 729.93 981.58 723.09
  A 8.42 8.15 -26.8 0 0 982.31 720.98
  Q 983.17 716.70 982.47 711.44
  A 4.71 4.66 -33.0 0 1 983.14 708.35
  Q 988.47 699.90 988.72 690.99
  A 10.07 9.79 55.2 0 1 989.16 688.34
  C 990.32 684.67 990.83 681.39 992.32 678.32
  C 993.45 676.01 992.52 673.74 993.22 671.55
  C 994.36 667.97 997.06 664.85 998.25 661.94
  A 7.81 7.71 57.3 0 0 998.82 659.23
  Q 999.16 646.20 999.51 644.71
  Q 1001.23 637.32 1004.84 629.00
  Q 1005.35 627.82 1003.92 625.42
  A 0.96 0.96 0.0 0 1 1003.87 624.51
  C 1005.39 621.13 1007.07 618.77 1006.85 614.82
  C 1006.69 612.09 1009.30 610.02 1010.68 608.16
  A 2.40 2.39 71.4 0 0 1011.06 607.39
  Q 1013.08 600.46 1012.82 596.49
  A 2.27 2.17 -39.4 0 1 1012.91 595.74
  L 1014.58 590.30
  A 1.14 0.98 -40.6 0 0 1014.63 589.98
  Q 1014.73 585.00 1015.09 583.61
  C 1015.79 580.91 1017.86 577.25 1018.74 574.02
  Q 1020.30 568.27 1022.21 563.88
  A 6.86 6.80 59.6 0 0 1022.75 561.77
  Q 1023.17 557.06 1025.57 553.16
  Q 1026.58 551.51 1026.23 549.63
  Q 1025.66 546.56 1026.47 543.49
  Q 1028.77 534.85 1029.31 532.77
  A 12.13 11.64 -86.2 0 1 1029.86 531.15
  L 1032.25 525.50
  A 3.37 3.24 57.9 0 0 1032.51 524.26
  C 1032.57 520.09 1032.22 513.43 1035.91 510.60
  A 0.60 0.58 78.9 0 0 1036.11 510.29
  L 1038.71 499.29
  A 1.38 1.28 51.1 0 0 1038.74 498.86
  Q 1038.38 493.34 1041.27 487.82
  Q 1042.68 485.12 1042.78 482.35
  C 1042.98 476.86 1046.57 472.07 1046.13 466.41
  A 2.40 2.39 -32.2 0 1 1046.45 465.01
  C 1047.70 462.81 1049.78 461.75 1050.73 458.80
  C 1051.28 457.09 1050.68 454.31 1050.83 452.51
  A 4.81 4.65 -32.2 0 1 1051.19 451.04
  Q 1053.43 445.74 1053.12 440.63
  A 3.04 2.77 52.7 0 1 1053.19 439.83
  L 1055.02 431.84
  A 10.19 9.91 -25.8 0 1 1055.88 429.48
  C 1056.71 428.09 1057.66 426.09 1058.12 424.22
  Q 1059.35 419.30 1062.28 414.03
  Q 1063.01 412.72 1062.87 409.19
  A 2.86 2.62 53.7 0 1 1062.95 408.45
  L 1067.38 390.22
  A 2.09 0.27 -76.1 0 1 1067.46 389.97
  L 1068.71 386.79
  A 2.31 2.25 55.5 0 0 1068.87 385.85
  Q 1068.67 381.64 1071.07 378.06
  C 1072.67 375.66 1072.70 373.81 1072.76 371.41
  A 2.58 2.53 53.9 0 1 1072.84 370.86
  L 1076.36 358.46
  A 6.52 5.15 -31.2 0 1 1076.70 357.55
  C 1078.48 353.77 1078.66 349.74 1080.09 346.57
  A 6.26 6.23 -30.1 0 0 1080.63 344.56
  Q 1081.00 340.96 1082.45 333.22
  C 1082.98 330.43 1082.49 327.09 1083.36 324.36
  Q 1083.83 322.87 1086.10 318.59
  A 8.01 7.97 -25.2 0 0 1086.84 316.55
  Q 1087.75 312.33 1089.41 309.12
  Q 1090.48 307.06 1090.62 304.81
  Q 1090.89 300.19 1091.28 295.83
  C 1091.52 293.07 1092.10 292.12 1092.95 289.45
  C 1093.94 286.39 1089.19 280.62 1087.15 279.21
  A 1.28 1.20 -88.1 0 1 1086.73 278.73
  L 1080.56 266.56
  A 2.80 2.78 -0.2 0 0 1079.31 265.33
  C 1075.92 263.66 1070.90 261.20 1067.66 258.47
  C 1064.82 256.07 1060.53 253.80 1057.70 250.07
  A 2.20 2.20 0.0 0 0 1056.64 249.30
  C 1053.58 248.22 1052.33 247.64 1050.21 244.32
  A 3.02 3.00 88.9 0 0 1049.23 243.37
  C 1046.95 242.03 1043.14 241.80 1037.82 240.95
  C 1034.18 240.36 1031.49 239.08 1027.82 238.60
  C 1025.45 238.29 1023.71 236.07 1020.82 238.03
  A 3.74 3.36 -46.1 0 1 1017.12 238.30
  Q 1013.79 236.46 1010.71 234.95
  A 1.44 1.43 -46.9 0 0 1009.37 235.00
  L 1006.82 236.46
  A 0.74 0.72 29.1 0 1 1006.45 236.56
  Q 997.35 236.67 993.01 236.42
  Q 992.03 236.37 989.38 237.75
  A 5.82 5.81 27.2 0 1 987.54 238.34
  Q 984.47 238.77 980.84 238.67
  C 979.85 238.65 978.65 237.86 977.63 237.74
  A 1.95 1.93 34.9 0 0 976.53 237.93
  Q 974.77 238.79 974.00 238.79
  Q 966.66 238.86 964.60 239.04
  C 961.48 239.32 959.79 241.98 956.55 241.22
  C 952.87 240.36 949.10 240.50 945.87 242.08
  A 1.02 0.81 17.9 0 1 945.63 242.17
  L 942.31 242.84
  A 2.96 2.80 21.9 0 0 941.47 243.17
  C 938.12 245.19 935.02 244.27 931.82 246.92
  C 929.52 248.83 928.18 249.67 927.97 252.26
  Q 927.69 255.70 928.42 260.23
  A 2.34 2.32 54.8 0 1 928.17 261.72
  Q 927.99 262.04 925.06 265.30
  Q 923.41 267.13 922.20 270.47
  C 921.01 273.75 924.29 274.85 923.49 277.86
  Q 922.05 283.22 919.00 287.17
  A 4.40 4.36 -18.2 0 0 918.28 288.58
  Q 914.77 300.48 914.69 300.82
  Q 913.90 304.52 912.48 308.13
  Q 912.09 309.13 910.29 315.47
  C 909.73 317.43 910.17 318.92 910.09 320.79
  C 910.00 323.07 906.22 326.03 906.07 328.41
  Q 905.77 332.94 905.70 334.01
  A 7.14 7.04 -33.6 0 1 905.27 336.07
  Q 903.72 340.24 904.01 343.87
  A 4.18 4.11 -36.2 0 1 903.69 345.82
  C 901.75 350.43 901.73 354.64 901.94 360.79
  C 902.02 363.11 901.59 364.68 900.18 366.19
  Q 897.49 369.08 897.30 369.40
  A 7.93 7.88 63.0 0 0 896.36 372.33
  L 895.81 377.03
  A 4.93 4.88 -28.5 0 1 895.30 378.72
  Q 894.33 380.63 893.75 383.04
  C 893.00 386.12 890.22 389.33 890.08 392.08
  Q 889.94 394.68 890.19 398.07
  A 2.59 2.58 -28.3 0 1 889.66 399.83
  L 886.33 404.17
  A 2.11 2.04 -27.2 0 0 885.89 405.47
  C 885.92 409.57 886.29 414.85 885.03 419.12
  C 884.03 422.51 883.29 425.68 880.81 427.59
  A 2.75 2.74 63.2 0 0 879.85 430.53
  Q 882.55 439.78 875.05 444.44
  A 1.44 1.44 0.0 0 0 874.67 446.56
  Q 875.56 447.69 875.71 448.79
  A 1.96 1.94 52.5 0 1 875.58 449.83
  Q 872.36 457.62 872.15 460.38
  Q 871.95 463.05 872.20 468.10
  A 2.94 2.92 -30.1 0 1 871.73 469.85
  L 866.33 478.26
  A 1.41 1.36 -29.3 0 0 866.10 479.02
  L 866.10 483.58
  A 4.33 4.22 -34.9 0 1 865.80 485.15
  Q 863.97 489.65 863.83 493.97
  A 5.38 5.29 -31.0 0 1 863.25 496.21
  Q 862.08 498.49 861.75 500.53
  C 861.26 503.45 858.96 505.47 859.09 508.80
  Q 859.18 511.17 858.59 513.11
  Q 857.91 515.36 858.47 519.38
  A 3.38 3.36 61.5 0 1 857.70 522.01
  C 854.03 526.31 850.62 532.87 851.68 538.54
  C 852.30 541.90 850.14 543.72 849.85 546.74
  Q 849.48 550.54 847.74 554.26
  C 845.63 558.75 845.73 562.79 846.03 567.05
  A 5.39 5.34 -33.6 0 1 845.44 569.91
  Q 843.73 573.22 842.16 576.66
  Q 840.69 579.87 842.98 582.58
  A 1.55 1.54 -45.2 0 1 842.98 584.59
  Q 838.86 589.39 836.02 595.02
  Q 835.41 596.23 836.04 599.54
  A 2.67 2.62 -39.5 0 1 835.88 601.06
  C 835.11 602.89 833.17 604.78 832.61 606.54
  C 831.69 609.45 829.82 612.92 829.89 616.87
  Q 830.00 622.60 828.34 627.16
  A 5.12 5.06 -34.9 0 0 828.03 628.85
  L 827.97 636.99
  A 1.90 1.82 53.4 0 1 827.91 637.46
  C 826.76 642.03 824.76 648.12 820.00 648.77
  Q 812.63 649.79 806.11 645.13
  Q 801.60 641.91 803.15 636.05
  Q 804.37 631.47 804.90 628.79
  C 805.47 625.96 806.28 623.00 807.16 620.92
  C 808.75 617.18 808.79 613.67 808.90 609.27
  Q 808.95 607.21 809.57 605.88
  Q 810.67 603.51 810.99 600.10
  C 811.20 597.87 813.21 596.27 814.08 594.43
  Q 814.60 593.32 814.83 591.14
  Q 815.26 587.06 816.26 584.57
  A 1.96 1.96 0.0 0 0 814.99 581.96
  L 810.64 580.67
  A 1.81 1.60 -14.9 0 1 810.10 580.40
  Q 802.96 574.93 795.94 571.29
  Q 793.45 569.99 790.13 569.47
  A 5.32 5.29 -25.6 0 1 788.38 568.86
  Q 785.70 567.34 782.65 566.79
  C 780.71 566.43 779.46 565.89 778.06 565.42
  A 12.29 12.01 -32.4 0 0 775.22 564.82
  Q 770.37 564.37 765.61 563.91
  Q 764.77 563.83 760.81 565.66
  A 2.26 2.21 -51.4 0 1 759.51 565.82
  Q 758.98 565.73 757.95 565.18
  C 755.90 564.09 754.26 564.19 752.49 565.77
  A 1.52 1.37 -43.1 0 1 750.51 565.81
  Q 748.40 563.71 746.03 564.39
  A 1.10 1.05 -73.0 0 0 745.57 564.65
  L 744.01 566.21
  A 1.90 1.90 0.0 0 1 741.29 566.18
  C 740.04 564.88 738.45 564.32 736.43 564.55
  Q 732.68 564.97 727.30 564.63
  Q 726.07 564.56 723.73 566.02
  A 3.06 3.04 -61.9 0 1 722.23 566.48
  L 714.05 566.83
  A 1.50 1.49 79.6 0 0 712.70 568.80
  C 712.90 569.70 713.48 570.52 713.73 571.71
  Q 715.27 578.82 717.06 581.97
  Q 720.40 587.83 720.86 588.85
  Q 723.96 595.67 724.15 602.44
  A 4.66 4.66 0.0 0 0 724.75 604.61
  Q 727.48 609.52 729.25 615.66
  C 729.80 617.60 729.81 621.02 730.81 622.51
  Q 732.46 624.97 733.33 626.71
  A 3.24 3.04 -66.3 0 1 733.56 627.36
  L 734.71 632.24
  A 1.90 1.80 -70.1 0 0 734.99 632.88
  Q 739.23 639.02 744.98 641.86
  A 3.41 3.40 -88.1 0 1 746.63 643.63
  C 748.36 647.88 751.78 650.23 756.22 654.20
  A 5.43 5.24 5.3 0 1 757.15 655.28
  C 762.11 662.95 766.86 667.11 773.94 674.31
  C 775.45 675.85 777.28 679.11 779.13 681.14
  Q 782.99 685.38 786.38 690.33
  Q 787.61 692.13 791.72 694.37
  A 3.39 3.36 83.4 0 1 792.57 695.05
  C 794.75 697.50 795.54 700.46 797.34 704.87
  A 4.18 4.05 15.8 0 0 797.89 705.82
  L 800.62 709.32
  A 4.33 4.28 -71.2 0 1 801.40 710.93
  Q 802.05 713.53 803.07 716.67
  C 803.82 718.97 806.71 721.50 807.97 723.79
  C 810.12 727.70 809.87 732.11 810.68 736.17
  A 8.58 8.23 -63.3 0 0 811.19 737.83
  C 812.31 740.42 813.34 742.03 813.93 745.19
  Q 814.71 749.25 816.54 752.63
  A 7.20 6.70 -69.5 0 1 817.06 753.89
  C 818.50 758.79 820.84 763.81 819.73 768.02
  Q 818.44 772.90 819.81 776.21
  Q 819.94 776.51 819.84 778.63
  Q 819.80 779.44 818.92 780.80
  Q 817.89 782.42 817.87 785.99
  Q 817.80 799.76 817.88 806.63
  Q 817.90 809.02 818.94 810.98
  C 819.68 812.37 820.15 814.40 819.52 815.56
  Q 817.09 820.01 818.03 824.96
  C 818.35 826.60 819.17 827.57 819.61 828.77
  A 5.64 5.53 35.3 0 1 819.94 830.60
  L 820.02 844.51
  A 2.31 2.24 58.8 0 1 819.79 845.51
  L 818.20 848.69
  A 1.76 1.76 0.0 0 0 818.54 850.74
  C 822.55 854.67 817.41 856.83 819.02 859.72
  C 820.48 862.32 821.03 864.69 820.62 867.84
  Q 819.61 875.56 819.01 878.69
  A 1.59 1.55 41.8 0 0 819.07 879.54
  Q 821.30 885.95 818.87 891.21
  C 817.43 894.35 817.24 896.16 819.03 898.81
  A 1.80 1.80 0.0 0 1 819.05 900.80
  C 817.29 903.51 817.91 905.86 817.81 908.79
  Q 817.57 915.95 818.79 919.48
  A 2.69 2.69 0.0 0 1 818.71 921.43
  L 818.01 923.01
  A 2.69 2.64 54.7 0 0 817.80 924.31
  Q 818.53 932.68 817.86 944.52
  Q 817.66 947.96 818.66 950.37
  Q 820.04 953.73 819.98 955.06
  Q 819.83 958.19 818.43 960.18
  A 3.40 3.36 62.8 0 0 817.82 962.12
  L 817.82 970.06
  A 0.87 0.86 89.4 0 0 818.70 970.93
  L 830.11 970.79
  A 2.00 1.98 -54.7 0 0 830.79 970.67
  Q 833.76 969.59 837.06 969.66
  C 838.93 969.70 840.86 968.92 842.08 967.68
  A 1.20 1.19 33.8 0 1 843.40 967.42
  L 851.64 971.05
  A 0.56 0.55 -56.5 0 0 852.27 970.92
  C 854.25 968.78 856.44 967.02 859.26 966.83
  C 863.72 966.53 869.11 973.11 873.23 970.70
  Q 875.53 969.35 876.79 969.93
  Q 881.83 972.24 883.58 972.41
  Q 889.81 973.01 893.23 976.10
  Q 897.66 980.10 900.61 980.74
  Q 902.87 981.22 904.70 982.65
  Q 908.76 985.81 909.63 986.76
  A 0.36 0.36 0.0 0 0 910.24 986.63
  Z
  M 905.56 1007.44
  C 903.89 1006.21 902.01 1004.68 900.09 1004.80
  Q 898.91 1004.87 898.08 1004.69
  A 2.22 2.16 72.3 0 1 897.03 1004.13
  L 893.42 1000.61
  A 3.44 3.18 -6.0 0 0 892.75 1000.11
  Q 889.31 998.18 885.97 996.42
  C 882.98 994.83 880.80 994.79 876.79 994.30
  Q 874.91 994.06 872.33 991.98
  A 1.61 1.61 0.0 0 0 870.63 991.79
  C 868.16 992.96 865.55 991.96 863.11 991.21
  Q 862.13 990.90 859.36 990.91
  Q 847.26 990.94 847.19 990.94
  A 3.47 3.42 61.6 0 1 845.33 990.37
  L 843.83 989.36
  A 1.81 1.80 -41.4 0 0 842.02 989.25
  L 840.01 990.27
  A 1.31 1.30 26.9 0 1 839.54 990.42
  L 830.42 991.52
  A 1.06 1.05 -73.5 0 0 829.73 991.90
  Q 827.09 995.05 823.81 993.61
  C 818.26 991.16 819.32 1000.11 819.95 1002.76
  Q 821.04 1007.39 822.77 1011.73
  A 1.61 1.46 34.1 0 1 822.88 1012.18
  L 824.43 1028.91
  A 2.40 2.26 -57.3 0 0 824.51 1029.34
  C 825.07 1031.27 826.10 1034.13 825.92 1036.55
  C 825.77 1038.57 824.05 1039.97 823.94 1042.25
  Q 823.62 1049.06 824.06 1054.82
  A 0.91 0.89 -21.1 0 1 823.70 1055.61
  Q 819.53 1058.76 815.31 1060.57
  C 812.25 1061.87 806.18 1057.80 803.96 1056.10
  A 3.00 2.99 13.3 0 1 802.87 1054.34
  C 802.30 1051.52 800.74 1049.80 800.95 1046.89
  Q 801.18 1043.65 799.85 1040.68
  A 2.62 2.58 42.0 0 1 799.74 1038.85
  Q 800.96 1034.96 800.66 1031.45
  A 6.49 6.46 29.1 0 0 799.98 1029.08
  L 798.73 1026.60
  A 1.35 1.34 50.9 0 1 798.88 1025.14
  Q 800.25 1023.47 799.95 1022.29
  A 1.16 1.09 -80.1 0 0 799.55 1021.68
  Q 794.35 1017.64 794.91 1011.50
  Q 795.56 1004.44 793.11 999.45
  A 2.62 2.43 30.7 0 1 792.87 998.64
  Q 792.38 993.77 792.94 992.78
  Q 795.89 987.52 793.88 982.86
  C 792.74 980.23 792.06 976.49 792.84 974.87
  Q 794.00 972.43 793.35 969.34
  C 792.62 965.83 792.74 964.06 792.61 960.15
  A 3.55 3.43 -33.5 0 1 792.98 958.47
  C 794.95 954.50 795.39 952.56 793.50 948.48
  Q 792.82 947.02 793.01 945.39
  Q 793.53 940.79 792.05 937.33
  C 790.51 933.71 790.19 930.35 793.24 927.93
  A 3.50 3.49 -19.2 0 0 794.57 925.19
  L 794.57 909.87
  A 4.71 4.61 -56.9 0 0 794.21 908.07
  L 793.08 905.36
  A 2.60 2.53 -57.5 0 1 792.89 904.44
  Q 792.76 897.16 792.77 895.77
  C 792.78 893.86 794.64 892.22 794.80 890.26
  Q 795.04 887.35 793.47 884.47
  A 2.65 2.65 0.0 0 1 793.51 881.89
  L 794.48 880.20
  A 2.84 2.78 -30.7 0 0 794.85 878.81
  L 794.70 865.06
  A 9.98 9.87 39.0 0 0 794.48 863.08
  C 794.07 860.95 792.50 859.21 792.42 856.71
  Q 792.26 851.53 794.31 848.00
  A 3.76 3.68 -25.9 0 0 794.77 846.72
  C 795.11 844.67 794.46 842.83 795.04 840.40
  Q 795.51 838.41 795.38 837.14
  Q 794.79 831.70 793.02 823.46
  A 4.58 4.55 -51.9 0 1 792.92 822.61
  L 792.79 806.58
  A 0.69 0.58 -39.8 0 1 792.83 806.36
  L 793.77 803.69
  A 2.08 2.02 46.8 0 0 793.79 802.41
  L 792.99 799.87
  A 2.66 2.65 36.1 0 1 792.86 799.05
  L 792.86 775.23
  A 7.92 7.66 55.6 0 1 793.30 772.64
  L 794.13 770.28
  A 4.02 4.00 -43.3 0 0 794.21 767.84
  Q 793.62 765.78 792.50 761.10
  C 791.77 758.07 790.22 755.29 789.45 752.50
  A 10.41 10.30 35.2 0 1 789.11 750.59
  Q 788.60 744.27 788.23 743.05
  Q 784.39 730.57 784.13 728.99
  A 1.66 1.66 0.0 0 0 783.76 728.21
  L 781.69 725.79
  A 1.59 1.58 20.4 0 1 781.33 725.01
  C 780.42 719.55 776.66 710.67 771.62 707.64
  C 769.81 706.56 768.02 705.14 767.34 703.98
  Q 764.40 699.00 760.45 695.92
  C 758.99 694.78 757.75 692.88 757.11 691.29
  C 754.51 684.76 749.90 680.89 743.33 674.36
  A 7.22 7.13 -84.4 0 1 742.39 673.20
  Q 738.04 666.51 731.13 660.18
  Q 729.59 658.78 727.79 654.49
  A 2.19 2.17 8.7 0 0 727.15 653.63
  Q 722.84 650.14 717.83 648.68
  Q 715.48 647.99 714.46 646.52
  C 712.50 643.69 710.87 641.39 706.89 640.53
  Q 704.84 640.09 702.79 638.96
  A 1.45 1.44 37.8 0 0 701.09 639.17
  C 699.37 640.76 698.29 640.70 696.22 639.49
  C 693.07 637.65 689.30 638.65 685.85 639.65
  A 2.63 2.61 46.3 0 1 684.24 639.61
  L 681.80 638.74
  A 2.40 2.39 36.6 0 0 679.61 639.06
  C 674.62 642.68 671.03 637.97 666.05 638.66
  C 663.65 638.98 661.19 638.07 658.83 637.34
  A 4.71 4.42 -33.6 0 0 657.59 637.13
  L 643.92 636.81
  A 1.75 1.62 -35.9 0 1 643.51 636.76
  L 640.28 636.00
  A 0.76 0.75 -45.7 0 0 639.88 636.01
  Q 637.16 636.82 632.20 636.83
  Q 630.72 636.83 627.61 635.47
  Q 624.60 634.15 619.65 634.88
  A 1.23 1.22 -69.1 0 0 619.03 635.16
  L 617.55 636.42
  A 1.27 1.27 0.0 0 1 615.86 636.39
  Q 614.05 634.68 611.73 634.71
  Q 606.15 634.77 600.52 634.75
  Q 599.45 634.75 595.60 633.00
  A 2.17 2.17 0.0 0 0 594.45 632.82
  Q 593.52 632.93 591.58 634.09
  C 587.18 636.72 583.23 631.06 578.92 633.60
  Q 576.93 634.76 574.20 634.13
  Q 572.30 633.70 565.35 632.72
  C 563.49 632.46 561.32 631.21 559.96 631.97
  C 557.99 633.07 554.59 632.82 552.90 632.67
  A 3.46 3.36 -28.7 0 1 551.60 632.31
  Q 548.39 630.71 547.49 630.78
  Q 542.68 631.15 540.27 630.79
  C 536.89 630.30 533.30 631.39 530.22 630.54
  Q 529.57 630.35 527.21 629.42
  A 6.59 6.57 -33.8 0 0 524.82 628.95
  L 509.08 628.76
  A 1.25 1.19 -31.3 0 1 508.57 628.65
  L 506.22 627.60
  A 1.81 1.78 50.3 0 0 505.13 627.49
  C 504.17 627.71 503.42 628.49 502.31 628.73
  Q 499.28 629.41 498.49 629.32
  Q 491.92 628.57 483.42 628.65
  C 481.05 628.68 479.61 626.89 477.67 625.61
  A 1.95 1.94 -39.9 0 0 475.84 625.45
  Q 470.07 627.94 463.37 625.60
  A 5.48 5.31 -32.7 0 0 462.03 625.33
  Q 459.66 625.17 451.33 625.00
  C 448.82 624.95 446.35 625.92 444.09 625.43
  Q 441.76 624.92 438.90 624.91
  Q 429.06 624.85 424.76 624.81
  Q 424.14 624.80 422.32 623.74
  C 420.15 622.47 417.60 622.55 415.96 624.17
  A 3.04 2.73 32.7 0 1 412.79 624.68
  Q 410.80 623.84 409.94 623.50
  A 6.46 6.38 57.4 0 0 408.08 623.08
  Q 407.07 623.01 398.01 622.62
  C 395.38 622.51 394.42 621.95 392.63 620.38
  C 390.17 618.22 385.96 620.61 383.93 622.33
  A 2.38 2.38 0.0 0 1 380.71 622.20
  L 379.41 620.91
  A 2.47 2.47 0.0 0 0 376.23 620.64
  Q 374.05 622.21 373.97 622.26
  A 3.72 3.57 -42.1 0 1 369.74 622.13
  C 366.77 619.82 364.31 624.45 361.17 622.20
  C 358.70 620.44 352.52 617.43 349.51 619.44
  Q 347.76 620.62 345.73 619.81
  C 344.47 619.30 343.10 619.58 341.89 619.89
  Q 339.48 620.51 337.53 619.92
  Q 333.13 618.58 327.78 619.09
  C 326.36 619.23 324.51 617.63 323.15 617.27
  Q 316.36 615.50 311.04 618.37
  A 2.85 2.84 -49.0 0 1 308.73 618.54
  Q 304.07 616.90 298.39 616.74
  A 2.95 2.84 56.1 0 1 297.42 616.53
  Q 296.37 616.09 295.35 615.10
  A 1.29 1.29 0.0 0 0 293.47 615.19
  C 291.92 617.00 290.74 616.98 288.59 615.85
  Q 284.39 613.65 278.69 614.71
  C 275.62 615.28 273.93 617.98 269.98 616.18
  C 265.87 614.31 262.07 613.02 257.95 614.01
  Q 256.51 614.36 252.71 614.61
  A 4.35 4.25 -61.7 0 0 250.82 615.20
  L 248.87 616.37
  A 1.46 1.46 0.0 0 1 247.04 616.09
  Q 244.44 613.17 240.91 612.72
  C 239.21 612.50 237.81 613.82 236.44 614.09
  A 1.69 1.68 -38.4 0 1 235.40 613.97
  Q 232.31 612.53 228.55 612.87
  C 227.25 612.99 225.90 612.54 224.64 611.85
  C 221.43 610.11 219.73 611.93 216.74 611.48
  Q 211.47 610.69 204.47 610.53
  A 1.74 1.72 60.6 0 1 203.63 610.29
  L 201.68 609.17
  A 2.68 2.61 -28.4 0 0 200.42 608.81
  Q 192.03 608.56 186.96 608.61
  Q 186.09 608.62 183.88 610.31
  A 2.46 2.41 20.2 0 1 182.92 610.74
  C 178.95 611.57 177.81 609.13 175.47 608.48
  A 1.80 1.79 -53.1 0 0 174.02 608.69
  C 171.54 610.26 168.21 612.88 167.78 615.85
  Q 167.48 617.94 167.99 618.73
  C 170.96 623.39 170.43 626.71 168.30 631.76
  A 0.65 0.53 65.9 0 0 168.24 631.98
  L 166.14 644.55
  A 0.35 0.32 43.0 0 0 166.15 644.69
  Q 166.72 647.29 168.29 649.81
  A 2.59 2.56 -58.4 0 1 168.66 651.40
  Q 168.27 655.55 167.82 656.67
  Q 166.25 660.58 166.12 660.98
  A 5.59 5.42 53.9 0 0 165.87 662.75
  L 166.20 677.02
  A 1.48 1.43 60.0 0 1 166.01 677.78
  L 164.50 680.39
  A 1.48 1.47 -33.7 0 0 164.31 681.31
  Q 164.72 685.15 164.23 690.48
  Q 164.10 691.93 165.68 694.88
  A 1.70 1.68 33.3 0 1 165.87 695.77
  C 165.71 697.99 164.03 700.02 162.29 702.69
  A 3.75 3.74 -32.5 0 0 161.72 705.24
  Q 162.29 709.45 161.85 712.86
  A 7.90 7.82 -47.2 0 0 161.94 715.50
  L 162.35 717.52
  A 4.03 3.97 -43.3 0 1 162.28 719.43
  Q 161.33 722.79 161.90 724.59
  Q 162.88 727.69 162.87 727.88
  A 5.41 5.27 -34.4 0 1 162.56 729.42
  C 161.47 732.51 159.00 735.31 160.12 739.13
  C 162.04 745.68 162.88 748.51 159.22 754.54
  C 157.18 757.92 158.19 761.36 158.73 765.07
  A 1.98 1.66 -51.3 0 1 158.74 765.50
  L 157.69 775.41
  A 1.93 1.03 80.8 0 1 157.64 775.64
  L 155.95 780.42
  A 1.01 0.86 -40.3 0 0 155.90 780.72
  L 155.81 790.59
  A 2.83 2.83 0.0 0 1 154.45 792.99
  Q 151.17 795.00 152.67 797.94
  Q 154.53 801.62 154.00 805.63
  A 3.10 2.99 -29.9 0 1 153.76 806.46
  L 152.72 808.85
  A 3.93 3.93 0.0 0 0 152.40 810.25
  C 152.00 820.37 151.52 826.54 152.46 832.48
  A 1.12 1.11 -17.8 0 0 154.06 833.30
  C 157.38 831.63 159.29 833.41 162.19 833.43
  Q 169.28 833.47 172.82 833.24
  A 2.47 2.39 29.6 0 0 173.71 833.01
  Q 175.34 832.21 176.80 832.09
  A 2.11 2.05 -32.7 0 1 177.89 832.31
  L 179.51 833.12
  A 3.97 3.95 56.7 0 0 181.52 833.54
  Q 183.07 833.47 191.27 833.68
  Q 193.79 833.75 196.01 834.79
  A 4.38 4.38 0.0 0 0 199.44 834.91
  C 203.22 833.43 207.22 831.28 209.57 832.42
  Q 212.23 833.71 213.12 833.68
  Q 218.86 833.47 222.38 834.05
  C 225.99 834.65 228.60 833.80 231.47 832.07
  A 2.31 2.31 0.0 0 1 234.18 832.30
  Q 235.67 833.60 236.94 833.70
  A 0.80 0.30 24.7 0 0 237.07 833.71
  L 242.92 833.53
  A 3.83 3.79 -37.7 0 1 243.98 833.66
  C 246.23 834.31 248.07 835.90 250.66 834.56
  Q 254.06 832.81 257.01 834.08
  C 260.06 835.38 262.81 835.86 265.50 835.21
  C 269.83 834.15 271.87 833.96 276.18 834.66
  Q 279.26 835.16 282.28 834.13
  C 286.82 832.59 288.85 834.07 292.75 836.58
  A 4.38 4.37 -42.2 0 0 297.14 836.79
  Q 302.46 834.03 308.10 836.52
  A 4.32 4.25 54.1 0 0 310.18 836.87
  Q 315.48 836.38 317.80 835.74
  C 320.46 835.01 321.19 836.34 323.26 837.04
  C 324.73 837.53 326.56 837.42 328.08 838.28
  Q 332.12 840.56 336.62 839.10
  Q 340.16 837.96 341.60 837.87
  Q 345.57 837.63 348.50 838.45
  C 352.90 839.68 355.06 839.40 359.05 838.07
  Q 360.65 837.54 364.49 837.76
  A 2.93 2.90 62.3 0 1 365.88 838.20
  Q 367.78 839.39 369.00 839.35
  Q 373.64 839.20 378.74 839.18
  A 4.47 4.47 0.0 0 0 380.61 838.77
  C 382.85 837.75 383.78 837.43 386.35 838.36
  C 390.91 840.01 395.63 839.36 399.61 840.79
  A 5.39 5.19 54.5 0 0 401.27 841.10
  L 420.81 841.60
  A 7.49 7.31 54.1 0 1 423.02 841.98
  L 425.88 842.92
  A 2.63 2.50 52.8 0 0 426.55 843.03
  L 445.76 843.58
  A 4.13 4.07 55.7 0 1 447.08 843.84
  L 450.34 845.04
  A 0.22 0.17 -25.5 0 0 450.43 845.06
  Q 458.57 845.69 463.57 845.93
  C 465.60 846.03 467.34 846.81 469.15 846.62
  C 472.30 846.29 475.78 847.25 478.76 847.30
  Q 479.79 847.32 483.83 846.09
  C 487.12 845.09 489.06 845.97 492.09 846.87
  A 11.22 11.16 53.7 0 0 495.05 847.33
  L 513.57 847.67
  A 4.58 4.56 -53.9 0 0 515.09 847.43
  Q 516.73 846.87 518.24 846.86
  A 2.54 2.52 -30.0 0 1 519.49 847.19
  L 522.08 848.69
  A 2.63 2.41 -24.6 0 0 523.04 849.00
  L 530.67 849.81
  A 3.31 3.27 63.8 0 1 532.08 850.30
  C 537.47 853.67 539.80 847.95 544.15 849.84
  Q 548.80 851.85 550.58 851.93
  Q 554.92 852.14 557.40 852.77
  C 560.19 853.49 562.24 853.35 566.00 853.55
  Q 568.80 853.70 570.00 853.34
  C 574.06 852.12 577.05 850.46 581.17 853.00
  Q 583.18 854.24 586.08 855.13
  A 3.69 3.65 87.3 0 1 588.39 857.25
  Q 590.95 863.53 589.28 870.16
  Q 588.62 872.82 585.79 874.41
  A 3.44 3.42 30.9 0 1 584.05 874.84
  C 580.73 874.75 576.73 874.18 573.75 876.03
  Q 572.57 876.75 571.12 876.78
  Q 559.54 877.04 548.75 876.82
  Q 547.92 876.80 544.67 875.47
  A 7.41 7.20 58.4 0 0 542.73 874.98
  Q 539.50 874.62 534.55 874.65
  Q 532.25 874.67 530.48 873.57
  Q 528.11 872.10 523.89 870.91
  A 1.70 1.69 -3.8 0 0 521.87 873.21
  Q 523.53 877.03 523.08 879.22
  A 1.17 1.15 -52.7 0 0 523.18 880.00
  L 525.52 884.61
  A 5.43 5.41 32.2 0 1 526.10 887.13
  C 525.98 895.31 525.78 903.33 527.43 911.61
  C 528.22 915.58 527.46 920.72 529.13 925.24
  C 530.30 928.39 529.85 931.60 530.91 934.78
  Q 531.78 937.38 532.06 940.47
  Q 532.64 946.60 534.88 954.45
  Q 535.54 956.78 534.36 958.86
  A 1.58 1.57 46.8 0 0 534.32 960.35
  Q 535.86 963.42 536.04 967.36
  Q 536.22 971.39 536.98 973.02
  C 538.01 975.21 538.73 980.90 541.61 984.28
  A 1.35 1.34 -42.3 0 1 541.52 986.12
  C 538.99 988.59 539.21 992.30 541.05 995.19
  C 542.30 997.17 541.30 1000.11 541.63 1002.22
  Q 542.22 1005.99 542.41 1014.56
  A 3.52 3.27 38.1 0 0 542.55 1015.45
  L 543.73 1019.52
  A 3.33 3.17 -56.1 0 1 543.86 1020.28
  C 544.21 1026.64 544.15 1032.06 545.48 1036.45
  A 10.12 9.96 37.6 0 1 545.91 1039.55
  Q 545.84 1042.95 546.53 1045.83
  C 546.81 1047.00 546.34 1048.27 546.42 1049.46
  A 2.90 2.90 0.0 0 0 546.81 1050.71
  C 547.94 1052.68 550.82 1057.23 549.17 1059.03
  C 546.95 1061.46 548.38 1063.62 549.57 1066.11
  A 4.00 3.91 -58.1 0 1 549.96 1067.87
  Q 549.89 1073.09 551.49 1078.39
  A 6.27 6.08 37.5 0 1 551.75 1080.16
  Q 551.76 1080.48 552.05 1088.23
  Q 552.16 1091.10 553.08 1096.18
  Q 554.23 1102.48 553.86 1110.26
  Q 553.65 1114.80 555.13 1116.98
  Q 561.28 1126.04 563.62 1129.42
  A 3.86 3.85 -10.3 0 0 565.87 1130.97
  Q 571.32 1132.31 574.64 1137.19
  Q 577.67 1141.63 578.76 1142.54
  C 580.96 1144.38 584.26 1145.92 586.71 1148.26
  C 588.57 1150.04 591.33 1150.72 593.66 1152.38
  C 596.92 1154.70 603.05 1159.47 607.04 1159.04
  Q 608.63 1158.87 609.85 1160.20
  C 612.83 1163.44 615.15 1164.94 619.65 1165.86
  Q 622.24 1166.39 623.96 1168.05
  C 627.03 1170.99 629.67 1171.59 633.25 1171.45
  C 639.52 1171.21 646.52 1170.81 652.20 1173.04
  A 2.14 1.93 54.4 0 0 652.79 1173.17
  L 662.18 1173.82
  A 3.58 3.43 54.4 0 1 662.87 1173.95
  Q 668.02 1175.54 677.18 1175.33
  A 6.42 6.38 32.9 0 0 679.56 1174.83
  C 685.45 1172.42 692.89 1173.50 698.79 1175.41
  C 700.94 1176.11 700.99 1177.75 703.82 1176.28
  Q 707.76 1174.24 713.01 1173.76
  Q 716.45 1173.44 720.48 1173.45
  A 6.80 6.73 -56.8 0 0 723.24 1172.86
  L 724.61 1172.34
  A 2.69 2.69 0.0 0 1 725.21 1172.17
  L 737.79 1169.80
  A 2.31 2.18 41.8 0 1 738.52 1169.78
  Q 742.95 1170.40 747.70 1168.03
  Q 748.62 1167.57 753.29 1167.59
  A 3.31 2.91 -48.7 0 0 754.07 1167.49
  L 764.55 1164.94
  A 9.07 9.02 23.4 0 0 766.79 1164.06
  C 768.76 1162.78 769.96 1161.90 773.26 1161.49
  Q 775.63 1161.20 777.11 1160.66
  Q 788.42 1156.50 796.68 1153.00
  Q 800.44 1151.40 805.62 1149.63
  Q 812.04 1147.43 817.39 1143.21
  A 9.31 9.28 14.1 0 1 819.57 1141.91
  Q 821.88 1140.92 822.86 1140.13
  Q 825.52 1138.01 833.31 1131.11
  A 2.33 2.30 14.4 0 1 834.08 1130.66
  L 838.60 1129.11
  A 3.87 3.86 -73.0 0 0 839.67 1128.54
  L 845.07 1124.44
  A 8.52 6.56 -44.7 0 1 846.06 1123.78
  Q 850.13 1121.44 851.27 1120.01
  Q 860.57 1108.38 863.15 1104.92
  A 6.32 6.25 -89.1 0 1 864.57 1103.53
  L 866.61 1102.08
  A 4.43 4.42 -16.4 0 0 868.47 1098.68
  C 868.70 1093.66 868.37 1090.88 871.59 1087.03
  Q 876.88 1080.71 881.63 1073.33
  A 6.62 6.32 84.3 0 1 882.30 1072.47
  Q 887.98 1066.29 891.30 1061.54
  Q 892.40 1059.97 892.72 1057.31
  C 893.05 1054.65 893.74 1053.63 895.21 1050.57
  A 1.06 0.93 -35.6 0 0 895.31 1050.14
  L 895.31 1047.20
  A 2.44 2.34 -34.7 0 1 895.50 1046.27
  Q 896.78 1043.26 897.04 1039.85
  Q 897.15 1038.32 898.18 1036.96
  Q 902.49 1031.28 900.77 1025.24
  A 2.34 2.28 -49.0 0 1 900.71 1024.20
  L 901.73 1018.08
  A 1.62 1.61 -23.0 0 1 902.00 1017.42
  Q 904.62 1013.64 905.84 1008.21
  A 0.75 0.74 -65.4 0 0 905.56 1007.44
  Z
  M 142.38 700.56
  A 0.60 0.59 4.5 0 0 143.16 699.90
  Q 141.97 692.56 144.34 686.81
  Q 144.90 685.44 143.39 682.59
  A 2.79 2.76 -58.1 0 1 143.07 681.18
  C 143.16 679.35 145.23 676.70 144.64 674.63
  A 2.62 2.61 -8.0 0 0 142.11 672.73
  L 132.30 672.76
  A 6.43 6.32 -32.1 0 1 129.53 672.15
  Q 123.20 669.17 115.96 671.03
  C 112.85 671.83 115.12 675.37 116.26 677.09
  A 0.70 0.70 0.0 0 1 116.14 677.99
  Q 114.80 679.21 114.14 680.95
  A 2.04 1.86 -37.5 0 0 114.02 681.62
  L 114.02 695.71
  A 1.61 1.60 -85.9 0 0 115.39 697.30
  L 118.08 697.70
  A 0.86 0.25 29.0 0 1 118.21 697.73
  L 129.53 700.55
  A 3.25 3.24 42.9 0 0 131.33 700.49
  Q 136.75 698.70 142.38 700.56
  Z
  M 402.65 864.37
  C 400.45 861.74 397.12 862.74 394.00 864.03
  Q 388.41 866.34 382.50 863.52
  A 2.31 2.30 23.8 0 0 379.38 864.72
  C 377.09 870.25 371.78 874.23 366.75 879.05
  Q 365.55 880.19 359.33 883.09
  Q 357.40 884.00 352.75 887.60
  A 4.48 4.43 89.7 0 0 351.86 888.51
  Q 351.18 889.44 349.46 891.98
  C 346.70 896.04 342.20 897.72 336.29 900.70
  A 8.36 8.15 -76.7 0 0 334.86 901.61
  L 326.32 908.36
  A 0.24 0.10 -22.5 0 0 326.26 908.42
  Q 324.28 911.06 321.13 913.09
  A 7.62 7.61 -85.1 0 0 319.65 914.34
  Q 316.81 917.46 314.44 919.11
  Q 312.52 920.44 311.08 922.46
  Q 308.68 925.82 304.95 927.17
  C 302.29 928.14 299.18 930.33 298.31 932.15
  Q 296.24 936.43 295.85 937.16
  A 3.88 3.79 83.0 0 1 295.12 938.12
  Q 292.59 940.54 288.44 940.60
  A 1.46 1.44 -64.9 0 0 287.55 940.93
  Q 286.40 941.90 286.16 944.23
  A 4.35 4.35 0.0 0 1 284.39 947.30
  Q 279.11 951.15 272.30 956.04
  Q 269.34 958.16 264.10 964.12
  A 1.26 1.23 -14.5 0 0 263.87 964.50
  L 261.99 969.35
  A 2.00 1.99 7.6 0 1 260.32 970.62
  L 256.25 970.99
  A 1.27 1.26 25.5 0 0 255.68 971.19
  Q 251.77 973.71 247.90 976.07
  Q 245.80 977.35 246.98 979.28
  C 249.18 982.89 250.29 984.70 249.94 988.59
  C 249.72 990.97 250.40 993.36 251.82 995.74
  Q 253.78 998.99 254.10 1000.30
  Q 256.24 1009.23 257.56 1013.19
  A 0.78 0.77 -44.4 0 1 257.55 1013.69
  L 256.55 1016.54
  A 1.23 1.21 -52.7 0 0 256.69 1017.64
  Q 259.83 1022.25 260.72 1026.30
  A 2.28 2.22 -66.0 0 0 260.89 1026.76
  L 266.61 1038.38
  A 1.68 1.53 15.7 0 0 266.81 1038.70
  Q 270.16 1043.30 270.62 1044.42
  Q 271.84 1047.37 273.08 1050.09
  A 10.17 9.81 -77.7 0 0 274.41 1052.25
  C 276.57 1054.92 278.39 1056.84 280.03 1060.37
  Q 282.44 1065.56 287.28 1070.49
  A 5.45 5.44 -4.4 0 0 288.04 1071.14
  Q 291.48 1073.61 292.21 1074.62
  C 293.54 1076.48 295.18 1079.05 297.63 1080.81
  Q 300.68 1082.98 309.85 1090.49
  C 312.22 1092.44 316.65 1097.28 319.03 1098.19
  Q 325.61 1100.70 331.81 1106.52
  Q 334.14 1108.71 340.18 1110.25
  A 4.11 3.76 -19.5 0 1 341.24 1110.70
  Q 341.67 1110.95 343.46 1112.63
  Q 346.89 1115.85 352.01 1115.81
  A 3.09 3.07 -35.2 0 1 353.02 1115.98
  L 355.64 1116.90
  A 1.60 1.59 25.8 0 0 357.53 1116.25
  C 359.33 1113.41 361.25 1110.81 363.87 1108.61
  Q 368.40 1104.81 374.74 1099.05
  Q 377.00 1096.99 384.75 1093.54
  A 6.44 6.39 -78.5 0 0 386.58 1092.32
  L 394.17 1085.15
  A 2.74 1.75 -9.8 0 1 394.43 1084.94
  L 397.89 1082.56
  A 1.68 1.64 89.3 0 0 398.31 1082.12
  Q 400.81 1078.16 403.86 1075.98
  A 4.92 4.68 14.0 0 1 404.83 1075.43
  Q 408.54 1073.84 411.22 1071.58
  A 5.02 5.00 83.1 0 0 412.47 1069.98
  Q 414.77 1065.32 419.38 1063.02
  A 2.28 1.86 5.8 0 0 419.73 1062.79
  L 435.24 1049.54
  A 2.38 2.31 -7.2 0 0 435.76 1048.89
  C 437.84 1045.05 441.24 1041.29 445.49 1039.53
  Q 448.52 1038.27 449.14 1037.63
  Q 456.55 1030.00 457.75 1028.75
  Q 461.82 1024.51 466.73 1020.25
  Q 468.76 1018.49 475.08 1012.30
  A 10.36 9.79 -81.8 0 1 476.68 1011.03
  Q 483.31 1006.78 487.05 1000.94
  Q 488.19 999.16 490.70 998.22
  C 493.08 997.32 494.36 996.66 496.37 994.72
  Q 504.27 987.07 507.15 984.41
  A 6.91 6.61 85.6 0 0 508.32 982.98
  Q 510.88 978.82 514.15 976.56
  C 518.52 973.55 516.50 970.86 514.99 967.18
  A 5.20 5.03 -55.8 0 1 514.61 965.00
  Q 514.76 961.92 514.49 960.76
  C 513.48 956.51 509.14 952.96 511.62 947.91
  A 2.72 2.62 56.9 0 0 511.89 946.50
  Q 511.73 944.49 512.61 942.06
  A 2.26 2.26 0.0 0 0 512.40 940.10
  L 511.44 938.55
  A 3.95 3.89 27.3 0 1 510.85 936.75
  Q 510.71 934.67 510.06 928.16
  C 509.83 925.84 508.66 923.60 508.68 921.51
  Q 508.70 918.51 508.18 916.42
  C 507.37 913.13 508.07 910.27 507.37 906.90
  Q 506.81 904.16 506.88 897.97
  A 2.03 2.02 33.6 0 0 506.70 897.09
  L 505.60 894.58
  A 1.10 1.07 -43.0 0 1 505.65 893.59
  L 506.53 892.08
  A 2.21 2.20 39.8 0 0 506.29 889.54
  L 505.77 888.93
  A 4.24 4.22 21.2 0 1 504.79 886.72
  Q 504.44 884.06 502.79 881.99
  A 1.41 1.41 0.0 0 1 502.53 880.83
  C 502.93 878.99 504.39 877.41 504.72 875.58
  Q 504.99 874.13 504.85 872.41
  A 1.29 1.28 1.4 0 0 503.74 871.25
  L 495.47 870.14
  A 1.04 0.96 -50.9 0 0 494.92 870.22
  C 493.70 870.75 490.75 871.46 489.39 870.24
  C 485.13 866.42 481.54 871.74 476.84 871.04
  A 1.92 1.89 -22.2 0 1 475.99 870.69
  Q 470.62 866.67 465.17 870.54
  A 0.75 0.74 -28.6 0 1 464.04 870.21
  C 462.98 867.53 461.19 866.93 458.37 868.03
  Q 455.45 869.16 453.73 868.85
  Q 447.81 867.75 444.90 867.64
  A 3.16 2.96 53.2 0 1 444.17 867.51
  L 436.75 865.25
  A 2.52 2.48 -42.3 0 0 435.45 865.20
  Q 434.39 865.42 432.58 866.03
  Q 428.41 867.41 424.71 865.90
  C 420.47 864.17 418.19 866.99 414.58 866.46
  Q 412.74 866.19 408.45 863.79
  C 406.12 862.49 405.28 862.62 403.54 864.40
  A 0.60 0.60 0.0 0 1 402.65 864.37
  Z
  M 291.88 1139.55
  L 293.20 1140.02
  A 6.76 6.75 37.1 0 0 299.34 1139.17
  Q 303.68 1136.11 316.34 1128.23
  C 318.01 1127.19 319.67 1125.56 320.46 1123.78
  A 1.89 1.89 0.0 0 0 319.64 1121.37
  Q 312.25 1117.32 309.98 1115.81
  C 307.70 1114.29 303.73 1113.51 301.69 1111.03
  Q 299.65 1108.56 297.86 1106.22
  A 5.49 5.34 1.7 0 0 296.94 1105.27
  C 293.17 1102.25 289.02 1100.12 285.68 1096.99
  Q 277.87 1089.70 276.56 1088.44
  Q 273.49 1085.50 269.93 1084.23
  A 4.09 4.06 -5.1 0 1 267.82 1082.48
  Q 265.33 1078.25 262.97 1073.54
  Q 261.86 1071.32 260.82 1070.19
  Q 257.20 1066.29 256.03 1065.01
  A 10.40 10.36 9.4 0 1 254.13 1062.37
  L 249.50 1053.17
  A 1.19 0.68 29.9 0 0 249.43 1053.05
  L 244.69 1045.78
  A 2.13 1.92 -71.8 0 1 244.46 1045.26
  Q 242.59 1038.57 240.07 1033.75
  Q 239.13 1031.93 238.40 1029.02
  Q 237.76 1026.45 235.29 1023.82
  A 2.21 2.17 -10.3 0 0 234.51 1023.29
  Q 232.70 1022.59 231.42 1022.89
  Q 227.30 1023.87 224.76 1023.36
  A 2.99 2.97 39.1 0 0 222.98 1023.54
  C 220.85 1024.47 218.92 1025.21 216.90 1023.85
  C 215.24 1022.74 213.60 1021.90 211.43 1023.19
  Q 209.42 1024.38 206.77 1024.46
  A 1.82 1.81 -3.8 0 0 205.02 1026.46
  Q 205.69 1032.84 209.05 1041.01
  A 1.76 1.72 4.7 0 0 209.78 1041.85
  L 212.59 1043.47
  A 1.05 1.03 84.0 0 1 212.87 1043.70
  Q 216.92 1048.68 217.99 1051.95
  C 219.40 1056.24 222.01 1059.06 223.62 1063.68
  A 1.40 1.40 0.0 0 1 223.46 1064.92
  Q 222.14 1066.90 222.19 1068.42
  A 1.99 1.97 -56.1 0 0 222.31 1069.04
  L 224.28 1074.09
  A 1.62 1.61 51.4 0 1 224.12 1075.58
  Q 222.86 1077.43 222.39 1079.85
  C 221.95 1082.11 221.11 1083.10 219.47 1084.72
  Q 215.16 1088.96 211.74 1091.73
  Q 211.24 1092.13 210.01 1095.11
  A 5.97 5.80 -14.2 0 1 209.03 1096.70
  Q 207.61 1098.34 207.28 1098.55
  Q 202.98 1101.40 199.46 1104.74
  C 194.55 1109.40 190.64 1112.22 184.85 1114.39
  C 182.16 1115.39 177.41 1112.68 175.73 1110.86
  C 174.19 1109.19 174.54 1105.00 174.43 1102.74
  A 1.02 1.00 -32.0 0 1 174.57 1102.16
  L 176.34 1099.09
  A 1.13 1.13 0.0 0 0 175.89 1097.52
  L 168.80 1093.79
  A 0.75 0.75 0.0 0 1 168.56 1093.60
  L 166.17 1090.81
  A 5.84 5.83 -16.2 0 0 162.56 1088.83
  L 154.62 1087.70
  A 1.05 1.03 34.7 0 0 153.98 1087.81
  Q 151.89 1088.90 152.68 1090.68
  Q 155.37 1096.72 161.51 1104.93
  A 5.03 4.95 -0.5 0 0 162.68 1106.06
  C 165.43 1107.96 168.50 1109.57 169.56 1112.50
  Q 170.08 1113.94 171.86 1117.45
  A 2.64 2.58 3.6 0 0 172.79 1118.48
  L 181.69 1124.20
  A 1.84 1.84 0.0 0 0 183.70 1124.19
  L 193.94 1117.50
  A 1.36 1.25 -81.0 0 0 194.18 1117.31
  Q 200.84 1110.26 209.36 1104.41
  C 212.62 1102.17 213.23 1101.01 215.89 1097.63
  Q 218.37 1094.48 220.16 1093.82
  Q 225.51 1091.84 226.53 1090.80
  Q 236.00 1081.15 238.66 1078.40
  A 3.96 3.93 24.8 0 1 241.91 1077.22
  L 247.29 1077.79
  A 1.41 1.34 -23.3 0 1 247.89 1078.01
  C 253.43 1081.66 252.56 1085.62 252.13 1092.16
  Q 252.00 1094.13 250.17 1095.90
  Q 244.60 1101.29 243.69 1102.13
  A 16.93 16.88 -81.0 0 1 240.40 1104.53
  Q 233.72 1108.27 232.37 1109.90
  Q 225.29 1118.37 216.01 1123.60
  A 0.83 0.72 -80.3 0 0 215.78 1123.79
  L 212.65 1127.36
  A 1.28 1.28 0.0 0 0 212.53 1128.89
  L 215.31 1133.35
  A 2.34 2.34 0.0 0 0 218.54 1134.10
  L 222.86 1131.42
  A 1.52 1.52 0.0 0 1 223.82 1131.19
  L 226.48 1131.48
  A 2.31 2.30 25.5 0 0 228.33 1130.83
  C 231.56 1127.65 233.99 1124.90 237.78 1122.14
  Q 243.76 1117.76 248.91 1111.98
  C 252.59 1107.86 255.55 1104.57 257.93 1099.99
  Q 258.86 1098.18 260.76 1097.76
  C 266.55 1096.48 271.26 1099.99 273.94 1104.72
  A 1.44 1.44 0.0 0 1 274.11 1105.66
  L 272.01 1118.26
  A 4.70 4.65 -15.6 0 1 270.39 1121.09
  C 267.94 1123.12 265.39 1124.71 263.08 1127.31
  Q 259.37 1131.46 253.24 1134.30
  A 1.58 1.58 0.0 0 0 253.38 1137.23
  L 258.47 1139.02
  A 1.97 1.97 0.0 0 0 260.33 1138.73
  C 262.83 1136.80 264.63 1135.70 266.70 1133.81
  Q 270.17 1130.62 273.87 1127.62
  Q 275.33 1126.44 276.10 1125.40
  A 8.23 5.69 -42.6 0 1 276.83 1124.51
  C 278.48 1122.69 280.35 1118.28 282.98 1116.32
  Q 289.77 1111.28 298.02 1114.52
  Q 302.57 1116.31 302.41 1121.67
  C 302.37 1123.07 302.31 1125.59 301.24 1127.03
  Q 298.79 1130.32 291.32 1135.91
  A 2.09 2.09 0.0 0 0 291.88 1139.55
  Z"
/>
</svg>
