<?xml version="1.0" encoding="UTF-8" standalone="no"?>
<!DOCTYPE svg PUBLIC "-//W3C//DTD SVG 1.1//EN" "http://www.w3.org/Graphics/SVG/1.1/DTD/svg11.dtd">
<svg xmlns="http://www.w3.org/2000/svg" version="1.1" viewBox="0.00 0.00 1200.00 1200.00">
<path fill="#000000" d="
  M 610.26 126.69
  Q 606.74 125.38 603.88 128.99
  C 599.99 133.91 596.36 143.20 589.54 147.48
  Q 589.30 147.63 581.09 153.07
  Q 578.25 154.96 567.24 159.31
  A 1.57 1.55 -46.9 0 1 566.21 159.35
  Q 562.46 158.20 558.60 159.72
  A 2.39 2.37 39.1 0 1 557.30 159.85
  Q 552.70 159.03 544.78 156.51
  Q 536.35 153.82 532.77 147.05
  A 6.63 6.59 -82.3 0 0 531.43 145.28
  C 528.30 142.32 526.21 140.40 525.13 136.09
  Q 522.72 126.50 524.22 117.85
  A 1.37 0.92 -59.5 0 1 524.27 117.67
  L 531.68 98.18
  A 1.35 1.27 -40.0 0 0 531.76 97.51
  Q 531.18 93.14 532.52 88.04
  A 4.09 4.05 -11.2 0 1 534.01 85.83
  C 539.62 81.62 544.12 76.50 548.37 70.33
  C 550.70 66.96 553.00 64.39 556.41 62.14
  Q 569.07 53.77 571.09 52.57
  Q 578.63 48.08 589.29 46.30
  Q 597.23 44.97 598.52 44.70
  Q 601.58 44.04 607.75 43.15
  C 611.27 42.64 615.22 43.45 618.28 43.45
  C 620.18 43.46 624.65 44.29 628.15 43.32
  A 2.29 2.18 41.2 0 1 629.13 43.28
  Q 646.36 46.49 661.71 53.17
  C 667.30 55.60 673.67 59.91 677.55 62.44
  C 682.70 65.80 684.60 70.10 688.39 77.00
  A 4.80 4.18 -72.0 0 1 688.79 77.94
  Q 690.85 84.91 695.86 94.62
  Q 698.61 99.97 696.06 105.96
  A 1.26 1.24 48.3 0 0 696.02 106.80
  L 696.87 109.49
  A 1.30 1.29 -49.5 0 1 696.91 110.04
  L 692.88 134.71
  A 2.91 2.88 -27.5 0 1 692.61 135.55
  Q 691.49 137.79 690.95 140.47
  A 4.33 4.26 -24.0 0 1 690.41 141.84
  Q 689.01 144.08 688.90 144.43
  Q 687.77 147.98 684.52 159.22
  A 1.57 1.56 66.7 0 1 684.37 159.60
  L 682.58 163.04
  A 2.69 2.64 -6.2 0 1 681.87 163.91
  Q 676.94 167.92 672.79 173.05
  Q 672.36 173.58 670.70 177.06
  A 3.65 3.60 -12.2 0 1 670.17 177.87
  C 666.14 182.48 660.62 186.25 656.81 191.30
  Q 654.71 194.07 653.63 197.63
  Q 651.68 204.07 650.62 211.66
  A 4.72 4.65 -47.0 0 0 650.66 213.15
  L 652.54 222.52
  A 0.37 0.35 -36.5 0 1 652.50 222.75
  L 648.60 229.50
  A 1.55 1.53 48.8 0 0 648.52 230.87
  C 649.86 234.07 647.45 237.93 645.88 241.14
  Q 644.10 244.74 643.73 246.56
  Q 643.46 247.90 642.11 252.17
  C 639.78 259.55 634.79 269.10 626.74 271.62
  Q 621.14 273.37 609.74 274.40
  Q 599.32 275.35 589.18 269.89
  A 4.22 4.13 -6.5 0 1 588.15 269.09
  C 586.39 267.20 583.81 265.49 581.80 263.41
  Q 576.91 258.34 573.41 252.21
  C 571.81 249.42 571.13 246.82 571.86 243.54
  Q 572.97 238.61 574.54 235.28
  Q 575.12 234.06 574.17 232.81
  A 1.96 1.89 -70.5 0 1 573.81 232.02
  Q 573.40 230.06 573.76 227.75
  Q 574.87 220.59 575.40 214.69
  Q 575.98 208.14 577.18 203.40
  Q 577.71 201.32 579.64 192.17
  Q 580.24 189.37 582.45 184.92
  Q 587.52 174.72 595.09 164.61
  C 598.01 160.71 597.89 154.63 603.86 151.72
  A 2.02 1.97 -84.4 0 0 604.62 151.08
  Q 606.85 147.91 607.35 145.32
  Q 608.35 140.04 610.50 138.04
  A 0.68 0.68 0.0 0 0 610.57 137.12
  C 609.29 135.53 611.14 133.90 610.45 132.12
  Q 609.63 129.96 610.64 127.57
  A 0.67 0.66 22.1 0 0 610.26 126.69
  Z
  M 550.17 125.56
  L 554.44 131.82
  A 0.98 0.95 78.1 0 0 555.03 132.22
  Q 565.99 134.56 572.23 126.21
  Q 577.03 119.79 581.29 117.62
  A 2.36 2.27 -83.0 0 0 582.03 117.02
  Q 582.89 115.95 593.10 104.81
  Q 594.78 102.97 599.55 101.61
  A 3.17 3.10 19.1 0 0 600.44 101.19
  Q 603.74 98.91 607.96 97.18
  Q 609.80 96.42 611.93 97.58
  Q 621.07 102.59 625.72 105.84
  Q 628.84 108.02 630.44 111.09
  Q 638.08 125.70 633.05 141.24
  Q 629.51 152.16 628.58 154.85
  Q 626.73 160.16 624.24 163.76
  Q 623.12 165.36 616.50 173.94
  Q 613.57 177.72 606.58 190.60
  C 605.10 193.33 603.38 196.48 603.91 199.03
  A 1.31 1.28 51.5 0 1 603.83 199.80
  Q 599.18 210.52 598.54 213.09
  Q 597.04 219.05 597.35 226.00
  Q 597.38 226.74 595.97 229.71
  A 1.43 1.42 -45.7 0 0 595.98 230.94
  Q 596.85 232.72 600.53 240.47
  Q 601.99 243.55 603.58 244.57
  C 606.00 246.12 609.32 248.11 612.19 247.03
  Q 614.74 246.06 615.39 244.85
  Q 617.89 240.15 620.86 233.91
  A 2.81 2.80 -51.0 0 0 620.56 231.00
  Q 620.23 230.56 619.87 229.31
  A 2.71 2.66 41.7 0 1 619.80 228.26
  Q 620.10 226.19 620.98 218.26
  Q 624.27 188.90 642.29 166.00
  Q 644.62 163.04 650.27 157.92
  C 654.52 154.07 657.63 150.45 659.83 146.08
  Q 663.35 139.08 666.67 129.45
  Q 668.32 124.68 669.08 120.85
  A 5.35 5.35 0.0 0 0 669.08 118.75
  L 668.96 118.18
  A 3.81 3.79 -42.3 0 1 669.05 116.36
  C 670.57 111.30 669.96 108.71 668.69 103.16
  A 4.09 4.01 -69.1 0 0 668.11 101.83
  L 666.89 100.05
  A 1.05 1.02 37.5 0 1 666.76 99.16
  L 667.32 97.42
  A 1.34 1.33 -46.6 0 0 667.30 96.55
  Q 666.52 94.39 665.41 91.47
  C 663.60 86.73 659.40 84.44 656.12 81.56
  Q 654.18 79.85 651.24 78.32
  Q 644.17 74.63 640.89 73.37
  C 634.05 70.75 625.92 69.81 618.07 70.48
  Q 609.42 71.23 608.22 71.48
  Q 604.33 72.30 596.12 75.80
  A 2.69 2.68 38.2 0 1 594.67 75.97
  L 588.17 74.91
  A 2.43 2.42 36.4 0 0 586.72 75.13
  L 578.57 79.16
  A 2.24 2.23 -88.0 0 0 577.62 80.05
  L 577.13 80.90
  A 1.91 1.89 -85.4 0 1 576.20 81.70
  L 573.32 82.85
  A 0.99 0.94 -81.1 0 0 572.89 83.18
  C 570.30 86.57 568.88 89.15 566.18 91.93
  C 558.16 100.16 553.21 108.82 552.91 120.83
  Q 552.84 123.67 550.36 124.86
  A 0.49 0.48 -30.5 0 0 550.17 125.56
  Z"
/>
<path fill="#000000" d="
  M 569.46 357.15
  Q 564.87 353.96 564.12 350.60
  Q 562.44 343.10 560.20 331.80
  A 5.15 4.70 42.4 0 1 560.10 330.72
  Q 560.19 324.25 562.86 318.48
  Q 564.58 314.77 565.68 311.78
  Q 567.50 306.86 568.69 305.14
  Q 573.09 298.77 578.47 292.49
  C 580.65 289.95 582.54 289.02 586.23 288.31
  Q 591.27 287.34 600.58 285.19
  Q 605.21 284.12 611.71 285.84
  Q 622.35 288.67 623.89 289.17
  C 628.75 290.74 632.28 294.99 636.39 300.02
  C 641.96 306.82 645.50 316.11 645.48 324.25
  Q 645.45 335.44 642.83 344.87
  C 640.13 354.54 632.02 362.84 623.78 367.31
  Q 620.56 369.06 616.34 366.98
  A 1.18 1.17 -43.8 0 0 615.35 366.96
  C 610.76 368.97 604.48 370.99 599.46 369.80
  Q 588.28 367.14 582.31 365.17
  Q 575.53 362.94 570.21 357.76
  A 5.62 5.28 82.3 0 0 569.46 357.15
  Z
  M 615.02 339.50
  C 618.42 338.39 619.52 336.54 619.65 333.00
  Q 620.06 321.71 613.96 312.14
  C 612.63 310.04 610.64 308.13 608.29 308.40
  Q 605.31 308.74 598.52 311.05
  C 591.62 313.40 586.84 319.78 584.30 326.57
  Q 582.45 331.53 584.28 336.38
  C 585.78 340.36 588.68 344.25 593.26 344.63
  Q 598.61 345.06 604.53 343.00
  Q 608.00 341.79 615.02 339.50
  Z"
/>
<path fill="#000000" d="
  M 778.86 1200.00
  L 752.60 1200.00
  Q 752.00 1199.80 751.74 1199.47
  Q 751.48 1199.13 751.78 1198.53
  Q 753.68 1194.72 752.41 1190.60
  A 3.95 3.94 34.6 0 1 752.24 1189.68
  Q 750.57 1164.65 750.42 1163.09
  Q 750.20 1160.62 750.66 1157.91
  Q 751.05 1155.61 750.56 1152.85
  A 5.33 4.93 -49.9 0 1 750.50 1151.57
  Q 751.26 1140.50 750.71 1137.47
  Q 749.99 1133.54 750.27 1131.00
  Q 751.19 1122.67 750.68 1118.50
  Q 749.61 1109.81 750.78 1104.69
  A 0.58 0.21 -64.9 0 0 750.79 1104.58
  L 752.22 1087.30
  A 1.08 0.97 -51.4 0 0 752.20 1086.95
  Q 751.93 1085.68 752.08 1084.76
  Q 752.93 1079.69 752.91 1074.50
  C 752.90 1072.45 751.76 1071.53 752.81 1069.51
  A 0.84 0.83 54.0 0 0 752.89 1068.98
  L 752.01 1064.60
  A 0.72 0.68 50.3 0 1 752.03 1064.27
  Q 753.05 1061.31 752.63 1058.10
  C 752.00 1053.26 751.86 1052.32 752.49 1047.48
  Q 753.32 1041.03 750.97 1032.27
  A 2.26 2.04 42.1 0 1 750.90 1031.59
  L 751.95 1014.61
  A 1.17 0.80 61.0 0 1 751.97 1014.40
  Q 752.74 1010.93 753.48 1006.24
  Q 754.16 1001.94 750.03 1000.82
  C 740.05 998.14 728.57 993.24 721.04 986.08
  C 716.66 981.92 711.59 976.37 706.37 973.00
  A 0.80 0.80 0.0 0 0 705.23 973.28
  C 702.16 978.87 696.54 984.39 692.39 987.88
  Q 689.94 989.95 686.38 994.78
  Q 683.46 998.73 677.60 1005.33
  Q 673.52 1009.92 670.21 1011.67
  C 663.36 1015.29 656.73 1015.67 649.18 1013.08
  Q 643.99 1011.30 640.27 1008.98
  Q 633.76 1004.92 627.43 999.04
  Q 623.97 995.83 621.07 993.99
  Q 615.65 990.55 614.12 989.57
  A 1.03 1.00 56.3 0 0 613.48 989.43
  Q 613.25 989.45 613.23 989.45
  A 0.79 0.77 70.4 0 1 612.56 989.12
  Q 610.32 986.02 606.59 983.54
  A 2.02 1.89 -17.8 0 0 606.02 983.27
  L 600.86 981.69
  A 2.66 2.47 70.8 0 1 600.03 981.25
  Q 598.95 980.40 596.63 977.70
  Q 595.31 976.16 592.76 974.78
  A 2.23 2.21 33.4 0 0 589.98 975.34
  L 585.99 980.31
  A 1.35 1.19 -82.4 0 1 585.67 980.59
  Q 580.60 983.76 574.90 988.63
  Q 566.94 995.44 564.50 1005.48
  C 563.76 1008.57 561.91 1012.15 558.68 1012.62
  Q 552.59 1013.51 546.64 1011.61
  Q 543.57 1010.63 536.56 1005.65
  A 1.56 1.48 69.6 0 0 536.13 1005.44
  L 530.80 1003.72
  A 1.80 1.77 -12.5 0 1 530.03 1003.24
  C 527.82 1000.90 526.68 997.94 524.20 993.06
  A 5.84 5.82 8.8 0 0 523.06 991.51
  L 505.40 974.22
  A 3.90 3.81 78.7 0 0 504.29 973.46
  Q 499.56 971.31 496.47 969.48
  C 493.18 967.53 490.26 960.63 489.20 956.84
  A 0.42 0.42 0.0 0 0 488.54 956.62
  Q 485.37 958.95 482.64 962.98
  A 1.98 1.94 2.4 0 1 481.94 963.61
  Q 480.18 964.58 478.74 965.99
  Q 470.59 973.97 464.35 982.99
  A 3.97 3.83 -89.3 0 1 463.38 983.97
  C 459.19 986.94 455.01 987.64 448.31 989.76
  A 5.14 5.12 -38.8 0 1 444.21 989.32
  L 440.18 986.98
  A 1.18 1.18 0.0 0 0 439.22 986.89
  L 437.42 987.48
  A 1.20 1.17 -43.5 0 1 436.67 987.47
  Q 430.55 985.25 426.97 983.58
  C 425.21 982.76 423.21 981.18 421.91 980.26
  A 7.24 6.75 -2.0 0 1 420.85 979.34
  Q 415.91 974.11 411.26 969.77
  C 408.14 966.87 405.63 965.90 400.72 963.66
  A 1.48 1.45 1.3 0 1 399.97 962.89
  Q 398.53 959.50 397.85 957.21
  Q 396.83 953.78 393.70 954.66
  C 389.14 955.95 389.41 964.23 389.81 968.00
  Q 390.76 976.93 390.91 981.65
  Q 391.05 986.09 390.14 995.31
  Q 388.95 1007.36 390.14 1020.39
  C 390.37 1022.83 391.11 1025.24 390.87 1027.75
  Q 389.93 1037.50 388.50 1043.82
  A 3.07 3.03 48.4 0 0 388.45 1044.77
  L 390.22 1060.40
  A 1.67 1.57 33.7 0 0 390.32 1060.83
  L 390.78 1062.00
  A 1.43 1.41 47.9 0 1 390.73 1063.15
  Q 390.14 1064.37 390.04 1066.27
  Q 389.45 1078.57 390.27 1088.25
  Q 390.45 1090.35 390.31 1091.01
  Q 390.05 1092.31 390.09 1099.28
  C 390.10 1102.29 391.38 1105.82 390.75 1109.14
  Q 389.97 1113.18 390.12 1114.89
  C 390.32 1117.16 389.48 1121.64 390.37 1125.04
  A 2.24 2.12 43.4 0 1 390.42 1125.94
  Q 389.39 1132.73 390.23 1140.06
  C 390.43 1141.78 392.16 1143.42 390.06 1145.18
  A 1.17 1.16 -21.5 0 0 389.63 1146.16
  Q 389.84 1149.63 390.21 1150.43
  Q 392.38 1155.02 391.99 1158.92
  Q 391.69 1161.93 392.12 1163.02
  C 393.05 1165.40 393.74 1169.16 392.95 1171.43
  C 392.44 1172.89 390.55 1174.13 389.88 1175.47
  A 0.92 0.90 42.1 0 0 389.94 1176.39
  Q 391.28 1178.41 391.36 1180.25
  Q 391.70 1188.19 391.30 1200.00
  L 365.02 1200.00
  L 364.38 1199.67
  A 0.53 0.53 0.0 0 1 364.19 1198.90
  C 365.89 1196.43 367.66 1192.71 366.61 1189.65
  Q 366.17 1188.34 364.65 1184.95
  A 7.09 7.06 -58.6 0 1 364.06 1182.48
  Q 363.67 1174.94 364.05 1168.92
  Q 364.74 1158.05 364.84 1156.54
  Q 364.96 1154.64 365.16 1142.99
  Q 365.30 1134.72 364.64 1129.84
  A 1.96 1.93 51.6 0 1 364.74 1128.89
  Q 365.11 1127.84 365.08 1125.25
  Q 364.92 1113.66 365.35 1102.21
  C 365.55 1097.09 365.59 1094.19 366.68 1086.72
  C 367.36 1082.08 365.20 1080.02 364.13 1077.12
  C 362.27 1072.07 368.83 1070.54 366.83 1064.93
  Q 366.22 1063.21 366.51 1061.63
  Q 367.12 1058.36 367.08 1051.80
  Q 367.08 1050.97 366.68 1049.99
  A 1.14 1.12 42.5 0 1 366.64 1049.22
  Q 367.79 1045.34 366.64 1041.68
  Q 366.49 1041.19 366.87 1039.52
  A 5.92 5.27 -41.6 0 0 367.00 1038.42
  Q 367.02 1029.96 366.18 1022.51
  Q 365.95 1020.45 366.32 1018.48
  A 3.12 2.91 -45.9 0 0 366.34 1017.39
  Q 365.37 1011.52 368.13 1005.92
  A 0.73 0.73 0.0 0 0 368.04 1005.12
  Q 367.59 1004.55 367.58 1004.25
  Q 367.53 999.26 368.82 994.50
  C 369.39 992.36 368.43 991.01 367.91 989.05
  A 1.60 1.53 48.1 0 1 367.94 988.15
  L 370.02 982.35
  A 1.10 1.07 -37.3 0 0 370.08 981.94
  Q 369.98 978.94 367.45 977.11
  A 1.28 1.27 -39.1 0 0 366.17 976.98
  C 359.74 979.93 354.98 983.36 349.66 987.57
  C 345.45 990.90 339.19 993.70 335.11 997.16
  A 1.25 1.24 -53.8 0 1 333.83 997.36
  C 332.49 996.81 332.04 997.49 331.08 997.62
  Q 324.83 998.41 322.76 998.47
  C 316.84 998.66 312.67 994.40 308.44 989.75
  A 0.86 0.86 0.0 0 0 308.33 989.64
  L 300.97 983.89
  A 2.09 1.94 -84.7 0 1 300.36 983.10
  Q 297.30 976.13 292.40 969.62
  A 12.86 12.69 -89.6 0 0 290.23 967.39
  C 286.42 964.37 283.52 961.96 281.94 957.93
  Q 280.75 954.90 279.30 952.66
  Q 275.56 946.88 271.68 940.59
  Q 270.63 938.90 269.15 937.86
  A 2.46 2.46 0.0 0 1 268.51 937.22
  Q 264.24 931.04 262.50 922.81
  Q 261.83 919.67 262.38 914.68
  C 263.10 908.07 263.68 900.53 265.28 894.03
  C 265.76 892.08 267.05 890.82 266.01 888.58
  A 4.62 4.34 27.2 0 1 265.74 887.82
  Q 265.49 886.87 266.58 878.73
  Q 266.95 875.97 268.09 859.82
  C 268.32 856.54 269.36 853.09 268.57 849.95
  A 0.83 0.74 -49.9 0 1 268.56 849.62
  L 270.73 837.04
  A 2.12 2.12 0.0 0 0 269.16 834.63
  C 265.05 833.61 258.17 835.42 252.88 836.93
  Q 250.37 837.65 246.39 837.89
  Q 226.78 839.06 206.84 833.58
  A 3.59 3.48 -14.5 0 1 205.36 832.74
  L 196.07 823.98
  A 0.37 0.28 79.1 0 0 195.98 823.90
  Q 188.96 818.92 183.60 811.62
  Q 176.93 802.54 168.45 789.62
  Q 164.78 784.02 166.78 778.81
  A 2.45 2.43 46.6 0 0 166.82 777.15
  L 156.45 745.65
  A 2.46 2.34 35.5 0 1 156.34 745.08
  Q 156.14 742.08 154.56 735.88
  A 1.67 1.61 49.6 0 1 154.62 734.91
  Q 156.45 730.30 158.18 726.17
  Q 158.55 725.28 158.63 722.06
  A 1.66 1.62 -57.6 0 0 158.46 721.25
  Q 157.46 719.21 157.86 716.33
  C 158.97 708.44 159.55 703.63 162.04 696.67
  Q 165.50 686.99 166.20 685.19
  A 5.15 4.79 61.4 0 0 166.51 683.98
  Q 167.61 675.48 170.01 668.37
  A 4.69 4.57 -20.3 0 1 170.42 667.51
  C 174.28 661.18 177.29 654.28 181.83 648.28
  A 3.91 3.85 89.6 0 1 182.52 647.57
  Q 189.83 641.67 191.91 639.39
  Q 193.72 637.42 201.00 628.97
  C 206.13 623.02 212.88 619.10 219.47 613.98
  Q 221.36 612.50 225.74 608.09
  A 5.87 5.46 -82.1 0 1 226.65 607.35
  C 230.10 605.11 234.69 602.18 238.62 602.38
  A 3.09 3.01 33.5 0 0 239.99 602.12
  Q 242.06 601.22 243.87 601.07
  C 247.49 600.76 249.95 599.87 253.50 599.54
  A 3.99 3.97 -56.4 0 0 254.38 599.36
  Q 263.49 596.45 270.22 591.45
  A 3.29 3.15 -70.3 0 1 271.22 590.95
  Q 274.28 590.04 277.72 591.37
  A 1.80 1.77 44.4 0 0 279.01 591.37
  L 285.07 588.95
  A 1.56 1.55 3.2 0 0 285.88 588.23
  C 287.56 585.16 287.32 582.01 287.95 579.02
  Q 288.75 575.23 288.91 573.01
  Q 289.33 567.21 290.47 559.14
  A 6.47 6.18 -46.0 0 0 290.48 557.37
  Q 289.72 551.80 290.20 547.26
  Q 291.14 538.28 294.39 519.04
  A 6.27 6.17 46.7 0 0 294.43 517.25
  Q 293.68 511.19 294.10 508.80
  Q 295.49 500.78 294.39 494.33
  Q 293.69 490.28 294.15 488.19
  Q 295.72 481.12 299.78 475.81
  A 2.54 2.49 -80.8 0 1 300.92 474.97
  L 313.22 470.55
  A 2.27 2.21 -50.3 0 1 314.26 470.44
  Q 317.71 470.93 321.09 473.41
  Q 324.77 476.11 332.14 481.08
  A 8.22 7.90 -4.1 0 1 333.27 482.02
  Q 337.23 486.04 338.14 486.85
  Q 340.73 489.18 355.41 501.42
  Q 357.72 503.35 365.34 511.25
  C 366.67 512.64 368.07 512.92 369.40 511.39
  C 373.39 506.77 376.80 504.34 382.07 501.34
  Q 386.26 498.96 389.69 494.95
  Q 398.47 484.69 402.25 479.72
  A 1.69 1.61 6.6 0 1 402.94 479.20
  L 407.48 477.43
  A 1.33 1.27 -78.8 0 0 407.95 477.10
  C 414.17 470.00 423.65 471.08 430.81 476.23
  A 1.42 1.42 0.0 0 0 432.99 475.52
  C 434.09 472.25 435.11 469.84 437.54 466.49
  Q 440.52 462.36 442.38 457.53
  A 1.51 1.49 -14.7 0 1 442.63 457.11
  L 452.37 445.44
  A 1.74 1.68 77.7 0 0 452.63 445.02
  Q 454.16 441.78 454.55 441.28
  Q 462.83 430.73 473.22 423.22
  Q 487.88 412.62 506.26 401.60
  A 4.58 4.55 24.1 0 1 507.74 401.04
  Q 515.58 399.50 520.92 397.07
  A 1.44 1.43 -50.1 0 1 521.89 396.98
  L 524.75 397.75
  A 1.79 1.76 43.5 0 0 525.76 397.73
  Q 529.18 396.69 530.95 396.42
  Q 545.34 394.26 558.59 393.61
  C 560.80 393.50 563.41 392.92 565.26 393.05
  Q 583.27 394.33 593.94 394.93
  Q 595.41 395.01 596.47 395.39
  C 598.89 396.26 601.89 394.13 603.60 393.52
  A 4.22 4.21 -45.6 0 1 606.51 393.49
  L 628.32 401.28
  A 1.47 0.19 8.2 0 0 628.47 401.32
  Q 635.90 402.83 643.60 404.09
  Q 652.38 405.51 657.13 407.27
  Q 665.22 410.28 669.81 412.95
  Q 672.67 414.63 683.23 422.18
  A 1.51 1.36 -2.9 0 1 683.45 422.36
  L 695.90 434.89
  A 1.53 1.48 79.7 0 0 696.36 435.22
  L 701.06 437.41
  A 4.67 4.63 80.6 0 1 702.39 438.37
  C 704.35 440.22 707.62 444.94 710.16 447.18
  C 714.11 450.66 718.18 455.60 722.61 459.27
  C 726.71 462.66 728.86 464.80 732.36 468.91
  Q 734.57 471.51 737.42 474.02
  Q 738.47 474.95 739.43 478.31
  Q 741.26 484.70 742.12 489.42
  Q 742.50 491.51 744.85 492.46
  A 1.07 1.06 -59.9 0 0 746.10 492.12
  L 754.71 481.03
  A 1.18 1.13 1.3 0 1 754.94 480.82
  C 762.42 475.74 771.42 477.86 777.72 483.51
  C 785.99 490.94 793.91 501.73 801.03 511.70
  Q 805.61 518.11 808.90 526.31
  Q 809.18 527.01 811.40 529.38
  Q 813.71 531.86 816.09 529.33
  Q 817.48 527.86 822.16 521.49
  A 6.80 6.55 88.9 0 1 823.18 520.39
  C 825.52 518.36 827.53 516.93 829.18 514.46
  Q 830.21 512.93 835.47 506.48
  Q 839.38 501.71 843.80 499.27
  A 1.02 1.01 -7.3 0 0 844.28 498.65
  Q 846.70 489.43 854.69 486.16
  Q 858.56 484.57 864.50 483.81
  Q 872.10 482.83 877.16 488.66
  C 879.79 491.68 879.78 494.52 878.82 498.72
  Q 877.35 505.18 878.20 511.46
  A 2.05 2.02 24.7 0 0 878.54 512.36
  L 880.23 514.83
  A 1.10 1.10 0.0 0 1 880.27 515.99
  L 879.73 516.93
  A 1.14 1.10 -33.2 0 0 879.58 517.59
  Q 880.22 524.39 878.55 529.85
  A 2.88 2.86 40.6 0 0 878.72 531.95
  Q 881.51 537.63 880.94 544.25
  Q 880.63 547.85 879.65 558.38
  Q 879.32 561.91 879.84 566.64
  Q 880.18 569.66 882.43 570.25
  A 1.63 1.62 -50.4 0 0 883.57 570.14
  Q 888.15 567.92 896.01 568.52
  Q 906.30 569.30 916.71 571.74
  C 923.95 573.43 928.54 575.97 936.98 579.55
  A 1.35 1.32 -38.1 0 0 937.73 579.63
  L 938.02 579.57
  A 1.00 0.96 56.0 0 1 938.80 579.74
  Q 948.31 586.67 954.10 590.91
  Q 955.39 591.85 956.40 594.74
  A 1.24 1.24 0.0 0 0 957.01 595.42
  Q 959.69 596.75 960.18 597.36
  Q 967.11 606.12 973.74 609.10
  A 0.61 0.56 78.3 0 1 973.95 609.25
  L 984.44 620.02
  A 3.81 3.44 -87.1 0 1 984.79 620.45
  L 986.46 622.89
  A 3.18 3.15 21.9 0 1 986.91 623.93
  L 988.61 631.00
  A 1.79 1.76 -68.5 0 0 988.84 631.54
  L 991.97 636.47
  A 5.72 5.44 -70.1 0 1 992.63 637.98
  Q 994.59 645.21 996.37 652.88
  Q 997.24 656.66 1002.31 665.16
  A 2.52 2.38 27.0 0 1 1002.62 666.03
  Q 1003.44 671.23 1004.31 679.94
  Q 1004.48 681.57 1006.01 684.87
  A 1.94 1.92 -54.1 0 1 1006.17 685.92
  Q 1006.16 686.02 1005.96 686.66
  Q 1005.78 687.27 1005.80 687.59
  Q 1006.22 693.90 1006.17 698.42
  C 1006.15 700.82 1008.07 702.36 1006.48 704.73
  A 1.15 1.13 -39.4 0 0 1006.37 705.78
  C 1007.55 708.77 1006.88 710.01 1006.22 713.70
  C 1005.91 715.46 1007.26 717.18 1006.48 718.82
  A 1.56 1.54 46.4 0 0 1006.46 720.10
  Q 1007.09 721.59 1006.87 722.73
  Q 1005.74 728.59 1005.20 732.65
  Q 1004.66 736.68 1003.43 740.15
  Q 1001.21 746.38 1000.63 747.47
  A 1.56 1.54 51.6 0 0 1000.50 748.65
  Q 1000.93 750.17 1000.50 752.05
  Q 996.27 770.32 994.65 774.51
  Q 993.27 778.05 990.85 782.94
  Q 989.00 786.67 987.37 791.53
  Q 983.98 801.61 982.06 805.85
  Q 979.07 812.44 974.90 822.38
  Q 972.81 827.39 969.24 830.98
  Q 966.69 833.56 959.37 839.11
  Q 956.50 841.28 955.26 842.54
  C 953.38 844.45 950.65 846.11 948.82 848.52
  Q 947.90 849.73 945.23 850.90
  Q 941.58 852.50 939.24 851.55
  A 1.66 1.62 -37.4 0 0 938.32 851.44
  Q 927.32 853.31 916.71 851.67
  A 2.57 2.54 42.2 0 0 915.76 851.71
  Q 910.74 852.83 905.94 850.56
  Q 898.70 847.14 892.09 844.79
  A 2.89 2.88 -65.9 0 0 888.60 846.13
  Q 887.41 848.29 887.10 851.78
  Q 886.94 853.67 886.54 856.50
  Q 885.20 866.20 886.13 873.88
  A 5.46 4.46 -61.0 0 0 886.26 874.60
  Q 887.04 877.63 886.75 878.51
  Q 883.95 887.09 884.10 895.23
  Q 884.13 897.00 884.98 900.57
  A 3.97 3.60 42.2 0 1 885.08 901.59
  L 884.86 906.33
  A 1.58 1.55 -21.5 0 1 884.40 907.36
  L 883.25 908.51
  A 0.82 0.76 78.5 0 0 883.06 908.82
  Q 880.97 915.10 880.73 916.72
  Q 879.41 925.41 878.40 932.59
  A 0.60 0.07 -83.7 0 1 878.38 932.68
  L 876.59 939.09
  A 1.55 1.51 -16.2 0 1 876.24 939.71
  Q 875.36 940.67 874.65 942.39
  Q 872.03 948.79 870.98 956.00
  A 4.55 4.49 61.7 0 1 870.67 957.06
  Q 867.29 964.83 864.49 969.27
  Q 862.60 972.28 856.75 980.43
  Q 854.64 983.36 853.22 986.37
  C 851.04 990.99 849.91 993.94 845.63 995.63
  A 2.53 2.51 38.8 0 1 844.31 995.77
  L 833.20 993.96
  A 2.16 2.14 -16.5 0 1 831.97 993.30
  C 830.14 991.32 828.36 989.10 825.64 986.77
  Q 820.71 982.58 816.89 976.59
  A 4.50 4.14 6.3 0 0 816.06 975.64
  Q 814.66 974.43 806.20 966.26
  Q 803.68 963.83 800.43 964.57
  A 3.07 3.05 -75.8 0 0 798.79 965.55
  Q 790.78 974.68 788.37 977.86
  C 786.18 980.77 784.18 982.28 780.27 983.45
  Q 777.34 984.33 774.34 986.27
  A 2.07 2.07 0.0 0 0 773.71 989.12
  C 775.70 992.29 775.42 995.47 775.26 999.11
  Q 775.08 1003.08 774.32 1006.45
  C 773.89 1008.33 774.97 1011.98 775.04 1014.52
  C 775.18 1019.50 775.58 1023.57 774.80 1026.55
  A 2.24 2.12 -43.4 0 0 774.75 1027.45
  Q 776.03 1036.17 775.97 1037.51
  Q 775.64 1045.06 775.80 1052.14
  Q 775.93 1058.29 775.61 1061.96
  Q 775.00 1068.71 774.95 1071.76
  Q 774.92 1073.59 774.33 1076.17
  A 6.73 6.56 49.6 0 0 774.19 1078.22
  L 775.10 1089.20
  A 0.83 0.72 -41.2 0 1 775.06 1089.50
  L 774.28 1091.81
  A 1.79 1.76 46.5 0 0 774.26 1092.82
  Q 775.08 1095.58 775.83 1100.48
  C 776.07 1102.04 777.17 1103.85 776.81 1105.24
  Q 774.98 1112.34 774.66 1113.16
  A 1.32 1.31 44.7 0 0 774.67 1114.18
  Q 775.21 1115.47 774.33 1116.88
  A 0.92 0.90 -44.4 0 0 774.31 1117.80
  Q 775.38 1119.69 774.87 1121.43
  C 774.00 1124.38 774.46 1125.88 774.30 1129.33
  Q 774.24 1130.87 774.46 1133.66
  Q 775.42 1145.75 775.06 1149.33
  Q 774.95 1150.35 774.55 1151.83
  A 1.27 1.22 -43.9 0 0 774.53 1152.37
  L 776.97 1164.56
  A 2.02 1.94 -43.8 0 1 776.93 1165.52
  L 776.19 1168.01
  A 1.49 1.47 -46.7 0 0 776.21 1168.90
  Q 776.90 1170.85 777.50 1178.50
  Q 777.83 1182.76 777.27 1185.29
  A 1.71 1.66 42.2 0 0 777.33 1186.24
  Q 779.90 1193.52 778.86 1200.00
  Z
  M 482.78 511.27
  Q 483.29 509.56 487.33 505.31
  Q 487.75 504.87 488.06 503.50
  A 0.59 0.58 21.3 0 1 488.93 503.12
  L 489.28 503.32
  A 0.94 0.94 0.0 0 0 490.28 503.29
  Q 495.17 500.03 501.48 494.49
  C 506.32 490.25 509.39 485.54 514.03 480.05
  C 519.15 473.97 525.91 473.72 532.71 472.17
  C 536.97 471.19 539.42 472.90 542.61 476.17
  Q 549.88 483.62 559.06 490.20
  Q 564.13 493.83 574.09 504.14
  C 575.25 505.35 577.61 507.35 579.11 508.51
  Q 580.16 509.33 582.49 511.69
  Q 588.07 517.37 594.37 521.93
  A 1.79 1.79 0.0 0 0 596.73 521.71
  Q 604.96 513.05 614.18 506.44
  Q 616.94 504.46 622.11 501.49
  Q 628.52 497.79 630.08 496.58
  Q 638.33 490.15 641.76 487.67
  A 3.64 3.48 18.7 0 1 642.98 487.10
  C 648.08 485.76 653.56 486.48 657.67 486.22
  C 665.26 485.75 670.78 488.49 673.76 495.66
  C 676.15 501.41 679.11 505.37 684.05 510.95
  Q 684.85 511.85 688.66 519.27
  A 4.58 4.45 -79.7 0 0 689.15 520.00
  Q 691.62 522.94 693.27 523.99
  Q 699.17 527.77 700.01 528.84
  Q 704.41 534.48 709.99 539.85
  Q 712.20 541.97 713.64 542.51
  A 2.03 1.96 -37.7 0 0 714.66 542.62
  Q 717.65 542.17 718.54 540.01
  Q 721.54 532.77 725.03 528.38
  A 0.77 0.77 0.0 0 1 725.41 528.12
  L 725.82 527.99
  A 0.76 0.76 0.0 0 0 726.33 527.11
  Q 724.71 519.23 720.80 508.76
  Q 720.11 506.91 719.13 505.27
  C 717.69 502.83 717.07 500.39 715.32 498.10
  Q 713.27 495.41 712.86 494.35
  A 2.18 2.17 9.1 0 0 712.19 493.43
  Q 710.59 492.12 706.31 486.33
  Q 702.31 480.93 697.52 476.27
  C 693.18 472.06 690.16 469.88 686.46 465.63
  Q 684.87 463.80 681.55 460.37
  Q 666.69 445.05 648.85 435.56
  A 5.08 4.29 62.3 0 0 647.99 435.21
  Q 637.82 432.21 627.57 431.64
  A 3.82 3.52 54.4 0 1 626.51 431.42
  Q 619.26 428.81 617.79 428.67
  C 611.25 428.05 608.03 426.41 600.58 423.20
  A 5.44 5.43 46.1 0 0 596.47 423.12
  Q 592.53 424.66 586.91 423.65
  A 2.67 2.64 -22.5 0 1 585.95 423.26
  Q 582.13 420.73 577.87 420.96
  Q 574.27 421.15 572.66 421.04
  Q 558.31 420.08 542.90 421.47
  Q 540.90 421.65 539.66 421.57
  A 1.67 0.05 3.5 0 0 538.35 421.53
  Q 528.66 422.57 522.59 423.62
  Q 514.32 425.06 508.71 427.92
  C 500.60 432.06 493.51 437.23 486.69 442.81
  C 485.24 444.00 484.41 445.38 483.07 445.89
  A 2.00 1.97 -75.7 0 0 482.44 446.27
  Q 472.92 454.52 466.29 464.54
  Q 463.13 469.30 460.80 471.32
  A 2.26 2.18 88.9 0 0 460.56 471.58
  L 454.36 480.16
  A 1.41 0.40 -72.8 0 0 454.28 480.29
  L 451.57 485.82
  A 1.27 1.26 26.8 0 0 452.13 487.50
  C 456.51 489.73 460.18 494.58 464.05 497.42
  C 467.99 500.32 472.57 502.62 477.40 505.01
  A 3.90 3.83 85.8 0 1 478.87 506.30
  L 482.31 511.34
  A 0.26 0.26 0.0 0 0 482.78 511.27
  Z
  M 744.66 967.67
  C 748.08 966.44 752.80 964.53 756.66 962.30
  Q 761.80 959.34 766.18 957.42
  A 3.18 3.04 10.1 0 0 767.07 956.83
  Q 771.47 952.65 776.98 947.30
  Q 779.39 944.97 793.55 934.83
  A 1.93 1.77 89.9 0 0 794.09 934.24
  L 794.32 933.84
  A 1.37 1.36 8.8 0 1 795.20 933.20
  C 800.29 932.12 803.38 931.00 806.97 931.52
  A 3.06 2.95 40.9 0 0 808.11 931.46
  Q 815.19 929.63 821.22 933.58
  A 4.08 4.07 -82.3 0 1 822.86 935.74
  Q 824.68 941.50 828.33 946.93
  A 2.63 2.52 89.1 0 0 829.02 947.63
  C 835.28 951.86 839.76 954.49 842.86 959.95
  A 0.97 0.97 0.0 0 0 843.95 960.40
  L 844.02 960.38
  A 0.61 0.61 0.0 0 0 844.39 959.49
  Q 843.77 958.39 843.59 956.74
  A 1.72 1.70 -34.6 0 1 843.77 955.79
  C 845.73 952.05 849.07 947.66 849.96 945.18
  Q 852.13 939.10 853.09 932.56
  A 2.50 2.40 41.5 0 0 853.00 931.47
  Q 852.15 928.85 852.49 927.79
  Q 856.34 915.71 856.56 913.35
  Q 857.38 904.52 858.76 896.36
  A 0.56 0.53 -43.4 0 0 858.77 896.18
  L 858.36 892.14
  A 6.94 6.76 47.1 0 1 858.40 890.49
  L 860.11 879.31
  A 5.14 4.92 49.0 0 0 860.16 878.26
  L 858.65 853.38
  A 2.36 2.05 41.0 0 0 858.60 853.02
  Q 857.25 847.16 858.90 842.68
  A 1.28 1.27 40.5 0 0 858.81 841.58
  Q 858.08 840.33 858.02 839.72
  Q 857.54 834.56 857.20 832.16
  A 1.43 1.42 -89.2 0 0 856.04 830.96
  C 849.84 829.82 844.35 828.63 839.14 825.52
  Q 824.76 816.95 817.88 803.01
  C 814.38 795.91 814.66 787.44 815.66 780.17
  Q 816.52 773.84 821.29 767.54
  A 0.94 0.94 0.0 0 0 820.97 766.14
  Q 815.19 763.12 813.38 757.40
  C 812.13 753.44 811.36 752.24 812.28 748.61
  C 813.52 743.76 812.81 739.71 811.94 734.24
  C 811.28 730.03 813.62 726.59 813.07 722.48
  Q 812.92 721.39 811.05 719.24
  C 805.57 712.96 803.41 703.14 807.11 695.11
  Q 809.39 690.16 812.57 686.03
  A 0.93 0.92 54.6 0 0 812.71 685.17
  L 811.02 680.02
  A 1.26 1.23 6.1 0 0 810.44 679.32
  C 806.52 677.08 802.31 672.45 804.14 667.64
  Q 804.97 665.48 806.45 661.57
  A 4.02 3.75 -32.7 0 0 806.68 660.67
  Q 808.74 644.57 824.06 639.31
  Q 836.48 635.04 849.79 634.05
  C 852.49 633.85 855.09 632.52 857.59 633.57
  A 0.92 0.91 -55.5 0 0 858.59 633.38
  Q 861.20 630.84 860.59 627.91
  Q 860.05 625.29 860.10 624.09
  C 860.24 620.54 859.14 614.07 860.42 609.19
  A 2.22 2.10 49.1 0 0 860.46 608.27
  C 859.17 600.62 858.17 595.66 858.14 590.65
  A 6.21 5.60 54.1 0 1 858.28 589.36
  Q 859.26 585.02 858.46 582.02
  C 856.11 573.20 855.79 566.27 854.31 557.65
  C 853.87 555.08 854.11 553.46 854.76 551.04
  Q 856.29 545.32 852.47 541.66
  C 851.72 540.95 851.30 540.03 851.08 538.98
  A 0.44 0.43 -36.1 0 0 850.28 538.86
  Q 849.40 540.39 848.41 541.15
  A 2.42 2.31 -68.6 0 1 847.46 541.59
  Q 844.38 542.22 841.59 544.27
  A 5.50 5.34 -1.7 0 0 840.32 545.58
  Q 836.14 551.64 834.28 553.64
  Q 833.00 555.02 824.68 561.46
  A 1.00 0.97 -72.4 0 1 824.42 561.60
  L 814.40 565.72
  A 3.52 3.50 39.5 0 1 812.38 565.91
  Q 803.85 564.22 798.67 560.53
  A 6.36 6.34 -2.4 0 1 797.57 559.52
  Q 794.20 555.68 791.37 550.88
  Q 786.54 542.71 781.08 533.63
  A 2.35 2.00 10.7 0 0 780.71 533.17
  L 776.06 528.81
  A 1.33 1.14 -85.6 0 1 775.84 528.51
  L 768.69 515.34
  A 0.27 0.27 0.0 0 0 768.21 515.34
  C 767.42 516.81 766.49 517.61 765.82 519.04
  Q 764.75 521.37 763.05 523.03
  A 2.42 2.36 -13.3 0 0 762.49 523.91
  Q 758.59 534.85 751.19 544.77
  A 5.07 4.70 -16.2 0 0 750.71 545.57
  Q 747.69 551.91 746.45 553.75
  Q 742.58 559.49 734.63 569.28
  A 3.64 3.60 -86.3 0 1 733.74 570.07
  Q 726.98 574.49 718.58 576.34
  A 4.23 4.18 43.6 0 1 716.93 576.37
  Q 714.48 575.93 711.79 574.49
  Q 704.16 570.42 699.02 566.15
  A 5.07 4.89 -10.5 0 0 698.25 565.64
  Q 688.74 560.53 681.72 553.19
  Q 680.23 551.64 678.20 549.90
  Q 676.07 548.07 674.75 546.48
  Q 673.18 544.58 670.48 541.78
  Q 665.82 536.93 660.42 529.35
  Q 658.10 526.09 655.95 520.34
  Q 655.70 519.66 653.46 518.09
  A 0.92 0.92 0.0 0 0 652.52 518.03
  C 649.56 519.60 648.48 520.78 645.08 524.05
  A 6.99 6.99 0.0 0 1 641.33 525.93
  L 636.10 526.77
  A 3.55 3.47 -61.6 0 0 635.14 527.07
  Q 632.92 528.14 631.07 529.82
  Q 625.21 535.17 625.06 535.33
  A 2.97 2.97 0.0 0 0 624.51 536.12
  Q 620.97 543.75 620.04 544.69
  Q 613.02 551.75 603.53 554.36
  C 600.43 555.21 597.33 556.44 595.14 555.82
  Q 592.28 555.02 586.43 551.56
  Q 579.20 547.28 566.68 535.93
  A 3.38 3.33 -8.6 0 0 566.02 535.45
  C 559.03 531.51 553.22 528.16 550.66 523.14
  Q 548.45 518.81 545.97 516.01
  C 544.71 514.59 542.96 515.05 541.30 514.40
  A 2.03 1.94 82.7 0 1 540.42 513.69
  C 538.07 510.26 536.04 506.56 531.00 509.30
  C 527.92 510.98 525.12 513.87 521.07 515.08
  A 0.82 0.81 87.2 0 0 520.50 515.72
  Q 520.32 516.65 519.25 518.22
  Q 514.01 525.92 506.99 529.36
  A 3.84 3.68 -78.9 0 0 506.08 530.00
  C 499.78 535.97 491.98 543.58 484.24 541.45
  A 3.99 3.93 -42.7 0 0 482.44 541.39
  L 479.79 541.92
  A 1.84 1.77 -39.8 0 1 478.82 541.85
  L 472.40 539.56
  A 0.94 0.83 -8.7 0 1 472.09 539.36
  L 466.99 533.98
  A 2.40 2.33 80.6 0 0 466.30 533.47
  L 463.16 531.87
  A 1.74 1.74 0.0 0 0 461.99 531.73
  Q 461.80 531.77 461.70 531.79
  A 2.04 2.01 51.9 0 1 460.54 531.64
  Q 454.65 528.97 451.90 526.87
  Q 449.14 524.76 440.79 516.07
  Q 438.04 513.21 435.83 511.56
  C 432.26 508.89 430.52 507.21 426.81 505.58
  A 3.00 2.89 -12.4 0 1 426.03 505.10
  Q 424.18 503.50 420.89 502.45
  A 1.73 1.68 -44.2 0 0 419.84 502.45
  Q 414.55 504.09 412.66 507.20
  Q 409.74 511.96 408.07 513.55
  Q 403.97 517.44 395.74 522.39
  A 19.83 19.47 8.3 0 0 392.91 524.46
  Q 385.30 531.17 377.22 535.14
  Q 371.43 537.98 368.72 538.08
  Q 366.07 538.17 359.03 535.83
  A 7.05 6.88 -15.8 0 1 356.82 534.63
  Q 352.00 530.72 348.64 526.32
  A 4.91 4.49 88.7 0 0 347.95 525.60
  C 344.22 522.42 339.25 517.32 334.16 513.13
  C 331.00 510.52 329.86 506.78 324.98 506.50
  A 1.35 1.34 1.0 0 0 323.56 507.87
  Q 323.72 517.93 320.84 528.83
  A 2.13 2.11 47.7 0 0 320.80 529.74
  C 321.62 534.61 320.49 537.51 318.58 542.80
  A 0.60 0.46 -37.0 0 0 318.54 542.94
  L 316.10 554.65
  A 1.23 1.18 41.3 0 0 316.16 555.36
  L 318.45 561.12
  A 0.97 0.96 -34.5 0 1 318.26 562.14
  Q 315.50 565.07 315.78 568.98
  Q 316.15 574.09 314.56 579.20
  A 4.52 4.46 -37.5 0 0 314.36 580.65
  C 314.42 583.43 313.62 586.94 314.77 590.52
  A 1.75 1.74 47.6 0 1 314.72 591.68
  Q 314.01 593.44 314.48 594.85
  A 1.74 1.74 0.0 0 1 314.56 595.67
  L 312.49 609.37
  A 1.12 1.11 -49.6 0 0 312.53 609.88
  Q 313.35 612.70 312.73 614.51
  Q 308.58 626.77 307.94 631.02
  C 307.31 635.18 309.84 638.12 309.08 642.80
  A 2.05 2.03 -20.7 0 1 308.63 643.78
  C 306.79 646.01 305.26 648.33 305.33 651.57
  A 2.70 2.68 -76.7 0 0 306.76 653.90
  Q 313.97 657.69 320.50 663.78
  A 5.31 4.85 7.7 0 1 321.31 664.75
  Q 326.12 672.28 326.64 673.62
  Q 329.26 680.35 335.08 694.41
  Q 335.56 695.57 334.81 697.32
  A 1.07 1.06 43.4 0 0 334.84 698.23
  Q 338.08 704.72 340.26 712.13
  C 341.26 715.53 341.20 719.46 341.35 722.88
  C 341.39 723.76 340.76 724.69 340.63 725.21
  A 1.22 1.21 40.8 0 0 340.69 726.01
  Q 341.71 728.35 340.83 730.50
  A 0.79 0.71 -42.0 0 0 340.79 730.88
  L 342.86 741.92
  A 2.86 1.87 62.9 0 0 342.96 742.30
  L 344.67 747.86
  A 0.37 0.18 -70.7 0 1 344.68 747.95
  L 346.54 770.02
  A 0.93 0.83 -60.3 0 0 346.59 770.25
  L 352.93 786.17
  A 1.95 1.49 37.3 0 1 353.04 786.57
  Q 354.92 799.45 347.54 810.35
  Q 345.40 813.53 341.51 815.27
  Q 330.85 820.03 325.84 821.86
  Q 324.28 822.43 322.83 823.36
  A 1.44 1.14 -62.9 0 1 322.50 823.51
  L 310.93 827.37
  A 3.86 3.69 30.4 0 1 310.21 827.54
  Q 301.46 828.68 300.28 828.74
  C 297.81 828.88 296.08 829.77 295.74 832.26
  Q 295.74 832.28 294.28 847.49
  Q 292.83 862.67 292.92 873.05
  Q 292.96 878.09 292.11 883.40
  Q 291.66 886.25 290.85 893.74
  Q 290.29 898.96 288.49 905.44
  A 3.82 3.77 47.3 0 0 288.43 907.20
  C 289.26 911.38 289.72 916.53 287.99 920.53
  A 2.10 2.05 53.4 0 0 287.84 921.64
  Q 288.04 923.13 288.83 924.55
  Q 295.48 936.64 303.97 948.63
  C 306.85 952.70 311.10 955.64 313.42 957.64
  A 5.63 5.62 14.1 0 1 315.21 960.62
  Q 315.91 963.65 316.26 964.70
  C 317.52 968.51 321.32 971.12 325.07 971.97
  A 2.49 2.48 29.9 0 0 327.31 971.37
  C 329.83 969.04 331.33 967.91 334.68 966.61
  Q 341.21 964.08 342.72 962.96
  Q 347.90 959.09 357.87 949.73
  Q 364.60 943.40 368.46 940.70
  Q 373.48 937.20 379.78 932.52
  C 385.26 928.45 390.86 927.92 397.05 926.83
  C 401.85 925.97 403.82 928.35 407.89 929.80
  Q 409.22 930.27 415.73 933.05
  C 418.79 934.36 421.27 938.13 422.84 940.48
  Q 423.81 941.94 426.14 944.21
  Q 434.28 952.17 441.64 957.33
  Q 445.24 959.86 448.36 957.51
  A 1.28 1.26 -11.9 0 0 448.80 956.85
  L 450.02 952.12
  A 2.04 2.00 71.0 0 1 450.38 951.36
  C 450.99 950.61 451.78 950.20 452.53 949.28
  Q 456.89 943.92 460.20 941.45
  Q 460.81 940.99 463.79 939.61
  A 1.91 1.86 -85.5 0 0 464.59 938.91
  Q 468.24 933.15 474.58 927.84
  Q 478.02 924.95 481.57 924.30
  C 486.99 923.30 492.08 924.86 496.12 925.31
  A 2.40 2.34 -23.3 0 1 497.24 925.74
  Q 503.99 930.58 505.16 931.85
  Q 510.88 938.00 513.82 941.11
  C 518.84 946.41 525.23 951.54 530.51 955.79
  Q 533.66 958.33 537.01 962.30
  C 540.32 966.22 543.84 969.71 546.54 974.05
  A 1.61 1.61 0.0 0 0 549.24 974.09
  L 552.27 969.55
  A 1.01 0.89 -87.4 0 1 552.51 969.30
  Q 563.35 961.13 574.44 952.64
  Q 580.76 947.80 584.72 946.27
  Q 589.87 944.29 596.38 943.15
  A 1.62 1.62 0.0 0 1 597.41 943.30
  Q 600.17 944.67 600.41 944.84
  Q 612.36 953.50 624.37 961.04
  C 627.36 962.92 629.66 964.96 631.95 966.09
  C 635.73 967.95 639.59 971.43 642.80 973.52
  Q 644.45 974.59 645.33 974.82
  C 647.05 975.29 647.20 976.87 648.16 978.31
  C 651.93 984.00 656.80 982.88 661.36 979.09
  C 669.02 972.72 673.96 965.77 680.10 956.61
  C 682.98 952.31 685.92 948.97 689.88 947.35
  Q 696.67 944.58 698.66 943.36
  A 3.23 3.07 1.4 0 0 699.51 942.59
  L 700.45 941.32
  A 1.39 1.38 -65.6 0 1 701.84 940.79
  L 711.28 942.78
  A 5.16 5.12 -19.6 0 1 713.37 943.76
  Q 718.09 947.45 725.43 951.67
  C 729.76 954.16 732.87 956.65 736.85 959.59
  A 2.20 1.77 82.1 0 1 737.20 959.92
  L 743.92 967.48
  A 0.68 0.67 58.8 0 0 744.66 967.67
  Z
  M 956.10 635.46
  L 948.67 629.13
  A 1.22 1.16 -78.9 0 1 948.30 628.55
  Q 947.61 626.20 945.84 624.38
  Q 938.98 617.34 929.10 609.44
  C 926.46 607.33 923.65 605.87 920.84 605.14
  Q 907.19 601.61 892.55 596.47
  Q 890.18 595.63 889.35 595.00
  Q 889.02 594.74 886.42 592.78
  A 1.74 1.74 0.0 0 0 883.69 593.72
  L 882.48 598.20
  A 3.21 3.16 44.5 0 0 882.51 600.00
  Q 883.39 602.91 883.27 608.27
  Q 883.14 614.30 882.46 620.44
  C 881.70 627.21 880.70 633.60 881.91 639.31
  A 0.89 0.87 1.2 0 0 882.58 639.99
  Q 886.45 640.93 887.39 641.63
  Q 889.41 643.16 890.86 643.91
  A 1.16 1.16 0.0 0 0 891.75 643.98
  L 894.16 643.19
  A 1.06 0.99 40.2 0 1 894.74 643.16
  C 903.44 645.02 910.35 646.67 912.97 655.79
  Q 914.72 661.86 914.44 663.85
  Q 913.91 667.72 912.50 669.85
  C 910.43 672.98 902.66 674.66 899.97 674.02
  A 5.99 5.96 -26.7 0 1 898.96 673.69
  Q 894.76 671.94 892.37 670.94
  C 885.92 668.23 878.63 668.62 872.02 666.36
  C 864.47 663.79 859.50 661.54 852.86 663.32
  A 1.19 1.17 49.5 0 1 852.06 663.25
  Q 851.56 663.02 851.25 662.98
  C 846.59 662.36 838.67 661.34 834.90 663.97
  C 830.12 667.31 837.76 671.60 840.44 672.43
  Q 842.84 673.18 845.17 674.70
  Q 847.36 676.13 851.72 677.12
  A 4.77 4.72 66.7 0 1 853.13 677.69
  Q 856.85 679.92 861.24 680.91
  A 5.18 4.89 -23.4 0 1 862.40 681.33
  Q 869.94 685.15 873.98 685.59
  Q 881.09 686.38 884.56 687.52
  Q 887.32 688.43 893.82 692.68
  A 7.21 7.21 0.0 0 0 895.42 693.48
  Q 901.91 695.83 908.89 698.43
  C 913.36 700.10 917.09 700.54 921.75 700.99
  Q 927.05 701.51 928.23 706.75
  Q 929.22 711.12 929.23 711.41
  A 3.77 3.76 -33.9 0 1 928.91 713.02
  Q 927.52 716.16 924.63 717.92
  C 918.60 721.59 912.70 723.72 905.45 721.81
  A 4.51 4.30 64.8 0 1 904.60 721.48
  Q 898.04 718.08 888.97 715.61
  A 1.30 1.05 60.6 0 1 888.62 715.47
  L 883.66 712.70
  A 4.53 4.47 -23.0 0 0 882.47 712.23
  Q 880.71 711.80 877.43 710.48
  C 872.79 708.60 867.90 708.57 863.03 706.93
  Q 859.04 705.59 849.75 702.62
  Q 845.24 701.18 842.24 699.66
  Q 838.84 697.93 834.71 696.50
  A 0.95 0.95 0.0 0 0 833.49 697.66
  C 834.63 701.45 836.11 703.68 833.70 707.56
  A 1.41 1.41 0.0 0 0 834.42 709.63
  L 844.66 713.28
  A 0.66 0.64 72.3 0 1 844.81 713.36
  Q 849.97 717.12 851.11 717.64
  Q 861.22 722.31 873.43 725.97
  A 1.32 1.30 -45.4 0 0 874.19 725.96
  L 876.79 725.10
  A 2.02 2.00 55.7 0 1 878.71 725.47
  Q 890.63 735.46 905.26 736.98
  A 5.91 5.66 -29.5 0 1 906.76 737.36
  Q 913.15 739.99 914.96 741.26
  Q 924.94 748.26 916.81 757.67
  Q 913.71 761.26 908.29 760.74
  Q 902.68 760.20 901.08 759.57
  Q 893.19 756.45 889.50 755.51
  Q 880.48 753.21 875.16 749.95
  A 3.14 3.03 -26.0 0 0 873.78 749.50
  Q 871.28 749.31 871.00 749.25
  Q 860.10 746.77 851.14 743.67
  A 7.76 7.73 -20.1 0 1 849.69 743.00
  C 845.39 740.46 839.97 738.44 837.61 743.86
  C 835.41 748.93 843.79 752.66 847.88 755.01
  C 849.82 756.13 851.58 756.68 853.69 757.16
  A 3.65 3.57 68.6 0 1 854.98 757.74
  Q 857.42 759.46 862.71 761.58
  C 868.90 764.06 872.37 764.99 877.33 767.79
  Q 885.21 772.22 888.63 773.62
  Q 910.30 782.44 914.01 783.71
  C 918.80 785.37 923.37 786.35 923.69 792.52
  Q 923.92 796.82 923.54 800.07
  Q 923.13 803.55 919.44 804.16
  Q 915.70 804.79 914.47 804.86
  C 912.25 804.97 909.39 806.50 906.52 805.73
  Q 905.19 805.37 900.63 801.96
  A 2.86 2.75 -18.3 0 0 899.65 801.49
  C 897.48 800.94 893.72 800.08 890.96 798.94
  Q 868.17 789.56 862.89 787.54
  A 3.61 3.48 -14.4 0 1 861.99 787.03
  Q 860.28 785.70 859.22 785.30
  Q 856.22 784.20 850.12 781.72
  Q 845.87 780.00 843.85 780.41
  C 836.30 781.96 839.90 790.29 842.41 795.25
  A 2.15 2.05 9.9 0 0 842.87 795.87
  Q 843.86 796.78 845.77 799.47
  C 850.43 805.99 857.19 807.74 866.11 809.30
  A 2.17 2.16 70.9 0 1 867.15 809.81
  L 872.89 815.06
  A 1.17 1.02 -10.3 0 0 873.21 815.25
  Q 881.27 818.23 887.60 819.20
  A 5.52 5.51 65.8 0 1 889.73 820.01
  Q 897.91 825.31 905.03 826.71
  Q 914.88 828.64 916.52 828.78
  Q 920.12 829.08 921.96 829.64
  C 927.07 831.18 930.98 828.91 934.88 826.99
  A 0.79 0.78 45.4 0 1 935.58 827.00
  Q 936.49 827.48 938.45 825.96
  C 944.21 821.50 950.57 815.66 953.69 808.80
  C 955.68 804.41 958.58 799.46 960.20 794.68
  Q 964.49 782.02 968.25 769.86
  A 2.09 2.05 49.9 0 0 968.32 768.94
  C 967.85 766.17 970.67 760.49 972.08 757.44
  A 3.73 3.60 -28.8 0 0 972.35 756.57
  L 976.63 730.30
  A 2.17 1.95 -47.2 0 0 976.64 729.63
  L 976.36 727.84
  A 0.85 0.81 -43.6 0 1 976.38 727.44
  L 978.63 718.68
  A 4.08 4.00 47.1 0 0 978.68 716.84
  L 976.75 707.19
  A 0.56 0.53 -43.4 0 1 976.76 707.01
  L 978.46 701.80
  A 2.04 2.01 -44.5 0 0 978.48 700.62
  Q 976.96 695.34 976.18 688.44
  C 975.57 683.06 974.60 679.00 974.07 674.51
  A 1.27 1.10 29.8 0 0 973.91 674.05
  L 972.54 671.67
  A 2.55 2.36 -67.6 0 1 972.25 670.89
  Q 970.69 662.49 967.70 656.34
  Q 964.87 650.50 956.20 635.58
  A 0.46 0.42 -87.4 0 0 956.10 635.46
  Z
  M 329.38 792.61
  C 325.83 788.14 311.61 791.35 306.48 792.23
  Q 305.19 792.45 302.77 793.41
  A 5.86 5.53 -56.5 0 1 301.19 793.78
  Q 276.33 796.04 254.85 801.40
  Q 250.01 802.61 246.20 801.05
  C 245.03 800.57 244.18 801.41 243.09 801.68
  Q 236.94 803.21 232.98 798.33
  Q 227.48 791.55 230.53 783.74
  A 5.48 5.48 0.0 0 1 233.75 780.59
  L 242.73 777.26
  A 3.30 2.93 -54.7 0 1 243.46 777.09
  Q 249.39 776.44 253.28 776.24
  C 257.32 776.03 262.46 774.20 266.08 773.50
  A 3.72 3.70 24.3 0 0 267.28 773.05
  Q 271.71 770.47 278.14 770.42
  A 0.66 0.62 -28.2 0 1 278.47 770.51
  L 279.56 771.14
  A 0.87 0.87 0.0 0 0 280.48 771.11
  C 282.11 770.02 291.52 765.20 294.04 767.07
  A 0.63 0.63 0.0 0 0 294.60 767.15
  L 301.04 765.04
  A 1.26 1.24 -45.4 0 1 301.84 765.03
  Q 306.68 766.54 312.08 765.60
  C 316.71 764.79 319.73 764.65 323.19 763.57
  A 2.98 2.97 -12.5 0 0 325.25 760.34
  Q 324.29 753.25 321.12 747.79
  A 1.65 1.62 -89.5 0 0 320.59 747.24
  Q 320.34 747.08 319.49 747.34
  A 1.21 1.18 -40.5 0 1 318.62 747.28
  Q 315.47 745.80 312.10 747.35
  Q 309.75 748.43 298.37 753.48
  A 5.09 5.09 0.0 0 1 297.44 753.79
  Q 290.11 755.49 284.13 756.56
  Q 279.79 757.34 271.92 759.46
  Q 262.30 762.06 259.70 762.44
  Q 250.38 763.80 242.28 765.72
  A 3.51 3.25 37.7 0 1 241.38 765.80
  Q 239.31 765.68 236.65 764.30
  C 233.48 762.66 233.03 757.51 232.39 753.72
  A 2.98 2.89 -42.4 0 1 232.47 752.37
  C 234.17 746.67 234.53 744.06 241.20 742.39
  Q 246.49 741.07 250.88 739.23
  A 2.48 2.40 -56.0 0 1 251.77 739.04
  Q 252.99 739.01 254.95 739.28
  Q 259.64 739.95 263.82 737.76
  A 4.90 4.49 23.5 0 1 265.10 737.32
  Q 266.52 737.06 277.49 734.55
  Q 282.16 733.47 287.61 731.68
  Q 292.87 729.95 297.90 729.37
  A 6.13 5.78 -56.7 0 0 299.29 729.04
  Q 305.77 726.70 308.48 725.96
  C 311.28 725.20 313.91 723.56 316.30 722.29
  C 318.66 721.05 317.75 718.13 317.15 716.02
  A 0.58 0.58 0.0 0 0 316.43 715.62
  Q 312.75 716.62 308.93 715.53
  A 1.36 1.34 -48.8 0 0 307.99 715.60
  C 304.60 717.21 300.44 719.18 296.57 719.73
  Q 294.81 719.98 292.03 720.52
  Q 288.81 721.15 286.08 721.87
  Q 279.14 723.72 258.68 731.03
  A 0.42 0.38 -38.4 0 1 258.38 731.01
  Q 258.26 730.94 258.22 730.93
  A 1.65 1.64 -41.5 0 0 257.22 730.87
  L 252.11 732.18
  A 2.58 2.56 -49.7 0 1 251.30 732.25
  L 247.58 732.05
  A 1.65 1.63 60.3 0 1 246.90 731.86
  Q 242.59 729.59 237.31 727.70
  C 233.23 726.23 232.96 721.31 233.50 717.70
  Q 234.73 709.43 242.67 707.09
  A 2.12 2.09 -40.9 0 1 244.09 707.18
  Q 247.51 708.64 249.41 707.92
  Q 255.28 705.68 267.49 703.70
  Q 278.59 701.91 299.68 695.19
  A 6.10 5.88 -55.5 0 1 300.86 694.95
  L 310.55 694.10
  A 0.48 0.48 0.0 0 0 310.86 693.31
  Q 309.06 691.27 308.25 689.00
  Q 307.10 685.78 306.15 684.45
  C 302.99 680.06 297.51 675.77 292.00 676.77
  Q 279.79 679.01 265.55 685.41
  A 2.97 2.83 -60.4 0 1 264.89 685.61
  L 253.76 687.84
  A 3.04 2.92 39.9 0 1 253.03 687.89
  L 250.10 687.72
  A 1.64 1.49 -51.6 0 0 249.43 687.83
  L 244.92 689.70
  A 4.21 4.19 45.5 0 1 241.61 689.66
  Q 234.66 686.59 232.31 680.44
  A 2.63 2.59 40.3 0 1 232.18 679.01
  Q 233.70 671.04 240.74 666.73
  C 244.53 664.41 250.86 661.59 254.92 663.48
  A 2.16 2.15 43.9 0 0 256.78 663.45
  L 265.32 659.22
  A 3.56 3.51 24.9 0 1 266.05 658.96
  Q 269.70 658.14 271.81 657.81
  C 274.16 657.45 276.48 656.27 278.76 655.02
  A 0.88 0.87 45.3 0 1 279.64 655.03
  L 280.65 655.61
  A 0.41 0.41 0.0 0 0 281.26 655.27
  Q 281.65 644.42 283.35 631.02
  Q 283.80 627.54 283.38 621.24
  A 0.73 0.72 1.0 0 0 282.72 620.57
  Q 281.17 620.42 279.15 621.13
  A 1.82 1.75 38.9 0 1 278.24 621.21
  C 275.55 620.80 271.93 622.74 267.11 625.10
  C 263.35 626.95 255.34 630.03 247.51 632.47
  C 236.81 635.79 226.14 644.43 218.96 652.55
  C 213.91 658.25 209.12 662.08 204.84 667.06
  Q 197.19 675.95 194.31 687.08
  A 4.11 3.84 -26.3 0 1 193.99 687.93
  Q 192.95 689.90 192.82 690.33
  Q 189.94 699.95 186.60 707.29
  A 5.50 5.28 64.4 0 0 186.30 708.20
  Q 184.45 716.82 184.19 718.75
  Q 183.67 722.71 183.29 733.62
  C 183.20 736.05 182.91 737.42 182.26 739.88
  A 2.58 2.58 0.0 0 0 182.56 741.93
  L 184.70 745.33
  A 1.19 1.09 -66.8 0 1 184.87 745.82
  L 186.00 756.28
  A 2.12 2.07 31.7 0 0 186.15 756.88
  Q 188.54 762.54 190.76 769.67
  Q 192.92 776.62 195.45 782.02
  Q 198.19 787.89 201.03 794.45
  Q 201.51 795.56 204.12 797.03
  A 1.67 1.66 6.7 0 1 204.88 797.99
  Q 205.95 801.60 207.65 802.96
  Q 211.33 805.88 216.31 810.01
  Q 218.68 811.96 222.13 812.65
  Q 227.02 813.62 235.56 814.52
  C 238.71 814.86 241.84 814.62 244.50 815.59
  A 2.12 2.06 47.6 0 0 245.65 815.66
  L 257.43 813.01
  A 0.96 0.71 -42.3 0 1 257.72 812.98
  Q 259.10 813.04 260.76 813.48
  A 2.15 2.13 -48.8 0 0 262.15 813.38
  Q 264.76 812.30 268.62 811.39
  Q 269.38 811.21 270.47 809.61
  A 1.08 1.07 17.1 0 1 271.36 809.14
  Q 271.78 809.15 272.84 809.61
  A 2.05 2.02 -41.0 0 0 274.26 809.70
  Q 279.59 808.05 288.76 807.10
  Q 291.80 806.79 298.82 805.89
  C 310.75 804.37 320.20 798.59 329.21 793.48
  A 0.58 0.58 0.0 0 0 329.38 792.61
  Z"
/>
<path fill="#000000" d="
  M 550.14 460.43
  Q 550.08 460.34 550.00 460.11
  A 1.35 1.29 -51.8 0 1 549.93 459.38
  C 550.19 457.86 550.50 456.78 550.19 455.19
  Q 549.64 452.33 550.43 450.06
  A 1.61 1.61 0.0 0 0 550.43 449.04
  Q 549.76 447.00 550.14 444.77
  Q 551.60 436.13 553.20 433.01
  Q 555.51 428.48 561.57 429.03
  C 569.02 429.71 571.03 436.37 572.18 442.78
  Q 572.40 443.97 573.44 454.25
  Q 573.80 457.76 572.49 464.34
  C 571.14 471.18 565.61 476.57 559.85 479.64
  A 3.36 3.34 -40.0 0 1 556.22 479.33
  C 553.98 477.57 549.36 473.68 548.24 470.51
  A 2.63 2.61 43.7 0 1 548.20 468.90
  Q 548.92 466.44 550.38 462.04
  Q 550.65 461.23 550.14 460.43
  Z"
/>
<path fill="#000000" d="
  M 616.41 458.50
  Q 616.44 458.59 616.59 458.92
  A 1.00 0.98 37.9 0 1 616.67 459.50
  L 615.23 468.36
  A 2.21 2.18 63.1 0 1 615.07 468.86
  C 613.01 473.11 607.71 479.01 602.47 478.71
  C 598.50 478.49 594.30 476.36 593.69 472.29
  C 592.35 463.30 593.96 454.60 595.28 443.50
  Q 596.02 437.25 599.98 434.78
  A 2.42 2.39 27.5 0 1 601.21 434.40
  Q 607.55 434.22 612.25 438.28
  Q 612.86 438.81 613.68 441.78
  Q 616.20 450.81 616.25 457.53
  A 3.20 2.90 38.5 0 0 616.41 458.50
  Z"
/>
<path fill="#000000" d="
  M 428.60 546.40
  Q 428.73 546.81 428.66 547.24
  Q 427.58 553.92 426.48 557.95
  A 2.22 2.18 46.5 0 0 426.46 559.08
  Q 427.39 562.93 427.47 567.25
  C 427.52 569.85 427.31 571.32 425.65 573.43
  Q 421.65 578.51 415.09 580.50
  C 411.49 581.59 407.19 577.88 404.96 575.05
  C 403.21 572.84 403.84 570.71 404.56 567.88
  Q 405.30 565.01 407.06 549.33
  Q 407.18 548.31 407.14 543.74
  C 407.11 539.62 408.23 534.38 412.05 531.99
  Q 415.65 529.74 418.87 528.97
  A 2.23 2.14 43.8 0 1 419.88 528.97
  Q 423.77 529.87 426.83 531.21
  C 429.59 532.42 429.82 534.69 429.59 537.35
  Q 429.06 543.49 428.44 545.56
  Q 428.39 545.71 428.60 546.40
  Z"
/>
<path fill="#000000" d="
  M 516.55 617.84
  L 516.04 616.55
  A 1.42 1.32 -55.8 0 1 515.95 615.96
  Q 517.00 599.29 517.67 592.01
  C 517.95 588.94 519.25 585.88 518.34 582.71
  Q 516.36 575.87 520.85 570.31
  C 523.29 567.29 526.87 567.95 530.47 568.97
  C 537.74 571.03 539.36 576.43 539.55 583.26
  Q 539.79 591.78 539.10 604.35
  C 538.89 608.18 537.83 612.54 538.66 616.87
  Q 539.42 620.88 538.76 622.91
  Q 538.38 624.07 536.81 626.90
  A 2.91 2.89 64.2 0 0 536.48 627.86
  C 535.69 632.66 535.48 637.30 533.51 640.63
  Q 528.36 649.31 518.82 644.45
  Q 514.47 642.24 514.03 636.48
  Q 513.49 629.53 516.58 618.36
  A 0.86 0.81 -50.0 0 0 516.55 617.84
  Z"
/>
<path fill="#000000" d="
  M 656.81 587.93
  L 657.09 588.33
  A 0.69 0.69 0.0 0 1 657.21 588.75
  C 657.02 592.43 657.18 595.76 656.32 599.14
  Q 655.86 600.93 655.25 605.99
  C 655.01 608.01 653.90 610.38 654.53 612.08
  Q 655.03 613.41 654.37 614.88
  C 653.24 617.37 654.21 621.00 655.05 623.98
  A 4.58 4.57 -40.6 0 1 654.80 627.17
  C 652.50 632.09 648.59 639.81 643.52 641.73
  C 639.30 643.34 635.22 639.80 634.25 635.76
  Q 632.94 630.29 633.31 624.40
  Q 633.37 623.55 635.68 593.70
  Q 636.00 589.54 636.93 581.73
  Q 637.68 575.41 643.69 571.66
  Q 646.27 570.06 648.23 570.47
  C 651.69 571.20 657.25 572.88 657.51 577.20
  C 657.62 579.10 657.94 584.58 656.75 586.90
  A 1.03 1.02 41.9 0 0 656.81 587.93
  Z"
/>
<path fill="#000000" d="
  M 812.28 578.09
  Q 817.28 579.51 818.88 583.32
  Q 821.03 588.44 821.20 594.61
  A 7.96 7.84 -38.2 0 1 820.90 596.97
  Q 819.02 603.60 818.82 605.02
  Q 817.86 611.81 816.28 614.80
  A 3.99 3.85 -12.0 0 1 815.80 615.51
  Q 813.52 618.26 811.28 619.52
  C 808.81 620.91 804.49 618.18 802.95 616.41
  Q 798.90 611.74 797.97 606.55
  A 5.06 5.03 -43.6 0 1 798.03 604.42
  C 798.91 600.70 800.39 594.99 801.18 589.90
  Q 801.82 585.74 803.55 582.37
  A 3.43 3.39 -6.3 0 1 804.45 581.26
  Q 807.09 579.14 811.11 578.08
  A 2.20 2.11 44.4 0 1 812.28 578.09
  Z"
/>
<path fill="#000000" d="
  M 424.96 633.04
  C 423.96 638.29 418.83 649.04 411.86 648.14
  Q 404.86 647.23 403.79 640.33
  Q 403.25 636.88 402.64 622.05
  A 6.57 6.40 -52.4 0 0 402.53 621.10
  Q 401.78 617.35 401.94 616.54
  C 402.67 612.61 406.79 605.15 411.77 606.24
  C 417.19 607.42 419.97 608.98 421.05 614.51
  Q 423.27 625.91 424.91 631.90
  A 2.53 2.42 43.7 0 1 424.96 633.04
  Z"
/>
<path fill="#000000" d="
  M 648.09 713.45
  Q 649.36 715.07 649.52 719.80
  Q 649.63 722.81 647.91 725.13
  C 643.58 730.96 638.64 731.16 632.09 730.60
  A 3.45 3.45 0.0 0 1 629.30 728.72
  C 625.64 721.47 627.16 711.09 629.89 703.42
  Q 631.86 697.89 637.89 696.37
  Q 640.22 695.79 642.06 696.71
  C 645.12 698.25 649.53 702.06 649.49 705.94
  C 649.45 709.15 648.98 710.08 647.97 712.59
  A 0.87 0.85 -53.5 0 0 648.09 713.45
  Z"
/>
<path fill="#000000" d="
  M 516.79 755.52
  C 516.29 754.61 516.09 753.83 516.46 752.81
  C 519.04 745.69 525.65 738.82 533.79 743.75
  C 536.12 745.16 537.47 747.34 537.59 750.40
  Q 537.86 757.27 536.37 763.34
  A 10.55 10.39 51.5 0 0 536.06 766.25
  C 536.18 769.76 535.06 772.47 533.89 776.87
  C 532.85 780.80 529.62 785.06 525.20 784.59
  Q 523.87 784.45 520.81 783.36
  C 518.00 782.35 515.93 780.94 515.42 777.77
  Q 514.93 774.80 515.50 764.75
  Q 515.85 758.47 516.82 756.52
  A 1.12 1.08 44.1 0 0 516.79 755.52
  Z"
/>
<path fill="#000000" d="
  M 632.74 888.94
  A 0.90 0.90 0.0 0 0 632.14 890.21
  C 635.48 897.08 631.95 899.92 625.89 902.08
  C 619.28 904.44 615.34 897.10 612.57 892.20
  Q 610.97 889.39 611.51 886.25
  Q 612.78 878.72 614.38 872.21
  C 615.12 869.18 616.45 863.55 616.78 859.46
  Q 617.68 848.20 618.93 837.73
  C 619.61 832.03 620.52 826.90 627.23 826.18
  C 632.47 825.62 638.09 827.02 639.31 832.74
  C 639.81 835.10 639.23 839.46 638.49 842.52
  Q 637.58 846.25 639.05 850.20
  Q 639.49 851.36 638.60 855.34
  A 1.43 1.42 -51.8 0 0 638.71 856.28
  C 640.43 859.79 638.47 863.61 636.78 867.03
  A 2.65 2.61 -29.9 0 0 636.51 868.00
  Q 634.94 884.68 634.91 886.39
  C 634.88 887.92 634.24 888.59 632.74 888.94
  Z"
/>
<path fill="#000000" d="
  M 402.01 876.61
  L 403.28 881.03
  A 2.77 2.63 -52.0 0 1 403.38 882.06
  C 402.98 886.78 393.63 891.54 389.45 890.34
  C 385.48 889.20 382.66 884.64 381.74 880.74
  Q 381.42 879.39 381.23 874.66
  A 3.53 3.33 -58.1 0 0 381.00 873.53
  Q 379.66 869.93 380.13 866.53
  C 380.88 861.02 382.64 852.43 385.27 846.29
  C 386.22 844.06 388.67 842.44 390.77 841.41
  Q 394.42 839.60 398.81 841.92
  C 401.46 843.31 404.89 845.61 405.61 848.87
  A 2.97 2.92 -48.8 0 1 405.66 849.74
  Q 404.94 857.75 402.52 866.75
  A 12.05 11.96 52.4 0 0 402.11 870.01
  Q 402.19 875.21 402.18 875.24
  A 1.75 1.74 -38.1 0 0 402.01 876.61
  Z"
/>
<path fill="#000000" d="
  M 806.77 889.59
  Q 807.48 893.10 806.88 894.93
  Q 805.80 898.17 803.11 903.15
  Q 797.40 913.70 786.58 907.74
  Q 782.49 905.50 781.98 900.91
  A 1.56 1.49 53.6 0 1 782.07 900.20
  L 787.03 886.89
  A 1.46 1.45 38.3 0 0 786.87 885.55
  Q 785.52 883.62 785.84 881.87
  C 786.64 877.51 787.51 875.39 786.07 872.00
  A 2.83 2.68 33.9 0 1 785.85 871.03
  C 785.46 861.66 788.16 852.72 796.06 846.99
  A 3.01 3.00 -52.2 0 1 798.94 846.62
  Q 805.77 849.33 808.44 855.85
  C 809.87 859.34 808.58 861.06 807.36 864.77
  A 2.60 2.54 52.1 0 0 807.24 865.82
  Q 807.83 873.27 808.50 877.98
  Q 808.95 881.16 806.79 889.07
  A 1.18 1.14 -43.9 0 0 806.77 889.59
  Z"
/>
<path fill="#000000" d="
  M 575.08 1200.00
  L 552.37 1200.00
  L 551.84 1199.78
  A 0.82 0.82 0.0 0 1 551.35 1198.90
  Q 551.84 1195.99 550.42 1193.81
  A 1.62 1.60 -49.9 0 1 550.30 1192.27
  C 551.05 1190.59 552.97 1187.45 553.09 1184.26
  A 1.43 1.41 28.5 0 0 552.82 1183.37
  C 550.62 1180.25 552.28 1175.14 552.87 1171.17
  A 3.21 3.14 42.1 0 0 552.79 1169.90
  Q 552.26 1167.99 552.31 1167.25
  Q 553.85 1144.55 554.07 1122.35
  Q 554.10 1118.69 554.64 1115.20
  C 555.12 1112.10 554.67 1108.52 554.83 1105.59
  Q 554.91 1104.00 555.26 1094.76
  Q 555.37 1092.01 554.56 1089.73
  A 1.03 1.02 -37.3 0 1 554.69 1088.81
  Q 559.43 1082.04 560.68 1080.98
  C 568.52 1074.32 576.34 1081.20 578.85 1089.22
  A 2.11 2.09 47.0 0 1 578.81 1090.60
  Q 578.40 1091.69 575.90 1098.47
  Q 575.50 1099.54 576.47 1102.57
  C 577.34 1105.33 577.26 1107.09 576.09 1109.53
  A 1.77 1.74 -37.9 0 0 575.95 1110.59
  L 576.44 1113.11
  A 1.17 1.05 -47.0 0 1 576.43 1113.60
  L 574.49 1122.13
  A 2.15 2.13 44.7 0 0 574.50 1123.15
  L 575.35 1126.54
  A 1.44 0.98 74.0 0 1 575.38 1126.74
  Q 575.67 1135.93 576.75 1141.70
  A 3.19 3.08 46.5 0 1 576.74 1142.89
  Q 575.70 1147.79 575.10 1156.59
  Q 574.91 1159.32 575.16 1161.93
  Q 575.49 1165.36 574.66 1167.19
  A 0.20 0.17 -40.3 0 0 574.65 1167.25
  L 576.75 1182.95
  A 1.46 1.44 -40.9 0 1 576.70 1183.60
  L 574.65 1190.36
  A 4.25 4.23 -46.8 0 0 574.73 1193.05
  Q 576.40 1197.62 575.08 1200.00
  Z"
/>
</svg>
