<?xml version="1.0" encoding="UTF-8" standalone="no"?>
<!DOCTYPE svg PUBLIC "-//W3C//DTD SVG 1.1//EN" "http://www.w3.org/Graphics/SVG/1.1/DTD/svg11.dtd">
<svg xmlns="http://www.w3.org/2000/svg" version="1.1" viewBox="0.00 0.00 1200.00 1200.00">
<path fill="#000000" d="
  M 399.37 375.12
  Q 399.51 374.77 403.81 373.07
  Q 407.84 371.47 411.02 371.69
  C 413.58 371.87 415.36 373.48 417.84 373.88
  A 2.06 2.05 8.8 0 0 420.19 372.16
  C 420.72 368.60 421.82 366.22 424.35 363.32
  Q 430.27 356.56 438.60 343.85
  Q 442.66 337.67 443.42 335.35
  A 1.95 1.91 -16.0 0 1 443.79 334.70
  L 448.79 329.10
  A 1.99 1.97 -11.0 0 0 449.09 328.66
  Q 452.11 322.68 453.24 321.22
  Q 456.24 317.32 460.15 312.30
  C 462.51 309.28 465.16 307.24 466.94 305.23
  A 5.21 4.88 78.7 0 0 467.43 304.44
  L 471.28 296.69
  A 0.24 0.22 -52.3 0 0 471.26 296.47
  Q 470.61 295.63 471.25 294.30
  Q 474.27 287.99 477.90 283.94
  Q 481.49 279.93 483.63 276.72
  Q 490.11 266.99 495.52 257.03
  Q 497.00 254.31 497.31 253.19
  A 1.25 1.23 83.5 0 1 497.90 252.44
  Q 498.49 252.09 498.64 251.89
  Q 503.36 245.42 505.40 237.79
  A 1.73 1.64 -18.3 0 1 505.75 237.14
  Q 508.88 233.51 509.20 232.50
  Q 510.57 228.11 512.93 223.56
  A 4.56 4.50 -7.0 0 1 513.99 222.22
  Q 517.20 219.46 518.90 215.48
  A 5.75 5.58 75.1 0 1 519.46 214.48
  Q 522.97 209.42 529.06 200.96
  C 530.10 199.52 531.21 198.97 532.08 197.39
  Q 532.46 196.70 539.18 188.67
  A 4.26 4.20 77.1 0 0 539.73 187.78
  Q 541.37 184.21 543.82 182.53
  Q 552.37 176.69 555.05 175.04
  C 556.66 174.05 559.40 173.35 561.26 172.19
  C 567.48 168.28 577.41 163.89 584.82 158.82
  Q 590.62 154.85 595.01 152.79
  A 10.08 9.06 21.5 0 1 596.51 152.23
  Q 607.77 149.06 622.75 146.79
  Q 630.80 145.57 637.28 144.34
  Q 638.18 144.17 639.09 144.38
  A 1.86 1.86 0.0 0 0 640.02 144.34
  C 644.43 142.98 647.69 141.85 651.87 142.15
  C 654.34 142.33 657.66 144.86 661.04 146.78
  A 0.95 0.93 -36.6 0 0 661.70 146.87
  L 672.42 144.21
  A 1.23 1.18 -42.9 0 1 673.05 144.22
  Q 680.80 146.49 687.64 149.91
  A 9.90 9.64 -23.5 0 0 689.65 150.67
  Q 703.02 154.12 704.21 154.36
  Q 712.93 156.10 721.91 162.09
  C 728.86 166.72 733.68 169.77 738.50 175.50
  Q 738.59 175.60 743.86 181.01
  Q 745.78 182.98 747.50 186.50
  A 2.45 2.21 15.4 0 0 747.80 186.97
  L 754.39 194.82
  A 3.41 3.31 -77.8 0 1 754.84 195.54
  L 761.55 210.09
  A 5.17 5.07 12.2 0 0 762.38 211.35
  C 764.18 213.33 764.69 215.67 766.07 218.05
  Q 767.96 221.32 768.50 222.66
  Q 774.08 236.70 773.96 249.10
  Q 773.88 256.39 773.94 256.54
  A 2.18 2.09 45.7 0 1 773.95 257.67
  L 773.48 259.43
  A 2.33 2.29 -44.5 0 0 773.46 260.51
  Q 774.21 263.87 773.80 269.76
  Q 773.07 280.23 771.58 288.70
  C 770.65 293.99 768.73 299.02 767.65 303.97
  A 2.76 2.65 69.1 0 1 767.26 304.89
  Q 763.69 310.32 762.05 314.04
  Q 759.28 320.37 757.21 324.72
  Q 756.69 325.82 754.78 327.31
  A 4.17 3.93 -1.3 0 0 754.04 328.04
  Q 744.24 340.24 735.33 353.85
  C 732.17 358.68 730.44 363.33 727.76 368.08
  A 2.50 2.46 87.6 0 1 727.09 368.82
  Q 719.74 374.14 712.23 378.80
  Q 710.68 379.76 695.47 389.29
  Q 694.79 389.72 693.68 390.42
  Q 687.42 394.38 682.40 399.65
  Q 677.63 404.66 675.75 406.40
  A 2.58 2.52 -74.2 0 1 674.74 406.98
  Q 673.12 407.47 671.60 408.61
  Q 660.45 416.94 650.23 426.25
  C 646.93 429.26 643.42 431.61 639.95 433.87
  A 1.04 0.93 -87.9 0 0 639.68 434.15
  L 639.46 434.51
  A 0.37 0.34 2.4 0 1 639.33 434.62
  Q 635.88 436.23 632.99 438.51
  Q 627.01 443.23 619.92 450.90
  C 617.31 453.72 615.56 453.68 611.99 454.15
  A 1.19 1.18 5.6 0 0 611.03 454.93
  Q 609.72 458.62 605.34 460.10
  A 1.07 1.07 0.0 0 0 604.64 460.84
  Q 604.02 463.13 605.21 465.82
  Q 611.93 481.02 621.82 498.64
  Q 626.95 507.78 628.09 518.31
  C 628.81 524.97 630.16 534.10 630.52 538.01
  Q 631.10 544.41 632.00 550.39
  Q 632.54 553.94 638.16 591.18
  Q 638.75 595.08 639.30 601.45
  C 639.77 607.02 641.14 612.69 642.36 619.46
  Q 643.36 625.00 645.26 629.21
  Q 645.88 630.59 645.99 631.90
  C 646.09 633.03 647.42 634.07 648.02 635.37
  Q 651.21 642.26 653.27 645.39
  C 656.32 650.04 658.39 654.85 661.10 659.65
  A 7.13 6.94 10.5 0 0 661.92 660.81
  Q 663.81 662.98 666.11 666.46
  Q 666.46 666.99 669.09 669.29
  A 0.49 0.49 0.0 0 0 669.83 669.17
  Q 672.52 664.79 673.36 664.09
  C 679.08 659.29 681.83 657.15 684.82 653.57
  Q 684.90 653.47 698.03 636.03
  Q 700.25 633.08 702.54 630.79
  Q 703.81 629.51 708.67 628.47
  A 1.28 1.24 -32.9 0 1 709.67 628.67
  C 714.83 632.33 721.84 633.96 726.61 637.90
  Q 733.20 643.34 739.60 650.25
  A 1.40 0.61 61.8 0 0 739.72 650.36
  L 750.05 658.72
  A 5.31 4.30 53.3 0 0 750.65 659.14
  L 753.42 660.76
  A 2.13 1.95 81.3 0 1 753.84 661.10
  Q 770.12 678.34 775.81 682.95
  C 780.13 686.44 788.35 693.13 794.16 699.36
  Q 797.55 702.99 801.23 706.39
  A 5.01 4.60 -7.6 0 0 802.23 707.09
  C 806.10 709.09 809.58 711.08 810.85 715.45
  Q 811.70 718.36 815.16 720.49
  A 2.07 1.93 67.5 0 0 815.69 720.73
  C 820.39 722.13 823.59 723.14 826.77 725.85
  A 2.17 2.10 -89.0 0 1 827.06 726.16
  Q 833.04 734.00 841.17 738.62
  A 1.76 1.74 4.8 0 1 841.92 739.50
  C 843.79 744.46 847.12 746.34 851.69 749.89
  Q 855.72 753.03 859.68 757.26
  Q 862.81 760.60 864.81 762.33
  Q 864.94 762.45 867.56 765.75
  Q 877.06 777.71 886.04 787.48
  Q 891.31 793.20 900.69 800.23
  C 902.58 801.64 904.47 802.11 906.06 803.33
  A 4.12 4.12 0.0 0 1 906.82 804.09
  Q 911.39 810.05 914.91 813.19
  Q 914.93 813.21 923.76 821.02
  Q 930.53 827.01 936.05 830.96
  Q 939.29 833.28 941.65 834.57
  C 947.04 837.49 944.29 843.69 942.30 847.80
  A 2.25 2.20 -5.1 0 1 941.58 848.64
  Q 936.84 851.95 932.85 851.37
  Q 928.70 850.77 922.49 847.55
  A 2.92 2.76 80.3 0 1 921.77 847.01
  Q 920.34 845.56 916.67 843.07
  Q 912.83 840.46 905.42 833.43
  C 898.01 826.39 892.36 820.87 884.08 814.54
  Q 875.16 807.73 868.13 801.23
  A 4.63 4.57 -85.8 0 1 867.49 800.48
  Q 860.59 790.15 849.88 782.74
  A 2.54 2.46 87.5 0 1 849.32 782.21
  Q 847.57 779.91 844.32 777.41
  A 5.13 4.85 -1.6 0 1 843.76 776.91
  C 840.64 773.69 837.99 770.74 834.35 768.81
  A 2.59 2.45 -3.3 0 1 833.53 768.12
  Q 831.28 765.22 827.54 762.98
  A 2.07 2.03 2.0 0 1 826.76 762.16
  L 825.68 760.10
  A 1.76 1.74 87.3 0 0 824.83 759.32
  Q 819.94 757.15 819.36 756.69
  Q 814.46 752.78 811.12 749.22
  A 3.24 3.14 11.7 0 1 810.61 748.47
  Q 809.88 746.92 810.15 744.94
  A 0.52 0.52 0.0 0 0 809.59 744.36
  C 804.51 744.77 798.43 740.40 794.98 737.01
  C 786.88 729.03 778.64 720.66 769.49 715.54
  Q 764.96 713.00 763.52 711.07
  Q 763.49 711.04 763.47 711.02
  L 756.69 706.18
  A 4.13 4.13 0.0 0 1 755.15 704.04
  Q 753.95 700.20 748.33 695.74
  Q 745.25 693.29 741.37 687.91
  A 3.47 3.37 2.1 0 0 740.71 687.22
  C 736.11 683.57 731.79 681.28 728.05 677.63
  Q 727.58 677.17 717.62 668.37
  C 713.10 664.37 707.09 668.34 704.08 671.93
  Q 699.63 677.25 697.84 678.34
  Q 690.69 682.68 685.05 688.35
  A 4.16 3.69 3.5 0 1 684.31 688.93
  C 681.82 690.43 680.42 692.71 678.33 694.52
  A 5.63 5.36 88.6 0 0 677.38 695.57
  Q 672.84 701.92 667.17 707.49
  Q 661.89 712.68 659.83 715.44
  Q 655.36 721.44 653.45 724.23
  A 2.76 2.69 -88.9 0 1 652.68 724.99
  C 650.22 726.66 648.28 727.88 646.49 729.45
  Q 642.67 732.79 636.65 737.62
  Q 632.32 741.10 628.24 746.69
  Q 624.63 751.62 621.37 755.48
  Q 614.64 763.44 595.78 784.27
  Q 591.69 788.79 589.08 791.41
  Q 584.98 795.54 582.54 798.68
  Q 575.66 807.55 571.40 812.24
  A 4.57 4.21 -84.2 0 1 570.70 812.86
  Q 564.97 816.87 560.44 821.68
  Q 549.36 833.45 536.71 846.45
  C 532.53 850.75 527.98 854.55 523.74 858.49
  C 521.16 860.88 519.70 865.12 517.19 867.43
  Q 512.96 871.33 509.06 876.00
  A 1.18 1.17 45.9 0 0 509.04 877.48
  Q 516.16 886.53 524.11 893.64
  Q 529.16 898.16 532.35 902.02
  C 539.51 910.67 546.09 918.75 554.08 925.34
  A 4.23 4.22 3.7 0 1 554.96 926.34
  Q 561.77 936.94 572.12 944.97
  Q 574.27 946.64 579.42 953.11
  Q 581.73 956.00 585.38 959.69
  C 590.82 965.19 596.03 972.81 599.65 977.31
  Q 600.65 978.55 602.87 980.42
  Q 603.82 981.22 605.67 983.57
  Q 607.77 986.23 611.14 988.70
  A 2.56 2.49 3.3 0 1 611.81 989.43
  Q 615.56 995.69 620.96 998.61
  A 1.76 1.70 -85.8 0 1 621.77 999.58
  C 623.23 1003.92 626.83 1006.77 629.44 1009.84
  Q 631.54 1012.31 633.88 1014.67
  Q 637.28 1018.11 642.35 1024.17
  Q 645.55 1028.01 648.44 1031.03
  C 652.25 1035.01 655.77 1039.63 659.73 1042.86
  Q 660.19 1043.24 664.71 1048.04
  Q 667.02 1050.48 676.37 1058.62
  Q 677.26 1059.40 678.50 1061.90
  A 1.72 1.68 40.9 0 1 678.60 1063.13
  C 677.45 1066.94 674.75 1071.81 670.80 1073.16
  A 1.96 1.92 -47.5 0 1 669.71 1073.22
  C 664.37 1071.98 658.00 1072.46 653.77 1067.47
  A 1.06 1.00 -1.7 0 0 653.59 1067.31
  L 646.39 1062.02
  A 2.38 2.29 4.8 0 1 645.75 1061.29
  L 643.21 1056.65
  A 1.26 1.11 10.3 0 0 642.98 1056.36
  C 640.93 1054.40 638.50 1052.90 636.85 1050.61
  C 635.28 1048.43 632.61 1046.77 630.73 1044.66
  C 626.55 1039.98 620.93 1035.04 617.35 1029.67
  A 3.00 2.91 1.3 0 0 616.61 1028.92
  Q 612.56 1026.15 611.21 1024.63
  C 607.29 1020.22 602.55 1014.90 597.27 1009.98
  Q 595.52 1008.35 594.52 1007.22
  Q 588.08 999.92 587.16 998.60
  A 10.76 10.70 2.7 0 0 585.15 996.40
  C 581.75 993.55 579.29 990.10 576.69 986.74
  C 572.43 981.26 565.58 976.38 562.29 972.21
  Q 558.42 967.31 552.36 962.75
  Q 547.73 959.28 545.83 957.51
  C 543.24 955.11 540.60 952.01 537.92 950.74
  A 1.20 1.19 -87.7 0 1 537.29 950.05
  Q 536.37 947.37 534.08 945.39
  Q 526.25 938.61 519.33 929.56
  A 3.00 3.00 0.0 0 0 518.75 928.98
  Q 515.29 926.23 509.12 920.46
  Q 506.39 917.91 502.87 913.00
  C 497.11 904.96 491.81 900.17 482.87 890.88
  Q 480.38 888.30 480.12 884.82
  C 479.99 883.17 479.31 882.40 479.11 881.30
  A 2.83 2.67 -43.3 0 1 479.15 880.64
  L 481.02 871.26
  A 3.82 3.80 78.7 0 1 482.61 868.87
  C 487.30 865.69 492.44 862.93 496.49 858.92
  Q 502.83 852.62 506.27 848.84
  A 1.33 1.33 0.0 0 0 505.99 846.82
  L 493.10 838.70
  A 1.65 1.45 -18.9 0 0 492.64 838.51
  L 485.82 836.69
  A 0.68 0.65 -5.1 0 1 485.42 836.37
  Q 484.65 834.99 481.97 833.52
  Q 476.33 830.42 470.01 827.09
  A 3.01 2.83 81.4 0 1 469.26 826.50
  C 467.47 824.49 465.01 823.85 462.69 822.41
  Q 455.20 817.79 445.36 811.11
  A 3.74 3.70 -5.5 0 1 444.77 810.63
  Q 443.54 809.43 441.31 808.19
  Q 427.69 800.65 426.17 799.61
  A 1.67 1.64 62.8 0 0 425.24 799.30
  Q 424.19 799.26 423.77 799.03
  Q 418.90 796.46 414.69 793.24
  Q 412.19 791.33 408.10 789.09
  Q 405.58 787.70 401.51 784.90
  A 2.53 2.41 -21.0 0 0 400.58 784.51
  Q 396.78 783.70 394.05 781.65
  Q 392.06 780.16 390.55 779.32
  Q 389.78 778.90 371.15 767.38
  Q 370.80 767.16 370.42 766.98
  A 2.39 2.32 -7.7 0 1 369.69 766.44
  Q 365.56 761.86 362.02 759.31
  Q 354.77 754.11 354.76 754.09
  Q 352.55 752.15 347.32 748.84
  Q 339.59 743.96 334.25 739.48
  A 3.62 3.57 73.9 0 0 333.04 738.80
  L 328.79 737.40
  A 6.38 6.36 83.1 0 1 325.39 734.73
  C 321.80 729.01 318.02 723.50 313.22 719.75
  C 310.36 717.51 308.07 718.67 304.29 720.42
  A 2.17 2.08 4.1 0 0 303.46 721.11
  Q 300.00 726.07 297.77 728.28
  Q 295.62 730.41 290.44 732.62
  A 2.79 2.71 10.2 0 0 289.64 733.16
  C 286.49 736.27 281.70 739.08 276.03 742.89
  A 1.23 1.23 0.0 0 0 275.57 743.50
  L 275.46 743.85
  A 1.17 1.16 -0.6 0 1 274.75 744.57
  Q 267.86 747.06 265.95 748.56
  Q 262.67 751.14 259.98 752.64
  A 1.84 1.83 -53.9 0 1 258.73 752.84
  Q 258.71 752.84 258.50 752.79
  A 2.24 2.20 -47.1 0 0 257.23 752.85
  Q 254.72 753.69 252.73 753.22
  Q 245.23 751.46 239.12 751.23
  A 1.65 0.84 -18.0 0 1 238.93 751.20
  L 219.81 746.49
  A 1.93 1.93 0.0 0 0 217.83 747.17
  Q 215.50 750.13 215.39 752.93
  Q 215.26 756.10 215.19 756.19
  Q 214.93 756.52 213.37 764.06
  Q 213.24 764.65 211.54 766.56
  A 0.48 0.47 38.1 0 0 211.63 767.28
  Q 212.64 767.96 212.65 769.86
  Q 212.73 777.77 212.66 786.15
  C 212.63 789.46 212.09 792.77 211.61 795.91
  A 2.79 2.73 63.8 0 1 211.30 796.85
  Q 200.88 816.03 199.31 819.55
  C 197.91 822.70 196.23 823.69 192.60 823.94
  Q 189.10 824.17 186.29 824.86
  A 2.92 2.85 -42.2 0 1 184.66 824.80
  Q 176.79 822.16 175.12 813.83
  A 2.79 2.75 -42.9 0 1 175.18 812.48
  Q 175.60 811.13 177.13 806.63
  C 177.69 804.99 178.91 804.48 179.72 803.46
  C 184.64 797.21 187.30 789.69 190.10 782.12
  A 1.80 1.80 0.0 0 0 189.79 780.34
  L 187.03 777.05
  A 1.04 1.03 29.6 0 1 186.80 776.23
  L 189.22 759.15
  A 1.34 1.25 -29.0 0 1 189.32 758.84
  L 193.50 750.36
  A 2.53 1.67 -43.4 0 0 193.62 750.06
  Q 196.61 740.09 201.77 731.27
  A 1.50 1.48 0.5 0 1 202.35 730.71
  L 205.34 729.14
  A 1.58 1.58 0.0 0 0 205.30 726.33
  L 203.87 725.63
  A 1.97 1.94 8.8 0 1 202.80 724.19
  C 202.04 719.50 199.59 714.91 198.87 709.86
  C 197.78 702.24 197.39 694.25 200.74 687.73
  C 203.91 681.58 209.25 670.68 214.32 661.96
  Q 217.19 657.03 219.49 650.81
  A 1.41 1.31 78.5 0 1 219.74 650.40
  L 225.19 644.11
  A 4.22 3.55 85.0 0 0 225.52 643.64
  Q 229.92 636.13 234.60 629.21
  C 236.97 625.70 240.17 622.42 241.56 618.85
  C 243.89 612.88 241.13 603.45 239.25 597.79
  A 2.64 2.63 44.8 0 1 239.24 596.19
  Q 239.73 594.66 239.33 593.61
  A 1.98 1.98 0.0 0 1 239.22 592.56
  Q 239.98 587.86 241.61 584.12
  Q 245.16 575.98 250.91 569.03
  A 3.52 3.24 -1.0 0 1 251.56 568.41
  Q 255.19 565.72 261.12 564.44
  A 1.40 1.39 55.0 0 1 262.13 564.62
  L 263.63 565.57
  A 0.55 0.55 0.0 0 0 264.47 565.12
  Q 264.71 557.12 263.24 550.49
  A 7.92 7.75 -47.9 0 1 263.13 547.74
  Q 264.56 537.06 266.29 531.02
  C 267.21 527.81 269.26 524.50 271.55 521.79
  Q 277.44 514.81 281.18 510.19
  Q 283.43 507.41 287.11 507.38
  A 1.37 1.36 24.7 0 0 287.99 507.06
  Q 289.42 505.88 289.06 503.26
  Q 288.15 496.54 285.69 488.73
  A 7.47 7.42 38.9 0 1 285.37 485.83
  L 286.12 476.96
  A 2.20 2.14 44.2 0 0 286.11 476.60
  L 285.06 469.28
  A 2.68 2.68 0.0 0 1 285.27 467.80
  C 288.56 460.38 290.07 456.21 294.91 450.99
  A 4.05 4.02 5.9 0 1 295.74 450.32
  Q 301.31 446.90 304.15 445.14
  Q 307.90 442.81 309.07 438.82
  Q 312.81 426.01 315.02 417.54
  Q 315.25 416.67 317.55 414.04
  Q 318.57 412.87 324.76 407.24
  Q 324.78 407.22 324.80 407.20
  L 334.35 393.58
  A 1.19 1.18 31.0 0 1 335.86 393.21
  Q 336.08 393.32 336.20 393.35
  A 1.59 1.58 -54.3 0 0 337.40 393.15
  Q 345.11 388.30 349.65 383.88
  Q 355.00 378.67 360.86 377.13
  Q 368.96 375.02 375.37 374.71
  A 0.61 0.60 -59.5 0 0 375.67 374.63
  L 379.06 372.85
  A 5.34 5.30 36.7 0 1 382.61 372.34
  Q 390.27 373.91 397.37 373.86
  A 1.31 1.30 -25.8 0 1 398.22 374.15
  Q 398.81 374.63 398.94 375.10
  A 0.23 0.23 0.0 0 0 399.37 375.12
  Z
  M 634.55 186.28
  Q 634.72 186.31 639.36 188.13
  C 644.11 189.99 655.04 192.00 657.55 185.46
  A 1.57 1.54 47.8 0 0 657.59 184.46
  Q 656.79 181.63 656.53 177.39
  Q 656.40 175.31 655.75 174.19
  C 654.32 171.72 649.56 169.69 647.04 169.45
  Q 645.43 169.30 639.11 171.03
  A 5.50 5.11 33.0 0 1 638.19 171.19
  C 630.77 171.77 624.33 172.01 622.35 180.15
  C 621.10 185.29 624.69 186.04 628.78 186.96
  Q 630.93 187.44 633.51 186.41
  A 1.96 1.94 37.5 0 1 634.55 186.28
  Z
  M 684.75 178.65
  C 684.32 181.08 684.31 184.24 683.01 186.63
  A 1.34 1.32 52.9 0 0 682.88 187.63
  L 683.48 190.08
  A 1.44 1.41 46.9 0 1 683.46 190.89
  L 682.47 194.06
  A 1.26 1.26 0.0 0 0 683.61 195.70
  Q 689.72 196.01 699.19 195.73
  C 703.46 195.60 704.78 193.70 704.52 189.67
  Q 704.21 184.87 700.00 180.70
  A 3.37 3.33 -19.8 0 0 697.95 179.75
  Q 694.41 179.43 693.14 178.90
  Q 688.35 176.89 685.41 177.89
  A 1.01 1.00 -4.1 0 0 684.75 178.65
  Z
  M 583.58 203.80
  Q 580.49 203.27 576.11 204.72
  A 1.24 1.24 0.0 0 1 575.26 204.69
  C 569.33 202.38 564.69 203.04 559.31 207.32
  Q 554.53 211.12 552.97 212.72
  Q 552.25 213.46 545.71 221.83
  C 544.58 223.27 544.24 224.56 544.38 226.22
  A 2.17 2.16 -3.1 0 0 546.58 228.19
  L 551.56 228.11
  A 3.42 3.19 -37.5 0 1 552.19 228.17
  Q 556.09 228.90 563.94 230.07
  Q 567.94 230.67 575.24 235.20
  A 0.82 0.82 0.0 0 0 576.23 235.11
  C 579.92 231.80 580.07 227.83 580.88 221.92
  Q 581.07 220.52 582.90 217.95
  A 3.38 3.26 71.9 0 0 583.39 216.94
  Q 585.31 210.49 584.40 204.63
  A 1.00 1.00 0.0 0 0 583.58 203.80
  Z
  M 649.30 211.83
  Q 629.33 209.23 616.26 206.28
  A 1.21 1.21 0.0 0 0 614.91 206.93
  L 611.54 213.82
  A 3.13 2.55 72.9 0 0 611.37 214.24
  Q 608.16 224.55 603.97 232.16
  C 600.73 238.07 604.27 239.58 609.53 240.07
  Q 618.44 240.91 632.19 242.59
  Q 634.56 242.88 636.84 243.37
  Q 639.85 244.02 642.36 243.55
  A 2.69 2.68 -1.1 0 0 644.50 241.33
  L 646.92 225.80
  A 5.16 4.48 62.7 0 1 647.09 225.10
  L 650.72 214.07
  A 1.72 1.72 0.0 0 0 649.30 211.83
  Z
  M 676.90 217.84
  L 674.89 223.33
  A 2.36 2.26 -35.0 0 0 674.74 224.09
  Q 674.44 230.38 671.96 234.25
  A 1.00 0.92 -31.2 0 0 671.81 234.76
  L 671.81 237.40
  A 0.94 0.94 0.0 0 1 671.51 238.09
  Q 668.44 240.95 668.25 244.51
  C 667.86 251.60 680.93 251.20 685.17 253.03
  C 687.08 253.86 689.05 253.63 690.21 251.96
  C 693.98 246.50 694.62 240.94 695.18 233.34
  A 4.25 4.06 56.2 0 1 695.33 232.48
  Q 696.58 228.03 696.66 223.87
  C 696.68 222.60 697.16 221.42 697.88 220.59
  A 0.60 0.60 0.0 0 0 697.43 219.60
  L 680.22 219.60
  A 1.51 1.46 62.7 0 1 679.33 219.30
  Q 677.38 217.85 677.32 217.77
  A 0.24 0.24 0.0 0 0 676.90 217.84
  Z
  M 734.20 260.83
  Q 734.47 260.56 734.79 260.46
  A 1.39 1.34 45.9 0 1 735.71 260.49
  C 738.74 261.73 743.63 262.57 746.57 260.68
  A 3.30 3.30 0.0 0 0 747.88 256.73
  Q 745.79 251.19 745.51 250.19
  A 8.19 0.26 75.1 0 1 745.21 249.08
  Q 745.20 249.05 745.14 246.53
  A 1.04 0.92 41.4 0 0 745.11 246.29
  L 742.13 235.57
  A 2.30 2.21 21.2 0 0 741.81 234.88
  Q 740.46 232.89 738.50 232.37
  Q 733.76 231.11 731.15 230.11
  Q 729.98 229.66 728.20 230.86
  A 0.98 0.97 -48.3 0 1 727.23 230.92
  L 725.17 229.91
  A 1.49 1.49 0.0 0 0 724.13 229.80
  Q 722.69 230.19 721.43 231.80
  A 1.10 1.08 54.9 0 0 721.26 232.82
  L 722.37 236.03
  A 0.93 0.91 -47.9 0 1 722.39 236.56
  L 720.43 243.94
  A 1.79 1.75 -22.6 0 1 720.26 244.34
  C 717.88 248.57 715.60 248.98 716.62 254.73
  A 0.79 0.79 0.0 0 0 717.24 255.37
  C 720.15 255.99 722.03 256.00 724.14 258.47
  A 2.45 2.44 -30.9 0 0 726.90 259.16
  C 729.39 258.17 731.05 259.60 733.09 260.94
  A 0.89 0.89 0.0 0 0 734.20 260.83
  Z
  M 569.54 256.69
  C 567.05 257.65 565.69 257.96 563.28 256.92
  C 561.47 256.14 558.74 255.13 556.14 254.69
  Q 552.46 254.08 547.85 252.67
  A 1.19 1.12 46.6 0 0 547.31 252.64
  L 546.06 252.88
  A 1.02 0.97 46.3 0 1 545.62 252.86
  Q 539.89 251.11 534.59 251.69
  A 2.19 2.16 14.0 0 0 533.05 252.60
  C 531.02 255.50 529.88 257.18 528.77 260.64
  C 525.75 270.07 523.62 279.13 523.93 288.77
  C 524.03 291.80 525.50 292.30 528.13 291.02
  Q 530.67 289.78 534.03 290.44
  Q 540.10 291.63 546.99 293.19
  Q 552.22 294.37 557.27 293.45
  A 0.99 0.98 89.6 0 0 558.07 292.63
  C 558.46 290.26 558.91 288.68 560.59 286.84
  Q 563.67 283.46 564.99 281.82
  A 5.00 4.99 -20.8 0 0 566.01 279.56
  L 566.97 273.84
  Q 566.97 273.82 566.97 273.80
  Q 568.54 268.39 569.04 263.81
  A 3.77 3.67 61.9 0 1 569.40 262.56
  Q 570.61 260.02 570.32 257.17
  A 0.58 0.58 0.0 0 0 569.54 256.69
  Z
  M 593.25 261.91
  A 0.65 0.65 0.0 0 0 592.68 262.48
  L 591.83 269.90
  A 2.21 2.19 63.2 0 1 591.55 270.76
  L 589.83 273.81
  A 5.82 5.56 66.6 0 0 589.21 275.48
  Q 588.25 280.14 586.58 287.62
  Q 585.63 291.88 583.53 295.24
  C 579.87 301.08 588.17 302.63 591.82 302.20
  Q 592.52 302.12 596.11 300.59
  Q 598.73 299.47 601.86 299.86
  C 605.27 300.27 608.63 304.17 611.78 305.00
  Q 616.53 306.26 620.13 304.02
  Q 622.49 302.55 624.55 296.96
  Q 629.37 283.84 632.28 271.25
  C 633.32 266.76 629.69 265.64 626.12 265.87
  Q 617.27 266.44 607.57 265.10
  Q 603.28 264.50 597.23 262.30
  Q 595.47 261.66 593.25 261.91
  Z
  M 683.82 278.11
  L 675.18 276.66
  A 1.07 0.90 -41.7 0 0 674.81 276.67
  Q 674.52 276.72 674.38 276.75
  A 2.75 2.63 46.3 0 1 673.28 276.70
  L 665.76 274.68
  A 1.35 1.33 39.2 0 0 664.80 274.77
  C 661.89 276.23 660.59 273.90 658.41 273.95
  Q 656.13 274.00 655.11 276.65
  C 653.85 279.94 651.83 284.93 651.00 288.90
  C 649.68 295.20 649.01 299.96 645.05 304.68
  A 2.35 2.33 -48.1 0 0 645.21 307.87
  Q 647.43 310.01 650.78 310.73
  Q 662.73 313.31 673.18 314.53
  A 2.86 2.78 37.7 0 0 674.42 314.39
  Q 677.88 313.16 678.95 309.64
  A 2.99 2.89 49.9 0 0 679.04 308.35
  Q 678.29 303.62 678.78 301.54
  Q 680.31 295.08 684.01 288.32
  C 684.75 286.97 683.66 286.36 683.32 285.25
  A 1.29 1.27 -39.0 0 1 683.43 284.27
  Q 684.95 281.54 684.50 278.80
  A 0.85 0.83 89.9 0 0 683.82 278.11
  Z
  M 739.58 288.14
  Q 735.75 286.04 732.58 285.87
  Q 729.65 285.70 716.88 285.33
  A 3.83 3.73 56.6 0 1 715.51 285.03
  L 712.99 283.97
  A 1.65 1.64 40.7 0 0 711.49 284.08
  C 708.45 285.90 707.31 291.02 706.22 294.73
  C 705.18 298.21 704.20 299.73 701.55 301.93
  A 0.88 0.88 0.0 0 0 701.44 303.18
  C 704.20 306.45 700.67 311.93 700.45 315.49
  Q 700.35 317.17 700.35 317.86
  A 1.92 1.92 0.0 0 0 702.85 319.68
  L 706.77 318.45
  A 0.66 0.63 46.3 0 1 707.21 318.47
  Q 712.01 320.57 719.90 323.26
  Q 720.77 323.55 721.74 323.16
  Q 722.80 322.73 724.47 322.66
  C 728.08 322.53 729.77 318.85 731.09 315.40
  A 3.86 3.82 75.2 0 1 731.70 314.34
  C 734.12 311.43 735.43 306.57 737.70 300.26
  Q 738.23 298.78 739.01 291.04
  Q 739.06 290.57 739.84 288.92
  A 0.60 0.60 0.0 0 0 739.58 288.14
  Z
  M 633.30 401.73
  C 630.89 401.40 629.16 402.22 627.05 403.41
  A 1.34 1.33 -48.2 0 1 625.88 403.48
  Q 621.85 401.79 619.04 400.98
  Q 616.03 400.11 610.02 399.97
  A 3.34 3.17 37.0 0 0 609.14 400.07
  L 598.14 402.80
  A 1.16 1.11 52.8 0 1 597.28 402.66
  Q 594.65 401.07 593.25 400.50
  Q 584.87 397.12 563.55 388.80
  Q 561.79 388.12 560.21 387.43
  Q 558.74 386.79 556.88 386.09
  Q 550.07 383.55 548.66 382.32
  Q 538.32 373.30 534.99 370.54
  Q 531.65 367.79 529.84 366.87
  A 1.46 1.42 1.6 0 1 529.17 366.18
  Q 528.77 365.28 527.21 364.04
  Q 523.89 361.41 519.55 356.78
  A 3.89 3.86 -80.3 0 1 518.89 355.84
  Q 512.84 343.41 511.14 340.11
  Q 506.62 331.32 504.58 323.53
  Q 503.80 320.54 502.03 316.65
  Q 501.10 314.59 499.77 309.28
  A 2.01 2.01 0.0 0 0 496.84 308.02
  Q 493.97 309.65 493.06 312.53
  Q 491.90 316.23 491.86 318.10
  A 0.77 0.76 82.2 0 1 491.32 318.82
  Q 489.78 319.28 487.06 323.06
  Q 476.83 337.30 473.05 343.29
  Q 468.90 349.86 467.95 351.02
  A 4.72 3.86 84.2 0 0 467.52 351.67
  L 463.62 359.03
  A 0.71 0.71 0.0 0 0 463.57 359.53
  Q 463.86 360.62 462.77 360.85
  A 1.94 1.94 0.0 0 0 461.64 361.54
  C 458.17 365.86 455.66 370.33 452.33 374.69
  C 451.80 375.38 451.62 376.58 450.96 376.84
  C 450.05 377.20 447.49 380.51 445.52 382.67
  A 0.76 0.76 0.0 0 0 445.35 382.97
  L 443.59 388.29
  A 1.24 1.19 -7.0 0 1 443.03 388.98
  L 440.08 390.69
  A 0.56 0.54 86.0 0 0 439.83 390.99
  L 437.87 396.12
  A 1.55 1.39 -18.8 0 1 437.64 396.53
  Q 426.91 409.96 417.40 423.14
  C 414.90 426.59 417.64 432.86 419.45 436.49
  A 0.98 0.95 47.6 0 1 419.42 437.42
  Q 418.19 439.47 419.61 441.91
  Q 422.44 446.77 427.04 454.09
  A 3.43 3.40 -88.0 0 0 427.89 455.01
  L 430.66 457.12
  A 1.07 1.03 6.1 0 1 430.97 457.49
  L 437.09 469.87
  A 2.29 2.18 8.0 0 0 437.63 470.55
  L 445.24 476.90
  A 0.37 0.28 10.9 0 1 445.32 476.99
  C 450.83 484.01 457.25 487.68 465.90 491.50
  A 0.73 0.72 25.3 0 0 466.85 491.16
  L 466.97 490.92
  A 0.55 0.55 0.0 0 1 467.87 490.78
  Q 474.05 497.33 482.77 499.45
  Q 490.47 501.33 498.48 502.24
  C 499.77 502.38 500.88 502.89 501.99 503.13
  A 1.22 1.13 40.9 0 0 502.63 503.11
  L 516.11 498.85
  A 0.48 0.46 -38.8 0 1 516.47 498.88
  C 520.04 500.82 523.89 494.43 524.85 491.54
  A 2.29 2.22 -13.2 0 1 525.46 490.59
  Q 531.25 485.23 538.11 479.59
  C 542.11 476.30 545.87 472.52 549.31 468.89
  A 1.57 1.51 16.6 0 1 550.20 468.43
  Q 551.21 468.28 551.85 467.86
  C 558.36 463.60 564.89 459.22 570.67 453.82
  C 574.76 450.00 577.60 447.99 579.06 445.63
  Q 579.84 444.37 581.30 444.14
  A 1.96 1.96 0.0 0 0 582.23 443.73
  Q 592.66 435.32 604.18 428.02
  C 607.92 425.64 611.17 420.13 615.22 417.32
  Q 620.20 413.89 624.71 411.20
  C 627.23 409.69 628.77 407.00 630.84 404.75
  Q 632.73 402.70 633.41 402.26
  A 0.29 0.29 0.0 0 0 633.30 401.73
  Z
  M 528.61 314.28
  Q 527.47 317.87 529.33 321.03
  Q 532.05 325.64 535.45 328.67
  A 1.54 1.49 18.2 0 1 535.94 329.60
  C 536.61 334.66 539.18 341.37 544.42 343.47
  A 1.62 1.61 34.9 0 0 546.11 343.17
  C 550.31 339.36 550.63 332.46 550.63 326.99
  Q 550.62 320.52 550.82 318.76
  A 0.72 0.70 -84.0 0 0 550.19 317.97
  L 542.06 317.15
  A 0.51 0.50 -27.6 0 1 541.89 317.10
  Q 540.60 316.36 532.01 315.26
  Q 530.96 315.13 529.33 314.03
  A 0.48 0.47 -63.7 0 0 528.61 314.28
  Z
  M 615.88 332.06
  Q 611.33 331.63 608.52 329.96
  C 604.07 327.31 598.70 327.18 594.16 328.56
  A 1.67 1.64 43.3 0 1 593.25 328.58
  Q 586.82 326.92 578.68 324.34
  Q 576.94 323.79 575.47 324.00
  A 0.96 0.95 -1.2 0 0 574.66 324.84
  Q 573.90 332.38 571.99 339.41
  C 571.18 342.44 569.59 345.38 569.10 347.74
  Q 569.09 347.79 569.08 347.84
  L 568.37 360.23
  A 3.55 3.53 20.9 0 0 569.70 363.19
  Q 579.64 371.09 591.86 372.61
  Q 593.86 372.86 596.86 374.64
  A 1.23 1.22 -42.3 0 0 598.01 374.69
  L 598.75 374.32
  A 1.40 1.34 27.8 0 1 599.31 374.16
  L 607.13 373.61
  A 0.91 0.90 9.8 0 0 607.89 373.08
  Q 609.16 370.27 609.21 368.73
  C 609.34 365.18 610.88 362.31 609.03 358.83
  A 1.83 1.79 -51.3 0 1 608.89 357.44
  C 609.96 353.88 612.54 350.45 615.81 345.77
  A 1.03 1.01 -41.7 0 0 615.88 344.72
  Q 612.95 338.98 616.37 333.03
  A 0.65 0.64 -72.1 0 0 615.88 332.06
  Z
  M 630.62 374.48
  A 1.40 1.39 -27.2 0 0 632.93 375.22
  C 633.50 374.70 634.89 373.99 635.98 374.63
  Q 636.72 375.06 637.27 375.24
  A 3.00 2.93 -38.7 0 0 638.80 375.39
  L 643.01 374.72
  A 1.75 1.60 -38.0 0 1 643.78 374.78
  Q 645.92 375.49 646.50 375.33
  Q 648.90 374.66 657.29 372.58
  Q 658.96 372.16 661.15 370.60
  A 1.39 1.39 0.0 0 0 661.72 369.73
  Q 663.31 361.62 667.59 352.86
  A 1.07 0.66 76.7 0 0 667.64 352.71
  L 668.85 348.31
  A 6.27 6.20 -38.6 0 0 669.07 346.46
  Q 669.02 343.91 669.61 341.17
  A 0.93 0.92 19.2 0 0 669.11 340.15
  L 666.19 338.71
  A 1.05 1.04 -39.4 0 0 665.44 338.64
  Q 659.55 340.23 652.17 339.14
  A 2.81 2.75 64.0 0 1 651.21 338.80
  C 646.85 336.32 637.91 332.48 636.58 340.35
  Q 634.81 350.85 631.05 366.02
  Q 629.87 370.81 630.62 374.48
  Z
  M 688.54 357.67
  A 0.56 0.56 0.0 0 0 689.45 357.82
  Q 694.50 352.68 700.08 347.09
  Q 700.93 346.24 700.56 345.23
  A 0.81 0.79 -26.5 0 0 699.37 344.85
  Q 697.57 345.98 696.77 344.97
  C 695.42 343.28 692.67 343.46 691.17 343.70
  A 0.97 0.97 0.0 0 0 690.36 344.70
  Q 690.56 348.60 690.53 352.25
  Q 690.50 355.04 688.78 356.40
  A 0.98 0.98 0.0 0 0 688.51 357.60
  L 688.54 357.67
  Z
  M 579.60 479.17
  Q 578.14 481.42 575.54 483.04
  Q 564.18 490.14 554.37 497.87
  Q 552.47 499.37 545.87 505.54
  A 5.12 4.99 85.9 0 0 545.16 506.38
  Q 543.23 509.24 541.50 510.56
  C 535.20 515.35 528.77 520.38 520.83 522.09
  Q 513.73 523.61 505.88 524.86
  Q 500.85 525.66 499.60 525.14
  C 494.75 523.11 489.43 525.69 485.46 527.00
  A 2.97 2.93 48.4 0 1 483.21 526.85
  L 474.82 522.71
  A 1.54 1.51 -40.5 0 0 473.68 522.63
  L 472.71 522.93
  A 2.77 2.76 43.9 0 1 471.10 522.96
  Q 466.74 521.73 463.12 519.90
  Q 452.42 514.47 441.66 508.77
  C 440.44 508.12 439.03 507.66 437.02 506.86
  A 3.05 2.87 -8.4 0 1 435.93 506.10
  Q 428.08 497.40 417.55 488.94
  A 7.23 6.92 2.1 0 1 416.27 487.62
  Q 401.87 468.55 395.63 456.91
  Q 393.52 452.98 390.98 444.87
  Q 389.74 440.92 387.94 434.64
  Q 386.04 427.99 385.50 424.25
  Q 384.89 420.08 386.23 414.50
  C 387.13 410.73 388.40 406.18 390.62 404.17
  Q 391.75 403.15 391.88 402.96
  A 0.89 0.89 0.0 0 0 391.93 402.09
  C 390.79 399.77 388.44 399.43 386.08 399.95
  Q 381.10 401.05 371.63 402.53
  A 6.20 6.13 -62.6 0 0 369.80 403.12
  Q 365.48 405.29 361.35 410.37
  A 1.60 1.50 -83.7 0 1 360.93 410.73
  C 357.59 412.69 354.77 413.92 351.81 416.17
  C 345.20 421.20 337.96 429.07 336.29 437.36
  A 2.49 2.34 46.2 0 0 336.30 438.31
  Q 337.00 441.56 338.31 443.23
  Q 342.42 448.51 343.33 450.15
  Q 353.46 468.44 356.82 472.44
  Q 357.16 472.84 357.30 473.65
  A 1.54 1.51 -77.4 0 0 357.93 474.67
  Q 358.77 475.27 362.15 479.65
  Q 363.56 481.47 366.45 484.17
  Q 369.31 486.83 371.64 490.38
  Q 375.66 496.49 379.26 500.90
  Q 382.79 505.24 386.53 506.25
  A 4.43 4.42 -88.3 0 1 389.71 509.63
  L 391.03 515.95
  A 3.61 3.56 25.2 0 0 391.42 517.01
  Q 393.09 519.98 393.47 520.29
  C 398.52 524.41 402.36 529.66 406.68 535.55
  C 407.83 537.12 408.81 539.57 409.54 540.73
  Q 413.42 546.85 416.97 553.03
  C 419.62 557.64 418.57 560.99 415.94 565.04
  C 413.26 569.15 406.66 568.71 402.51 566.18
  Q 396.15 562.30 392.51 558.28
  A 7.95 7.86 -80.2 0 1 391.36 556.63
  L 384.84 544.26
  A 1.63 1.54 -80.3 0 0 384.62 543.93
  L 373.48 530.64
  A 1.88 1.83 13.2 0 1 373.23 530.25
  C 370.61 524.93 364.96 519.49 363.13 516.97
  Q 361.28 514.42 358.57 511.82
  Q 356.83 510.16 353.98 506.20
  A 5.52 5.46 -86.7 0 0 353.18 505.29
  Q 342.40 495.38 334.31 482.06
  A 8.12 7.80 10.2 0 0 333.54 481.00
  C 329.95 476.90 326.71 473.60 325.92 468.89
  A 1.34 1.34 0.0 0 0 324.29 467.81
  C 321.27 468.51 320.77 471.81 319.62 474.85
  A 1.96 1.90 -9.3 0 1 319.01 475.67
  L 314.64 479.08
  A 4.58 4.43 87.6 0 0 313.60 480.25
  Q 307.95 489.45 313.72 498.84
  A 1.94 1.88 -85.2 0 0 314.12 499.33
  L 319.03 503.81
  A 1.11 0.98 12.4 0 1 319.30 504.18
  Q 321.29 508.66 322.05 509.58
  Q 331.76 521.17 332.98 523.92
  A 2.78 2.71 -82.9 0 0 333.77 524.96
  Q 336.27 527.00 336.83 527.90
  Q 339.60 532.37 346.12 543.87
  Q 348.76 548.53 358.67 560.33
  Q 361.15 563.28 362.99 564.59
  A 2.51 2.51 0.0 0 1 363.65 565.30
  Q 366.57 570.13 368.18 573.40
  Q 370.43 577.99 372.20 580.00
  C 377.54 586.06 384.50 592.54 385.94 600.75
  A 1.92 1.90 51.7 0 1 385.82 601.83
  C 384.30 605.31 379.17 610.60 375.02 609.76
  Q 372.11 609.18 368.71 606.54
  Q 364.57 603.33 355.36 593.87
  Q 351.68 590.11 348.92 585.51
  Q 346.53 581.53 343.08 576.67
  Q 339.22 571.24 333.88 567.13
  Q 332.47 566.04 329.86 563.09
  A 3.12 3.01 14.2 0 1 329.34 562.25
  C 328.04 559.14 326.31 556.72 324.81 553.70
  Q 321.60 547.25 316.73 542.25
  Q 312.77 538.18 311.55 536.72
  A 6.29 5.79 88.0 0 0 310.81 535.97
  L 303.84 530.05
  A 3.68 3.66 18.3 0 1 302.54 527.48
  L 302.25 523.42
  A 0.41 0.41 0.0 0 0 301.51 523.19
  Q 300.96 523.87 298.77 527.26
  C 293.25 535.79 289.49 542.38 287.42 552.23
  A 1.81 1.81 0.0 0 0 287.52 553.28
  Q 291.36 562.68 292.25 564.22
  Q 293.85 566.97 297.23 572.92
  C 304.23 585.22 314.55 595.45 322.53 606.65
  Q 323.78 608.40 330.93 619.83
  Q 336.42 628.61 347.55 644.46
  Q 348.55 645.89 348.02 647.92
  Q 346.20 654.94 340.90 659.01
  A 3.09 3.08 35.6 0 1 338.05 659.48
  C 332.84 657.71 329.31 653.89 325.44 649.31
  Q 319.70 642.50 314.93 635.02
  Q 311.45 629.57 307.36 624.82
  Q 302.65 619.37 294.51 608.49
  C 290.61 603.28 286.77 598.61 283.20 593.85
  Q 281.80 591.99 274.00 584.13
  A 0.72 0.72 0.0 0 0 273.02 584.09
  C 269.62 586.97 267.71 594.72 269.47 598.36
  A 1.39 1.36 -54.6 0 1 269.59 599.12
  L 268.91 603.91
  A 1.03 1.00 -53.6 0 0 268.99 604.50
  C 270.57 607.94 271.73 611.88 273.49 615.56
  Q 276.03 620.83 282.82 634.92
  Q 285.64 640.77 288.76 644.95
  Q 293.76 651.64 295.43 654.24
  A 5.88 5.80 4.5 0 0 296.54 655.52
  Q 305.17 662.91 311.15 673.79
  A 0.09 0.03 73.2 0 0 311.17 673.82
  L 316.87 679.92
  A 3.98 3.93 11.0 0 1 317.54 680.90
  Q 320.94 687.77 327.26 692.62
  A 2.59 2.54 -82.6 0 1 328.06 693.68
  Q 329.01 696.08 330.55 697.27
  Q 331.32 697.87 333.12 699.81
  Q 342.29 709.73 347.74 713.88
  Q 359.78 723.05 363.37 727.31
  A 0.73 0.71 70.4 0 0 363.90 727.57
  Q 364.39 727.58 364.40 727.13
  A 1.16 0.92 35.1 0 1 366.40 727.02
  Q 372.32 736.38 381.09 740.66
  A 4.92 4.90 79.5 0 1 382.32 741.51
  Q 386.29 745.28 390.35 749.15
  Q 398.42 756.85 407.45 762.28
  Q 410.04 763.84 418.60 767.07
  A 4.10 4.02 73.6 0 1 419.62 767.64
  L 428.48 774.55
  A 3.65 3.55 74.1 0 0 429.37 775.06
  Q 434.60 777.09 437.15 778.63
  Q 440.02 780.36 446.70 786.00
  A 4.03 4.02 76.0 0 0 447.71 786.61
  C 450.17 787.63 454.19 788.73 457.71 790.98
  A 8.45 8.28 -2.4 0 1 459.74 792.81
  Q 463.43 797.43 465.44 798.43
  Q 470.73 801.06 474.96 803.81
  C 484.11 809.75 493.58 814.07 502.59 819.83
  Q 510.98 825.20 516.47 828.88
  Q 518.75 830.41 518.85 833.28
  A 0.36 0.36 0.0 0 0 519.43 833.54
  Q 522.09 831.46 522.83 830.30
  Q 527.57 822.89 533.01 816.88
  Q 538.02 811.36 538.14 811.22
  C 542.12 806.94 546.20 801.72 550.96 797.13
  Q 552.02 796.11 561.78 786.66
  C 571.99 776.76 580.25 765.90 588.92 754.16
  Q 589.59 753.25 590.38 752.39
  Q 600.79 741.03 620.58 718.75
  Q 622.73 716.33 626.11 712.94
  C 629.16 709.90 632.81 704.85 636.93 705.21
  A 0.64 0.63 -82.0 0 0 637.61 704.69
  C 637.96 702.73 639.42 700.88 640.59 698.34
  C 642.24 694.79 645.11 692.72 648.39 690.23
  Q 650.86 688.35 651.78 685.26
  A 1.33 1.28 -48.2 0 0 651.75 684.44
  Q 649.66 678.63 645.77 674.84
  C 642.29 671.44 638.63 667.01 636.11 663.61
  A 6.05 5.84 -76.5 0 1 635.48 662.54
  Q 632.71 656.30 627.47 648.72
  A 5.43 5.37 -84.5 0 0 626.89 648.01
  Q 624.29 645.32 623.59 643.18
  Q 621.02 635.33 618.57 629.18
  A 3.94 3.87 32.0 0 1 618.29 628.02
  C 617.97 624.46 615.70 622.39 614.92 618.97
  Q 613.61 613.19 613.20 611.05
  A 7.84 7.81 44.9 0 1 613.19 608.09
  Q 615.46 595.96 611.79 585.29
  A 2.60 2.54 40.4 0 1 611.68 584.09
  Q 611.68 584.06 611.74 583.78
  A 3.42 3.36 41.6 0 0 611.63 582.18
  L 607.08 567.75
  A 1.10 0.97 -59.9 0 1 607.03 567.50
  Q 606.85 564.04 605.31 559.67
  A 1.40 1.39 -46.6 0 1 605.29 558.78
  Q 607.49 551.49 603.81 545.77
  A 4.27 4.24 -67.3 0 1 603.20 544.27
  Q 602.06 538.65 599.23 528.13
  Q 598.62 525.88 597.94 514.35
  A 2.27 2.12 29.6 0 0 597.63 513.35
  L 580.90 485.14
  A 2.56 2.50 -62.8 0 1 580.55 484.01
  L 580.22 479.33
  A 0.34 0.34 0.0 0 0 579.60 479.17
  Z
  M 637.9722 399.8899
  A 0.95 0.70 -55.2 0 0 636.8552 400.2705
  A 0.95 0.70 -55.2 0 0 636.8878 401.4501
  A 0.95 0.70 -55.2 0 0 638.0048 401.0695
  A 0.95 0.70 -55.2 0 0 637.9722 399.8899
  Z
  M 254.74 638.41
  L 252.00 646.74
  A 2.64 2.58 76.6 0 1 251.45 647.66
  Q 244.64 654.94 239.33 663.31
  C 233.21 672.98 225.63 686.00 221.12 698.45
  A 3.52 3.51 41.6 0 0 221.29 701.22
  Q 222.03 702.70 221.44 703.76
  A 1.41 1.40 42.2 0 0 221.52 705.24
  L 229.35 716.60
  A 0.85 0.67 4.8 0 0 229.52 716.76
  Q 231.58 718.27 232.88 720.06
  A 3.47 3.39 -6.5 0 0 234.39 721.23
  Q 238.44 722.82 240.96 724.94
  A 0.84 0.83 49.6 0 0 241.91 725.02
  Q 244.51 723.49 248.40 724.46
  A 2.21 2.18 -41.8 0 0 249.23 724.50
  Q 251.69 724.18 253.10 721.83
  Q 256.46 716.22 257.12 714.97
  A 0.93 0.91 6.2 0 1 257.73 714.49
  L 263.16 713.14
  A 1.39 1.33 16.5 0 0 263.74 712.84
  L 271.55 706.30
  A 2.94 2.84 -68.5 0 1 272.98 705.65
  L 276.57 705.12
  A 1.45 1.44 -85.0 0 0 277.73 704.14
  L 278.21 702.67
  A 2.41 2.39 79.8 0 1 278.95 701.60
  L 285.26 696.30
  A 2.48 2.43 24.5 0 1 286.84 695.73
  L 289.79 695.73
  A 0.62 0.62 0.0 0 0 290.26 694.71
  L 287.18 691.03
  A 1.27 1.20 24.2 0 1 286.89 690.33
  C 286.66 687.03 286.77 683.74 285.23 682.01
  Q 271.14 666.17 267.62 661.39
  Q 266.39 659.72 258.97 646.08
  A 1.39 0.30 77.4 0 1 258.91 645.95
  L 256.15 638.39
  A 0.75 0.75 0.0 0 0 254.74 638.41
  Z"
/>
</svg>
